G04 #@! TF.FileFunction,Legend,Bot*
%FSLAX46Y46*%
G04 Gerber Fmt 4.6, Leading zero omitted, Abs format (unit mm)*
G04 Created by KiCad (PCBNEW 4.0.1-stable) date Wednesday, April 13, 2016 'PMt' 12:19:44 PM*
%MOMM*%
G01*
G04 APERTURE LIST*
%ADD10C,0.100000*%
%ADD11C,0.150000*%
G04 APERTURE END LIST*
D10*
G36*
X167916309Y-128430592D02*
X167916309Y-126917505D01*
X167559436Y-126733111D01*
X167570603Y-126739473D01*
X167581094Y-126746274D01*
X167590908Y-126753514D01*
X167600045Y-126761193D01*
X167608506Y-126769311D01*
X167616289Y-126777867D01*
X167623396Y-126786862D01*
X167629826Y-126796296D01*
X167635579Y-126806169D01*
X167640655Y-126816481D01*
X167645055Y-126827231D01*
X167648777Y-126838420D01*
X167651823Y-126850048D01*
X167654192Y-126862115D01*
X167655884Y-126874621D01*
X167656899Y-126887565D01*
X167657238Y-126900948D01*
X167657238Y-127628554D01*
X167657238Y-127628536D01*
X167640986Y-127634639D01*
X167624692Y-127640394D01*
X167608355Y-127645800D01*
X167591976Y-127650857D01*
X167575555Y-127655565D01*
X167559091Y-127659925D01*
X167542584Y-127663936D01*
X167526035Y-127667598D01*
X167509443Y-127670911D01*
X167492809Y-127673876D01*
X167476132Y-127676492D01*
X167459412Y-127678759D01*
X167442651Y-127680677D01*
X167425846Y-127682246D01*
X167408999Y-127683467D01*
X167392110Y-127684339D01*
X167375178Y-127684862D01*
X167358203Y-127685037D01*
X167339234Y-127684832D01*
X167320911Y-127684219D01*
X167303235Y-127683197D01*
X167286205Y-127681766D01*
X167269822Y-127679926D01*
X167254085Y-127677678D01*
X167238994Y-127675021D01*
X167224551Y-127671954D01*
X167210753Y-127668479D01*
X167195293Y-127663867D01*
X167179920Y-127658309D01*
X167164632Y-127651805D01*
X167149430Y-127644354D01*
X167134315Y-127635958D01*
X167119286Y-127626615D01*
X167104343Y-127616327D01*
X167089486Y-127605092D01*
X167078951Y-127596138D01*
X167068895Y-127586319D01*
X167059317Y-127575635D01*
X167050217Y-127564085D01*
X167041596Y-127551671D01*
X167033453Y-127538391D01*
X167025789Y-127524246D01*
X167018602Y-127509236D01*
X167011894Y-127493360D01*
X167005665Y-127476620D01*
X166999913Y-127459014D01*
X166995828Y-127445368D01*
X166992025Y-127431256D01*
X166988503Y-127416679D01*
X166985263Y-127401636D01*
X166982305Y-127386128D01*
X166979629Y-127370154D01*
X166977234Y-127353715D01*
X166975121Y-127336811D01*
X166973290Y-127319441D01*
X166971740Y-127301605D01*
X166970472Y-127283304D01*
X166969486Y-127264538D01*
X166968782Y-127245307D01*
X166968359Y-127225609D01*
X166968218Y-127205447D01*
X166968342Y-127185171D01*
X166968714Y-127165337D01*
X166969333Y-127145943D01*
X166970199Y-127126991D01*
X166971314Y-127108481D01*
X166972676Y-127090411D01*
X166974285Y-127072783D01*
X166976142Y-127055596D01*
X166978247Y-127038851D01*
X166980599Y-127022546D01*
X166983199Y-127006683D01*
X166986047Y-126991261D01*
X166989142Y-126976281D01*
X166992485Y-126961742D01*
X166996075Y-126947644D01*
X166999913Y-126933987D01*
X167005653Y-126914680D01*
X167011849Y-126896353D01*
X167018500Y-126879007D01*
X167025606Y-126862640D01*
X167033168Y-126847253D01*
X167041186Y-126832846D01*
X167049659Y-126819419D01*
X167058588Y-126806972D01*
X167067972Y-126795504D01*
X167077812Y-126785017D01*
X167088108Y-126775510D01*
X167102556Y-126763601D01*
X167116960Y-126752684D01*
X167131322Y-126742757D01*
X167145641Y-126733821D01*
X167159916Y-126725875D01*
X167174149Y-126718920D01*
X167188339Y-126712956D01*
X167202485Y-126707983D01*
X167216868Y-126703794D01*
X167231768Y-126700163D01*
X167247185Y-126697091D01*
X167263119Y-126694578D01*
X167279569Y-126692623D01*
X167296536Y-126691226D01*
X167314020Y-126690388D01*
X167332021Y-126690109D01*
X167352664Y-126690329D01*
X167372630Y-126690987D01*
X167391920Y-126692084D01*
X167410533Y-126693619D01*
X167428469Y-126695594D01*
X167445728Y-126698007D01*
X167462310Y-126700859D01*
X167478216Y-126704150D01*
X167493445Y-126707880D01*
X167507996Y-126712049D01*
X167521871Y-126716656D01*
X167535070Y-126721702D01*
X167547591Y-126727187D01*
X167559436Y-126733111D01*
X167916309Y-126917505D01*
X167916079Y-126902385D01*
X167915390Y-126887341D01*
X167914242Y-126872373D01*
X167912634Y-126857482D01*
X167910567Y-126842666D01*
X167908040Y-126827928D01*
X167905172Y-126814457D01*
X167901291Y-126800029D01*
X167896398Y-126784646D01*
X167890492Y-126768307D01*
X167883573Y-126751012D01*
X167875643Y-126732760D01*
X167866699Y-126713552D01*
X167858754Y-126698445D01*
X167850231Y-126683747D01*
X167841129Y-126669457D01*
X167831449Y-126655575D01*
X167821190Y-126642101D01*
X167810353Y-126629036D01*
X167798937Y-126616379D01*
X167786943Y-126604131D01*
X167774371Y-126592291D01*
X167764323Y-126583666D01*
X167753471Y-126575253D01*
X167741815Y-126567050D01*
X167729355Y-126559058D01*
X167716091Y-126551277D01*
X167702024Y-126543706D01*
X167687152Y-126536347D01*
X167671477Y-126529199D01*
X167654998Y-126522261D01*
X167637715Y-126515534D01*
X167619629Y-126509018D01*
X167600738Y-126502714D01*
X167586123Y-126498041D01*
X167571218Y-126493669D01*
X167556022Y-126489599D01*
X167540535Y-126485831D01*
X167524757Y-126482364D01*
X167508689Y-126479198D01*
X167492331Y-126476334D01*
X167475681Y-126473772D01*
X167458741Y-126471511D01*
X167441510Y-126469551D01*
X167423988Y-126467893D01*
X167406176Y-126466536D01*
X167388073Y-126465481D01*
X167369680Y-126464727D01*
X167350995Y-126464275D01*
X167332021Y-126464124D01*
X167314616Y-126464294D01*
X167297314Y-126464803D01*
X167280114Y-126465650D01*
X167263017Y-126466837D01*
X167246021Y-126468364D01*
X167229127Y-126470229D01*
X167212335Y-126472433D01*
X167195646Y-126474977D01*
X167179058Y-126477859D01*
X167165175Y-126480642D01*
X167151088Y-126483996D01*
X167136795Y-126487920D01*
X167122297Y-126492416D01*
X167107594Y-126497483D01*
X167092686Y-126503120D01*
X167077573Y-126509329D01*
X167062255Y-126516108D01*
X167046732Y-126523459D01*
X167031005Y-126531380D01*
X167015072Y-126539873D01*
X167000315Y-126548114D01*
X166985903Y-126556757D01*
X166971836Y-126565801D01*
X166958113Y-126575247D01*
X166944734Y-126585094D01*
X166931700Y-126595344D01*
X166919011Y-126605994D01*
X166906666Y-126617047D01*
X166894666Y-126628501D01*
X166883010Y-126640357D01*
X166871698Y-126652614D01*
X166860731Y-126665274D01*
X166852194Y-126675846D01*
X166843852Y-126686981D01*
X166835706Y-126698680D01*
X166827757Y-126710943D01*
X166820003Y-126723769D01*
X166812445Y-126737158D01*
X166805083Y-126751111D01*
X166797917Y-126765627D01*
X166790948Y-126780707D01*
X166784174Y-126796350D01*
X166777596Y-126812557D01*
X166771214Y-126829327D01*
X166765028Y-126846660D01*
X166759038Y-126864557D01*
X166753245Y-126883017D01*
X166748725Y-126897789D01*
X166744450Y-126912806D01*
X166740418Y-126928066D01*
X166736632Y-126943571D01*
X166733089Y-126959321D01*
X166729791Y-126975314D01*
X166726737Y-126991552D01*
X166723928Y-127008035D01*
X166721363Y-127024761D01*
X166719042Y-127041732D01*
X166716965Y-127058947D01*
X166715133Y-127076407D01*
X166713545Y-127094111D01*
X166712201Y-127112059D01*
X166711102Y-127130252D01*
X166710247Y-127148689D01*
X166709636Y-127167370D01*
X166709269Y-127186296D01*
X166709147Y-127205466D01*
X166709279Y-127225277D01*
X166709672Y-127244814D01*
X166710328Y-127264075D01*
X166711247Y-127283062D01*
X166712428Y-127301773D01*
X166713872Y-127320210D01*
X166715578Y-127338371D01*
X166717547Y-127356258D01*
X166719778Y-127373869D01*
X166722271Y-127391206D01*
X166725028Y-127408267D01*
X166728046Y-127425054D01*
X166731327Y-127441565D01*
X166734871Y-127457802D01*
X166738677Y-127473763D01*
X166742745Y-127489449D01*
X166747076Y-127504861D01*
X166751670Y-127519997D01*
X166756526Y-127534859D01*
X166761644Y-127549445D01*
X166767025Y-127563756D01*
X166774260Y-127581892D01*
X166781839Y-127599435D01*
X166789763Y-127616386D01*
X166798031Y-127632745D01*
X166806643Y-127648513D01*
X166815601Y-127663688D01*
X166824902Y-127678271D01*
X166834549Y-127692261D01*
X166844540Y-127705660D01*
X166854875Y-127718467D01*
X166865555Y-127730682D01*
X166876579Y-127742304D01*
X166887948Y-127753335D01*
X166899661Y-127763773D01*
X166911719Y-127773619D01*
X166924121Y-127782874D01*
X166938513Y-127792905D01*
X166952948Y-127802529D01*
X166967424Y-127811745D01*
X166981943Y-127820554D01*
X166996503Y-127828955D01*
X167011106Y-127836948D01*
X167025752Y-127844534D01*
X167040439Y-127851713D01*
X167055168Y-127858483D01*
X167069940Y-127864847D01*
X167084754Y-127870802D01*
X167099610Y-127876350D01*
X167114508Y-127881491D01*
X167129449Y-127886223D01*
X167144326Y-127890399D01*
X167159428Y-127894265D01*
X167174755Y-127897822D01*
X167190308Y-127901069D01*
X167206085Y-127904008D01*
X167222087Y-127906637D01*
X167238314Y-127908956D01*
X167254766Y-127910967D01*
X167271443Y-127912668D01*
X167288345Y-127914060D01*
X167305472Y-127915142D01*
X167322824Y-127915915D01*
X167340401Y-127916379D01*
X167358203Y-127916534D01*
X167375467Y-127916406D01*
X167392654Y-127916024D01*
X167409765Y-127915386D01*
X167426799Y-127914493D01*
X167443756Y-127913344D01*
X167460637Y-127911941D01*
X167477442Y-127910283D01*
X167494170Y-127908369D01*
X167510821Y-127906200D01*
X167527396Y-127903776D01*
X167543894Y-127901097D01*
X167560316Y-127898162D01*
X167576661Y-127894973D01*
X167592929Y-127891528D01*
X167609121Y-127887828D01*
X167625236Y-127883873D01*
X167641275Y-127879663D01*
X167657238Y-127875198D01*
X167657238Y-128430555D01*
X167916309Y-128430555D01*
X167916309Y-128430592D01*
X167916309Y-128430592D01*
G37*
G36*
X166357747Y-127556908D02*
X166126237Y-126931277D01*
X166129908Y-126944245D01*
X166133343Y-126957654D01*
X166136540Y-126971505D01*
X166139501Y-126985797D01*
X166142224Y-127000530D01*
X166144711Y-127015705D01*
X166146961Y-127031321D01*
X166148975Y-127047379D01*
X166150751Y-127063878D01*
X166152291Y-127080818D01*
X166153593Y-127098200D01*
X166154659Y-127116024D01*
X166155488Y-127134288D01*
X166156080Y-127152994D01*
X166156435Y-127172142D01*
X166156554Y-127191731D01*
X166156435Y-127211325D01*
X166156080Y-127230489D01*
X166155488Y-127249222D01*
X166154659Y-127267524D01*
X166153593Y-127285396D01*
X166152291Y-127302836D01*
X166150751Y-127319847D01*
X166148975Y-127336426D01*
X166146961Y-127352575D01*
X166144711Y-127368293D01*
X166142224Y-127383581D01*
X166139501Y-127398437D01*
X166136540Y-127412864D01*
X166133343Y-127426859D01*
X166129908Y-127440424D01*
X166126237Y-127453558D01*
X166120224Y-127471666D01*
X166113709Y-127488909D01*
X166106694Y-127505287D01*
X166099177Y-127520799D01*
X166091160Y-127535445D01*
X166082641Y-127549226D01*
X166073621Y-127562142D01*
X166064100Y-127574192D01*
X166054078Y-127585376D01*
X166043555Y-127595695D01*
X166032530Y-127605149D01*
X166018733Y-127615762D01*
X166004902Y-127625559D01*
X165991036Y-127634540D01*
X165977137Y-127642704D01*
X165963203Y-127650052D01*
X165949236Y-127656584D01*
X165935234Y-127662300D01*
X165921198Y-127667200D01*
X165907129Y-127671283D01*
X165892719Y-127674758D01*
X165877663Y-127677824D01*
X165861960Y-127680481D01*
X165845611Y-127682730D01*
X165828615Y-127684569D01*
X165810972Y-127686000D01*
X165792684Y-127687022D01*
X165773748Y-127687636D01*
X165754167Y-127687840D01*
X165734296Y-127687636D01*
X165715105Y-127687022D01*
X165696595Y-127686000D01*
X165678766Y-127684569D01*
X165661617Y-127682730D01*
X165645149Y-127680481D01*
X165629361Y-127677824D01*
X165614253Y-127674758D01*
X165599826Y-127671283D01*
X165585757Y-127667196D01*
X165571721Y-127662294D01*
X165557720Y-127656576D01*
X165543752Y-127650043D01*
X165529819Y-127642695D01*
X165515919Y-127634531D01*
X165502054Y-127625552D01*
X165488222Y-127615758D01*
X165474425Y-127605149D01*
X165463412Y-127595695D01*
X165452923Y-127585376D01*
X165442958Y-127574192D01*
X165433517Y-127562142D01*
X165424599Y-127549226D01*
X165416206Y-127535445D01*
X165408336Y-127520799D01*
X165400990Y-127505287D01*
X165394168Y-127488909D01*
X165387870Y-127471666D01*
X165382096Y-127453558D01*
X165378258Y-127440424D01*
X165374668Y-127426859D01*
X165371325Y-127412864D01*
X165368230Y-127398437D01*
X165365382Y-127383581D01*
X165362782Y-127368293D01*
X165360430Y-127352575D01*
X165358325Y-127336426D01*
X165356468Y-127319847D01*
X165354859Y-127302836D01*
X165353497Y-127285396D01*
X165352382Y-127267524D01*
X165351516Y-127249222D01*
X165350897Y-127230489D01*
X165350525Y-127211325D01*
X165350402Y-127191731D01*
X165350525Y-127172142D01*
X165350897Y-127152994D01*
X165351516Y-127134288D01*
X165352382Y-127116024D01*
X165353497Y-127098200D01*
X165354859Y-127080818D01*
X165356468Y-127063878D01*
X165358325Y-127047379D01*
X165360430Y-127031321D01*
X165362782Y-127015705D01*
X165365382Y-127000530D01*
X165368230Y-126985797D01*
X165371325Y-126971505D01*
X165374668Y-126957654D01*
X165378258Y-126944245D01*
X165382096Y-126931277D01*
X165387870Y-126912931D01*
X165394168Y-126895472D01*
X165400990Y-126878902D01*
X165408336Y-126863219D01*
X165416206Y-126848425D01*
X165424599Y-126834520D01*
X165433517Y-126821502D01*
X165442958Y-126809372D01*
X165452923Y-126798131D01*
X165463412Y-126787778D01*
X165474425Y-126778313D01*
X165488222Y-126767700D01*
X165502054Y-126757903D01*
X165515919Y-126748922D01*
X165529819Y-126740758D01*
X165543752Y-126733409D01*
X165557720Y-126726877D01*
X165571721Y-126721162D01*
X165585757Y-126716262D01*
X165599826Y-126712179D01*
X165614253Y-126708704D01*
X165629361Y-126705638D01*
X165645149Y-126702981D01*
X165661617Y-126700732D01*
X165678766Y-126698892D01*
X165696595Y-126697462D01*
X165715105Y-126696439D01*
X165734296Y-126695826D01*
X165754167Y-126695622D01*
X165773748Y-126695826D01*
X165792684Y-126696439D01*
X165810972Y-126697462D01*
X165828615Y-126698892D01*
X165845611Y-126700732D01*
X165861960Y-126702981D01*
X165877663Y-126705638D01*
X165892719Y-126708704D01*
X165907129Y-126712179D01*
X165921198Y-126716266D01*
X165935234Y-126721168D01*
X165949236Y-126726886D01*
X165963203Y-126733419D01*
X165977137Y-126740767D01*
X165991036Y-126748931D01*
X166004902Y-126757909D01*
X166018733Y-126767704D01*
X166032530Y-126778313D01*
X166043555Y-126787778D01*
X166054078Y-126798131D01*
X166064100Y-126809372D01*
X166073621Y-126821502D01*
X166082641Y-126834520D01*
X166091160Y-126848425D01*
X166099177Y-126863219D01*
X166106694Y-126878902D01*
X166113709Y-126895472D01*
X166120224Y-126912931D01*
X166126237Y-126931277D01*
X166357747Y-127556908D01*
X166363012Y-127543119D01*
X166368031Y-127529063D01*
X166372806Y-127514740D01*
X166377336Y-127500148D01*
X166381621Y-127485289D01*
X166385661Y-127470163D01*
X166389457Y-127454768D01*
X166393007Y-127439106D01*
X166396313Y-127423177D01*
X166399373Y-127406979D01*
X166402189Y-127390514D01*
X166404760Y-127373781D01*
X166407086Y-127356781D01*
X166409168Y-127339513D01*
X166411004Y-127321977D01*
X166412596Y-127304173D01*
X166413942Y-127286102D01*
X166415044Y-127267763D01*
X166415901Y-127249157D01*
X166416513Y-127230282D01*
X166416881Y-127211141D01*
X166417003Y-127191731D01*
X166416881Y-127172324D01*
X166416513Y-127153191D01*
X166415901Y-127134331D01*
X166415044Y-127115744D01*
X166413942Y-127097431D01*
X166412596Y-127079391D01*
X166411004Y-127061624D01*
X166409168Y-127044131D01*
X166407086Y-127026911D01*
X166404760Y-127009964D01*
X166402189Y-126993291D01*
X166399373Y-126976891D01*
X166396313Y-126960765D01*
X166393007Y-126944912D01*
X166389457Y-126929332D01*
X166385661Y-126914025D01*
X166381621Y-126898992D01*
X166377336Y-126884233D01*
X166372806Y-126869746D01*
X166368031Y-126855533D01*
X166363012Y-126841594D01*
X166357747Y-126827928D01*
X166350628Y-126810519D01*
X166343214Y-126793635D01*
X166335503Y-126777276D01*
X166327497Y-126761441D01*
X166319196Y-126746130D01*
X166310599Y-126731343D01*
X166301706Y-126717081D01*
X166292517Y-126703343D01*
X166283033Y-126690130D01*
X166273253Y-126677440D01*
X166263178Y-126665276D01*
X166252807Y-126653635D01*
X166242140Y-126642519D01*
X166231178Y-126631927D01*
X166219920Y-126621860D01*
X166208366Y-126612316D01*
X166196517Y-126603298D01*
X166181928Y-126592892D01*
X166167297Y-126582937D01*
X166152624Y-126573432D01*
X166137908Y-126564376D01*
X166123150Y-126555771D01*
X166108351Y-126547616D01*
X166093509Y-126539910D01*
X166078624Y-126532655D01*
X166063698Y-126525850D01*
X166048729Y-126519495D01*
X166033719Y-126513590D01*
X166018666Y-126508135D01*
X166003570Y-126503129D01*
X165988433Y-126498574D01*
X165972979Y-126494210D01*
X165957329Y-126490168D01*
X165941481Y-126486450D01*
X165925437Y-126483056D01*
X165909196Y-126479984D01*
X165892758Y-126477236D01*
X165876123Y-126474811D01*
X165859291Y-126472710D01*
X165842263Y-126470932D01*
X165825037Y-126469477D01*
X165807615Y-126468345D01*
X165789996Y-126467537D01*
X165772180Y-126467052D01*
X165754167Y-126466890D01*
X165735971Y-126467052D01*
X165718000Y-126467537D01*
X165700254Y-126468345D01*
X165682734Y-126469477D01*
X165665438Y-126470932D01*
X165648367Y-126472710D01*
X165631521Y-126474811D01*
X165614900Y-126477236D01*
X165598505Y-126479984D01*
X165582334Y-126483056D01*
X165566388Y-126486450D01*
X165550667Y-126490168D01*
X165535171Y-126494210D01*
X165519900Y-126498574D01*
X165504573Y-126503129D01*
X165489302Y-126508135D01*
X165474087Y-126513590D01*
X165458929Y-126519495D01*
X165443827Y-126525850D01*
X165428781Y-126532655D01*
X165413791Y-126539910D01*
X165398858Y-126547616D01*
X165383981Y-126555771D01*
X165369160Y-126564376D01*
X165354395Y-126573432D01*
X165339687Y-126582937D01*
X165325034Y-126592892D01*
X165310438Y-126603298D01*
X165298589Y-126612316D01*
X165287036Y-126621860D01*
X165275778Y-126631927D01*
X165264815Y-126642519D01*
X165254149Y-126653635D01*
X165243778Y-126665276D01*
X165233702Y-126677440D01*
X165223922Y-126690130D01*
X165214438Y-126703343D01*
X165205250Y-126717081D01*
X165196357Y-126731343D01*
X165187760Y-126746130D01*
X165179458Y-126761441D01*
X165171452Y-126777276D01*
X165163742Y-126793635D01*
X165156327Y-126810519D01*
X165149208Y-126827928D01*
X165143943Y-126841594D01*
X165138924Y-126855533D01*
X165134149Y-126869746D01*
X165129619Y-126884233D01*
X165125334Y-126898992D01*
X165121294Y-126914025D01*
X165117499Y-126929332D01*
X165113948Y-126944912D01*
X165110643Y-126960765D01*
X165107582Y-126976891D01*
X165104766Y-126993291D01*
X165102195Y-127009964D01*
X165099869Y-127026911D01*
X165097788Y-127044131D01*
X165095951Y-127061624D01*
X165094360Y-127079391D01*
X165093013Y-127097431D01*
X165091911Y-127115744D01*
X165091054Y-127134331D01*
X165090442Y-127153191D01*
X165090075Y-127172324D01*
X165089952Y-127191731D01*
X165090075Y-127211141D01*
X165090442Y-127230282D01*
X165091054Y-127249157D01*
X165091911Y-127267763D01*
X165093013Y-127286102D01*
X165094360Y-127304173D01*
X165095951Y-127321977D01*
X165097788Y-127339513D01*
X165099869Y-127356781D01*
X165102195Y-127373781D01*
X165104766Y-127390514D01*
X165107582Y-127406979D01*
X165110643Y-127423177D01*
X165113948Y-127439106D01*
X165117499Y-127454768D01*
X165121294Y-127470163D01*
X165125334Y-127485289D01*
X165129619Y-127500148D01*
X165134149Y-127514740D01*
X165138924Y-127529063D01*
X165143943Y-127543119D01*
X165149208Y-127556908D01*
X165156327Y-127574159D01*
X165163742Y-127590895D01*
X165171452Y-127607117D01*
X165179458Y-127622823D01*
X165187760Y-127638015D01*
X165196357Y-127652691D01*
X165205250Y-127666853D01*
X165214438Y-127680499D01*
X165223922Y-127693631D01*
X165233702Y-127706248D01*
X165243778Y-127718349D01*
X165254149Y-127729936D01*
X165264815Y-127741008D01*
X165275778Y-127751565D01*
X165287036Y-127761607D01*
X165298589Y-127771133D01*
X165310438Y-127780145D01*
X165325034Y-127790558D01*
X165339687Y-127800535D01*
X165354395Y-127810075D01*
X165369160Y-127819180D01*
X165383981Y-127827850D01*
X165398858Y-127836083D01*
X165413791Y-127843881D01*
X165428781Y-127851242D01*
X165443827Y-127858168D01*
X165458929Y-127864658D01*
X165474087Y-127870713D01*
X165489302Y-127876331D01*
X165504573Y-127881514D01*
X165519900Y-127886261D01*
X165535171Y-127890436D01*
X165550667Y-127894303D01*
X165566388Y-127897859D01*
X165582334Y-127901107D01*
X165598505Y-127904045D01*
X165614900Y-127906674D01*
X165631521Y-127908994D01*
X165648367Y-127911004D01*
X165665438Y-127912705D01*
X165682734Y-127914097D01*
X165700254Y-127915180D01*
X165718000Y-127915953D01*
X165735971Y-127916417D01*
X165754167Y-127916572D01*
X165772180Y-127916417D01*
X165789996Y-127915953D01*
X165807615Y-127915180D01*
X165825037Y-127914097D01*
X165842263Y-127912705D01*
X165859291Y-127911004D01*
X165876123Y-127908994D01*
X165892758Y-127906674D01*
X165909196Y-127904045D01*
X165925437Y-127901107D01*
X165941481Y-127897859D01*
X165957329Y-127894303D01*
X165972979Y-127890436D01*
X165988433Y-127886261D01*
X166003570Y-127881514D01*
X166018666Y-127876331D01*
X166033719Y-127870713D01*
X166048729Y-127864658D01*
X166063698Y-127858168D01*
X166078624Y-127851242D01*
X166093509Y-127843881D01*
X166108351Y-127836083D01*
X166123150Y-127827850D01*
X166137908Y-127819180D01*
X166152624Y-127810075D01*
X166167297Y-127800535D01*
X166181928Y-127790558D01*
X166196517Y-127780145D01*
X166208366Y-127771133D01*
X166219920Y-127761607D01*
X166231178Y-127751565D01*
X166242140Y-127741008D01*
X166252807Y-127729936D01*
X166263178Y-127718349D01*
X166273253Y-127706248D01*
X166283033Y-127693631D01*
X166292517Y-127680499D01*
X166301706Y-127666853D01*
X166310599Y-127652691D01*
X166319196Y-127638015D01*
X166327497Y-127622823D01*
X166335503Y-127607117D01*
X166343214Y-127590895D01*
X166350628Y-127574159D01*
X166357747Y-127556908D01*
X166357747Y-127556908D01*
G37*
G36*
X164715126Y-127894521D02*
X164715126Y-125950122D01*
X164456055Y-125950122D01*
X164456055Y-127894521D01*
X164715126Y-127894521D01*
X164715126Y-127894521D01*
G37*
G36*
X164147374Y-126486175D02*
X163870388Y-126486175D01*
X163491428Y-127541743D01*
X163119358Y-126486175D01*
X162842372Y-126486175D01*
X163421148Y-128044738D01*
X163428556Y-128064260D01*
X163436127Y-128083300D01*
X163443860Y-128101858D01*
X163451755Y-128119934D01*
X163459813Y-128137527D01*
X163468032Y-128154639D01*
X163476415Y-128171269D01*
X163484959Y-128187417D01*
X163493666Y-128203082D01*
X163502535Y-128218266D01*
X163511567Y-128232968D01*
X163520760Y-128247187D01*
X163530116Y-128260925D01*
X163539635Y-128274181D01*
X163549315Y-128286954D01*
X163559158Y-128299246D01*
X163569164Y-128311055D01*
X163579331Y-128322383D01*
X163589661Y-128333228D01*
X163600154Y-128343592D01*
X163610808Y-128353473D01*
X163621625Y-128362873D01*
X163632604Y-128371790D01*
X163643746Y-128380225D01*
X163655050Y-128388179D01*
X163666516Y-128395650D01*
X163678144Y-128402639D01*
X163689935Y-128409147D01*
X163701888Y-128415172D01*
X163714004Y-128420715D01*
X163726281Y-128425776D01*
X163738721Y-128430356D01*
X163751324Y-128434453D01*
X163764089Y-128438068D01*
X163777016Y-128441201D01*
X163790105Y-128443852D01*
X163803356Y-128446021D01*
X163816770Y-128447708D01*
X163830347Y-128448913D01*
X163844085Y-128449637D01*
X163857986Y-128449878D01*
X163859360Y-128449878D01*
X163875044Y-128449724D01*
X163890863Y-128449265D01*
X163906816Y-128448499D01*
X163922902Y-128447427D01*
X163939123Y-128446049D01*
X163955478Y-128444365D01*
X163971966Y-128442374D01*
X163988589Y-128440077D01*
X164005346Y-128437474D01*
X164022236Y-128434564D01*
X164039261Y-128431349D01*
X164056419Y-128427827D01*
X164056419Y-128196310D01*
X164039704Y-128200514D01*
X164023181Y-128204304D01*
X164006851Y-128207682D01*
X163990714Y-128210646D01*
X163974770Y-128213197D01*
X163959019Y-128215334D01*
X163943461Y-128217059D01*
X163928096Y-128218370D01*
X163912924Y-128219268D01*
X163897945Y-128219754D01*
X163886352Y-128219392D01*
X163874910Y-128218308D01*
X163863618Y-128216501D01*
X163852476Y-128213972D01*
X163841483Y-128210719D01*
X163830641Y-128206744D01*
X163819949Y-128202046D01*
X163809407Y-128196626D01*
X163799015Y-128190483D01*
X163788773Y-128183617D01*
X163778682Y-128176028D01*
X163768740Y-128167716D01*
X163758948Y-128158682D01*
X163749306Y-128148925D01*
X163739815Y-128138445D01*
X163730473Y-128127243D01*
X163721282Y-128115318D01*
X163712240Y-128102670D01*
X163703349Y-128089299D01*
X163694608Y-128075206D01*
X163686016Y-128060389D01*
X163677575Y-128044851D01*
X163669284Y-128028589D01*
X163661143Y-128011604D01*
X163653152Y-127993897D01*
X163645311Y-127975468D01*
X163637620Y-127956315D01*
X163630079Y-127936440D01*
X163622688Y-127915841D01*
X163615447Y-127894521D01*
X164147370Y-126486175D01*
X164147374Y-126486175D01*
X164147374Y-126486175D01*
G37*
G36*
X162654959Y-126884429D02*
X162654649Y-126867058D01*
X162653718Y-126849949D01*
X162652168Y-126833102D01*
X162649998Y-126816518D01*
X162647207Y-126800195D01*
X162643797Y-126784134D01*
X162639766Y-126768334D01*
X162635115Y-126752797D01*
X162629844Y-126737522D01*
X162623953Y-126722508D01*
X162617442Y-126707757D01*
X162610310Y-126693267D01*
X162602559Y-126679039D01*
X162594187Y-126665073D01*
X162585195Y-126651369D01*
X162575584Y-126637927D01*
X162565352Y-126624747D01*
X162554500Y-126611829D01*
X162543028Y-126599173D01*
X162530935Y-126586778D01*
X162520694Y-126577162D01*
X162510033Y-126567939D01*
X162498954Y-126559107D01*
X162487455Y-126550669D01*
X162475538Y-126542623D01*
X162463202Y-126534969D01*
X162450447Y-126527708D01*
X162437273Y-126520839D01*
X162423680Y-126514363D01*
X162409668Y-126508280D01*
X162395237Y-126502589D01*
X162380387Y-126497290D01*
X162365119Y-126492384D01*
X162349431Y-126487870D01*
X162333325Y-126483749D01*
X162316799Y-126480020D01*
X162299855Y-126476684D01*
X162282492Y-126473740D01*
X162264709Y-126471189D01*
X162246508Y-126469031D01*
X162227888Y-126467264D01*
X162208849Y-126465891D01*
X162189391Y-126464909D01*
X162169514Y-126464321D01*
X162149219Y-126464124D01*
X162132573Y-126464299D01*
X162115948Y-126464822D01*
X162099344Y-126465695D01*
X162082760Y-126466917D01*
X162066198Y-126468488D01*
X162049656Y-126470407D01*
X162033135Y-126472676D01*
X162016635Y-126475294D01*
X162000156Y-126478261D01*
X161983698Y-126481577D01*
X161967260Y-126485242D01*
X161950844Y-126489256D01*
X161934448Y-126493619D01*
X161918073Y-126498331D01*
X161901719Y-126503393D01*
X161885386Y-126508803D01*
X161869073Y-126514562D01*
X161852782Y-126520671D01*
X161836511Y-126527128D01*
X161820261Y-126533935D01*
X161804032Y-126541090D01*
X161787824Y-126548595D01*
X161771636Y-126556449D01*
X161771636Y-126779686D01*
X161789045Y-126771873D01*
X161806359Y-126764440D01*
X161823580Y-126757389D01*
X161840707Y-126750718D01*
X161857740Y-126744429D01*
X161874680Y-126738521D01*
X161891526Y-126732994D01*
X161908278Y-126727849D01*
X161924936Y-126723084D01*
X161941501Y-126718701D01*
X161957971Y-126714699D01*
X161974348Y-126711078D01*
X161990632Y-126707838D01*
X162006821Y-126704979D01*
X162022917Y-126702502D01*
X162038919Y-126700405D01*
X162054828Y-126698690D01*
X162070642Y-126697356D01*
X162086363Y-126696403D01*
X162101990Y-126695831D01*
X162117524Y-126695641D01*
X162137862Y-126695888D01*
X162157432Y-126696631D01*
X162176235Y-126697869D01*
X162194271Y-126699602D01*
X162211539Y-126701831D01*
X162228039Y-126704555D01*
X162243772Y-126707774D01*
X162258738Y-126711488D01*
X162272936Y-126715697D01*
X162286367Y-126720402D01*
X162299030Y-126725602D01*
X162310926Y-126731297D01*
X162322054Y-126737487D01*
X162332415Y-126744173D01*
X162342008Y-126751353D01*
X162350834Y-126759029D01*
X162358892Y-126767201D01*
X162366183Y-126775867D01*
X162372707Y-126785029D01*
X162378463Y-126794686D01*
X162383451Y-126804838D01*
X162387672Y-126815485D01*
X162391126Y-126826628D01*
X162393812Y-126838265D01*
X162395731Y-126850398D01*
X162396882Y-126863027D01*
X162397266Y-126876150D01*
X162396347Y-126889082D01*
X162393591Y-126901537D01*
X162388997Y-126913516D01*
X162382566Y-126925018D01*
X162374298Y-126936044D01*
X162364193Y-126946593D01*
X162352250Y-126956665D01*
X162338469Y-126966260D01*
X162322851Y-126975379D01*
X162309071Y-126982327D01*
X162294790Y-126989138D01*
X162280007Y-126995812D01*
X162264723Y-127002350D01*
X162248939Y-127008750D01*
X162232653Y-127015014D01*
X162215866Y-127021140D01*
X162198578Y-127027130D01*
X162180788Y-127032983D01*
X162162498Y-127038700D01*
X162143707Y-127044279D01*
X162127594Y-127048813D01*
X162111482Y-127053509D01*
X162095369Y-127058369D01*
X162079257Y-127063392D01*
X162063144Y-127068579D01*
X162047032Y-127073928D01*
X162030919Y-127079441D01*
X162014807Y-127085117D01*
X161998695Y-127090956D01*
X161982582Y-127096958D01*
X161966470Y-127103124D01*
X161950357Y-127109453D01*
X161934245Y-127115945D01*
X161919248Y-127122145D01*
X161904575Y-127128936D01*
X161890225Y-127136318D01*
X161876198Y-127144290D01*
X161862495Y-127152853D01*
X161849116Y-127162006D01*
X161836060Y-127171750D01*
X161823327Y-127182084D01*
X161810917Y-127193009D01*
X161798831Y-127204524D01*
X161787069Y-127216630D01*
X161775630Y-127229327D01*
X161764514Y-127242614D01*
X161753722Y-127256491D01*
X161744544Y-127269078D01*
X161735958Y-127282031D01*
X161727964Y-127295349D01*
X161720563Y-127309033D01*
X161713753Y-127323083D01*
X161707536Y-127337499D01*
X161701911Y-127352281D01*
X161696878Y-127367428D01*
X161692437Y-127382942D01*
X161688588Y-127398821D01*
X161685331Y-127415066D01*
X161682667Y-127431677D01*
X161680594Y-127448654D01*
X161679114Y-127465997D01*
X161678226Y-127483706D01*
X161677930Y-127501780D01*
X161678250Y-127518613D01*
X161679211Y-127535212D01*
X161680813Y-127551577D01*
X161683056Y-127567707D01*
X161685939Y-127583603D01*
X161689464Y-127599265D01*
X161693629Y-127614693D01*
X161698435Y-127629887D01*
X161703882Y-127644846D01*
X161709969Y-127659571D01*
X161716697Y-127674061D01*
X161724066Y-127688318D01*
X161732076Y-127702340D01*
X161740727Y-127716128D01*
X161750018Y-127729682D01*
X161759950Y-127743001D01*
X161770523Y-127756086D01*
X161781737Y-127768937D01*
X161793592Y-127781554D01*
X161806087Y-127793937D01*
X161816153Y-127803189D01*
X161826635Y-127812078D01*
X161837533Y-127820604D01*
X161848847Y-127828768D01*
X161860577Y-127836569D01*
X161872722Y-127844007D01*
X161885284Y-127851082D01*
X161898261Y-127857794D01*
X161911654Y-127864143D01*
X161925463Y-127870130D01*
X161939688Y-127875754D01*
X161954328Y-127881015D01*
X161969385Y-127885913D01*
X161984857Y-127890448D01*
X162000745Y-127894621D01*
X162017049Y-127898430D01*
X162033769Y-127901877D01*
X162050905Y-127904961D01*
X162068457Y-127907682D01*
X162086424Y-127910041D01*
X162104808Y-127912036D01*
X162123607Y-127913669D01*
X162142822Y-127914939D01*
X162162453Y-127915846D01*
X162182499Y-127916390D01*
X162202962Y-127916572D01*
X162220969Y-127916415D01*
X162238831Y-127915945D01*
X162256547Y-127915163D01*
X162274117Y-127914067D01*
X162291542Y-127912658D01*
X162308822Y-127910936D01*
X162325956Y-127908901D01*
X162342944Y-127906553D01*
X162359787Y-127903892D01*
X162376485Y-127900918D01*
X162393037Y-127897630D01*
X162409443Y-127894030D01*
X162425704Y-127890116D01*
X162441819Y-127885890D01*
X162457789Y-127881350D01*
X162473613Y-127876498D01*
X162489292Y-127871332D01*
X162504825Y-127865853D01*
X162520213Y-127860061D01*
X162535455Y-127853956D01*
X162550552Y-127847538D01*
X162565503Y-127840807D01*
X162580309Y-127833762D01*
X162594969Y-127826405D01*
X162609483Y-127818735D01*
X162609483Y-127584471D01*
X162594170Y-127592904D01*
X162578774Y-127600979D01*
X162563298Y-127608694D01*
X162547740Y-127616050D01*
X162532100Y-127623048D01*
X162516380Y-127629687D01*
X162500578Y-127635967D01*
X162484694Y-127641888D01*
X162468730Y-127647450D01*
X162452684Y-127652653D01*
X162436556Y-127657498D01*
X162420348Y-127661984D01*
X162404058Y-127666110D01*
X162387686Y-127669878D01*
X162371234Y-127673288D01*
X162354700Y-127676338D01*
X162338084Y-127679029D01*
X162321387Y-127681362D01*
X162304609Y-127683335D01*
X162287750Y-127684950D01*
X162270809Y-127686206D01*
X162253787Y-127687103D01*
X162236683Y-127687642D01*
X162219499Y-127687821D01*
X162213986Y-127687821D01*
X162193593Y-127687536D01*
X162173966Y-127686680D01*
X162155105Y-127685253D01*
X162137012Y-127683256D01*
X162119684Y-127680688D01*
X162103123Y-127677549D01*
X162087329Y-127673839D01*
X162072301Y-127669559D01*
X162058039Y-127664709D01*
X162044544Y-127659287D01*
X162031816Y-127653295D01*
X162019854Y-127646732D01*
X162008658Y-127639599D01*
X161995043Y-127629414D01*
X161982861Y-127618706D01*
X161972113Y-127607475D01*
X161962797Y-127595720D01*
X161954915Y-127583441D01*
X161948466Y-127570639D01*
X161943449Y-127557314D01*
X161939867Y-127543466D01*
X161937717Y-127529093D01*
X161937000Y-127514198D01*
X161937615Y-127498696D01*
X161939460Y-127483763D01*
X161942535Y-127469400D01*
X161946840Y-127455606D01*
X161952375Y-127442383D01*
X161959140Y-127429729D01*
X161967135Y-127417645D01*
X161976360Y-127406131D01*
X161986815Y-127395186D01*
X161998499Y-127384811D01*
X162011414Y-127375006D01*
X162023817Y-127366222D01*
X162036678Y-127357783D01*
X162049999Y-127349688D01*
X162063780Y-127341938D01*
X162078020Y-127334532D01*
X162092719Y-127327470D01*
X162107877Y-127320753D01*
X162123495Y-127314380D01*
X162139572Y-127308352D01*
X162156108Y-127302668D01*
X162173104Y-127297329D01*
X162190559Y-127292334D01*
X162206884Y-127287635D01*
X162223208Y-127282872D01*
X162239533Y-127278043D01*
X162255857Y-127273149D01*
X162272182Y-127268191D01*
X162288506Y-127263167D01*
X162304830Y-127258078D01*
X162321155Y-127252925D01*
X162337479Y-127247706D01*
X162353804Y-127242422D01*
X162370128Y-127237073D01*
X162386453Y-127231660D01*
X162402777Y-127226181D01*
X162418710Y-127220178D01*
X162434285Y-127213621D01*
X162449500Y-127206510D01*
X162464357Y-127198845D01*
X162478855Y-127190626D01*
X162492994Y-127181852D01*
X162506774Y-127172524D01*
X162520196Y-127162642D01*
X162533259Y-127152206D01*
X162545963Y-127141216D01*
X162558308Y-127129671D01*
X162570295Y-127117572D01*
X162581922Y-127104919D01*
X162591336Y-127093307D01*
X162600100Y-127081254D01*
X162608215Y-127068760D01*
X162615681Y-127055824D01*
X162622498Y-127042448D01*
X162628665Y-127028631D01*
X162634183Y-127014372D01*
X162639053Y-126999673D01*
X162643272Y-126984532D01*
X162646843Y-126968951D01*
X162649764Y-126952928D01*
X162652037Y-126936465D01*
X162653660Y-126919561D01*
X162654634Y-126902215D01*
X162654958Y-126884429D01*
X162654959Y-126884429D01*
X162654959Y-126884429D01*
G37*
G36*
X161476736Y-126703900D02*
X161476736Y-126486175D01*
X161231445Y-126486175D01*
X161231445Y-126065871D01*
X160973752Y-126065871D01*
X160973752Y-126486175D01*
X160598926Y-126486175D01*
X160598926Y-126703900D01*
X160973752Y-126703900D01*
X160973752Y-127522458D01*
X160973322Y-127537149D01*
X160972032Y-127551157D01*
X160969883Y-127564482D01*
X160966873Y-127577123D01*
X160963004Y-127589081D01*
X160958275Y-127600356D01*
X160952686Y-127610948D01*
X160946237Y-127620856D01*
X160938928Y-127630081D01*
X160930760Y-127638622D01*
X160921731Y-127646480D01*
X160911843Y-127653655D01*
X160901095Y-127660147D01*
X160889487Y-127665955D01*
X160877019Y-127671080D01*
X160863691Y-127675521D01*
X160849504Y-127679280D01*
X160834456Y-127682355D01*
X160818549Y-127684746D01*
X160801782Y-127686454D01*
X160784155Y-127687479D01*
X160765668Y-127687821D01*
X160762912Y-127687821D01*
X160743909Y-127687408D01*
X160725484Y-127686168D01*
X160707639Y-127684101D01*
X160690372Y-127681207D01*
X160673684Y-127677487D01*
X160657575Y-127672940D01*
X160642044Y-127667566D01*
X160627092Y-127661366D01*
X160612720Y-127654339D01*
X160598925Y-127646485D01*
X160598925Y-127878001D01*
X160615002Y-127884162D01*
X160631080Y-127889787D01*
X160647157Y-127894876D01*
X160663234Y-127899429D01*
X160679311Y-127903447D01*
X160695388Y-127906929D01*
X160711465Y-127909875D01*
X160727542Y-127912286D01*
X160743619Y-127914161D01*
X160759696Y-127915500D01*
X160775774Y-127916304D01*
X160791851Y-127916572D01*
X160798741Y-127916572D01*
X160813449Y-127916318D01*
X160828439Y-127915558D01*
X160843710Y-127914291D01*
X160859262Y-127912517D01*
X160875095Y-127910236D01*
X160891210Y-127907448D01*
X160907606Y-127904154D01*
X160920757Y-127901106D01*
X160934486Y-127897480D01*
X160948794Y-127893277D01*
X160963680Y-127888496D01*
X160979145Y-127883138D01*
X160995188Y-127877203D01*
X161011809Y-127870690D01*
X161029009Y-127863599D01*
X161046788Y-127855931D01*
X161061092Y-127848732D01*
X161074941Y-127840668D01*
X161088334Y-127831737D01*
X161101271Y-127821942D01*
X161113753Y-127811280D01*
X161125780Y-127799754D01*
X161137351Y-127787362D01*
X161148466Y-127774104D01*
X161159126Y-127759981D01*
X161169331Y-127744992D01*
X161179079Y-127729138D01*
X161186293Y-127715928D01*
X161192972Y-127702281D01*
X161199117Y-127688198D01*
X161204728Y-127673680D01*
X161209804Y-127658726D01*
X161214346Y-127643336D01*
X161218353Y-127627510D01*
X161221827Y-127611249D01*
X161224765Y-127594551D01*
X161227170Y-127577418D01*
X161229040Y-127559849D01*
X161230376Y-127541844D01*
X161231177Y-127523404D01*
X161231445Y-127504527D01*
X161231445Y-126703882D01*
X161476735Y-126703882D01*
X161476736Y-126703900D01*
X161476736Y-126703900D01*
G37*
G36*
X160338476Y-127450792D02*
X160082162Y-127447989D01*
X160081851Y-127462300D01*
X160080917Y-127476172D01*
X160079361Y-127489603D01*
X160077182Y-127502593D01*
X160074380Y-127515144D01*
X160070956Y-127527253D01*
X160066909Y-127538923D01*
X160062240Y-127550152D01*
X160056948Y-127560941D01*
X160051033Y-127571289D01*
X160044496Y-127581198D01*
X160037336Y-127590665D01*
X160029554Y-127599693D01*
X160021149Y-127608280D01*
X160012122Y-127616426D01*
X160002472Y-127624133D01*
X159992199Y-127631399D01*
X159981304Y-127638224D01*
X159969786Y-127644609D01*
X159957645Y-127650554D01*
X159944882Y-127656059D01*
X159931497Y-127661123D01*
X159917489Y-127665747D01*
X159902858Y-127669930D01*
X159887605Y-127673673D01*
X159871729Y-127676976D01*
X159855230Y-127679838D01*
X159838109Y-127682260D01*
X159820365Y-127684242D01*
X159801999Y-127685783D01*
X159783010Y-127686884D01*
X159763399Y-127687544D01*
X159743165Y-127687765D01*
X159739031Y-127687765D01*
X159719362Y-127687540D01*
X159700317Y-127686866D01*
X159681897Y-127685742D01*
X159664101Y-127684169D01*
X159646929Y-127682146D01*
X159630382Y-127679674D01*
X159614459Y-127676753D01*
X159599161Y-127673382D01*
X159584487Y-127669561D01*
X159570437Y-127665292D01*
X159557012Y-127660572D01*
X159544211Y-127655403D01*
X159532035Y-127649785D01*
X159520483Y-127643717D01*
X159509556Y-127637200D01*
X159499253Y-127630234D01*
X159489574Y-127622818D01*
X159480520Y-127614952D01*
X159472090Y-127606637D01*
X159464285Y-127597872D01*
X159457104Y-127588659D01*
X159450548Y-127578995D01*
X159444616Y-127568882D01*
X159439308Y-127558320D01*
X159434625Y-127547308D01*
X159430566Y-127535847D01*
X159427132Y-127523936D01*
X159424322Y-127511576D01*
X159422137Y-127498766D01*
X159420575Y-127485507D01*
X159419639Y-127471799D01*
X159419327Y-127457641D01*
X159419327Y-127228871D01*
X159434105Y-127226584D01*
X159449306Y-127224452D01*
X159464928Y-127222475D01*
X159480973Y-127220654D01*
X159497439Y-127218989D01*
X159514327Y-127217479D01*
X159531637Y-127216124D01*
X159549368Y-127214925D01*
X159567522Y-127213882D01*
X159586097Y-127212994D01*
X159605094Y-127212261D01*
X159624514Y-127211685D01*
X159644354Y-127211263D01*
X159664617Y-127210997D01*
X159680872Y-127211224D01*
X159697353Y-127211903D01*
X159714058Y-127213036D01*
X159730988Y-127214622D01*
X159748143Y-127216661D01*
X159765523Y-127219153D01*
X159783129Y-127222098D01*
X159798782Y-127224692D01*
X159814737Y-127227678D01*
X159830994Y-127231054D01*
X159847552Y-127234822D01*
X159864411Y-127238980D01*
X159881572Y-127243529D01*
X159899034Y-127248470D01*
X159916798Y-127253801D01*
X159932416Y-127259058D01*
X159947421Y-127265030D01*
X159961814Y-127271717D01*
X159975595Y-127279118D01*
X159988762Y-127287233D01*
X160001318Y-127296063D01*
X160013261Y-127305608D01*
X160024591Y-127315867D01*
X160035310Y-127326840D01*
X160046291Y-127339888D01*
X160055808Y-127353539D01*
X160063861Y-127367793D01*
X160070450Y-127382650D01*
X160075574Y-127398109D01*
X160079235Y-127414170D01*
X160081431Y-127430835D01*
X160082163Y-127448102D01*
X160082162Y-127447989D01*
X160338476Y-127450792D01*
X160338170Y-127433498D01*
X160337251Y-127416525D01*
X160335720Y-127399873D01*
X160333577Y-127383541D01*
X160330821Y-127367529D01*
X160327452Y-127351838D01*
X160323471Y-127336467D01*
X160318878Y-127321417D01*
X160313672Y-127306688D01*
X160307853Y-127292279D01*
X160301422Y-127278190D01*
X160294379Y-127264422D01*
X160286723Y-127250974D01*
X160278455Y-127237847D01*
X160269575Y-127225041D01*
X160260081Y-127212555D01*
X160249976Y-127200389D01*
X160239258Y-127188544D01*
X160227927Y-127177020D01*
X160215984Y-127165816D01*
X160203429Y-127154932D01*
X160190261Y-127144369D01*
X160176480Y-127134127D01*
X160162088Y-127124205D01*
X160150180Y-127116435D01*
X160137975Y-127108929D01*
X160125473Y-127101687D01*
X160112674Y-127094708D01*
X160099578Y-127087992D01*
X160086185Y-127081539D01*
X160072495Y-127075350D01*
X160058508Y-127069424D01*
X160044224Y-127063762D01*
X160029643Y-127058363D01*
X160014765Y-127053227D01*
X159999589Y-127048355D01*
X159984117Y-127043746D01*
X159968348Y-127039401D01*
X159952281Y-127035319D01*
X159935918Y-127031500D01*
X159919257Y-127027944D01*
X159902300Y-127024652D01*
X159885045Y-127021624D01*
X159867494Y-127018858D01*
X159849645Y-127016356D01*
X159831499Y-127014118D01*
X159813056Y-127012142D01*
X159794317Y-127010431D01*
X159775280Y-127008982D01*
X159755946Y-127007797D01*
X159736315Y-127006875D01*
X159716387Y-127006217D01*
X159696162Y-127005822D01*
X159675640Y-127005690D01*
X159658038Y-127005764D01*
X159640509Y-127005984D01*
X159623054Y-127006352D01*
X159605672Y-127006867D01*
X159588364Y-127007530D01*
X159571130Y-127008339D01*
X159553969Y-127009296D01*
X159536881Y-127010400D01*
X159519867Y-127011651D01*
X159502926Y-127013049D01*
X159486059Y-127014594D01*
X159469265Y-127016287D01*
X159452545Y-127018126D01*
X159435898Y-127020113D01*
X159419325Y-127022247D01*
X159420579Y-127001682D01*
X159422396Y-126981813D01*
X159424776Y-126962640D01*
X159427718Y-126944163D01*
X159431222Y-126926382D01*
X159435290Y-126909297D01*
X159439920Y-126892909D01*
X159445112Y-126877216D01*
X159450868Y-126862219D01*
X159457186Y-126847919D01*
X159464066Y-126834315D01*
X159471510Y-126821406D01*
X159479516Y-126809194D01*
X159488084Y-126797678D01*
X159497215Y-126786858D01*
X159506909Y-126776734D01*
X159517166Y-126767306D01*
X159526766Y-126759398D01*
X159537000Y-126751917D01*
X159547868Y-126744864D01*
X159559370Y-126738238D01*
X159571505Y-126732039D01*
X159584273Y-126726269D01*
X159597676Y-126720925D01*
X159611712Y-126716009D01*
X159626382Y-126711521D01*
X159641685Y-126707460D01*
X159657623Y-126703826D01*
X159674193Y-126700620D01*
X159691398Y-126697841D01*
X159709236Y-126695490D01*
X159727708Y-126693567D01*
X159746813Y-126692070D01*
X159766552Y-126691002D01*
X159786925Y-126690360D01*
X159807932Y-126690147D01*
X159823913Y-126690280D01*
X159839984Y-126690678D01*
X159856142Y-126691342D01*
X159872390Y-126692272D01*
X159888725Y-126693468D01*
X159905150Y-126694929D01*
X159921663Y-126696656D01*
X159938264Y-126698649D01*
X159954955Y-126700907D01*
X159971733Y-126703431D01*
X159988601Y-126706221D01*
X160005556Y-126709276D01*
X160022601Y-126712597D01*
X160039734Y-126716184D01*
X160056955Y-126720036D01*
X160074266Y-126724154D01*
X160091664Y-126728538D01*
X160109152Y-126733188D01*
X160126727Y-126738103D01*
X160144392Y-126743283D01*
X160162145Y-126748730D01*
X160179986Y-126754442D01*
X160197917Y-126760420D01*
X160197917Y-126539929D01*
X160181889Y-126533988D01*
X160165779Y-126528289D01*
X160149584Y-126522832D01*
X160133305Y-126517618D01*
X160116943Y-126512646D01*
X160100497Y-126507917D01*
X160083967Y-126503431D01*
X160067354Y-126499187D01*
X160050656Y-126495185D01*
X160033875Y-126491426D01*
X160017010Y-126487910D01*
X160000061Y-126484636D01*
X159983029Y-126481604D01*
X159965912Y-126478815D01*
X159948712Y-126476269D01*
X159931428Y-126473965D01*
X159914061Y-126471904D01*
X159896609Y-126470085D01*
X159879074Y-126468508D01*
X159861455Y-126467175D01*
X159843752Y-126466083D01*
X159825965Y-126465235D01*
X159808095Y-126464628D01*
X159790141Y-126464264D01*
X159772103Y-126464143D01*
X159752683Y-126464313D01*
X159733561Y-126464823D01*
X159714735Y-126465673D01*
X159696207Y-126466863D01*
X159677975Y-126468392D01*
X159660041Y-126470262D01*
X159642403Y-126472471D01*
X159625063Y-126475021D01*
X159608020Y-126477910D01*
X159591274Y-126481139D01*
X159574824Y-126484708D01*
X159558672Y-126488618D01*
X159542817Y-126492867D01*
X159527259Y-126497455D01*
X159511998Y-126502384D01*
X159497034Y-126507653D01*
X159482367Y-126513262D01*
X159467997Y-126519210D01*
X159453925Y-126525499D01*
X159440149Y-126532127D01*
X159426670Y-126539096D01*
X159413488Y-126546404D01*
X159400604Y-126554052D01*
X159388016Y-126562040D01*
X159375725Y-126570369D01*
X159363732Y-126579036D01*
X159352035Y-126588044D01*
X159340636Y-126597392D01*
X159329534Y-126607080D01*
X159318728Y-126617108D01*
X159307894Y-126627721D01*
X159297440Y-126638652D01*
X159287366Y-126649902D01*
X159277672Y-126661469D01*
X159268359Y-126673354D01*
X159259425Y-126685556D01*
X159250872Y-126698077D01*
X159242699Y-126710916D01*
X159234905Y-126724072D01*
X159227493Y-126737546D01*
X159220460Y-126751338D01*
X159213807Y-126765448D01*
X159207535Y-126779876D01*
X159201642Y-126794622D01*
X159196130Y-126809685D01*
X159190998Y-126825067D01*
X159186246Y-126840766D01*
X159181875Y-126856783D01*
X159177883Y-126873118D01*
X159174272Y-126889771D01*
X159171041Y-126906741D01*
X159168189Y-126924030D01*
X159165718Y-126941636D01*
X159163628Y-126959561D01*
X159161917Y-126977803D01*
X159160586Y-126996363D01*
X159159636Y-127015241D01*
X159159066Y-127034436D01*
X159158876Y-127053950D01*
X159158876Y-127460463D01*
X159159144Y-127475621D01*
X159159948Y-127490780D01*
X159161287Y-127505938D01*
X159163163Y-127521097D01*
X159165575Y-127536255D01*
X159168522Y-127551414D01*
X159171419Y-127564548D01*
X159175385Y-127578751D01*
X159180419Y-127594022D01*
X159186521Y-127610362D01*
X159193693Y-127627769D01*
X159201933Y-127646245D01*
X159211241Y-127665789D01*
X159218897Y-127681188D01*
X159227165Y-127696144D01*
X159236046Y-127710658D01*
X159245539Y-127724729D01*
X159255645Y-127738357D01*
X159266363Y-127751543D01*
X159277693Y-127764285D01*
X159289636Y-127776585D01*
X159302192Y-127788443D01*
X159312240Y-127797074D01*
X159323092Y-127805514D01*
X159334748Y-127813763D01*
X159347208Y-127821820D01*
X159360471Y-127829686D01*
X159374539Y-127837361D01*
X159389410Y-127844845D01*
X159405085Y-127852137D01*
X159421564Y-127859238D01*
X159438847Y-127866148D01*
X159456934Y-127872866D01*
X159475824Y-127879394D01*
X159490434Y-127883898D01*
X159505323Y-127888112D01*
X159520492Y-127892035D01*
X159535941Y-127895667D01*
X159551670Y-127899009D01*
X159567679Y-127902060D01*
X159583968Y-127904821D01*
X159600537Y-127907291D01*
X159617386Y-127909471D01*
X159634514Y-127911360D01*
X159651923Y-127912958D01*
X159669611Y-127914266D01*
X159687580Y-127915283D01*
X159705828Y-127916009D01*
X159724356Y-127916445D01*
X159743164Y-127916590D01*
X159762478Y-127916440D01*
X159781491Y-127915988D01*
X159800202Y-127915234D01*
X159818612Y-127914180D01*
X159836720Y-127912824D01*
X159854527Y-127911166D01*
X159872032Y-127909208D01*
X159889236Y-127906948D01*
X159906139Y-127904387D01*
X159922740Y-127901524D01*
X159939039Y-127898360D01*
X159955037Y-127894895D01*
X159970734Y-127891128D01*
X159986129Y-127887060D01*
X160001223Y-127882691D01*
X160016016Y-127878020D01*
X160035136Y-127871271D01*
X160053452Y-127864349D01*
X160070965Y-127857256D01*
X160087674Y-127849990D01*
X160103578Y-127842553D01*
X160118679Y-127834944D01*
X160132977Y-127827162D01*
X160146470Y-127819209D01*
X160159159Y-127811084D01*
X160171045Y-127802787D01*
X160182127Y-127794318D01*
X160192404Y-127785677D01*
X160204021Y-127775012D01*
X160215170Y-127763960D01*
X160225849Y-127752523D01*
X160236061Y-127740699D01*
X160245803Y-127728489D01*
X160255078Y-127715894D01*
X160263883Y-127702912D01*
X160272220Y-127689544D01*
X160280089Y-127675790D01*
X160287489Y-127661650D01*
X160295693Y-127644125D01*
X160303078Y-127627376D01*
X160309645Y-127611402D01*
X160315394Y-127596202D01*
X160320325Y-127581778D01*
X160324438Y-127568128D01*
X160327732Y-127555254D01*
X160330208Y-127543154D01*
X160332735Y-127527570D01*
X160334802Y-127512064D01*
X160336410Y-127496634D01*
X160337559Y-127481283D01*
X160338248Y-127466008D01*
X160338477Y-127450811D01*
X160338476Y-127450792D01*
X160338476Y-127450792D01*
G37*
G36*
X158695855Y-127729157D02*
X158705480Y-127718313D01*
X158714826Y-127707199D01*
X158723893Y-127695814D01*
X158732681Y-127684160D01*
X158741190Y-127672236D01*
X158749420Y-127660041D01*
X158757371Y-127647577D01*
X158765043Y-127634843D01*
X158772436Y-127621838D01*
X158779550Y-127608564D01*
X158786385Y-127595020D01*
X158792941Y-127581206D01*
X158799218Y-127567122D01*
X158805216Y-127552768D01*
X158810935Y-127538143D01*
X158816375Y-127523249D01*
X158821537Y-127508085D01*
X158826419Y-127492651D01*
X158831022Y-127476947D01*
X158835346Y-127460973D01*
X158839391Y-127444729D01*
X158843158Y-127428215D01*
X158846645Y-127411431D01*
X158849853Y-127394377D01*
X158852783Y-127377053D01*
X158855433Y-127359459D01*
X158857804Y-127341596D01*
X158859897Y-127323462D01*
X158861710Y-127305058D01*
X158863244Y-127286384D01*
X158864500Y-127267440D01*
X158865476Y-127248226D01*
X158866174Y-127228743D01*
X158866592Y-127208989D01*
X158866732Y-127188965D01*
X158866592Y-127168943D01*
X158866174Y-127149192D01*
X158865476Y-127129714D01*
X158864500Y-127110508D01*
X158863244Y-127091575D01*
X158861710Y-127072913D01*
X158859897Y-127054524D01*
X158857804Y-127036407D01*
X158855433Y-127018563D01*
X158852783Y-127000991D01*
X158849853Y-126983690D01*
X158846645Y-126966663D01*
X158843158Y-126949907D01*
X158839391Y-126933424D01*
X158835346Y-126917213D01*
X158831022Y-126901274D01*
X158826419Y-126885607D01*
X158821537Y-126870213D01*
X158816375Y-126855091D01*
X158810935Y-126840241D01*
X158805216Y-126825664D01*
X158799218Y-126811359D01*
X158792941Y-126797326D01*
X158786385Y-126783565D01*
X158779550Y-126770076D01*
X158772436Y-126756860D01*
X158765043Y-126743916D01*
X158757371Y-126731244D01*
X158749420Y-126718845D01*
X158741190Y-126706718D01*
X158732681Y-126694863D01*
X158723893Y-126683280D01*
X158714826Y-126671969D01*
X158705480Y-126660931D01*
X158695855Y-126650165D01*
X158685361Y-126639061D01*
X158674591Y-126628298D01*
X158663545Y-126617877D01*
X158652223Y-126607798D01*
X158640626Y-126598060D01*
X158628753Y-126588664D01*
X158616603Y-126579610D01*
X158604178Y-126570897D01*
X158591477Y-126562526D01*
X158578500Y-126554497D01*
X158565248Y-126546809D01*
X158551719Y-126539463D01*
X158537915Y-126532459D01*
X158523834Y-126525796D01*
X158509478Y-126519475D01*
X158494846Y-126513496D01*
X158479938Y-126507859D01*
X158464755Y-126502563D01*
X158449295Y-126497608D01*
X158433560Y-126492996D01*
X158417548Y-126488725D01*
X158401261Y-126484796D01*
X158384698Y-126481208D01*
X158367859Y-126477962D01*
X158350744Y-126475058D01*
X158333354Y-126472495D01*
X158315687Y-126470274D01*
X158297745Y-126468395D01*
X158279527Y-126466858D01*
X158261033Y-126465662D01*
X158242263Y-126464808D01*
X158223217Y-126464295D01*
X158203895Y-126464124D01*
X158186722Y-126464250D01*
X158169597Y-126464627D01*
X158152520Y-126465256D01*
X158135492Y-126466135D01*
X158118512Y-126467266D01*
X158101581Y-126468649D01*
X158084698Y-126470283D01*
X158067864Y-126472168D01*
X158051079Y-126474305D01*
X158034341Y-126476693D01*
X158017653Y-126479332D01*
X158001013Y-126482223D01*
X157984421Y-126485365D01*
X157967878Y-126488758D01*
X157951384Y-126492403D01*
X157934937Y-126496299D01*
X157918540Y-126500447D01*
X157902191Y-126504846D01*
X157885890Y-126509496D01*
X157869638Y-126514398D01*
X157853435Y-126519551D01*
X157837280Y-126524955D01*
X157821173Y-126530611D01*
X157805115Y-126536518D01*
X157789106Y-126542676D01*
X157789106Y-126787965D01*
X157805075Y-126780432D01*
X157821059Y-126773219D01*
X157837057Y-126766326D01*
X157853070Y-126759755D01*
X157869097Y-126753504D01*
X157885138Y-126747573D01*
X157901193Y-126741963D01*
X157917263Y-126736674D01*
X157933348Y-126731705D01*
X157949446Y-126727057D01*
X157965559Y-126722729D01*
X157981687Y-126718722D01*
X157997828Y-126715035D01*
X158013984Y-126711669D01*
X158030155Y-126708624D01*
X158046340Y-126705899D01*
X158062539Y-126703495D01*
X158078752Y-126701411D01*
X158094980Y-126699648D01*
X158111222Y-126698205D01*
X158127479Y-126697083D01*
X158143750Y-126696282D01*
X158160035Y-126695801D01*
X158176334Y-126695641D01*
X158181847Y-126695641D01*
X158201067Y-126695892D01*
X158219867Y-126696647D01*
X158238247Y-126697904D01*
X158256206Y-126699664D01*
X158273745Y-126701927D01*
X158290864Y-126704693D01*
X158307562Y-126707962D01*
X158323840Y-126711734D01*
X158339698Y-126716009D01*
X158355136Y-126720787D01*
X158370153Y-126726067D01*
X158384750Y-126731851D01*
X158398926Y-126738137D01*
X158412682Y-126744927D01*
X158426018Y-126752219D01*
X158438934Y-126760014D01*
X158451429Y-126768313D01*
X158463504Y-126777114D01*
X158475159Y-126786418D01*
X158486394Y-126796225D01*
X158494711Y-126804145D01*
X158502702Y-126812640D01*
X158510367Y-126821710D01*
X158517705Y-126831355D01*
X158524718Y-126841575D01*
X158531404Y-126852369D01*
X158537764Y-126863738D01*
X158543798Y-126875682D01*
X158549506Y-126888201D01*
X158554888Y-126901295D01*
X158559943Y-126914963D01*
X158564673Y-126929206D01*
X158569076Y-126944024D01*
X158573153Y-126959417D01*
X158576904Y-126975385D01*
X158580329Y-126991927D01*
X158583427Y-127009044D01*
X158586200Y-127026736D01*
X158588646Y-127045003D01*
X158590766Y-127063845D01*
X158592560Y-127083261D01*
X158594027Y-127103252D01*
X158595169Y-127123818D01*
X158595984Y-127144959D01*
X158596474Y-127166675D01*
X158596637Y-127188965D01*
X158596496Y-127209496D01*
X158596073Y-127229562D01*
X158595369Y-127249162D01*
X158594383Y-127268296D01*
X158593115Y-127286965D01*
X158591566Y-127305168D01*
X158589734Y-127322906D01*
X158587621Y-127340178D01*
X158585227Y-127356984D01*
X158582550Y-127373325D01*
X158579592Y-127389200D01*
X158576352Y-127404610D01*
X158572830Y-127419554D01*
X158569027Y-127434032D01*
X158564942Y-127448045D01*
X158558678Y-127466154D01*
X158551913Y-127483396D01*
X158544647Y-127499774D01*
X158536880Y-127515286D01*
X158528612Y-127529932D01*
X158519842Y-127543713D01*
X158510572Y-127556629D01*
X158500801Y-127568679D01*
X158490528Y-127579863D01*
X158479754Y-127590182D01*
X158468479Y-127599636D01*
X158454086Y-127610249D01*
X158439694Y-127620046D01*
X158425301Y-127629027D01*
X158410908Y-127637191D01*
X158396515Y-127644540D01*
X158382122Y-127651072D01*
X158367729Y-127656787D01*
X158353336Y-127661687D01*
X158338944Y-127665770D01*
X158325466Y-127668916D01*
X158311493Y-127671731D01*
X158297024Y-127674214D01*
X158282058Y-127676367D01*
X158266597Y-127678188D01*
X158250639Y-127679678D01*
X158234185Y-127680837D01*
X158217235Y-127681665D01*
X158199789Y-127682162D01*
X158181847Y-127682327D01*
X158164988Y-127682172D01*
X158148171Y-127681705D01*
X158131398Y-127680928D01*
X158114668Y-127679839D01*
X158097981Y-127678439D01*
X158081337Y-127676729D01*
X158064736Y-127674707D01*
X158048178Y-127672374D01*
X158031663Y-127669730D01*
X158015191Y-127666776D01*
X157998762Y-127663510D01*
X157982376Y-127659933D01*
X157966034Y-127656045D01*
X157949734Y-127651846D01*
X157933477Y-127647336D01*
X157917264Y-127642515D01*
X157901094Y-127637383D01*
X157884966Y-127631940D01*
X157868882Y-127626186D01*
X157852841Y-127620121D01*
X157836842Y-127613745D01*
X157820887Y-127607057D01*
X157804975Y-127600059D01*
X157789106Y-127592750D01*
X157789106Y-127838039D01*
X157805116Y-127844197D01*
X157821174Y-127850104D01*
X157837280Y-127855760D01*
X157853435Y-127861164D01*
X157869639Y-127866317D01*
X157885891Y-127871219D01*
X157902191Y-127875869D01*
X157918541Y-127880268D01*
X157934938Y-127884416D01*
X157951384Y-127888312D01*
X157967879Y-127891957D01*
X157984422Y-127895350D01*
X158001013Y-127898492D01*
X158017653Y-127901383D01*
X158034342Y-127904022D01*
X158051079Y-127906410D01*
X158067865Y-127908547D01*
X158084699Y-127910432D01*
X158101581Y-127912066D01*
X158118513Y-127913448D01*
X158135492Y-127914580D01*
X158152520Y-127915459D01*
X158169597Y-127916088D01*
X158186722Y-127916465D01*
X158203896Y-127916590D01*
X158223218Y-127916418D01*
X158242263Y-127915902D01*
X158261033Y-127915042D01*
X158279527Y-127913837D01*
X158297746Y-127912288D01*
X158315688Y-127910395D01*
X158333354Y-127908158D01*
X158350745Y-127905576D01*
X158367860Y-127902651D01*
X158384699Y-127899381D01*
X158401262Y-127895767D01*
X158417549Y-127891808D01*
X158433560Y-127887506D01*
X158449296Y-127882859D01*
X158464755Y-127877868D01*
X158479939Y-127872533D01*
X158494847Y-127866854D01*
X158509479Y-127860831D01*
X158523835Y-127854463D01*
X158537915Y-127847751D01*
X158551720Y-127840695D01*
X158565248Y-127833295D01*
X158578501Y-127825551D01*
X158591478Y-127817462D01*
X158604179Y-127809029D01*
X158616604Y-127800252D01*
X158628753Y-127791131D01*
X158640626Y-127781666D01*
X158652224Y-127771856D01*
X158663546Y-127761703D01*
X158674592Y-127751205D01*
X158685361Y-127740362D01*
X158695856Y-127729176D01*
X158695855Y-127729157D01*
X158695855Y-127729157D01*
G37*
G36*
X157481803Y-127894521D02*
X157481803Y-125950122D01*
X157224110Y-125950122D01*
X157224110Y-127075982D01*
X156615017Y-126486175D01*
X156264996Y-126486175D01*
X156876844Y-127073216D01*
X156183691Y-127894521D01*
X156526823Y-127894521D01*
X157049099Y-127239953D01*
X157224110Y-127409456D01*
X157224110Y-127894521D01*
X157481803Y-127894521D01*
X157481803Y-127894521D01*
G37*
D11*
X158725000Y-99240000D02*
X160575000Y-99240000D01*
X158725000Y-116760000D02*
X160575000Y-116760000D01*
X159650000Y-115800000D02*
X159650000Y-100200000D01*
X148700000Y-113500000D02*
X149400000Y-113500000D01*
X149400000Y-112300000D02*
X148700000Y-112300000D01*
X134250000Y-114000000D02*
X134250000Y-114700000D01*
X135450000Y-114700000D02*
X135450000Y-114000000D01*
X145550000Y-103100000D02*
X146250000Y-103100000D01*
X146250000Y-101900000D02*
X145550000Y-101900000D01*
X169473223Y-96728249D02*
X168978249Y-97223223D01*
X169826777Y-98071751D02*
X170321751Y-97576777D01*
X169050000Y-119851472D02*
X168555026Y-119356498D01*
X167706498Y-120205026D02*
X168201472Y-120700000D01*
X145550000Y-127875000D02*
X146550000Y-127875000D01*
X146550000Y-126525000D02*
X145550000Y-126525000D01*
X172133333Y-106628571D02*
X172466667Y-106628571D01*
X172466667Y-107152381D02*
X172466667Y-106152381D01*
X171990476Y-106152381D01*
X171180952Y-106152381D02*
X171371429Y-106152381D01*
X171466667Y-106200000D01*
X171514286Y-106247619D01*
X171609524Y-106390476D01*
X171657143Y-106580952D01*
X171657143Y-106961905D01*
X171609524Y-107057143D01*
X171561905Y-107104762D01*
X171466667Y-107152381D01*
X171276190Y-107152381D01*
X171180952Y-107104762D01*
X171133333Y-107057143D01*
X171085714Y-106961905D01*
X171085714Y-106723810D01*
X171133333Y-106628571D01*
X171180952Y-106580952D01*
X171276190Y-106533333D01*
X171466667Y-106533333D01*
X171561905Y-106580952D01*
X171609524Y-106628571D01*
X171657143Y-106723810D01*
X134333333Y-99328571D02*
X134666667Y-99328571D01*
X134666667Y-99852381D02*
X134666667Y-98852381D01*
X134190476Y-98852381D01*
X133333333Y-98852381D02*
X133809524Y-98852381D01*
X133857143Y-99328571D01*
X133809524Y-99280952D01*
X133714286Y-99233333D01*
X133476190Y-99233333D01*
X133380952Y-99280952D01*
X133333333Y-99328571D01*
X133285714Y-99423810D01*
X133285714Y-99661905D01*
X133333333Y-99757143D01*
X133380952Y-99804762D01*
X133476190Y-99852381D01*
X133714286Y-99852381D01*
X133809524Y-99804762D01*
X133857143Y-99757143D01*
X131583333Y-118178571D02*
X131916667Y-118178571D01*
X131916667Y-118702381D02*
X131916667Y-117702381D01*
X131440476Y-117702381D01*
X130630952Y-118035714D02*
X130630952Y-118702381D01*
X130869048Y-117654762D02*
X131107143Y-118369048D01*
X130488095Y-118369048D01*
X149216666Y-115157143D02*
X149264285Y-115204762D01*
X149407142Y-115252381D01*
X149502380Y-115252381D01*
X149645238Y-115204762D01*
X149740476Y-115109524D01*
X149788095Y-115014286D01*
X149835714Y-114823810D01*
X149835714Y-114680952D01*
X149788095Y-114490476D01*
X149740476Y-114395238D01*
X149645238Y-114300000D01*
X149502380Y-114252381D01*
X149407142Y-114252381D01*
X149264285Y-114300000D01*
X149216666Y-114347619D01*
X148264285Y-115252381D02*
X148835714Y-115252381D01*
X148550000Y-115252381D02*
X148550000Y-114252381D01*
X148645238Y-114395238D01*
X148740476Y-114490476D01*
X148835714Y-114538095D01*
X133307143Y-114183334D02*
X133354762Y-114135715D01*
X133402381Y-113992858D01*
X133402381Y-113897620D01*
X133354762Y-113754762D01*
X133259524Y-113659524D01*
X133164286Y-113611905D01*
X132973810Y-113564286D01*
X132830952Y-113564286D01*
X132640476Y-113611905D01*
X132545238Y-113659524D01*
X132450000Y-113754762D01*
X132402381Y-113897620D01*
X132402381Y-113992858D01*
X132450000Y-114135715D01*
X132497619Y-114183334D01*
X132497619Y-114564286D02*
X132450000Y-114611905D01*
X132402381Y-114707143D01*
X132402381Y-114945239D01*
X132450000Y-115040477D01*
X132497619Y-115088096D01*
X132592857Y-115135715D01*
X132688095Y-115135715D01*
X132830952Y-115088096D01*
X133402381Y-114516667D01*
X133402381Y-115135715D01*
X146066666Y-104757143D02*
X146114285Y-104804762D01*
X146257142Y-104852381D01*
X146352380Y-104852381D01*
X146495238Y-104804762D01*
X146590476Y-104709524D01*
X146638095Y-104614286D01*
X146685714Y-104423810D01*
X146685714Y-104280952D01*
X146638095Y-104090476D01*
X146590476Y-103995238D01*
X146495238Y-103900000D01*
X146352380Y-103852381D01*
X146257142Y-103852381D01*
X146114285Y-103900000D01*
X146066666Y-103947619D01*
X145733333Y-103852381D02*
X145114285Y-103852381D01*
X145447619Y-104233333D01*
X145304761Y-104233333D01*
X145209523Y-104280952D01*
X145161904Y-104328571D01*
X145114285Y-104423810D01*
X145114285Y-104661905D01*
X145161904Y-104757143D01*
X145209523Y-104804762D01*
X145304761Y-104852381D01*
X145590476Y-104852381D01*
X145685714Y-104804762D01*
X145733333Y-104757143D01*
X168676886Y-96191185D02*
X168744229Y-96191185D01*
X168878916Y-96123841D01*
X168946260Y-96056498D01*
X169013604Y-95921810D01*
X169013604Y-95787123D01*
X168979932Y-95686108D01*
X168878917Y-95517750D01*
X168777901Y-95416734D01*
X168609542Y-95315719D01*
X168508527Y-95282047D01*
X168373840Y-95282047D01*
X168239153Y-95349391D01*
X168171809Y-95416734D01*
X168104466Y-95551421D01*
X168104466Y-95618765D01*
X167666733Y-96393215D02*
X168138138Y-96864620D01*
X167565719Y-95955482D02*
X168239154Y-96292200D01*
X167801421Y-96729933D01*
X169587064Y-119055135D02*
X169587064Y-119122478D01*
X169654408Y-119257165D01*
X169721751Y-119324509D01*
X169856439Y-119391853D01*
X169991126Y-119391853D01*
X170092141Y-119358181D01*
X170260499Y-119257166D01*
X170361515Y-119156150D01*
X170462530Y-118987791D01*
X170496202Y-118886776D01*
X170496202Y-118752089D01*
X170428858Y-118617402D01*
X170361515Y-118550058D01*
X170226828Y-118482715D01*
X170159484Y-118482715D01*
X169587064Y-117775608D02*
X169923782Y-118112326D01*
X169620737Y-118482715D01*
X169620737Y-118415372D01*
X169587065Y-118314356D01*
X169418706Y-118145997D01*
X169317691Y-118112325D01*
X169250347Y-118112325D01*
X169149331Y-118145998D01*
X168980973Y-118314356D01*
X168947301Y-118415372D01*
X168947301Y-118482715D01*
X168980973Y-118583730D01*
X169149332Y-118752089D01*
X169250347Y-118785761D01*
X169317691Y-118785761D01*
X147642857Y-126052381D02*
X147976191Y-125576190D01*
X148214286Y-126052381D02*
X148214286Y-125052381D01*
X147833333Y-125052381D01*
X147738095Y-125100000D01*
X147690476Y-125147619D01*
X147642857Y-125242857D01*
X147642857Y-125385714D01*
X147690476Y-125480952D01*
X147738095Y-125528571D01*
X147833333Y-125576190D01*
X148214286Y-125576190D01*
X146690476Y-126052381D02*
X147261905Y-126052381D01*
X146976191Y-126052381D02*
X146976191Y-125052381D01*
X147071429Y-125195238D01*
X147166667Y-125290476D01*
X147261905Y-125338095D01*
X145738095Y-126052381D02*
X146309524Y-126052381D01*
X146023810Y-126052381D02*
X146023810Y-125052381D01*
X146119048Y-125195238D01*
X146214286Y-125290476D01*
X146309524Y-125338095D01*
M02*
