G04 #@! TF.FileFunction,Legend,Bot*
%FSLAX46Y46*%
G04 Gerber Fmt 4.6, Leading zero omitted, Abs format (unit mm)*
G04 Created by KiCad (PCBNEW 4.0.1-stable) date Tuesday, May 31, 2016 'AMt' 10:57:44 AM*
%MOMM*%
G01*
G04 APERTURE LIST*
%ADD10C,0.100000*%
%ADD11C,0.150000*%
G04 APERTURE END LIST*
D10*
D11*
X158725000Y-99240000D02*
X160575000Y-99240000D01*
X158725000Y-116760000D02*
X160575000Y-116760000D01*
X159650000Y-115800000D02*
X159650000Y-100200000D01*
X148700000Y-113500000D02*
X149400000Y-113500000D01*
X149400000Y-112300000D02*
X148700000Y-112300000D01*
X134250000Y-114000000D02*
X134250000Y-114700000D01*
X135450000Y-114700000D02*
X135450000Y-114000000D01*
X145550000Y-103100000D02*
X146250000Y-103100000D01*
X146250000Y-101900000D02*
X145550000Y-101900000D01*
X169473223Y-96728249D02*
X168978249Y-97223223D01*
X169826777Y-98071751D02*
X170321751Y-97576777D01*
X169050000Y-119851472D02*
X168555026Y-119356498D01*
X167706498Y-120205026D02*
X168201472Y-120700000D01*
X145550000Y-127875000D02*
X146550000Y-127875000D01*
X146550000Y-126525000D02*
X145550000Y-126525000D01*
D10*
G36*
X168049289Y-128416801D02*
X167690952Y-127646439D01*
X167671975Y-127648854D01*
X167653362Y-127651038D01*
X167635112Y-127652993D01*
X167617227Y-127654717D01*
X167599704Y-127656212D01*
X167582546Y-127657477D01*
X167565751Y-127658512D01*
X167549320Y-127659317D01*
X167533252Y-127659892D01*
X167517548Y-127660236D01*
X167502208Y-127660351D01*
X167483187Y-127660022D01*
X167464710Y-127659035D01*
X167446777Y-127657390D01*
X167429387Y-127655087D01*
X167412540Y-127652126D01*
X167396238Y-127648506D01*
X167380478Y-127644229D01*
X167365263Y-127639293D01*
X167350591Y-127633700D01*
X167336462Y-127627448D01*
X167322877Y-127620539D01*
X167309836Y-127612971D01*
X167297338Y-127604745D01*
X167285384Y-127595861D01*
X167273974Y-127586319D01*
X167263107Y-127576119D01*
X167252783Y-127565261D01*
X167245070Y-127556190D01*
X167237716Y-127546515D01*
X167230720Y-127536237D01*
X167224084Y-127525355D01*
X167217806Y-127513870D01*
X167211886Y-127501781D01*
X167206326Y-127489088D01*
X167201124Y-127475792D01*
X167196281Y-127461893D01*
X167191797Y-127447390D01*
X167187671Y-127432283D01*
X167183904Y-127416573D01*
X167180496Y-127400259D01*
X167177447Y-127383342D01*
X167174756Y-127365821D01*
X167172424Y-127347696D01*
X167170451Y-127328968D01*
X167168837Y-127309637D01*
X167167581Y-127289702D01*
X167166684Y-127269163D01*
X167166146Y-127248021D01*
X167165967Y-127226275D01*
X167166101Y-127204009D01*
X167166502Y-127182313D01*
X167167171Y-127161186D01*
X167168108Y-127140629D01*
X167169312Y-127120642D01*
X167170784Y-127101223D01*
X167172524Y-127082375D01*
X167174531Y-127064096D01*
X167176806Y-127046386D01*
X167179349Y-127029246D01*
X167182159Y-127012675D01*
X167185237Y-126996674D01*
X167188582Y-126981242D01*
X167192195Y-126966380D01*
X167196076Y-126952087D01*
X167200224Y-126938364D01*
X167204640Y-126925210D01*
X167209324Y-126912626D01*
X167214275Y-126900611D01*
X167219494Y-126889166D01*
X167224981Y-126878291D01*
X167230735Y-126867984D01*
X167238688Y-126855395D01*
X167247309Y-126843568D01*
X167256598Y-126832504D01*
X167266554Y-126822204D01*
X167277178Y-126812666D01*
X167288469Y-126803892D01*
X167300428Y-126795880D01*
X167313055Y-126788631D01*
X167326349Y-126782146D01*
X167340310Y-126776423D01*
X167354939Y-126771464D01*
X167370236Y-126767267D01*
X167386200Y-126763834D01*
X167402832Y-126761163D01*
X167420131Y-126759256D01*
X167438098Y-126758111D01*
X167456733Y-126757730D01*
X167478302Y-126758016D01*
X167498913Y-126758876D01*
X167518565Y-126760309D01*
X167537258Y-126762315D01*
X167554993Y-126764894D01*
X167571769Y-126768046D01*
X167587587Y-126771771D01*
X167602445Y-126776069D01*
X167616346Y-126780941D01*
X167629287Y-126786386D01*
X167641270Y-126792403D01*
X167652295Y-126798994D01*
X167662360Y-126806158D01*
X167671467Y-126813896D01*
X167679616Y-126822206D01*
X167686805Y-126831089D01*
X167693037Y-126840546D01*
X167698309Y-126850575D01*
X167702623Y-126861178D01*
X167705978Y-126872354D01*
X167708375Y-126884103D01*
X167709813Y-126896425D01*
X167710292Y-126909321D01*
X167710292Y-127643813D01*
X167710292Y-127643794D01*
X167690952Y-127646439D01*
X168049289Y-128416801D01*
X168049289Y-126940929D01*
X168049016Y-126924138D01*
X168048195Y-126907555D01*
X168046828Y-126891180D01*
X168044913Y-126875013D01*
X168042451Y-126859055D01*
X168039443Y-126843305D01*
X168035887Y-126827764D01*
X168031784Y-126812431D01*
X168027134Y-126797306D01*
X168021937Y-126782390D01*
X168016193Y-126767682D01*
X168009902Y-126753182D01*
X168003064Y-126738891D01*
X167995679Y-126724808D01*
X167987747Y-126710933D01*
X167979267Y-126697267D01*
X167970241Y-126683809D01*
X167960668Y-126670559D01*
X167950547Y-126657518D01*
X167939880Y-126644685D01*
X167928665Y-126632061D01*
X167916904Y-126619645D01*
X167904595Y-126607437D01*
X167894336Y-126597910D01*
X167883707Y-126588717D01*
X167872707Y-126579859D01*
X167861337Y-126571334D01*
X167849597Y-126563144D01*
X167837486Y-126555289D01*
X167825005Y-126547768D01*
X167812154Y-126540580D01*
X167798932Y-126533728D01*
X167785340Y-126527209D01*
X167771378Y-126521025D01*
X167757045Y-126515175D01*
X167742342Y-126509659D01*
X167727269Y-126504478D01*
X167711826Y-126499631D01*
X167696012Y-126495118D01*
X167679828Y-126490940D01*
X167663273Y-126487095D01*
X167646348Y-126483585D01*
X167629053Y-126480410D01*
X167611388Y-126477568D01*
X167593352Y-126475061D01*
X167574946Y-126472888D01*
X167556170Y-126471050D01*
X167537023Y-126469546D01*
X167517506Y-126468376D01*
X167497619Y-126467540D01*
X167477361Y-126467038D01*
X167456733Y-126466871D01*
X167439184Y-126467045D01*
X167421679Y-126467565D01*
X167404217Y-126468432D01*
X167386797Y-126469647D01*
X167369421Y-126471208D01*
X167352088Y-126473116D01*
X167334798Y-126475370D01*
X167317551Y-126477972D01*
X167303261Y-126480549D01*
X167288502Y-126483839D01*
X167273275Y-126487843D01*
X167257579Y-126492560D01*
X167241414Y-126497991D01*
X167224782Y-126504135D01*
X167207680Y-126510993D01*
X167190110Y-126518564D01*
X167172072Y-126526848D01*
X167153565Y-126535846D01*
X167137908Y-126543849D01*
X167122635Y-126552234D01*
X167107745Y-126561002D01*
X167093237Y-126570152D01*
X167079112Y-126579685D01*
X167065370Y-126589600D01*
X167052011Y-126599898D01*
X167039034Y-126610579D01*
X167026440Y-126621642D01*
X167014230Y-126633088D01*
X167002401Y-126644916D01*
X166990956Y-126657127D01*
X166982032Y-126667361D01*
X166973268Y-126678219D01*
X166964663Y-126689703D01*
X166956217Y-126701811D01*
X166947931Y-126714543D01*
X166939803Y-126727901D01*
X166931835Y-126741882D01*
X166924026Y-126756489D01*
X166916377Y-126771720D01*
X166908886Y-126787576D01*
X166901555Y-126804057D01*
X166894383Y-126821162D01*
X166887370Y-126838892D01*
X166880517Y-126857246D01*
X166873823Y-126876225D01*
X166868986Y-126890670D01*
X166864397Y-126905343D01*
X166860056Y-126920243D01*
X166855963Y-126935370D01*
X166852119Y-126950725D01*
X166848522Y-126966307D01*
X166845173Y-126982117D01*
X166842073Y-126998154D01*
X166839220Y-127014419D01*
X166836616Y-127030911D01*
X166834259Y-127047631D01*
X166832151Y-127064578D01*
X166830291Y-127081753D01*
X166828678Y-127099155D01*
X166827314Y-127116784D01*
X166826198Y-127134641D01*
X166825330Y-127152726D01*
X166824710Y-127171038D01*
X166824337Y-127189577D01*
X166824213Y-127208344D01*
X166824360Y-127228471D01*
X166824800Y-127248321D01*
X166825533Y-127267894D01*
X166826559Y-127287191D01*
X166827879Y-127306211D01*
X166829492Y-127324955D01*
X166831398Y-127343422D01*
X166833597Y-127361613D01*
X166836090Y-127379527D01*
X166838876Y-127397165D01*
X166841955Y-127414526D01*
X166845327Y-127431610D01*
X166848993Y-127448419D01*
X166852952Y-127464950D01*
X166857204Y-127481205D01*
X166861749Y-127497184D01*
X166866588Y-127512886D01*
X166871720Y-127528311D01*
X166877145Y-127543460D01*
X166882863Y-127558332D01*
X166888875Y-127572928D01*
X166895180Y-127587248D01*
X166901778Y-127601291D01*
X166908670Y-127615057D01*
X166915854Y-127628547D01*
X166923332Y-127641760D01*
X166931103Y-127654697D01*
X166939168Y-127667357D01*
X166947525Y-127679741D01*
X166956176Y-127691848D01*
X166965120Y-127703678D01*
X166974358Y-127715232D01*
X166983888Y-127726510D01*
X166993712Y-127737511D01*
X167004119Y-127748532D01*
X167014794Y-127759214D01*
X167025737Y-127769557D01*
X167036949Y-127779561D01*
X167048429Y-127789226D01*
X167060177Y-127798552D01*
X167072193Y-127807538D01*
X167084478Y-127816186D01*
X167097031Y-127824494D01*
X167109852Y-127832463D01*
X167122941Y-127840094D01*
X167136299Y-127847385D01*
X167149925Y-127854336D01*
X167163819Y-127860949D01*
X167177982Y-127867223D01*
X167192413Y-127873157D01*
X167207112Y-127878753D01*
X167222079Y-127884009D01*
X167237315Y-127888926D01*
X167252819Y-127893504D01*
X167268591Y-127897743D01*
X167284631Y-127901643D01*
X167300940Y-127905204D01*
X167317517Y-127908425D01*
X167334362Y-127911308D01*
X167351476Y-127913851D01*
X167368857Y-127916056D01*
X167386507Y-127917921D01*
X167404426Y-127919447D01*
X167422612Y-127920634D01*
X167441067Y-127921481D01*
X167459790Y-127921990D01*
X167478782Y-127922160D01*
X167495684Y-127922033D01*
X167512529Y-127921654D01*
X167529319Y-127921021D01*
X167546052Y-127920135D01*
X167562729Y-127918997D01*
X167579350Y-127917605D01*
X167595915Y-127915960D01*
X167612423Y-127914062D01*
X167628875Y-127911911D01*
X167645271Y-127909508D01*
X167661611Y-127906851D01*
X167677894Y-127903941D01*
X167694121Y-127900778D01*
X167710292Y-127897362D01*
X167710292Y-128416876D01*
X168049289Y-128416876D01*
X168049289Y-128416801D01*
X168049289Y-128416801D01*
G37*
G36*
X166366705Y-127729157D02*
X166176182Y-126956816D01*
X166179981Y-126972623D01*
X166183448Y-126989136D01*
X166186586Y-127006356D01*
X166189393Y-127024281D01*
X166191870Y-127042913D01*
X166194017Y-127062250D01*
X166195834Y-127082294D01*
X166197320Y-127103044D01*
X166198476Y-127124500D01*
X166199302Y-127146662D01*
X166199797Y-127169530D01*
X166199962Y-127193104D01*
X166199797Y-127216557D01*
X166199302Y-127239308D01*
X166198476Y-127261360D01*
X166197320Y-127282711D01*
X166195834Y-127303361D01*
X166194017Y-127323311D01*
X166191870Y-127342561D01*
X166189393Y-127361110D01*
X166186586Y-127378959D01*
X166183448Y-127396108D01*
X166179981Y-127412556D01*
X166176182Y-127428303D01*
X166172054Y-127443350D01*
X166167595Y-127457697D01*
X166162806Y-127471343D01*
X166157687Y-127484289D01*
X166152238Y-127496535D01*
X166146458Y-127508080D01*
X166140348Y-127518924D01*
X166133907Y-127529069D01*
X166127137Y-127538512D01*
X166120036Y-127547256D01*
X166110175Y-127557641D01*
X166099723Y-127567397D01*
X166088680Y-127576524D01*
X166077045Y-127585021D01*
X166064819Y-127592888D01*
X166052002Y-127600127D01*
X166038593Y-127606736D01*
X166024594Y-127612715D01*
X166010003Y-127618065D01*
X165994820Y-127622786D01*
X165979047Y-127626877D01*
X165962682Y-127630339D01*
X165945726Y-127633171D01*
X165928179Y-127635374D01*
X165910040Y-127636948D01*
X165891310Y-127637892D01*
X165871989Y-127638206D01*
X165852673Y-127637892D01*
X165833957Y-127636948D01*
X165815842Y-127635374D01*
X165798328Y-127633171D01*
X165781415Y-127630339D01*
X165765103Y-127626877D01*
X165749391Y-127622786D01*
X165734281Y-127618065D01*
X165719771Y-127612715D01*
X165705861Y-127606736D01*
X165692553Y-127600127D01*
X165679846Y-127592888D01*
X165667739Y-127585021D01*
X165656233Y-127576524D01*
X165645328Y-127567397D01*
X165635024Y-127557641D01*
X165625320Y-127547256D01*
X165618219Y-127538512D01*
X165611449Y-127529069D01*
X165605008Y-127518924D01*
X165598898Y-127508080D01*
X165593119Y-127496535D01*
X165587669Y-127484289D01*
X165582550Y-127471343D01*
X165577761Y-127457697D01*
X165573302Y-127443350D01*
X165569174Y-127428303D01*
X165565376Y-127412556D01*
X165561908Y-127396108D01*
X165558770Y-127378959D01*
X165555963Y-127361110D01*
X165553486Y-127342561D01*
X165551339Y-127323311D01*
X165549522Y-127303361D01*
X165548036Y-127282711D01*
X165546880Y-127261360D01*
X165546054Y-127239308D01*
X165545559Y-127216557D01*
X165545394Y-127193104D01*
X165545559Y-127169530D01*
X165546054Y-127146662D01*
X165546880Y-127124500D01*
X165548036Y-127103044D01*
X165549522Y-127082294D01*
X165551339Y-127062250D01*
X165553486Y-127042913D01*
X165555963Y-127024281D01*
X165558770Y-127006356D01*
X165561908Y-126989136D01*
X165565376Y-126972623D01*
X165569174Y-126956816D01*
X165573302Y-126941715D01*
X165577761Y-126927320D01*
X165582550Y-126913631D01*
X165587669Y-126900648D01*
X165593119Y-126888371D01*
X165598898Y-126876801D01*
X165605008Y-126865936D01*
X165611449Y-126855778D01*
X165618219Y-126846326D01*
X165625320Y-126837580D01*
X165635024Y-126827035D01*
X165645328Y-126817130D01*
X165656233Y-126807864D01*
X165667739Y-126799236D01*
X165679846Y-126791248D01*
X165692553Y-126783899D01*
X165705861Y-126777189D01*
X165719771Y-126771118D01*
X165734281Y-126765686D01*
X165749391Y-126760893D01*
X165765103Y-126756739D01*
X165781415Y-126753225D01*
X165798328Y-126750349D01*
X165815842Y-126748112D01*
X165833957Y-126746515D01*
X165852673Y-126745556D01*
X165871989Y-126745237D01*
X165891310Y-126745556D01*
X165910040Y-126746515D01*
X165928179Y-126748112D01*
X165945726Y-126750349D01*
X165962682Y-126753225D01*
X165979047Y-126756739D01*
X165994820Y-126760893D01*
X166010003Y-126765686D01*
X166024594Y-126771118D01*
X166038593Y-126777189D01*
X166052002Y-126783899D01*
X166064819Y-126791248D01*
X166077045Y-126799236D01*
X166088680Y-126807864D01*
X166099723Y-126817130D01*
X166110175Y-126827035D01*
X166120036Y-126837580D01*
X166127137Y-126846326D01*
X166133907Y-126855778D01*
X166140348Y-126865936D01*
X166146458Y-126876801D01*
X166152238Y-126888371D01*
X166157687Y-126900648D01*
X166162806Y-126913631D01*
X166167595Y-126927320D01*
X166172054Y-126941715D01*
X166176182Y-126956816D01*
X166366705Y-127729157D01*
X166376407Y-127718315D01*
X166385828Y-127707208D01*
X166394969Y-127695834D01*
X166403827Y-127684196D01*
X166412405Y-127672292D01*
X166420701Y-127660123D01*
X166428716Y-127647688D01*
X166436450Y-127634987D01*
X166443903Y-127622021D01*
X166451074Y-127608790D01*
X166457965Y-127595293D01*
X166464574Y-127581531D01*
X166470901Y-127567503D01*
X166476948Y-127553210D01*
X166482713Y-127538651D01*
X166488197Y-127523827D01*
X166493400Y-127508738D01*
X166498321Y-127493383D01*
X166502962Y-127477762D01*
X166507321Y-127461876D01*
X166511399Y-127445725D01*
X166515195Y-127429308D01*
X166518711Y-127412626D01*
X166521945Y-127395678D01*
X166524898Y-127378464D01*
X166527570Y-127360986D01*
X166529960Y-127343241D01*
X166532069Y-127325232D01*
X166533897Y-127306957D01*
X166535444Y-127288416D01*
X166536710Y-127269610D01*
X166537694Y-127250538D01*
X166538397Y-127231201D01*
X166538819Y-127211599D01*
X166538960Y-127191731D01*
X166538819Y-127171862D01*
X166538397Y-127152258D01*
X166537694Y-127132920D01*
X166536710Y-127113848D01*
X166535444Y-127095041D01*
X166533897Y-127076499D01*
X166532069Y-127058223D01*
X166529960Y-127040213D01*
X166527570Y-127022468D01*
X166524898Y-127004988D01*
X166521945Y-126987774D01*
X166518711Y-126970825D01*
X166515195Y-126954142D01*
X166511399Y-126937725D01*
X166507321Y-126921573D01*
X166502962Y-126905686D01*
X166498321Y-126890065D01*
X166493400Y-126874710D01*
X166488197Y-126859620D01*
X166482713Y-126844795D01*
X166476948Y-126830236D01*
X166470901Y-126815942D01*
X166464574Y-126801914D01*
X166457965Y-126788152D01*
X166451074Y-126774654D01*
X166443903Y-126761423D01*
X166436450Y-126748457D01*
X166428716Y-126735756D01*
X166420701Y-126723321D01*
X166412405Y-126711151D01*
X166403827Y-126699247D01*
X166394969Y-126687609D01*
X166385828Y-126676235D01*
X166376407Y-126665128D01*
X166366705Y-126654286D01*
X166356128Y-126643099D01*
X166345279Y-126632257D01*
X166334156Y-126621759D01*
X166322759Y-126611605D01*
X166311090Y-126601796D01*
X166299147Y-126592331D01*
X166286930Y-126583209D01*
X166274441Y-126574432D01*
X166261678Y-126566000D01*
X166248641Y-126557911D01*
X166235332Y-126550167D01*
X166221749Y-126542766D01*
X166207892Y-126535710D01*
X166193763Y-126528999D01*
X166179360Y-126522631D01*
X166164684Y-126516608D01*
X166149734Y-126510928D01*
X166134511Y-126505593D01*
X166119015Y-126500602D01*
X166103245Y-126495956D01*
X166087202Y-126491653D01*
X166070886Y-126487695D01*
X166054296Y-126484081D01*
X166037433Y-126480811D01*
X166020297Y-126477886D01*
X166002887Y-126475304D01*
X165985205Y-126473067D01*
X165967248Y-126471174D01*
X165949019Y-126469625D01*
X165930516Y-126468420D01*
X165911740Y-126467560D01*
X165892690Y-126467043D01*
X165873367Y-126466871D01*
X165853962Y-126467043D01*
X165834833Y-126467560D01*
X165815979Y-126468420D01*
X165797402Y-126469625D01*
X165779100Y-126471174D01*
X165761074Y-126473067D01*
X165743324Y-126475304D01*
X165725850Y-126477886D01*
X165708652Y-126480811D01*
X165691729Y-126484081D01*
X165675083Y-126487695D01*
X165658712Y-126491653D01*
X165642617Y-126495956D01*
X165626798Y-126500602D01*
X165611255Y-126505593D01*
X165595988Y-126510928D01*
X165580996Y-126516608D01*
X165566281Y-126522631D01*
X165551841Y-126528999D01*
X165537677Y-126535710D01*
X165523789Y-126542766D01*
X165510177Y-126550167D01*
X165496841Y-126557911D01*
X165483781Y-126566000D01*
X165470996Y-126574432D01*
X165458488Y-126583209D01*
X165446255Y-126592331D01*
X165434298Y-126601796D01*
X165422617Y-126611605D01*
X165411212Y-126621759D01*
X165400082Y-126632257D01*
X165389229Y-126643099D01*
X165378651Y-126654286D01*
X165368949Y-126665128D01*
X165359527Y-126676235D01*
X165350387Y-126687609D01*
X165341529Y-126699247D01*
X165332951Y-126711151D01*
X165324655Y-126723321D01*
X165316640Y-126735756D01*
X165308906Y-126748457D01*
X165301453Y-126761423D01*
X165294282Y-126774654D01*
X165287391Y-126788152D01*
X165280782Y-126801914D01*
X165274455Y-126815942D01*
X165268408Y-126830236D01*
X165262643Y-126844795D01*
X165257159Y-126859620D01*
X165251956Y-126874710D01*
X165247035Y-126890065D01*
X165242394Y-126905686D01*
X165238035Y-126921573D01*
X165233957Y-126937725D01*
X165230161Y-126954142D01*
X165226645Y-126970825D01*
X165223411Y-126987774D01*
X165220458Y-127004988D01*
X165217786Y-127022468D01*
X165215396Y-127040213D01*
X165213287Y-127058223D01*
X165211459Y-127076499D01*
X165209912Y-127095041D01*
X165208646Y-127113848D01*
X165207662Y-127132920D01*
X165206959Y-127152258D01*
X165206537Y-127171862D01*
X165206397Y-127191731D01*
X165206537Y-127211599D01*
X165206959Y-127231201D01*
X165207662Y-127250538D01*
X165208646Y-127269610D01*
X165209912Y-127288416D01*
X165211459Y-127306957D01*
X165213287Y-127325232D01*
X165215396Y-127343241D01*
X165217786Y-127360986D01*
X165220458Y-127378464D01*
X165223411Y-127395678D01*
X165226645Y-127412626D01*
X165230161Y-127429308D01*
X165233957Y-127445725D01*
X165238035Y-127461876D01*
X165242394Y-127477762D01*
X165247035Y-127493383D01*
X165251956Y-127508738D01*
X165257159Y-127523827D01*
X165262643Y-127538651D01*
X165268408Y-127553210D01*
X165274455Y-127567503D01*
X165280782Y-127581531D01*
X165287391Y-127595293D01*
X165294282Y-127608790D01*
X165301453Y-127622021D01*
X165308906Y-127634987D01*
X165316640Y-127647688D01*
X165324655Y-127660123D01*
X165332951Y-127672292D01*
X165341529Y-127684196D01*
X165350387Y-127695834D01*
X165359527Y-127707208D01*
X165368949Y-127718315D01*
X165378651Y-127729157D01*
X165389229Y-127740344D01*
X165400082Y-127751186D01*
X165411212Y-127761684D01*
X165422617Y-127771837D01*
X165434298Y-127781647D01*
X165446255Y-127791112D01*
X165458488Y-127800234D01*
X165470996Y-127809011D01*
X165483781Y-127817443D01*
X165496841Y-127825532D01*
X165510177Y-127833276D01*
X165523789Y-127840677D01*
X165537677Y-127847733D01*
X165551841Y-127854444D01*
X165566281Y-127860812D01*
X165580996Y-127866835D01*
X165595988Y-127872515D01*
X165611255Y-127877850D01*
X165626798Y-127882840D01*
X165642617Y-127887487D01*
X165658712Y-127891790D01*
X165675083Y-127895748D01*
X165691729Y-127899362D01*
X165708652Y-127902632D01*
X165725850Y-127905557D01*
X165743324Y-127908139D01*
X165761074Y-127910376D01*
X165779100Y-127912269D01*
X165797402Y-127913818D01*
X165815979Y-127915023D01*
X165834833Y-127915883D01*
X165853962Y-127916400D01*
X165873367Y-127916572D01*
X165892690Y-127916400D01*
X165911740Y-127915883D01*
X165930516Y-127915023D01*
X165949019Y-127913818D01*
X165967248Y-127912269D01*
X165985205Y-127910376D01*
X166002887Y-127908139D01*
X166020297Y-127905557D01*
X166037433Y-127902632D01*
X166054296Y-127899362D01*
X166070886Y-127895748D01*
X166087202Y-127891790D01*
X166103245Y-127887487D01*
X166119015Y-127882840D01*
X166134511Y-127877850D01*
X166149734Y-127872515D01*
X166164684Y-127866835D01*
X166179360Y-127860812D01*
X166193763Y-127854444D01*
X166207892Y-127847733D01*
X166221749Y-127840677D01*
X166235332Y-127833276D01*
X166248641Y-127825532D01*
X166261678Y-127817443D01*
X166274441Y-127809011D01*
X166286930Y-127800234D01*
X166299147Y-127791112D01*
X166311090Y-127781647D01*
X166322759Y-127771837D01*
X166334156Y-127761684D01*
X166345279Y-127751186D01*
X166356128Y-127740344D01*
X166366705Y-127729157D01*
X166366705Y-127729157D01*
G37*
G36*
X164842594Y-127894521D02*
X164842594Y-125950122D01*
X164503597Y-125950122D01*
X164503597Y-127894521D01*
X164842594Y-127894521D01*
X164842594Y-127894521D01*
G37*
G36*
X164197673Y-126486175D02*
X163838005Y-126486175D01*
X163522434Y-127468704D01*
X163212375Y-126486175D01*
X162854085Y-126486175D01*
X163390142Y-127928971D01*
X163397958Y-127949925D01*
X163405820Y-127970400D01*
X163413728Y-127990397D01*
X163421681Y-128009916D01*
X163429681Y-128028956D01*
X163437726Y-128047518D01*
X163445818Y-128065601D01*
X163453955Y-128083206D01*
X163462138Y-128100333D01*
X163470367Y-128116981D01*
X163478641Y-128133150D01*
X163486962Y-128148842D01*
X163495329Y-128164054D01*
X163503741Y-128178789D01*
X163512199Y-128193044D01*
X163520704Y-128206822D01*
X163529254Y-128220121D01*
X163537850Y-128232941D01*
X163546491Y-128245283D01*
X163555179Y-128257147D01*
X163563913Y-128268532D01*
X163572692Y-128279438D01*
X163581517Y-128289867D01*
X163590389Y-128299816D01*
X163599306Y-128309288D01*
X163608269Y-128318281D01*
X163617278Y-128326795D01*
X163626332Y-128334831D01*
X163635433Y-128342388D01*
X163650162Y-128354000D01*
X163664950Y-128364948D01*
X163679798Y-128375232D01*
X163694706Y-128384853D01*
X163709673Y-128393811D01*
X163724699Y-128402105D01*
X163739785Y-128409735D01*
X163754931Y-128416702D01*
X163770136Y-128423005D01*
X163785401Y-128428645D01*
X163800725Y-128433621D01*
X163816109Y-128437934D01*
X163831552Y-128441584D01*
X163847055Y-128444569D01*
X163862618Y-128446892D01*
X163878240Y-128448551D01*
X163893921Y-128449546D01*
X163909663Y-128449878D01*
X163925799Y-128449649D01*
X163941985Y-128448964D01*
X163958220Y-128447822D01*
X163974504Y-128446224D01*
X163990836Y-128444169D01*
X164007218Y-128441657D01*
X164023648Y-128438689D01*
X164040128Y-128435264D01*
X164056656Y-128431382D01*
X164073233Y-128427044D01*
X164089859Y-128422249D01*
X164106534Y-128416997D01*
X164123258Y-128411288D01*
X164123258Y-128128784D01*
X164107025Y-128135329D01*
X164090847Y-128141186D01*
X164074724Y-128146353D01*
X164058656Y-128150832D01*
X164042643Y-128154621D01*
X164026686Y-128157722D01*
X164010783Y-128160133D01*
X163994936Y-128161856D01*
X163979143Y-128162889D01*
X163963406Y-128163234D01*
X163953357Y-128162827D01*
X163943357Y-128161608D01*
X163933406Y-128159577D01*
X163923504Y-128156732D01*
X163913651Y-128153075D01*
X163903847Y-128148605D01*
X163894093Y-128143322D01*
X163884388Y-128137227D01*
X163874732Y-128130318D01*
X163865125Y-128122597D01*
X163855567Y-128114064D01*
X163846058Y-128104717D01*
X163836599Y-128094558D01*
X163827188Y-128083586D01*
X163817827Y-128071802D01*
X163808515Y-128059205D01*
X163799252Y-128045795D01*
X163790039Y-128031572D01*
X163780874Y-128016536D01*
X163771759Y-128000688D01*
X163762693Y-127984027D01*
X163753676Y-127966554D01*
X163744708Y-127948267D01*
X163735789Y-127929168D01*
X163726919Y-127909256D01*
X163718099Y-127888532D01*
X163709328Y-127866994D01*
X163700606Y-127844644D01*
X163691933Y-127821482D01*
X164197673Y-126486175D01*
X164197673Y-126486175D01*
G37*
G36*
X162658404Y-126903714D02*
X162658123Y-126885448D01*
X162657279Y-126867557D01*
X162655872Y-126850042D01*
X162653903Y-126832901D01*
X162651370Y-126816136D01*
X162648276Y-126799746D01*
X162644618Y-126783731D01*
X162640398Y-126768091D01*
X162635615Y-126752826D01*
X162630270Y-126737936D01*
X162624362Y-126723421D01*
X162617891Y-126709281D01*
X162610858Y-126695516D01*
X162603262Y-126682127D01*
X162595103Y-126669112D01*
X162586381Y-126656473D01*
X162577097Y-126644209D01*
X162567250Y-126632319D01*
X162556841Y-126620805D01*
X162545868Y-126609666D01*
X162534334Y-126598902D01*
X162522236Y-126588513D01*
X162509576Y-126578500D01*
X162496932Y-126569167D01*
X162484034Y-126560231D01*
X162470883Y-126551693D01*
X162457478Y-126543552D01*
X162443820Y-126535807D01*
X162429908Y-126528460D01*
X162415742Y-126521511D01*
X162401323Y-126514958D01*
X162386650Y-126508802D01*
X162371724Y-126503044D01*
X162356544Y-126497682D01*
X162341111Y-126492718D01*
X162325423Y-126488151D01*
X162309483Y-126483981D01*
X162293288Y-126480208D01*
X162276840Y-126476833D01*
X162260139Y-126473854D01*
X162243184Y-126471273D01*
X162225975Y-126469089D01*
X162208513Y-126467301D01*
X162190797Y-126465911D01*
X162172827Y-126464919D01*
X162154604Y-126464323D01*
X162136127Y-126464124D01*
X162118732Y-126464299D01*
X162101456Y-126464823D01*
X162084300Y-126465696D01*
X162067264Y-126466919D01*
X162050347Y-126468491D01*
X162033550Y-126470412D01*
X162016872Y-126472683D01*
X162000314Y-126475302D01*
X161983876Y-126478272D01*
X161967557Y-126481590D01*
X161951358Y-126485258D01*
X161935278Y-126489275D01*
X161919318Y-126493642D01*
X161903478Y-126498357D01*
X161887758Y-126503422D01*
X161872156Y-126508837D01*
X161856675Y-126514600D01*
X161841313Y-126520713D01*
X161826071Y-126527176D01*
X161810949Y-126533987D01*
X161795946Y-126541148D01*
X161781062Y-126548659D01*
X161766299Y-126556518D01*
X161751655Y-126564727D01*
X161751655Y-126822415D01*
X161766083Y-126815831D01*
X161780704Y-126809585D01*
X161795518Y-126803676D01*
X161810525Y-126798105D01*
X161825724Y-126792872D01*
X161841117Y-126787976D01*
X161856703Y-126783418D01*
X161872481Y-126779198D01*
X161888453Y-126775315D01*
X161904617Y-126771770D01*
X161920974Y-126768563D01*
X161937524Y-126765693D01*
X161954268Y-126763161D01*
X161971204Y-126760966D01*
X161988333Y-126759109D01*
X162005655Y-126757590D01*
X162023170Y-126756408D01*
X162040877Y-126755564D01*
X162058778Y-126755057D01*
X162076872Y-126754889D01*
X162099420Y-126755157D01*
X162120869Y-126755963D01*
X162141218Y-126757307D01*
X162160466Y-126759188D01*
X162178615Y-126761607D01*
X162195664Y-126764563D01*
X162211613Y-126768057D01*
X162226462Y-126772088D01*
X162240211Y-126776657D01*
X162252861Y-126781763D01*
X162264410Y-126787406D01*
X162274859Y-126793587D01*
X162284209Y-126800306D01*
X162292458Y-126807562D01*
X162299608Y-126815355D01*
X162305657Y-126823686D01*
X162310607Y-126832555D01*
X162314457Y-126841960D01*
X162317207Y-126851904D01*
X162318857Y-126862385D01*
X162319406Y-126873403D01*
X162318330Y-126887828D01*
X162315100Y-126901477D01*
X162309717Y-126914352D01*
X162302181Y-126926451D01*
X162292492Y-126937776D01*
X162280649Y-126948326D01*
X162266653Y-126958101D01*
X162250505Y-126967101D01*
X162237726Y-126973058D01*
X162224447Y-126978901D01*
X162210667Y-126984630D01*
X162196385Y-126990246D01*
X162181603Y-126995748D01*
X162166319Y-127001135D01*
X162150534Y-127006409D01*
X162134248Y-127011570D01*
X162117461Y-127016616D01*
X162100173Y-127021549D01*
X162082384Y-127026367D01*
X162065857Y-127030635D01*
X162049349Y-127035170D01*
X162032861Y-127039973D01*
X162016391Y-127045044D01*
X161999941Y-127050384D01*
X161983510Y-127055991D01*
X161967098Y-127061867D01*
X161950705Y-127068011D01*
X161934331Y-127074423D01*
X161917976Y-127081103D01*
X161901641Y-127088051D01*
X161885324Y-127095267D01*
X161871305Y-127101678D01*
X161857595Y-127108708D01*
X161844194Y-127116356D01*
X161831103Y-127124623D01*
X161818321Y-127133509D01*
X161805848Y-127143014D01*
X161793685Y-127153137D01*
X161781831Y-127163879D01*
X161770286Y-127175240D01*
X161759051Y-127187220D01*
X161748125Y-127199818D01*
X161737509Y-127213036D01*
X161727202Y-127226872D01*
X161717204Y-127241327D01*
X161709179Y-127253683D01*
X161701640Y-127266431D01*
X161694588Y-127279569D01*
X161688022Y-127293098D01*
X161681942Y-127307018D01*
X161676349Y-127321329D01*
X161671242Y-127336030D01*
X161666622Y-127351123D01*
X161662488Y-127366606D01*
X161658840Y-127382481D01*
X161655678Y-127398746D01*
X161653003Y-127415402D01*
X161650815Y-127432449D01*
X161649112Y-127449887D01*
X161647897Y-127467716D01*
X161647167Y-127485935D01*
X161646924Y-127504546D01*
X161647252Y-127521338D01*
X161648236Y-127537856D01*
X161649877Y-127554098D01*
X161652173Y-127570066D01*
X161655126Y-127585758D01*
X161658736Y-127601176D01*
X161663001Y-127616319D01*
X161667922Y-127631186D01*
X161673500Y-127645779D01*
X161679734Y-127660097D01*
X161686624Y-127674140D01*
X161694171Y-127687908D01*
X161702373Y-127701401D01*
X161711232Y-127714620D01*
X161720747Y-127727563D01*
X161730919Y-127740231D01*
X161741746Y-127752625D01*
X161753230Y-127764743D01*
X161765369Y-127776587D01*
X161778166Y-127788156D01*
X161791618Y-127799449D01*
X161803723Y-127809006D01*
X161816155Y-127818156D01*
X161828911Y-127826900D01*
X161841993Y-127835237D01*
X161855400Y-127843167D01*
X161869132Y-127850690D01*
X161883190Y-127857807D01*
X161897574Y-127864517D01*
X161912282Y-127870821D01*
X161927316Y-127876718D01*
X161942676Y-127882208D01*
X161958360Y-127887291D01*
X161974371Y-127891968D01*
X161990706Y-127896238D01*
X162007367Y-127900101D01*
X162024353Y-127903558D01*
X162041665Y-127906608D01*
X162059302Y-127909251D01*
X162077264Y-127911488D01*
X162095552Y-127913318D01*
X162114165Y-127914742D01*
X162133103Y-127915758D01*
X162152367Y-127916368D01*
X162171956Y-127916572D01*
X162189231Y-127916424D01*
X162206407Y-127915981D01*
X162223485Y-127915243D01*
X162240464Y-127914209D01*
X162257345Y-127912881D01*
X162274128Y-127911257D01*
X162290812Y-127909337D01*
X162307398Y-127907123D01*
X162323885Y-127904613D01*
X162340274Y-127901808D01*
X162356564Y-127898707D01*
X162372756Y-127895312D01*
X162388850Y-127891621D01*
X162404845Y-127887634D01*
X162420741Y-127883353D01*
X162436540Y-127878776D01*
X162452239Y-127873904D01*
X162467841Y-127868737D01*
X162483344Y-127863274D01*
X162498748Y-127857516D01*
X162514054Y-127851463D01*
X162529262Y-127845114D01*
X162544371Y-127838471D01*
X162559382Y-127831532D01*
X162574294Y-127824297D01*
X162589108Y-127816768D01*
X162603824Y-127808943D01*
X162618441Y-127800823D01*
X162618441Y-127499033D01*
X162603516Y-127508757D01*
X162588508Y-127518084D01*
X162573415Y-127527014D01*
X162558239Y-127535547D01*
X162542979Y-127543683D01*
X162527636Y-127551422D01*
X162512208Y-127558765D01*
X162496697Y-127565710D01*
X162481102Y-127572259D01*
X162465423Y-127578411D01*
X162449661Y-127584166D01*
X162433814Y-127589524D01*
X162417884Y-127594485D01*
X162401870Y-127599049D01*
X162385773Y-127603216D01*
X162369591Y-127606987D01*
X162353326Y-127610360D01*
X162336977Y-127613337D01*
X162320544Y-127615917D01*
X162304028Y-127618099D01*
X162287427Y-127619885D01*
X162270743Y-127621275D01*
X162253975Y-127622267D01*
X162237123Y-127622862D01*
X162220188Y-127623061D01*
X162196551Y-127622831D01*
X162174330Y-127622142D01*
X162153525Y-127620993D01*
X162134137Y-127619385D01*
X162116165Y-127617318D01*
X162099609Y-127614791D01*
X162084470Y-127611805D01*
X162070747Y-127608360D01*
X162058440Y-127604455D01*
X162047550Y-127600091D01*
X162038076Y-127595267D01*
X162030018Y-127589984D01*
X162019683Y-127580855D01*
X162010726Y-127570692D01*
X162003147Y-127559495D01*
X161996946Y-127547265D01*
X161992122Y-127534001D01*
X161988677Y-127519704D01*
X161986610Y-127504373D01*
X161985921Y-127488008D01*
X161986789Y-127474533D01*
X161989392Y-127461671D01*
X161993730Y-127449421D01*
X161999804Y-127437783D01*
X162007613Y-127426757D01*
X162017157Y-127416344D01*
X162028436Y-127406543D01*
X162041451Y-127397355D01*
X162056201Y-127388778D01*
X162068979Y-127381857D01*
X162082259Y-127375117D01*
X162096039Y-127368559D01*
X162110320Y-127362183D01*
X162125103Y-127355989D01*
X162140387Y-127349976D01*
X162156172Y-127344146D01*
X162172457Y-127338498D01*
X162189245Y-127333031D01*
X162206533Y-127327747D01*
X162224322Y-127322644D01*
X162240638Y-127317754D01*
X162256974Y-127312731D01*
X162273328Y-127307573D01*
X162289702Y-127302280D01*
X162306095Y-127296854D01*
X162322507Y-127291294D01*
X162338938Y-127285600D01*
X162355389Y-127279772D01*
X162371858Y-127273809D01*
X162388347Y-127267713D01*
X162404854Y-127261483D01*
X162421381Y-127255118D01*
X162436271Y-127248888D01*
X162450834Y-127242071D01*
X162465071Y-127234666D01*
X162478982Y-127226675D01*
X162492566Y-127218097D01*
X162505825Y-127208932D01*
X162518757Y-127199181D01*
X162531363Y-127188842D01*
X162543644Y-127177916D01*
X162555597Y-127166403D01*
X162567225Y-127154304D01*
X162578527Y-127141617D01*
X162589502Y-127128344D01*
X162598383Y-127116198D01*
X162606651Y-127103648D01*
X162614307Y-127090694D01*
X162621350Y-127077335D01*
X162627781Y-127063573D01*
X162633599Y-127049406D01*
X162638805Y-127034835D01*
X162643399Y-127019859D01*
X162647380Y-127004480D01*
X162650748Y-126988696D01*
X162653504Y-126972508D01*
X162655648Y-126955916D01*
X162657179Y-126938919D01*
X162658098Y-126921519D01*
X162658404Y-126903714D01*
X162658404Y-126903714D01*
G37*
G36*
X161433328Y-126776939D02*
X161433328Y-126486175D01*
X161196305Y-126486175D01*
X161196305Y-126068618D01*
X160857308Y-126068618D01*
X160857308Y-126486175D01*
X160523823Y-126486175D01*
X160523823Y-126776939D01*
X160857308Y-126776939D01*
X160857308Y-127471470D01*
X160856727Y-127493281D01*
X160854983Y-127513241D01*
X160852076Y-127531348D01*
X160848006Y-127547604D01*
X160842774Y-127562007D01*
X160836379Y-127574558D01*
X160828821Y-127585257D01*
X160820101Y-127594105D01*
X160810812Y-127600758D01*
X160800094Y-127606629D01*
X160787947Y-127611717D01*
X160774370Y-127616023D01*
X160759365Y-127619545D01*
X160742931Y-127622285D01*
X160725067Y-127624242D01*
X160705775Y-127625416D01*
X160685053Y-127625807D01*
X160667070Y-127625504D01*
X160649500Y-127624595D01*
X160632343Y-127623080D01*
X160615600Y-127620958D01*
X160599270Y-127618230D01*
X160583354Y-127614896D01*
X160567851Y-127610955D01*
X160552761Y-127606409D01*
X160538085Y-127601256D01*
X160523823Y-127595497D01*
X160523823Y-127875235D01*
X160539193Y-127881350D01*
X160554776Y-127886976D01*
X160570570Y-127892112D01*
X160586576Y-127896760D01*
X160602795Y-127900918D01*
X160619225Y-127904587D01*
X160635868Y-127907766D01*
X160652722Y-127910457D01*
X160669789Y-127912658D01*
X160687067Y-127914370D01*
X160704558Y-127915593D01*
X160722260Y-127916327D01*
X160740175Y-127916572D01*
X160747065Y-127916572D01*
X160765922Y-127916315D01*
X160784408Y-127915547D01*
X160802525Y-127914265D01*
X160820271Y-127912472D01*
X160837648Y-127910165D01*
X160854654Y-127907346D01*
X160871290Y-127904015D01*
X160887556Y-127900171D01*
X160903452Y-127895815D01*
X160918978Y-127890946D01*
X160934133Y-127885565D01*
X160948919Y-127879671D01*
X160963334Y-127873265D01*
X160977379Y-127866346D01*
X160991054Y-127858914D01*
X161004359Y-127850970D01*
X161017294Y-127842514D01*
X161029859Y-127833545D01*
X161042053Y-127824064D01*
X161053877Y-127814070D01*
X161065332Y-127803563D01*
X161076416Y-127792544D01*
X161086614Y-127781584D01*
X161096360Y-127770269D01*
X161105652Y-127758600D01*
X161114490Y-127746576D01*
X161122876Y-127734198D01*
X161130808Y-127721465D01*
X161138287Y-127708378D01*
X161145313Y-127694937D01*
X161151885Y-127681142D01*
X161158004Y-127666992D01*
X161163670Y-127652487D01*
X161168882Y-127637628D01*
X161173642Y-127622415D01*
X161177948Y-127606848D01*
X161181801Y-127590926D01*
X161185200Y-127574649D01*
X161188146Y-127558019D01*
X161190639Y-127541033D01*
X161192679Y-127523694D01*
X161194265Y-127506000D01*
X161195399Y-127487952D01*
X161196079Y-127469549D01*
X161196305Y-127450792D01*
X161196305Y-126776939D01*
X161433328Y-126776939D01*
X161433328Y-126776939D01*
X161433328Y-126776939D01*
G37*
G36*
X160256483Y-127434254D02*
X159921621Y-127391544D01*
X159921282Y-127407399D01*
X159920264Y-127422677D01*
X159918568Y-127437379D01*
X159916193Y-127451504D01*
X159913140Y-127465053D01*
X159909408Y-127478025D01*
X159904998Y-127490421D01*
X159899910Y-127502240D01*
X159894143Y-127513482D01*
X159887697Y-127524148D01*
X159880573Y-127534238D01*
X159872771Y-127543751D01*
X159864290Y-127552687D01*
X159855131Y-127561047D01*
X159845293Y-127568830D01*
X159834776Y-127576037D01*
X159823582Y-127582667D01*
X159811708Y-127588721D01*
X159799157Y-127594198D01*
X159785926Y-127599098D01*
X159772018Y-127603423D01*
X159757430Y-127607170D01*
X159742165Y-127610341D01*
X159726221Y-127612935D01*
X159709598Y-127614953D01*
X159692297Y-127616395D01*
X159674318Y-127617259D01*
X159655660Y-127617548D01*
X159652903Y-127617548D01*
X159634469Y-127617255D01*
X159616730Y-127616376D01*
X159599687Y-127614911D01*
X159583340Y-127612860D01*
X159567688Y-127610223D01*
X159552732Y-127606999D01*
X159538471Y-127603190D01*
X159524906Y-127598795D01*
X159512037Y-127593814D01*
X159499863Y-127588247D01*
X159488385Y-127582094D01*
X159477603Y-127575354D01*
X159467516Y-127568029D01*
X159458125Y-127560118D01*
X159449430Y-127551620D01*
X159441430Y-127542537D01*
X159434126Y-127532868D01*
X159427517Y-127522612D01*
X159421604Y-127511771D01*
X159416387Y-127500344D01*
X159411865Y-127488330D01*
X159408039Y-127475731D01*
X159404909Y-127462545D01*
X159402474Y-127448774D01*
X159400735Y-127434416D01*
X159399692Y-127419473D01*
X159399344Y-127403943D01*
X159399344Y-127226181D01*
X159418857Y-127223527D01*
X159437891Y-127221085D01*
X159456446Y-127218855D01*
X159474524Y-127216836D01*
X159492122Y-127215029D01*
X159509243Y-127213434D01*
X159525884Y-127212050D01*
X159542047Y-127210878D01*
X159557732Y-127209918D01*
X159572939Y-127209169D01*
X159587666Y-127208632D01*
X159601916Y-127208307D01*
X159623492Y-127208525D01*
X159644315Y-127209178D01*
X159664384Y-127210268D01*
X159683700Y-127211794D01*
X159702262Y-127213755D01*
X159720070Y-127216152D01*
X159737124Y-127218985D01*
X159753424Y-127222254D01*
X159768971Y-127225959D01*
X159783764Y-127230099D01*
X159797803Y-127234676D01*
X159811089Y-127239688D01*
X159823621Y-127245136D01*
X159835399Y-127251020D01*
X159846423Y-127257340D01*
X159856694Y-127264096D01*
X159866211Y-127271287D01*
X159874974Y-127278915D01*
X159882983Y-127286978D01*
X159890239Y-127295477D01*
X159896740Y-127304412D01*
X159902489Y-127313783D01*
X159907483Y-127323589D01*
X159911724Y-127333832D01*
X159915210Y-127344510D01*
X159917944Y-127355624D01*
X159919923Y-127367174D01*
X159921149Y-127379160D01*
X159921620Y-127391582D01*
X159921621Y-127391544D01*
X160256483Y-127434254D01*
X160256152Y-127417114D01*
X160255160Y-127399863D01*
X160253507Y-127382501D01*
X160251192Y-127365027D01*
X160248216Y-127347442D01*
X160245319Y-127333999D01*
X160241354Y-127319656D01*
X160236319Y-127304413D01*
X160230217Y-127288270D01*
X160223045Y-127271227D01*
X160214805Y-127253284D01*
X160205497Y-127234441D01*
X160197229Y-127219639D01*
X160188348Y-127205246D01*
X160178855Y-127191261D01*
X160168749Y-127177684D01*
X160158031Y-127164516D01*
X160146701Y-127151756D01*
X160134758Y-127139404D01*
X160122202Y-127127461D01*
X160109034Y-127115926D01*
X160098527Y-127107533D01*
X160087215Y-127099351D01*
X160075100Y-127091380D01*
X160062181Y-127083619D01*
X160048458Y-127076069D01*
X160033931Y-127068729D01*
X160018600Y-127061600D01*
X160002466Y-127054682D01*
X159985527Y-127047974D01*
X159967785Y-127041477D01*
X159949239Y-127035190D01*
X159929889Y-127029114D01*
X159915799Y-127024867D01*
X159901413Y-127020877D01*
X159886731Y-127017145D01*
X159871754Y-127013669D01*
X159856481Y-127010452D01*
X159840913Y-127007491D01*
X159825049Y-127004788D01*
X159808889Y-127002343D01*
X159792433Y-127000155D01*
X159775682Y-126998224D01*
X159758636Y-126996551D01*
X159741293Y-126995135D01*
X159723655Y-126993977D01*
X159705722Y-126993076D01*
X159687493Y-126992432D01*
X159668968Y-126992046D01*
X159650147Y-126991918D01*
X159634640Y-126992003D01*
X159618985Y-126992260D01*
X159603184Y-126992689D01*
X159587235Y-126993289D01*
X159571140Y-126994060D01*
X159554897Y-126995003D01*
X159538508Y-126996117D01*
X159521971Y-126997403D01*
X159505288Y-126998860D01*
X159488458Y-127000489D01*
X159471480Y-127002289D01*
X159454356Y-127004260D01*
X159437084Y-127006403D01*
X159419666Y-127008717D01*
X159402101Y-127011203D01*
X159402375Y-126995328D01*
X159403199Y-126979941D01*
X159404572Y-126965043D01*
X159406494Y-126950634D01*
X159408965Y-126936713D01*
X159411986Y-126923280D01*
X159415556Y-126910336D01*
X159419675Y-126897880D01*
X159424343Y-126885913D01*
X159429560Y-126874434D01*
X159435327Y-126863444D01*
X159441642Y-126852942D01*
X159448507Y-126842928D01*
X159455921Y-126833403D01*
X159463884Y-126824367D01*
X159472397Y-126815819D01*
X159481459Y-126807759D01*
X159491069Y-126800188D01*
X159501229Y-126793106D01*
X159511939Y-126786511D01*
X159523197Y-126780406D01*
X159535005Y-126774788D01*
X159547361Y-126769660D01*
X159560267Y-126765019D01*
X159573723Y-126760867D01*
X159587727Y-126757204D01*
X159602280Y-126754029D01*
X159617383Y-126751342D01*
X159633035Y-126749144D01*
X159649236Y-126747435D01*
X159665987Y-126746213D01*
X159683286Y-126745481D01*
X159701135Y-126745237D01*
X159719997Y-126745351D01*
X159738661Y-126745695D01*
X159757127Y-126746269D01*
X159775394Y-126747071D01*
X159793463Y-126748103D01*
X159811334Y-126749364D01*
X159829006Y-126750855D01*
X159846479Y-126752575D01*
X159863754Y-126754524D01*
X159880831Y-126756703D01*
X159897709Y-126759111D01*
X159914389Y-126761748D01*
X159930870Y-126764615D01*
X159947153Y-126767711D01*
X159963238Y-126771036D01*
X159979124Y-126774591D01*
X159994811Y-126778375D01*
X160010300Y-126782388D01*
X160025591Y-126786631D01*
X160040683Y-126791103D01*
X160055577Y-126795804D01*
X160070273Y-126800734D01*
X160084770Y-126805894D01*
X160099068Y-126811284D01*
X160113168Y-126816902D01*
X160113168Y-126542676D01*
X160098159Y-126536750D01*
X160083023Y-126531056D01*
X160067760Y-126525595D01*
X160052372Y-126520366D01*
X160036856Y-126515369D01*
X160021215Y-126510605D01*
X160005447Y-126506073D01*
X159989553Y-126501773D01*
X159973532Y-126497706D01*
X159957385Y-126493872D01*
X159941111Y-126490270D01*
X159924711Y-126486900D01*
X159908185Y-126483762D01*
X159891532Y-126480857D01*
X159874753Y-126478185D01*
X159857848Y-126475744D01*
X159840816Y-126473537D01*
X159823658Y-126471561D01*
X159806373Y-126469818D01*
X159788962Y-126468308D01*
X159771425Y-126467029D01*
X159753761Y-126465984D01*
X159735971Y-126465170D01*
X159718054Y-126464589D01*
X159700012Y-126464241D01*
X159681842Y-126464124D01*
X159661881Y-126464296D01*
X159642234Y-126464810D01*
X159622904Y-126465668D01*
X159603888Y-126466868D01*
X159585188Y-126468412D01*
X159566804Y-126470298D01*
X159548734Y-126472527D01*
X159530981Y-126475100D01*
X159513542Y-126478015D01*
X159496420Y-126481273D01*
X159479612Y-126484874D01*
X159463120Y-126488818D01*
X159446943Y-126493106D01*
X159431082Y-126497736D01*
X159415536Y-126502709D01*
X159400306Y-126508025D01*
X159385391Y-126513684D01*
X159370791Y-126519686D01*
X159356507Y-126526031D01*
X159342539Y-126532719D01*
X159328885Y-126539750D01*
X159315547Y-126547124D01*
X159302525Y-126554841D01*
X159289818Y-126562901D01*
X159277426Y-126571303D01*
X159265350Y-126580049D01*
X159253589Y-126589138D01*
X159242144Y-126598570D01*
X159231014Y-126608345D01*
X159220199Y-126618462D01*
X159209720Y-126628813D01*
X159199596Y-126639470D01*
X159189827Y-126650433D01*
X159180414Y-126661703D01*
X159171356Y-126673278D01*
X159162653Y-126685160D01*
X159154305Y-126697348D01*
X159146312Y-126709842D01*
X159138675Y-126722643D01*
X159131392Y-126735750D01*
X159124466Y-126749163D01*
X159117894Y-126762882D01*
X159111677Y-126776907D01*
X159105816Y-126791239D01*
X159100310Y-126805877D01*
X159095159Y-126820821D01*
X159090364Y-126836071D01*
X159085923Y-126851628D01*
X159081838Y-126867490D01*
X159078108Y-126883659D01*
X159074734Y-126900134D01*
X159071714Y-126916916D01*
X159069050Y-126934003D01*
X159066741Y-126951397D01*
X159064787Y-126969097D01*
X159063189Y-126987104D01*
X159061945Y-127005416D01*
X159061057Y-127024035D01*
X159060525Y-127042960D01*
X159060347Y-127062191D01*
X159060347Y-127442532D01*
X159060623Y-127459326D01*
X159061451Y-127475917D01*
X159062832Y-127492305D01*
X159064765Y-127508490D01*
X159067250Y-127524471D01*
X159070288Y-127540250D01*
X159073877Y-127555825D01*
X159078019Y-127571197D01*
X159082713Y-127586366D01*
X159087960Y-127601332D01*
X159093759Y-127616094D01*
X159100109Y-127630653D01*
X159107013Y-127645010D01*
X159114468Y-127659163D01*
X159122476Y-127673113D01*
X159131036Y-127686859D01*
X159140148Y-127700403D01*
X159149813Y-127713744D01*
X159160029Y-127726881D01*
X159170798Y-127739815D01*
X159182120Y-127752546D01*
X159193993Y-127765074D01*
X159206419Y-127777398D01*
X159216585Y-127786831D01*
X159227124Y-127795933D01*
X159238037Y-127804704D01*
X159249323Y-127813143D01*
X159260984Y-127821252D01*
X159273017Y-127829030D01*
X159285424Y-127836477D01*
X159298205Y-127843593D01*
X159311360Y-127850377D01*
X159324888Y-127856831D01*
X159338789Y-127862954D01*
X159353065Y-127868746D01*
X159367714Y-127874207D01*
X159382736Y-127879337D01*
X159398132Y-127884136D01*
X159413902Y-127888605D01*
X159430045Y-127892742D01*
X159446562Y-127896548D01*
X159463452Y-127900023D01*
X159480716Y-127903167D01*
X159498353Y-127905981D01*
X159516365Y-127908463D01*
X159534749Y-127910614D01*
X159553508Y-127912434D01*
X159572640Y-127913924D01*
X159592145Y-127915082D01*
X159612024Y-127915910D01*
X159632277Y-127916406D01*
X159652904Y-127916572D01*
X159673393Y-127916415D01*
X159693522Y-127915947D01*
X159713289Y-127915166D01*
X159732695Y-127914073D01*
X159751739Y-127912667D01*
X159770423Y-127910949D01*
X159788744Y-127908919D01*
X159806705Y-127906576D01*
X159824304Y-127903921D01*
X159841542Y-127900953D01*
X159858418Y-127897673D01*
X159874933Y-127894081D01*
X159891087Y-127890177D01*
X159906879Y-127885960D01*
X159922310Y-127881430D01*
X159937380Y-127876589D01*
X159952088Y-127871434D01*
X159966435Y-127865968D01*
X159980420Y-127860189D01*
X159994044Y-127854098D01*
X160007307Y-127847695D01*
X160020209Y-127840979D01*
X160032749Y-127833950D01*
X160044928Y-127826610D01*
X160056745Y-127818957D01*
X160068201Y-127810991D01*
X160079296Y-127802714D01*
X160090029Y-127794123D01*
X160100401Y-127785221D01*
X160110412Y-127776006D01*
X160122838Y-127763670D01*
X160134711Y-127751105D01*
X160146033Y-127738310D01*
X160156802Y-127725286D01*
X160167018Y-127712032D01*
X160176683Y-127698549D01*
X160185795Y-127684837D01*
X160194355Y-127670896D01*
X160202363Y-127656725D01*
X160209818Y-127642325D01*
X160216722Y-127627695D01*
X160223073Y-127612837D01*
X160228871Y-127597749D01*
X160234118Y-127582431D01*
X160238812Y-127566884D01*
X160242954Y-127551108D01*
X160246543Y-127535103D01*
X160249581Y-127518868D01*
X160252066Y-127502404D01*
X160253999Y-127485710D01*
X160255380Y-127468787D01*
X160256208Y-127451635D01*
X160256484Y-127434254D01*
X160256483Y-127434254D01*
X160256483Y-127434254D01*
G37*
G36*
X158762690Y-127191731D02*
X158762549Y-127171707D01*
X158762127Y-127151953D01*
X158761424Y-127132470D01*
X158760440Y-127113256D01*
X158759174Y-127094312D01*
X158757628Y-127075638D01*
X158755800Y-127057234D01*
X158753690Y-127039100D01*
X158751300Y-127021237D01*
X158748628Y-127003643D01*
X158745675Y-126986319D01*
X158742441Y-126969265D01*
X158738926Y-126952481D01*
X158735129Y-126935967D01*
X158731051Y-126919723D01*
X158726692Y-126903749D01*
X158722052Y-126888045D01*
X158717130Y-126872611D01*
X158711927Y-126857447D01*
X158706443Y-126842553D01*
X158700678Y-126827928D01*
X158694632Y-126813574D01*
X158688304Y-126799490D01*
X158681695Y-126785676D01*
X158674805Y-126772132D01*
X158667633Y-126758858D01*
X158660181Y-126745853D01*
X158652447Y-126733119D01*
X158644432Y-126720655D01*
X158636135Y-126708460D01*
X158627558Y-126696536D01*
X158618699Y-126684882D01*
X158609559Y-126673497D01*
X158600138Y-126662383D01*
X158590435Y-126651539D01*
X158579859Y-126640352D01*
X158569009Y-126629510D01*
X158557886Y-126619012D01*
X158546490Y-126608859D01*
X158534820Y-126599049D01*
X158522877Y-126589584D01*
X158510661Y-126580462D01*
X158498171Y-126571685D01*
X158485408Y-126563253D01*
X158472372Y-126555164D01*
X158459062Y-126547420D01*
X158445479Y-126540019D01*
X158431623Y-126532963D01*
X158417493Y-126526252D01*
X158403090Y-126519884D01*
X158388414Y-126513861D01*
X158373464Y-126508181D01*
X158358241Y-126502846D01*
X158342745Y-126497856D01*
X158326975Y-126493209D01*
X158310933Y-126488906D01*
X158294616Y-126484948D01*
X158278027Y-126481334D01*
X158261164Y-126478064D01*
X158244027Y-126475139D01*
X158226618Y-126472557D01*
X158208935Y-126470320D01*
X158190979Y-126468427D01*
X158172749Y-126466878D01*
X158154246Y-126465673D01*
X158135470Y-126464813D01*
X158116420Y-126464296D01*
X158097097Y-126464124D01*
X158079884Y-126464261D01*
X158062694Y-126464670D01*
X158045529Y-126465352D01*
X158028387Y-126466306D01*
X158011269Y-126467534D01*
X157994175Y-126469034D01*
X157977105Y-126470807D01*
X157960059Y-126472852D01*
X157943037Y-126475171D01*
X157926039Y-126477762D01*
X157909065Y-126480626D01*
X157892114Y-126483762D01*
X157875188Y-126487172D01*
X157858285Y-126490854D01*
X157841407Y-126494809D01*
X157824552Y-126499036D01*
X157807721Y-126503537D01*
X157790914Y-126508310D01*
X157774132Y-126513356D01*
X157757373Y-126518674D01*
X157740638Y-126524266D01*
X157723927Y-126530130D01*
X157707239Y-126536267D01*
X157690576Y-126542676D01*
X157690576Y-126825162D01*
X157706494Y-126818884D01*
X157722487Y-126812912D01*
X157738554Y-126807247D01*
X157754697Y-126801887D01*
X157770915Y-126796834D01*
X157787207Y-126792088D01*
X157803575Y-126787647D01*
X157820018Y-126783513D01*
X157836536Y-126779685D01*
X157853128Y-126776163D01*
X157869796Y-126772948D01*
X157886539Y-126770038D01*
X157903356Y-126767435D01*
X157920249Y-126765138D01*
X157937217Y-126763148D01*
X157954259Y-126761464D01*
X157971377Y-126760085D01*
X157988570Y-126759014D01*
X158005838Y-126758248D01*
X158023180Y-126757789D01*
X158040598Y-126757635D01*
X158060776Y-126757884D01*
X158080404Y-126758628D01*
X158099483Y-126759869D01*
X158118012Y-126761606D01*
X158135992Y-126763839D01*
X158153421Y-126766568D01*
X158170301Y-126769794D01*
X158186632Y-126773516D01*
X158202412Y-126777735D01*
X158217643Y-126782449D01*
X158232325Y-126787660D01*
X158246456Y-126793367D01*
X158260038Y-126799571D01*
X158273070Y-126806270D01*
X158285553Y-126813466D01*
X158297486Y-126821158D01*
X158308869Y-126829347D01*
X158319702Y-126838032D01*
X158329986Y-126847213D01*
X158338311Y-126855579D01*
X158346249Y-126864639D01*
X158353800Y-126874394D01*
X158360963Y-126884844D01*
X158367740Y-126895989D01*
X158374129Y-126907828D01*
X158380130Y-126920362D01*
X158385745Y-126933591D01*
X158390973Y-126947514D01*
X158395813Y-126962132D01*
X158400266Y-126977444D01*
X158404331Y-126993452D01*
X158408010Y-127010153D01*
X158411301Y-127027550D01*
X158414206Y-127045641D01*
X158416722Y-127064427D01*
X158418852Y-127083908D01*
X158420595Y-127104083D01*
X158421950Y-127124953D01*
X158422918Y-127146518D01*
X158423499Y-127168777D01*
X158423692Y-127191731D01*
X158423499Y-127214445D01*
X158422918Y-127236487D01*
X158421950Y-127257857D01*
X158420595Y-127278555D01*
X158418852Y-127298582D01*
X158416722Y-127317936D01*
X158414206Y-127336619D01*
X158411301Y-127354629D01*
X158408010Y-127371968D01*
X158404331Y-127388635D01*
X158400266Y-127404630D01*
X158395813Y-127419953D01*
X158390973Y-127434604D01*
X158385745Y-127448584D01*
X158380130Y-127461891D01*
X158374129Y-127474527D01*
X158367740Y-127486490D01*
X158360963Y-127497782D01*
X158353800Y-127508402D01*
X158346249Y-127518350D01*
X158338311Y-127527626D01*
X158329986Y-127536230D01*
X158319702Y-127545411D01*
X158308869Y-127554096D01*
X158297486Y-127562284D01*
X158285553Y-127569977D01*
X158273070Y-127577173D01*
X158260038Y-127583872D01*
X158246456Y-127590076D01*
X158232325Y-127595783D01*
X158217643Y-127600994D01*
X158202412Y-127605708D01*
X158186632Y-127609927D01*
X158170301Y-127613649D01*
X158153421Y-127616875D01*
X158135992Y-127619604D01*
X158118012Y-127621837D01*
X158099483Y-127623574D01*
X158080404Y-127624815D01*
X158060776Y-127625559D01*
X158040598Y-127625807D01*
X158023930Y-127625648D01*
X158007262Y-127625170D01*
X157990595Y-127624373D01*
X157973927Y-127623258D01*
X157957259Y-127621824D01*
X157940592Y-127620071D01*
X157923924Y-127617999D01*
X157907256Y-127615609D01*
X157890589Y-127612900D01*
X157873921Y-127609872D01*
X157857253Y-127606526D01*
X157840585Y-127602861D01*
X157823918Y-127598877D01*
X157807250Y-127594575D01*
X157790582Y-127589954D01*
X157773915Y-127585014D01*
X157757247Y-127579755D01*
X157740579Y-127574178D01*
X157723911Y-127568282D01*
X157707244Y-127562067D01*
X157690576Y-127555534D01*
X157690576Y-127838020D01*
X157707239Y-127844429D01*
X157723927Y-127850566D01*
X157740638Y-127856430D01*
X157757373Y-127862022D01*
X157774132Y-127867340D01*
X157790914Y-127872386D01*
X157807721Y-127877159D01*
X157824552Y-127881660D01*
X157841407Y-127885887D01*
X157858285Y-127889842D01*
X157875188Y-127893524D01*
X157892114Y-127896934D01*
X157909065Y-127900070D01*
X157926039Y-127902934D01*
X157943037Y-127905525D01*
X157960059Y-127907844D01*
X157977105Y-127909889D01*
X157994175Y-127911662D01*
X158011269Y-127913162D01*
X158028387Y-127914390D01*
X158045529Y-127915344D01*
X158062694Y-127916026D01*
X158079884Y-127916435D01*
X158097097Y-127916572D01*
X158116420Y-127916400D01*
X158135470Y-127915883D01*
X158154246Y-127915023D01*
X158172749Y-127913818D01*
X158190979Y-127912269D01*
X158208935Y-127910376D01*
X158226618Y-127908139D01*
X158244027Y-127905557D01*
X158261164Y-127902632D01*
X158278027Y-127899362D01*
X158294616Y-127895748D01*
X158310933Y-127891790D01*
X158326975Y-127887487D01*
X158342745Y-127882840D01*
X158358241Y-127877850D01*
X158373464Y-127872515D01*
X158388414Y-127866835D01*
X158403090Y-127860812D01*
X158417493Y-127854444D01*
X158431623Y-127847733D01*
X158445479Y-127840677D01*
X158459062Y-127833276D01*
X158472372Y-127825532D01*
X158485408Y-127817443D01*
X158498171Y-127809011D01*
X158510661Y-127800234D01*
X158522877Y-127791112D01*
X158534820Y-127781647D01*
X158546490Y-127771837D01*
X158557886Y-127761684D01*
X158569009Y-127751186D01*
X158579859Y-127740344D01*
X158590435Y-127729157D01*
X158600138Y-127718315D01*
X158609559Y-127707208D01*
X158618699Y-127695834D01*
X158627558Y-127684196D01*
X158636135Y-127672292D01*
X158644432Y-127660123D01*
X158652447Y-127647688D01*
X158660181Y-127634987D01*
X158667633Y-127622021D01*
X158674805Y-127608790D01*
X158681695Y-127595293D01*
X158688304Y-127581531D01*
X158694632Y-127567503D01*
X158700678Y-127553210D01*
X158706443Y-127538651D01*
X158711927Y-127523827D01*
X158717130Y-127508738D01*
X158722052Y-127493383D01*
X158726692Y-127477762D01*
X158731051Y-127461876D01*
X158735129Y-127445725D01*
X158738926Y-127429308D01*
X158742441Y-127412626D01*
X158745675Y-127395678D01*
X158748628Y-127378464D01*
X158751300Y-127360986D01*
X158753690Y-127343241D01*
X158755800Y-127325232D01*
X158757628Y-127306957D01*
X158759174Y-127288416D01*
X158760440Y-127269610D01*
X158761424Y-127250538D01*
X158762127Y-127231201D01*
X158762549Y-127211599D01*
X158762690Y-127191731D01*
X158762690Y-127191731D01*
G37*
G36*
X157377761Y-127894521D02*
X157377761Y-125958382D01*
X157038764Y-125958382D01*
X157038764Y-127002943D01*
X156564719Y-126486175D01*
X156115478Y-126486175D01*
X156728705Y-127113179D01*
X156050711Y-127894521D01*
X156479281Y-127894521D01*
X156945057Y-127339183D01*
X157038764Y-127434254D01*
X157038764Y-127894521D01*
X157377761Y-127894521D01*
X157377761Y-127894521D01*
G37*
D11*
X172133333Y-106628571D02*
X172466667Y-106628571D01*
X172466667Y-107152381D02*
X172466667Y-106152381D01*
X171990476Y-106152381D01*
X171180952Y-106152381D02*
X171371429Y-106152381D01*
X171466667Y-106200000D01*
X171514286Y-106247619D01*
X171609524Y-106390476D01*
X171657143Y-106580952D01*
X171657143Y-106961905D01*
X171609524Y-107057143D01*
X171561905Y-107104762D01*
X171466667Y-107152381D01*
X171276190Y-107152381D01*
X171180952Y-107104762D01*
X171133333Y-107057143D01*
X171085714Y-106961905D01*
X171085714Y-106723810D01*
X171133333Y-106628571D01*
X171180952Y-106580952D01*
X171276190Y-106533333D01*
X171466667Y-106533333D01*
X171561905Y-106580952D01*
X171609524Y-106628571D01*
X171657143Y-106723810D01*
X134333333Y-99328571D02*
X134666667Y-99328571D01*
X134666667Y-99852381D02*
X134666667Y-98852381D01*
X134190476Y-98852381D01*
X133333333Y-98852381D02*
X133809524Y-98852381D01*
X133857143Y-99328571D01*
X133809524Y-99280952D01*
X133714286Y-99233333D01*
X133476190Y-99233333D01*
X133380952Y-99280952D01*
X133333333Y-99328571D01*
X133285714Y-99423810D01*
X133285714Y-99661905D01*
X133333333Y-99757143D01*
X133380952Y-99804762D01*
X133476190Y-99852381D01*
X133714286Y-99852381D01*
X133809524Y-99804762D01*
X133857143Y-99757143D01*
X131583333Y-118178571D02*
X131916667Y-118178571D01*
X131916667Y-118702381D02*
X131916667Y-117702381D01*
X131440476Y-117702381D01*
X130630952Y-118035714D02*
X130630952Y-118702381D01*
X130869048Y-117654762D02*
X131107143Y-118369048D01*
X130488095Y-118369048D01*
X149216666Y-115157143D02*
X149264285Y-115204762D01*
X149407142Y-115252381D01*
X149502380Y-115252381D01*
X149645238Y-115204762D01*
X149740476Y-115109524D01*
X149788095Y-115014286D01*
X149835714Y-114823810D01*
X149835714Y-114680952D01*
X149788095Y-114490476D01*
X149740476Y-114395238D01*
X149645238Y-114300000D01*
X149502380Y-114252381D01*
X149407142Y-114252381D01*
X149264285Y-114300000D01*
X149216666Y-114347619D01*
X148264285Y-115252381D02*
X148835714Y-115252381D01*
X148550000Y-115252381D02*
X148550000Y-114252381D01*
X148645238Y-114395238D01*
X148740476Y-114490476D01*
X148835714Y-114538095D01*
X133307143Y-114183334D02*
X133354762Y-114135715D01*
X133402381Y-113992858D01*
X133402381Y-113897620D01*
X133354762Y-113754762D01*
X133259524Y-113659524D01*
X133164286Y-113611905D01*
X132973810Y-113564286D01*
X132830952Y-113564286D01*
X132640476Y-113611905D01*
X132545238Y-113659524D01*
X132450000Y-113754762D01*
X132402381Y-113897620D01*
X132402381Y-113992858D01*
X132450000Y-114135715D01*
X132497619Y-114183334D01*
X132497619Y-114564286D02*
X132450000Y-114611905D01*
X132402381Y-114707143D01*
X132402381Y-114945239D01*
X132450000Y-115040477D01*
X132497619Y-115088096D01*
X132592857Y-115135715D01*
X132688095Y-115135715D01*
X132830952Y-115088096D01*
X133402381Y-114516667D01*
X133402381Y-115135715D01*
X146066666Y-104757143D02*
X146114285Y-104804762D01*
X146257142Y-104852381D01*
X146352380Y-104852381D01*
X146495238Y-104804762D01*
X146590476Y-104709524D01*
X146638095Y-104614286D01*
X146685714Y-104423810D01*
X146685714Y-104280952D01*
X146638095Y-104090476D01*
X146590476Y-103995238D01*
X146495238Y-103900000D01*
X146352380Y-103852381D01*
X146257142Y-103852381D01*
X146114285Y-103900000D01*
X146066666Y-103947619D01*
X145733333Y-103852381D02*
X145114285Y-103852381D01*
X145447619Y-104233333D01*
X145304761Y-104233333D01*
X145209523Y-104280952D01*
X145161904Y-104328571D01*
X145114285Y-104423810D01*
X145114285Y-104661905D01*
X145161904Y-104757143D01*
X145209523Y-104804762D01*
X145304761Y-104852381D01*
X145590476Y-104852381D01*
X145685714Y-104804762D01*
X145733333Y-104757143D01*
X168676886Y-96191185D02*
X168744229Y-96191185D01*
X168878916Y-96123841D01*
X168946260Y-96056498D01*
X169013604Y-95921810D01*
X169013604Y-95787123D01*
X168979932Y-95686108D01*
X168878917Y-95517750D01*
X168777901Y-95416734D01*
X168609542Y-95315719D01*
X168508527Y-95282047D01*
X168373840Y-95282047D01*
X168239153Y-95349391D01*
X168171809Y-95416734D01*
X168104466Y-95551421D01*
X168104466Y-95618765D01*
X167666733Y-96393215D02*
X168138138Y-96864620D01*
X167565719Y-95955482D02*
X168239154Y-96292200D01*
X167801421Y-96729933D01*
X169587064Y-119055135D02*
X169587064Y-119122478D01*
X169654408Y-119257165D01*
X169721751Y-119324509D01*
X169856439Y-119391853D01*
X169991126Y-119391853D01*
X170092141Y-119358181D01*
X170260499Y-119257166D01*
X170361515Y-119156150D01*
X170462530Y-118987791D01*
X170496202Y-118886776D01*
X170496202Y-118752089D01*
X170428858Y-118617402D01*
X170361515Y-118550058D01*
X170226828Y-118482715D01*
X170159484Y-118482715D01*
X169587064Y-117775608D02*
X169923782Y-118112326D01*
X169620737Y-118482715D01*
X169620737Y-118415372D01*
X169587065Y-118314356D01*
X169418706Y-118145997D01*
X169317691Y-118112325D01*
X169250347Y-118112325D01*
X169149331Y-118145998D01*
X168980973Y-118314356D01*
X168947301Y-118415372D01*
X168947301Y-118482715D01*
X168980973Y-118583730D01*
X169149332Y-118752089D01*
X169250347Y-118785761D01*
X169317691Y-118785761D01*
X147642857Y-126052381D02*
X147976191Y-125576190D01*
X148214286Y-126052381D02*
X148214286Y-125052381D01*
X147833333Y-125052381D01*
X147738095Y-125100000D01*
X147690476Y-125147619D01*
X147642857Y-125242857D01*
X147642857Y-125385714D01*
X147690476Y-125480952D01*
X147738095Y-125528571D01*
X147833333Y-125576190D01*
X148214286Y-125576190D01*
X146690476Y-126052381D02*
X147261905Y-126052381D01*
X146976191Y-126052381D02*
X146976191Y-125052381D01*
X147071429Y-125195238D01*
X147166667Y-125290476D01*
X147261905Y-125338095D01*
X145738095Y-126052381D02*
X146309524Y-126052381D01*
X146023810Y-126052381D02*
X146023810Y-125052381D01*
X146119048Y-125195238D01*
X146214286Y-125290476D01*
X146309524Y-125338095D01*
M02*
