G04 #@! TF.FileFunction,Copper,L1,Top,Signal*
%FSLAX46Y46*%
G04 Gerber Fmt 4.6, Leading zero omitted, Abs format (unit mm)*
G04 Created by KiCad (PCBNEW 4.0.1-stable) date Friday, March 04, 2016 'AMt' 01:01:00 AM*
%MOMM*%
G01*
G04 APERTURE LIST*
%ADD10C,0.100000*%
%ADD11C,0.010000*%
%ADD12C,1.000000*%
%ADD13R,0.600000X2.000000*%
%ADD14R,0.700000X4.200000*%
%ADD15R,0.240000X0.900000*%
%ADD16R,0.900000X0.240000*%
%ADD17R,0.900000X0.290000*%
%ADD18R,0.290000X0.900000*%
%ADD19C,0.685800*%
%ADD20C,0.685801*%
%ADD21C,0.254000*%
%ADD22C,0.152400*%
G04 APERTURE END LIST*
D10*
D11*
G36*
X133209423Y-95305069D02*
X133241094Y-95305572D01*
X133268725Y-95306621D01*
X133293824Y-95308340D01*
X133317893Y-95310851D01*
X133342439Y-95314276D01*
X133368967Y-95318740D01*
X133390931Y-95322815D01*
X133449786Y-95335578D01*
X133510883Y-95351645D01*
X133571336Y-95370182D01*
X133628260Y-95390354D01*
X133639639Y-95394777D01*
X133682817Y-95411970D01*
X133725192Y-95429108D01*
X133767150Y-95446370D01*
X133809080Y-95463937D01*
X133851369Y-95481989D01*
X133894404Y-95500707D01*
X133938573Y-95520271D01*
X133984265Y-95540862D01*
X134031866Y-95562659D01*
X134081764Y-95585844D01*
X134134347Y-95610597D01*
X134190003Y-95637099D01*
X134249118Y-95665528D01*
X134312082Y-95696067D01*
X134379280Y-95728896D01*
X134451102Y-95764194D01*
X134527935Y-95802143D01*
X134610166Y-95842923D01*
X134698183Y-95886714D01*
X134720903Y-95898037D01*
X134799183Y-95936981D01*
X134871702Y-95972880D01*
X134938949Y-96005961D01*
X135001415Y-96036448D01*
X135059589Y-96064567D01*
X135113962Y-96090545D01*
X135165024Y-96114606D01*
X135213265Y-96136978D01*
X135259175Y-96157885D01*
X135303244Y-96177553D01*
X135345962Y-96196208D01*
X135387819Y-96214076D01*
X135429306Y-96231382D01*
X135470912Y-96248353D01*
X135513128Y-96265213D01*
X135546403Y-96278281D01*
X135569926Y-96287518D01*
X135591319Y-96296037D01*
X135609688Y-96303473D01*
X135624143Y-96309460D01*
X135633791Y-96313635D01*
X135637732Y-96315624D01*
X135637199Y-96319719D01*
X135631987Y-96327737D01*
X135622739Y-96338968D01*
X135610100Y-96352704D01*
X135594712Y-96368236D01*
X135577219Y-96384855D01*
X135564178Y-96396657D01*
X135496199Y-96452758D01*
X135421764Y-96506253D01*
X135340994Y-96557086D01*
X135254011Y-96605200D01*
X135160938Y-96650538D01*
X135061897Y-96693043D01*
X134957009Y-96732658D01*
X134846398Y-96769327D01*
X134730185Y-96802992D01*
X134643292Y-96825296D01*
X134542697Y-96848538D01*
X134447709Y-96867867D01*
X134358081Y-96883303D01*
X134273561Y-96894868D01*
X134193901Y-96902580D01*
X134118851Y-96906462D01*
X134048163Y-96906535D01*
X133981587Y-96902818D01*
X133918874Y-96895332D01*
X133881082Y-96888660D01*
X133820450Y-96873748D01*
X133765094Y-96854367D01*
X133715086Y-96830590D01*
X133670499Y-96802491D01*
X133631404Y-96770142D01*
X133597873Y-96733617D01*
X133569979Y-96692988D01*
X133547795Y-96648329D01*
X133531392Y-96599713D01*
X133520842Y-96547214D01*
X133517903Y-96520940D01*
X133517085Y-96509833D01*
X133516149Y-96501698D01*
X133514111Y-96495994D01*
X133509991Y-96492178D01*
X133502806Y-96489710D01*
X133491575Y-96488046D01*
X133475315Y-96486646D01*
X133453045Y-96484967D01*
X133452667Y-96484937D01*
X133425115Y-96482710D01*
X133403944Y-96480816D01*
X133388491Y-96479166D01*
X133378094Y-96477673D01*
X133372090Y-96476249D01*
X133369817Y-96474807D01*
X133369918Y-96473974D01*
X133367973Y-96472665D01*
X133361139Y-96472440D01*
X133351468Y-96473114D01*
X133341010Y-96474497D01*
X133331817Y-96476403D01*
X133327431Y-96477859D01*
X133321923Y-96479376D01*
X133310616Y-96481836D01*
X133294669Y-96485008D01*
X133275241Y-96488665D01*
X133253489Y-96492578D01*
X133248056Y-96493529D01*
X133166570Y-96507036D01*
X133089154Y-96518409D01*
X133013266Y-96527987D01*
X132936367Y-96536109D01*
X132912917Y-96538294D01*
X132890487Y-96539888D01*
X132863281Y-96541121D01*
X132832652Y-96541993D01*
X132799951Y-96542504D01*
X132766529Y-96542652D01*
X132733738Y-96542438D01*
X132702930Y-96541861D01*
X132675455Y-96540920D01*
X132652666Y-96539615D01*
X132639514Y-96538402D01*
X132566686Y-96528747D01*
X132495829Y-96516860D01*
X132425068Y-96502349D01*
X132352527Y-96484822D01*
X132276331Y-96463890D01*
X132260857Y-96459368D01*
X132238243Y-96452575D01*
X132221577Y-96447222D01*
X132209982Y-96442959D01*
X132202578Y-96439438D01*
X132198490Y-96436309D01*
X132197057Y-96433968D01*
X132196091Y-96428855D01*
X132194509Y-96417561D01*
X132192410Y-96400925D01*
X132189895Y-96379783D01*
X132187063Y-96354975D01*
X132184013Y-96327338D01*
X132180918Y-96298392D01*
X132177321Y-96264399D01*
X132174435Y-96236757D01*
X132172312Y-96214791D01*
X132171001Y-96197830D01*
X132170553Y-96185198D01*
X132171018Y-96176223D01*
X132172447Y-96170230D01*
X132174890Y-96166547D01*
X132178397Y-96164499D01*
X132183018Y-96163413D01*
X132188805Y-96162615D01*
X132191091Y-96162283D01*
X132202337Y-96160254D01*
X132219389Y-96156797D01*
X132241193Y-96152151D01*
X132266700Y-96146555D01*
X132294858Y-96140249D01*
X132324615Y-96133471D01*
X132354921Y-96126461D01*
X132384725Y-96119457D01*
X132412975Y-96112700D01*
X132438620Y-96106427D01*
X132457833Y-96101593D01*
X132560462Y-96074234D01*
X132656453Y-96046397D01*
X132746213Y-96017945D01*
X132830153Y-95988742D01*
X132908680Y-95958650D01*
X132982203Y-95927534D01*
X132994056Y-95922213D01*
X133064730Y-95887760D01*
X133136700Y-95848022D01*
X133208246Y-95804092D01*
X133277648Y-95757066D01*
X133343190Y-95708037D01*
X133387403Y-95671786D01*
X133405065Y-95656423D01*
X133423398Y-95640012D01*
X133441684Y-95623244D01*
X133459206Y-95606810D01*
X133475249Y-95591401D01*
X133489095Y-95577709D01*
X133500027Y-95566424D01*
X133507329Y-95558238D01*
X133510283Y-95553841D01*
X133510219Y-95553368D01*
X133504114Y-95550119D01*
X133492137Y-95545797D01*
X133475347Y-95540663D01*
X133454801Y-95534980D01*
X133431556Y-95529011D01*
X133406670Y-95523019D01*
X133381199Y-95517265D01*
X133356201Y-95512013D01*
X133332732Y-95507526D01*
X133311852Y-95504065D01*
X133311556Y-95504021D01*
X133256513Y-95497477D01*
X133202179Y-95494423D01*
X133147039Y-95494893D01*
X133089581Y-95498923D01*
X133028289Y-95506548D01*
X132998461Y-95511261D01*
X132905204Y-95529850D01*
X132815771Y-95553707D01*
X132730377Y-95582725D01*
X132649234Y-95616797D01*
X132572557Y-95655818D01*
X132500558Y-95699681D01*
X132433451Y-95748280D01*
X132371449Y-95801509D01*
X132327949Y-95844915D01*
X132285574Y-95893556D01*
X132247536Y-95944333D01*
X132214493Y-95996230D01*
X132187105Y-96048230D01*
X132169656Y-96089355D01*
X132164680Y-96101769D01*
X132160056Y-96111937D01*
X132156789Y-96117652D01*
X132153532Y-96120958D01*
X132145631Y-96128670D01*
X132133561Y-96140334D01*
X132117793Y-96155496D01*
X132098801Y-96173704D01*
X132077057Y-96194504D01*
X132053034Y-96217442D01*
X132027205Y-96242065D01*
X132008042Y-96260309D01*
X131981341Y-96285737D01*
X131956208Y-96309712D01*
X131933104Y-96331794D01*
X131912486Y-96351540D01*
X131894813Y-96368513D01*
X131880545Y-96382270D01*
X131870139Y-96392371D01*
X131864055Y-96398376D01*
X131862607Y-96399922D01*
X131865572Y-96401699D01*
X131874384Y-96406052D01*
X131888436Y-96412701D01*
X131907123Y-96421368D01*
X131929836Y-96431773D01*
X131955972Y-96443637D01*
X131984923Y-96456683D01*
X132016083Y-96470630D01*
X132023468Y-96473923D01*
X132185126Y-96545942D01*
X132201981Y-96606214D01*
X132210094Y-96634199D01*
X132219941Y-96666534D01*
X132230916Y-96701347D01*
X132242411Y-96736762D01*
X132253817Y-96770907D01*
X132264527Y-96801907D01*
X132273511Y-96826757D01*
X132278959Y-96840443D01*
X132283479Y-96848917D01*
X132288136Y-96853733D01*
X132293830Y-96856392D01*
X132301132Y-96857558D01*
X132314453Y-96858496D01*
X132332760Y-96859209D01*
X132355020Y-96859697D01*
X132380201Y-96859965D01*
X132407269Y-96860013D01*
X132435192Y-96859845D01*
X132462937Y-96859461D01*
X132489472Y-96858866D01*
X132513763Y-96858060D01*
X132534777Y-96857046D01*
X132551319Y-96855841D01*
X132714261Y-96838212D01*
X132814139Y-96824838D01*
X132856859Y-96818400D01*
X132893678Y-96812100D01*
X132925734Y-96805624D01*
X132954167Y-96798661D01*
X132980116Y-96790899D01*
X133004721Y-96782025D01*
X133029122Y-96771727D01*
X133054457Y-96759694D01*
X133057556Y-96758147D01*
X133113115Y-96726813D01*
X133167664Y-96689211D01*
X133220233Y-96646128D01*
X133269852Y-96598353D01*
X133310314Y-96553042D01*
X133328347Y-96531319D01*
X133330748Y-96556569D01*
X133337775Y-96603991D01*
X133349681Y-96653168D01*
X133365802Y-96702224D01*
X133385477Y-96749282D01*
X133408042Y-96792463D01*
X133421719Y-96814289D01*
X133459340Y-96864006D01*
X133502141Y-96909003D01*
X133550037Y-96949251D01*
X133602937Y-96984723D01*
X133660757Y-97015389D01*
X133723406Y-97041223D01*
X133790799Y-97062197D01*
X133862848Y-97078282D01*
X133939465Y-97089451D01*
X134020562Y-97095676D01*
X134106053Y-97096929D01*
X134195848Y-97093182D01*
X134274639Y-97086139D01*
X134347782Y-97076822D01*
X134425875Y-97064509D01*
X134507621Y-97049481D01*
X134591724Y-97032024D01*
X134676887Y-97012418D01*
X134761813Y-96990949D01*
X134845205Y-96967899D01*
X134921986Y-96944745D01*
X135019460Y-96912112D01*
X135113786Y-96876670D01*
X135204613Y-96838629D01*
X135291592Y-96798203D01*
X135374372Y-96755600D01*
X135452604Y-96711034D01*
X135525937Y-96664714D01*
X135594021Y-96616853D01*
X135656506Y-96567661D01*
X135713041Y-96517350D01*
X135763278Y-96466131D01*
X135806865Y-96414215D01*
X135811516Y-96408103D01*
X135821132Y-96395676D01*
X135827892Y-96388104D01*
X135832929Y-96384422D01*
X135837377Y-96383664D01*
X135839726Y-96384079D01*
X135859163Y-96388388D01*
X135884240Y-96393070D01*
X135913568Y-96397922D01*
X135945757Y-96402737D01*
X135979415Y-96407313D01*
X136013152Y-96411443D01*
X136045578Y-96414923D01*
X136056167Y-96415932D01*
X136087905Y-96418462D01*
X136119888Y-96420184D01*
X136152791Y-96421067D01*
X136187290Y-96421080D01*
X136224060Y-96420194D01*
X136263775Y-96418377D01*
X136307113Y-96415599D01*
X136354746Y-96411829D01*
X136407352Y-96407037D01*
X136465605Y-96401192D01*
X136527125Y-96394600D01*
X136616165Y-96384237D01*
X136711639Y-96372018D01*
X136813193Y-96358007D01*
X136920469Y-96342269D01*
X137033115Y-96324868D01*
X137150774Y-96305867D01*
X137273091Y-96285332D01*
X137399712Y-96263326D01*
X137530280Y-96239914D01*
X137664441Y-96215160D01*
X137801840Y-96189128D01*
X137942121Y-96161882D01*
X138084930Y-96133486D01*
X138229911Y-96104006D01*
X138376709Y-96073505D01*
X138524969Y-96042046D01*
X138674335Y-96009696D01*
X138761972Y-95990408D01*
X138806466Y-95980554D01*
X138844684Y-95972267D01*
X138877258Y-95965680D01*
X138904823Y-95960928D01*
X138928011Y-95958146D01*
X138947455Y-95957468D01*
X138963788Y-95959028D01*
X138977642Y-95962962D01*
X138989652Y-95969404D01*
X139000449Y-95978488D01*
X139010667Y-95990348D01*
X139020938Y-96005120D01*
X139031896Y-96022938D01*
X139044174Y-96043936D01*
X139048453Y-96051295D01*
X139085722Y-96117072D01*
X139120654Y-96182322D01*
X139152855Y-96246214D01*
X139181929Y-96307915D01*
X139207481Y-96366594D01*
X139229117Y-96421419D01*
X139242982Y-96460859D01*
X139258442Y-96513272D01*
X139269158Y-96562184D01*
X139275158Y-96607367D01*
X139276469Y-96648594D01*
X139273119Y-96685635D01*
X139265134Y-96718262D01*
X139252543Y-96746247D01*
X139235372Y-96769362D01*
X139213649Y-96787378D01*
X139203124Y-96793395D01*
X139192991Y-96798154D01*
X139181941Y-96802524D01*
X139169615Y-96806533D01*
X139155657Y-96810209D01*
X139139709Y-96813581D01*
X139121413Y-96816677D01*
X139100414Y-96819524D01*
X139076352Y-96822152D01*
X139048872Y-96824587D01*
X139017615Y-96826859D01*
X138982225Y-96828995D01*
X138942343Y-96831023D01*
X138897613Y-96832973D01*
X138847677Y-96834871D01*
X138792178Y-96836746D01*
X138730759Y-96838626D01*
X138663062Y-96840540D01*
X138588731Y-96842515D01*
X138575000Y-96842869D01*
X138452923Y-96846207D01*
X138337344Y-96849786D01*
X138227707Y-96853639D01*
X138123456Y-96857794D01*
X138024037Y-96862284D01*
X137928895Y-96867138D01*
X137837474Y-96872388D01*
X137749219Y-96878064D01*
X137663574Y-96884196D01*
X137579985Y-96890816D01*
X137497897Y-96897954D01*
X137416754Y-96905640D01*
X137389667Y-96908345D01*
X137260967Y-96922177D01*
X137136502Y-96937273D01*
X137015523Y-96953805D01*
X136897281Y-96971941D01*
X136781028Y-96991851D01*
X136666016Y-97013705D01*
X136551496Y-97037671D01*
X136436721Y-97063920D01*
X136320941Y-97092620D01*
X136203408Y-97123942D01*
X136083373Y-97158054D01*
X135960090Y-97195127D01*
X135832808Y-97235329D01*
X135700780Y-97278830D01*
X135595792Y-97314551D01*
X135545932Y-97332059D01*
X135498400Y-97349485D01*
X135452527Y-97367150D01*
X135407643Y-97385374D01*
X135363080Y-97404476D01*
X135318167Y-97424779D01*
X135272235Y-97446601D01*
X135224615Y-97470263D01*
X135174637Y-97496085D01*
X135121633Y-97524388D01*
X135064932Y-97555492D01*
X135003865Y-97589717D01*
X134937763Y-97627384D01*
X134916694Y-97639493D01*
X134858073Y-97673223D01*
X134805102Y-97703651D01*
X134757334Y-97731025D01*
X134714321Y-97755591D01*
X134675616Y-97777596D01*
X134640771Y-97797287D01*
X134609338Y-97814910D01*
X134580870Y-97830714D01*
X134554919Y-97844944D01*
X134531037Y-97857848D01*
X134508777Y-97869672D01*
X134487692Y-97880664D01*
X134467332Y-97891070D01*
X134447252Y-97901138D01*
X134427003Y-97911113D01*
X134406138Y-97921244D01*
X134404306Y-97922128D01*
X134336867Y-97953565D01*
X134273250Y-97980819D01*
X134212082Y-98004282D01*
X134151992Y-98024345D01*
X134091609Y-98041402D01*
X134029560Y-98055844D01*
X133964474Y-98068064D01*
X133894978Y-98078454D01*
X133830139Y-98086279D01*
X133789152Y-98090039D01*
X133743206Y-98092999D01*
X133694358Y-98095105D01*
X133644663Y-98096301D01*
X133596179Y-98096532D01*
X133550962Y-98095744D01*
X133521458Y-98094508D01*
X133441912Y-98087865D01*
X133361456Y-98076743D01*
X133281278Y-98061443D01*
X133202567Y-98042263D01*
X133126511Y-98019501D01*
X133054298Y-97993456D01*
X132987116Y-97964427D01*
X132969008Y-97955625D01*
X132888028Y-97911372D01*
X132808806Y-97860408D01*
X132731482Y-97802893D01*
X132656195Y-97738983D01*
X132583086Y-97668836D01*
X132512295Y-97592610D01*
X132443960Y-97510463D01*
X132378223Y-97422552D01*
X132315222Y-97329036D01*
X132255097Y-97230070D01*
X132197989Y-97125814D01*
X132152897Y-97035201D01*
X132134559Y-96995287D01*
X132116937Y-96953922D01*
X132099526Y-96909814D01*
X132081819Y-96861672D01*
X132063310Y-96808204D01*
X132058965Y-96795250D01*
X132051296Y-96771804D01*
X132043193Y-96746214D01*
X132035008Y-96719673D01*
X132027093Y-96693373D01*
X132019801Y-96668508D01*
X132013485Y-96646269D01*
X132008496Y-96627848D01*
X132005187Y-96614440D01*
X132004378Y-96610558D01*
X132002209Y-96598996D01*
X131797595Y-96516428D01*
X131761615Y-96501883D01*
X131727607Y-96488085D01*
X131696132Y-96475266D01*
X131667748Y-96463654D01*
X131643014Y-96453480D01*
X131622490Y-96444974D01*
X131606734Y-96438367D01*
X131596307Y-96433889D01*
X131591768Y-96431769D01*
X131591619Y-96431656D01*
X131593960Y-96429006D01*
X131601162Y-96422050D01*
X131612812Y-96411163D01*
X131628495Y-96396724D01*
X131647797Y-96379108D01*
X131670304Y-96358694D01*
X131695601Y-96335859D01*
X131723274Y-96310979D01*
X131752909Y-96284432D01*
X131778286Y-96261769D01*
X131814302Y-96229640D01*
X131845416Y-96201846D01*
X131871998Y-96178033D01*
X131894415Y-96157848D01*
X131913038Y-96140935D01*
X131928235Y-96126942D01*
X131940376Y-96115513D01*
X131949830Y-96106294D01*
X131956965Y-96098931D01*
X131962152Y-96093071D01*
X131965759Y-96088358D01*
X131968156Y-96084439D01*
X131969712Y-96080959D01*
X131970795Y-96077565D01*
X131970979Y-96076897D01*
X131977388Y-96056348D01*
X131986490Y-96031398D01*
X131997560Y-96003816D01*
X132009874Y-95975375D01*
X132022705Y-95947843D01*
X132029300Y-95934554D01*
X132061749Y-95876345D01*
X132098977Y-95820220D01*
X132141666Y-95765249D01*
X132190499Y-95710502D01*
X132203642Y-95696849D01*
X132259151Y-95643310D01*
X132316431Y-95594827D01*
X132376685Y-95550531D01*
X132441117Y-95509557D01*
X132510931Y-95471037D01*
X132531917Y-95460420D01*
X132599971Y-95428548D01*
X132667985Y-95400713D01*
X132737187Y-95376541D01*
X132808807Y-95355659D01*
X132884072Y-95337692D01*
X132964212Y-95322268D01*
X133010680Y-95314752D01*
X133030516Y-95311832D01*
X133047844Y-95309566D01*
X133064061Y-95307870D01*
X133080562Y-95306659D01*
X133098742Y-95305848D01*
X133119998Y-95305355D01*
X133145724Y-95305094D01*
X133172208Y-95304991D01*
X133209423Y-95305069D01*
X133209423Y-95305069D01*
G37*
X133209423Y-95305069D02*
X133241094Y-95305572D01*
X133268725Y-95306621D01*
X133293824Y-95308340D01*
X133317893Y-95310851D01*
X133342439Y-95314276D01*
X133368967Y-95318740D01*
X133390931Y-95322815D01*
X133449786Y-95335578D01*
X133510883Y-95351645D01*
X133571336Y-95370182D01*
X133628260Y-95390354D01*
X133639639Y-95394777D01*
X133682817Y-95411970D01*
X133725192Y-95429108D01*
X133767150Y-95446370D01*
X133809080Y-95463937D01*
X133851369Y-95481989D01*
X133894404Y-95500707D01*
X133938573Y-95520271D01*
X133984265Y-95540862D01*
X134031866Y-95562659D01*
X134081764Y-95585844D01*
X134134347Y-95610597D01*
X134190003Y-95637099D01*
X134249118Y-95665528D01*
X134312082Y-95696067D01*
X134379280Y-95728896D01*
X134451102Y-95764194D01*
X134527935Y-95802143D01*
X134610166Y-95842923D01*
X134698183Y-95886714D01*
X134720903Y-95898037D01*
X134799183Y-95936981D01*
X134871702Y-95972880D01*
X134938949Y-96005961D01*
X135001415Y-96036448D01*
X135059589Y-96064567D01*
X135113962Y-96090545D01*
X135165024Y-96114606D01*
X135213265Y-96136978D01*
X135259175Y-96157885D01*
X135303244Y-96177553D01*
X135345962Y-96196208D01*
X135387819Y-96214076D01*
X135429306Y-96231382D01*
X135470912Y-96248353D01*
X135513128Y-96265213D01*
X135546403Y-96278281D01*
X135569926Y-96287518D01*
X135591319Y-96296037D01*
X135609688Y-96303473D01*
X135624143Y-96309460D01*
X135633791Y-96313635D01*
X135637732Y-96315624D01*
X135637199Y-96319719D01*
X135631987Y-96327737D01*
X135622739Y-96338968D01*
X135610100Y-96352704D01*
X135594712Y-96368236D01*
X135577219Y-96384855D01*
X135564178Y-96396657D01*
X135496199Y-96452758D01*
X135421764Y-96506253D01*
X135340994Y-96557086D01*
X135254011Y-96605200D01*
X135160938Y-96650538D01*
X135061897Y-96693043D01*
X134957009Y-96732658D01*
X134846398Y-96769327D01*
X134730185Y-96802992D01*
X134643292Y-96825296D01*
X134542697Y-96848538D01*
X134447709Y-96867867D01*
X134358081Y-96883303D01*
X134273561Y-96894868D01*
X134193901Y-96902580D01*
X134118851Y-96906462D01*
X134048163Y-96906535D01*
X133981587Y-96902818D01*
X133918874Y-96895332D01*
X133881082Y-96888660D01*
X133820450Y-96873748D01*
X133765094Y-96854367D01*
X133715086Y-96830590D01*
X133670499Y-96802491D01*
X133631404Y-96770142D01*
X133597873Y-96733617D01*
X133569979Y-96692988D01*
X133547795Y-96648329D01*
X133531392Y-96599713D01*
X133520842Y-96547214D01*
X133517903Y-96520940D01*
X133517085Y-96509833D01*
X133516149Y-96501698D01*
X133514111Y-96495994D01*
X133509991Y-96492178D01*
X133502806Y-96489710D01*
X133491575Y-96488046D01*
X133475315Y-96486646D01*
X133453045Y-96484967D01*
X133452667Y-96484937D01*
X133425115Y-96482710D01*
X133403944Y-96480816D01*
X133388491Y-96479166D01*
X133378094Y-96477673D01*
X133372090Y-96476249D01*
X133369817Y-96474807D01*
X133369918Y-96473974D01*
X133367973Y-96472665D01*
X133361139Y-96472440D01*
X133351468Y-96473114D01*
X133341010Y-96474497D01*
X133331817Y-96476403D01*
X133327431Y-96477859D01*
X133321923Y-96479376D01*
X133310616Y-96481836D01*
X133294669Y-96485008D01*
X133275241Y-96488665D01*
X133253489Y-96492578D01*
X133248056Y-96493529D01*
X133166570Y-96507036D01*
X133089154Y-96518409D01*
X133013266Y-96527987D01*
X132936367Y-96536109D01*
X132912917Y-96538294D01*
X132890487Y-96539888D01*
X132863281Y-96541121D01*
X132832652Y-96541993D01*
X132799951Y-96542504D01*
X132766529Y-96542652D01*
X132733738Y-96542438D01*
X132702930Y-96541861D01*
X132675455Y-96540920D01*
X132652666Y-96539615D01*
X132639514Y-96538402D01*
X132566686Y-96528747D01*
X132495829Y-96516860D01*
X132425068Y-96502349D01*
X132352527Y-96484822D01*
X132276331Y-96463890D01*
X132260857Y-96459368D01*
X132238243Y-96452575D01*
X132221577Y-96447222D01*
X132209982Y-96442959D01*
X132202578Y-96439438D01*
X132198490Y-96436309D01*
X132197057Y-96433968D01*
X132196091Y-96428855D01*
X132194509Y-96417561D01*
X132192410Y-96400925D01*
X132189895Y-96379783D01*
X132187063Y-96354975D01*
X132184013Y-96327338D01*
X132180918Y-96298392D01*
X132177321Y-96264399D01*
X132174435Y-96236757D01*
X132172312Y-96214791D01*
X132171001Y-96197830D01*
X132170553Y-96185198D01*
X132171018Y-96176223D01*
X132172447Y-96170230D01*
X132174890Y-96166547D01*
X132178397Y-96164499D01*
X132183018Y-96163413D01*
X132188805Y-96162615D01*
X132191091Y-96162283D01*
X132202337Y-96160254D01*
X132219389Y-96156797D01*
X132241193Y-96152151D01*
X132266700Y-96146555D01*
X132294858Y-96140249D01*
X132324615Y-96133471D01*
X132354921Y-96126461D01*
X132384725Y-96119457D01*
X132412975Y-96112700D01*
X132438620Y-96106427D01*
X132457833Y-96101593D01*
X132560462Y-96074234D01*
X132656453Y-96046397D01*
X132746213Y-96017945D01*
X132830153Y-95988742D01*
X132908680Y-95958650D01*
X132982203Y-95927534D01*
X132994056Y-95922213D01*
X133064730Y-95887760D01*
X133136700Y-95848022D01*
X133208246Y-95804092D01*
X133277648Y-95757066D01*
X133343190Y-95708037D01*
X133387403Y-95671786D01*
X133405065Y-95656423D01*
X133423398Y-95640012D01*
X133441684Y-95623244D01*
X133459206Y-95606810D01*
X133475249Y-95591401D01*
X133489095Y-95577709D01*
X133500027Y-95566424D01*
X133507329Y-95558238D01*
X133510283Y-95553841D01*
X133510219Y-95553368D01*
X133504114Y-95550119D01*
X133492137Y-95545797D01*
X133475347Y-95540663D01*
X133454801Y-95534980D01*
X133431556Y-95529011D01*
X133406670Y-95523019D01*
X133381199Y-95517265D01*
X133356201Y-95512013D01*
X133332732Y-95507526D01*
X133311852Y-95504065D01*
X133311556Y-95504021D01*
X133256513Y-95497477D01*
X133202179Y-95494423D01*
X133147039Y-95494893D01*
X133089581Y-95498923D01*
X133028289Y-95506548D01*
X132998461Y-95511261D01*
X132905204Y-95529850D01*
X132815771Y-95553707D01*
X132730377Y-95582725D01*
X132649234Y-95616797D01*
X132572557Y-95655818D01*
X132500558Y-95699681D01*
X132433451Y-95748280D01*
X132371449Y-95801509D01*
X132327949Y-95844915D01*
X132285574Y-95893556D01*
X132247536Y-95944333D01*
X132214493Y-95996230D01*
X132187105Y-96048230D01*
X132169656Y-96089355D01*
X132164680Y-96101769D01*
X132160056Y-96111937D01*
X132156789Y-96117652D01*
X132153532Y-96120958D01*
X132145631Y-96128670D01*
X132133561Y-96140334D01*
X132117793Y-96155496D01*
X132098801Y-96173704D01*
X132077057Y-96194504D01*
X132053034Y-96217442D01*
X132027205Y-96242065D01*
X132008042Y-96260309D01*
X131981341Y-96285737D01*
X131956208Y-96309712D01*
X131933104Y-96331794D01*
X131912486Y-96351540D01*
X131894813Y-96368513D01*
X131880545Y-96382270D01*
X131870139Y-96392371D01*
X131864055Y-96398376D01*
X131862607Y-96399922D01*
X131865572Y-96401699D01*
X131874384Y-96406052D01*
X131888436Y-96412701D01*
X131907123Y-96421368D01*
X131929836Y-96431773D01*
X131955972Y-96443637D01*
X131984923Y-96456683D01*
X132016083Y-96470630D01*
X132023468Y-96473923D01*
X132185126Y-96545942D01*
X132201981Y-96606214D01*
X132210094Y-96634199D01*
X132219941Y-96666534D01*
X132230916Y-96701347D01*
X132242411Y-96736762D01*
X132253817Y-96770907D01*
X132264527Y-96801907D01*
X132273511Y-96826757D01*
X132278959Y-96840443D01*
X132283479Y-96848917D01*
X132288136Y-96853733D01*
X132293830Y-96856392D01*
X132301132Y-96857558D01*
X132314453Y-96858496D01*
X132332760Y-96859209D01*
X132355020Y-96859697D01*
X132380201Y-96859965D01*
X132407269Y-96860013D01*
X132435192Y-96859845D01*
X132462937Y-96859461D01*
X132489472Y-96858866D01*
X132513763Y-96858060D01*
X132534777Y-96857046D01*
X132551319Y-96855841D01*
X132714261Y-96838212D01*
X132814139Y-96824838D01*
X132856859Y-96818400D01*
X132893678Y-96812100D01*
X132925734Y-96805624D01*
X132954167Y-96798661D01*
X132980116Y-96790899D01*
X133004721Y-96782025D01*
X133029122Y-96771727D01*
X133054457Y-96759694D01*
X133057556Y-96758147D01*
X133113115Y-96726813D01*
X133167664Y-96689211D01*
X133220233Y-96646128D01*
X133269852Y-96598353D01*
X133310314Y-96553042D01*
X133328347Y-96531319D01*
X133330748Y-96556569D01*
X133337775Y-96603991D01*
X133349681Y-96653168D01*
X133365802Y-96702224D01*
X133385477Y-96749282D01*
X133408042Y-96792463D01*
X133421719Y-96814289D01*
X133459340Y-96864006D01*
X133502141Y-96909003D01*
X133550037Y-96949251D01*
X133602937Y-96984723D01*
X133660757Y-97015389D01*
X133723406Y-97041223D01*
X133790799Y-97062197D01*
X133862848Y-97078282D01*
X133939465Y-97089451D01*
X134020562Y-97095676D01*
X134106053Y-97096929D01*
X134195848Y-97093182D01*
X134274639Y-97086139D01*
X134347782Y-97076822D01*
X134425875Y-97064509D01*
X134507621Y-97049481D01*
X134591724Y-97032024D01*
X134676887Y-97012418D01*
X134761813Y-96990949D01*
X134845205Y-96967899D01*
X134921986Y-96944745D01*
X135019460Y-96912112D01*
X135113786Y-96876670D01*
X135204613Y-96838629D01*
X135291592Y-96798203D01*
X135374372Y-96755600D01*
X135452604Y-96711034D01*
X135525937Y-96664714D01*
X135594021Y-96616853D01*
X135656506Y-96567661D01*
X135713041Y-96517350D01*
X135763278Y-96466131D01*
X135806865Y-96414215D01*
X135811516Y-96408103D01*
X135821132Y-96395676D01*
X135827892Y-96388104D01*
X135832929Y-96384422D01*
X135837377Y-96383664D01*
X135839726Y-96384079D01*
X135859163Y-96388388D01*
X135884240Y-96393070D01*
X135913568Y-96397922D01*
X135945757Y-96402737D01*
X135979415Y-96407313D01*
X136013152Y-96411443D01*
X136045578Y-96414923D01*
X136056167Y-96415932D01*
X136087905Y-96418462D01*
X136119888Y-96420184D01*
X136152791Y-96421067D01*
X136187290Y-96421080D01*
X136224060Y-96420194D01*
X136263775Y-96418377D01*
X136307113Y-96415599D01*
X136354746Y-96411829D01*
X136407352Y-96407037D01*
X136465605Y-96401192D01*
X136527125Y-96394600D01*
X136616165Y-96384237D01*
X136711639Y-96372018D01*
X136813193Y-96358007D01*
X136920469Y-96342269D01*
X137033115Y-96324868D01*
X137150774Y-96305867D01*
X137273091Y-96285332D01*
X137399712Y-96263326D01*
X137530280Y-96239914D01*
X137664441Y-96215160D01*
X137801840Y-96189128D01*
X137942121Y-96161882D01*
X138084930Y-96133486D01*
X138229911Y-96104006D01*
X138376709Y-96073505D01*
X138524969Y-96042046D01*
X138674335Y-96009696D01*
X138761972Y-95990408D01*
X138806466Y-95980554D01*
X138844684Y-95972267D01*
X138877258Y-95965680D01*
X138904823Y-95960928D01*
X138928011Y-95958146D01*
X138947455Y-95957468D01*
X138963788Y-95959028D01*
X138977642Y-95962962D01*
X138989652Y-95969404D01*
X139000449Y-95978488D01*
X139010667Y-95990348D01*
X139020938Y-96005120D01*
X139031896Y-96022938D01*
X139044174Y-96043936D01*
X139048453Y-96051295D01*
X139085722Y-96117072D01*
X139120654Y-96182322D01*
X139152855Y-96246214D01*
X139181929Y-96307915D01*
X139207481Y-96366594D01*
X139229117Y-96421419D01*
X139242982Y-96460859D01*
X139258442Y-96513272D01*
X139269158Y-96562184D01*
X139275158Y-96607367D01*
X139276469Y-96648594D01*
X139273119Y-96685635D01*
X139265134Y-96718262D01*
X139252543Y-96746247D01*
X139235372Y-96769362D01*
X139213649Y-96787378D01*
X139203124Y-96793395D01*
X139192991Y-96798154D01*
X139181941Y-96802524D01*
X139169615Y-96806533D01*
X139155657Y-96810209D01*
X139139709Y-96813581D01*
X139121413Y-96816677D01*
X139100414Y-96819524D01*
X139076352Y-96822152D01*
X139048872Y-96824587D01*
X139017615Y-96826859D01*
X138982225Y-96828995D01*
X138942343Y-96831023D01*
X138897613Y-96832973D01*
X138847677Y-96834871D01*
X138792178Y-96836746D01*
X138730759Y-96838626D01*
X138663062Y-96840540D01*
X138588731Y-96842515D01*
X138575000Y-96842869D01*
X138452923Y-96846207D01*
X138337344Y-96849786D01*
X138227707Y-96853639D01*
X138123456Y-96857794D01*
X138024037Y-96862284D01*
X137928895Y-96867138D01*
X137837474Y-96872388D01*
X137749219Y-96878064D01*
X137663574Y-96884196D01*
X137579985Y-96890816D01*
X137497897Y-96897954D01*
X137416754Y-96905640D01*
X137389667Y-96908345D01*
X137260967Y-96922177D01*
X137136502Y-96937273D01*
X137015523Y-96953805D01*
X136897281Y-96971941D01*
X136781028Y-96991851D01*
X136666016Y-97013705D01*
X136551496Y-97037671D01*
X136436721Y-97063920D01*
X136320941Y-97092620D01*
X136203408Y-97123942D01*
X136083373Y-97158054D01*
X135960090Y-97195127D01*
X135832808Y-97235329D01*
X135700780Y-97278830D01*
X135595792Y-97314551D01*
X135545932Y-97332059D01*
X135498400Y-97349485D01*
X135452527Y-97367150D01*
X135407643Y-97385374D01*
X135363080Y-97404476D01*
X135318167Y-97424779D01*
X135272235Y-97446601D01*
X135224615Y-97470263D01*
X135174637Y-97496085D01*
X135121633Y-97524388D01*
X135064932Y-97555492D01*
X135003865Y-97589717D01*
X134937763Y-97627384D01*
X134916694Y-97639493D01*
X134858073Y-97673223D01*
X134805102Y-97703651D01*
X134757334Y-97731025D01*
X134714321Y-97755591D01*
X134675616Y-97777596D01*
X134640771Y-97797287D01*
X134609338Y-97814910D01*
X134580870Y-97830714D01*
X134554919Y-97844944D01*
X134531037Y-97857848D01*
X134508777Y-97869672D01*
X134487692Y-97880664D01*
X134467332Y-97891070D01*
X134447252Y-97901138D01*
X134427003Y-97911113D01*
X134406138Y-97921244D01*
X134404306Y-97922128D01*
X134336867Y-97953565D01*
X134273250Y-97980819D01*
X134212082Y-98004282D01*
X134151992Y-98024345D01*
X134091609Y-98041402D01*
X134029560Y-98055844D01*
X133964474Y-98068064D01*
X133894978Y-98078454D01*
X133830139Y-98086279D01*
X133789152Y-98090039D01*
X133743206Y-98092999D01*
X133694358Y-98095105D01*
X133644663Y-98096301D01*
X133596179Y-98096532D01*
X133550962Y-98095744D01*
X133521458Y-98094508D01*
X133441912Y-98087865D01*
X133361456Y-98076743D01*
X133281278Y-98061443D01*
X133202567Y-98042263D01*
X133126511Y-98019501D01*
X133054298Y-97993456D01*
X132987116Y-97964427D01*
X132969008Y-97955625D01*
X132888028Y-97911372D01*
X132808806Y-97860408D01*
X132731482Y-97802893D01*
X132656195Y-97738983D01*
X132583086Y-97668836D01*
X132512295Y-97592610D01*
X132443960Y-97510463D01*
X132378223Y-97422552D01*
X132315222Y-97329036D01*
X132255097Y-97230070D01*
X132197989Y-97125814D01*
X132152897Y-97035201D01*
X132134559Y-96995287D01*
X132116937Y-96953922D01*
X132099526Y-96909814D01*
X132081819Y-96861672D01*
X132063310Y-96808204D01*
X132058965Y-96795250D01*
X132051296Y-96771804D01*
X132043193Y-96746214D01*
X132035008Y-96719673D01*
X132027093Y-96693373D01*
X132019801Y-96668508D01*
X132013485Y-96646269D01*
X132008496Y-96627848D01*
X132005187Y-96614440D01*
X132004378Y-96610558D01*
X132002209Y-96598996D01*
X131797595Y-96516428D01*
X131761615Y-96501883D01*
X131727607Y-96488085D01*
X131696132Y-96475266D01*
X131667748Y-96463654D01*
X131643014Y-96453480D01*
X131622490Y-96444974D01*
X131606734Y-96438367D01*
X131596307Y-96433889D01*
X131591768Y-96431769D01*
X131591619Y-96431656D01*
X131593960Y-96429006D01*
X131601162Y-96422050D01*
X131612812Y-96411163D01*
X131628495Y-96396724D01*
X131647797Y-96379108D01*
X131670304Y-96358694D01*
X131695601Y-96335859D01*
X131723274Y-96310979D01*
X131752909Y-96284432D01*
X131778286Y-96261769D01*
X131814302Y-96229640D01*
X131845416Y-96201846D01*
X131871998Y-96178033D01*
X131894415Y-96157848D01*
X131913038Y-96140935D01*
X131928235Y-96126942D01*
X131940376Y-96115513D01*
X131949830Y-96106294D01*
X131956965Y-96098931D01*
X131962152Y-96093071D01*
X131965759Y-96088358D01*
X131968156Y-96084439D01*
X131969712Y-96080959D01*
X131970795Y-96077565D01*
X131970979Y-96076897D01*
X131977388Y-96056348D01*
X131986490Y-96031398D01*
X131997560Y-96003816D01*
X132009874Y-95975375D01*
X132022705Y-95947843D01*
X132029300Y-95934554D01*
X132061749Y-95876345D01*
X132098977Y-95820220D01*
X132141666Y-95765249D01*
X132190499Y-95710502D01*
X132203642Y-95696849D01*
X132259151Y-95643310D01*
X132316431Y-95594827D01*
X132376685Y-95550531D01*
X132441117Y-95509557D01*
X132510931Y-95471037D01*
X132531917Y-95460420D01*
X132599971Y-95428548D01*
X132667985Y-95400713D01*
X132737187Y-95376541D01*
X132808807Y-95355659D01*
X132884072Y-95337692D01*
X132964212Y-95322268D01*
X133010680Y-95314752D01*
X133030516Y-95311832D01*
X133047844Y-95309566D01*
X133064061Y-95307870D01*
X133080562Y-95306659D01*
X133098742Y-95305848D01*
X133119998Y-95305355D01*
X133145724Y-95305094D01*
X133172208Y-95304991D01*
X133209423Y-95305069D01*
G36*
X142041912Y-94789328D02*
X142079087Y-94789340D01*
X142111821Y-94789366D01*
X142140406Y-94789411D01*
X142165137Y-94789481D01*
X142186306Y-94789581D01*
X142204208Y-94789715D01*
X142219136Y-94789889D01*
X142231384Y-94790109D01*
X142241247Y-94790379D01*
X142249017Y-94790705D01*
X142254988Y-94791092D01*
X142259454Y-94791544D01*
X142262709Y-94792067D01*
X142265046Y-94792667D01*
X142266760Y-94793349D01*
X142268032Y-94794048D01*
X142274217Y-94799369D01*
X142278517Y-94805738D01*
X142278618Y-94805984D01*
X142279468Y-94809432D01*
X142281162Y-94817481D01*
X142283633Y-94829785D01*
X142286816Y-94845999D01*
X142290644Y-94865777D01*
X142295052Y-94888772D01*
X142299972Y-94914640D01*
X142305339Y-94943034D01*
X142311087Y-94973609D01*
X142317150Y-95006019D01*
X142323461Y-95039918D01*
X142326888Y-95058396D01*
X142333321Y-95093102D01*
X142339535Y-95126614D01*
X142345466Y-95158574D01*
X142351046Y-95188625D01*
X142356209Y-95216411D01*
X142360889Y-95241572D01*
X142365018Y-95263753D01*
X142368531Y-95282596D01*
X142371362Y-95297743D01*
X142373443Y-95308837D01*
X142374708Y-95315522D01*
X142375013Y-95317096D01*
X142375885Y-95321591D01*
X142376785Y-95325572D01*
X142378016Y-95329199D01*
X142379879Y-95332631D01*
X142382678Y-95336027D01*
X142386715Y-95339546D01*
X142392292Y-95343349D01*
X142399712Y-95347593D01*
X142409277Y-95352440D01*
X142421290Y-95358046D01*
X142436054Y-95364573D01*
X142453871Y-95372180D01*
X142475043Y-95381025D01*
X142499873Y-95391268D01*
X142528663Y-95403068D01*
X142561716Y-95416586D01*
X142571628Y-95420639D01*
X142606076Y-95434740D01*
X142636188Y-95447060D01*
X142662294Y-95457692D01*
X142684727Y-95466727D01*
X142703816Y-95474258D01*
X142719894Y-95480378D01*
X142733292Y-95485177D01*
X142744341Y-95488748D01*
X142753372Y-95491184D01*
X142760717Y-95492576D01*
X142766707Y-95493017D01*
X142771673Y-95492599D01*
X142775947Y-95491413D01*
X142779860Y-95489553D01*
X142783743Y-95487110D01*
X142787927Y-95484176D01*
X142791390Y-95481759D01*
X142795895Y-95478675D01*
X142804234Y-95472960D01*
X142816094Y-95464828D01*
X142831161Y-95454496D01*
X142849123Y-95442176D01*
X142869666Y-95428085D01*
X142892477Y-95412437D01*
X142917244Y-95395447D01*
X142943652Y-95377329D01*
X142971388Y-95358299D01*
X143000140Y-95338571D01*
X143011367Y-95330867D01*
X143044967Y-95307819D01*
X143074678Y-95287457D01*
X143100756Y-95269616D01*
X143123454Y-95254130D01*
X143143028Y-95240833D01*
X143159732Y-95229561D01*
X143173819Y-95220146D01*
X143185546Y-95212424D01*
X143195166Y-95206229D01*
X143202934Y-95201394D01*
X143209104Y-95197754D01*
X143213931Y-95195144D01*
X143217669Y-95193398D01*
X143220573Y-95192350D01*
X143222897Y-95191833D01*
X143224895Y-95191684D01*
X143225110Y-95191683D01*
X143236011Y-95191683D01*
X143422758Y-95378429D01*
X143452582Y-95408256D01*
X143479048Y-95434738D01*
X143502358Y-95458086D01*
X143522712Y-95478513D01*
X143540310Y-95496229D01*
X143555352Y-95511445D01*
X143568040Y-95524372D01*
X143578573Y-95535223D01*
X143587152Y-95544207D01*
X143593977Y-95551537D01*
X143599249Y-95557423D01*
X143603168Y-95562076D01*
X143605935Y-95565708D01*
X143607749Y-95568530D01*
X143608812Y-95570754D01*
X143609323Y-95572589D01*
X143609484Y-95574249D01*
X143609495Y-95575217D01*
X143608249Y-95584021D01*
X143605215Y-95592217D01*
X143604773Y-95592985D01*
X143602686Y-95596153D01*
X143597958Y-95603162D01*
X143590798Y-95613709D01*
X143581414Y-95627491D01*
X143570012Y-95644203D01*
X143556801Y-95663542D01*
X143541987Y-95685204D01*
X143525780Y-95708884D01*
X143508385Y-95734279D01*
X143490012Y-95761086D01*
X143470866Y-95788999D01*
X143468179Y-95792916D01*
X143448759Y-95821219D01*
X143429948Y-95848639D01*
X143411966Y-95874850D01*
X143395037Y-95899529D01*
X143379383Y-95922353D01*
X143365226Y-95942997D01*
X143352787Y-95961137D01*
X143342289Y-95976450D01*
X143333954Y-95988611D01*
X143328005Y-95997297D01*
X143324663Y-96002184D01*
X143324525Y-96002386D01*
X143321271Y-96007029D01*
X143318436Y-96011113D01*
X143316117Y-96014966D01*
X143314410Y-96018916D01*
X143313412Y-96023290D01*
X143313218Y-96028418D01*
X143313927Y-96034628D01*
X143315635Y-96042247D01*
X143318437Y-96051604D01*
X143322431Y-96063027D01*
X143327713Y-96076845D01*
X143334381Y-96093385D01*
X143342529Y-96112975D01*
X143352256Y-96135945D01*
X143363657Y-96162621D01*
X143376830Y-96193333D01*
X143389234Y-96222256D01*
X143401459Y-96250761D01*
X143413181Y-96278056D01*
X143424240Y-96303768D01*
X143434475Y-96327524D01*
X143443723Y-96348952D01*
X143451825Y-96367678D01*
X143458620Y-96383330D01*
X143463945Y-96395536D01*
X143467640Y-96403921D01*
X143469544Y-96408114D01*
X143469671Y-96408370D01*
X143474634Y-96415307D01*
X143481041Y-96421298D01*
X143481084Y-96421329D01*
X143482257Y-96422180D01*
X143483418Y-96422962D01*
X143484835Y-96423728D01*
X143486774Y-96424531D01*
X143489505Y-96425425D01*
X143493294Y-96426463D01*
X143498410Y-96427699D01*
X143505119Y-96429185D01*
X143513691Y-96430974D01*
X143524392Y-96433121D01*
X143537490Y-96435678D01*
X143553253Y-96438699D01*
X143571948Y-96442236D01*
X143593845Y-96446344D01*
X143619209Y-96451075D01*
X143648308Y-96456483D01*
X143681412Y-96462621D01*
X143718786Y-96469543D01*
X143760700Y-96477300D01*
X143784287Y-96481666D01*
X143814902Y-96487339D01*
X143844300Y-96492800D01*
X143872076Y-96497972D01*
X143897820Y-96502779D01*
X143921124Y-96507143D01*
X143941580Y-96510989D01*
X143958782Y-96514240D01*
X143972319Y-96516819D01*
X143981786Y-96518650D01*
X143986773Y-96519656D01*
X143987099Y-96519729D01*
X143995862Y-96522846D01*
X144003200Y-96527326D01*
X144004703Y-96528716D01*
X144010623Y-96535018D01*
X144011262Y-96798246D01*
X144011362Y-96840381D01*
X144011443Y-96877778D01*
X144011500Y-96910730D01*
X144011528Y-96939530D01*
X144011523Y-96964469D01*
X144011481Y-96985841D01*
X144011396Y-97003938D01*
X144011265Y-97019052D01*
X144011083Y-97031475D01*
X144010845Y-97041500D01*
X144010546Y-97049419D01*
X144010183Y-97055525D01*
X144009751Y-97060110D01*
X144009245Y-97063466D01*
X144008660Y-97065886D01*
X144007993Y-97067663D01*
X144007238Y-97069088D01*
X144007056Y-97069389D01*
X144000775Y-97076182D01*
X143993843Y-97080019D01*
X143989972Y-97080937D01*
X143981590Y-97082681D01*
X143969132Y-97085167D01*
X143953035Y-97088312D01*
X143933733Y-97092032D01*
X143911662Y-97096243D01*
X143887258Y-97100861D01*
X143860957Y-97105803D01*
X143833193Y-97110984D01*
X143822010Y-97113062D01*
X143776078Y-97121585D01*
X143734833Y-97129241D01*
X143698017Y-97136081D01*
X143665370Y-97142152D01*
X143636635Y-97147503D01*
X143611553Y-97152184D01*
X143589865Y-97156244D01*
X143571313Y-97159731D01*
X143555637Y-97162695D01*
X143542580Y-97165184D01*
X143531883Y-97167248D01*
X143523287Y-97168935D01*
X143516533Y-97170294D01*
X143511364Y-97171375D01*
X143507520Y-97172226D01*
X143504743Y-97172896D01*
X143502774Y-97173435D01*
X143502077Y-97173649D01*
X143494794Y-97177446D01*
X143488208Y-97183110D01*
X143487927Y-97183437D01*
X143486055Y-97186873D01*
X143482476Y-97194645D01*
X143477329Y-97206416D01*
X143470757Y-97221844D01*
X143462901Y-97240589D01*
X143453901Y-97262313D01*
X143443899Y-97286674D01*
X143433037Y-97313333D01*
X143421454Y-97341951D01*
X143409294Y-97372186D01*
X143403193Y-97387423D01*
X143389259Y-97422282D01*
X143377081Y-97452781D01*
X143366543Y-97479233D01*
X143357533Y-97501948D01*
X143349936Y-97521239D01*
X143343639Y-97537415D01*
X143338527Y-97550787D01*
X143334487Y-97561668D01*
X143331406Y-97570367D01*
X143329168Y-97577196D01*
X143327661Y-97582467D01*
X143326770Y-97586489D01*
X143326381Y-97589575D01*
X143326382Y-97592035D01*
X143326657Y-97594180D01*
X143326961Y-97595703D01*
X143327914Y-97598459D01*
X143329976Y-97602672D01*
X143333294Y-97608563D01*
X143338016Y-97616354D01*
X143344288Y-97626268D01*
X143352257Y-97638525D01*
X143362070Y-97653349D01*
X143373875Y-97670961D01*
X143387818Y-97691583D01*
X143404045Y-97715436D01*
X143422705Y-97742743D01*
X143443943Y-97773726D01*
X143467907Y-97808606D01*
X143468620Y-97809643D01*
X143488339Y-97838371D01*
X143507248Y-97866022D01*
X143525151Y-97892303D01*
X143541851Y-97916922D01*
X143557151Y-97939585D01*
X143570857Y-97960000D01*
X143582771Y-97977874D01*
X143592698Y-97992914D01*
X143600441Y-98004828D01*
X143605804Y-98013324D01*
X143608590Y-98018107D01*
X143608951Y-98018972D01*
X143609189Y-98026912D01*
X143608379Y-98032804D01*
X143606445Y-98035722D01*
X143601277Y-98041774D01*
X143592837Y-98051002D01*
X143581086Y-98063444D01*
X143565985Y-98079142D01*
X143547494Y-98098136D01*
X143525575Y-98120466D01*
X143500189Y-98146172D01*
X143471296Y-98175294D01*
X143438858Y-98207873D01*
X143425143Y-98221619D01*
X143399929Y-98246847D01*
X143375621Y-98271107D01*
X143352468Y-98294157D01*
X143330714Y-98315753D01*
X143310608Y-98335654D01*
X143292395Y-98353615D01*
X143276321Y-98369396D01*
X143262634Y-98382752D01*
X143251579Y-98393442D01*
X143243404Y-98401223D01*
X143238354Y-98405851D01*
X143236803Y-98407089D01*
X143226833Y-98410352D01*
X143216612Y-98409312D01*
X143205289Y-98403848D01*
X143203010Y-98402346D01*
X143199136Y-98399695D01*
X143191436Y-98394419D01*
X143180229Y-98386737D01*
X143165836Y-98376870D01*
X143148578Y-98365037D01*
X143128776Y-98351458D01*
X143106749Y-98336352D01*
X143082818Y-98319940D01*
X143057305Y-98302442D01*
X143030529Y-98284077D01*
X143005940Y-98267211D01*
X142978417Y-98248348D01*
X142951938Y-98230232D01*
X142926816Y-98213074D01*
X142903363Y-98197087D01*
X142881892Y-98182482D01*
X142862716Y-98169473D01*
X142846147Y-98158271D01*
X142832498Y-98149088D01*
X142822082Y-98142136D01*
X142815212Y-98137629D01*
X142812297Y-98135825D01*
X142800483Y-98132294D01*
X142794107Y-98132398D01*
X142789402Y-98133917D01*
X142780635Y-98137726D01*
X142768135Y-98143662D01*
X142752231Y-98151562D01*
X142733253Y-98161264D01*
X142711529Y-98172606D01*
X142694559Y-98181596D01*
X142670834Y-98194199D01*
X142651102Y-98204565D01*
X142634942Y-98212860D01*
X142621927Y-98219252D01*
X142611636Y-98223908D01*
X142603644Y-98226995D01*
X142597526Y-98228680D01*
X142592861Y-98229131D01*
X142589223Y-98228513D01*
X142586189Y-98226994D01*
X142583889Y-98225222D01*
X142582309Y-98222374D01*
X142578885Y-98215011D01*
X142573675Y-98203274D01*
X142566737Y-98187305D01*
X142558133Y-98167245D01*
X142547920Y-98143234D01*
X142536159Y-98115413D01*
X142522908Y-98083924D01*
X142508227Y-98048906D01*
X142492175Y-98010501D01*
X142474812Y-97968850D01*
X142456196Y-97924094D01*
X142436388Y-97876374D01*
X142415446Y-97825830D01*
X142398588Y-97785080D01*
X142376707Y-97732154D01*
X142356672Y-97683674D01*
X142338403Y-97639444D01*
X142321821Y-97599263D01*
X142306845Y-97562932D01*
X142293396Y-97530253D01*
X142281395Y-97501026D01*
X142270763Y-97475052D01*
X142261419Y-97452131D01*
X142253285Y-97432066D01*
X142246280Y-97414657D01*
X142240325Y-97399704D01*
X142235342Y-97387009D01*
X142231249Y-97376373D01*
X142227968Y-97367595D01*
X142225419Y-97360478D01*
X142223522Y-97354823D01*
X142222199Y-97350429D01*
X142221369Y-97347099D01*
X142220953Y-97344632D01*
X142220871Y-97342830D01*
X142221045Y-97341494D01*
X142221199Y-97340950D01*
X142223599Y-97335298D01*
X142227242Y-97330243D01*
X142232912Y-97325085D01*
X142241395Y-97319125D01*
X142253475Y-97311663D01*
X142255257Y-97310602D01*
X142267135Y-97303219D01*
X142280052Y-97294680D01*
X142291491Y-97286656D01*
X142292980Y-97285558D01*
X142302649Y-97278368D01*
X142314572Y-97269506D01*
X142326963Y-97260299D01*
X142334475Y-97254719D01*
X142375725Y-97220988D01*
X142413516Y-97183697D01*
X142447598Y-97143121D01*
X142477724Y-97099533D01*
X142483524Y-97090024D01*
X142506301Y-97047314D01*
X142525628Y-97001638D01*
X142541173Y-96953973D01*
X142552607Y-96905300D01*
X142558232Y-96869155D01*
X142559830Y-96850627D01*
X142560694Y-96828600D01*
X142560850Y-96804549D01*
X142560321Y-96779948D01*
X142559129Y-96756271D01*
X142557300Y-96734991D01*
X142555914Y-96724045D01*
X142545747Y-96671737D01*
X142530996Y-96621214D01*
X142511839Y-96572723D01*
X142488456Y-96526508D01*
X142461024Y-96482817D01*
X142429724Y-96441897D01*
X142394732Y-96403992D01*
X142356229Y-96369350D01*
X142314393Y-96338217D01*
X142269403Y-96310840D01*
X142247977Y-96299712D01*
X142200646Y-96278956D01*
X142152462Y-96262984D01*
X142103044Y-96251707D01*
X142052010Y-96245039D01*
X142000000Y-96242891D01*
X141954843Y-96244365D01*
X141912475Y-96248928D01*
X141871562Y-96256788D01*
X141830769Y-96268152D01*
X141823960Y-96270378D01*
X141774705Y-96289370D01*
X141727852Y-96312596D01*
X141683643Y-96339815D01*
X141642319Y-96370788D01*
X141604122Y-96405275D01*
X141569295Y-96443036D01*
X141538078Y-96483832D01*
X141510714Y-96527422D01*
X141487445Y-96573567D01*
X141468512Y-96622026D01*
X141468074Y-96623329D01*
X141456907Y-96660050D01*
X141448666Y-96695126D01*
X141443102Y-96730130D01*
X141439965Y-96766637D01*
X141439004Y-96806084D01*
X141439990Y-96843824D01*
X141443057Y-96878572D01*
X141448476Y-96912030D01*
X141456521Y-96945900D01*
X141466756Y-96979742D01*
X141485700Y-97029412D01*
X141508995Y-97076635D01*
X141536490Y-97121205D01*
X141568038Y-97162917D01*
X141603490Y-97201564D01*
X141642697Y-97236943D01*
X141665524Y-97254723D01*
X141676681Y-97262991D01*
X141687963Y-97271394D01*
X141697838Y-97278788D01*
X141703247Y-97282869D01*
X141711470Y-97288763D01*
X141722332Y-97296081D01*
X141734134Y-97303693D01*
X141740970Y-97307937D01*
X141754169Y-97316145D01*
X141763686Y-97322542D01*
X141770241Y-97327755D01*
X141774550Y-97332410D01*
X141777333Y-97337134D01*
X141778805Y-97340963D01*
X141779075Y-97342144D01*
X141779131Y-97343689D01*
X141778892Y-97345799D01*
X141778280Y-97348672D01*
X141777214Y-97352506D01*
X141775615Y-97357503D01*
X141773404Y-97363860D01*
X141770501Y-97371776D01*
X141766826Y-97381451D01*
X141762300Y-97393084D01*
X141756844Y-97406874D01*
X141750377Y-97423020D01*
X141742821Y-97441722D01*
X141734096Y-97463177D01*
X141724121Y-97487586D01*
X141712819Y-97515148D01*
X141700108Y-97546061D01*
X141685911Y-97580526D01*
X141670146Y-97618740D01*
X141652735Y-97660903D01*
X141633598Y-97707214D01*
X141612655Y-97757873D01*
X141601400Y-97785093D01*
X141579840Y-97837188D01*
X141559326Y-97886673D01*
X141539918Y-97933400D01*
X141521680Y-97977222D01*
X141504674Y-98017990D01*
X141488960Y-98055558D01*
X141474603Y-98089776D01*
X141461664Y-98120499D01*
X141450205Y-98147577D01*
X141440288Y-98170864D01*
X141431976Y-98190211D01*
X141425331Y-98205471D01*
X141420415Y-98216495D01*
X141417290Y-98223138D01*
X141416094Y-98225222D01*
X141409755Y-98228499D01*
X141403425Y-98229623D01*
X141398868Y-98228370D01*
X141390014Y-98224631D01*
X141376924Y-98218434D01*
X141359655Y-98209809D01*
X141338269Y-98198785D01*
X141312823Y-98185390D01*
X141306253Y-98181898D01*
X141286434Y-98171410D01*
X141267737Y-98161640D01*
X141250684Y-98152852D01*
X141235798Y-98145310D01*
X141223603Y-98139279D01*
X141214622Y-98135022D01*
X141209377Y-98132804D01*
X141208575Y-98132569D01*
X141200146Y-98132265D01*
X141192779Y-98133666D01*
X141189584Y-98135468D01*
X141182560Y-98139915D01*
X141172019Y-98146797D01*
X141158271Y-98155905D01*
X141141630Y-98167028D01*
X141122407Y-98179958D01*
X141100914Y-98194484D01*
X141077463Y-98210396D01*
X141052365Y-98227486D01*
X141025933Y-98245542D01*
X141002155Y-98261834D01*
X140974535Y-98280782D01*
X140947794Y-98299127D01*
X140922265Y-98316639D01*
X140898281Y-98333089D01*
X140876177Y-98348249D01*
X140856285Y-98361890D01*
X140838940Y-98373784D01*
X140824475Y-98383700D01*
X140813223Y-98391411D01*
X140805520Y-98396688D01*
X140802143Y-98398997D01*
X140790080Y-98406348D01*
X140780284Y-98410042D01*
X140771756Y-98410249D01*
X140763499Y-98407140D01*
X140761435Y-98405912D01*
X140758636Y-98403496D01*
X140752539Y-98397759D01*
X140743394Y-98388946D01*
X140731448Y-98377303D01*
X140716951Y-98363076D01*
X140700151Y-98346510D01*
X140681297Y-98327851D01*
X140660638Y-98307345D01*
X140638423Y-98285237D01*
X140614900Y-98261772D01*
X140590318Y-98237196D01*
X140573599Y-98220451D01*
X140539864Y-98186593D01*
X140509690Y-98156208D01*
X140483039Y-98129257D01*
X140459874Y-98105702D01*
X140440155Y-98085503D01*
X140423845Y-98068619D01*
X140410905Y-98055013D01*
X140401297Y-98044645D01*
X140394984Y-98037474D01*
X140391926Y-98033463D01*
X140391620Y-98032804D01*
X140390720Y-98024838D01*
X140391035Y-98018972D01*
X140392592Y-98015961D01*
X140396814Y-98009106D01*
X140403504Y-97998700D01*
X140412468Y-97985035D01*
X140423508Y-97968405D01*
X140436428Y-97949102D01*
X140451032Y-97927418D01*
X140467124Y-97903647D01*
X140484507Y-97878081D01*
X140502986Y-97851013D01*
X140522364Y-97822735D01*
X140531360Y-97809643D01*
X140555411Y-97774639D01*
X140576733Y-97743539D01*
X140595470Y-97716121D01*
X140611771Y-97692165D01*
X140625781Y-97671447D01*
X140637648Y-97653747D01*
X140647518Y-97638844D01*
X140655539Y-97626515D01*
X140661856Y-97616539D01*
X140666616Y-97608694D01*
X140669967Y-97602759D01*
X140672054Y-97598513D01*
X140673025Y-97595733D01*
X140673032Y-97595703D01*
X140673436Y-97593591D01*
X140673648Y-97591390D01*
X140673553Y-97588789D01*
X140673037Y-97585475D01*
X140671987Y-97581139D01*
X140670289Y-97575468D01*
X140667829Y-97568151D01*
X140664492Y-97558877D01*
X140660166Y-97547335D01*
X140654736Y-97533213D01*
X140648087Y-97516201D01*
X140640107Y-97495986D01*
X140630682Y-97472258D01*
X140619696Y-97444705D01*
X140607038Y-97413017D01*
X140596905Y-97387669D01*
X140584860Y-97357618D01*
X140573256Y-97328812D01*
X140562239Y-97301606D01*
X140551957Y-97276358D01*
X140542556Y-97253425D01*
X140534185Y-97233164D01*
X140526989Y-97215931D01*
X140521117Y-97202083D01*
X140516716Y-97191977D01*
X140513932Y-97185970D01*
X140513088Y-97184467D01*
X140506838Y-97178611D01*
X140500097Y-97174588D01*
X140496559Y-97173678D01*
X140488425Y-97171925D01*
X140476048Y-97169397D01*
X140459779Y-97166162D01*
X140439970Y-97162289D01*
X140416973Y-97157844D01*
X140391139Y-97152896D01*
X140362820Y-97147512D01*
X140332367Y-97141761D01*
X140300133Y-97135710D01*
X140266468Y-97129427D01*
X140253435Y-97127004D01*
X140219307Y-97120655D01*
X140186465Y-97114523D01*
X140155261Y-97108675D01*
X140126049Y-97103179D01*
X140099181Y-97098101D01*
X140075011Y-97093509D01*
X140053890Y-97089469D01*
X140036171Y-97086049D01*
X140022208Y-97083316D01*
X140012352Y-97081337D01*
X140006958Y-97080179D01*
X140006157Y-97079970D01*
X139998245Y-97075394D01*
X139992943Y-97069389D01*
X139992168Y-97068002D01*
X139991481Y-97066330D01*
X139990879Y-97064080D01*
X139990355Y-97060959D01*
X139989907Y-97056675D01*
X139989529Y-97050936D01*
X139989216Y-97043449D01*
X139988965Y-97033921D01*
X139988771Y-97022061D01*
X139988628Y-97007577D01*
X139988534Y-96990175D01*
X139988482Y-96969563D01*
X139988470Y-96945449D01*
X139988491Y-96917540D01*
X139988541Y-96885545D01*
X139988617Y-96849170D01*
X139988713Y-96808123D01*
X139988737Y-96798246D01*
X139989376Y-96535018D01*
X139995371Y-96528637D01*
X139996249Y-96527558D01*
X139996863Y-96526630D01*
X139997492Y-96525794D01*
X139998412Y-96524993D01*
X139999901Y-96524170D01*
X140002235Y-96523267D01*
X140005692Y-96522228D01*
X140010550Y-96520993D01*
X140017085Y-96519507D01*
X140025575Y-96517712D01*
X140036297Y-96515550D01*
X140049528Y-96512964D01*
X140065546Y-96509897D01*
X140084627Y-96506290D01*
X140107049Y-96502087D01*
X140133089Y-96497231D01*
X140163025Y-96491663D01*
X140197133Y-96485327D01*
X140235691Y-96478165D01*
X140269033Y-96471969D01*
X140309894Y-96464373D01*
X140346104Y-96457633D01*
X140377952Y-96451678D01*
X140405730Y-96446438D01*
X140429729Y-96441841D01*
X140450240Y-96437816D01*
X140467555Y-96434294D01*
X140481964Y-96431202D01*
X140493759Y-96428470D01*
X140503232Y-96426027D01*
X140510672Y-96423802D01*
X140516372Y-96421724D01*
X140520622Y-96419723D01*
X140523714Y-96417728D01*
X140525938Y-96415667D01*
X140527587Y-96413470D01*
X140528951Y-96411066D01*
X140530321Y-96408384D01*
X140530328Y-96408370D01*
X140531932Y-96404878D01*
X140535354Y-96397134D01*
X140540431Y-96385510D01*
X140547002Y-96370381D01*
X140554907Y-96352119D01*
X140563985Y-96331096D01*
X140574073Y-96307685D01*
X140585012Y-96282259D01*
X140596640Y-96255190D01*
X140608795Y-96226853D01*
X140610765Y-96222256D01*
X140625488Y-96187931D01*
X140638358Y-96157914D01*
X140649474Y-96131878D01*
X140658931Y-96109494D01*
X140666826Y-96090435D01*
X140673256Y-96074371D01*
X140678317Y-96060975D01*
X140682107Y-96049918D01*
X140684721Y-96040873D01*
X140686256Y-96033511D01*
X140686809Y-96027503D01*
X140686477Y-96022522D01*
X140685356Y-96018240D01*
X140683543Y-96014328D01*
X140681134Y-96010457D01*
X140678226Y-96006301D01*
X140675494Y-96002386D01*
X140672369Y-95997811D01*
X140666618Y-95989410D01*
X140658463Y-95977505D01*
X140648122Y-95962415D01*
X140635816Y-95944463D01*
X140621766Y-95923969D01*
X140606191Y-95901255D01*
X140589312Y-95876642D01*
X140571348Y-95850451D01*
X140552521Y-95823003D01*
X140533050Y-95794620D01*
X140530030Y-95790217D01*
X140510707Y-95762039D01*
X140492160Y-95734966D01*
X140474592Y-95709298D01*
X140458206Y-95685329D01*
X140443202Y-95663359D01*
X140429785Y-95643683D01*
X140418157Y-95626599D01*
X140408520Y-95612404D01*
X140401077Y-95601394D01*
X140396030Y-95593867D01*
X140393582Y-95590120D01*
X140393407Y-95589823D01*
X140391443Y-95583596D01*
X140390507Y-95575669D01*
X140390495Y-95574753D01*
X140390576Y-95573141D01*
X140390955Y-95571404D01*
X140391831Y-95569332D01*
X140393405Y-95566714D01*
X140395877Y-95563339D01*
X140399448Y-95558996D01*
X140404318Y-95553476D01*
X140410686Y-95546567D01*
X140418754Y-95538059D01*
X140428723Y-95527740D01*
X140440791Y-95515402D01*
X140455160Y-95500832D01*
X140472031Y-95483820D01*
X140491602Y-95464155D01*
X140514076Y-95441628D01*
X140539652Y-95416027D01*
X140568530Y-95387141D01*
X140577241Y-95378429D01*
X140763988Y-95191683D01*
X140774972Y-95191683D01*
X140776369Y-95191594D01*
X140777491Y-95191417D01*
X140778543Y-95191286D01*
X140779727Y-95191335D01*
X140781247Y-95191700D01*
X140783305Y-95192514D01*
X140786105Y-95193912D01*
X140789851Y-95196028D01*
X140794744Y-95198997D01*
X140800989Y-95202953D01*
X140808789Y-95208030D01*
X140818346Y-95214364D01*
X140829864Y-95222087D01*
X140843546Y-95231336D01*
X140859595Y-95242243D01*
X140878215Y-95254944D01*
X140899608Y-95269574D01*
X140923978Y-95286265D01*
X140951528Y-95305153D01*
X140982460Y-95326373D01*
X141016979Y-95350058D01*
X141055287Y-95376344D01*
X141088033Y-95398809D01*
X141115331Y-95417530D01*
X141138804Y-95433605D01*
X141158772Y-95447235D01*
X141175556Y-95458622D01*
X141189475Y-95467967D01*
X141200851Y-95475472D01*
X141210003Y-95481339D01*
X141217253Y-95485769D01*
X141222919Y-95488963D01*
X141227323Y-95491124D01*
X141230786Y-95492454D01*
X141233627Y-95493152D01*
X141236166Y-95493422D01*
X141238451Y-95493465D01*
X141241406Y-95493229D01*
X141245398Y-95492441D01*
X141250742Y-95490979D01*
X141257755Y-95488723D01*
X141266754Y-95485553D01*
X141278054Y-95481347D01*
X141291972Y-95475985D01*
X141308824Y-95469345D01*
X141328927Y-95461308D01*
X141352596Y-95451752D01*
X141380148Y-95440556D01*
X141411900Y-95427600D01*
X141426141Y-95421777D01*
X141454446Y-95410172D01*
X141481495Y-95399031D01*
X141506912Y-95388511D01*
X141530319Y-95378772D01*
X141551341Y-95369970D01*
X141569601Y-95362266D01*
X141584722Y-95355816D01*
X141596327Y-95350779D01*
X141604041Y-95347313D01*
X141607486Y-95345577D01*
X141607527Y-95345547D01*
X141609785Y-95343863D01*
X141611830Y-95342155D01*
X141613729Y-95340136D01*
X141615547Y-95337517D01*
X141617351Y-95334014D01*
X141619207Y-95329338D01*
X141621181Y-95323203D01*
X141623339Y-95315322D01*
X141625747Y-95305407D01*
X141628471Y-95293173D01*
X141631577Y-95278331D01*
X141635131Y-95260596D01*
X141639200Y-95239680D01*
X141643849Y-95215296D01*
X141649144Y-95187158D01*
X141655152Y-95154977D01*
X141661939Y-95118468D01*
X141669570Y-95077344D01*
X141670771Y-95070869D01*
X141677357Y-95035447D01*
X141683728Y-95001329D01*
X141689819Y-94968850D01*
X141695567Y-94938348D01*
X141700907Y-94910159D01*
X141705774Y-94884620D01*
X141710105Y-94862068D01*
X141713834Y-94842838D01*
X141716898Y-94827269D01*
X141719233Y-94815695D01*
X141720773Y-94808455D01*
X141721400Y-94805984D01*
X141725549Y-94799638D01*
X141731701Y-94794214D01*
X141731968Y-94794048D01*
X141733368Y-94793288D01*
X141735123Y-94792614D01*
X141737526Y-94792020D01*
X141740872Y-94791503D01*
X141745454Y-94791056D01*
X141751565Y-94790675D01*
X141759501Y-94790354D01*
X141769553Y-94790089D01*
X141782017Y-94789873D01*
X141797185Y-94789702D01*
X141815351Y-94789571D01*
X141836810Y-94789474D01*
X141861855Y-94789406D01*
X141890779Y-94789363D01*
X141923876Y-94789338D01*
X141961441Y-94789328D01*
X142000000Y-94789325D01*
X142041912Y-94789328D01*
X142041912Y-94789328D01*
G37*
X142041912Y-94789328D02*
X142079087Y-94789340D01*
X142111821Y-94789366D01*
X142140406Y-94789411D01*
X142165137Y-94789481D01*
X142186306Y-94789581D01*
X142204208Y-94789715D01*
X142219136Y-94789889D01*
X142231384Y-94790109D01*
X142241247Y-94790379D01*
X142249017Y-94790705D01*
X142254988Y-94791092D01*
X142259454Y-94791544D01*
X142262709Y-94792067D01*
X142265046Y-94792667D01*
X142266760Y-94793349D01*
X142268032Y-94794048D01*
X142274217Y-94799369D01*
X142278517Y-94805738D01*
X142278618Y-94805984D01*
X142279468Y-94809432D01*
X142281162Y-94817481D01*
X142283633Y-94829785D01*
X142286816Y-94845999D01*
X142290644Y-94865777D01*
X142295052Y-94888772D01*
X142299972Y-94914640D01*
X142305339Y-94943034D01*
X142311087Y-94973609D01*
X142317150Y-95006019D01*
X142323461Y-95039918D01*
X142326888Y-95058396D01*
X142333321Y-95093102D01*
X142339535Y-95126614D01*
X142345466Y-95158574D01*
X142351046Y-95188625D01*
X142356209Y-95216411D01*
X142360889Y-95241572D01*
X142365018Y-95263753D01*
X142368531Y-95282596D01*
X142371362Y-95297743D01*
X142373443Y-95308837D01*
X142374708Y-95315522D01*
X142375013Y-95317096D01*
X142375885Y-95321591D01*
X142376785Y-95325572D01*
X142378016Y-95329199D01*
X142379879Y-95332631D01*
X142382678Y-95336027D01*
X142386715Y-95339546D01*
X142392292Y-95343349D01*
X142399712Y-95347593D01*
X142409277Y-95352440D01*
X142421290Y-95358046D01*
X142436054Y-95364573D01*
X142453871Y-95372180D01*
X142475043Y-95381025D01*
X142499873Y-95391268D01*
X142528663Y-95403068D01*
X142561716Y-95416586D01*
X142571628Y-95420639D01*
X142606076Y-95434740D01*
X142636188Y-95447060D01*
X142662294Y-95457692D01*
X142684727Y-95466727D01*
X142703816Y-95474258D01*
X142719894Y-95480378D01*
X142733292Y-95485177D01*
X142744341Y-95488748D01*
X142753372Y-95491184D01*
X142760717Y-95492576D01*
X142766707Y-95493017D01*
X142771673Y-95492599D01*
X142775947Y-95491413D01*
X142779860Y-95489553D01*
X142783743Y-95487110D01*
X142787927Y-95484176D01*
X142791390Y-95481759D01*
X142795895Y-95478675D01*
X142804234Y-95472960D01*
X142816094Y-95464828D01*
X142831161Y-95454496D01*
X142849123Y-95442176D01*
X142869666Y-95428085D01*
X142892477Y-95412437D01*
X142917244Y-95395447D01*
X142943652Y-95377329D01*
X142971388Y-95358299D01*
X143000140Y-95338571D01*
X143011367Y-95330867D01*
X143044967Y-95307819D01*
X143074678Y-95287457D01*
X143100756Y-95269616D01*
X143123454Y-95254130D01*
X143143028Y-95240833D01*
X143159732Y-95229561D01*
X143173819Y-95220146D01*
X143185546Y-95212424D01*
X143195166Y-95206229D01*
X143202934Y-95201394D01*
X143209104Y-95197754D01*
X143213931Y-95195144D01*
X143217669Y-95193398D01*
X143220573Y-95192350D01*
X143222897Y-95191833D01*
X143224895Y-95191684D01*
X143225110Y-95191683D01*
X143236011Y-95191683D01*
X143422758Y-95378429D01*
X143452582Y-95408256D01*
X143479048Y-95434738D01*
X143502358Y-95458086D01*
X143522712Y-95478513D01*
X143540310Y-95496229D01*
X143555352Y-95511445D01*
X143568040Y-95524372D01*
X143578573Y-95535223D01*
X143587152Y-95544207D01*
X143593977Y-95551537D01*
X143599249Y-95557423D01*
X143603168Y-95562076D01*
X143605935Y-95565708D01*
X143607749Y-95568530D01*
X143608812Y-95570754D01*
X143609323Y-95572589D01*
X143609484Y-95574249D01*
X143609495Y-95575217D01*
X143608249Y-95584021D01*
X143605215Y-95592217D01*
X143604773Y-95592985D01*
X143602686Y-95596153D01*
X143597958Y-95603162D01*
X143590798Y-95613709D01*
X143581414Y-95627491D01*
X143570012Y-95644203D01*
X143556801Y-95663542D01*
X143541987Y-95685204D01*
X143525780Y-95708884D01*
X143508385Y-95734279D01*
X143490012Y-95761086D01*
X143470866Y-95788999D01*
X143468179Y-95792916D01*
X143448759Y-95821219D01*
X143429948Y-95848639D01*
X143411966Y-95874850D01*
X143395037Y-95899529D01*
X143379383Y-95922353D01*
X143365226Y-95942997D01*
X143352787Y-95961137D01*
X143342289Y-95976450D01*
X143333954Y-95988611D01*
X143328005Y-95997297D01*
X143324663Y-96002184D01*
X143324525Y-96002386D01*
X143321271Y-96007029D01*
X143318436Y-96011113D01*
X143316117Y-96014966D01*
X143314410Y-96018916D01*
X143313412Y-96023290D01*
X143313218Y-96028418D01*
X143313927Y-96034628D01*
X143315635Y-96042247D01*
X143318437Y-96051604D01*
X143322431Y-96063027D01*
X143327713Y-96076845D01*
X143334381Y-96093385D01*
X143342529Y-96112975D01*
X143352256Y-96135945D01*
X143363657Y-96162621D01*
X143376830Y-96193333D01*
X143389234Y-96222256D01*
X143401459Y-96250761D01*
X143413181Y-96278056D01*
X143424240Y-96303768D01*
X143434475Y-96327524D01*
X143443723Y-96348952D01*
X143451825Y-96367678D01*
X143458620Y-96383330D01*
X143463945Y-96395536D01*
X143467640Y-96403921D01*
X143469544Y-96408114D01*
X143469671Y-96408370D01*
X143474634Y-96415307D01*
X143481041Y-96421298D01*
X143481084Y-96421329D01*
X143482257Y-96422180D01*
X143483418Y-96422962D01*
X143484835Y-96423728D01*
X143486774Y-96424531D01*
X143489505Y-96425425D01*
X143493294Y-96426463D01*
X143498410Y-96427699D01*
X143505119Y-96429185D01*
X143513691Y-96430974D01*
X143524392Y-96433121D01*
X143537490Y-96435678D01*
X143553253Y-96438699D01*
X143571948Y-96442236D01*
X143593845Y-96446344D01*
X143619209Y-96451075D01*
X143648308Y-96456483D01*
X143681412Y-96462621D01*
X143718786Y-96469543D01*
X143760700Y-96477300D01*
X143784287Y-96481666D01*
X143814902Y-96487339D01*
X143844300Y-96492800D01*
X143872076Y-96497972D01*
X143897820Y-96502779D01*
X143921124Y-96507143D01*
X143941580Y-96510989D01*
X143958782Y-96514240D01*
X143972319Y-96516819D01*
X143981786Y-96518650D01*
X143986773Y-96519656D01*
X143987099Y-96519729D01*
X143995862Y-96522846D01*
X144003200Y-96527326D01*
X144004703Y-96528716D01*
X144010623Y-96535018D01*
X144011262Y-96798246D01*
X144011362Y-96840381D01*
X144011443Y-96877778D01*
X144011500Y-96910730D01*
X144011528Y-96939530D01*
X144011523Y-96964469D01*
X144011481Y-96985841D01*
X144011396Y-97003938D01*
X144011265Y-97019052D01*
X144011083Y-97031475D01*
X144010845Y-97041500D01*
X144010546Y-97049419D01*
X144010183Y-97055525D01*
X144009751Y-97060110D01*
X144009245Y-97063466D01*
X144008660Y-97065886D01*
X144007993Y-97067663D01*
X144007238Y-97069088D01*
X144007056Y-97069389D01*
X144000775Y-97076182D01*
X143993843Y-97080019D01*
X143989972Y-97080937D01*
X143981590Y-97082681D01*
X143969132Y-97085167D01*
X143953035Y-97088312D01*
X143933733Y-97092032D01*
X143911662Y-97096243D01*
X143887258Y-97100861D01*
X143860957Y-97105803D01*
X143833193Y-97110984D01*
X143822010Y-97113062D01*
X143776078Y-97121585D01*
X143734833Y-97129241D01*
X143698017Y-97136081D01*
X143665370Y-97142152D01*
X143636635Y-97147503D01*
X143611553Y-97152184D01*
X143589865Y-97156244D01*
X143571313Y-97159731D01*
X143555637Y-97162695D01*
X143542580Y-97165184D01*
X143531883Y-97167248D01*
X143523287Y-97168935D01*
X143516533Y-97170294D01*
X143511364Y-97171375D01*
X143507520Y-97172226D01*
X143504743Y-97172896D01*
X143502774Y-97173435D01*
X143502077Y-97173649D01*
X143494794Y-97177446D01*
X143488208Y-97183110D01*
X143487927Y-97183437D01*
X143486055Y-97186873D01*
X143482476Y-97194645D01*
X143477329Y-97206416D01*
X143470757Y-97221844D01*
X143462901Y-97240589D01*
X143453901Y-97262313D01*
X143443899Y-97286674D01*
X143433037Y-97313333D01*
X143421454Y-97341951D01*
X143409294Y-97372186D01*
X143403193Y-97387423D01*
X143389259Y-97422282D01*
X143377081Y-97452781D01*
X143366543Y-97479233D01*
X143357533Y-97501948D01*
X143349936Y-97521239D01*
X143343639Y-97537415D01*
X143338527Y-97550787D01*
X143334487Y-97561668D01*
X143331406Y-97570367D01*
X143329168Y-97577196D01*
X143327661Y-97582467D01*
X143326770Y-97586489D01*
X143326381Y-97589575D01*
X143326382Y-97592035D01*
X143326657Y-97594180D01*
X143326961Y-97595703D01*
X143327914Y-97598459D01*
X143329976Y-97602672D01*
X143333294Y-97608563D01*
X143338016Y-97616354D01*
X143344288Y-97626268D01*
X143352257Y-97638525D01*
X143362070Y-97653349D01*
X143373875Y-97670961D01*
X143387818Y-97691583D01*
X143404045Y-97715436D01*
X143422705Y-97742743D01*
X143443943Y-97773726D01*
X143467907Y-97808606D01*
X143468620Y-97809643D01*
X143488339Y-97838371D01*
X143507248Y-97866022D01*
X143525151Y-97892303D01*
X143541851Y-97916922D01*
X143557151Y-97939585D01*
X143570857Y-97960000D01*
X143582771Y-97977874D01*
X143592698Y-97992914D01*
X143600441Y-98004828D01*
X143605804Y-98013324D01*
X143608590Y-98018107D01*
X143608951Y-98018972D01*
X143609189Y-98026912D01*
X143608379Y-98032804D01*
X143606445Y-98035722D01*
X143601277Y-98041774D01*
X143592837Y-98051002D01*
X143581086Y-98063444D01*
X143565985Y-98079142D01*
X143547494Y-98098136D01*
X143525575Y-98120466D01*
X143500189Y-98146172D01*
X143471296Y-98175294D01*
X143438858Y-98207873D01*
X143425143Y-98221619D01*
X143399929Y-98246847D01*
X143375621Y-98271107D01*
X143352468Y-98294157D01*
X143330714Y-98315753D01*
X143310608Y-98335654D01*
X143292395Y-98353615D01*
X143276321Y-98369396D01*
X143262634Y-98382752D01*
X143251579Y-98393442D01*
X143243404Y-98401223D01*
X143238354Y-98405851D01*
X143236803Y-98407089D01*
X143226833Y-98410352D01*
X143216612Y-98409312D01*
X143205289Y-98403848D01*
X143203010Y-98402346D01*
X143199136Y-98399695D01*
X143191436Y-98394419D01*
X143180229Y-98386737D01*
X143165836Y-98376870D01*
X143148578Y-98365037D01*
X143128776Y-98351458D01*
X143106749Y-98336352D01*
X143082818Y-98319940D01*
X143057305Y-98302442D01*
X143030529Y-98284077D01*
X143005940Y-98267211D01*
X142978417Y-98248348D01*
X142951938Y-98230232D01*
X142926816Y-98213074D01*
X142903363Y-98197087D01*
X142881892Y-98182482D01*
X142862716Y-98169473D01*
X142846147Y-98158271D01*
X142832498Y-98149088D01*
X142822082Y-98142136D01*
X142815212Y-98137629D01*
X142812297Y-98135825D01*
X142800483Y-98132294D01*
X142794107Y-98132398D01*
X142789402Y-98133917D01*
X142780635Y-98137726D01*
X142768135Y-98143662D01*
X142752231Y-98151562D01*
X142733253Y-98161264D01*
X142711529Y-98172606D01*
X142694559Y-98181596D01*
X142670834Y-98194199D01*
X142651102Y-98204565D01*
X142634942Y-98212860D01*
X142621927Y-98219252D01*
X142611636Y-98223908D01*
X142603644Y-98226995D01*
X142597526Y-98228680D01*
X142592861Y-98229131D01*
X142589223Y-98228513D01*
X142586189Y-98226994D01*
X142583889Y-98225222D01*
X142582309Y-98222374D01*
X142578885Y-98215011D01*
X142573675Y-98203274D01*
X142566737Y-98187305D01*
X142558133Y-98167245D01*
X142547920Y-98143234D01*
X142536159Y-98115413D01*
X142522908Y-98083924D01*
X142508227Y-98048906D01*
X142492175Y-98010501D01*
X142474812Y-97968850D01*
X142456196Y-97924094D01*
X142436388Y-97876374D01*
X142415446Y-97825830D01*
X142398588Y-97785080D01*
X142376707Y-97732154D01*
X142356672Y-97683674D01*
X142338403Y-97639444D01*
X142321821Y-97599263D01*
X142306845Y-97562932D01*
X142293396Y-97530253D01*
X142281395Y-97501026D01*
X142270763Y-97475052D01*
X142261419Y-97452131D01*
X142253285Y-97432066D01*
X142246280Y-97414657D01*
X142240325Y-97399704D01*
X142235342Y-97387009D01*
X142231249Y-97376373D01*
X142227968Y-97367595D01*
X142225419Y-97360478D01*
X142223522Y-97354823D01*
X142222199Y-97350429D01*
X142221369Y-97347099D01*
X142220953Y-97344632D01*
X142220871Y-97342830D01*
X142221045Y-97341494D01*
X142221199Y-97340950D01*
X142223599Y-97335298D01*
X142227242Y-97330243D01*
X142232912Y-97325085D01*
X142241395Y-97319125D01*
X142253475Y-97311663D01*
X142255257Y-97310602D01*
X142267135Y-97303219D01*
X142280052Y-97294680D01*
X142291491Y-97286656D01*
X142292980Y-97285558D01*
X142302649Y-97278368D01*
X142314572Y-97269506D01*
X142326963Y-97260299D01*
X142334475Y-97254719D01*
X142375725Y-97220988D01*
X142413516Y-97183697D01*
X142447598Y-97143121D01*
X142477724Y-97099533D01*
X142483524Y-97090024D01*
X142506301Y-97047314D01*
X142525628Y-97001638D01*
X142541173Y-96953973D01*
X142552607Y-96905300D01*
X142558232Y-96869155D01*
X142559830Y-96850627D01*
X142560694Y-96828600D01*
X142560850Y-96804549D01*
X142560321Y-96779948D01*
X142559129Y-96756271D01*
X142557300Y-96734991D01*
X142555914Y-96724045D01*
X142545747Y-96671737D01*
X142530996Y-96621214D01*
X142511839Y-96572723D01*
X142488456Y-96526508D01*
X142461024Y-96482817D01*
X142429724Y-96441897D01*
X142394732Y-96403992D01*
X142356229Y-96369350D01*
X142314393Y-96338217D01*
X142269403Y-96310840D01*
X142247977Y-96299712D01*
X142200646Y-96278956D01*
X142152462Y-96262984D01*
X142103044Y-96251707D01*
X142052010Y-96245039D01*
X142000000Y-96242891D01*
X141954843Y-96244365D01*
X141912475Y-96248928D01*
X141871562Y-96256788D01*
X141830769Y-96268152D01*
X141823960Y-96270378D01*
X141774705Y-96289370D01*
X141727852Y-96312596D01*
X141683643Y-96339815D01*
X141642319Y-96370788D01*
X141604122Y-96405275D01*
X141569295Y-96443036D01*
X141538078Y-96483832D01*
X141510714Y-96527422D01*
X141487445Y-96573567D01*
X141468512Y-96622026D01*
X141468074Y-96623329D01*
X141456907Y-96660050D01*
X141448666Y-96695126D01*
X141443102Y-96730130D01*
X141439965Y-96766637D01*
X141439004Y-96806084D01*
X141439990Y-96843824D01*
X141443057Y-96878572D01*
X141448476Y-96912030D01*
X141456521Y-96945900D01*
X141466756Y-96979742D01*
X141485700Y-97029412D01*
X141508995Y-97076635D01*
X141536490Y-97121205D01*
X141568038Y-97162917D01*
X141603490Y-97201564D01*
X141642697Y-97236943D01*
X141665524Y-97254723D01*
X141676681Y-97262991D01*
X141687963Y-97271394D01*
X141697838Y-97278788D01*
X141703247Y-97282869D01*
X141711470Y-97288763D01*
X141722332Y-97296081D01*
X141734134Y-97303693D01*
X141740970Y-97307937D01*
X141754169Y-97316145D01*
X141763686Y-97322542D01*
X141770241Y-97327755D01*
X141774550Y-97332410D01*
X141777333Y-97337134D01*
X141778805Y-97340963D01*
X141779075Y-97342144D01*
X141779131Y-97343689D01*
X141778892Y-97345799D01*
X141778280Y-97348672D01*
X141777214Y-97352506D01*
X141775615Y-97357503D01*
X141773404Y-97363860D01*
X141770501Y-97371776D01*
X141766826Y-97381451D01*
X141762300Y-97393084D01*
X141756844Y-97406874D01*
X141750377Y-97423020D01*
X141742821Y-97441722D01*
X141734096Y-97463177D01*
X141724121Y-97487586D01*
X141712819Y-97515148D01*
X141700108Y-97546061D01*
X141685911Y-97580526D01*
X141670146Y-97618740D01*
X141652735Y-97660903D01*
X141633598Y-97707214D01*
X141612655Y-97757873D01*
X141601400Y-97785093D01*
X141579840Y-97837188D01*
X141559326Y-97886673D01*
X141539918Y-97933400D01*
X141521680Y-97977222D01*
X141504674Y-98017990D01*
X141488960Y-98055558D01*
X141474603Y-98089776D01*
X141461664Y-98120499D01*
X141450205Y-98147577D01*
X141440288Y-98170864D01*
X141431976Y-98190211D01*
X141425331Y-98205471D01*
X141420415Y-98216495D01*
X141417290Y-98223138D01*
X141416094Y-98225222D01*
X141409755Y-98228499D01*
X141403425Y-98229623D01*
X141398868Y-98228370D01*
X141390014Y-98224631D01*
X141376924Y-98218434D01*
X141359655Y-98209809D01*
X141338269Y-98198785D01*
X141312823Y-98185390D01*
X141306253Y-98181898D01*
X141286434Y-98171410D01*
X141267737Y-98161640D01*
X141250684Y-98152852D01*
X141235798Y-98145310D01*
X141223603Y-98139279D01*
X141214622Y-98135022D01*
X141209377Y-98132804D01*
X141208575Y-98132569D01*
X141200146Y-98132265D01*
X141192779Y-98133666D01*
X141189584Y-98135468D01*
X141182560Y-98139915D01*
X141172019Y-98146797D01*
X141158271Y-98155905D01*
X141141630Y-98167028D01*
X141122407Y-98179958D01*
X141100914Y-98194484D01*
X141077463Y-98210396D01*
X141052365Y-98227486D01*
X141025933Y-98245542D01*
X141002155Y-98261834D01*
X140974535Y-98280782D01*
X140947794Y-98299127D01*
X140922265Y-98316639D01*
X140898281Y-98333089D01*
X140876177Y-98348249D01*
X140856285Y-98361890D01*
X140838940Y-98373784D01*
X140824475Y-98383700D01*
X140813223Y-98391411D01*
X140805520Y-98396688D01*
X140802143Y-98398997D01*
X140790080Y-98406348D01*
X140780284Y-98410042D01*
X140771756Y-98410249D01*
X140763499Y-98407140D01*
X140761435Y-98405912D01*
X140758636Y-98403496D01*
X140752539Y-98397759D01*
X140743394Y-98388946D01*
X140731448Y-98377303D01*
X140716951Y-98363076D01*
X140700151Y-98346510D01*
X140681297Y-98327851D01*
X140660638Y-98307345D01*
X140638423Y-98285237D01*
X140614900Y-98261772D01*
X140590318Y-98237196D01*
X140573599Y-98220451D01*
X140539864Y-98186593D01*
X140509690Y-98156208D01*
X140483039Y-98129257D01*
X140459874Y-98105702D01*
X140440155Y-98085503D01*
X140423845Y-98068619D01*
X140410905Y-98055013D01*
X140401297Y-98044645D01*
X140394984Y-98037474D01*
X140391926Y-98033463D01*
X140391620Y-98032804D01*
X140390720Y-98024838D01*
X140391035Y-98018972D01*
X140392592Y-98015961D01*
X140396814Y-98009106D01*
X140403504Y-97998700D01*
X140412468Y-97985035D01*
X140423508Y-97968405D01*
X140436428Y-97949102D01*
X140451032Y-97927418D01*
X140467124Y-97903647D01*
X140484507Y-97878081D01*
X140502986Y-97851013D01*
X140522364Y-97822735D01*
X140531360Y-97809643D01*
X140555411Y-97774639D01*
X140576733Y-97743539D01*
X140595470Y-97716121D01*
X140611771Y-97692165D01*
X140625781Y-97671447D01*
X140637648Y-97653747D01*
X140647518Y-97638844D01*
X140655539Y-97626515D01*
X140661856Y-97616539D01*
X140666616Y-97608694D01*
X140669967Y-97602759D01*
X140672054Y-97598513D01*
X140673025Y-97595733D01*
X140673032Y-97595703D01*
X140673436Y-97593591D01*
X140673648Y-97591390D01*
X140673553Y-97588789D01*
X140673037Y-97585475D01*
X140671987Y-97581139D01*
X140670289Y-97575468D01*
X140667829Y-97568151D01*
X140664492Y-97558877D01*
X140660166Y-97547335D01*
X140654736Y-97533213D01*
X140648087Y-97516201D01*
X140640107Y-97495986D01*
X140630682Y-97472258D01*
X140619696Y-97444705D01*
X140607038Y-97413017D01*
X140596905Y-97387669D01*
X140584860Y-97357618D01*
X140573256Y-97328812D01*
X140562239Y-97301606D01*
X140551957Y-97276358D01*
X140542556Y-97253425D01*
X140534185Y-97233164D01*
X140526989Y-97215931D01*
X140521117Y-97202083D01*
X140516716Y-97191977D01*
X140513932Y-97185970D01*
X140513088Y-97184467D01*
X140506838Y-97178611D01*
X140500097Y-97174588D01*
X140496559Y-97173678D01*
X140488425Y-97171925D01*
X140476048Y-97169397D01*
X140459779Y-97166162D01*
X140439970Y-97162289D01*
X140416973Y-97157844D01*
X140391139Y-97152896D01*
X140362820Y-97147512D01*
X140332367Y-97141761D01*
X140300133Y-97135710D01*
X140266468Y-97129427D01*
X140253435Y-97127004D01*
X140219307Y-97120655D01*
X140186465Y-97114523D01*
X140155261Y-97108675D01*
X140126049Y-97103179D01*
X140099181Y-97098101D01*
X140075011Y-97093509D01*
X140053890Y-97089469D01*
X140036171Y-97086049D01*
X140022208Y-97083316D01*
X140012352Y-97081337D01*
X140006958Y-97080179D01*
X140006157Y-97079970D01*
X139998245Y-97075394D01*
X139992943Y-97069389D01*
X139992168Y-97068002D01*
X139991481Y-97066330D01*
X139990879Y-97064080D01*
X139990355Y-97060959D01*
X139989907Y-97056675D01*
X139989529Y-97050936D01*
X139989216Y-97043449D01*
X139988965Y-97033921D01*
X139988771Y-97022061D01*
X139988628Y-97007577D01*
X139988534Y-96990175D01*
X139988482Y-96969563D01*
X139988470Y-96945449D01*
X139988491Y-96917540D01*
X139988541Y-96885545D01*
X139988617Y-96849170D01*
X139988713Y-96808123D01*
X139988737Y-96798246D01*
X139989376Y-96535018D01*
X139995371Y-96528637D01*
X139996249Y-96527558D01*
X139996863Y-96526630D01*
X139997492Y-96525794D01*
X139998412Y-96524993D01*
X139999901Y-96524170D01*
X140002235Y-96523267D01*
X140005692Y-96522228D01*
X140010550Y-96520993D01*
X140017085Y-96519507D01*
X140025575Y-96517712D01*
X140036297Y-96515550D01*
X140049528Y-96512964D01*
X140065546Y-96509897D01*
X140084627Y-96506290D01*
X140107049Y-96502087D01*
X140133089Y-96497231D01*
X140163025Y-96491663D01*
X140197133Y-96485327D01*
X140235691Y-96478165D01*
X140269033Y-96471969D01*
X140309894Y-96464373D01*
X140346104Y-96457633D01*
X140377952Y-96451678D01*
X140405730Y-96446438D01*
X140429729Y-96441841D01*
X140450240Y-96437816D01*
X140467555Y-96434294D01*
X140481964Y-96431202D01*
X140493759Y-96428470D01*
X140503232Y-96426027D01*
X140510672Y-96423802D01*
X140516372Y-96421724D01*
X140520622Y-96419723D01*
X140523714Y-96417728D01*
X140525938Y-96415667D01*
X140527587Y-96413470D01*
X140528951Y-96411066D01*
X140530321Y-96408384D01*
X140530328Y-96408370D01*
X140531932Y-96404878D01*
X140535354Y-96397134D01*
X140540431Y-96385510D01*
X140547002Y-96370381D01*
X140554907Y-96352119D01*
X140563985Y-96331096D01*
X140574073Y-96307685D01*
X140585012Y-96282259D01*
X140596640Y-96255190D01*
X140608795Y-96226853D01*
X140610765Y-96222256D01*
X140625488Y-96187931D01*
X140638358Y-96157914D01*
X140649474Y-96131878D01*
X140658931Y-96109494D01*
X140666826Y-96090435D01*
X140673256Y-96074371D01*
X140678317Y-96060975D01*
X140682107Y-96049918D01*
X140684721Y-96040873D01*
X140686256Y-96033511D01*
X140686809Y-96027503D01*
X140686477Y-96022522D01*
X140685356Y-96018240D01*
X140683543Y-96014328D01*
X140681134Y-96010457D01*
X140678226Y-96006301D01*
X140675494Y-96002386D01*
X140672369Y-95997811D01*
X140666618Y-95989410D01*
X140658463Y-95977505D01*
X140648122Y-95962415D01*
X140635816Y-95944463D01*
X140621766Y-95923969D01*
X140606191Y-95901255D01*
X140589312Y-95876642D01*
X140571348Y-95850451D01*
X140552521Y-95823003D01*
X140533050Y-95794620D01*
X140530030Y-95790217D01*
X140510707Y-95762039D01*
X140492160Y-95734966D01*
X140474592Y-95709298D01*
X140458206Y-95685329D01*
X140443202Y-95663359D01*
X140429785Y-95643683D01*
X140418157Y-95626599D01*
X140408520Y-95612404D01*
X140401077Y-95601394D01*
X140396030Y-95593867D01*
X140393582Y-95590120D01*
X140393407Y-95589823D01*
X140391443Y-95583596D01*
X140390507Y-95575669D01*
X140390495Y-95574753D01*
X140390576Y-95573141D01*
X140390955Y-95571404D01*
X140391831Y-95569332D01*
X140393405Y-95566714D01*
X140395877Y-95563339D01*
X140399448Y-95558996D01*
X140404318Y-95553476D01*
X140410686Y-95546567D01*
X140418754Y-95538059D01*
X140428723Y-95527740D01*
X140440791Y-95515402D01*
X140455160Y-95500832D01*
X140472031Y-95483820D01*
X140491602Y-95464155D01*
X140514076Y-95441628D01*
X140539652Y-95416027D01*
X140568530Y-95387141D01*
X140577241Y-95378429D01*
X140763988Y-95191683D01*
X140774972Y-95191683D01*
X140776369Y-95191594D01*
X140777491Y-95191417D01*
X140778543Y-95191286D01*
X140779727Y-95191335D01*
X140781247Y-95191700D01*
X140783305Y-95192514D01*
X140786105Y-95193912D01*
X140789851Y-95196028D01*
X140794744Y-95198997D01*
X140800989Y-95202953D01*
X140808789Y-95208030D01*
X140818346Y-95214364D01*
X140829864Y-95222087D01*
X140843546Y-95231336D01*
X140859595Y-95242243D01*
X140878215Y-95254944D01*
X140899608Y-95269574D01*
X140923978Y-95286265D01*
X140951528Y-95305153D01*
X140982460Y-95326373D01*
X141016979Y-95350058D01*
X141055287Y-95376344D01*
X141088033Y-95398809D01*
X141115331Y-95417530D01*
X141138804Y-95433605D01*
X141158772Y-95447235D01*
X141175556Y-95458622D01*
X141189475Y-95467967D01*
X141200851Y-95475472D01*
X141210003Y-95481339D01*
X141217253Y-95485769D01*
X141222919Y-95488963D01*
X141227323Y-95491124D01*
X141230786Y-95492454D01*
X141233627Y-95493152D01*
X141236166Y-95493422D01*
X141238451Y-95493465D01*
X141241406Y-95493229D01*
X141245398Y-95492441D01*
X141250742Y-95490979D01*
X141257755Y-95488723D01*
X141266754Y-95485553D01*
X141278054Y-95481347D01*
X141291972Y-95475985D01*
X141308824Y-95469345D01*
X141328927Y-95461308D01*
X141352596Y-95451752D01*
X141380148Y-95440556D01*
X141411900Y-95427600D01*
X141426141Y-95421777D01*
X141454446Y-95410172D01*
X141481495Y-95399031D01*
X141506912Y-95388511D01*
X141530319Y-95378772D01*
X141551341Y-95369970D01*
X141569601Y-95362266D01*
X141584722Y-95355816D01*
X141596327Y-95350779D01*
X141604041Y-95347313D01*
X141607486Y-95345577D01*
X141607527Y-95345547D01*
X141609785Y-95343863D01*
X141611830Y-95342155D01*
X141613729Y-95340136D01*
X141615547Y-95337517D01*
X141617351Y-95334014D01*
X141619207Y-95329338D01*
X141621181Y-95323203D01*
X141623339Y-95315322D01*
X141625747Y-95305407D01*
X141628471Y-95293173D01*
X141631577Y-95278331D01*
X141635131Y-95260596D01*
X141639200Y-95239680D01*
X141643849Y-95215296D01*
X141649144Y-95187158D01*
X141655152Y-95154977D01*
X141661939Y-95118468D01*
X141669570Y-95077344D01*
X141670771Y-95070869D01*
X141677357Y-95035447D01*
X141683728Y-95001329D01*
X141689819Y-94968850D01*
X141695567Y-94938348D01*
X141700907Y-94910159D01*
X141705774Y-94884620D01*
X141710105Y-94862068D01*
X141713834Y-94842838D01*
X141716898Y-94827269D01*
X141719233Y-94815695D01*
X141720773Y-94808455D01*
X141721400Y-94805984D01*
X141725549Y-94799638D01*
X141731701Y-94794214D01*
X141731968Y-94794048D01*
X141733368Y-94793288D01*
X141735123Y-94792614D01*
X141737526Y-94792020D01*
X141740872Y-94791503D01*
X141745454Y-94791056D01*
X141751565Y-94790675D01*
X141759501Y-94790354D01*
X141769553Y-94790089D01*
X141782017Y-94789873D01*
X141797185Y-94789702D01*
X141815351Y-94789571D01*
X141836810Y-94789474D01*
X141861855Y-94789406D01*
X141890779Y-94789363D01*
X141923876Y-94789338D01*
X141961441Y-94789328D01*
X142000000Y-94789325D01*
X142041912Y-94789328D01*
D12*
X171800000Y-104800000D03*
X131900000Y-99400000D03*
D13*
X137000000Y-121600000D03*
X138000000Y-121600000D03*
X139000000Y-121600000D03*
X140000000Y-121600000D03*
X141000000Y-121600000D03*
X142000000Y-121600000D03*
X143000000Y-121600000D03*
X144000000Y-121600000D03*
X145000000Y-121600000D03*
X146000000Y-121600000D03*
X147000000Y-121600000D03*
X148000000Y-121600000D03*
X149000000Y-121600000D03*
X150000000Y-121600000D03*
X151000000Y-121600000D03*
X152000000Y-121600000D03*
D14*
X136000000Y-123700000D03*
X153000000Y-123700000D03*
D15*
X138250000Y-117750000D03*
X138250000Y-114150000D03*
X137750000Y-114150000D03*
X137750000Y-117750000D03*
D16*
X139300000Y-117200000D03*
X139300000Y-116700000D03*
X139300000Y-116200000D03*
X139300000Y-115700000D03*
X139300000Y-115200000D03*
X139300000Y-114700000D03*
X136700000Y-114700000D03*
X136700000Y-115200000D03*
X136700000Y-115700000D03*
X136700000Y-116200000D03*
X136700000Y-116700000D03*
X136700000Y-117200000D03*
D17*
X148800000Y-101700000D03*
D18*
X148250000Y-100650000D03*
X147750000Y-100650000D03*
X147250000Y-100650000D03*
X146750000Y-100650000D03*
X146250000Y-100650000D03*
X145750000Y-100650000D03*
X145250000Y-100650000D03*
X144750000Y-100650000D03*
X144250000Y-100650000D03*
X143750000Y-100650000D03*
D17*
X143200000Y-101700000D03*
X143200000Y-103200000D03*
D18*
X143750000Y-104250000D03*
X144250000Y-104250000D03*
X144750000Y-104250000D03*
X145250000Y-104250000D03*
X145750000Y-104250000D03*
X146250000Y-104250000D03*
X146750000Y-104250000D03*
X147250000Y-104250000D03*
X147750000Y-104250000D03*
X148250000Y-104250000D03*
D17*
X148800000Y-103200000D03*
X151850000Y-112150000D03*
D18*
X151300000Y-111100000D03*
X150800000Y-111100000D03*
X150300000Y-111100000D03*
X149800000Y-111100000D03*
X149300000Y-111100000D03*
X148800000Y-111100000D03*
X148300000Y-111100000D03*
X147800000Y-111100000D03*
X147300000Y-111100000D03*
X146800000Y-111100000D03*
D17*
X146250000Y-112150000D03*
X146250000Y-113650000D03*
D18*
X146800000Y-114700000D03*
X147300000Y-114700000D03*
X147800000Y-114700000D03*
X148300000Y-114700000D03*
X148800000Y-114700000D03*
X149300000Y-114700000D03*
X149800000Y-114700000D03*
X150300000Y-114700000D03*
X150800000Y-114700000D03*
X151300000Y-114700000D03*
D17*
X151850000Y-113650000D03*
D10*
G36*
X170728840Y-95105439D02*
X171365237Y-94469042D01*
X171570298Y-94674103D01*
X170933901Y-95310500D01*
X170728840Y-95105439D01*
X170728840Y-95105439D01*
G37*
G36*
X169597469Y-94320550D02*
X169802530Y-94115489D01*
X170438927Y-94751886D01*
X170233866Y-94956947D01*
X169597469Y-94320550D01*
X169597469Y-94320550D01*
G37*
G36*
X169243916Y-94674103D02*
X169448977Y-94469042D01*
X170085374Y-95105439D01*
X169880313Y-95310500D01*
X169243916Y-94674103D01*
X169243916Y-94674103D01*
G37*
G36*
X168890362Y-95027656D02*
X169095423Y-94822595D01*
X169731820Y-95458992D01*
X169526759Y-95664053D01*
X168890362Y-95027656D01*
X168890362Y-95027656D01*
G37*
G36*
X168536809Y-95381210D02*
X168741870Y-95176149D01*
X169378267Y-95812546D01*
X169173206Y-96017607D01*
X168536809Y-95381210D01*
X168536809Y-95381210D01*
G37*
G36*
X168183255Y-95734763D02*
X168388316Y-95529702D01*
X169024713Y-96166099D01*
X168819652Y-96371160D01*
X168183255Y-95734763D01*
X168183255Y-95734763D01*
G37*
G36*
X167829702Y-96088316D02*
X168034763Y-95883255D01*
X168671160Y-96519652D01*
X168466099Y-96724713D01*
X167829702Y-96088316D01*
X167829702Y-96088316D01*
G37*
G36*
X167476149Y-96441870D02*
X167681210Y-96236809D01*
X168317607Y-96873206D01*
X168112546Y-97078267D01*
X167476149Y-96441870D01*
X167476149Y-96441870D01*
G37*
G36*
X167122595Y-96795423D02*
X167327656Y-96590362D01*
X167964053Y-97226759D01*
X167758992Y-97431820D01*
X167122595Y-96795423D01*
X167122595Y-96795423D01*
G37*
G36*
X166769042Y-97148977D02*
X166974103Y-96943916D01*
X167610500Y-97580313D01*
X167405439Y-97785374D01*
X166769042Y-97148977D01*
X166769042Y-97148977D01*
G37*
G36*
X166415489Y-97502530D02*
X166620550Y-97297469D01*
X167256947Y-97933866D01*
X167051886Y-98138927D01*
X166415489Y-97502530D01*
X166415489Y-97502530D01*
G37*
G36*
X166769042Y-99065237D02*
X167405439Y-98428840D01*
X167610500Y-98633901D01*
X166974103Y-99270298D01*
X166769042Y-99065237D01*
X166769042Y-99065237D01*
G37*
G36*
X167829702Y-100125897D02*
X168466099Y-99489500D01*
X168671160Y-99694561D01*
X168034763Y-100330958D01*
X167829702Y-100125897D01*
X167829702Y-100125897D01*
G37*
G36*
X168961073Y-100048114D02*
X169166134Y-99843053D01*
X169802531Y-100479450D01*
X169597470Y-100684511D01*
X168961073Y-100048114D01*
X168961073Y-100048114D01*
G37*
G36*
X169314626Y-99694561D02*
X169519687Y-99489500D01*
X170156084Y-100125897D01*
X169951023Y-100330958D01*
X169314626Y-99694561D01*
X169314626Y-99694561D01*
G37*
G36*
X169668180Y-99341008D02*
X169873241Y-99135947D01*
X170509638Y-99772344D01*
X170304577Y-99977405D01*
X169668180Y-99341008D01*
X169668180Y-99341008D01*
G37*
G36*
X170021733Y-98987454D02*
X170226794Y-98782393D01*
X170863191Y-99418790D01*
X170658130Y-99623851D01*
X170021733Y-98987454D01*
X170021733Y-98987454D01*
G37*
G36*
X170375287Y-98633901D02*
X170580348Y-98428840D01*
X171216745Y-99065237D01*
X171011684Y-99270298D01*
X170375287Y-98633901D01*
X170375287Y-98633901D01*
G37*
G36*
X170728840Y-98280348D02*
X170933901Y-98075287D01*
X171570298Y-98711684D01*
X171365237Y-98916745D01*
X170728840Y-98280348D01*
X170728840Y-98280348D01*
G37*
G36*
X171082393Y-97926794D02*
X171287454Y-97721733D01*
X171923851Y-98358130D01*
X171718790Y-98563191D01*
X171082393Y-97926794D01*
X171082393Y-97926794D01*
G37*
G36*
X171435947Y-97573241D02*
X171641008Y-97368180D01*
X172277405Y-98004577D01*
X172072344Y-98209638D01*
X171435947Y-97573241D01*
X171435947Y-97573241D01*
G37*
G36*
X171789500Y-97219687D02*
X171994561Y-97014626D01*
X172630958Y-97651023D01*
X172425897Y-97856084D01*
X171789500Y-97219687D01*
X171789500Y-97219687D01*
G37*
G36*
X172143053Y-96866134D02*
X172348114Y-96661073D01*
X172984511Y-97297470D01*
X172779450Y-97502531D01*
X172143053Y-96866134D01*
X172143053Y-96866134D01*
G37*
G36*
X171789500Y-96166099D02*
X172425897Y-95529702D01*
X172630958Y-95734763D01*
X171994561Y-96371160D01*
X171789500Y-96166099D01*
X171789500Y-96166099D01*
G37*
G36*
X170694561Y-121028840D02*
X171330958Y-121665237D01*
X171125897Y-121870298D01*
X170489500Y-121233901D01*
X170694561Y-121028840D01*
X170694561Y-121028840D01*
G37*
G36*
X171479450Y-119897469D02*
X171684511Y-120102530D01*
X171048114Y-120738927D01*
X170843053Y-120533866D01*
X171479450Y-119897469D01*
X171479450Y-119897469D01*
G37*
G36*
X171125897Y-119543916D02*
X171330958Y-119748977D01*
X170694561Y-120385374D01*
X170489500Y-120180313D01*
X171125897Y-119543916D01*
X171125897Y-119543916D01*
G37*
G36*
X170772344Y-119190362D02*
X170977405Y-119395423D01*
X170341008Y-120031820D01*
X170135947Y-119826759D01*
X170772344Y-119190362D01*
X170772344Y-119190362D01*
G37*
G36*
X170418790Y-118836809D02*
X170623851Y-119041870D01*
X169987454Y-119678267D01*
X169782393Y-119473206D01*
X170418790Y-118836809D01*
X170418790Y-118836809D01*
G37*
G36*
X170065237Y-118483255D02*
X170270298Y-118688316D01*
X169633901Y-119324713D01*
X169428840Y-119119652D01*
X170065237Y-118483255D01*
X170065237Y-118483255D01*
G37*
G36*
X169711684Y-118129702D02*
X169916745Y-118334763D01*
X169280348Y-118971160D01*
X169075287Y-118766099D01*
X169711684Y-118129702D01*
X169711684Y-118129702D01*
G37*
G36*
X169358130Y-117776149D02*
X169563191Y-117981210D01*
X168926794Y-118617607D01*
X168721733Y-118412546D01*
X169358130Y-117776149D01*
X169358130Y-117776149D01*
G37*
G36*
X169004577Y-117422595D02*
X169209638Y-117627656D01*
X168573241Y-118264053D01*
X168368180Y-118058992D01*
X169004577Y-117422595D01*
X169004577Y-117422595D01*
G37*
G36*
X168651023Y-117069042D02*
X168856084Y-117274103D01*
X168219687Y-117910500D01*
X168014626Y-117705439D01*
X168651023Y-117069042D01*
X168651023Y-117069042D01*
G37*
G36*
X168297470Y-116715489D02*
X168502531Y-116920550D01*
X167866134Y-117556947D01*
X167661073Y-117351886D01*
X168297470Y-116715489D01*
X168297470Y-116715489D01*
G37*
G36*
X166734763Y-117069042D02*
X167371160Y-117705439D01*
X167166099Y-117910500D01*
X166529702Y-117274103D01*
X166734763Y-117069042D01*
X166734763Y-117069042D01*
G37*
G36*
X165674103Y-118129702D02*
X166310500Y-118766099D01*
X166105439Y-118971160D01*
X165469042Y-118334763D01*
X165674103Y-118129702D01*
X165674103Y-118129702D01*
G37*
G36*
X165751886Y-119261073D02*
X165956947Y-119466134D01*
X165320550Y-120102531D01*
X165115489Y-119897470D01*
X165751886Y-119261073D01*
X165751886Y-119261073D01*
G37*
G36*
X166105439Y-119614626D02*
X166310500Y-119819687D01*
X165674103Y-120456084D01*
X165469042Y-120251023D01*
X166105439Y-119614626D01*
X166105439Y-119614626D01*
G37*
G36*
X166458992Y-119968180D02*
X166664053Y-120173241D01*
X166027656Y-120809638D01*
X165822595Y-120604577D01*
X166458992Y-119968180D01*
X166458992Y-119968180D01*
G37*
G36*
X166812546Y-120321733D02*
X167017607Y-120526794D01*
X166381210Y-121163191D01*
X166176149Y-120958130D01*
X166812546Y-120321733D01*
X166812546Y-120321733D01*
G37*
G36*
X167166099Y-120675287D02*
X167371160Y-120880348D01*
X166734763Y-121516745D01*
X166529702Y-121311684D01*
X167166099Y-120675287D01*
X167166099Y-120675287D01*
G37*
G36*
X167519652Y-121028840D02*
X167724713Y-121233901D01*
X167088316Y-121870298D01*
X166883255Y-121665237D01*
X167519652Y-121028840D01*
X167519652Y-121028840D01*
G37*
G36*
X167873206Y-121382393D02*
X168078267Y-121587454D01*
X167441870Y-122223851D01*
X167236809Y-122018790D01*
X167873206Y-121382393D01*
X167873206Y-121382393D01*
G37*
G36*
X168226759Y-121735947D02*
X168431820Y-121941008D01*
X167795423Y-122577405D01*
X167590362Y-122372344D01*
X168226759Y-121735947D01*
X168226759Y-121735947D01*
G37*
G36*
X168580313Y-122089500D02*
X168785374Y-122294561D01*
X168148977Y-122930958D01*
X167943916Y-122725897D01*
X168580313Y-122089500D01*
X168580313Y-122089500D01*
G37*
G36*
X168933866Y-122443053D02*
X169138927Y-122648114D01*
X168502530Y-123284511D01*
X168297469Y-123079450D01*
X168933866Y-122443053D01*
X168933866Y-122443053D01*
G37*
G36*
X169633901Y-122089500D02*
X170270298Y-122725897D01*
X170065237Y-122930958D01*
X169428840Y-122294561D01*
X169633901Y-122089500D01*
X169633901Y-122089500D01*
G37*
D12*
X131900000Y-118500000D03*
D19*
X164500000Y-120300000D03*
X160141749Y-120550000D03*
X143200000Y-102500000D03*
X170600000Y-100600000D03*
X167600000Y-99500000D03*
X145900000Y-118400000D03*
X145900000Y-123400000D03*
X138970457Y-113821291D03*
X144500000Y-105400000D03*
X140326577Y-115259564D03*
X145200000Y-112100000D03*
X171360000Y-92280000D03*
X148584468Y-116823784D03*
X171000000Y-123800000D03*
X169300000Y-123800000D03*
X153937447Y-113672000D03*
X172300000Y-93800000D03*
X156200000Y-97100000D03*
X153400000Y-103499994D03*
X138064327Y-119800000D03*
X160300000Y-118700000D03*
X164581049Y-117115293D03*
X141800000Y-110900000D03*
X167132985Y-114978957D03*
X144400000Y-111400000D03*
X138900000Y-119800000D03*
X141801220Y-112718686D03*
X161200000Y-119128480D03*
X164320714Y-117980918D03*
X142728480Y-110220045D03*
X144628621Y-110407057D03*
X143871520Y-112722320D03*
X165051279Y-119249865D03*
X159838359Y-119768621D03*
X166299903Y-115071559D03*
X154953113Y-120877680D03*
X146677680Y-117071484D03*
X140300000Y-119900000D03*
X143168001Y-113643157D03*
X160800000Y-121600000D03*
X167500177Y-116685138D03*
X166600000Y-118200000D03*
X145300000Y-114500000D03*
X141200000Y-119700000D03*
X142376267Y-117334687D03*
X142013185Y-119903296D03*
X142900000Y-119754243D03*
X143000000Y-117900000D03*
X143978651Y-119849432D03*
X144000000Y-118300000D03*
X145000000Y-118400000D03*
X145000000Y-119800000D03*
X149300000Y-118413533D03*
X151660590Y-119010654D03*
X159300000Y-109800000D03*
X149909816Y-119583671D03*
X152600000Y-119000000D03*
X159400000Y-110700000D03*
X148200000Y-119700000D03*
X154203439Y-119128480D03*
X159400000Y-101800000D03*
X149100002Y-119800000D03*
X153881135Y-118354711D03*
D20*
X154700925Y-99969497D03*
X156437124Y-117714065D03*
X157446623Y-116264546D03*
X161523051Y-116737732D03*
D19*
X150798761Y-118205197D03*
X149314439Y-117270512D03*
D20*
X161045015Y-99054899D03*
D19*
X166628480Y-122826273D03*
X165748513Y-122052168D03*
D20*
X161996016Y-116045704D03*
X162767523Y-116433503D03*
X163540000Y-115990000D03*
X163625803Y-117020165D03*
X164677927Y-116277298D03*
D19*
X167765542Y-115528930D03*
D20*
X166452313Y-113928537D03*
D19*
X171857628Y-121152203D03*
X168600730Y-115600061D03*
D20*
X165607161Y-113704049D03*
D19*
X171877680Y-119499998D03*
D20*
X165605042Y-112865840D03*
D19*
X168568740Y-114461506D03*
X171400000Y-118800000D03*
X170626195Y-113868340D03*
D20*
X164700000Y-112900000D03*
D19*
X168342958Y-113629670D03*
D20*
X164787300Y-112029507D03*
D19*
X170093653Y-113052771D03*
X168075725Y-112835198D03*
D20*
X163783155Y-111316748D03*
D19*
X167532652Y-112061600D03*
X169500418Y-112258144D03*
D20*
X168599462Y-111502140D03*
X163528885Y-110173726D03*
X163700000Y-106699996D03*
D19*
X166495177Y-105779252D03*
D20*
X162917233Y-105773905D03*
D19*
X167700000Y-105700000D03*
X166594252Y-104946916D03*
D20*
X163900000Y-105500000D03*
D19*
X168400000Y-105000000D03*
X166601952Y-104108740D03*
D20*
X162988743Y-104630882D03*
D19*
X168700000Y-104100000D03*
X166418886Y-103290764D03*
D20*
X164208262Y-104233682D03*
D19*
X170000000Y-103200000D03*
X167306354Y-102919789D03*
D20*
X163633163Y-103623879D03*
D19*
X171817506Y-102760838D03*
X167686844Y-102144202D03*
D20*
X164510988Y-103080989D03*
D19*
X173267077Y-101291360D03*
D20*
X163925512Y-102481142D03*
D19*
X168792867Y-101271520D03*
X172977680Y-96300000D03*
X170358453Y-92669345D03*
X166675319Y-96370794D03*
D20*
X165449376Y-100142373D03*
D19*
X169867078Y-93345288D03*
X165600000Y-95900000D03*
D20*
X164496621Y-100273613D03*
D19*
X168922069Y-93557547D03*
X166415868Y-95227772D03*
D20*
X164914047Y-99035328D03*
D19*
X165856067Y-94536610D03*
X169500000Y-92500000D03*
D20*
X164080050Y-99148578D03*
D19*
X168616630Y-92415374D03*
X166500000Y-94000000D03*
D20*
X163435854Y-98612285D03*
D19*
X166000000Y-93100000D03*
X169000000Y-91500000D03*
D20*
X162933625Y-99319524D03*
D19*
X167900000Y-91477931D03*
X166600000Y-92400000D03*
D20*
X162207512Y-98900766D03*
X161835375Y-99815595D03*
X157346862Y-99771229D03*
X156760000Y-99071251D03*
X156138620Y-99719813D03*
X154142323Y-100591036D03*
X155029216Y-101160016D03*
X154063921Y-101911817D03*
X155450923Y-102278211D03*
X154700000Y-102980000D03*
X155731356Y-103448640D03*
D19*
X155156773Y-104173153D03*
X154248970Y-105773268D03*
X155030908Y-105311095D03*
D20*
X155987304Y-105757689D03*
X155591702Y-106504132D03*
X156597189Y-106791829D03*
X155849475Y-109450942D03*
X156328496Y-110253281D03*
X155461664Y-110744803D03*
X156058966Y-111396303D03*
X155122346Y-111940706D03*
X155733147Y-112537001D03*
X154988699Y-113106476D03*
X155449606Y-113806593D03*
X154616544Y-114288174D03*
X155152729Y-114949170D03*
X153934695Y-115269631D03*
X154471693Y-115922208D03*
X155025317Y-116551572D03*
X156216367Y-116414980D03*
X156875103Y-116999381D03*
D19*
X135776331Y-115600000D03*
X133594652Y-116102115D03*
X152917422Y-97531020D03*
X151166057Y-101236441D03*
X145898236Y-117379813D03*
X135328480Y-114440100D03*
X134276211Y-115023448D03*
X151700000Y-112900000D03*
X158300000Y-99000000D03*
D21*
X139300000Y-114700000D02*
X140251946Y-114700000D01*
X140251946Y-114700000D02*
X140326577Y-114774631D01*
X140326577Y-114774631D02*
X140326577Y-115259564D01*
X164500000Y-119579839D02*
X164500000Y-119815067D01*
X164500000Y-119815067D02*
X164500000Y-120300000D01*
X164355978Y-119435817D02*
X164500000Y-119579839D01*
X164430008Y-119213746D02*
X164355978Y-119435817D01*
X164430008Y-118890998D02*
X164430008Y-119213746D01*
X166950431Y-117489771D02*
X165831235Y-117489771D01*
X164624263Y-120424263D02*
X164500000Y-120300000D01*
X165831235Y-117489771D02*
X164430008Y-118890998D01*
X165500863Y-120424263D02*
X164624263Y-120424263D01*
X165889771Y-120035355D02*
X165500863Y-120424263D01*
X157691826Y-121505266D02*
X158647092Y-120550000D01*
X154100000Y-121000000D02*
X154605266Y-121505266D01*
X152000000Y-121600000D02*
X152600000Y-121000000D01*
X154605266Y-121505266D02*
X157691826Y-121505266D01*
X152600000Y-121000000D02*
X154100000Y-121000000D01*
X158647092Y-120550000D02*
X159656816Y-120550000D01*
X159656816Y-120550000D02*
X160141749Y-120550000D01*
X143200000Y-101700000D02*
X143200000Y-102500000D01*
X170425126Y-100600000D02*
X170600000Y-100600000D01*
X169735355Y-99910229D02*
X170425126Y-100600000D01*
X167189771Y-98849569D02*
X167189771Y-99089771D01*
X167189771Y-99089771D02*
X167600000Y-99500000D01*
X147242899Y-118057101D02*
X147300000Y-118000000D01*
X147300000Y-118000000D02*
X147300000Y-114700000D01*
X145900000Y-118400000D02*
X146242899Y-118057101D01*
X146242899Y-118057101D02*
X147242899Y-118057101D01*
X152000000Y-121600000D02*
X152000000Y-122300000D01*
X152000000Y-122300000D02*
X150900000Y-123400000D01*
X150900000Y-123400000D02*
X145900000Y-123400000D01*
X138250000Y-114150000D02*
X138641748Y-114150000D01*
X138641748Y-114150000D02*
X138970457Y-113821291D01*
X144250000Y-105150000D02*
X144500000Y-105400000D01*
X144250000Y-104250000D02*
X144250000Y-105150000D01*
X140267013Y-115200000D02*
X140326577Y-115259564D01*
X139300000Y-115200000D02*
X140267013Y-115200000D01*
X146250000Y-112150000D02*
X145250000Y-112150000D01*
X145250000Y-112150000D02*
X145200000Y-112100000D01*
X139300000Y-114700000D02*
X139630000Y-114700000D01*
X171017101Y-91937101D02*
X171360000Y-92280000D01*
X157400532Y-97100000D02*
X163644920Y-90855611D01*
X169935611Y-90855611D02*
X171017101Y-91937101D01*
X163644920Y-90855611D02*
X169935611Y-90855611D01*
X156200000Y-97100000D02*
X157400532Y-97100000D01*
X144493120Y-119155611D02*
X146737574Y-119155611D01*
X141552931Y-119131923D02*
X143483192Y-119131923D01*
X141498706Y-119077698D02*
X141552931Y-119131923D01*
X140600000Y-119204000D02*
X140726302Y-119077698D01*
X140726302Y-119077698D02*
X141498706Y-119077698D01*
X143483192Y-119131923D02*
X143578381Y-119227112D01*
X143578381Y-119227112D02*
X144421619Y-119227112D01*
X148584468Y-117308717D02*
X148584468Y-116823784D01*
X146737574Y-119155611D02*
X148584468Y-117308717D01*
X144421619Y-119227112D02*
X144493120Y-119155611D01*
X154099810Y-127265233D02*
X154665043Y-126700000D01*
X165659798Y-126700000D02*
X168859798Y-123500000D01*
X154665043Y-126700000D02*
X165659798Y-126700000D01*
X144600190Y-127265233D02*
X154099810Y-127265233D01*
X144034957Y-126700000D02*
X144600190Y-127265233D01*
X137000000Y-122300000D02*
X141400000Y-126700000D01*
X137000000Y-121600000D02*
X137000000Y-122300000D01*
X141400000Y-126700000D02*
X144034957Y-126700000D01*
X172642899Y-94142899D02*
X172300000Y-93800000D01*
X171000000Y-123800000D02*
X173889378Y-120910622D01*
X173889378Y-120910622D02*
X173889378Y-95389378D01*
X173889378Y-95389378D02*
X172642899Y-94142899D01*
X168859798Y-123500000D02*
X169000000Y-123500000D01*
X168859798Y-123500000D02*
X169849569Y-122510229D01*
X169000000Y-123500000D02*
X169300000Y-123800000D01*
X140573698Y-119177698D02*
X140600000Y-119204000D01*
X137026302Y-119177698D02*
X140573698Y-119177698D01*
X137000000Y-119204000D02*
X137026302Y-119177698D01*
X153915447Y-113650000D02*
X153937447Y-113672000D01*
X151850000Y-113650000D02*
X153915447Y-113650000D01*
X172300000Y-93800000D02*
X172300000Y-95860660D01*
X172300000Y-95860660D02*
X172210229Y-95950431D01*
X148800000Y-103200000D02*
X153100006Y-103200000D01*
X153100006Y-103200000D02*
X153400000Y-103499994D01*
X137750000Y-117750000D02*
X137750000Y-118454000D01*
X137750000Y-118454000D02*
X137000000Y-119204000D01*
X137000000Y-120346000D02*
X137000000Y-121600000D01*
X137000000Y-119204000D02*
X137000000Y-120346000D01*
D22*
X141800000Y-110415067D02*
X141800000Y-110900000D01*
X143654948Y-99500000D02*
X141800000Y-101354948D01*
X143702400Y-99500000D02*
X143654948Y-99500000D01*
X144250000Y-100047600D02*
X143702400Y-99500000D01*
X141800000Y-101354948D02*
X141800000Y-110415067D01*
X144250000Y-100650000D02*
X144250000Y-100047600D01*
X138000000Y-119864327D02*
X138064327Y-119800000D01*
X138000000Y-121600000D02*
X138000000Y-119864327D01*
X161314710Y-111776844D02*
X161314710Y-112269000D01*
X165246890Y-116934385D02*
X165065982Y-117115293D01*
X142033412Y-126333412D02*
X144171278Y-126333412D01*
X162647488Y-100890378D02*
X160990378Y-102547488D01*
X167189771Y-97364645D02*
X166800863Y-96975737D01*
X160323687Y-122476313D02*
X161600578Y-122476313D01*
X164063511Y-114816497D02*
X165246890Y-115999876D01*
X165065982Y-117115293D02*
X164581049Y-117115293D01*
X160990378Y-111452512D02*
X161314710Y-111776844D01*
X166095189Y-97232854D02*
X166095189Y-100304811D01*
X166095189Y-100304811D02*
X165609620Y-100790380D01*
X166800863Y-96975737D02*
X166352306Y-96975737D01*
X165246890Y-115999876D02*
X165246890Y-116934385D01*
X161600578Y-122476313D02*
X161950083Y-122126808D01*
X160956436Y-118528497D02*
X160784933Y-118700000D01*
X165609620Y-100790380D02*
X165247487Y-100790380D01*
X160784933Y-118700000D02*
X160300000Y-118700000D01*
X144747488Y-126909622D02*
X153952512Y-126909622D01*
X163862207Y-114816497D02*
X164063511Y-114816497D01*
X138000000Y-122300000D02*
X142033412Y-126333412D01*
X138000000Y-121600000D02*
X138000000Y-122300000D01*
X154528722Y-126333412D02*
X156466588Y-126333412D01*
X161455604Y-118528497D02*
X160956436Y-118528497D01*
X161950083Y-119022976D02*
X161455604Y-118528497D01*
X153952512Y-126909622D02*
X154528722Y-126333412D01*
X144171278Y-126333412D02*
X144747488Y-126909622D01*
X156466588Y-126333412D02*
X160323687Y-122476313D01*
X161314710Y-112269000D02*
X163862207Y-114816497D01*
X165247487Y-100790380D02*
X165147489Y-100890378D01*
X161950083Y-122126808D02*
X161950083Y-119022976D01*
X165147489Y-100890378D02*
X162647488Y-100890378D01*
X160990378Y-102547488D02*
X160990378Y-111452512D01*
X166352306Y-96975737D02*
X166095189Y-97232854D01*
X167814600Y-116171502D02*
X167743098Y-116100000D01*
X168435355Y-117489771D02*
X168824263Y-117100863D01*
X167132985Y-115463890D02*
X167132985Y-114978957D01*
X167132985Y-115862904D02*
X167132985Y-115463890D01*
X168471502Y-116171502D02*
X167814600Y-116171502D01*
X167743098Y-116100000D02*
X167370081Y-116100000D01*
X168824263Y-117100863D02*
X168824263Y-116524263D01*
X167370081Y-116100000D02*
X167132985Y-115862904D01*
X168824263Y-116524263D02*
X168471502Y-116171502D01*
X144700000Y-109500000D02*
X146302400Y-109500000D01*
X146302400Y-109500000D02*
X147300000Y-110497600D01*
X147300000Y-110497600D02*
X147300000Y-111100000D01*
X144057101Y-110142899D02*
X144700000Y-109500000D01*
X144400000Y-111400000D02*
X144057101Y-111057101D01*
X144057101Y-111057101D02*
X144057101Y-110142899D01*
X139000000Y-119900000D02*
X138900000Y-119800000D01*
X139000000Y-121600000D02*
X139000000Y-119900000D01*
X166400000Y-98154416D02*
X166662978Y-97891438D01*
X166400000Y-100468934D02*
X166400000Y-98154416D01*
X162773744Y-101195189D02*
X165673745Y-101195189D01*
X164503252Y-114514226D02*
X164145292Y-114514226D01*
X164145292Y-114514226D02*
X161619521Y-111988455D01*
X166300000Y-116310974D02*
X164503252Y-114514226D01*
X161295189Y-111326256D02*
X161295189Y-102673744D01*
X161619521Y-111988455D02*
X161619521Y-111650587D01*
X166662978Y-97891438D02*
X166836218Y-97718198D01*
X161295189Y-102673744D02*
X162773744Y-101195189D01*
X161619521Y-111650587D02*
X161295189Y-111326256D01*
X165673745Y-101195189D02*
X166400000Y-100468934D01*
X142728480Y-111791426D02*
X142144119Y-112375787D01*
X142144119Y-112375787D02*
X141801220Y-112718686D01*
X142728480Y-110220045D02*
X142728480Y-111791426D01*
X139000000Y-121600000D02*
X139000000Y-122300000D01*
X155071399Y-126028601D02*
X158928498Y-122171502D01*
X161542899Y-119471379D02*
X161200000Y-119128480D01*
X161542899Y-122102925D02*
X161542899Y-119471379D01*
X161474322Y-122171502D02*
X161542899Y-122102925D01*
X154402466Y-126028601D02*
X155071399Y-126028601D01*
X144297534Y-126028601D02*
X144873744Y-126604811D01*
X153826256Y-126604811D02*
X154402466Y-126028601D01*
X142728601Y-126028601D02*
X144297534Y-126028601D01*
X144873744Y-126604811D02*
X153826256Y-126604811D01*
X139000000Y-122300000D02*
X142728601Y-126028601D01*
X158928498Y-122171502D02*
X161474322Y-122171502D01*
X164805647Y-117980918D02*
X164320714Y-117980918D01*
X166300000Y-116310974D02*
X166300000Y-116486565D01*
X166300000Y-116486565D02*
X164805647Y-117980918D01*
X167514152Y-117525126D02*
X166300000Y-116310974D01*
X167692894Y-117525126D02*
X167514152Y-117525126D01*
X168081802Y-117136218D02*
X167692894Y-117525126D01*
X142385581Y-109877146D02*
X142728480Y-110220045D01*
X142385581Y-101507937D02*
X142385581Y-109877146D01*
X143243518Y-100650000D02*
X142385581Y-101507937D01*
X143750000Y-100650000D02*
X143243518Y-100650000D01*
X145321564Y-111100000D02*
X144971520Y-110749956D01*
X146800000Y-111100000D02*
X145321564Y-111100000D01*
X144971520Y-110749956D02*
X144628621Y-110407057D01*
X143750000Y-113795822D02*
X143871520Y-113674302D01*
X143871520Y-113674302D02*
X143871520Y-113207253D01*
X143871520Y-113207253D02*
X143871520Y-112722320D01*
X165536218Y-119681802D02*
X165104281Y-119249865D01*
X165104281Y-119249865D02*
X165051279Y-119249865D01*
X159353426Y-119768621D02*
X159838359Y-119768621D01*
X154953113Y-120877680D02*
X157816502Y-120877680D01*
X158925561Y-119768621D02*
X159353426Y-119768621D01*
X157816502Y-120877680D02*
X158925561Y-119768621D01*
X143750000Y-110681066D02*
X143750000Y-113795822D01*
X143750000Y-104250000D02*
X143750000Y-110681066D01*
X162424904Y-111573744D02*
X165579820Y-114728660D01*
X163557322Y-101804811D02*
X162020835Y-103341298D01*
X166786916Y-101804811D02*
X163557322Y-101804811D01*
X169381802Y-100263782D02*
X168945584Y-100700000D01*
X165957004Y-114728660D02*
X166299903Y-115071559D01*
X165579820Y-114728660D02*
X165957004Y-114728660D01*
X167891726Y-100700000D02*
X166786916Y-101804811D01*
X168945584Y-100700000D02*
X167891726Y-100700000D01*
X162020835Y-109689768D02*
X162424904Y-110093837D01*
X162424904Y-110093837D02*
X162424904Y-111573744D01*
X162020835Y-103341298D02*
X162020835Y-109689768D01*
X146800000Y-116949164D02*
X146677680Y-117071484D01*
X146800000Y-114700000D02*
X146800000Y-116949164D01*
X140000000Y-121600000D02*
X140000000Y-120200000D01*
X140000000Y-120200000D02*
X140300000Y-119900000D01*
X145900200Y-115302400D02*
X146502600Y-114700000D01*
X143750000Y-113795822D02*
X145256578Y-115302400D01*
X145256578Y-115302400D02*
X145900200Y-115302400D01*
X146502600Y-114700000D02*
X146800000Y-114700000D01*
X143300000Y-103597400D02*
X143300000Y-113026225D01*
X143200000Y-103497400D02*
X143300000Y-103597400D01*
X143200000Y-103200000D02*
X143200000Y-103497400D01*
X143168001Y-113158224D02*
X143168001Y-113643157D01*
X143300000Y-113026225D02*
X143168001Y-113158224D01*
X145000000Y-126300000D02*
X153400000Y-126300000D01*
X160315067Y-121600000D02*
X160800000Y-121600000D01*
X158100000Y-121600000D02*
X160315067Y-121600000D01*
X153400000Y-126300000D02*
X158100000Y-121600000D01*
X141000000Y-122300000D02*
X145000000Y-126300000D01*
X141000000Y-121600000D02*
X141000000Y-122300000D01*
X162900000Y-101500000D02*
X166660660Y-101500000D01*
X166660660Y-101500000D02*
X168250431Y-99910229D01*
X161600000Y-102800000D02*
X162900000Y-101500000D01*
X161600000Y-111200000D02*
X161600000Y-102800000D01*
X162100000Y-111700000D02*
X161600000Y-111200000D01*
X162120093Y-111700000D02*
X162100000Y-111700000D01*
X167500177Y-116685138D02*
X167105231Y-116685138D01*
X167105231Y-116685138D02*
X162120093Y-111700000D01*
X166249569Y-118550431D02*
X166600000Y-118200000D01*
X165889771Y-118550431D02*
X166249569Y-118550431D01*
X145300000Y-114500000D02*
X145400000Y-114500000D01*
X145400000Y-114500000D02*
X146250000Y-113650000D01*
X141000000Y-121600000D02*
X141000000Y-119900000D01*
X141000000Y-119900000D02*
X141200000Y-119700000D01*
X142376267Y-114953156D02*
X142376267Y-116849754D01*
X142376267Y-116849754D02*
X142376267Y-117334687D01*
X140799423Y-113676312D02*
X141099423Y-113676312D01*
X139723111Y-112600000D02*
X140799423Y-113676312D01*
X141099423Y-113676312D02*
X142376267Y-114953156D01*
X135900000Y-114200000D02*
X137500000Y-112600000D01*
X136218518Y-115200000D02*
X135900000Y-114881482D01*
X136700000Y-115200000D02*
X136218518Y-115200000D01*
X135900000Y-114881482D02*
X135900000Y-114200000D01*
X137500000Y-112600000D02*
X139723111Y-112600000D01*
X142000000Y-121600000D02*
X142000000Y-119916481D01*
X142000000Y-119916481D02*
X142013185Y-119903296D01*
X136700000Y-114700000D02*
X136700000Y-113900000D01*
X136700000Y-113900000D02*
X137655021Y-112944979D01*
X137655021Y-112944979D02*
X139637023Y-112944979D01*
X139637023Y-112944979D02*
X140673167Y-113981123D01*
X140673167Y-113981123D02*
X140950056Y-113981123D01*
X140950056Y-113981123D02*
X141628499Y-114659566D01*
X141628499Y-114659566D02*
X141628499Y-117645841D01*
X141628499Y-117645841D02*
X141925679Y-117943021D01*
X141925679Y-117943021D02*
X142472046Y-117943021D01*
X142472046Y-117943021D02*
X142515067Y-117900000D01*
X142515067Y-117900000D02*
X143000000Y-117900000D01*
X143000000Y-121600000D02*
X143000000Y-119854243D01*
X143000000Y-119854243D02*
X142900000Y-119754243D01*
X141323688Y-114799771D02*
X141323688Y-117772097D01*
X138099794Y-113249790D02*
X139510767Y-113249790D01*
X142023092Y-118471501D02*
X143343566Y-118471501D01*
X143343566Y-118471501D02*
X143515067Y-118300000D01*
X141323688Y-117772097D02*
X142023092Y-118471501D01*
X140546911Y-114285934D02*
X140809851Y-114285934D01*
X140809851Y-114285934D02*
X141323688Y-114799771D01*
X143515067Y-118300000D02*
X144000000Y-118300000D01*
X137750000Y-114150000D02*
X137750000Y-113599584D01*
X137750000Y-113599584D02*
X138099794Y-113249790D01*
X139510767Y-113249790D02*
X140546911Y-114285934D01*
X144000000Y-121600000D02*
X144000000Y-119870781D01*
X144000000Y-119870781D02*
X143978651Y-119849432D01*
X141018877Y-117618877D02*
X140100000Y-116700000D01*
X140100000Y-116700000D02*
X139300000Y-116700000D01*
X141018877Y-117898353D02*
X141018877Y-117618877D01*
X145000000Y-118400000D02*
X144657101Y-118742899D01*
X141896836Y-118776312D02*
X141018877Y-117898353D01*
X143630490Y-118776312D02*
X141896836Y-118776312D01*
X144274321Y-118871501D02*
X143725679Y-118871501D01*
X143725679Y-118871501D02*
X143630490Y-118776312D01*
X144657101Y-118742899D02*
X144402923Y-118742899D01*
X144402923Y-118742899D02*
X144274321Y-118871501D01*
X145000000Y-121600000D02*
X145000000Y-119800000D01*
X152003489Y-119353553D02*
X151660590Y-119010654D01*
X152087529Y-119353553D02*
X152003489Y-119353553D01*
X154457197Y-120096707D02*
X152830683Y-120096707D01*
X159361912Y-117969155D02*
X157329699Y-120001368D01*
X154552536Y-120001368D02*
X154457197Y-120096707D01*
X159361912Y-114969154D02*
X159361912Y-117969155D01*
X159971501Y-114359565D02*
X159361912Y-114969154D01*
X159971501Y-109986568D02*
X159971501Y-114359565D01*
X159300000Y-109800000D02*
X159784933Y-109800000D01*
X152830683Y-120096707D02*
X152087529Y-119353553D01*
X157329699Y-120001368D02*
X154552536Y-120001368D01*
X159784933Y-109800000D02*
X159971501Y-109986568D01*
X148815067Y-118413533D02*
X149300000Y-118413533D01*
X148533409Y-118695191D02*
X148815067Y-118413533D01*
X147752409Y-118695191D02*
X148533409Y-118695191D01*
X146000000Y-121600000D02*
X146000000Y-120447600D01*
X146000000Y-120447600D02*
X147752409Y-118695191D01*
X159057101Y-117842899D02*
X157203443Y-119696557D01*
X159057101Y-111042899D02*
X159057101Y-117842899D01*
X154422837Y-119700000D02*
X153300000Y-119700000D01*
X154426280Y-119696557D02*
X154422837Y-119700000D01*
X157203443Y-119696557D02*
X154426280Y-119696557D01*
X152942899Y-119342899D02*
X152600000Y-119000000D01*
X153300000Y-119700000D02*
X152942899Y-119342899D01*
X159400000Y-110700000D02*
X159057101Y-111042899D01*
X149566917Y-119240772D02*
X149909816Y-119583671D01*
X149454643Y-119128498D02*
X149566917Y-119240772D01*
X147000000Y-120054176D02*
X147925678Y-119128498D01*
X147925678Y-119128498D02*
X149454643Y-119128498D01*
X147000000Y-121600000D02*
X147000000Y-120054176D01*
X148000000Y-119900000D02*
X148200000Y-119700000D01*
X148000000Y-121600000D02*
X148000000Y-119900000D01*
X154688372Y-119128480D02*
X154203439Y-119128480D01*
X159400000Y-101800000D02*
X158595191Y-102604809D01*
X158595191Y-102604809D02*
X158595191Y-117573743D01*
X158595191Y-117573743D02*
X157040454Y-119128480D01*
X157040454Y-119128480D02*
X154688372Y-119128480D01*
X154700925Y-99969497D02*
X155185858Y-99969497D01*
X155185858Y-99969497D02*
X158255617Y-103039256D01*
X158255617Y-103039256D02*
X158255617Y-117482251D01*
X149000000Y-121600000D02*
X149000000Y-119900002D01*
X149000000Y-119900002D02*
X149100002Y-119800000D01*
X154275492Y-118354711D02*
X153881135Y-118354711D01*
X154511159Y-118590378D02*
X154275492Y-118354711D01*
X158255617Y-117482251D02*
X157147490Y-118590378D01*
X157147490Y-118590378D02*
X154511159Y-118590378D01*
X150481318Y-119857993D02*
X150481318Y-119302685D01*
X149922430Y-117646606D02*
X150240170Y-117328866D01*
X153705755Y-117328866D02*
X153855288Y-117478399D01*
X149922430Y-118743797D02*
X149922430Y-117646606D01*
X154281712Y-117478399D02*
X154622189Y-117818876D01*
X153855288Y-117478399D02*
X154281712Y-117478399D01*
X156332313Y-117818876D02*
X156437124Y-117714065D01*
X150240170Y-117328866D02*
X153705755Y-117328866D01*
X150000000Y-120339311D02*
X150481318Y-119857993D01*
X154622189Y-117818876D02*
X156332313Y-117818876D01*
X150481318Y-119302685D02*
X149922430Y-118743797D01*
X150000000Y-121600000D02*
X150000000Y-120339311D01*
X150786129Y-119176429D02*
X150786129Y-120233729D01*
X150786129Y-120233729D02*
X151000000Y-120447600D01*
X151000000Y-120447600D02*
X151000000Y-121600000D01*
X157021235Y-118285567D02*
X154657813Y-118285567D01*
X154657813Y-118285567D02*
X154155456Y-117783210D01*
X154155456Y-117783210D02*
X153729032Y-117783210D01*
X157446623Y-117860179D02*
X157021235Y-118285567D01*
X157446623Y-116264546D02*
X157446623Y-117860179D01*
X150227241Y-118617541D02*
X150786129Y-119176429D01*
X153579499Y-117633677D02*
X150400448Y-117633677D01*
X150400448Y-117633677D02*
X150227241Y-117806884D01*
X150227241Y-117806884D02*
X150227241Y-118617541D01*
X153729032Y-117783210D02*
X153579499Y-117633677D01*
X161802213Y-116737732D02*
X161523051Y-116737732D01*
X163595556Y-120772445D02*
X163595556Y-118531075D01*
X163595556Y-118531075D02*
X161802213Y-116737732D01*
X165594613Y-122771502D02*
X163595556Y-120772445D01*
X166354159Y-121692288D02*
X166354159Y-122254772D01*
X165837429Y-122771502D02*
X165594613Y-122771502D01*
X166354159Y-122254772D02*
X165837429Y-122771502D01*
X166950431Y-121096016D02*
X166354159Y-121692288D01*
X147800000Y-115302400D02*
X148402411Y-115904811D01*
X148402411Y-115904811D02*
X148473745Y-115904811D01*
X149314439Y-116745505D02*
X149314439Y-116785579D01*
X148473745Y-115904811D02*
X149314439Y-116745505D01*
X149314439Y-116785579D02*
X149314439Y-117270512D01*
X147800000Y-114700000D02*
X147800000Y-115302400D01*
X150798761Y-118690130D02*
X150798761Y-118205197D01*
X151088431Y-119054328D02*
X151088431Y-118979800D01*
X151090940Y-119056837D02*
X151088431Y-119054328D01*
X151932831Y-120304811D02*
X151090940Y-119462919D01*
X152607720Y-120304811D02*
X151932831Y-120304811D01*
X152704427Y-120401518D02*
X152607720Y-120304811D01*
X154583453Y-120401518D02*
X152704427Y-120401518D01*
X160995191Y-111888391D02*
X160995191Y-113935875D01*
X154678792Y-120306179D02*
X154583453Y-120401518D01*
X157455955Y-120306179D02*
X154678792Y-120306179D01*
X159666723Y-118095411D02*
X157455955Y-120306179D01*
X159666723Y-115264343D02*
X159666723Y-118095411D01*
X160995191Y-113935875D02*
X159666723Y-115264343D01*
X160685569Y-111578769D02*
X160995191Y-111888391D01*
X160685569Y-99414345D02*
X160685569Y-111578769D01*
X161045015Y-99054899D02*
X160685569Y-99414345D01*
X151090940Y-119462919D02*
X151090940Y-119056837D01*
X151088431Y-118979800D02*
X150798761Y-118690130D01*
X165405614Y-121709269D02*
X165748513Y-122052168D01*
X161996016Y-116045704D02*
X162198562Y-116248250D01*
X162198562Y-116706606D02*
X163900366Y-118408410D01*
X162198562Y-116248250D02*
X162198562Y-116706606D01*
X163900366Y-120646188D02*
X164963447Y-121709269D01*
X164963447Y-121709269D02*
X165405614Y-121709269D01*
X163900366Y-118408410D02*
X163900366Y-120646188D01*
X166915076Y-121838477D02*
X166915076Y-122539677D01*
X167303984Y-121449569D02*
X166915076Y-121838477D01*
X166915076Y-122539677D02*
X166628480Y-122826273D01*
X161148277Y-117309252D02*
X160951531Y-117112506D01*
X167268630Y-122631370D02*
X167200000Y-122700000D01*
X161781592Y-115304811D02*
X162123764Y-115304811D01*
X167102104Y-123397793D02*
X165497793Y-123397793D01*
X163290745Y-118653738D02*
X161946259Y-117309252D01*
X160951531Y-116134872D02*
X161781592Y-115304811D01*
X162767523Y-115948570D02*
X162767523Y-116433503D01*
X167200000Y-123299897D02*
X167102104Y-123397793D01*
X160951531Y-117112506D02*
X160951531Y-116134872D01*
X165497793Y-123397793D02*
X163290745Y-121190745D01*
X167657538Y-121803122D02*
X167268630Y-122192030D01*
X167268630Y-122192030D02*
X167268630Y-122631370D01*
X162123764Y-115304811D02*
X162767523Y-115948570D01*
X161946259Y-117309252D02*
X161148277Y-117309252D01*
X163290745Y-121190745D02*
X163290745Y-118653738D01*
X167200000Y-122700000D02*
X167200000Y-123299897D01*
X162550000Y-115000000D02*
X163197101Y-115647101D01*
X167228360Y-123702604D02*
X165264736Y-123702604D01*
X168011091Y-122156676D02*
X167622183Y-122545584D01*
X165264736Y-123702604D02*
X162948252Y-121386120D01*
X163197101Y-115647101D02*
X163540000Y-115990000D01*
X160646720Y-117238762D02*
X160646720Y-116008613D01*
X161655333Y-115000000D02*
X162550000Y-115000000D01*
X161022021Y-117614063D02*
X160646720Y-117238762D01*
X162948252Y-118738720D02*
X161823595Y-117614063D01*
X167622183Y-122545584D02*
X167622183Y-123308781D01*
X161823595Y-117614063D02*
X161022021Y-117614063D01*
X167622183Y-123308781D02*
X167228360Y-123702604D01*
X162948252Y-121386120D02*
X162948252Y-118738720D01*
X160646720Y-116008613D02*
X161655333Y-115000000D01*
X162628975Y-121497910D02*
X162628975Y-118846918D01*
X160341909Y-115882357D02*
X161824266Y-114400000D01*
X160895765Y-117918874D02*
X160341909Y-117365018D01*
X164108962Y-116537006D02*
X163968702Y-116677266D01*
X163813103Y-115421039D02*
X164108962Y-115716898D01*
X167975737Y-122899137D02*
X167975737Y-123386294D01*
X161824266Y-114400000D02*
X162500236Y-114400000D01*
X162500236Y-114400000D02*
X163521275Y-115421039D01*
X163968702Y-116677266D02*
X163625803Y-117020165D01*
X161700931Y-117918874D02*
X160895765Y-117918874D01*
X165138480Y-124007415D02*
X162628975Y-121497910D01*
X167354616Y-124007415D02*
X165138480Y-124007415D01*
X167975737Y-123386294D02*
X167354616Y-124007415D01*
X168364645Y-122510229D02*
X167975737Y-122899137D01*
X164108962Y-115716898D02*
X164108962Y-116537006D01*
X160341909Y-117365018D02*
X160341909Y-115882357D01*
X162628975Y-118846918D02*
X161700931Y-117918874D01*
X163521275Y-115421039D02*
X163813103Y-115421039D01*
X164677927Y-115858388D02*
X164677927Y-116277298D01*
X162638644Y-114026256D02*
X163731156Y-115118768D01*
X163731156Y-115118768D02*
X163938307Y-115118768D01*
X160037098Y-115325035D02*
X161335877Y-114026256D01*
X161578267Y-118223685D02*
X160769509Y-118223685D01*
X167544664Y-124312226D02*
X165012224Y-124312226D01*
X162288450Y-121588452D02*
X162288450Y-118933868D01*
X168329290Y-123252690D02*
X168329290Y-123527600D01*
X168718198Y-122863782D02*
X168329290Y-123252690D01*
X162288450Y-118933868D02*
X161578267Y-118223685D01*
X161335877Y-114026256D02*
X162638644Y-114026256D01*
X168329290Y-123527600D02*
X167544664Y-124312226D01*
X160037098Y-117491274D02*
X160037098Y-115325035D01*
X163938307Y-115118768D02*
X164677927Y-115858388D01*
X165012224Y-124312226D02*
X162288450Y-121588452D01*
X160769509Y-118223685D02*
X160037098Y-117491274D01*
X167407307Y-114407455D02*
X167704487Y-114704635D01*
X166452313Y-113928537D02*
X166931231Y-114407455D01*
X167765542Y-115043997D02*
X167765542Y-115528930D01*
X167704487Y-114704635D02*
X167704487Y-114982942D01*
X166931231Y-114407455D02*
X167407307Y-114407455D01*
X167704487Y-114982942D02*
X167765542Y-115043997D01*
X171857628Y-120912044D02*
X171857628Y-121152203D01*
X171263782Y-120318198D02*
X171857628Y-120912044D01*
X165954175Y-113357035D02*
X166725903Y-113357035D01*
X167533563Y-114102644D02*
X168009298Y-114578379D01*
X168009298Y-114578379D02*
X168009298Y-114841108D01*
X167471512Y-114102644D02*
X167533563Y-114102644D01*
X168600730Y-115432540D02*
X168600730Y-115600061D01*
X166725903Y-113357035D02*
X167471512Y-114102644D01*
X168009298Y-114841108D02*
X168600730Y-115432540D01*
X165607161Y-113704049D02*
X165954175Y-113357035D01*
X171374876Y-119499998D02*
X171392747Y-119499998D01*
X171392747Y-119499998D02*
X171877680Y-119499998D01*
X170910229Y-119964645D02*
X171374876Y-119499998D01*
X165605042Y-112865840D02*
X166665775Y-112865840D01*
X167586343Y-113718877D02*
X168328972Y-114461506D01*
X166665775Y-112865840D02*
X167518812Y-113718877D01*
X168328972Y-114461506D02*
X168568740Y-114461506D01*
X167518812Y-113718877D02*
X167586343Y-113718877D01*
X171367767Y-118800000D02*
X171400000Y-118800000D01*
X170556676Y-119611091D02*
X171367767Y-118800000D01*
X166525340Y-112294338D02*
X165330720Y-112294338D01*
X170626195Y-118834465D02*
X170626195Y-114353273D01*
X165067957Y-112557101D02*
X165042899Y-112557101D01*
X167645068Y-113414066D02*
X166525340Y-112294338D01*
X165042899Y-112557101D02*
X164700000Y-112900000D01*
X168342958Y-113629670D02*
X168127354Y-113414066D01*
X170626195Y-114353273D02*
X170626195Y-113868340D01*
X168127354Y-113414066D02*
X167645068Y-113414066D01*
X170203122Y-119257538D02*
X170626195Y-118834465D01*
X165330720Y-112294338D02*
X165067957Y-112557101D01*
X167497999Y-112835198D02*
X166652328Y-111989527D01*
X170093653Y-113537704D02*
X170093653Y-113052771D01*
X170238477Y-118515076D02*
X170238477Y-114738477D01*
X169849569Y-118903984D02*
X170238477Y-118515076D01*
X170054675Y-114554675D02*
X170054675Y-113576682D01*
X166652328Y-111989527D02*
X164827280Y-111989527D01*
X170238477Y-114738477D02*
X170054675Y-114554675D01*
X164827280Y-111989527D02*
X164787300Y-112029507D01*
X170054675Y-113576682D02*
X170093653Y-113537704D01*
X168075725Y-112835198D02*
X167497999Y-112835198D01*
X167532652Y-112061600D02*
X166929057Y-111458005D01*
X166929057Y-111458005D02*
X164409345Y-111458005D01*
X164409345Y-111458005D02*
X164268088Y-111316748D01*
X164268088Y-111316748D02*
X163783155Y-111316748D01*
X169749864Y-114695574D02*
X169749864Y-113934672D01*
X169500418Y-113076255D02*
X169500418Y-112743077D01*
X169500418Y-112743077D02*
X169500418Y-112258144D01*
X169496016Y-118550431D02*
X169884924Y-118161523D01*
X169524081Y-113708889D02*
X169524081Y-113099918D01*
X169524081Y-113099918D02*
X169500418Y-113076255D01*
X169884924Y-118161523D02*
X169884924Y-114830634D01*
X169884924Y-114830634D02*
X169749864Y-114695574D01*
X169749864Y-113934672D02*
X169524081Y-113708889D01*
X169219270Y-113226174D02*
X168964275Y-112971180D01*
X169445053Y-114060928D02*
X169219270Y-113835146D01*
X168964275Y-112456099D02*
X168599462Y-112091286D01*
X168964275Y-112971180D02*
X168964275Y-112456099D01*
X169142462Y-118196878D02*
X169531370Y-117807970D01*
X168599462Y-111987073D02*
X168599462Y-111502140D01*
X169531370Y-114948401D02*
X169445053Y-114862084D01*
X168599462Y-112091286D02*
X168599462Y-111987073D01*
X169531370Y-117807970D02*
X169531370Y-114948401D01*
X169445053Y-114862084D02*
X169445053Y-114060928D01*
X169219270Y-113835146D02*
X169219270Y-113226174D01*
X168659464Y-112582355D02*
X168104154Y-112027045D01*
X168914459Y-113352430D02*
X168659464Y-113097435D01*
X168104154Y-111787278D02*
X167470070Y-111153194D01*
X167470070Y-111153194D02*
X164599017Y-111153194D01*
X168104154Y-112027045D02*
X168104154Y-111787278D01*
X163962448Y-110516625D02*
X163871784Y-110516625D01*
X168659464Y-113097435D02*
X168659464Y-112582355D01*
X168914459Y-113961401D02*
X168914459Y-113352430D01*
X164599017Y-111153194D02*
X163962448Y-110516625D01*
X168788909Y-117843324D02*
X169177817Y-117454416D01*
X169177817Y-115031995D02*
X169140242Y-114994420D01*
X169177817Y-117454416D02*
X169177817Y-115031995D01*
X169140242Y-114994420D02*
X169140242Y-114187184D01*
X169140242Y-114187184D02*
X168914459Y-113961401D01*
X163871784Y-110516625D02*
X163528885Y-110173726D01*
X171171502Y-100874322D02*
X170874322Y-101171502D01*
X170088909Y-99556676D02*
X170560731Y-100028498D01*
X167371502Y-104974322D02*
X167071502Y-105274322D01*
X171171502Y-100325678D02*
X171171502Y-100874322D01*
X164184933Y-106699996D02*
X163700000Y-106699996D01*
X167071501Y-106012534D02*
X166384039Y-106699996D01*
X167371502Y-103700463D02*
X167371502Y-104974322D01*
X170874322Y-100028498D02*
X171171502Y-100325678D01*
X167877855Y-103107076D02*
X167877855Y-103194110D01*
X166384039Y-106699996D02*
X164184933Y-106699996D01*
X170560731Y-100028498D02*
X170874322Y-100028498D01*
X167877855Y-103194110D02*
X167371502Y-103700463D01*
X167071502Y-105274322D02*
X167071501Y-106012534D01*
X169813429Y-101171502D02*
X167877855Y-103107076D01*
X170874322Y-101171502D02*
X169813429Y-101171502D01*
X171476313Y-100199422D02*
X170868921Y-99592030D01*
X170015731Y-101476313D02*
X171000578Y-101476313D01*
X171000578Y-101476313D02*
X171476313Y-101000578D01*
X168182666Y-103320366D02*
X168182666Y-103309378D01*
X167700000Y-103803032D02*
X168182666Y-103320366D01*
X163260132Y-106116804D02*
X166157625Y-106116804D01*
X170868921Y-99592030D02*
X170831370Y-99592030D01*
X170831370Y-99592030D02*
X170442462Y-99203122D01*
X168182666Y-103309378D02*
X170015731Y-101476313D01*
X167700000Y-105700000D02*
X167700000Y-103803032D01*
X166157625Y-106116804D02*
X166495177Y-105779252D01*
X162917233Y-105773905D02*
X163260132Y-106116804D01*
X171476313Y-101000578D02*
X171476313Y-100199422D01*
X171126834Y-101781124D02*
X171781124Y-101126834D01*
X171781124Y-99834677D02*
X171184924Y-99238477D01*
X170141987Y-101781124D02*
X171126834Y-101781124D01*
X168487477Y-103435634D02*
X170141987Y-101781124D01*
X171781124Y-101126834D02*
X171781124Y-99834677D01*
X168057101Y-103876997D02*
X168487477Y-103446622D01*
X168487477Y-103446622D02*
X168487477Y-103435634D01*
X168400000Y-105000000D02*
X168057101Y-104657101D01*
X171184924Y-99238477D02*
X170796016Y-98849569D01*
X165515067Y-105500000D02*
X166068151Y-104946916D01*
X166068151Y-104946916D02*
X166109319Y-104946916D01*
X163900000Y-105500000D02*
X165515067Y-105500000D01*
X168057101Y-104657101D02*
X168057101Y-103876997D01*
X166109319Y-104946916D02*
X166594252Y-104946916D01*
X166117019Y-104108740D02*
X166601952Y-104108740D01*
X163753727Y-104910933D02*
X165304134Y-104910933D01*
X162988743Y-104630882D02*
X163473676Y-104630882D01*
X165304134Y-104910933D02*
X166106327Y-104108740D01*
X166106327Y-104108740D02*
X166117019Y-104108740D01*
X163473676Y-104630882D02*
X163753727Y-104910933D01*
X169042899Y-103757101D02*
X169042899Y-103311279D01*
X172085935Y-99432382D02*
X171538477Y-98884924D01*
X170268243Y-102085935D02*
X171253090Y-102085935D01*
X172085935Y-101253090D02*
X172085935Y-99432382D01*
X169042899Y-103311279D02*
X170268243Y-102085935D01*
X168700000Y-104100000D02*
X169042899Y-103757101D01*
X171253090Y-102085935D02*
X172085935Y-101253090D01*
X171538477Y-98884924D02*
X171149569Y-98496016D01*
X164208262Y-104233682D02*
X165475968Y-104233682D01*
X166075987Y-103633663D02*
X166418886Y-103290764D01*
X165475968Y-104233682D02*
X166075987Y-103633663D01*
X171892030Y-98531370D02*
X171503122Y-98142462D01*
X172390746Y-99030086D02*
X171892030Y-98531370D01*
X172390746Y-101379346D02*
X172390746Y-99030086D01*
X170570092Y-103200000D02*
X172390746Y-101379346D01*
X170000000Y-103200000D02*
X170570092Y-103200000D01*
X163633163Y-103623879D02*
X164118096Y-103623879D01*
X164785311Y-103652492D02*
X165718559Y-102719244D01*
X165718559Y-102719244D02*
X167105809Y-102719244D01*
X167105809Y-102719244D02*
X167306354Y-102919789D01*
X164118096Y-103623879D02*
X164146709Y-103652492D01*
X164146709Y-103652492D02*
X164785311Y-103652492D01*
X172695557Y-98627790D02*
X172695557Y-101882787D01*
X172160405Y-102417939D02*
X171817506Y-102760838D01*
X172695557Y-101882787D02*
X172160405Y-102417939D01*
X171856676Y-97788909D02*
X172695557Y-98627790D01*
X165177544Y-102414433D02*
X167039428Y-102414433D01*
X164510988Y-103080989D02*
X165177544Y-102414433D01*
X167039428Y-102414433D02*
X167309658Y-102144202D01*
X167309658Y-102144202D02*
X167686844Y-102144202D01*
X173267077Y-100806427D02*
X173267077Y-101291360D01*
X173267077Y-98492203D02*
X173267077Y-100806427D01*
X172210229Y-97435355D02*
X173267077Y-98492203D01*
X164297032Y-102109622D02*
X164268411Y-102138243D01*
X164268411Y-102138243D02*
X163925512Y-102481142D01*
X166913172Y-102109622D02*
X164297032Y-102109622D01*
X167751274Y-101271520D02*
X166913172Y-102109622D01*
X168792867Y-101271520D02*
X167751274Y-101271520D01*
X172977680Y-96667904D02*
X172977680Y-96300000D01*
X172563782Y-97081802D02*
X172977680Y-96667904D01*
X170701352Y-93012244D02*
X170358453Y-92669345D01*
X170701352Y-93853064D02*
X170701352Y-93012244D01*
X170018198Y-94536218D02*
X170701352Y-93853064D01*
X166190386Y-96370794D02*
X166675319Y-96370794D01*
X165790378Y-96770802D02*
X166190386Y-96370794D01*
X165790378Y-99801371D02*
X165790378Y-96770802D01*
X165449376Y-100142373D02*
X165790378Y-99801371D01*
X169524179Y-93801259D02*
X169524179Y-93688187D01*
X169275737Y-94049701D02*
X169524179Y-93801259D01*
X169524179Y-93688187D02*
X169867078Y-93345288D01*
X169664645Y-94889771D02*
X169275737Y-94500863D01*
X169275737Y-94500863D02*
X169275737Y-94049701D01*
X165257101Y-96242899D02*
X165600000Y-95900000D01*
X165257101Y-98192766D02*
X165257101Y-96242899D01*
X164496621Y-100273613D02*
X165485567Y-99284667D01*
X165485567Y-99284667D02*
X165485567Y-98421232D01*
X165485567Y-98421232D02*
X165257101Y-98192766D01*
X169311091Y-95243324D02*
X168922069Y-94854302D01*
X168922069Y-94854302D02*
X168922069Y-94042480D01*
X168922069Y-94042480D02*
X168922069Y-93557547D01*
X165082674Y-94871502D02*
X165345135Y-94871502D01*
X164914047Y-99035328D02*
X164914047Y-95040129D01*
X165345135Y-94871502D02*
X165701405Y-95227772D01*
X164914047Y-95040129D02*
X165082674Y-94871502D01*
X165701405Y-95227772D02*
X165930935Y-95227772D01*
X165930935Y-95227772D02*
X166415868Y-95227772D01*
X169034929Y-92842899D02*
X169157101Y-92842899D01*
X168583216Y-92986876D02*
X168890952Y-92986876D01*
X168323688Y-94686988D02*
X168323688Y-93246404D01*
X168568630Y-94931930D02*
X168323688Y-94686988D01*
X168957538Y-95596878D02*
X168568630Y-95207970D01*
X168323688Y-93246404D02*
X168583216Y-92986876D01*
X168890952Y-92986876D02*
X169034929Y-92842899D01*
X168568630Y-95207970D02*
X168568630Y-94931930D01*
X169157101Y-92842899D02*
X169500000Y-92500000D01*
X164080050Y-95415351D02*
X164958791Y-94536610D01*
X165371134Y-94536610D02*
X165856067Y-94536610D01*
X164958791Y-94536610D02*
X165371134Y-94536610D01*
X164080050Y-99148578D02*
X164080050Y-95415351D01*
X168273731Y-92865294D02*
X168273731Y-92758273D01*
X168018877Y-93120148D02*
X168273731Y-92865294D01*
X168603984Y-95950431D02*
X168251628Y-95598075D01*
X168251628Y-95045995D02*
X168018877Y-94813244D01*
X168018877Y-94813244D02*
X168018877Y-93120148D01*
X168273731Y-92758273D02*
X168616630Y-92415374D01*
X168251628Y-95598075D02*
X168251628Y-95045995D01*
X165207355Y-93671502D02*
X166171502Y-93671502D01*
X163435854Y-95443003D02*
X165207355Y-93671502D01*
X163435854Y-98612285D02*
X163435854Y-95443003D01*
X166171502Y-93671502D02*
X166500000Y-94000000D01*
X168657101Y-91842899D02*
X169000000Y-91500000D01*
X167781124Y-92926834D02*
X167781124Y-92442629D01*
X167714066Y-94939500D02*
X167714066Y-92993892D01*
X167946817Y-95172251D02*
X167714066Y-94939500D01*
X167781124Y-92442629D02*
X168380854Y-91842899D01*
X168380854Y-91842899D02*
X168657101Y-91842899D01*
X167946817Y-96000370D02*
X167946817Y-95172251D01*
X168250431Y-96303984D02*
X167946817Y-96000370D01*
X167714066Y-92993892D02*
X167781124Y-92926834D01*
X165515067Y-93100000D02*
X166000000Y-93100000D01*
X165315067Y-93100000D02*
X165515067Y-93100000D01*
X162864353Y-99250252D02*
X162864353Y-95550714D01*
X162864353Y-95550714D02*
X165315067Y-93100000D01*
X162933625Y-99319524D02*
X162864353Y-99250252D01*
X167601092Y-96361752D02*
X167601092Y-95257593D01*
X167557101Y-91820830D02*
X167900000Y-91477931D01*
X167409255Y-92867636D02*
X167476313Y-92800578D01*
X167409255Y-95065756D02*
X167409255Y-92867636D01*
X167896878Y-96657538D02*
X167601092Y-96361752D01*
X167476313Y-92800578D02*
X167476313Y-91901618D01*
X167476313Y-91901618D02*
X167557101Y-91820830D01*
X167601092Y-95257593D02*
X167409255Y-95065756D01*
X162207512Y-95707555D02*
X165515067Y-92400000D01*
X162207512Y-98900766D02*
X162207512Y-95707555D01*
X166115067Y-92400000D02*
X166600000Y-92400000D01*
X165515067Y-92400000D02*
X166115067Y-92400000D01*
X167171502Y-91345958D02*
X167036766Y-91211222D01*
X167247539Y-95335107D02*
X167104444Y-95192012D01*
X161619606Y-94834572D02*
X161619606Y-99599826D01*
X165242956Y-91211222D02*
X161619606Y-94834572D01*
X161619606Y-99599826D02*
X161835375Y-99815595D01*
X167171502Y-92674322D02*
X167171502Y-91345958D01*
X167104444Y-95192012D02*
X167104444Y-92741380D01*
X167036766Y-91211222D02*
X165242956Y-91211222D01*
X167247539Y-96715306D02*
X167247539Y-95335107D01*
X167543324Y-97011091D02*
X167247539Y-96715306D01*
X167104444Y-92741380D02*
X167171502Y-92674322D01*
X157346862Y-99771229D02*
X157346862Y-98714796D01*
X145250000Y-100047600D02*
X145250000Y-100650000D01*
X157346862Y-98714796D02*
X157134337Y-98502271D01*
X145250000Y-99350000D02*
X145250000Y-100047600D01*
X149139646Y-98202271D02*
X146397728Y-98202271D01*
X149439646Y-98502271D02*
X149139646Y-98202271D01*
X146397728Y-98202271D02*
X145250000Y-99350000D01*
X157134337Y-98502271D02*
X149439646Y-98502271D01*
X156109609Y-98804542D02*
X149314442Y-98804542D01*
X145750000Y-100047600D02*
X145750000Y-100650000D01*
X145750000Y-99277474D02*
X145750000Y-100047600D01*
X146522932Y-98504542D02*
X145750000Y-99277474D01*
X149014442Y-98504542D02*
X146522932Y-98504542D01*
X156760000Y-98970000D02*
X156275067Y-98970000D01*
X156275067Y-98970000D02*
X156109609Y-98804542D01*
X156760000Y-99071251D02*
X156760000Y-98970000D01*
X149314442Y-98804542D02*
X149014442Y-98504542D01*
X155525620Y-99106813D02*
X149189238Y-99106813D01*
X146250000Y-99350000D02*
X146250000Y-100047600D01*
X146250000Y-100047600D02*
X146250000Y-100650000D01*
X148889238Y-98806813D02*
X146793187Y-98806813D01*
X149189238Y-99106813D02*
X148889238Y-98806813D01*
X156138620Y-99719813D02*
X155525620Y-99106813D01*
X146793187Y-98806813D02*
X146250000Y-99350000D01*
X146750000Y-100650000D02*
X146750000Y-100047600D01*
X147502142Y-99295458D02*
X148950408Y-99295458D01*
X146750000Y-100047600D02*
X147502142Y-99295458D01*
X153799424Y-100248137D02*
X154142323Y-100591036D01*
X149064034Y-99409084D02*
X152960371Y-99409084D01*
X152960371Y-99409084D02*
X153799424Y-100248137D01*
X148950408Y-99295458D02*
X149064034Y-99409084D01*
X147250000Y-100650000D02*
X147250000Y-100047600D01*
X152540381Y-100040381D02*
X153660016Y-101160016D01*
X147699871Y-99597729D02*
X148825204Y-99597729D01*
X154544283Y-101160016D02*
X155029216Y-101160016D01*
X147250000Y-100047600D02*
X147699871Y-99597729D01*
X149267855Y-100040381D02*
X152540381Y-100040381D01*
X148825204Y-99597729D02*
X149267855Y-100040381D01*
X153660016Y-101160016D02*
X154544283Y-101160016D01*
X147750000Y-100047600D02*
X147897600Y-99900000D01*
X151514125Y-100345191D02*
X153080751Y-101911817D01*
X147897600Y-99900000D02*
X148700000Y-99900000D01*
X153578988Y-101911817D02*
X154063921Y-101911817D01*
X147750000Y-100650000D02*
X147750000Y-100047600D01*
X148700000Y-99900000D02*
X149145191Y-100345191D01*
X149145191Y-100345191D02*
X151514125Y-100345191D01*
X153080751Y-101911817D02*
X153578988Y-101911817D01*
X153280879Y-102543011D02*
X154324924Y-102543011D01*
X154965990Y-102278211D02*
X155450923Y-102278211D01*
X151387868Y-100650000D02*
X153280879Y-102543011D01*
X154589724Y-102278211D02*
X154965990Y-102278211D01*
X154324924Y-102543011D02*
X154589724Y-102278211D01*
X148250000Y-100650000D02*
X151387868Y-100650000D01*
X154357101Y-103322899D02*
X154700000Y-102980000D01*
X154357101Y-103352897D02*
X154357101Y-103322899D01*
X148250000Y-104250000D02*
X153459998Y-104250000D01*
X153459998Y-104250000D02*
X154357101Y-103352897D01*
X155083104Y-103608963D02*
X155243427Y-103448640D01*
X147997600Y-105100000D02*
X153276889Y-105100000D01*
X147750000Y-104250000D02*
X147750000Y-104852400D01*
X154767926Y-103608963D02*
X155083104Y-103608963D01*
X155243427Y-103448640D02*
X155246423Y-103448640D01*
X153276889Y-105100000D02*
X154767926Y-103608963D01*
X147750000Y-104852400D02*
X147997600Y-105100000D01*
X155246423Y-103448640D02*
X155731356Y-103448640D01*
X147802411Y-105404811D02*
X153415505Y-105404811D01*
X153415505Y-105404811D02*
X154647163Y-104173153D01*
X154647163Y-104173153D02*
X154671840Y-104173153D01*
X147250000Y-104250000D02*
X147250000Y-104852400D01*
X154671840Y-104173153D02*
X155156773Y-104173153D01*
X147250000Y-104852400D02*
X147802411Y-105404811D01*
X153764037Y-105773268D02*
X154248970Y-105773268D01*
X146750000Y-104852400D02*
X147670868Y-105773268D01*
X147670868Y-105773268D02*
X153764037Y-105773268D01*
X146750000Y-104250000D02*
X146750000Y-104852400D01*
X154481992Y-106344944D02*
X155030908Y-105796028D01*
X153974869Y-106344944D02*
X154481992Y-106344944D01*
X147735849Y-106338249D02*
X153968174Y-106338249D01*
X155030908Y-105796028D02*
X155030908Y-105311095D01*
X153968174Y-106338249D02*
X153974869Y-106344944D01*
X146250000Y-104250000D02*
X146250000Y-104852400D01*
X146250000Y-104852400D02*
X147735849Y-106338249D01*
X155020200Y-106279322D02*
X155020200Y-106239860D01*
X147540660Y-106643060D02*
X153841918Y-106643060D01*
X155020200Y-106239860D02*
X155502371Y-105757689D01*
X145750000Y-104250000D02*
X145750000Y-104852400D01*
X154649767Y-106649755D02*
X155020200Y-106279322D01*
X153841918Y-106643060D02*
X153848613Y-106649755D01*
X145750000Y-104852400D02*
X147540660Y-106643060D01*
X153848613Y-106649755D02*
X154649767Y-106649755D01*
X155502371Y-105757689D02*
X155987304Y-105757689D01*
X153715662Y-106947871D02*
X153722357Y-106954566D01*
X147345471Y-106947871D02*
X153715662Y-106947871D01*
X145250000Y-104852400D02*
X147345471Y-106947871D01*
X145250000Y-104250000D02*
X145250000Y-104852400D01*
X155248803Y-106847031D02*
X155591702Y-106504132D01*
X155141268Y-106954566D02*
X155248803Y-106847031D01*
X153722357Y-106954566D02*
X155141268Y-106954566D01*
X156254290Y-107134728D02*
X156597189Y-106791829D01*
X156129641Y-107259377D02*
X156254290Y-107134728D01*
X153596101Y-107259377D02*
X156129641Y-107259377D01*
X153589406Y-107252682D02*
X153596101Y-107259377D01*
X147174184Y-107252682D02*
X153589406Y-107252682D01*
X144750000Y-104250000D02*
X144750000Y-104828498D01*
X144750000Y-104828498D02*
X147174184Y-107252682D01*
X155506576Y-109108043D02*
X155849475Y-109450942D01*
X150026466Y-108271134D02*
X152357536Y-108271134D01*
X147800000Y-110497600D02*
X150026466Y-108271134D01*
X147800000Y-111100000D02*
X147800000Y-110497600D01*
X152357536Y-108271134D02*
X152581591Y-108495189D01*
X152581591Y-108495189D02*
X154893722Y-108495189D01*
X154893722Y-108495189D02*
X155506576Y-109108043D01*
X148300000Y-110497600D02*
X148300000Y-111100000D01*
X148300000Y-110444665D02*
X148300000Y-110497600D01*
X150168720Y-108575945D02*
X148300000Y-110444665D01*
X152231280Y-108575945D02*
X150168720Y-108575945D01*
X152755334Y-109100000D02*
X152231280Y-108575945D01*
X154690282Y-109100000D02*
X152755334Y-109100000D01*
X155843563Y-110253281D02*
X154690282Y-109100000D01*
X156328496Y-110253281D02*
X155843563Y-110253281D01*
X155118765Y-110401904D02*
X155461664Y-110744803D01*
X154121672Y-109404811D02*
X155118765Y-110401904D01*
X152629079Y-109404811D02*
X154121672Y-109404811D01*
X152105024Y-108880756D02*
X152629079Y-109404811D01*
X150294976Y-108880756D02*
X152105024Y-108880756D01*
X148800000Y-110375732D02*
X150294976Y-108880756D01*
X148800000Y-111100000D02*
X148800000Y-110375732D01*
X150421232Y-109185567D02*
X149300000Y-110306799D01*
X155574033Y-111396303D02*
X155494036Y-111316306D01*
X156058966Y-111396303D02*
X155574033Y-111396303D01*
X155187342Y-111316306D02*
X153580658Y-109709622D01*
X152502822Y-109709622D02*
X151978768Y-109185567D01*
X149300000Y-110306799D02*
X149300000Y-110497600D01*
X155494036Y-111316306D02*
X155187342Y-111316306D01*
X151978768Y-109185567D02*
X150421232Y-109185567D01*
X153580658Y-109709622D02*
X152502822Y-109709622D01*
X149300000Y-110497600D02*
X149300000Y-111100000D01*
X151852512Y-109490378D02*
X152376567Y-110014433D01*
X150547488Y-109490378D02*
X151852512Y-109490378D01*
X153196073Y-110014433D02*
X154779447Y-111597807D01*
X154779447Y-111597807D02*
X155122346Y-111940706D01*
X152376567Y-110014433D02*
X153196073Y-110014433D01*
X149800000Y-110237866D02*
X150547488Y-109490378D01*
X149800000Y-111100000D02*
X149800000Y-110237866D01*
X150300000Y-110497600D02*
X150300000Y-111100000D01*
X150673744Y-109795189D02*
X150300000Y-110168933D01*
X151726256Y-109795189D02*
X150673744Y-109795189D01*
X152250310Y-110319244D02*
X151726256Y-109795189D01*
X152655060Y-110319244D02*
X152250310Y-110319244D01*
X155733147Y-112537001D02*
X155248214Y-112537001D01*
X150300000Y-110168933D02*
X150300000Y-110497600D01*
X154848024Y-112512209D02*
X152655060Y-110319244D01*
X155223422Y-112512209D02*
X154848024Y-112512209D01*
X155248214Y-112537001D02*
X155223422Y-112512209D01*
X150800000Y-111100000D02*
X150800000Y-110300000D01*
X150800000Y-110300000D02*
X150900000Y-110200000D01*
X150900000Y-110200000D02*
X151700000Y-110200000D01*
X151700000Y-110200000D02*
X152124055Y-110624055D01*
X152124055Y-110624055D02*
X152506278Y-110624055D01*
X152506278Y-110624055D02*
X154645800Y-112763577D01*
X154645800Y-112763577D02*
X154988699Y-113106476D01*
X154418652Y-113363655D02*
X154715832Y-113660835D01*
X154818915Y-113660835D02*
X154964673Y-113806593D01*
X151300000Y-111100000D02*
X152266688Y-111100000D01*
X154715832Y-113660835D02*
X154818915Y-113660835D01*
X152266688Y-111100000D02*
X154418652Y-113251964D01*
X154418652Y-113251964D02*
X154418652Y-113363655D01*
X154964673Y-113806593D02*
X155449606Y-113806593D01*
X151300000Y-114700000D02*
X151597400Y-114700000D01*
X152009226Y-114288174D02*
X154616544Y-114288174D01*
X151597400Y-114700000D02*
X152009226Y-114288174D01*
X152858502Y-115500000D02*
X153660373Y-114698129D01*
X154667796Y-114949170D02*
X155152729Y-114949170D01*
X150997600Y-115500000D02*
X152858502Y-115500000D01*
X150800000Y-115302400D02*
X150997600Y-115500000D01*
X150800000Y-114700000D02*
X150800000Y-115302400D01*
X153660373Y-114698129D02*
X154209018Y-114698129D01*
X154209018Y-114698129D02*
X154460059Y-114949170D01*
X154460059Y-114949170D02*
X154667796Y-114949170D01*
X150300000Y-114700000D02*
X150300000Y-115302400D01*
X153591796Y-115612530D02*
X153934695Y-115269631D01*
X150802411Y-115804811D02*
X153399515Y-115804811D01*
X150300000Y-115302400D02*
X150802411Y-115804811D01*
X153399515Y-115804811D02*
X153591796Y-115612530D01*
X149800000Y-114700000D02*
X149800000Y-115275726D01*
X153986760Y-115922208D02*
X154471693Y-115922208D01*
X153799346Y-116109622D02*
X153986760Y-115922208D01*
X150633896Y-116109622D02*
X153799346Y-116109622D01*
X149800000Y-115275726D02*
X150633896Y-116109622D01*
X154221662Y-116551572D02*
X154540384Y-116551572D01*
X154084523Y-116414433D02*
X154221662Y-116551572D01*
X150507640Y-116414433D02*
X154084523Y-116414433D01*
X149300000Y-115206793D02*
X150507640Y-116414433D01*
X149300000Y-114700000D02*
X149300000Y-115206793D01*
X154540384Y-116551572D02*
X155025317Y-116551572D01*
X148800000Y-115137860D02*
X148800000Y-114700000D01*
X150381384Y-116719244D02*
X148800000Y-115137860D01*
X154107800Y-116868777D02*
X153958267Y-116719244D01*
X153958267Y-116719244D02*
X150381384Y-116719244D01*
X154534224Y-116868777D02*
X154107800Y-116868777D01*
X154788520Y-117123074D02*
X154534224Y-116868777D01*
X155508273Y-117123074D02*
X154788520Y-117123074D01*
X156216367Y-116414980D02*
X155508273Y-117123074D01*
X148300000Y-114700000D02*
X148300000Y-115302400D01*
X148300000Y-115302400D02*
X148597600Y-115600000D01*
X156390170Y-116999381D02*
X156875103Y-116999381D01*
X148600000Y-115600000D02*
X150024055Y-117024055D01*
X150024055Y-117024055D02*
X153832011Y-117024055D01*
X148597600Y-115600000D02*
X148600000Y-115600000D01*
X153832011Y-117024055D02*
X153981544Y-117173588D01*
X153981544Y-117173588D02*
X154407968Y-117173588D01*
X154407968Y-117173588D02*
X154674104Y-117439725D01*
X154674104Y-117439725D02*
X155874125Y-117439725D01*
X155874125Y-117439725D02*
X156314469Y-116999381D01*
X156314469Y-116999381D02*
X156390170Y-116999381D01*
X133594652Y-124156134D02*
X133594652Y-116587048D01*
X142531559Y-127720844D02*
X142010715Y-127200000D01*
X154147107Y-127720844D02*
X142531559Y-127720844D01*
X154667951Y-127200000D02*
X154147107Y-127720844D01*
X168959565Y-124371502D02*
X166131067Y-127200000D01*
X169574322Y-124371502D02*
X168959565Y-124371502D01*
X170910229Y-123035595D02*
X169574322Y-124371502D01*
X170910229Y-121449569D02*
X170910229Y-123035595D01*
X133594652Y-116587048D02*
X133594652Y-116102115D01*
X166131067Y-127200000D02*
X154667951Y-127200000D01*
X142010715Y-127200000D02*
X136638518Y-127200000D01*
X136638518Y-127200000D02*
X133594652Y-124156134D01*
X135876331Y-115700000D02*
X135776331Y-115600000D01*
X136700000Y-115700000D02*
X135876331Y-115700000D01*
X134756978Y-114165778D02*
X135200000Y-113722756D01*
X135278555Y-116200000D02*
X135204811Y-116126256D01*
X145196454Y-97531020D02*
X152432489Y-97531020D01*
X135200000Y-108193518D02*
X141495189Y-101898329D01*
X141495189Y-101232285D02*
X145196454Y-97531020D01*
X141495189Y-101898329D02*
X141495189Y-101232285D01*
X135200000Y-113722756D02*
X135200000Y-108193518D01*
X135204811Y-115162255D02*
X134756978Y-114714422D01*
X134756978Y-114714422D02*
X134756978Y-114165778D01*
X136700000Y-116200000D02*
X135278555Y-116200000D01*
X135204811Y-116126256D02*
X135204811Y-115162255D01*
X152432489Y-97531020D02*
X152917422Y-97531020D01*
X150823158Y-101579340D02*
X151166057Y-101236441D01*
X150702498Y-101700000D02*
X150823158Y-101579340D01*
X148800000Y-101700000D02*
X150702498Y-101700000D01*
X145555337Y-117036914D02*
X145898236Y-117379813D01*
X141889924Y-113371501D02*
X145555337Y-117036914D01*
X140925679Y-113371501D02*
X141889924Y-113371501D01*
X135328480Y-114145727D02*
X137179018Y-112295189D01*
X135328480Y-114440100D02*
X135328480Y-114145727D01*
X137179018Y-112295189D02*
X139849367Y-112295189D01*
X139849367Y-112295189D02*
X140925679Y-113371501D01*
X134900002Y-115647239D02*
X134619110Y-115366347D01*
X134619110Y-115366347D02*
X134276211Y-115023448D01*
X136700000Y-116700000D02*
X135347489Y-116700000D01*
X134900002Y-116252513D02*
X134900002Y-115647239D01*
X135347489Y-116700000D02*
X134900002Y-116252513D01*
X151850000Y-112150000D02*
X151850000Y-112750000D01*
X151850000Y-112750000D02*
X151700000Y-112900000D01*
X134295189Y-116126256D02*
X135368933Y-117200000D01*
X170392065Y-90500000D02*
X163497623Y-90500000D01*
X171928962Y-92036897D02*
X170392065Y-90500000D01*
X136097600Y-117200000D02*
X136700000Y-117200000D01*
X133704710Y-114749127D02*
X133704710Y-115297769D01*
X171149569Y-93332496D02*
X171928962Y-92553103D01*
X163497623Y-90500000D02*
X163097623Y-90900000D01*
X171149569Y-94889771D02*
X171149569Y-93332496D01*
X171928962Y-92553103D02*
X171928962Y-92036897D01*
X163097623Y-90900000D02*
X151400000Y-90900000D01*
X151400000Y-90900000D02*
X134900000Y-107400000D01*
X134900000Y-107400000D02*
X134900000Y-108062452D01*
X133704710Y-115297769D02*
X134295189Y-115888248D01*
X134295189Y-114158648D02*
X133704710Y-114749127D01*
X134900000Y-108062452D02*
X134295189Y-108667262D01*
X134295189Y-108667262D02*
X134295189Y-114158648D01*
X134295189Y-115888248D02*
X134295189Y-116126256D01*
X135368933Y-117200000D02*
X136097600Y-117200000D01*
X144750000Y-100047600D02*
X144750000Y-100650000D01*
X157500000Y-98200000D02*
X149564850Y-98200000D01*
X144750000Y-99250000D02*
X144750000Y-100047600D01*
X146100000Y-97900000D02*
X144750000Y-99250000D01*
X149264850Y-97900000D02*
X146100000Y-97900000D01*
X158300000Y-99000000D02*
X157500000Y-98200000D01*
X149564850Y-98200000D02*
X149264850Y-97900000D01*
M02*
