G04 #@! TF.FileFunction,Copper,L2,Bot,Signal*
%FSLAX46Y46*%
G04 Gerber Fmt 4.6, Leading zero omitted, Abs format (unit mm)*
G04 Created by KiCad (PCBNEW 4.0.1-stable) date Friday, March 04, 2016 'AMt' 01:01:00 AM*
%MOMM*%
G01*
G04 APERTURE LIST*
%ADD10C,0.100000*%
%ADD11C,1.000000*%
%ADD12C,3.000000*%
%ADD13R,0.660000X0.230000*%
%ADD14R,0.660000X0.350000*%
%ADD15C,0.685800*%
%ADD16C,0.685801*%
%ADD17C,0.254000*%
%ADD18C,0.152400*%
G04 APERTURE END LIST*
D10*
D11*
X171800000Y-104800000D03*
X131900000Y-99400000D03*
X131900000Y-118500000D03*
D12*
X163250000Y-123250000D03*
D13*
X161005000Y-115800000D03*
X158295000Y-115800000D03*
X161005000Y-100200000D03*
X158295000Y-100200000D03*
X161005000Y-115400000D03*
X161005000Y-115000000D03*
X161005000Y-114600000D03*
X161005000Y-114200000D03*
X161005000Y-113800000D03*
X161005000Y-113400000D03*
X161005000Y-113000000D03*
X161005000Y-112600000D03*
X161005000Y-112200000D03*
X161005000Y-111800000D03*
X161005000Y-111400000D03*
X161005000Y-111000000D03*
X161005000Y-110600000D03*
X161005000Y-110200000D03*
X161005000Y-109800000D03*
X161005000Y-109400000D03*
X161005000Y-109000000D03*
X161005000Y-108600000D03*
X161005000Y-108200000D03*
X161005000Y-107800000D03*
X161005000Y-107400000D03*
X161005000Y-107000000D03*
X161005000Y-106600000D03*
X161005000Y-106200000D03*
X161005000Y-105800000D03*
X161005000Y-105400000D03*
X161005000Y-105000000D03*
X161005000Y-104600000D03*
X161005000Y-104200000D03*
X161005000Y-103800000D03*
X161005000Y-103400000D03*
X161005000Y-103000000D03*
X161005000Y-102600000D03*
X161005000Y-102200000D03*
X161005000Y-101800000D03*
X161005000Y-101400000D03*
X161005000Y-101000000D03*
X161005000Y-100600000D03*
D14*
X161005000Y-99725000D03*
X158295000Y-99725000D03*
X161005000Y-116275000D03*
X158295000Y-116275000D03*
D13*
X158295000Y-100600000D03*
X158295000Y-101000000D03*
X158295000Y-101400000D03*
X158295000Y-101800000D03*
X158295000Y-102200000D03*
X158295000Y-102600000D03*
X158295000Y-103000000D03*
X158295000Y-103400000D03*
X158295000Y-103800000D03*
X158295000Y-104200000D03*
X158295000Y-104600000D03*
X158295000Y-105000000D03*
X158295000Y-105400000D03*
X158295000Y-105800000D03*
X158295000Y-106200000D03*
X158295000Y-106600000D03*
X158295000Y-107000000D03*
X158295000Y-107400000D03*
X158295000Y-107800000D03*
X158295000Y-108200000D03*
X158295000Y-108600000D03*
X158295000Y-109000000D03*
X158295000Y-109400000D03*
X158295000Y-109800000D03*
X158295000Y-110200000D03*
X158295000Y-110600000D03*
X158295000Y-111000000D03*
X158295000Y-111400000D03*
X158295000Y-111800000D03*
X158295000Y-112200000D03*
X158295000Y-112600000D03*
X158295000Y-113000000D03*
X158295000Y-113400000D03*
X158295000Y-113800000D03*
X158295000Y-114200000D03*
X158295000Y-114600000D03*
X158295000Y-115000000D03*
X158295000Y-115400000D03*
D12*
X132750000Y-92750000D03*
X163250000Y-92750000D03*
X132750000Y-123250000D03*
D15*
X164500000Y-120300000D03*
X160141749Y-120550000D03*
X143200000Y-102500000D03*
X170600000Y-100600000D03*
X167600000Y-99500000D03*
X145900000Y-118400000D03*
X145900000Y-123400000D03*
X138970457Y-113821291D03*
X144500000Y-105400000D03*
X140326577Y-115259564D03*
X145200000Y-112100000D03*
X171360000Y-92280000D03*
X148584468Y-116823784D03*
X171000000Y-123800000D03*
X169300000Y-123800000D03*
X153937447Y-113672000D03*
X172300000Y-93800000D03*
X156200000Y-97100000D03*
X153400000Y-103499994D03*
X138064327Y-119800000D03*
X160300000Y-118700000D03*
X164581049Y-117115293D03*
X141800000Y-110900000D03*
X167132985Y-114978957D03*
X144400000Y-111400000D03*
X138900000Y-119800000D03*
X141801220Y-112718686D03*
X161200000Y-119128480D03*
X164320714Y-117980918D03*
X142728480Y-110220045D03*
X144628621Y-110407057D03*
X143871520Y-112722320D03*
X165051279Y-119249865D03*
X159838359Y-119768621D03*
X166299903Y-115071559D03*
X154953113Y-120877680D03*
X146677680Y-117071484D03*
X140300000Y-119900000D03*
X143168001Y-113643157D03*
X160800000Y-121600000D03*
X167500177Y-116685138D03*
X166600000Y-118200000D03*
X145300000Y-114500000D03*
X141200000Y-119700000D03*
X142376267Y-117334687D03*
X142013185Y-119903296D03*
X142900000Y-119754243D03*
X143000000Y-117900000D03*
X143978651Y-119849432D03*
X144000000Y-118300000D03*
X145000000Y-118400000D03*
X145000000Y-119800000D03*
X149300000Y-118413533D03*
X151660590Y-119010654D03*
X159300000Y-109800000D03*
X149909816Y-119583671D03*
X152600000Y-119000000D03*
X159400000Y-110700000D03*
X148200000Y-119700000D03*
X154203439Y-119128480D03*
X159400000Y-101800000D03*
X149100002Y-119800000D03*
X153881135Y-118354711D03*
D16*
X154700925Y-99969497D03*
X156437124Y-117714065D03*
X157446623Y-116264546D03*
X161523051Y-116737732D03*
D15*
X150798761Y-118205197D03*
X149314439Y-117270512D03*
D16*
X161045015Y-99054899D03*
D15*
X166628480Y-122826273D03*
X165748513Y-122052168D03*
D16*
X161996016Y-116045704D03*
X162767523Y-116433503D03*
X163540000Y-115990000D03*
X163625803Y-117020165D03*
X164677927Y-116277298D03*
D15*
X167765542Y-115528930D03*
D16*
X166452313Y-113928537D03*
D15*
X171857628Y-121152203D03*
X168600730Y-115600061D03*
D16*
X165607161Y-113704049D03*
D15*
X171877680Y-119499998D03*
D16*
X165605042Y-112865840D03*
D15*
X168568740Y-114461506D03*
X171400000Y-118800000D03*
X170626195Y-113868340D03*
D16*
X164700000Y-112900000D03*
D15*
X168342958Y-113629670D03*
D16*
X164787300Y-112029507D03*
D15*
X170093653Y-113052771D03*
X168075725Y-112835198D03*
D16*
X163783155Y-111316748D03*
D15*
X167532652Y-112061600D03*
X169500418Y-112258144D03*
D16*
X168599462Y-111502140D03*
X163528885Y-110173726D03*
X163700000Y-106699996D03*
D15*
X166495177Y-105779252D03*
D16*
X162917233Y-105773905D03*
D15*
X167700000Y-105700000D03*
X166594252Y-104946916D03*
D16*
X163900000Y-105500000D03*
D15*
X168400000Y-105000000D03*
X166601952Y-104108740D03*
D16*
X162988743Y-104630882D03*
D15*
X168700000Y-104100000D03*
X166418886Y-103290764D03*
D16*
X164208262Y-104233682D03*
D15*
X170000000Y-103200000D03*
X167306354Y-102919789D03*
D16*
X163633163Y-103623879D03*
D15*
X171817506Y-102760838D03*
X167686844Y-102144202D03*
D16*
X164510988Y-103080989D03*
D15*
X173267077Y-101291360D03*
D16*
X163925512Y-102481142D03*
D15*
X168792867Y-101271520D03*
X172977680Y-96300000D03*
X170358453Y-92669345D03*
X166675319Y-96370794D03*
D16*
X165449376Y-100142373D03*
D15*
X169867078Y-93345288D03*
X165600000Y-95900000D03*
D16*
X164496621Y-100273613D03*
D15*
X168922069Y-93557547D03*
X166415868Y-95227772D03*
D16*
X164914047Y-99035328D03*
D15*
X165856067Y-94536610D03*
X169500000Y-92500000D03*
D16*
X164080050Y-99148578D03*
D15*
X168616630Y-92415374D03*
X166500000Y-94000000D03*
D16*
X163435854Y-98612285D03*
D15*
X166000000Y-93100000D03*
X169000000Y-91500000D03*
D16*
X162933625Y-99319524D03*
D15*
X167900000Y-91477931D03*
X166600000Y-92400000D03*
D16*
X162207512Y-98900766D03*
X161835375Y-99815595D03*
X157346862Y-99771229D03*
X156760000Y-99071251D03*
X156138620Y-99719813D03*
X154142323Y-100591036D03*
X155029216Y-101160016D03*
X154063921Y-101911817D03*
X155450923Y-102278211D03*
X154700000Y-102980000D03*
X155731356Y-103448640D03*
D15*
X155156773Y-104173153D03*
X154248970Y-105773268D03*
X155030908Y-105311095D03*
D16*
X155987304Y-105757689D03*
X155591702Y-106504132D03*
X156597189Y-106791829D03*
X155849475Y-109450942D03*
X156328496Y-110253281D03*
X155461664Y-110744803D03*
X156058966Y-111396303D03*
X155122346Y-111940706D03*
X155733147Y-112537001D03*
X154988699Y-113106476D03*
X155449606Y-113806593D03*
X154616544Y-114288174D03*
X155152729Y-114949170D03*
X153934695Y-115269631D03*
X154471693Y-115922208D03*
X155025317Y-116551572D03*
X156216367Y-116414980D03*
X156875103Y-116999381D03*
D15*
X135776331Y-115600000D03*
X133594652Y-116102115D03*
X152917422Y-97531020D03*
X151166057Y-101236441D03*
X145898236Y-117379813D03*
X135328480Y-114440100D03*
X134276211Y-115023448D03*
X151700000Y-112900000D03*
X158300000Y-99000000D03*
D17*
X140884933Y-114615067D02*
X143400000Y-112100000D01*
X144700000Y-112100000D02*
X145200000Y-112100000D01*
X140326577Y-115259564D02*
X140844497Y-115259564D01*
X140844497Y-115259564D02*
X140884933Y-115300000D01*
X143400000Y-112100000D02*
X144700000Y-112100000D01*
X160626682Y-120550000D02*
X160876682Y-120300000D01*
X160141749Y-120550000D02*
X160626682Y-120550000D01*
X160876682Y-120300000D02*
X164500000Y-120300000D01*
X143200000Y-102500000D02*
X142715067Y-102500000D01*
X142715067Y-102500000D02*
X142700000Y-102484933D01*
X170600000Y-100600000D02*
X171000000Y-100600000D01*
X167600000Y-99500000D02*
X167257101Y-99842899D01*
X145900000Y-123400000D02*
X145900000Y-118400000D01*
X139106815Y-113400000D02*
X138970457Y-113536358D01*
X138970457Y-113536358D02*
X138970457Y-113821291D01*
X139200000Y-113400000D02*
X139106815Y-113400000D01*
X144500000Y-105400000D02*
X144842899Y-105742899D01*
X144842899Y-105742899D02*
X144842899Y-105757101D01*
X172300000Y-93220000D02*
X171702899Y-92622899D01*
X171702899Y-92622899D02*
X171360000Y-92280000D01*
X172300000Y-93800000D02*
X172300000Y-93220000D01*
X148927367Y-116480885D02*
X148584468Y-116823784D01*
X151736252Y-113672000D02*
X148927367Y-116480885D01*
X153937447Y-113672000D02*
X151736252Y-113672000D01*
X169300000Y-123800000D02*
X171000000Y-123800000D01*
X153400000Y-103499994D02*
X153400000Y-113134553D01*
X153594548Y-113329101D02*
X153937447Y-113672000D01*
X153400000Y-113134553D02*
X153594548Y-113329101D01*
X153400000Y-99415067D02*
X155715067Y-97100000D01*
X155715067Y-97100000D02*
X156200000Y-97100000D01*
X153400000Y-103499994D02*
X153400000Y-99415067D01*
D18*
X138064327Y-119315067D02*
X138064327Y-119800000D01*
X142360414Y-111400000D02*
X142277962Y-111400000D01*
X142277962Y-111400000D02*
X138064327Y-115613635D01*
X138064327Y-115613635D02*
X138064327Y-119315067D01*
X165065982Y-117115293D02*
X164581049Y-117115293D01*
X167132985Y-114978957D02*
X166654085Y-114500057D01*
X166654085Y-114500057D02*
X166025581Y-114500057D01*
X165246889Y-116934386D02*
X165065982Y-117115293D01*
X165246889Y-115278749D02*
X165246889Y-116934386D01*
X166025581Y-114500057D02*
X165246889Y-115278749D01*
X164340517Y-117115293D02*
X163098709Y-118357101D01*
X163098709Y-118357101D02*
X160642899Y-118357101D01*
X164581049Y-117115293D02*
X164340517Y-117115293D01*
X160642899Y-118357101D02*
X160300000Y-118700000D01*
X141800000Y-110900000D02*
X142142899Y-111242899D01*
X142142899Y-111242899D02*
X142203313Y-111242899D01*
X142203313Y-111242899D02*
X142360414Y-111400000D01*
X143915067Y-111400000D02*
X144400000Y-111400000D01*
X142360414Y-111400000D02*
X143915067Y-111400000D01*
X138900000Y-119315067D02*
X138900000Y-119800000D01*
X141801220Y-112718686D02*
X138900000Y-115619906D01*
X138900000Y-115619906D02*
X138900000Y-119315067D01*
X163173152Y-119128480D02*
X161684933Y-119128480D01*
X161684933Y-119128480D02*
X161200000Y-119128480D01*
X164320714Y-117980918D02*
X163173152Y-119128480D01*
X142915492Y-110407057D02*
X142728480Y-110220045D01*
X144628621Y-110407057D02*
X142915492Y-110407057D01*
X152152626Y-117697156D02*
X154042980Y-117697156D01*
X154042980Y-117697156D02*
X154953113Y-118607289D01*
X150524439Y-118776699D02*
X151073083Y-118776699D01*
X151073083Y-118776699D02*
X152152626Y-117697156D01*
X146677680Y-117071484D02*
X147448209Y-117842013D01*
X147448209Y-117842013D02*
X149589753Y-117842013D01*
X149589753Y-117842013D02*
X150524439Y-118776699D01*
X154953113Y-120392747D02*
X154953113Y-120877680D01*
X154953113Y-118607289D02*
X154953113Y-120392747D01*
X143386587Y-112722320D02*
X143871520Y-112722320D01*
X142528498Y-114871502D02*
X142528498Y-113474410D01*
X141177677Y-117159893D02*
X141177677Y-116222323D01*
X140300000Y-118037570D02*
X141177677Y-117159893D01*
X143280588Y-112722320D02*
X143386587Y-112722320D01*
X140300000Y-119900000D02*
X140300000Y-118037570D01*
X142528498Y-113474410D02*
X143280588Y-112722320D01*
X141177677Y-116222323D02*
X142528498Y-114871502D01*
X160323292Y-119768621D02*
X160391913Y-119700000D01*
X159838359Y-119768621D02*
X160323292Y-119768621D01*
X160391913Y-119700000D02*
X164601144Y-119700000D01*
X164601144Y-119700000D02*
X164708380Y-119592764D01*
X164708380Y-119592764D02*
X165051279Y-119249865D01*
X165957004Y-118344140D02*
X165394178Y-118906966D01*
X165957004Y-115414458D02*
X165957004Y-118344140D01*
X166299903Y-115071559D02*
X165957004Y-115414458D01*
X165394178Y-118906966D02*
X165051279Y-119249865D01*
X143500000Y-114500000D02*
X143168001Y-114168001D01*
X143168001Y-114128090D02*
X143168001Y-113643157D01*
X143168001Y-114168001D02*
X143168001Y-114128090D01*
X166600000Y-118200000D02*
X166600000Y-119945824D01*
X166600000Y-119945824D02*
X165645824Y-120900000D01*
X165645824Y-120900000D02*
X164254176Y-120900000D01*
X164254176Y-120900000D02*
X164054176Y-120700000D01*
X164054176Y-120700000D02*
X161700000Y-120700000D01*
X161700000Y-120700000D02*
X161142899Y-121257101D01*
X161142899Y-121257101D02*
X160800000Y-121600000D01*
X167157278Y-117028037D02*
X167500177Y-116685138D01*
X166600000Y-118200000D02*
X166600000Y-117585315D01*
X166600000Y-117585315D02*
X167157278Y-117028037D01*
X143500000Y-114500000D02*
X144815067Y-114500000D01*
X141200000Y-117931066D02*
X141804809Y-117326257D01*
X144815067Y-114500000D02*
X145300000Y-114500000D01*
X141200000Y-119700000D02*
X141200000Y-117931066D01*
X141804809Y-116195191D02*
X143500000Y-114500000D01*
X141804809Y-117326257D02*
X141804809Y-116195191D01*
X142033368Y-117677586D02*
X142376267Y-117334687D01*
X142013185Y-119903296D02*
X142013185Y-117697769D01*
X142013185Y-117697769D02*
X142033368Y-117677586D01*
X142900000Y-118000000D02*
X143000000Y-117900000D01*
X142900000Y-119754243D02*
X142900000Y-118000000D01*
X143978651Y-118321349D02*
X144000000Y-118300000D01*
X143978651Y-119849432D02*
X143978651Y-118321349D01*
X145000000Y-119800000D02*
X145000000Y-118400000D01*
X149642899Y-118756432D02*
X149300000Y-118413533D01*
X150398183Y-119081510D02*
X150073105Y-118756432D01*
X151660590Y-119010654D02*
X151589734Y-119081510D01*
X151589734Y-119081510D02*
X150398183Y-119081510D01*
X150073105Y-118756432D02*
X149642899Y-118756432D01*
X161005000Y-109800000D02*
X159300000Y-109800000D01*
X152600000Y-119000000D02*
X152016329Y-119583671D01*
X150394749Y-119583671D02*
X149909816Y-119583671D01*
X152016329Y-119583671D02*
X150394749Y-119583671D01*
X161005000Y-110200000D02*
X159900000Y-110200000D01*
X159900000Y-110200000D02*
X159400000Y-110700000D01*
X148758088Y-120743021D02*
X148200000Y-120184933D01*
X152588898Y-120743021D02*
X148758088Y-120743021D01*
X154203439Y-119128480D02*
X152588898Y-120743021D01*
X148200000Y-120184933D02*
X148200000Y-119700000D01*
X158295000Y-101800000D02*
X159400000Y-101800000D01*
X149442901Y-120142899D02*
X149100002Y-119800000D01*
X153538236Y-118697610D02*
X153538236Y-118907586D01*
X152202722Y-120243100D02*
X149543102Y-120243100D01*
X153538236Y-118907586D02*
X152202722Y-120243100D01*
X153881135Y-118354711D02*
X153538236Y-118697610D01*
X149543102Y-120243100D02*
X149442901Y-120142899D01*
X155470709Y-99969497D02*
X155185858Y-99969497D01*
X155185858Y-99969497D02*
X154700925Y-99969497D01*
X157871416Y-102224000D02*
X157559507Y-101912091D01*
X157559507Y-101912091D02*
X157413303Y-101912091D01*
X157413303Y-101912091D02*
X155470709Y-99969497D01*
X158110316Y-102224000D02*
X157871416Y-102224000D01*
X158295000Y-116200000D02*
X158295000Y-115800000D01*
X156437124Y-117714065D02*
X157030542Y-117714065D01*
X158255617Y-116239383D02*
X158295000Y-116200000D01*
X157030542Y-117714065D02*
X158255617Y-116488990D01*
X158255617Y-116488990D02*
X158255617Y-116239383D01*
X157884581Y-115376401D02*
X157446623Y-115814359D01*
X157446623Y-115814359D02*
X157446623Y-116264546D01*
X158110316Y-115376401D02*
X157884581Y-115376401D01*
X161045015Y-116259696D02*
X161180152Y-116394833D01*
X161045015Y-115800200D02*
X161045015Y-116259696D01*
X161180152Y-116394833D02*
X161523051Y-116737732D01*
X150455862Y-117862298D02*
X150798761Y-118205197D01*
X149314439Y-117270512D02*
X149864076Y-117270512D01*
X149864076Y-117270512D02*
X150455862Y-117862298D01*
X161005000Y-99800000D02*
X161005000Y-99094914D01*
X161005000Y-99094914D02*
X161045015Y-99054899D01*
X161005000Y-100200000D02*
X161005000Y-99800000D01*
X165854375Y-122052168D02*
X165748513Y-122052168D01*
X166628480Y-122826273D02*
X165854375Y-122052168D01*
X161653117Y-115702805D02*
X161996016Y-116045704D01*
X161653117Y-115645190D02*
X161653117Y-115702805D01*
X161190316Y-115376401D02*
X161384328Y-115376401D01*
X161384328Y-115376401D02*
X161653117Y-115645190D01*
X161415395Y-114976401D02*
X161913196Y-115474202D01*
X161190316Y-114976401D02*
X161415395Y-114976401D01*
X162767523Y-115971386D02*
X162767523Y-116433503D01*
X161913196Y-115474202D02*
X162270339Y-115474202D01*
X162270339Y-115474202D02*
X162767523Y-115971386D01*
X162396595Y-115169391D02*
X162874305Y-115647101D01*
X163197101Y-115647101D02*
X163540000Y-115990000D01*
X162874305Y-115647101D02*
X163197101Y-115647101D01*
X162039452Y-115169391D02*
X162396595Y-115169391D01*
X161446462Y-114576401D02*
X162039452Y-115169391D01*
X161190316Y-114576401D02*
X161446462Y-114576401D01*
X161190316Y-114176401D02*
X161477528Y-114176401D01*
X161477528Y-114176401D02*
X162165707Y-114864580D01*
X162165707Y-114864580D02*
X162522851Y-114864580D01*
X162522851Y-114864580D02*
X162592912Y-114934641D01*
X162592912Y-114934641D02*
X163316707Y-114934641D01*
X164108963Y-115726897D02*
X164108963Y-116537005D01*
X163968702Y-116677266D02*
X163625803Y-117020165D01*
X164108963Y-116537005D02*
X163968702Y-116677266D01*
X163316707Y-114934641D02*
X164108963Y-115726897D01*
X164677927Y-115792365D02*
X164677927Y-116277298D01*
X162719168Y-114629830D02*
X163515392Y-114629830D01*
X161190316Y-113776401D02*
X161508594Y-113776401D01*
X161508594Y-113776401D02*
X162291962Y-114559769D01*
X162291962Y-114559769D02*
X162649107Y-114559769D01*
X162649107Y-114559769D02*
X162719168Y-114629830D01*
X163515392Y-114629830D02*
X164677927Y-115792365D01*
X165899325Y-114195246D02*
X166185604Y-114195246D01*
X166185604Y-114195246D02*
X166452313Y-113928537D01*
X162775363Y-114254958D02*
X162845424Y-114325019D01*
X162418218Y-114254958D02*
X162775363Y-114254958D01*
X165769552Y-114325019D02*
X165899325Y-114195246D01*
X162845424Y-114325019D02*
X165769552Y-114325019D01*
X161190316Y-113376401D02*
X161539661Y-113376401D01*
X161539661Y-113376401D02*
X162418218Y-114254958D01*
X168071679Y-117366254D02*
X168071679Y-116320000D01*
X171857628Y-121152203D02*
X168071679Y-117366254D01*
X168071679Y-116320000D02*
X167765542Y-116013863D01*
X167765542Y-116013863D02*
X167765542Y-115528930D01*
X161190316Y-112976401D02*
X161570728Y-112976401D01*
X161570728Y-112976401D02*
X162544474Y-113950147D01*
X162544474Y-113950147D02*
X165361063Y-113950147D01*
X165361063Y-113950147D02*
X165607161Y-113704049D01*
X168600730Y-116084994D02*
X168600730Y-115600061D01*
X168600730Y-116846554D02*
X168600730Y-116084994D01*
X171877680Y-119499998D02*
X171254174Y-119499998D01*
X171254174Y-119499998D02*
X168600730Y-116846554D01*
X165262143Y-113208739D02*
X165605042Y-112865840D01*
X161601794Y-112576401D02*
X162670729Y-113645336D01*
X164825546Y-113645336D02*
X165262143Y-113208739D01*
X161190316Y-112576401D02*
X161601794Y-112576401D01*
X162670729Y-113645336D02*
X164825546Y-113645336D01*
X171400000Y-117292766D02*
X168911639Y-114804405D01*
X171400000Y-118800000D02*
X171400000Y-117292766D01*
X168911639Y-114804405D02*
X168568740Y-114461506D01*
X170387525Y-113629670D02*
X170626195Y-113868340D01*
X168342958Y-113629670D02*
X170387525Y-113629670D01*
X164215067Y-112900000D02*
X164700000Y-112900000D01*
X161632861Y-112176401D02*
X162356460Y-112900000D01*
X162356460Y-112900000D02*
X164215067Y-112900000D01*
X161190316Y-112176401D02*
X161632861Y-112176401D01*
X162451841Y-112564315D02*
X163767559Y-112564315D01*
X161190316Y-111776401D02*
X161663927Y-111776401D01*
X163767559Y-112564315D02*
X164302367Y-112029507D01*
X164302367Y-112029507D02*
X164787300Y-112029507D01*
X161663927Y-111776401D02*
X162451841Y-112564315D01*
X168075725Y-112835198D02*
X169876080Y-112835198D01*
X169876080Y-112835198D02*
X170093653Y-113052771D01*
X161190316Y-111376401D02*
X163238569Y-111376401D01*
X163298222Y-111316748D02*
X163783155Y-111316748D01*
X163238569Y-111376401D02*
X163298222Y-111316748D01*
X169500418Y-112258144D02*
X167729196Y-112258144D01*
X167729196Y-112258144D02*
X167532652Y-112061600D01*
X163308948Y-110745228D02*
X164191053Y-110745228D01*
X164605066Y-111159241D02*
X168256563Y-111159241D01*
X163077775Y-110976401D02*
X163308948Y-110745228D01*
X161190316Y-110976401D02*
X163077775Y-110976401D01*
X168256563Y-111159241D02*
X168599462Y-111502140D01*
X164191053Y-110745228D02*
X164605066Y-111159241D01*
X163334085Y-110173726D02*
X163528885Y-110173726D01*
X161190316Y-110576401D02*
X162931410Y-110576401D01*
X162931410Y-110576401D02*
X163334085Y-110173726D01*
X161910999Y-108976401D02*
X162223599Y-108976401D01*
X162223599Y-108976401D02*
X162276401Y-108976401D01*
X161005000Y-109400000D02*
X161487400Y-109400000D01*
X161487400Y-109400000D02*
X161910999Y-108976401D01*
X162999996Y-107400000D02*
X163399996Y-107000000D01*
X163399996Y-107000000D02*
X163700000Y-106699996D01*
X161190316Y-107024000D02*
X163375996Y-107024000D01*
X163375996Y-107024000D02*
X163399996Y-107000000D01*
X162599996Y-107800000D02*
X162999996Y-107400000D01*
X161190316Y-107424000D02*
X162975996Y-107424000D01*
X162975996Y-107424000D02*
X162999996Y-107400000D01*
X162276401Y-108123595D02*
X162599996Y-107800000D01*
X161190316Y-107824000D02*
X162575996Y-107824000D01*
X162575996Y-107824000D02*
X162599996Y-107800000D01*
X161190316Y-108176401D02*
X162223595Y-108176401D01*
X162223595Y-108176401D02*
X162276401Y-108123595D01*
X162276401Y-108976401D02*
X162276401Y-108400000D01*
X162276401Y-108400000D02*
X162276401Y-108123595D01*
X161190316Y-108576401D02*
X162100000Y-108576401D01*
X162100000Y-108576401D02*
X162276401Y-108400000D01*
X161190316Y-108976401D02*
X162276401Y-108976401D01*
X163215067Y-106699996D02*
X163700000Y-106699996D01*
X161266312Y-106699996D02*
X163215067Y-106699996D01*
X161190316Y-106624000D02*
X161266312Y-106699996D01*
X166574429Y-105700000D02*
X166495177Y-105779252D01*
X167700000Y-105700000D02*
X166574429Y-105700000D01*
X162574334Y-106116804D02*
X162917233Y-105773905D01*
X162467138Y-106224000D02*
X162574334Y-106116804D01*
X161190316Y-106224000D02*
X162467138Y-106224000D01*
X166647336Y-105000000D02*
X166594252Y-104946916D01*
X168400000Y-105000000D02*
X166647336Y-105000000D01*
X162425017Y-105202385D02*
X163602385Y-105202385D01*
X163602385Y-105202385D02*
X163900000Y-105500000D01*
X161190316Y-105824000D02*
X161803402Y-105824000D01*
X161803402Y-105824000D02*
X162425017Y-105202385D01*
X168700000Y-104100000D02*
X166610692Y-104100000D01*
X166610692Y-104100000D02*
X166601952Y-104108740D01*
X162494372Y-104630882D02*
X162503810Y-104630882D01*
X161190316Y-105424000D02*
X161701254Y-105424000D01*
X161701254Y-105424000D02*
X162494372Y-104630882D01*
X162503810Y-104630882D02*
X162988743Y-104630882D01*
X166619413Y-103491291D02*
X166418886Y-103290764D01*
X170000000Y-103200000D02*
X169515067Y-103200000D01*
X169223776Y-103491291D02*
X166619413Y-103491291D01*
X169515067Y-103200000D02*
X169223776Y-103491291D01*
X161190316Y-105024000D02*
X161664208Y-105024000D01*
X161664208Y-105024000D02*
X162790007Y-103898201D01*
X163723329Y-104233682D02*
X164208262Y-104233682D01*
X163358842Y-104195381D02*
X163685028Y-104195381D01*
X163061662Y-103898201D02*
X163358842Y-104195381D01*
X163685028Y-104195381D02*
X163723329Y-104233682D01*
X162790007Y-103898201D02*
X163061662Y-103898201D01*
X167756496Y-102919789D02*
X167306354Y-102919789D01*
X171474607Y-102417939D02*
X168258346Y-102417939D01*
X171817506Y-102760838D02*
X171474607Y-102417939D01*
X168258346Y-102417939D02*
X167756496Y-102919789D01*
X161190316Y-104624000D02*
X161633141Y-104624000D01*
X163600995Y-103591711D02*
X163633163Y-103623879D01*
X162665430Y-103591711D02*
X163600995Y-103591711D01*
X161633141Y-104624000D02*
X162665430Y-103591711D01*
X167767174Y-102063872D02*
X167686844Y-102144202D01*
X173267077Y-101291360D02*
X172494565Y-102063872D01*
X172494565Y-102063872D02*
X167767174Y-102063872D01*
X162539188Y-103286886D02*
X162766104Y-103286886D01*
X163396889Y-102798342D02*
X163651191Y-103052644D01*
X163997710Y-103052644D02*
X164026055Y-103080989D01*
X164026055Y-103080989D02*
X164510988Y-103080989D01*
X163254648Y-102798342D02*
X163396889Y-102798342D01*
X161602074Y-104224000D02*
X162539188Y-103286886D01*
X161190316Y-104224000D02*
X161602074Y-104224000D01*
X162766104Y-103286886D02*
X163254648Y-102798342D01*
X163651191Y-103052644D02*
X163997710Y-103052644D01*
X161190316Y-103824000D02*
X161571007Y-103824000D01*
X162634050Y-102982077D02*
X163134985Y-102481142D01*
X161571007Y-103824000D02*
X162412930Y-102982077D01*
X162412930Y-102982077D02*
X162634050Y-102982077D01*
X163134985Y-102481142D02*
X163440579Y-102481142D01*
X163440579Y-102481142D02*
X163925512Y-102481142D01*
X168792867Y-100786587D02*
X168792867Y-101271520D01*
X172977680Y-96300000D02*
X168792867Y-100484813D01*
X168792867Y-100484813D02*
X168792867Y-100786587D01*
X170701352Y-93012244D02*
X170358453Y-92669345D01*
X167675028Y-96370794D02*
X170701352Y-93344470D01*
X166675319Y-96370794D02*
X167675028Y-96370794D01*
X170701352Y-93344470D02*
X170701352Y-93012244D01*
X162286674Y-102677266D02*
X162497428Y-102677266D01*
X161190316Y-103424000D02*
X161539940Y-103424000D01*
X163580860Y-101593834D02*
X164482848Y-101593834D01*
X164482848Y-101593834D02*
X165449376Y-100627306D01*
X161539940Y-103424000D02*
X162286674Y-102677266D01*
X162497428Y-102677266D02*
X163580860Y-101593834D01*
X165449376Y-100627306D02*
X165449376Y-100142373D01*
X169524179Y-93801261D02*
X169524179Y-93688187D01*
X169524179Y-93688187D02*
X169867078Y-93345288D01*
X166185659Y-95799274D02*
X167526166Y-95799274D01*
X165600000Y-95900000D02*
X166084933Y-95900000D01*
X166084933Y-95900000D02*
X166185659Y-95799274D01*
X167526166Y-95799274D02*
X169524179Y-93801261D01*
X162160412Y-102372460D02*
X162371168Y-102372460D01*
X162371168Y-102372460D02*
X164127116Y-100616512D01*
X161190316Y-103024000D02*
X161508872Y-103024000D01*
X164127116Y-100616512D02*
X164153722Y-100616512D01*
X164153722Y-100616512D02*
X164496621Y-100273613D01*
X161508872Y-103024000D02*
X162160412Y-102372460D01*
X166415868Y-95227772D02*
X167251844Y-95227772D01*
X167251844Y-95227772D02*
X168579170Y-93900446D01*
X168579170Y-93900446D02*
X168922069Y-93557547D01*
X161477805Y-102624000D02*
X162034156Y-102067649D01*
X161190316Y-102624000D02*
X161477805Y-102624000D01*
X164222300Y-99702112D02*
X164732196Y-99702112D01*
X162244911Y-102067649D02*
X163925120Y-100387440D01*
X163925120Y-100387440D02*
X163925120Y-99999292D01*
X163925120Y-99999292D02*
X164222300Y-99702112D01*
X164914047Y-99520261D02*
X164914047Y-99035328D01*
X162034156Y-102067649D02*
X162244911Y-102067649D01*
X164732196Y-99702112D02*
X164914047Y-99520261D01*
X169034927Y-92842899D02*
X168890951Y-92986875D01*
X168358947Y-92986875D02*
X166774321Y-94571501D01*
X166774321Y-94571501D02*
X165890958Y-94571501D01*
X165890958Y-94571501D02*
X165856067Y-94536610D01*
X169500000Y-92500000D02*
X169157101Y-92842899D01*
X168890951Y-92986875D02*
X168358947Y-92986875D01*
X169157101Y-92842899D02*
X169034927Y-92842899D01*
X161446736Y-102224000D02*
X161907900Y-101762838D01*
X161190316Y-102224000D02*
X161446736Y-102224000D01*
X161907900Y-101762838D02*
X162118655Y-101762838D01*
X163584299Y-99909046D02*
X164080050Y-99413295D01*
X164080050Y-99413295D02*
X164080050Y-99148578D01*
X162118655Y-101762838D02*
X163584299Y-100297194D01*
X163584299Y-100297194D02*
X163584299Y-99909046D01*
X168131697Y-92415374D02*
X168616630Y-92415374D01*
X168084626Y-92415374D02*
X168131697Y-92415374D01*
X166500000Y-94000000D02*
X168084626Y-92415374D01*
X163279488Y-99782791D02*
X163508548Y-99553731D01*
X161992400Y-101458027D02*
X163279488Y-100170939D01*
X161781644Y-101458027D02*
X161992400Y-101458027D01*
X163508548Y-99553731D02*
X163508548Y-98684979D01*
X161415669Y-101824000D02*
X161781644Y-101458027D01*
X163279488Y-100170939D02*
X163279488Y-99782791D01*
X161190316Y-101824000D02*
X161415669Y-101824000D01*
X163508548Y-98684979D02*
X163435854Y-98612285D01*
X166484933Y-93100000D02*
X166000000Y-93100000D01*
X168657101Y-91842899D02*
X168380856Y-91842899D01*
X169000000Y-91500000D02*
X168657101Y-91842899D01*
X168380856Y-91842899D02*
X168174322Y-92049433D01*
X168174322Y-92049433D02*
X167896389Y-92049433D01*
X167896389Y-92049433D02*
X166845822Y-93100000D01*
X166845822Y-93100000D02*
X166484933Y-93100000D01*
X162933625Y-99804457D02*
X162933625Y-99319524D01*
X161655388Y-101153216D02*
X161866143Y-101153216D01*
X161190316Y-101424000D02*
X161384603Y-101424000D01*
X161384603Y-101424000D02*
X161655388Y-101153216D01*
X161866143Y-101153216D02*
X162933625Y-100085734D01*
X162933625Y-100085734D02*
X162933625Y-99804457D01*
X166600000Y-92400000D02*
X167522069Y-91477931D01*
X167522069Y-91477931D02*
X167900000Y-91477931D01*
X161529132Y-100848405D02*
X161644141Y-100848405D01*
X162473335Y-99705059D02*
X162362123Y-99593847D01*
X161190316Y-101024000D02*
X161353536Y-101024000D01*
X161353536Y-101024000D02*
X161529132Y-100848405D01*
X162362123Y-99593847D02*
X162362123Y-99055377D01*
X162473335Y-100019211D02*
X162473335Y-99705059D01*
X162362123Y-99055377D02*
X162207512Y-98900766D01*
X161644141Y-100848405D02*
X162473335Y-100019211D01*
X161835375Y-100226107D02*
X161835375Y-99815595D01*
X161270715Y-100543601D02*
X161517881Y-100543601D01*
X161517881Y-100543601D02*
X161835375Y-100226107D01*
X161190316Y-100624000D02*
X161270715Y-100543601D01*
X158110316Y-100624000D02*
X157822448Y-100624000D01*
X157822448Y-100624000D02*
X157560000Y-100361552D01*
X157560000Y-100361552D02*
X157560000Y-99984367D01*
X157560000Y-99984367D02*
X157346862Y-99771229D01*
X158110316Y-101024000D02*
X157791382Y-101024000D01*
X156760000Y-99556184D02*
X156760000Y-99071251D01*
X157791382Y-101024000D02*
X156760000Y-99992618D01*
X156760000Y-99992618D02*
X156760000Y-99556184D01*
X156138620Y-100204746D02*
X156138620Y-99719813D01*
X157357874Y-101424000D02*
X156138620Y-100204746D01*
X158110316Y-101424000D02*
X157357874Y-101424000D01*
X157225552Y-102151815D02*
X155664773Y-100591036D01*
X154627256Y-100591036D02*
X154142323Y-100591036D01*
X157294568Y-102197826D02*
X157225552Y-102151815D01*
X158110316Y-102624000D02*
X157768317Y-102624000D01*
X155664773Y-100591036D02*
X154627256Y-100591036D01*
X157768317Y-102624000D02*
X157389731Y-102245414D01*
X157389731Y-102245414D02*
X157294568Y-102197826D01*
X158110316Y-103024000D02*
X157706788Y-103024000D01*
X157706788Y-103024000D02*
X157142555Y-102459767D01*
X157069493Y-102423231D02*
X155806278Y-101160016D01*
X155514149Y-101160016D02*
X155029216Y-101160016D01*
X155806278Y-101160016D02*
X155514149Y-101160016D01*
X157142555Y-102459767D02*
X157069493Y-102423231D01*
X154548854Y-101911817D02*
X154063921Y-101911817D01*
X157668401Y-103424000D02*
X157032988Y-102788587D01*
X155905492Y-101707085D02*
X155324214Y-101707085D01*
X158110316Y-103424000D02*
X157668401Y-103424000D01*
X155324214Y-101707085D02*
X155302320Y-101728979D01*
X156986994Y-102788587D02*
X155905492Y-101707085D01*
X155302320Y-101728979D02*
X154731692Y-101728979D01*
X157032988Y-102788587D02*
X156986994Y-102788587D01*
X154731692Y-101728979D02*
X154548854Y-101911817D01*
X157235511Y-103464579D02*
X156049143Y-102278211D01*
X156049143Y-102278211D02*
X155935856Y-102278211D01*
X157256366Y-103464579D02*
X157235511Y-103464579D01*
X155935856Y-102278211D02*
X155450923Y-102278211D01*
X157615787Y-103824000D02*
X157256366Y-103464579D01*
X158110316Y-103824000D02*
X157615787Y-103824000D01*
X155317759Y-102847174D02*
X155184933Y-102980000D01*
X157485674Y-104224000D02*
X156108848Y-102847174D01*
X158110316Y-104224000D02*
X157485674Y-104224000D01*
X156108848Y-102847174D02*
X155317759Y-102847174D01*
X155184933Y-102980000D02*
X154700000Y-102980000D01*
X157391649Y-104624000D02*
X156216289Y-103448640D01*
X156216289Y-103448640D02*
X155731356Y-103448640D01*
X158110316Y-104624000D02*
X157391649Y-104624000D01*
X155641706Y-104173153D02*
X155156773Y-104173153D01*
X158295000Y-105000000D02*
X156900000Y-105000000D01*
X156073153Y-104173153D02*
X155641706Y-104173153D01*
X156900000Y-105000000D02*
X156073153Y-104173153D01*
X158295000Y-105400000D02*
X157368934Y-105400000D01*
X155500489Y-104671502D02*
X155429876Y-104742115D01*
X154248970Y-105288335D02*
X154248970Y-105773268D01*
X156773744Y-105304811D02*
X156140435Y-104671502D01*
X154795190Y-104742115D02*
X154248970Y-105288335D01*
X155429876Y-104742115D02*
X154795190Y-104742115D01*
X157273745Y-105304811D02*
X156773744Y-105304811D01*
X157368934Y-105400000D02*
X157273745Y-105304811D01*
X156140435Y-104671502D02*
X155500489Y-104671502D01*
X157147489Y-105609622D02*
X156647487Y-105609621D01*
X156647487Y-105609621D02*
X156014179Y-104976313D01*
X155515841Y-105311095D02*
X155030908Y-105311095D01*
X156014179Y-104976313D02*
X155850623Y-104976313D01*
X157337867Y-105800000D02*
X157147489Y-105609622D01*
X158295000Y-105800000D02*
X157337867Y-105800000D01*
X155850623Y-104976313D02*
X155515841Y-105311095D01*
X157021233Y-105914433D02*
X156144048Y-105914433D01*
X156144048Y-105914433D02*
X155987304Y-105757689D01*
X157330800Y-106224000D02*
X157021233Y-105914433D01*
X158110316Y-106224000D02*
X157330800Y-106224000D01*
X157299732Y-106624000D02*
X156894976Y-106219244D01*
X156076635Y-106504132D02*
X155591702Y-106504132D01*
X158110316Y-106624000D02*
X157299732Y-106624000D01*
X156894976Y-106219244D02*
X156361523Y-106219244D01*
X156361523Y-106219244D02*
X156076635Y-106504132D01*
X156798411Y-106993051D02*
X156597189Y-106791829D01*
X158110316Y-107024000D02*
X158079367Y-106993051D01*
X158079367Y-106993051D02*
X156798411Y-106993051D01*
X156600000Y-108500000D02*
X156300000Y-108800000D01*
X156300000Y-108800000D02*
X155849475Y-109250525D01*
X158110316Y-108976401D02*
X156476401Y-108976401D01*
X156476401Y-108976401D02*
X156300000Y-108800000D01*
X156900000Y-108200000D02*
X156600000Y-108500000D01*
X158110316Y-108576401D02*
X156676401Y-108576401D01*
X156676401Y-108576401D02*
X156600000Y-108500000D01*
X157300000Y-107800000D02*
X156900000Y-108200000D01*
X158110316Y-108176401D02*
X156923599Y-108176401D01*
X156923599Y-108176401D02*
X156900000Y-108200000D01*
X157700000Y-107400000D02*
X157300000Y-107800000D01*
X158295000Y-107800000D02*
X157812600Y-107800000D01*
X157812600Y-107800000D02*
X157300000Y-107800000D01*
X158295000Y-107400000D02*
X157700000Y-107400000D01*
X155849475Y-109250525D02*
X155849475Y-109450942D01*
X158035775Y-109450942D02*
X156334408Y-109450942D01*
X158110316Y-109376401D02*
X158035775Y-109450942D01*
X156334408Y-109450942D02*
X155849475Y-109450942D01*
X157573914Y-109776401D02*
X157097034Y-110253281D01*
X157097034Y-110253281D02*
X156813429Y-110253281D01*
X158110316Y-109776401D02*
X157573914Y-109776401D01*
X156813429Y-110253281D02*
X156328496Y-110253281D01*
X157604981Y-110176401D02*
X157033847Y-110747535D01*
X156909579Y-110747535D02*
X156832313Y-110824801D01*
X156832313Y-110824801D02*
X156026595Y-110824801D01*
X156026595Y-110824801D02*
X155946597Y-110744803D01*
X155946597Y-110744803D02*
X155461664Y-110744803D01*
X158110316Y-110176401D02*
X157604981Y-110176401D01*
X157033847Y-110747535D02*
X156909579Y-110747535D01*
X158110316Y-110576401D02*
X157636048Y-110576401D01*
X156691879Y-111396303D02*
X156543899Y-111396303D01*
X157636048Y-110576401D02*
X157160103Y-111052346D01*
X157035836Y-111052346D02*
X156691879Y-111396303D01*
X157160103Y-111052346D02*
X157035836Y-111052346D01*
X156543899Y-111396303D02*
X156058966Y-111396303D01*
X158110316Y-110976401D02*
X157667115Y-110976401D01*
X157286359Y-111357157D02*
X157162092Y-111357157D01*
X156007470Y-111965499D02*
X155632072Y-111965499D01*
X157667115Y-110976401D02*
X157286359Y-111357157D01*
X156143702Y-112101731D02*
X156007470Y-111965499D01*
X155632072Y-111965499D02*
X155607279Y-111940706D01*
X155607279Y-111940706D02*
X155122346Y-111940706D01*
X156417518Y-112101731D02*
X156143702Y-112101731D01*
X157162092Y-111357157D02*
X156417518Y-112101731D01*
X158110316Y-111376401D02*
X157698183Y-111376401D01*
X157698183Y-111376401D02*
X157412616Y-111661968D01*
X156413316Y-112537001D02*
X156218080Y-112537001D01*
X156218080Y-112537001D02*
X155733147Y-112537001D01*
X157288349Y-111661968D02*
X156413316Y-112537001D01*
X157412616Y-111661968D02*
X157288349Y-111661968D01*
X157414605Y-111966779D02*
X156027739Y-113353645D01*
X155645427Y-113106476D02*
X155473632Y-113106476D01*
X157729249Y-111776401D02*
X157538871Y-111966779D01*
X156027739Y-113353645D02*
X155892596Y-113353645D01*
X158110316Y-111776401D02*
X157729249Y-111776401D01*
X157538871Y-111966779D02*
X157414605Y-111966779D01*
X155473632Y-113106476D02*
X154988699Y-113106476D01*
X155892596Y-113353645D02*
X155645427Y-113106476D01*
X157673200Y-112263516D02*
X157639546Y-112263516D01*
X157639546Y-112263516D02*
X157536283Y-112366779D01*
X157536283Y-112366779D02*
X157445672Y-112366779D01*
X156005858Y-113806593D02*
X155934539Y-113806593D01*
X157760316Y-112176401D02*
X157673200Y-112263516D01*
X157445672Y-112366779D02*
X156005858Y-113806593D01*
X155934539Y-113806593D02*
X155449606Y-113806593D01*
X158110316Y-112176401D02*
X157760316Y-112176401D01*
X155865423Y-114378095D02*
X155191398Y-114378095D01*
X157571928Y-112671590D02*
X155865423Y-114378095D01*
X157662539Y-112671590D02*
X157571928Y-112671590D01*
X158110316Y-112576401D02*
X157760316Y-112576401D01*
X157760316Y-112576401D02*
X157743083Y-112591046D01*
X155101477Y-114288174D02*
X154616544Y-114288174D01*
X157743083Y-112591046D02*
X157662539Y-112671590D01*
X155191398Y-114378095D02*
X155101477Y-114288174D01*
X158110316Y-112976401D02*
X157716800Y-112976401D01*
X155263501Y-114838398D02*
X155152729Y-114949170D01*
X155836186Y-114838398D02*
X155263501Y-114838398D01*
X157463374Y-113229827D02*
X157345814Y-113328770D01*
X157716800Y-112976401D02*
X157463374Y-113229827D01*
X157345814Y-113328770D02*
X155836186Y-114838398D01*
X155724231Y-115223492D02*
X155427051Y-115520672D01*
X155882162Y-115223492D02*
X155724231Y-115223492D01*
X155427051Y-115520672D02*
X154878408Y-115520672D01*
X157756245Y-113381734D02*
X157552123Y-113553531D01*
X154627367Y-115269631D02*
X154419628Y-115269631D01*
X158110316Y-113376401D02*
X157761578Y-113376401D01*
X157552123Y-113553531D02*
X155882162Y-115223492D01*
X154419628Y-115269631D02*
X153934695Y-115269631D01*
X154878408Y-115520672D02*
X154627367Y-115269631D01*
X157761578Y-113376401D02*
X157756245Y-113381734D01*
X158110316Y-113776401D02*
X157760680Y-113776401D01*
X157760680Y-113776401D02*
X157758408Y-113778313D01*
X157758408Y-113778313D02*
X155998054Y-115538667D01*
X155998054Y-115538667D02*
X155840122Y-115538667D01*
X155553307Y-115825483D02*
X155053351Y-115825483D01*
X155840122Y-115538667D02*
X155553307Y-115825483D01*
X155053351Y-115825483D02*
X154956626Y-115922208D01*
X154956626Y-115922208D02*
X154471693Y-115922208D01*
X155601184Y-116208673D02*
X155368216Y-116208673D01*
X158110316Y-114176401D02*
X157791386Y-114176401D01*
X156124310Y-115843478D02*
X155966379Y-115843478D01*
X155368216Y-116208673D02*
X155025317Y-116551572D01*
X155966379Y-115843478D02*
X155601184Y-116208673D01*
X157791386Y-114176401D02*
X156124310Y-115843478D01*
X156559266Y-115839584D02*
X156559266Y-116072081D01*
X158110316Y-114576401D02*
X157822449Y-114576401D01*
X157822449Y-114576401D02*
X156559266Y-115839584D01*
X156559266Y-116072081D02*
X156216367Y-116414980D01*
X158110316Y-114976401D02*
X157853515Y-114976401D01*
X156875103Y-116514448D02*
X156875103Y-116999381D01*
X156875103Y-115954813D02*
X156875103Y-116514448D01*
X157853515Y-114976401D02*
X156875103Y-115954813D01*
X135291398Y-115600000D02*
X135776331Y-115600000D01*
X134096767Y-115600000D02*
X135291398Y-115600000D01*
X133594652Y-116102115D02*
X134096767Y-115600000D01*
X152917422Y-98015953D02*
X152917422Y-97531020D01*
X152917422Y-99485076D02*
X152917422Y-98015953D01*
X151166057Y-101236441D02*
X152917422Y-99485076D01*
X145898236Y-116894880D02*
X145898236Y-117379813D01*
X151700000Y-112900000D02*
X149893116Y-112900000D01*
X149893116Y-112900000D02*
X145898236Y-116894880D01*
X135328480Y-114440100D02*
X134745132Y-115023448D01*
X134745132Y-115023448D02*
X134276211Y-115023448D01*
X158295000Y-99800000D02*
X158295000Y-99005000D01*
X158295000Y-99005000D02*
X158300000Y-99000000D01*
X158295000Y-100200000D02*
X158295000Y-99800000D01*
G36*
X161849178Y-90649555D02*
X161152004Y-91345514D01*
X160774230Y-92255292D01*
X160773371Y-93240386D01*
X161149555Y-94150822D01*
X161845514Y-94847996D01*
X162755292Y-95225770D01*
X163740386Y-95226629D01*
X164650822Y-94850445D01*
X165241966Y-94260331D01*
X165183084Y-94402135D01*
X165182850Y-94669911D01*
X165285108Y-94917393D01*
X165474289Y-95106904D01*
X165721592Y-95209593D01*
X165742783Y-95209612D01*
X165742765Y-95230459D01*
X165734475Y-95227017D01*
X165466699Y-95226783D01*
X165219217Y-95329041D01*
X165029706Y-95518222D01*
X164927017Y-95765525D01*
X164926783Y-96033301D01*
X165029041Y-96280783D01*
X165218222Y-96470294D01*
X165465525Y-96572983D01*
X165733301Y-96573217D01*
X165980783Y-96470959D01*
X166002150Y-96449630D01*
X166002102Y-96504095D01*
X166104360Y-96751577D01*
X166293541Y-96941088D01*
X166540844Y-97043777D01*
X166808620Y-97044011D01*
X167056102Y-96941753D01*
X167220948Y-96777194D01*
X167675028Y-96777194D01*
X167830551Y-96746259D01*
X167962396Y-96658162D01*
X170988720Y-93631839D01*
X171076817Y-93499993D01*
X171081696Y-93475465D01*
X171107752Y-93344470D01*
X171107752Y-93012244D01*
X171084300Y-92894341D01*
X171225525Y-92952983D01*
X171386546Y-92953124D01*
X171790728Y-93357306D01*
X171729706Y-93418222D01*
X171627017Y-93665525D01*
X171626783Y-93933301D01*
X171729041Y-94180783D01*
X171918222Y-94370294D01*
X172165525Y-94472983D01*
X172433301Y-94473217D01*
X172680783Y-94370959D01*
X172870294Y-94181778D01*
X172972983Y-93934475D01*
X172973217Y-93666699D01*
X172870959Y-93419217D01*
X172757200Y-93305260D01*
X172757200Y-93220000D01*
X172722398Y-93045037D01*
X172623289Y-92896711D01*
X172033077Y-92306499D01*
X172033217Y-92146699D01*
X171930959Y-91899217D01*
X171741778Y-91709706D01*
X171494475Y-91607017D01*
X171226699Y-91606783D01*
X170979217Y-91709041D01*
X170789706Y-91898222D01*
X170711303Y-92087039D01*
X170492928Y-91996362D01*
X170225152Y-91996128D01*
X170028994Y-92077179D01*
X169881778Y-91929706D01*
X169634475Y-91827017D01*
X169593048Y-91826981D01*
X169672983Y-91634475D01*
X169673217Y-91366699D01*
X169570959Y-91119217D01*
X169381778Y-90929706D01*
X169134475Y-90827017D01*
X168866699Y-90826783D01*
X168619217Y-90929041D01*
X168460905Y-91087077D01*
X168281778Y-90907637D01*
X168034475Y-90804948D01*
X167766699Y-90804714D01*
X167519217Y-90906972D01*
X167329706Y-91096153D01*
X167311932Y-91138958D01*
X167234700Y-91190563D01*
X166698278Y-91726985D01*
X166466699Y-91726783D01*
X166219217Y-91829041D01*
X166029706Y-92018222D01*
X165927017Y-92265525D01*
X165926876Y-92426836D01*
X165866699Y-92426783D01*
X165726433Y-92484740D01*
X165726629Y-92259614D01*
X165350445Y-91349178D01*
X164654486Y-90652004D01*
X164060118Y-90405200D01*
X172210092Y-90405200D01*
X173144277Y-90591021D01*
X173902410Y-91097588D01*
X174408979Y-91855723D01*
X174594800Y-92789907D01*
X174594800Y-126460093D01*
X174408979Y-127394277D01*
X173902410Y-128152412D01*
X173144277Y-128658979D01*
X172210092Y-128844800D01*
X132789907Y-128844800D01*
X131855723Y-128658979D01*
X131097588Y-128152410D01*
X130591021Y-127394277D01*
X130405200Y-126460092D01*
X130405200Y-124059437D01*
X130649555Y-124650822D01*
X131345514Y-125347996D01*
X132255292Y-125725770D01*
X133240386Y-125726629D01*
X134150822Y-125350445D01*
X134847996Y-124654486D01*
X135225770Y-123744708D01*
X135226629Y-122759614D01*
X134850445Y-121849178D01*
X134154486Y-121152004D01*
X133244708Y-120774230D01*
X132259614Y-120773371D01*
X131349178Y-121149555D01*
X130652004Y-121845514D01*
X130405200Y-122439882D01*
X130405200Y-119933301D01*
X137391110Y-119933301D01*
X137493368Y-120180783D01*
X137682549Y-120370294D01*
X137929852Y-120472983D01*
X138197628Y-120473217D01*
X138445110Y-120370959D01*
X138482062Y-120334071D01*
X138518222Y-120370294D01*
X138765525Y-120472983D01*
X139033301Y-120473217D01*
X139280783Y-120370959D01*
X139470294Y-120181778D01*
X139572983Y-119934475D01*
X139573217Y-119666699D01*
X139470959Y-119419217D01*
X139306400Y-119254371D01*
X139306400Y-115788242D01*
X141702941Y-113391701D01*
X141934521Y-113391903D01*
X142168975Y-113295028D01*
X142153033Y-113318887D01*
X142122098Y-113474410D01*
X142122098Y-114703166D01*
X140890309Y-115934955D01*
X140802212Y-116066800D01*
X140771277Y-116222323D01*
X140771277Y-116991557D01*
X140012632Y-117750202D01*
X139924535Y-117882047D01*
X139893600Y-118037570D01*
X139893600Y-119354613D01*
X139729706Y-119518222D01*
X139627017Y-119765525D01*
X139626783Y-120033301D01*
X139729041Y-120280783D01*
X139918222Y-120470294D01*
X140165525Y-120572983D01*
X140433301Y-120573217D01*
X140680783Y-120470959D01*
X140863122Y-120288938D01*
X141065525Y-120372983D01*
X141333301Y-120373217D01*
X141473415Y-120315323D01*
X141631407Y-120473590D01*
X141878710Y-120576279D01*
X142146486Y-120576513D01*
X142393968Y-120474255D01*
X142536390Y-120332081D01*
X142765525Y-120427226D01*
X143033301Y-120427460D01*
X143280783Y-120325202D01*
X143398418Y-120207771D01*
X143407692Y-120230215D01*
X143596873Y-120419726D01*
X143844176Y-120522415D01*
X144111952Y-120522649D01*
X144359434Y-120420391D01*
X144514102Y-120265992D01*
X144618222Y-120370294D01*
X144865525Y-120472983D01*
X145133301Y-120473217D01*
X145380783Y-120370959D01*
X145570294Y-120181778D01*
X145672983Y-119934475D01*
X145673217Y-119666699D01*
X145570959Y-119419217D01*
X145406400Y-119254371D01*
X145406400Y-118945387D01*
X145570294Y-118781778D01*
X145672983Y-118534475D01*
X145673217Y-118266699D01*
X145570959Y-118019217D01*
X145381778Y-117829706D01*
X145134475Y-117727017D01*
X144866699Y-117726783D01*
X144619217Y-117829041D01*
X144549958Y-117898179D01*
X144381778Y-117729706D01*
X144134475Y-117627017D01*
X143866699Y-117626783D01*
X143652051Y-117715474D01*
X143570959Y-117519217D01*
X143564867Y-117513114D01*
X145225019Y-117513114D01*
X145327277Y-117760596D01*
X145516458Y-117950107D01*
X145763761Y-118052796D01*
X146031537Y-118053030D01*
X146279019Y-117950772D01*
X146468530Y-117761591D01*
X146485577Y-117720538D01*
X146543205Y-117744467D01*
X146776130Y-117744671D01*
X147160841Y-118129382D01*
X147292687Y-118217479D01*
X147448209Y-118248413D01*
X148639742Y-118248413D01*
X148627017Y-118279058D01*
X148626783Y-118546834D01*
X148729041Y-118794316D01*
X148918222Y-118983827D01*
X149165525Y-119086516D01*
X149419792Y-119086738D01*
X149440809Y-119100782D01*
X149361636Y-119179818D01*
X149234477Y-119127017D01*
X148966701Y-119126783D01*
X148719219Y-119229041D01*
X148700046Y-119248180D01*
X148581778Y-119129706D01*
X148334475Y-119027017D01*
X148066699Y-119026783D01*
X147819217Y-119129041D01*
X147629706Y-119318222D01*
X147527017Y-119565525D01*
X147526783Y-119833301D01*
X147629041Y-120080783D01*
X147808677Y-120260733D01*
X147824535Y-120340456D01*
X147892121Y-120441604D01*
X147912632Y-120472301D01*
X148470720Y-121030389D01*
X148602565Y-121118486D01*
X148758088Y-121149421D01*
X152588898Y-121149421D01*
X152744421Y-121118486D01*
X152876266Y-121030389D01*
X154105160Y-119801495D01*
X154336740Y-119801697D01*
X154546713Y-119714937D01*
X154546713Y-120332293D01*
X154382819Y-120495902D01*
X154280130Y-120743205D01*
X154279896Y-121010981D01*
X154382154Y-121258463D01*
X154571335Y-121447974D01*
X154818638Y-121550663D01*
X155086414Y-121550897D01*
X155333896Y-121448639D01*
X155523407Y-121259458D01*
X155626096Y-121012155D01*
X155626330Y-120744379D01*
X155524072Y-120496897D01*
X155359513Y-120332051D01*
X155359513Y-118607289D01*
X155328578Y-118451766D01*
X155313838Y-118429706D01*
X155240481Y-118319920D01*
X154330348Y-117409788D01*
X154307832Y-117394743D01*
X154198503Y-117321691D01*
X154042980Y-117290756D01*
X152152626Y-117290756D01*
X151997103Y-117321691D01*
X151865258Y-117409788D01*
X151393377Y-117881669D01*
X151369720Y-117824414D01*
X151180539Y-117634903D01*
X150933236Y-117532214D01*
X150700310Y-117532010D01*
X150151444Y-116983144D01*
X150116464Y-116959771D01*
X150019599Y-116895047D01*
X149864076Y-116864112D01*
X149859826Y-116864112D01*
X149696217Y-116700218D01*
X149454840Y-116599990D01*
X151925630Y-114129200D01*
X153442772Y-114129200D01*
X153555669Y-114242294D01*
X153802972Y-114344983D01*
X153943394Y-114345106D01*
X153943327Y-114421475D01*
X154015688Y-114596601D01*
X153801394Y-114596414D01*
X153553912Y-114698672D01*
X153364401Y-114887853D01*
X153261712Y-115135156D01*
X153261478Y-115402932D01*
X153363736Y-115650414D01*
X153552917Y-115839925D01*
X153798575Y-115941931D01*
X153798476Y-116055509D01*
X153900734Y-116302991D01*
X154089915Y-116492502D01*
X154337218Y-116595191D01*
X154352178Y-116595204D01*
X154352100Y-116684873D01*
X154454358Y-116932355D01*
X154643539Y-117121866D01*
X154890842Y-117224555D01*
X155158618Y-117224789D01*
X155406100Y-117122531D01*
X155595611Y-116933350D01*
X155650588Y-116800952D01*
X155834589Y-116985274D01*
X156081892Y-117087963D01*
X156189569Y-117088057D01*
X156056341Y-117143106D01*
X155866830Y-117332287D01*
X155764141Y-117579590D01*
X155763907Y-117847366D01*
X155866165Y-118094848D01*
X156055346Y-118284359D01*
X156302649Y-118387048D01*
X156570425Y-118387282D01*
X156817907Y-118285024D01*
X156982753Y-118120465D01*
X157030542Y-118120465D01*
X157186065Y-118089530D01*
X157317910Y-118001433D01*
X158532674Y-116786669D01*
X158625000Y-116786669D01*
X158747365Y-116763644D01*
X158859749Y-116691327D01*
X158935144Y-116580983D01*
X158961669Y-116450000D01*
X158961669Y-116100000D01*
X158943625Y-116004105D01*
X158961669Y-115915000D01*
X158961669Y-115685000D01*
X158945088Y-115596880D01*
X158961669Y-115515000D01*
X158961669Y-115285000D01*
X158945088Y-115196880D01*
X158961669Y-115115000D01*
X158961669Y-114885000D01*
X158945088Y-114796880D01*
X158961669Y-114715000D01*
X158961669Y-114485000D01*
X158945088Y-114396880D01*
X158961669Y-114315000D01*
X158961669Y-114085000D01*
X158945088Y-113996880D01*
X158961669Y-113915000D01*
X158961669Y-113685000D01*
X158945088Y-113596880D01*
X158961669Y-113515000D01*
X158961669Y-113285000D01*
X158945088Y-113196880D01*
X158961669Y-113115000D01*
X158961669Y-112885000D01*
X158945088Y-112796880D01*
X158961669Y-112715000D01*
X158961669Y-112485000D01*
X158945088Y-112396880D01*
X158961669Y-112315000D01*
X158961669Y-112085000D01*
X158945088Y-111996880D01*
X158961669Y-111915000D01*
X158961669Y-111685000D01*
X158945088Y-111596880D01*
X158961669Y-111515000D01*
X158961669Y-111285000D01*
X158945123Y-111197068D01*
X159018222Y-111270294D01*
X159265525Y-111372983D01*
X159533301Y-111373217D01*
X159780783Y-111270959D01*
X159970294Y-111081778D01*
X160072983Y-110834475D01*
X160073182Y-110606400D01*
X160338331Y-110606400D01*
X160338331Y-110715000D01*
X160354912Y-110803120D01*
X160338331Y-110885000D01*
X160338331Y-111115000D01*
X160354912Y-111203120D01*
X160338331Y-111285000D01*
X160338331Y-111515000D01*
X160354912Y-111603120D01*
X160338331Y-111685000D01*
X160338331Y-111915000D01*
X160354912Y-112003120D01*
X160338331Y-112085000D01*
X160338331Y-112315000D01*
X160354912Y-112403120D01*
X160338331Y-112485000D01*
X160338331Y-112715000D01*
X160354912Y-112803120D01*
X160338331Y-112885000D01*
X160338331Y-113115000D01*
X160354912Y-113203120D01*
X160338331Y-113285000D01*
X160338331Y-113515000D01*
X160354912Y-113603120D01*
X160338331Y-113685000D01*
X160338331Y-113915000D01*
X160354912Y-114003120D01*
X160338331Y-114085000D01*
X160338331Y-114315000D01*
X160354912Y-114403120D01*
X160338331Y-114485000D01*
X160338331Y-114715000D01*
X160354912Y-114803120D01*
X160338331Y-114885000D01*
X160338331Y-115115000D01*
X160354912Y-115203120D01*
X160338331Y-115285000D01*
X160338331Y-115515000D01*
X160354912Y-115603120D01*
X160338331Y-115685000D01*
X160338331Y-115915000D01*
X160356375Y-116010895D01*
X160338331Y-116100000D01*
X160338331Y-116450000D01*
X160361356Y-116572365D01*
X160433673Y-116684749D01*
X160544017Y-116760144D01*
X160675000Y-116786669D01*
X160849908Y-116786669D01*
X160849834Y-116871033D01*
X160952092Y-117118515D01*
X161141273Y-117308026D01*
X161388576Y-117410715D01*
X161656352Y-117410949D01*
X161903834Y-117308691D01*
X162093345Y-117119510D01*
X162196034Y-116872207D01*
X162196086Y-116813128D01*
X162196564Y-116814286D01*
X162385745Y-117003797D01*
X162633048Y-117106486D01*
X162900824Y-117106720D01*
X162952646Y-117085308D01*
X162952586Y-117153466D01*
X163054844Y-117400948D01*
X163244025Y-117590459D01*
X163276945Y-117604129D01*
X162930373Y-117950701D01*
X160642899Y-117950701D01*
X160499392Y-117979246D01*
X160487376Y-117981636D01*
X160419479Y-118027004D01*
X160166699Y-118026783D01*
X159919217Y-118129041D01*
X159729706Y-118318222D01*
X159627017Y-118565525D01*
X159626783Y-118833301D01*
X159729041Y-119080783D01*
X159743670Y-119095438D01*
X159705058Y-119095404D01*
X159457576Y-119197662D01*
X159268065Y-119386843D01*
X159165376Y-119634146D01*
X159165142Y-119901922D01*
X159267400Y-120149404D01*
X159456581Y-120338915D01*
X159703884Y-120441604D01*
X159971660Y-120441838D01*
X160219142Y-120339580D01*
X160399092Y-120159944D01*
X160478815Y-120144086D01*
X160535215Y-120106400D01*
X164601144Y-120106400D01*
X164756667Y-120075465D01*
X164888512Y-119987368D01*
X164953000Y-119922880D01*
X165184580Y-119923082D01*
X165432062Y-119820824D01*
X165621573Y-119631643D01*
X165724262Y-119384340D01*
X165724466Y-119151414D01*
X166161953Y-118713927D01*
X166193600Y-118745629D01*
X166193600Y-119777488D01*
X165477488Y-120493600D01*
X164422512Y-120493600D01*
X164341544Y-120412632D01*
X164311784Y-120392747D01*
X164209699Y-120324535D01*
X164054176Y-120293600D01*
X161700000Y-120293600D01*
X161544477Y-120324535D01*
X161442392Y-120392747D01*
X161412632Y-120412632D01*
X160898279Y-120926985D01*
X160666699Y-120926783D01*
X160419217Y-121029041D01*
X160229706Y-121218222D01*
X160127017Y-121465525D01*
X160126783Y-121733301D01*
X160229041Y-121980783D01*
X160418222Y-122170294D01*
X160665525Y-122272983D01*
X160933301Y-122273217D01*
X160982919Y-122252715D01*
X160774230Y-122755292D01*
X160773371Y-123740386D01*
X161149555Y-124650822D01*
X161845514Y-125347996D01*
X162755292Y-125725770D01*
X163740386Y-125726629D01*
X164650822Y-125350445D01*
X165347996Y-124654486D01*
X165647459Y-123933301D01*
X168626783Y-123933301D01*
X168729041Y-124180783D01*
X168918222Y-124370294D01*
X169165525Y-124472983D01*
X169433301Y-124473217D01*
X169680783Y-124370959D01*
X169794740Y-124257200D01*
X170505325Y-124257200D01*
X170618222Y-124370294D01*
X170865525Y-124472983D01*
X171133301Y-124473217D01*
X171380783Y-124370959D01*
X171570294Y-124181778D01*
X171672983Y-123934475D01*
X171673217Y-123666699D01*
X171570959Y-123419217D01*
X171381778Y-123229706D01*
X171134475Y-123127017D01*
X170866699Y-123126783D01*
X170619217Y-123229041D01*
X170505260Y-123342800D01*
X169794675Y-123342800D01*
X169681778Y-123229706D01*
X169434475Y-123127017D01*
X169166699Y-123126783D01*
X168919217Y-123229041D01*
X168729706Y-123418222D01*
X168627017Y-123665525D01*
X168626783Y-123933301D01*
X165647459Y-123933301D01*
X165725770Y-123744708D01*
X165726629Y-122759614D01*
X165712425Y-122725237D01*
X165881814Y-122725385D01*
X165932085Y-122704614D01*
X165955465Y-122727994D01*
X165955263Y-122959574D01*
X166057521Y-123207056D01*
X166246702Y-123396567D01*
X166494005Y-123499256D01*
X166761781Y-123499490D01*
X167009263Y-123397232D01*
X167198774Y-123208051D01*
X167301463Y-122960748D01*
X167301697Y-122692972D01*
X167199439Y-122445490D01*
X167010258Y-122255979D01*
X166762955Y-122153290D01*
X166530029Y-122153086D01*
X166421620Y-122044677D01*
X166421730Y-121918867D01*
X166319472Y-121671385D01*
X166130291Y-121481874D01*
X165882988Y-121379185D01*
X165615212Y-121378951D01*
X165367730Y-121481209D01*
X165178219Y-121670390D01*
X165176383Y-121674812D01*
X164808613Y-121306400D01*
X165645824Y-121306400D01*
X165801347Y-121275465D01*
X165933192Y-121187368D01*
X166887368Y-120233192D01*
X166906564Y-120204463D01*
X166975465Y-120101347D01*
X167006400Y-119945824D01*
X167006400Y-118745387D01*
X167170294Y-118581778D01*
X167272983Y-118334475D01*
X167273217Y-118066699D01*
X167170959Y-117819217D01*
X167055997Y-117704054D01*
X167401898Y-117358153D01*
X167633478Y-117358355D01*
X167665279Y-117345215D01*
X167665279Y-117366254D01*
X167696214Y-117521777D01*
X167766378Y-117626783D01*
X167784311Y-117653622D01*
X171184613Y-121053924D01*
X171184411Y-121285504D01*
X171286669Y-121532986D01*
X171475850Y-121722497D01*
X171723153Y-121825186D01*
X171990929Y-121825420D01*
X172238411Y-121723162D01*
X172427922Y-121533981D01*
X172530611Y-121286678D01*
X172530845Y-121018902D01*
X172428587Y-120771420D01*
X172239406Y-120581909D01*
X171992103Y-120479220D01*
X171759177Y-120479016D01*
X171169770Y-119889609D01*
X171254174Y-119906398D01*
X171332293Y-119906398D01*
X171495902Y-120070292D01*
X171743205Y-120172981D01*
X172010981Y-120173215D01*
X172258463Y-120070957D01*
X172447974Y-119881776D01*
X172550663Y-119634473D01*
X172550897Y-119366697D01*
X172448639Y-119119215D01*
X172259458Y-118929704D01*
X172073055Y-118852303D01*
X172073217Y-118666699D01*
X171970959Y-118419217D01*
X171806400Y-118254371D01*
X171806400Y-117292766D01*
X171775465Y-117137243D01*
X171687368Y-117005398D01*
X169241755Y-114559785D01*
X169241957Y-114328205D01*
X169139699Y-114080723D01*
X169095124Y-114036070D01*
X169967204Y-114036070D01*
X170055236Y-114249123D01*
X170244417Y-114438634D01*
X170491720Y-114541323D01*
X170759496Y-114541557D01*
X171006978Y-114439299D01*
X171196489Y-114250118D01*
X171299178Y-114002815D01*
X171299412Y-113735039D01*
X171197154Y-113487557D01*
X171007973Y-113298046D01*
X170762886Y-113196277D01*
X170766636Y-113187246D01*
X170766870Y-112919470D01*
X170664612Y-112671988D01*
X170475431Y-112482477D01*
X170228128Y-112379788D01*
X170173412Y-112379740D01*
X170173635Y-112124843D01*
X170071377Y-111877361D01*
X169882196Y-111687850D01*
X169634893Y-111585161D01*
X169367117Y-111584927D01*
X169272456Y-111624040D01*
X169272679Y-111368839D01*
X169170421Y-111121357D01*
X168981240Y-110931846D01*
X168733937Y-110829157D01*
X168479670Y-110828935D01*
X168412086Y-110783776D01*
X168256563Y-110752841D01*
X164773402Y-110752841D01*
X164478421Y-110457860D01*
X164447748Y-110437365D01*
X164346576Y-110369763D01*
X164191053Y-110338828D01*
X164189151Y-110338828D01*
X164201868Y-110308201D01*
X164202102Y-110040425D01*
X164099844Y-109792943D01*
X163910663Y-109603432D01*
X163663360Y-109500743D01*
X163395584Y-109500509D01*
X163148102Y-109602767D01*
X162958591Y-109791948D01*
X162855902Y-110039251D01*
X162855869Y-110077206D01*
X162763074Y-110170001D01*
X161671669Y-110170001D01*
X161671669Y-110085000D01*
X161655088Y-109996880D01*
X161671669Y-109915000D01*
X161671669Y-109756257D01*
X161774768Y-109687368D01*
X162079336Y-109382801D01*
X162276401Y-109382801D01*
X162431924Y-109351866D01*
X162563769Y-109263769D01*
X162651866Y-109131924D01*
X162682801Y-108976401D01*
X162682801Y-108291931D01*
X162887364Y-108087369D01*
X162887366Y-108087366D01*
X163601721Y-107373011D01*
X163833301Y-107373213D01*
X164080783Y-107270955D01*
X164270294Y-107081774D01*
X164372983Y-106834471D01*
X164373217Y-106566695D01*
X164270959Y-106319213D01*
X164098376Y-106146329D01*
X164280783Y-106070959D01*
X164470294Y-105881778D01*
X164572983Y-105634475D01*
X164573217Y-105366699D01*
X164470959Y-105119217D01*
X164281778Y-104929706D01*
X164226611Y-104906799D01*
X164341563Y-104906899D01*
X164589045Y-104804641D01*
X164778556Y-104615460D01*
X164881245Y-104368157D01*
X164881479Y-104100381D01*
X164779221Y-103852899D01*
X164670067Y-103743555D01*
X164891771Y-103651948D01*
X165081282Y-103462767D01*
X165097352Y-103424065D01*
X165745669Y-103424065D01*
X165847927Y-103671547D01*
X165993935Y-103817810D01*
X165928969Y-103974265D01*
X165928735Y-104242041D01*
X166030993Y-104489523D01*
X166065289Y-104523879D01*
X166023958Y-104565138D01*
X165921269Y-104812441D01*
X165921035Y-105080217D01*
X166014966Y-105307547D01*
X165924883Y-105397474D01*
X165822194Y-105644777D01*
X165821960Y-105912553D01*
X165924218Y-106160035D01*
X166113399Y-106349546D01*
X166360702Y-106452235D01*
X166628478Y-106452469D01*
X166875960Y-106350211D01*
X167065471Y-106161030D01*
X167088155Y-106106400D01*
X167154613Y-106106400D01*
X167318222Y-106270294D01*
X167565525Y-106372983D01*
X167833301Y-106373217D01*
X168080783Y-106270959D01*
X168270294Y-106081778D01*
X168372983Y-105834475D01*
X168373124Y-105673077D01*
X168533301Y-105673217D01*
X168780783Y-105570959D01*
X168970294Y-105381778D01*
X169072983Y-105134475D01*
X169073089Y-105013130D01*
X170723614Y-105013130D01*
X170887110Y-105408822D01*
X171189586Y-105711826D01*
X171584991Y-105876013D01*
X172013130Y-105876386D01*
X172408822Y-105712890D01*
X172711826Y-105410414D01*
X172876013Y-105015009D01*
X172876386Y-104586870D01*
X172712890Y-104191178D01*
X172410414Y-103888174D01*
X172015009Y-103723987D01*
X171586870Y-103723614D01*
X171191178Y-103887110D01*
X170888174Y-104189586D01*
X170723987Y-104584991D01*
X170723614Y-105013130D01*
X169073089Y-105013130D01*
X169073217Y-104866699D01*
X169005236Y-104702174D01*
X169080783Y-104670959D01*
X169270294Y-104481778D01*
X169372983Y-104234475D01*
X169373217Y-103966699D01*
X169335519Y-103875464D01*
X169379299Y-103866756D01*
X169511144Y-103778659D01*
X169568909Y-103720894D01*
X169618222Y-103770294D01*
X169865525Y-103872983D01*
X170133301Y-103873217D01*
X170380783Y-103770959D01*
X170570294Y-103581778D01*
X170672983Y-103334475D01*
X170673217Y-103066699D01*
X170573075Y-102824339D01*
X171144350Y-102824339D01*
X171144289Y-102894139D01*
X171246547Y-103141621D01*
X171435728Y-103331132D01*
X171683031Y-103433821D01*
X171950807Y-103434055D01*
X172198289Y-103331797D01*
X172387800Y-103142616D01*
X172490489Y-102895313D01*
X172490723Y-102627537D01*
X172425742Y-102470272D01*
X172494565Y-102470272D01*
X172650088Y-102439337D01*
X172781933Y-102351240D01*
X173168798Y-101964375D01*
X173400378Y-101964577D01*
X173647860Y-101862319D01*
X173837371Y-101673138D01*
X173940060Y-101425835D01*
X173940294Y-101158059D01*
X173838036Y-100910577D01*
X173648855Y-100721066D01*
X173401552Y-100618377D01*
X173133776Y-100618143D01*
X172886294Y-100720401D01*
X172696783Y-100909582D01*
X172594094Y-101156885D01*
X172593890Y-101389811D01*
X172326229Y-101657472D01*
X169358980Y-101657472D01*
X169363161Y-101653298D01*
X169465850Y-101405995D01*
X169466084Y-101138219D01*
X169363826Y-100890737D01*
X169199267Y-100725891D01*
X169199267Y-100653149D01*
X172879401Y-96973015D01*
X173110981Y-96973217D01*
X173358463Y-96870959D01*
X173547974Y-96681778D01*
X173650663Y-96434475D01*
X173650897Y-96166699D01*
X173548639Y-95919217D01*
X173359458Y-95729706D01*
X173112155Y-95627017D01*
X172844379Y-95626783D01*
X172596897Y-95729041D01*
X172407386Y-95918222D01*
X172304697Y-96165525D01*
X172304493Y-96398451D01*
X168505499Y-100197445D01*
X168417402Y-100329290D01*
X168386467Y-100484813D01*
X168386467Y-100726133D01*
X168222573Y-100889742D01*
X168119884Y-101137045D01*
X168119650Y-101404821D01*
X168221908Y-101652303D01*
X168227068Y-101657472D01*
X168152040Y-101657472D01*
X168068622Y-101573908D01*
X167821319Y-101471219D01*
X167553543Y-101470985D01*
X167306061Y-101573243D01*
X167116550Y-101762424D01*
X167013861Y-102009727D01*
X167013627Y-102277503D01*
X167025960Y-102307350D01*
X166925571Y-102348830D01*
X166736060Y-102538011D01*
X166680940Y-102670756D01*
X166553361Y-102617781D01*
X166285585Y-102617547D01*
X166038103Y-102719805D01*
X165848592Y-102908986D01*
X165745903Y-103156289D01*
X165745669Y-103424065D01*
X165097352Y-103424065D01*
X165183971Y-103215464D01*
X165184205Y-102947688D01*
X165081947Y-102700206D01*
X164892766Y-102510695D01*
X164645463Y-102408006D01*
X164598676Y-102407965D01*
X164598729Y-102347841D01*
X164496471Y-102100359D01*
X164396520Y-102000234D01*
X164482848Y-102000234D01*
X164638371Y-101969299D01*
X164770216Y-101881202D01*
X165736744Y-100914674D01*
X165769369Y-100865848D01*
X165824841Y-100782829D01*
X165840772Y-100702738D01*
X166019670Y-100524151D01*
X166122359Y-100276848D01*
X166122593Y-100009072D01*
X166020335Y-99761590D01*
X165831154Y-99572079D01*
X165583851Y-99469390D01*
X165432099Y-99469257D01*
X165484341Y-99417106D01*
X165587030Y-99169803D01*
X165587264Y-98902027D01*
X165485006Y-98654545D01*
X165295825Y-98465034D01*
X165048522Y-98362345D01*
X164780746Y-98362111D01*
X164533264Y-98464369D01*
X164431688Y-98565769D01*
X164214525Y-98475595D01*
X164107632Y-98475502D01*
X164006813Y-98231502D01*
X163817632Y-98041991D01*
X163570329Y-97939302D01*
X163302553Y-97939068D01*
X163055071Y-98041326D01*
X162865560Y-98230507D01*
X162762871Y-98477810D01*
X162762848Y-98504333D01*
X162589290Y-98330472D01*
X162341987Y-98227783D01*
X162074211Y-98227549D01*
X161826729Y-98329807D01*
X161637218Y-98518988D01*
X161585485Y-98643574D01*
X161426793Y-98484605D01*
X161179490Y-98381916D01*
X160911714Y-98381682D01*
X160664232Y-98483940D01*
X160474721Y-98673121D01*
X160372032Y-98920424D01*
X160371798Y-99188200D01*
X160428614Y-99325704D01*
X160364856Y-99419017D01*
X160338331Y-99550000D01*
X160338331Y-99900000D01*
X160356375Y-99995895D01*
X160338331Y-100085000D01*
X160338331Y-100315000D01*
X160354912Y-100403120D01*
X160338331Y-100485000D01*
X160338331Y-100715000D01*
X160354912Y-100803120D01*
X160338331Y-100885000D01*
X160338331Y-101115000D01*
X160354912Y-101203120D01*
X160338331Y-101285000D01*
X160338331Y-101515000D01*
X160354912Y-101603120D01*
X160338331Y-101685000D01*
X160338331Y-101915000D01*
X160354912Y-102003120D01*
X160338331Y-102085000D01*
X160338331Y-102315000D01*
X160354912Y-102403120D01*
X160338331Y-102485000D01*
X160338331Y-102715000D01*
X160354912Y-102803120D01*
X160338331Y-102885000D01*
X160338331Y-103115000D01*
X160354912Y-103203120D01*
X160338331Y-103285000D01*
X160338331Y-103515000D01*
X160354912Y-103603120D01*
X160338331Y-103685000D01*
X160338331Y-103915000D01*
X160354912Y-104003120D01*
X160338331Y-104085000D01*
X160338331Y-104315000D01*
X160354912Y-104403120D01*
X160338331Y-104485000D01*
X160338331Y-104715000D01*
X160354912Y-104803120D01*
X160338331Y-104885000D01*
X160338331Y-105115000D01*
X160354912Y-105203120D01*
X160338331Y-105285000D01*
X160338331Y-105515000D01*
X160354912Y-105603120D01*
X160338331Y-105685000D01*
X160338331Y-105915000D01*
X160354912Y-106003120D01*
X160338331Y-106085000D01*
X160338331Y-106315000D01*
X160354912Y-106403120D01*
X160338331Y-106485000D01*
X160338331Y-106715000D01*
X160354912Y-106803120D01*
X160338331Y-106885000D01*
X160338331Y-107115000D01*
X160354912Y-107203120D01*
X160338331Y-107285000D01*
X160338331Y-107515000D01*
X160354912Y-107603120D01*
X160338331Y-107685000D01*
X160338331Y-107915000D01*
X160354912Y-108003120D01*
X160338331Y-108085000D01*
X160338331Y-108315000D01*
X160354912Y-108403120D01*
X160338331Y-108485000D01*
X160338331Y-108715000D01*
X160354912Y-108803120D01*
X160338331Y-108885000D01*
X160338331Y-109115000D01*
X160354912Y-109203120D01*
X160338331Y-109285000D01*
X160338331Y-109393600D01*
X159845387Y-109393600D01*
X159681778Y-109229706D01*
X159434475Y-109127017D01*
X159166699Y-109126783D01*
X158948836Y-109216802D01*
X158945088Y-109196880D01*
X158961669Y-109115000D01*
X158961669Y-108885000D01*
X158945088Y-108796880D01*
X158961669Y-108715000D01*
X158961669Y-108485000D01*
X158945088Y-108396880D01*
X158961669Y-108315000D01*
X158961669Y-108085000D01*
X158945088Y-107996880D01*
X158961669Y-107915000D01*
X158961669Y-107685000D01*
X158945088Y-107596880D01*
X158961669Y-107515000D01*
X158961669Y-107285000D01*
X158945088Y-107196880D01*
X158961669Y-107115000D01*
X158961669Y-106885000D01*
X158945088Y-106796880D01*
X158961669Y-106715000D01*
X158961669Y-106485000D01*
X158945088Y-106396880D01*
X158961669Y-106315000D01*
X158961669Y-106085000D01*
X158945088Y-105996880D01*
X158961669Y-105915000D01*
X158961669Y-105685000D01*
X158945088Y-105596880D01*
X158961669Y-105515000D01*
X158961669Y-105285000D01*
X158945088Y-105196880D01*
X158961669Y-105115000D01*
X158961669Y-104885000D01*
X158945088Y-104796880D01*
X158961669Y-104715000D01*
X158961669Y-104485000D01*
X158945088Y-104396880D01*
X158961669Y-104315000D01*
X158961669Y-104085000D01*
X158945088Y-103996880D01*
X158961669Y-103915000D01*
X158961669Y-103685000D01*
X158945088Y-103596880D01*
X158961669Y-103515000D01*
X158961669Y-103285000D01*
X158945088Y-103196880D01*
X158961669Y-103115000D01*
X158961669Y-102885000D01*
X158945088Y-102796880D01*
X158961669Y-102715000D01*
X158961669Y-102485000D01*
X158945088Y-102396880D01*
X158961669Y-102315000D01*
X158961669Y-102313642D01*
X159018222Y-102370294D01*
X159265525Y-102472983D01*
X159533301Y-102473217D01*
X159780783Y-102370959D01*
X159970294Y-102181778D01*
X160072983Y-101934475D01*
X160073217Y-101666699D01*
X159970959Y-101419217D01*
X159781778Y-101229706D01*
X159534475Y-101127017D01*
X159266699Y-101126783D01*
X159019217Y-101229041D01*
X158961669Y-101286489D01*
X158961669Y-101285000D01*
X158945088Y-101196880D01*
X158961669Y-101115000D01*
X158961669Y-100885000D01*
X158945088Y-100796880D01*
X158961669Y-100715000D01*
X158961669Y-100485000D01*
X158945088Y-100396880D01*
X158961669Y-100315000D01*
X158961669Y-100085000D01*
X158943625Y-99989105D01*
X158961669Y-99900000D01*
X158961669Y-99550000D01*
X158938644Y-99427635D01*
X158885528Y-99345090D01*
X158972983Y-99134475D01*
X158973217Y-98866699D01*
X158870959Y-98619217D01*
X158681778Y-98429706D01*
X158434475Y-98327017D01*
X158166699Y-98326783D01*
X157919217Y-98429041D01*
X157729706Y-98618222D01*
X157627017Y-98865525D01*
X157626783Y-99133301D01*
X157639421Y-99163888D01*
X157481337Y-99098246D01*
X157433077Y-99098204D01*
X157433217Y-98937950D01*
X157330959Y-98690468D01*
X157141778Y-98500957D01*
X156894475Y-98398268D01*
X156626699Y-98398034D01*
X156379217Y-98500292D01*
X156189706Y-98689473D01*
X156087017Y-98936776D01*
X156086921Y-99046667D01*
X156005319Y-99046596D01*
X155757837Y-99148854D01*
X155568326Y-99338035D01*
X155474555Y-99563862D01*
X155470709Y-99563097D01*
X155246312Y-99563097D01*
X155082703Y-99399203D01*
X154835400Y-99296514D01*
X154567624Y-99296280D01*
X154320142Y-99398538D01*
X154130631Y-99587719D01*
X154027942Y-99835022D01*
X154027870Y-99917835D01*
X154009022Y-99917819D01*
X153857200Y-99980551D01*
X153857200Y-99604445D01*
X155804798Y-97656847D01*
X155818222Y-97670294D01*
X156065525Y-97772983D01*
X156333301Y-97773217D01*
X156580783Y-97670959D01*
X156770294Y-97481778D01*
X156872983Y-97234475D01*
X156873217Y-96966699D01*
X156770959Y-96719217D01*
X156581778Y-96529706D01*
X156334475Y-96427017D01*
X156066699Y-96426783D01*
X155819217Y-96529041D01*
X155702819Y-96645236D01*
X155540104Y-96677602D01*
X155391778Y-96776711D01*
X153323822Y-98844667D01*
X153323822Y-98076407D01*
X153487716Y-97912798D01*
X153590405Y-97665495D01*
X153590639Y-97397719D01*
X153488381Y-97150237D01*
X153299200Y-96960726D01*
X153051897Y-96858037D01*
X152784121Y-96857803D01*
X152536639Y-96960061D01*
X152347128Y-97149242D01*
X152244439Y-97396545D01*
X152244205Y-97664321D01*
X152346463Y-97911803D01*
X152511022Y-98076649D01*
X152511022Y-99316740D01*
X151264336Y-100563426D01*
X151032756Y-100563224D01*
X150785274Y-100665482D01*
X150595763Y-100854663D01*
X150493074Y-101101966D01*
X150492840Y-101369742D01*
X150595098Y-101617224D01*
X150784279Y-101806735D01*
X151031582Y-101909424D01*
X151299358Y-101909658D01*
X151546840Y-101807400D01*
X151736351Y-101618219D01*
X151839040Y-101370916D01*
X151839244Y-101137990D01*
X152942800Y-100034434D01*
X152942800Y-103005319D01*
X152829706Y-103118216D01*
X152727017Y-103365519D01*
X152726783Y-103633295D01*
X152829041Y-103880777D01*
X152942800Y-103994734D01*
X152942800Y-113134553D01*
X152958762Y-113214800D01*
X152298106Y-113214800D01*
X152372983Y-113034475D01*
X152373217Y-112766699D01*
X152270959Y-112519217D01*
X152081778Y-112329706D01*
X151834475Y-112227017D01*
X151566699Y-112226783D01*
X151319217Y-112329041D01*
X151154371Y-112493600D01*
X149893116Y-112493600D01*
X149737593Y-112524535D01*
X149605747Y-112612632D01*
X145610868Y-116607512D01*
X145522771Y-116739357D01*
X145506840Y-116819448D01*
X145327942Y-116998035D01*
X145225253Y-117245338D01*
X145225019Y-117513114D01*
X143564867Y-117513114D01*
X143381778Y-117329706D01*
X143134475Y-117227017D01*
X143049462Y-117226943D01*
X143049484Y-117201386D01*
X142947226Y-116953904D01*
X142758045Y-116764393D01*
X142510742Y-116661704D01*
X142242966Y-116661470D01*
X142211209Y-116674592D01*
X142211209Y-116363527D01*
X143668336Y-114906400D01*
X144754613Y-114906400D01*
X144918222Y-115070294D01*
X145165525Y-115172983D01*
X145433301Y-115173217D01*
X145680783Y-115070959D01*
X145870294Y-114881778D01*
X145972983Y-114634475D01*
X145973217Y-114366699D01*
X145870959Y-114119217D01*
X145681778Y-113929706D01*
X145434475Y-113827017D01*
X145166699Y-113826783D01*
X144919217Y-113929041D01*
X144754371Y-114093600D01*
X143669510Y-114093600D01*
X143738295Y-114024935D01*
X143840984Y-113777632D01*
X143841218Y-113509856D01*
X143793906Y-113395353D01*
X144004821Y-113395537D01*
X144252303Y-113293279D01*
X144441814Y-113104098D01*
X144544503Y-112856795D01*
X144544737Y-112589019D01*
X144442479Y-112341537D01*
X144253298Y-112152026D01*
X144005995Y-112049337D01*
X143738219Y-112049103D01*
X143490737Y-112151361D01*
X143325891Y-112315920D01*
X143280588Y-112315920D01*
X143125065Y-112346855D01*
X143002430Y-112428798D01*
X142993220Y-112434952D01*
X142402620Y-113025552D01*
X142474203Y-112853161D01*
X142474437Y-112585385D01*
X142372179Y-112337903D01*
X142182998Y-112148392D01*
X142127395Y-112125303D01*
X142446298Y-111806400D01*
X143854613Y-111806400D01*
X144018222Y-111970294D01*
X144265525Y-112072983D01*
X144533301Y-112073217D01*
X144780783Y-111970959D01*
X144970294Y-111781778D01*
X145072983Y-111534475D01*
X145073217Y-111266699D01*
X144970959Y-111019217D01*
X144953067Y-111001294D01*
X145009404Y-110978016D01*
X145198915Y-110788835D01*
X145301604Y-110541532D01*
X145301838Y-110273756D01*
X145199580Y-110026274D01*
X145010399Y-109836763D01*
X144763096Y-109734074D01*
X144495320Y-109733840D01*
X144247838Y-109836098D01*
X144082992Y-110000657D01*
X143366126Y-110000657D01*
X143299439Y-109839262D01*
X143110258Y-109649751D01*
X142862955Y-109547062D01*
X142595179Y-109546828D01*
X142347697Y-109649086D01*
X142158186Y-109838267D01*
X142055497Y-110085570D01*
X142055330Y-110277200D01*
X141934475Y-110227017D01*
X141666699Y-110226783D01*
X141419217Y-110329041D01*
X141229706Y-110518222D01*
X141127017Y-110765525D01*
X141126783Y-111033301D01*
X141229041Y-111280783D01*
X141418222Y-111470294D01*
X141569935Y-111533291D01*
X137776959Y-115326267D01*
X137688862Y-115458112D01*
X137657927Y-115613635D01*
X137657927Y-119254613D01*
X137494033Y-119418222D01*
X137391344Y-119665525D01*
X137391110Y-119933301D01*
X130405200Y-119933301D01*
X130405200Y-118713130D01*
X130823614Y-118713130D01*
X130987110Y-119108822D01*
X131289586Y-119411826D01*
X131684991Y-119576013D01*
X132113130Y-119576386D01*
X132508822Y-119412890D01*
X132811826Y-119110414D01*
X132976013Y-118715009D01*
X132976386Y-118286870D01*
X132812890Y-117891178D01*
X132510414Y-117588174D01*
X132115009Y-117423987D01*
X131686870Y-117423614D01*
X131291178Y-117587110D01*
X130988174Y-117889586D01*
X130823987Y-118284991D01*
X130823614Y-118713130D01*
X130405200Y-118713130D01*
X130405200Y-116235416D01*
X132921435Y-116235416D01*
X133023693Y-116482898D01*
X133212874Y-116672409D01*
X133460177Y-116775098D01*
X133727953Y-116775332D01*
X133975435Y-116673074D01*
X134164946Y-116483893D01*
X134267635Y-116236590D01*
X134267836Y-116006400D01*
X135230944Y-116006400D01*
X135394553Y-116170294D01*
X135641856Y-116272983D01*
X135909632Y-116273217D01*
X136157114Y-116170959D01*
X136346625Y-115981778D01*
X136449314Y-115734475D01*
X136449548Y-115466699D01*
X136347290Y-115219217D01*
X136158109Y-115029706D01*
X135910806Y-114927017D01*
X135793554Y-114926915D01*
X135898774Y-114821878D01*
X136001463Y-114574575D01*
X136001697Y-114306799D01*
X135899439Y-114059317D01*
X135710258Y-113869806D01*
X135462955Y-113767117D01*
X135195179Y-113766883D01*
X134947697Y-113869141D01*
X134758186Y-114058322D01*
X134655497Y-114305625D01*
X134655369Y-114452066D01*
X134410686Y-114350465D01*
X134142910Y-114350231D01*
X133895428Y-114452489D01*
X133705917Y-114641670D01*
X133603228Y-114888973D01*
X133602994Y-115156749D01*
X133705252Y-115404231D01*
X133711521Y-115410510D01*
X133692931Y-115429100D01*
X133461351Y-115428898D01*
X133213869Y-115531156D01*
X133024358Y-115720337D01*
X132921669Y-115967640D01*
X132921435Y-116235416D01*
X130405200Y-116235416D01*
X130405200Y-99613130D01*
X130823614Y-99613130D01*
X130987110Y-100008822D01*
X131289586Y-100311826D01*
X131684991Y-100476013D01*
X132113130Y-100476386D01*
X132508822Y-100312890D01*
X132811826Y-100010414D01*
X132976013Y-99615009D01*
X132976386Y-99186870D01*
X132812890Y-98791178D01*
X132510414Y-98488174D01*
X132115009Y-98323987D01*
X131686870Y-98323614D01*
X131291178Y-98487110D01*
X130988174Y-98789586D01*
X130823987Y-99184991D01*
X130823614Y-99613130D01*
X130405200Y-99613130D01*
X130405200Y-93559437D01*
X130649555Y-94150822D01*
X131345514Y-94847996D01*
X132255292Y-95225770D01*
X133240386Y-95226629D01*
X134150822Y-94850445D01*
X134847996Y-94154486D01*
X135225770Y-93244708D01*
X135226629Y-92259614D01*
X134850445Y-91349178D01*
X134154486Y-90652004D01*
X133560118Y-90405200D01*
X162440563Y-90405200D01*
X161849178Y-90649555D01*
X161849178Y-90649555D01*
G37*
X161849178Y-90649555D02*
X161152004Y-91345514D01*
X160774230Y-92255292D01*
X160773371Y-93240386D01*
X161149555Y-94150822D01*
X161845514Y-94847996D01*
X162755292Y-95225770D01*
X163740386Y-95226629D01*
X164650822Y-94850445D01*
X165241966Y-94260331D01*
X165183084Y-94402135D01*
X165182850Y-94669911D01*
X165285108Y-94917393D01*
X165474289Y-95106904D01*
X165721592Y-95209593D01*
X165742783Y-95209612D01*
X165742765Y-95230459D01*
X165734475Y-95227017D01*
X165466699Y-95226783D01*
X165219217Y-95329041D01*
X165029706Y-95518222D01*
X164927017Y-95765525D01*
X164926783Y-96033301D01*
X165029041Y-96280783D01*
X165218222Y-96470294D01*
X165465525Y-96572983D01*
X165733301Y-96573217D01*
X165980783Y-96470959D01*
X166002150Y-96449630D01*
X166002102Y-96504095D01*
X166104360Y-96751577D01*
X166293541Y-96941088D01*
X166540844Y-97043777D01*
X166808620Y-97044011D01*
X167056102Y-96941753D01*
X167220948Y-96777194D01*
X167675028Y-96777194D01*
X167830551Y-96746259D01*
X167962396Y-96658162D01*
X170988720Y-93631839D01*
X171076817Y-93499993D01*
X171081696Y-93475465D01*
X171107752Y-93344470D01*
X171107752Y-93012244D01*
X171084300Y-92894341D01*
X171225525Y-92952983D01*
X171386546Y-92953124D01*
X171790728Y-93357306D01*
X171729706Y-93418222D01*
X171627017Y-93665525D01*
X171626783Y-93933301D01*
X171729041Y-94180783D01*
X171918222Y-94370294D01*
X172165525Y-94472983D01*
X172433301Y-94473217D01*
X172680783Y-94370959D01*
X172870294Y-94181778D01*
X172972983Y-93934475D01*
X172973217Y-93666699D01*
X172870959Y-93419217D01*
X172757200Y-93305260D01*
X172757200Y-93220000D01*
X172722398Y-93045037D01*
X172623289Y-92896711D01*
X172033077Y-92306499D01*
X172033217Y-92146699D01*
X171930959Y-91899217D01*
X171741778Y-91709706D01*
X171494475Y-91607017D01*
X171226699Y-91606783D01*
X170979217Y-91709041D01*
X170789706Y-91898222D01*
X170711303Y-92087039D01*
X170492928Y-91996362D01*
X170225152Y-91996128D01*
X170028994Y-92077179D01*
X169881778Y-91929706D01*
X169634475Y-91827017D01*
X169593048Y-91826981D01*
X169672983Y-91634475D01*
X169673217Y-91366699D01*
X169570959Y-91119217D01*
X169381778Y-90929706D01*
X169134475Y-90827017D01*
X168866699Y-90826783D01*
X168619217Y-90929041D01*
X168460905Y-91087077D01*
X168281778Y-90907637D01*
X168034475Y-90804948D01*
X167766699Y-90804714D01*
X167519217Y-90906972D01*
X167329706Y-91096153D01*
X167311932Y-91138958D01*
X167234700Y-91190563D01*
X166698278Y-91726985D01*
X166466699Y-91726783D01*
X166219217Y-91829041D01*
X166029706Y-92018222D01*
X165927017Y-92265525D01*
X165926876Y-92426836D01*
X165866699Y-92426783D01*
X165726433Y-92484740D01*
X165726629Y-92259614D01*
X165350445Y-91349178D01*
X164654486Y-90652004D01*
X164060118Y-90405200D01*
X172210092Y-90405200D01*
X173144277Y-90591021D01*
X173902410Y-91097588D01*
X174408979Y-91855723D01*
X174594800Y-92789907D01*
X174594800Y-126460093D01*
X174408979Y-127394277D01*
X173902410Y-128152412D01*
X173144277Y-128658979D01*
X172210092Y-128844800D01*
X132789907Y-128844800D01*
X131855723Y-128658979D01*
X131097588Y-128152410D01*
X130591021Y-127394277D01*
X130405200Y-126460092D01*
X130405200Y-124059437D01*
X130649555Y-124650822D01*
X131345514Y-125347996D01*
X132255292Y-125725770D01*
X133240386Y-125726629D01*
X134150822Y-125350445D01*
X134847996Y-124654486D01*
X135225770Y-123744708D01*
X135226629Y-122759614D01*
X134850445Y-121849178D01*
X134154486Y-121152004D01*
X133244708Y-120774230D01*
X132259614Y-120773371D01*
X131349178Y-121149555D01*
X130652004Y-121845514D01*
X130405200Y-122439882D01*
X130405200Y-119933301D01*
X137391110Y-119933301D01*
X137493368Y-120180783D01*
X137682549Y-120370294D01*
X137929852Y-120472983D01*
X138197628Y-120473217D01*
X138445110Y-120370959D01*
X138482062Y-120334071D01*
X138518222Y-120370294D01*
X138765525Y-120472983D01*
X139033301Y-120473217D01*
X139280783Y-120370959D01*
X139470294Y-120181778D01*
X139572983Y-119934475D01*
X139573217Y-119666699D01*
X139470959Y-119419217D01*
X139306400Y-119254371D01*
X139306400Y-115788242D01*
X141702941Y-113391701D01*
X141934521Y-113391903D01*
X142168975Y-113295028D01*
X142153033Y-113318887D01*
X142122098Y-113474410D01*
X142122098Y-114703166D01*
X140890309Y-115934955D01*
X140802212Y-116066800D01*
X140771277Y-116222323D01*
X140771277Y-116991557D01*
X140012632Y-117750202D01*
X139924535Y-117882047D01*
X139893600Y-118037570D01*
X139893600Y-119354613D01*
X139729706Y-119518222D01*
X139627017Y-119765525D01*
X139626783Y-120033301D01*
X139729041Y-120280783D01*
X139918222Y-120470294D01*
X140165525Y-120572983D01*
X140433301Y-120573217D01*
X140680783Y-120470959D01*
X140863122Y-120288938D01*
X141065525Y-120372983D01*
X141333301Y-120373217D01*
X141473415Y-120315323D01*
X141631407Y-120473590D01*
X141878710Y-120576279D01*
X142146486Y-120576513D01*
X142393968Y-120474255D01*
X142536390Y-120332081D01*
X142765525Y-120427226D01*
X143033301Y-120427460D01*
X143280783Y-120325202D01*
X143398418Y-120207771D01*
X143407692Y-120230215D01*
X143596873Y-120419726D01*
X143844176Y-120522415D01*
X144111952Y-120522649D01*
X144359434Y-120420391D01*
X144514102Y-120265992D01*
X144618222Y-120370294D01*
X144865525Y-120472983D01*
X145133301Y-120473217D01*
X145380783Y-120370959D01*
X145570294Y-120181778D01*
X145672983Y-119934475D01*
X145673217Y-119666699D01*
X145570959Y-119419217D01*
X145406400Y-119254371D01*
X145406400Y-118945387D01*
X145570294Y-118781778D01*
X145672983Y-118534475D01*
X145673217Y-118266699D01*
X145570959Y-118019217D01*
X145381778Y-117829706D01*
X145134475Y-117727017D01*
X144866699Y-117726783D01*
X144619217Y-117829041D01*
X144549958Y-117898179D01*
X144381778Y-117729706D01*
X144134475Y-117627017D01*
X143866699Y-117626783D01*
X143652051Y-117715474D01*
X143570959Y-117519217D01*
X143564867Y-117513114D01*
X145225019Y-117513114D01*
X145327277Y-117760596D01*
X145516458Y-117950107D01*
X145763761Y-118052796D01*
X146031537Y-118053030D01*
X146279019Y-117950772D01*
X146468530Y-117761591D01*
X146485577Y-117720538D01*
X146543205Y-117744467D01*
X146776130Y-117744671D01*
X147160841Y-118129382D01*
X147292687Y-118217479D01*
X147448209Y-118248413D01*
X148639742Y-118248413D01*
X148627017Y-118279058D01*
X148626783Y-118546834D01*
X148729041Y-118794316D01*
X148918222Y-118983827D01*
X149165525Y-119086516D01*
X149419792Y-119086738D01*
X149440809Y-119100782D01*
X149361636Y-119179818D01*
X149234477Y-119127017D01*
X148966701Y-119126783D01*
X148719219Y-119229041D01*
X148700046Y-119248180D01*
X148581778Y-119129706D01*
X148334475Y-119027017D01*
X148066699Y-119026783D01*
X147819217Y-119129041D01*
X147629706Y-119318222D01*
X147527017Y-119565525D01*
X147526783Y-119833301D01*
X147629041Y-120080783D01*
X147808677Y-120260733D01*
X147824535Y-120340456D01*
X147892121Y-120441604D01*
X147912632Y-120472301D01*
X148470720Y-121030389D01*
X148602565Y-121118486D01*
X148758088Y-121149421D01*
X152588898Y-121149421D01*
X152744421Y-121118486D01*
X152876266Y-121030389D01*
X154105160Y-119801495D01*
X154336740Y-119801697D01*
X154546713Y-119714937D01*
X154546713Y-120332293D01*
X154382819Y-120495902D01*
X154280130Y-120743205D01*
X154279896Y-121010981D01*
X154382154Y-121258463D01*
X154571335Y-121447974D01*
X154818638Y-121550663D01*
X155086414Y-121550897D01*
X155333896Y-121448639D01*
X155523407Y-121259458D01*
X155626096Y-121012155D01*
X155626330Y-120744379D01*
X155524072Y-120496897D01*
X155359513Y-120332051D01*
X155359513Y-118607289D01*
X155328578Y-118451766D01*
X155313838Y-118429706D01*
X155240481Y-118319920D01*
X154330348Y-117409788D01*
X154307832Y-117394743D01*
X154198503Y-117321691D01*
X154042980Y-117290756D01*
X152152626Y-117290756D01*
X151997103Y-117321691D01*
X151865258Y-117409788D01*
X151393377Y-117881669D01*
X151369720Y-117824414D01*
X151180539Y-117634903D01*
X150933236Y-117532214D01*
X150700310Y-117532010D01*
X150151444Y-116983144D01*
X150116464Y-116959771D01*
X150019599Y-116895047D01*
X149864076Y-116864112D01*
X149859826Y-116864112D01*
X149696217Y-116700218D01*
X149454840Y-116599990D01*
X151925630Y-114129200D01*
X153442772Y-114129200D01*
X153555669Y-114242294D01*
X153802972Y-114344983D01*
X153943394Y-114345106D01*
X153943327Y-114421475D01*
X154015688Y-114596601D01*
X153801394Y-114596414D01*
X153553912Y-114698672D01*
X153364401Y-114887853D01*
X153261712Y-115135156D01*
X153261478Y-115402932D01*
X153363736Y-115650414D01*
X153552917Y-115839925D01*
X153798575Y-115941931D01*
X153798476Y-116055509D01*
X153900734Y-116302991D01*
X154089915Y-116492502D01*
X154337218Y-116595191D01*
X154352178Y-116595204D01*
X154352100Y-116684873D01*
X154454358Y-116932355D01*
X154643539Y-117121866D01*
X154890842Y-117224555D01*
X155158618Y-117224789D01*
X155406100Y-117122531D01*
X155595611Y-116933350D01*
X155650588Y-116800952D01*
X155834589Y-116985274D01*
X156081892Y-117087963D01*
X156189569Y-117088057D01*
X156056341Y-117143106D01*
X155866830Y-117332287D01*
X155764141Y-117579590D01*
X155763907Y-117847366D01*
X155866165Y-118094848D01*
X156055346Y-118284359D01*
X156302649Y-118387048D01*
X156570425Y-118387282D01*
X156817907Y-118285024D01*
X156982753Y-118120465D01*
X157030542Y-118120465D01*
X157186065Y-118089530D01*
X157317910Y-118001433D01*
X158532674Y-116786669D01*
X158625000Y-116786669D01*
X158747365Y-116763644D01*
X158859749Y-116691327D01*
X158935144Y-116580983D01*
X158961669Y-116450000D01*
X158961669Y-116100000D01*
X158943625Y-116004105D01*
X158961669Y-115915000D01*
X158961669Y-115685000D01*
X158945088Y-115596880D01*
X158961669Y-115515000D01*
X158961669Y-115285000D01*
X158945088Y-115196880D01*
X158961669Y-115115000D01*
X158961669Y-114885000D01*
X158945088Y-114796880D01*
X158961669Y-114715000D01*
X158961669Y-114485000D01*
X158945088Y-114396880D01*
X158961669Y-114315000D01*
X158961669Y-114085000D01*
X158945088Y-113996880D01*
X158961669Y-113915000D01*
X158961669Y-113685000D01*
X158945088Y-113596880D01*
X158961669Y-113515000D01*
X158961669Y-113285000D01*
X158945088Y-113196880D01*
X158961669Y-113115000D01*
X158961669Y-112885000D01*
X158945088Y-112796880D01*
X158961669Y-112715000D01*
X158961669Y-112485000D01*
X158945088Y-112396880D01*
X158961669Y-112315000D01*
X158961669Y-112085000D01*
X158945088Y-111996880D01*
X158961669Y-111915000D01*
X158961669Y-111685000D01*
X158945088Y-111596880D01*
X158961669Y-111515000D01*
X158961669Y-111285000D01*
X158945123Y-111197068D01*
X159018222Y-111270294D01*
X159265525Y-111372983D01*
X159533301Y-111373217D01*
X159780783Y-111270959D01*
X159970294Y-111081778D01*
X160072983Y-110834475D01*
X160073182Y-110606400D01*
X160338331Y-110606400D01*
X160338331Y-110715000D01*
X160354912Y-110803120D01*
X160338331Y-110885000D01*
X160338331Y-111115000D01*
X160354912Y-111203120D01*
X160338331Y-111285000D01*
X160338331Y-111515000D01*
X160354912Y-111603120D01*
X160338331Y-111685000D01*
X160338331Y-111915000D01*
X160354912Y-112003120D01*
X160338331Y-112085000D01*
X160338331Y-112315000D01*
X160354912Y-112403120D01*
X160338331Y-112485000D01*
X160338331Y-112715000D01*
X160354912Y-112803120D01*
X160338331Y-112885000D01*
X160338331Y-113115000D01*
X160354912Y-113203120D01*
X160338331Y-113285000D01*
X160338331Y-113515000D01*
X160354912Y-113603120D01*
X160338331Y-113685000D01*
X160338331Y-113915000D01*
X160354912Y-114003120D01*
X160338331Y-114085000D01*
X160338331Y-114315000D01*
X160354912Y-114403120D01*
X160338331Y-114485000D01*
X160338331Y-114715000D01*
X160354912Y-114803120D01*
X160338331Y-114885000D01*
X160338331Y-115115000D01*
X160354912Y-115203120D01*
X160338331Y-115285000D01*
X160338331Y-115515000D01*
X160354912Y-115603120D01*
X160338331Y-115685000D01*
X160338331Y-115915000D01*
X160356375Y-116010895D01*
X160338331Y-116100000D01*
X160338331Y-116450000D01*
X160361356Y-116572365D01*
X160433673Y-116684749D01*
X160544017Y-116760144D01*
X160675000Y-116786669D01*
X160849908Y-116786669D01*
X160849834Y-116871033D01*
X160952092Y-117118515D01*
X161141273Y-117308026D01*
X161388576Y-117410715D01*
X161656352Y-117410949D01*
X161903834Y-117308691D01*
X162093345Y-117119510D01*
X162196034Y-116872207D01*
X162196086Y-116813128D01*
X162196564Y-116814286D01*
X162385745Y-117003797D01*
X162633048Y-117106486D01*
X162900824Y-117106720D01*
X162952646Y-117085308D01*
X162952586Y-117153466D01*
X163054844Y-117400948D01*
X163244025Y-117590459D01*
X163276945Y-117604129D01*
X162930373Y-117950701D01*
X160642899Y-117950701D01*
X160499392Y-117979246D01*
X160487376Y-117981636D01*
X160419479Y-118027004D01*
X160166699Y-118026783D01*
X159919217Y-118129041D01*
X159729706Y-118318222D01*
X159627017Y-118565525D01*
X159626783Y-118833301D01*
X159729041Y-119080783D01*
X159743670Y-119095438D01*
X159705058Y-119095404D01*
X159457576Y-119197662D01*
X159268065Y-119386843D01*
X159165376Y-119634146D01*
X159165142Y-119901922D01*
X159267400Y-120149404D01*
X159456581Y-120338915D01*
X159703884Y-120441604D01*
X159971660Y-120441838D01*
X160219142Y-120339580D01*
X160399092Y-120159944D01*
X160478815Y-120144086D01*
X160535215Y-120106400D01*
X164601144Y-120106400D01*
X164756667Y-120075465D01*
X164888512Y-119987368D01*
X164953000Y-119922880D01*
X165184580Y-119923082D01*
X165432062Y-119820824D01*
X165621573Y-119631643D01*
X165724262Y-119384340D01*
X165724466Y-119151414D01*
X166161953Y-118713927D01*
X166193600Y-118745629D01*
X166193600Y-119777488D01*
X165477488Y-120493600D01*
X164422512Y-120493600D01*
X164341544Y-120412632D01*
X164311784Y-120392747D01*
X164209699Y-120324535D01*
X164054176Y-120293600D01*
X161700000Y-120293600D01*
X161544477Y-120324535D01*
X161442392Y-120392747D01*
X161412632Y-120412632D01*
X160898279Y-120926985D01*
X160666699Y-120926783D01*
X160419217Y-121029041D01*
X160229706Y-121218222D01*
X160127017Y-121465525D01*
X160126783Y-121733301D01*
X160229041Y-121980783D01*
X160418222Y-122170294D01*
X160665525Y-122272983D01*
X160933301Y-122273217D01*
X160982919Y-122252715D01*
X160774230Y-122755292D01*
X160773371Y-123740386D01*
X161149555Y-124650822D01*
X161845514Y-125347996D01*
X162755292Y-125725770D01*
X163740386Y-125726629D01*
X164650822Y-125350445D01*
X165347996Y-124654486D01*
X165647459Y-123933301D01*
X168626783Y-123933301D01*
X168729041Y-124180783D01*
X168918222Y-124370294D01*
X169165525Y-124472983D01*
X169433301Y-124473217D01*
X169680783Y-124370959D01*
X169794740Y-124257200D01*
X170505325Y-124257200D01*
X170618222Y-124370294D01*
X170865525Y-124472983D01*
X171133301Y-124473217D01*
X171380783Y-124370959D01*
X171570294Y-124181778D01*
X171672983Y-123934475D01*
X171673217Y-123666699D01*
X171570959Y-123419217D01*
X171381778Y-123229706D01*
X171134475Y-123127017D01*
X170866699Y-123126783D01*
X170619217Y-123229041D01*
X170505260Y-123342800D01*
X169794675Y-123342800D01*
X169681778Y-123229706D01*
X169434475Y-123127017D01*
X169166699Y-123126783D01*
X168919217Y-123229041D01*
X168729706Y-123418222D01*
X168627017Y-123665525D01*
X168626783Y-123933301D01*
X165647459Y-123933301D01*
X165725770Y-123744708D01*
X165726629Y-122759614D01*
X165712425Y-122725237D01*
X165881814Y-122725385D01*
X165932085Y-122704614D01*
X165955465Y-122727994D01*
X165955263Y-122959574D01*
X166057521Y-123207056D01*
X166246702Y-123396567D01*
X166494005Y-123499256D01*
X166761781Y-123499490D01*
X167009263Y-123397232D01*
X167198774Y-123208051D01*
X167301463Y-122960748D01*
X167301697Y-122692972D01*
X167199439Y-122445490D01*
X167010258Y-122255979D01*
X166762955Y-122153290D01*
X166530029Y-122153086D01*
X166421620Y-122044677D01*
X166421730Y-121918867D01*
X166319472Y-121671385D01*
X166130291Y-121481874D01*
X165882988Y-121379185D01*
X165615212Y-121378951D01*
X165367730Y-121481209D01*
X165178219Y-121670390D01*
X165176383Y-121674812D01*
X164808613Y-121306400D01*
X165645824Y-121306400D01*
X165801347Y-121275465D01*
X165933192Y-121187368D01*
X166887368Y-120233192D01*
X166906564Y-120204463D01*
X166975465Y-120101347D01*
X167006400Y-119945824D01*
X167006400Y-118745387D01*
X167170294Y-118581778D01*
X167272983Y-118334475D01*
X167273217Y-118066699D01*
X167170959Y-117819217D01*
X167055997Y-117704054D01*
X167401898Y-117358153D01*
X167633478Y-117358355D01*
X167665279Y-117345215D01*
X167665279Y-117366254D01*
X167696214Y-117521777D01*
X167766378Y-117626783D01*
X167784311Y-117653622D01*
X171184613Y-121053924D01*
X171184411Y-121285504D01*
X171286669Y-121532986D01*
X171475850Y-121722497D01*
X171723153Y-121825186D01*
X171990929Y-121825420D01*
X172238411Y-121723162D01*
X172427922Y-121533981D01*
X172530611Y-121286678D01*
X172530845Y-121018902D01*
X172428587Y-120771420D01*
X172239406Y-120581909D01*
X171992103Y-120479220D01*
X171759177Y-120479016D01*
X171169770Y-119889609D01*
X171254174Y-119906398D01*
X171332293Y-119906398D01*
X171495902Y-120070292D01*
X171743205Y-120172981D01*
X172010981Y-120173215D01*
X172258463Y-120070957D01*
X172447974Y-119881776D01*
X172550663Y-119634473D01*
X172550897Y-119366697D01*
X172448639Y-119119215D01*
X172259458Y-118929704D01*
X172073055Y-118852303D01*
X172073217Y-118666699D01*
X171970959Y-118419217D01*
X171806400Y-118254371D01*
X171806400Y-117292766D01*
X171775465Y-117137243D01*
X171687368Y-117005398D01*
X169241755Y-114559785D01*
X169241957Y-114328205D01*
X169139699Y-114080723D01*
X169095124Y-114036070D01*
X169967204Y-114036070D01*
X170055236Y-114249123D01*
X170244417Y-114438634D01*
X170491720Y-114541323D01*
X170759496Y-114541557D01*
X171006978Y-114439299D01*
X171196489Y-114250118D01*
X171299178Y-114002815D01*
X171299412Y-113735039D01*
X171197154Y-113487557D01*
X171007973Y-113298046D01*
X170762886Y-113196277D01*
X170766636Y-113187246D01*
X170766870Y-112919470D01*
X170664612Y-112671988D01*
X170475431Y-112482477D01*
X170228128Y-112379788D01*
X170173412Y-112379740D01*
X170173635Y-112124843D01*
X170071377Y-111877361D01*
X169882196Y-111687850D01*
X169634893Y-111585161D01*
X169367117Y-111584927D01*
X169272456Y-111624040D01*
X169272679Y-111368839D01*
X169170421Y-111121357D01*
X168981240Y-110931846D01*
X168733937Y-110829157D01*
X168479670Y-110828935D01*
X168412086Y-110783776D01*
X168256563Y-110752841D01*
X164773402Y-110752841D01*
X164478421Y-110457860D01*
X164447748Y-110437365D01*
X164346576Y-110369763D01*
X164191053Y-110338828D01*
X164189151Y-110338828D01*
X164201868Y-110308201D01*
X164202102Y-110040425D01*
X164099844Y-109792943D01*
X163910663Y-109603432D01*
X163663360Y-109500743D01*
X163395584Y-109500509D01*
X163148102Y-109602767D01*
X162958591Y-109791948D01*
X162855902Y-110039251D01*
X162855869Y-110077206D01*
X162763074Y-110170001D01*
X161671669Y-110170001D01*
X161671669Y-110085000D01*
X161655088Y-109996880D01*
X161671669Y-109915000D01*
X161671669Y-109756257D01*
X161774768Y-109687368D01*
X162079336Y-109382801D01*
X162276401Y-109382801D01*
X162431924Y-109351866D01*
X162563769Y-109263769D01*
X162651866Y-109131924D01*
X162682801Y-108976401D01*
X162682801Y-108291931D01*
X162887364Y-108087369D01*
X162887366Y-108087366D01*
X163601721Y-107373011D01*
X163833301Y-107373213D01*
X164080783Y-107270955D01*
X164270294Y-107081774D01*
X164372983Y-106834471D01*
X164373217Y-106566695D01*
X164270959Y-106319213D01*
X164098376Y-106146329D01*
X164280783Y-106070959D01*
X164470294Y-105881778D01*
X164572983Y-105634475D01*
X164573217Y-105366699D01*
X164470959Y-105119217D01*
X164281778Y-104929706D01*
X164226611Y-104906799D01*
X164341563Y-104906899D01*
X164589045Y-104804641D01*
X164778556Y-104615460D01*
X164881245Y-104368157D01*
X164881479Y-104100381D01*
X164779221Y-103852899D01*
X164670067Y-103743555D01*
X164891771Y-103651948D01*
X165081282Y-103462767D01*
X165097352Y-103424065D01*
X165745669Y-103424065D01*
X165847927Y-103671547D01*
X165993935Y-103817810D01*
X165928969Y-103974265D01*
X165928735Y-104242041D01*
X166030993Y-104489523D01*
X166065289Y-104523879D01*
X166023958Y-104565138D01*
X165921269Y-104812441D01*
X165921035Y-105080217D01*
X166014966Y-105307547D01*
X165924883Y-105397474D01*
X165822194Y-105644777D01*
X165821960Y-105912553D01*
X165924218Y-106160035D01*
X166113399Y-106349546D01*
X166360702Y-106452235D01*
X166628478Y-106452469D01*
X166875960Y-106350211D01*
X167065471Y-106161030D01*
X167088155Y-106106400D01*
X167154613Y-106106400D01*
X167318222Y-106270294D01*
X167565525Y-106372983D01*
X167833301Y-106373217D01*
X168080783Y-106270959D01*
X168270294Y-106081778D01*
X168372983Y-105834475D01*
X168373124Y-105673077D01*
X168533301Y-105673217D01*
X168780783Y-105570959D01*
X168970294Y-105381778D01*
X169072983Y-105134475D01*
X169073089Y-105013130D01*
X170723614Y-105013130D01*
X170887110Y-105408822D01*
X171189586Y-105711826D01*
X171584991Y-105876013D01*
X172013130Y-105876386D01*
X172408822Y-105712890D01*
X172711826Y-105410414D01*
X172876013Y-105015009D01*
X172876386Y-104586870D01*
X172712890Y-104191178D01*
X172410414Y-103888174D01*
X172015009Y-103723987D01*
X171586870Y-103723614D01*
X171191178Y-103887110D01*
X170888174Y-104189586D01*
X170723987Y-104584991D01*
X170723614Y-105013130D01*
X169073089Y-105013130D01*
X169073217Y-104866699D01*
X169005236Y-104702174D01*
X169080783Y-104670959D01*
X169270294Y-104481778D01*
X169372983Y-104234475D01*
X169373217Y-103966699D01*
X169335519Y-103875464D01*
X169379299Y-103866756D01*
X169511144Y-103778659D01*
X169568909Y-103720894D01*
X169618222Y-103770294D01*
X169865525Y-103872983D01*
X170133301Y-103873217D01*
X170380783Y-103770959D01*
X170570294Y-103581778D01*
X170672983Y-103334475D01*
X170673217Y-103066699D01*
X170573075Y-102824339D01*
X171144350Y-102824339D01*
X171144289Y-102894139D01*
X171246547Y-103141621D01*
X171435728Y-103331132D01*
X171683031Y-103433821D01*
X171950807Y-103434055D01*
X172198289Y-103331797D01*
X172387800Y-103142616D01*
X172490489Y-102895313D01*
X172490723Y-102627537D01*
X172425742Y-102470272D01*
X172494565Y-102470272D01*
X172650088Y-102439337D01*
X172781933Y-102351240D01*
X173168798Y-101964375D01*
X173400378Y-101964577D01*
X173647860Y-101862319D01*
X173837371Y-101673138D01*
X173940060Y-101425835D01*
X173940294Y-101158059D01*
X173838036Y-100910577D01*
X173648855Y-100721066D01*
X173401552Y-100618377D01*
X173133776Y-100618143D01*
X172886294Y-100720401D01*
X172696783Y-100909582D01*
X172594094Y-101156885D01*
X172593890Y-101389811D01*
X172326229Y-101657472D01*
X169358980Y-101657472D01*
X169363161Y-101653298D01*
X169465850Y-101405995D01*
X169466084Y-101138219D01*
X169363826Y-100890737D01*
X169199267Y-100725891D01*
X169199267Y-100653149D01*
X172879401Y-96973015D01*
X173110981Y-96973217D01*
X173358463Y-96870959D01*
X173547974Y-96681778D01*
X173650663Y-96434475D01*
X173650897Y-96166699D01*
X173548639Y-95919217D01*
X173359458Y-95729706D01*
X173112155Y-95627017D01*
X172844379Y-95626783D01*
X172596897Y-95729041D01*
X172407386Y-95918222D01*
X172304697Y-96165525D01*
X172304493Y-96398451D01*
X168505499Y-100197445D01*
X168417402Y-100329290D01*
X168386467Y-100484813D01*
X168386467Y-100726133D01*
X168222573Y-100889742D01*
X168119884Y-101137045D01*
X168119650Y-101404821D01*
X168221908Y-101652303D01*
X168227068Y-101657472D01*
X168152040Y-101657472D01*
X168068622Y-101573908D01*
X167821319Y-101471219D01*
X167553543Y-101470985D01*
X167306061Y-101573243D01*
X167116550Y-101762424D01*
X167013861Y-102009727D01*
X167013627Y-102277503D01*
X167025960Y-102307350D01*
X166925571Y-102348830D01*
X166736060Y-102538011D01*
X166680940Y-102670756D01*
X166553361Y-102617781D01*
X166285585Y-102617547D01*
X166038103Y-102719805D01*
X165848592Y-102908986D01*
X165745903Y-103156289D01*
X165745669Y-103424065D01*
X165097352Y-103424065D01*
X165183971Y-103215464D01*
X165184205Y-102947688D01*
X165081947Y-102700206D01*
X164892766Y-102510695D01*
X164645463Y-102408006D01*
X164598676Y-102407965D01*
X164598729Y-102347841D01*
X164496471Y-102100359D01*
X164396520Y-102000234D01*
X164482848Y-102000234D01*
X164638371Y-101969299D01*
X164770216Y-101881202D01*
X165736744Y-100914674D01*
X165769369Y-100865848D01*
X165824841Y-100782829D01*
X165840772Y-100702738D01*
X166019670Y-100524151D01*
X166122359Y-100276848D01*
X166122593Y-100009072D01*
X166020335Y-99761590D01*
X165831154Y-99572079D01*
X165583851Y-99469390D01*
X165432099Y-99469257D01*
X165484341Y-99417106D01*
X165587030Y-99169803D01*
X165587264Y-98902027D01*
X165485006Y-98654545D01*
X165295825Y-98465034D01*
X165048522Y-98362345D01*
X164780746Y-98362111D01*
X164533264Y-98464369D01*
X164431688Y-98565769D01*
X164214525Y-98475595D01*
X164107632Y-98475502D01*
X164006813Y-98231502D01*
X163817632Y-98041991D01*
X163570329Y-97939302D01*
X163302553Y-97939068D01*
X163055071Y-98041326D01*
X162865560Y-98230507D01*
X162762871Y-98477810D01*
X162762848Y-98504333D01*
X162589290Y-98330472D01*
X162341987Y-98227783D01*
X162074211Y-98227549D01*
X161826729Y-98329807D01*
X161637218Y-98518988D01*
X161585485Y-98643574D01*
X161426793Y-98484605D01*
X161179490Y-98381916D01*
X160911714Y-98381682D01*
X160664232Y-98483940D01*
X160474721Y-98673121D01*
X160372032Y-98920424D01*
X160371798Y-99188200D01*
X160428614Y-99325704D01*
X160364856Y-99419017D01*
X160338331Y-99550000D01*
X160338331Y-99900000D01*
X160356375Y-99995895D01*
X160338331Y-100085000D01*
X160338331Y-100315000D01*
X160354912Y-100403120D01*
X160338331Y-100485000D01*
X160338331Y-100715000D01*
X160354912Y-100803120D01*
X160338331Y-100885000D01*
X160338331Y-101115000D01*
X160354912Y-101203120D01*
X160338331Y-101285000D01*
X160338331Y-101515000D01*
X160354912Y-101603120D01*
X160338331Y-101685000D01*
X160338331Y-101915000D01*
X160354912Y-102003120D01*
X160338331Y-102085000D01*
X160338331Y-102315000D01*
X160354912Y-102403120D01*
X160338331Y-102485000D01*
X160338331Y-102715000D01*
X160354912Y-102803120D01*
X160338331Y-102885000D01*
X160338331Y-103115000D01*
X160354912Y-103203120D01*
X160338331Y-103285000D01*
X160338331Y-103515000D01*
X160354912Y-103603120D01*
X160338331Y-103685000D01*
X160338331Y-103915000D01*
X160354912Y-104003120D01*
X160338331Y-104085000D01*
X160338331Y-104315000D01*
X160354912Y-104403120D01*
X160338331Y-104485000D01*
X160338331Y-104715000D01*
X160354912Y-104803120D01*
X160338331Y-104885000D01*
X160338331Y-105115000D01*
X160354912Y-105203120D01*
X160338331Y-105285000D01*
X160338331Y-105515000D01*
X160354912Y-105603120D01*
X160338331Y-105685000D01*
X160338331Y-105915000D01*
X160354912Y-106003120D01*
X160338331Y-106085000D01*
X160338331Y-106315000D01*
X160354912Y-106403120D01*
X160338331Y-106485000D01*
X160338331Y-106715000D01*
X160354912Y-106803120D01*
X160338331Y-106885000D01*
X160338331Y-107115000D01*
X160354912Y-107203120D01*
X160338331Y-107285000D01*
X160338331Y-107515000D01*
X160354912Y-107603120D01*
X160338331Y-107685000D01*
X160338331Y-107915000D01*
X160354912Y-108003120D01*
X160338331Y-108085000D01*
X160338331Y-108315000D01*
X160354912Y-108403120D01*
X160338331Y-108485000D01*
X160338331Y-108715000D01*
X160354912Y-108803120D01*
X160338331Y-108885000D01*
X160338331Y-109115000D01*
X160354912Y-109203120D01*
X160338331Y-109285000D01*
X160338331Y-109393600D01*
X159845387Y-109393600D01*
X159681778Y-109229706D01*
X159434475Y-109127017D01*
X159166699Y-109126783D01*
X158948836Y-109216802D01*
X158945088Y-109196880D01*
X158961669Y-109115000D01*
X158961669Y-108885000D01*
X158945088Y-108796880D01*
X158961669Y-108715000D01*
X158961669Y-108485000D01*
X158945088Y-108396880D01*
X158961669Y-108315000D01*
X158961669Y-108085000D01*
X158945088Y-107996880D01*
X158961669Y-107915000D01*
X158961669Y-107685000D01*
X158945088Y-107596880D01*
X158961669Y-107515000D01*
X158961669Y-107285000D01*
X158945088Y-107196880D01*
X158961669Y-107115000D01*
X158961669Y-106885000D01*
X158945088Y-106796880D01*
X158961669Y-106715000D01*
X158961669Y-106485000D01*
X158945088Y-106396880D01*
X158961669Y-106315000D01*
X158961669Y-106085000D01*
X158945088Y-105996880D01*
X158961669Y-105915000D01*
X158961669Y-105685000D01*
X158945088Y-105596880D01*
X158961669Y-105515000D01*
X158961669Y-105285000D01*
X158945088Y-105196880D01*
X158961669Y-105115000D01*
X158961669Y-104885000D01*
X158945088Y-104796880D01*
X158961669Y-104715000D01*
X158961669Y-104485000D01*
X158945088Y-104396880D01*
X158961669Y-104315000D01*
X158961669Y-104085000D01*
X158945088Y-103996880D01*
X158961669Y-103915000D01*
X158961669Y-103685000D01*
X158945088Y-103596880D01*
X158961669Y-103515000D01*
X158961669Y-103285000D01*
X158945088Y-103196880D01*
X158961669Y-103115000D01*
X158961669Y-102885000D01*
X158945088Y-102796880D01*
X158961669Y-102715000D01*
X158961669Y-102485000D01*
X158945088Y-102396880D01*
X158961669Y-102315000D01*
X158961669Y-102313642D01*
X159018222Y-102370294D01*
X159265525Y-102472983D01*
X159533301Y-102473217D01*
X159780783Y-102370959D01*
X159970294Y-102181778D01*
X160072983Y-101934475D01*
X160073217Y-101666699D01*
X159970959Y-101419217D01*
X159781778Y-101229706D01*
X159534475Y-101127017D01*
X159266699Y-101126783D01*
X159019217Y-101229041D01*
X158961669Y-101286489D01*
X158961669Y-101285000D01*
X158945088Y-101196880D01*
X158961669Y-101115000D01*
X158961669Y-100885000D01*
X158945088Y-100796880D01*
X158961669Y-100715000D01*
X158961669Y-100485000D01*
X158945088Y-100396880D01*
X158961669Y-100315000D01*
X158961669Y-100085000D01*
X158943625Y-99989105D01*
X158961669Y-99900000D01*
X158961669Y-99550000D01*
X158938644Y-99427635D01*
X158885528Y-99345090D01*
X158972983Y-99134475D01*
X158973217Y-98866699D01*
X158870959Y-98619217D01*
X158681778Y-98429706D01*
X158434475Y-98327017D01*
X158166699Y-98326783D01*
X157919217Y-98429041D01*
X157729706Y-98618222D01*
X157627017Y-98865525D01*
X157626783Y-99133301D01*
X157639421Y-99163888D01*
X157481337Y-99098246D01*
X157433077Y-99098204D01*
X157433217Y-98937950D01*
X157330959Y-98690468D01*
X157141778Y-98500957D01*
X156894475Y-98398268D01*
X156626699Y-98398034D01*
X156379217Y-98500292D01*
X156189706Y-98689473D01*
X156087017Y-98936776D01*
X156086921Y-99046667D01*
X156005319Y-99046596D01*
X155757837Y-99148854D01*
X155568326Y-99338035D01*
X155474555Y-99563862D01*
X155470709Y-99563097D01*
X155246312Y-99563097D01*
X155082703Y-99399203D01*
X154835400Y-99296514D01*
X154567624Y-99296280D01*
X154320142Y-99398538D01*
X154130631Y-99587719D01*
X154027942Y-99835022D01*
X154027870Y-99917835D01*
X154009022Y-99917819D01*
X153857200Y-99980551D01*
X153857200Y-99604445D01*
X155804798Y-97656847D01*
X155818222Y-97670294D01*
X156065525Y-97772983D01*
X156333301Y-97773217D01*
X156580783Y-97670959D01*
X156770294Y-97481778D01*
X156872983Y-97234475D01*
X156873217Y-96966699D01*
X156770959Y-96719217D01*
X156581778Y-96529706D01*
X156334475Y-96427017D01*
X156066699Y-96426783D01*
X155819217Y-96529041D01*
X155702819Y-96645236D01*
X155540104Y-96677602D01*
X155391778Y-96776711D01*
X153323822Y-98844667D01*
X153323822Y-98076407D01*
X153487716Y-97912798D01*
X153590405Y-97665495D01*
X153590639Y-97397719D01*
X153488381Y-97150237D01*
X153299200Y-96960726D01*
X153051897Y-96858037D01*
X152784121Y-96857803D01*
X152536639Y-96960061D01*
X152347128Y-97149242D01*
X152244439Y-97396545D01*
X152244205Y-97664321D01*
X152346463Y-97911803D01*
X152511022Y-98076649D01*
X152511022Y-99316740D01*
X151264336Y-100563426D01*
X151032756Y-100563224D01*
X150785274Y-100665482D01*
X150595763Y-100854663D01*
X150493074Y-101101966D01*
X150492840Y-101369742D01*
X150595098Y-101617224D01*
X150784279Y-101806735D01*
X151031582Y-101909424D01*
X151299358Y-101909658D01*
X151546840Y-101807400D01*
X151736351Y-101618219D01*
X151839040Y-101370916D01*
X151839244Y-101137990D01*
X152942800Y-100034434D01*
X152942800Y-103005319D01*
X152829706Y-103118216D01*
X152727017Y-103365519D01*
X152726783Y-103633295D01*
X152829041Y-103880777D01*
X152942800Y-103994734D01*
X152942800Y-113134553D01*
X152958762Y-113214800D01*
X152298106Y-113214800D01*
X152372983Y-113034475D01*
X152373217Y-112766699D01*
X152270959Y-112519217D01*
X152081778Y-112329706D01*
X151834475Y-112227017D01*
X151566699Y-112226783D01*
X151319217Y-112329041D01*
X151154371Y-112493600D01*
X149893116Y-112493600D01*
X149737593Y-112524535D01*
X149605747Y-112612632D01*
X145610868Y-116607512D01*
X145522771Y-116739357D01*
X145506840Y-116819448D01*
X145327942Y-116998035D01*
X145225253Y-117245338D01*
X145225019Y-117513114D01*
X143564867Y-117513114D01*
X143381778Y-117329706D01*
X143134475Y-117227017D01*
X143049462Y-117226943D01*
X143049484Y-117201386D01*
X142947226Y-116953904D01*
X142758045Y-116764393D01*
X142510742Y-116661704D01*
X142242966Y-116661470D01*
X142211209Y-116674592D01*
X142211209Y-116363527D01*
X143668336Y-114906400D01*
X144754613Y-114906400D01*
X144918222Y-115070294D01*
X145165525Y-115172983D01*
X145433301Y-115173217D01*
X145680783Y-115070959D01*
X145870294Y-114881778D01*
X145972983Y-114634475D01*
X145973217Y-114366699D01*
X145870959Y-114119217D01*
X145681778Y-113929706D01*
X145434475Y-113827017D01*
X145166699Y-113826783D01*
X144919217Y-113929041D01*
X144754371Y-114093600D01*
X143669510Y-114093600D01*
X143738295Y-114024935D01*
X143840984Y-113777632D01*
X143841218Y-113509856D01*
X143793906Y-113395353D01*
X144004821Y-113395537D01*
X144252303Y-113293279D01*
X144441814Y-113104098D01*
X144544503Y-112856795D01*
X144544737Y-112589019D01*
X144442479Y-112341537D01*
X144253298Y-112152026D01*
X144005995Y-112049337D01*
X143738219Y-112049103D01*
X143490737Y-112151361D01*
X143325891Y-112315920D01*
X143280588Y-112315920D01*
X143125065Y-112346855D01*
X143002430Y-112428798D01*
X142993220Y-112434952D01*
X142402620Y-113025552D01*
X142474203Y-112853161D01*
X142474437Y-112585385D01*
X142372179Y-112337903D01*
X142182998Y-112148392D01*
X142127395Y-112125303D01*
X142446298Y-111806400D01*
X143854613Y-111806400D01*
X144018222Y-111970294D01*
X144265525Y-112072983D01*
X144533301Y-112073217D01*
X144780783Y-111970959D01*
X144970294Y-111781778D01*
X145072983Y-111534475D01*
X145073217Y-111266699D01*
X144970959Y-111019217D01*
X144953067Y-111001294D01*
X145009404Y-110978016D01*
X145198915Y-110788835D01*
X145301604Y-110541532D01*
X145301838Y-110273756D01*
X145199580Y-110026274D01*
X145010399Y-109836763D01*
X144763096Y-109734074D01*
X144495320Y-109733840D01*
X144247838Y-109836098D01*
X144082992Y-110000657D01*
X143366126Y-110000657D01*
X143299439Y-109839262D01*
X143110258Y-109649751D01*
X142862955Y-109547062D01*
X142595179Y-109546828D01*
X142347697Y-109649086D01*
X142158186Y-109838267D01*
X142055497Y-110085570D01*
X142055330Y-110277200D01*
X141934475Y-110227017D01*
X141666699Y-110226783D01*
X141419217Y-110329041D01*
X141229706Y-110518222D01*
X141127017Y-110765525D01*
X141126783Y-111033301D01*
X141229041Y-111280783D01*
X141418222Y-111470294D01*
X141569935Y-111533291D01*
X137776959Y-115326267D01*
X137688862Y-115458112D01*
X137657927Y-115613635D01*
X137657927Y-119254613D01*
X137494033Y-119418222D01*
X137391344Y-119665525D01*
X137391110Y-119933301D01*
X130405200Y-119933301D01*
X130405200Y-118713130D01*
X130823614Y-118713130D01*
X130987110Y-119108822D01*
X131289586Y-119411826D01*
X131684991Y-119576013D01*
X132113130Y-119576386D01*
X132508822Y-119412890D01*
X132811826Y-119110414D01*
X132976013Y-118715009D01*
X132976386Y-118286870D01*
X132812890Y-117891178D01*
X132510414Y-117588174D01*
X132115009Y-117423987D01*
X131686870Y-117423614D01*
X131291178Y-117587110D01*
X130988174Y-117889586D01*
X130823987Y-118284991D01*
X130823614Y-118713130D01*
X130405200Y-118713130D01*
X130405200Y-116235416D01*
X132921435Y-116235416D01*
X133023693Y-116482898D01*
X133212874Y-116672409D01*
X133460177Y-116775098D01*
X133727953Y-116775332D01*
X133975435Y-116673074D01*
X134164946Y-116483893D01*
X134267635Y-116236590D01*
X134267836Y-116006400D01*
X135230944Y-116006400D01*
X135394553Y-116170294D01*
X135641856Y-116272983D01*
X135909632Y-116273217D01*
X136157114Y-116170959D01*
X136346625Y-115981778D01*
X136449314Y-115734475D01*
X136449548Y-115466699D01*
X136347290Y-115219217D01*
X136158109Y-115029706D01*
X135910806Y-114927017D01*
X135793554Y-114926915D01*
X135898774Y-114821878D01*
X136001463Y-114574575D01*
X136001697Y-114306799D01*
X135899439Y-114059317D01*
X135710258Y-113869806D01*
X135462955Y-113767117D01*
X135195179Y-113766883D01*
X134947697Y-113869141D01*
X134758186Y-114058322D01*
X134655497Y-114305625D01*
X134655369Y-114452066D01*
X134410686Y-114350465D01*
X134142910Y-114350231D01*
X133895428Y-114452489D01*
X133705917Y-114641670D01*
X133603228Y-114888973D01*
X133602994Y-115156749D01*
X133705252Y-115404231D01*
X133711521Y-115410510D01*
X133692931Y-115429100D01*
X133461351Y-115428898D01*
X133213869Y-115531156D01*
X133024358Y-115720337D01*
X132921669Y-115967640D01*
X132921435Y-116235416D01*
X130405200Y-116235416D01*
X130405200Y-99613130D01*
X130823614Y-99613130D01*
X130987110Y-100008822D01*
X131289586Y-100311826D01*
X131684991Y-100476013D01*
X132113130Y-100476386D01*
X132508822Y-100312890D01*
X132811826Y-100010414D01*
X132976013Y-99615009D01*
X132976386Y-99186870D01*
X132812890Y-98791178D01*
X132510414Y-98488174D01*
X132115009Y-98323987D01*
X131686870Y-98323614D01*
X131291178Y-98487110D01*
X130988174Y-98789586D01*
X130823987Y-99184991D01*
X130823614Y-99613130D01*
X130405200Y-99613130D01*
X130405200Y-93559437D01*
X130649555Y-94150822D01*
X131345514Y-94847996D01*
X132255292Y-95225770D01*
X133240386Y-95226629D01*
X134150822Y-94850445D01*
X134847996Y-94154486D01*
X135225770Y-93244708D01*
X135226629Y-92259614D01*
X134850445Y-91349178D01*
X134154486Y-90652004D01*
X133560118Y-90405200D01*
X162440563Y-90405200D01*
X161849178Y-90649555D01*
M02*
