G04 #@! TF.FileFunction,Soldermask,Top*
%FSLAX46Y46*%
G04 Gerber Fmt 4.6, Leading zero omitted, Abs format (unit mm)*
G04 Created by KiCad (PCBNEW 4.0.1-stable) date Wednesday, April 13, 2016 'PMt' 12:19:44 PM*
%MOMM*%
G01*
G04 APERTURE LIST*
%ADD10C,0.100000*%
%ADD11C,0.010000*%
%ADD12R,0.752400X2.152400*%
%ADD13R,0.852400X4.352400*%
%ADD14C,2.000000*%
%ADD15R,0.392400X1.052400*%
%ADD16R,1.052400X0.392400*%
%ADD17R,1.052400X0.442400*%
%ADD18R,0.442400X1.052400*%
%ADD19R,1.052400X1.352400*%
%ADD20R,1.352400X1.052400*%
G04 APERTURE END LIST*
D10*
D11*
G36*
X137891031Y-94923103D02*
X137928866Y-94924878D01*
X137964763Y-94927950D01*
X138000412Y-94932451D01*
X138037499Y-94938512D01*
X138062537Y-94943226D01*
X138099505Y-94950873D01*
X138134770Y-94959056D01*
X138169378Y-94968108D01*
X138204376Y-94978364D01*
X138240809Y-94990156D01*
X138279722Y-95003818D01*
X138322161Y-95019684D01*
X138369173Y-95038088D01*
X138404737Y-95052406D01*
X138451958Y-95071805D01*
X138499898Y-95091943D01*
X138548959Y-95113011D01*
X138599547Y-95135199D01*
X138652066Y-95158695D01*
X138706921Y-95183689D01*
X138764514Y-95210372D01*
X138825251Y-95238932D01*
X138889536Y-95269559D01*
X138957773Y-95302442D01*
X139030365Y-95337772D01*
X139107719Y-95375737D01*
X139190236Y-95416528D01*
X139278323Y-95460333D01*
X139336085Y-95489177D01*
X139417799Y-95529964D01*
X139493732Y-95567698D01*
X139564358Y-95602596D01*
X139630149Y-95634875D01*
X139691577Y-95664752D01*
X139749115Y-95692444D01*
X139803235Y-95718167D01*
X139854409Y-95742138D01*
X139903111Y-95764575D01*
X139949811Y-95785695D01*
X139994982Y-95805714D01*
X140039097Y-95824848D01*
X140082629Y-95843316D01*
X140126049Y-95861334D01*
X140169829Y-95879119D01*
X140214443Y-95896888D01*
X140260363Y-95914857D01*
X140277542Y-95921509D01*
X140301524Y-95930793D01*
X140323788Y-95939455D01*
X140343348Y-95947109D01*
X140359219Y-95953366D01*
X140370414Y-95957840D01*
X140375784Y-95960070D01*
X140385832Y-95964573D01*
X140370698Y-95983849D01*
X140358889Y-95997902D01*
X140342920Y-96015482D01*
X140323921Y-96035449D01*
X140303023Y-96056663D01*
X140281357Y-96077986D01*
X140260055Y-96098277D01*
X140240246Y-96116397D01*
X140231681Y-96123920D01*
X140156102Y-96185039D01*
X140074352Y-96243238D01*
X139986747Y-96298375D01*
X139893601Y-96350306D01*
X139795231Y-96398886D01*
X139691952Y-96443973D01*
X139584079Y-96485422D01*
X139471928Y-96523091D01*
X139355814Y-96556835D01*
X139236054Y-96586510D01*
X139196278Y-96595281D01*
X139137253Y-96607567D01*
X139083414Y-96618013D01*
X139033205Y-96626877D01*
X138985074Y-96634413D01*
X138937469Y-96640877D01*
X138888835Y-96646526D01*
X138878778Y-96647588D01*
X138858732Y-96649185D01*
X138833512Y-96650438D01*
X138804439Y-96651348D01*
X138772833Y-96651913D01*
X138740014Y-96652134D01*
X138707303Y-96652011D01*
X138676020Y-96651543D01*
X138647485Y-96650730D01*
X138623019Y-96649572D01*
X138603941Y-96648069D01*
X138600083Y-96647629D01*
X138529587Y-96636359D01*
X138464668Y-96620777D01*
X138405314Y-96600875D01*
X138351511Y-96576642D01*
X138303246Y-96548071D01*
X138260506Y-96515152D01*
X138223275Y-96477875D01*
X138191542Y-96436233D01*
X138165292Y-96390216D01*
X138145814Y-96343556D01*
X138136564Y-96315336D01*
X138129950Y-96289790D01*
X138125611Y-96264670D01*
X138123189Y-96237726D01*
X138122323Y-96206710D01*
X138122311Y-96196690D01*
X138122506Y-96139783D01*
X138099541Y-96137430D01*
X138076577Y-96135078D01*
X138026819Y-96169010D01*
X138027261Y-96218359D01*
X138031246Y-96276590D01*
X138042027Y-96333341D01*
X138059427Y-96388195D01*
X138083267Y-96440732D01*
X138113369Y-96490536D01*
X138149554Y-96537188D01*
X138174774Y-96564155D01*
X138215410Y-96601000D01*
X138259140Y-96633371D01*
X138306472Y-96661491D01*
X138357911Y-96685584D01*
X138413966Y-96705873D01*
X138475143Y-96722584D01*
X138541948Y-96735938D01*
X138575389Y-96741113D01*
X138596455Y-96743389D01*
X138623303Y-96745185D01*
X138654675Y-96746500D01*
X138689315Y-96747334D01*
X138725966Y-96747688D01*
X138763369Y-96747562D01*
X138800269Y-96746956D01*
X138835407Y-96745870D01*
X138867526Y-96744303D01*
X138895370Y-96742257D01*
X138907000Y-96741088D01*
X139021247Y-96725915D01*
X139136379Y-96706055D01*
X139251524Y-96681770D01*
X139365809Y-96653321D01*
X139478359Y-96620969D01*
X139588303Y-96584975D01*
X139694766Y-96545600D01*
X139796876Y-96503106D01*
X139893760Y-96457754D01*
X139948608Y-96429498D01*
X140031718Y-96382751D01*
X140110658Y-96333631D01*
X140184981Y-96282487D01*
X140254241Y-96229668D01*
X140317993Y-96175522D01*
X140375791Y-96120397D01*
X140427188Y-96064643D01*
X140448880Y-96038480D01*
X140463589Y-96020572D01*
X140474647Y-96008259D01*
X140482321Y-96001267D01*
X140486878Y-95999322D01*
X140487106Y-95999373D01*
X140501682Y-96003012D01*
X140522129Y-96007139D01*
X140547296Y-96011588D01*
X140576029Y-96016193D01*
X140607174Y-96020787D01*
X140639579Y-96025204D01*
X140672091Y-96029276D01*
X140703556Y-96032837D01*
X140732821Y-96035720D01*
X140746736Y-96036893D01*
X140776996Y-96038630D01*
X140810509Y-96039311D01*
X140847721Y-96038909D01*
X140889075Y-96037398D01*
X140935017Y-96034750D01*
X140985991Y-96030938D01*
X141042441Y-96025937D01*
X141104812Y-96019719D01*
X141173548Y-96012256D01*
X141194764Y-96009853D01*
X141292696Y-95998039D01*
X141397110Y-95984253D01*
X141507726Y-95968544D01*
X141624267Y-95950962D01*
X141746454Y-95931559D01*
X141874011Y-95910386D01*
X142006657Y-95887492D01*
X142144117Y-95862928D01*
X142286110Y-95836746D01*
X142432360Y-95808995D01*
X142582588Y-95779727D01*
X142736517Y-95748991D01*
X142893867Y-95716840D01*
X143054361Y-95683322D01*
X143217721Y-95648489D01*
X143383669Y-95612392D01*
X143411972Y-95606166D01*
X143443505Y-95599268D01*
X143473573Y-95592787D01*
X143501326Y-95586899D01*
X143525913Y-95581780D01*
X143546484Y-95577607D01*
X143562186Y-95574556D01*
X143572170Y-95572804D01*
X143574250Y-95572520D01*
X143601629Y-95572603D01*
X143630597Y-95578198D01*
X143659337Y-95588640D01*
X143686032Y-95603263D01*
X143708863Y-95621400D01*
X143709577Y-95622097D01*
X143720334Y-95634458D01*
X143733559Y-95652584D01*
X143748873Y-95675782D01*
X143765898Y-95703362D01*
X143784253Y-95734633D01*
X143803562Y-95768902D01*
X143823444Y-95805479D01*
X143843521Y-95843671D01*
X143863415Y-95882789D01*
X143882747Y-95922139D01*
X143901137Y-95961031D01*
X143918208Y-95998774D01*
X143926938Y-96018888D01*
X143954418Y-96087828D01*
X143976295Y-96152753D01*
X143992564Y-96213631D01*
X144003220Y-96270428D01*
X144008258Y-96323112D01*
X144007674Y-96371650D01*
X144001462Y-96416008D01*
X143990303Y-96454355D01*
X143980721Y-96474617D01*
X143967158Y-96496530D01*
X143951359Y-96517628D01*
X143935072Y-96535441D01*
X143929089Y-96540860D01*
X143913700Y-96552771D01*
X143897081Y-96563287D01*
X143878689Y-96572518D01*
X143857978Y-96580574D01*
X143834406Y-96587565D01*
X143807427Y-96593602D01*
X143776498Y-96598794D01*
X143741074Y-96603252D01*
X143700612Y-96607086D01*
X143654567Y-96610405D01*
X143602396Y-96613321D01*
X143561903Y-96615182D01*
X143542132Y-96615961D01*
X143516304Y-96616876D01*
X143485416Y-96617897D01*
X143450464Y-96618994D01*
X143412446Y-96620137D01*
X143372357Y-96621294D01*
X143331195Y-96622437D01*
X143289956Y-96623534D01*
X143269097Y-96624070D01*
X143163132Y-96626865D01*
X143063623Y-96629728D01*
X142969971Y-96632688D01*
X142881576Y-96635774D01*
X142797840Y-96639016D01*
X142718162Y-96642444D01*
X142641944Y-96646086D01*
X142568587Y-96649972D01*
X142497491Y-96654132D01*
X142428056Y-96658595D01*
X142359683Y-96663390D01*
X142291774Y-96668548D01*
X142223729Y-96674096D01*
X142187833Y-96677168D01*
X142035425Y-96691484D01*
X141888916Y-96707501D01*
X141747314Y-96725426D01*
X141609629Y-96745462D01*
X141474869Y-96767813D01*
X141342042Y-96792686D01*
X141210156Y-96820283D01*
X141078221Y-96850811D01*
X140945244Y-96884473D01*
X140810234Y-96921474D01*
X140672199Y-96962018D01*
X140530149Y-97006311D01*
X140422181Y-97041516D01*
X140365529Y-97060415D01*
X140313101Y-97078181D01*
X140264324Y-97095079D01*
X140218627Y-97111377D01*
X140175437Y-97127340D01*
X140134184Y-97143235D01*
X140094295Y-97159327D01*
X140055199Y-97175884D01*
X140016325Y-97193170D01*
X139977099Y-97211452D01*
X139936952Y-97230997D01*
X139895310Y-97252071D01*
X139851602Y-97274939D01*
X139805257Y-97299869D01*
X139755703Y-97327125D01*
X139702368Y-97356975D01*
X139644680Y-97389684D01*
X139582068Y-97425519D01*
X139517306Y-97462815D01*
X139467113Y-97491743D01*
X139422343Y-97517450D01*
X139382339Y-97540298D01*
X139346445Y-97560648D01*
X139314006Y-97578863D01*
X139284365Y-97595303D01*
X139256866Y-97610330D01*
X139230853Y-97624307D01*
X139205670Y-97637594D01*
X139180662Y-97650554D01*
X139155172Y-97663549D01*
X139132778Y-97674820D01*
X139067461Y-97706741D01*
X139006674Y-97734702D01*
X138949369Y-97759064D01*
X138894501Y-97780188D01*
X138841022Y-97798436D01*
X138787885Y-97814169D01*
X138734043Y-97827748D01*
X138678449Y-97839537D01*
X138630975Y-97848094D01*
X138571699Y-97857475D01*
X138517114Y-97864849D01*
X138465196Y-97870377D01*
X138413926Y-97874223D01*
X138361279Y-97876550D01*
X138305234Y-97877522D01*
X138266708Y-97877509D01*
X138240120Y-97877309D01*
X138215076Y-97877051D01*
X138192670Y-97876751D01*
X138173997Y-97876426D01*
X138160149Y-97876092D01*
X138152223Y-97875767D01*
X138152056Y-97875755D01*
X138061009Y-97866740D01*
X137971200Y-97853096D01*
X137883485Y-97835042D01*
X137798718Y-97812798D01*
X137717756Y-97786583D01*
X137641455Y-97756619D01*
X137583791Y-97729817D01*
X137497957Y-97682919D01*
X137414330Y-97629377D01*
X137332988Y-97569273D01*
X137254006Y-97502690D01*
X137177461Y-97429708D01*
X137103429Y-97350411D01*
X137031985Y-97264879D01*
X136963207Y-97173196D01*
X136897171Y-97075442D01*
X136833952Y-96971701D01*
X136773627Y-96862053D01*
X136769300Y-96853746D01*
X136732293Y-96778734D01*
X136697779Y-96700989D01*
X136665400Y-96619580D01*
X136634798Y-96533574D01*
X136605612Y-96442039D01*
X136589110Y-96385758D01*
X136581543Y-96359169D01*
X136335806Y-96260044D01*
X136296329Y-96244069D01*
X136258813Y-96228791D01*
X136223766Y-96214422D01*
X136191694Y-96201173D01*
X136163102Y-96189257D01*
X136138498Y-96178887D01*
X136118388Y-96170274D01*
X136103278Y-96163630D01*
X136093674Y-96159168D01*
X136090083Y-96157101D01*
X136090069Y-96157055D01*
X136092644Y-96154178D01*
X136100115Y-96146965D01*
X136112098Y-96135762D01*
X136128213Y-96120917D01*
X136148078Y-96102776D01*
X136171310Y-96081686D01*
X136197529Y-96057994D01*
X136226351Y-96032048D01*
X136257395Y-96004193D01*
X136290280Y-95974778D01*
X136315847Y-95951966D01*
X136541625Y-95750741D01*
X136556003Y-95711022D01*
X136584338Y-95640948D01*
X136617586Y-95574045D01*
X136656152Y-95509707D01*
X136700445Y-95447324D01*
X136750870Y-95386287D01*
X136807835Y-95325990D01*
X136824224Y-95309917D01*
X136891538Y-95249739D01*
X136964130Y-95194059D01*
X137041734Y-95143010D01*
X137124086Y-95096722D01*
X137210921Y-95055330D01*
X137301974Y-95018964D01*
X137396979Y-94987758D01*
X137495671Y-94961842D01*
X137541750Y-94951834D01*
X137586147Y-94943197D01*
X137625869Y-94936427D01*
X137662979Y-94931295D01*
X137699540Y-94927572D01*
X137737614Y-94925029D01*
X137779265Y-94923439D01*
X137802806Y-94922916D01*
X137849574Y-94922493D01*
X137891031Y-94923103D01*
X137891031Y-94923103D01*
G37*
X137891031Y-94923103D02*
X137928866Y-94924878D01*
X137964763Y-94927950D01*
X138000412Y-94932451D01*
X138037499Y-94938512D01*
X138062537Y-94943226D01*
X138099505Y-94950873D01*
X138134770Y-94959056D01*
X138169378Y-94968108D01*
X138204376Y-94978364D01*
X138240809Y-94990156D01*
X138279722Y-95003818D01*
X138322161Y-95019684D01*
X138369173Y-95038088D01*
X138404737Y-95052406D01*
X138451958Y-95071805D01*
X138499898Y-95091943D01*
X138548959Y-95113011D01*
X138599547Y-95135199D01*
X138652066Y-95158695D01*
X138706921Y-95183689D01*
X138764514Y-95210372D01*
X138825251Y-95238932D01*
X138889536Y-95269559D01*
X138957773Y-95302442D01*
X139030365Y-95337772D01*
X139107719Y-95375737D01*
X139190236Y-95416528D01*
X139278323Y-95460333D01*
X139336085Y-95489177D01*
X139417799Y-95529964D01*
X139493732Y-95567698D01*
X139564358Y-95602596D01*
X139630149Y-95634875D01*
X139691577Y-95664752D01*
X139749115Y-95692444D01*
X139803235Y-95718167D01*
X139854409Y-95742138D01*
X139903111Y-95764575D01*
X139949811Y-95785695D01*
X139994982Y-95805714D01*
X140039097Y-95824848D01*
X140082629Y-95843316D01*
X140126049Y-95861334D01*
X140169829Y-95879119D01*
X140214443Y-95896888D01*
X140260363Y-95914857D01*
X140277542Y-95921509D01*
X140301524Y-95930793D01*
X140323788Y-95939455D01*
X140343348Y-95947109D01*
X140359219Y-95953366D01*
X140370414Y-95957840D01*
X140375784Y-95960070D01*
X140385832Y-95964573D01*
X140370698Y-95983849D01*
X140358889Y-95997902D01*
X140342920Y-96015482D01*
X140323921Y-96035449D01*
X140303023Y-96056663D01*
X140281357Y-96077986D01*
X140260055Y-96098277D01*
X140240246Y-96116397D01*
X140231681Y-96123920D01*
X140156102Y-96185039D01*
X140074352Y-96243238D01*
X139986747Y-96298375D01*
X139893601Y-96350306D01*
X139795231Y-96398886D01*
X139691952Y-96443973D01*
X139584079Y-96485422D01*
X139471928Y-96523091D01*
X139355814Y-96556835D01*
X139236054Y-96586510D01*
X139196278Y-96595281D01*
X139137253Y-96607567D01*
X139083414Y-96618013D01*
X139033205Y-96626877D01*
X138985074Y-96634413D01*
X138937469Y-96640877D01*
X138888835Y-96646526D01*
X138878778Y-96647588D01*
X138858732Y-96649185D01*
X138833512Y-96650438D01*
X138804439Y-96651348D01*
X138772833Y-96651913D01*
X138740014Y-96652134D01*
X138707303Y-96652011D01*
X138676020Y-96651543D01*
X138647485Y-96650730D01*
X138623019Y-96649572D01*
X138603941Y-96648069D01*
X138600083Y-96647629D01*
X138529587Y-96636359D01*
X138464668Y-96620777D01*
X138405314Y-96600875D01*
X138351511Y-96576642D01*
X138303246Y-96548071D01*
X138260506Y-96515152D01*
X138223275Y-96477875D01*
X138191542Y-96436233D01*
X138165292Y-96390216D01*
X138145814Y-96343556D01*
X138136564Y-96315336D01*
X138129950Y-96289790D01*
X138125611Y-96264670D01*
X138123189Y-96237726D01*
X138122323Y-96206710D01*
X138122311Y-96196690D01*
X138122506Y-96139783D01*
X138099541Y-96137430D01*
X138076577Y-96135078D01*
X138026819Y-96169010D01*
X138027261Y-96218359D01*
X138031246Y-96276590D01*
X138042027Y-96333341D01*
X138059427Y-96388195D01*
X138083267Y-96440732D01*
X138113369Y-96490536D01*
X138149554Y-96537188D01*
X138174774Y-96564155D01*
X138215410Y-96601000D01*
X138259140Y-96633371D01*
X138306472Y-96661491D01*
X138357911Y-96685584D01*
X138413966Y-96705873D01*
X138475143Y-96722584D01*
X138541948Y-96735938D01*
X138575389Y-96741113D01*
X138596455Y-96743389D01*
X138623303Y-96745185D01*
X138654675Y-96746500D01*
X138689315Y-96747334D01*
X138725966Y-96747688D01*
X138763369Y-96747562D01*
X138800269Y-96746956D01*
X138835407Y-96745870D01*
X138867526Y-96744303D01*
X138895370Y-96742257D01*
X138907000Y-96741088D01*
X139021247Y-96725915D01*
X139136379Y-96706055D01*
X139251524Y-96681770D01*
X139365809Y-96653321D01*
X139478359Y-96620969D01*
X139588303Y-96584975D01*
X139694766Y-96545600D01*
X139796876Y-96503106D01*
X139893760Y-96457754D01*
X139948608Y-96429498D01*
X140031718Y-96382751D01*
X140110658Y-96333631D01*
X140184981Y-96282487D01*
X140254241Y-96229668D01*
X140317993Y-96175522D01*
X140375791Y-96120397D01*
X140427188Y-96064643D01*
X140448880Y-96038480D01*
X140463589Y-96020572D01*
X140474647Y-96008259D01*
X140482321Y-96001267D01*
X140486878Y-95999322D01*
X140487106Y-95999373D01*
X140501682Y-96003012D01*
X140522129Y-96007139D01*
X140547296Y-96011588D01*
X140576029Y-96016193D01*
X140607174Y-96020787D01*
X140639579Y-96025204D01*
X140672091Y-96029276D01*
X140703556Y-96032837D01*
X140732821Y-96035720D01*
X140746736Y-96036893D01*
X140776996Y-96038630D01*
X140810509Y-96039311D01*
X140847721Y-96038909D01*
X140889075Y-96037398D01*
X140935017Y-96034750D01*
X140985991Y-96030938D01*
X141042441Y-96025937D01*
X141104812Y-96019719D01*
X141173548Y-96012256D01*
X141194764Y-96009853D01*
X141292696Y-95998039D01*
X141397110Y-95984253D01*
X141507726Y-95968544D01*
X141624267Y-95950962D01*
X141746454Y-95931559D01*
X141874011Y-95910386D01*
X142006657Y-95887492D01*
X142144117Y-95862928D01*
X142286110Y-95836746D01*
X142432360Y-95808995D01*
X142582588Y-95779727D01*
X142736517Y-95748991D01*
X142893867Y-95716840D01*
X143054361Y-95683322D01*
X143217721Y-95648489D01*
X143383669Y-95612392D01*
X143411972Y-95606166D01*
X143443505Y-95599268D01*
X143473573Y-95592787D01*
X143501326Y-95586899D01*
X143525913Y-95581780D01*
X143546484Y-95577607D01*
X143562186Y-95574556D01*
X143572170Y-95572804D01*
X143574250Y-95572520D01*
X143601629Y-95572603D01*
X143630597Y-95578198D01*
X143659337Y-95588640D01*
X143686032Y-95603263D01*
X143708863Y-95621400D01*
X143709577Y-95622097D01*
X143720334Y-95634458D01*
X143733559Y-95652584D01*
X143748873Y-95675782D01*
X143765898Y-95703362D01*
X143784253Y-95734633D01*
X143803562Y-95768902D01*
X143823444Y-95805479D01*
X143843521Y-95843671D01*
X143863415Y-95882789D01*
X143882747Y-95922139D01*
X143901137Y-95961031D01*
X143918208Y-95998774D01*
X143926938Y-96018888D01*
X143954418Y-96087828D01*
X143976295Y-96152753D01*
X143992564Y-96213631D01*
X144003220Y-96270428D01*
X144008258Y-96323112D01*
X144007674Y-96371650D01*
X144001462Y-96416008D01*
X143990303Y-96454355D01*
X143980721Y-96474617D01*
X143967158Y-96496530D01*
X143951359Y-96517628D01*
X143935072Y-96535441D01*
X143929089Y-96540860D01*
X143913700Y-96552771D01*
X143897081Y-96563287D01*
X143878689Y-96572518D01*
X143857978Y-96580574D01*
X143834406Y-96587565D01*
X143807427Y-96593602D01*
X143776498Y-96598794D01*
X143741074Y-96603252D01*
X143700612Y-96607086D01*
X143654567Y-96610405D01*
X143602396Y-96613321D01*
X143561903Y-96615182D01*
X143542132Y-96615961D01*
X143516304Y-96616876D01*
X143485416Y-96617897D01*
X143450464Y-96618994D01*
X143412446Y-96620137D01*
X143372357Y-96621294D01*
X143331195Y-96622437D01*
X143289956Y-96623534D01*
X143269097Y-96624070D01*
X143163132Y-96626865D01*
X143063623Y-96629728D01*
X142969971Y-96632688D01*
X142881576Y-96635774D01*
X142797840Y-96639016D01*
X142718162Y-96642444D01*
X142641944Y-96646086D01*
X142568587Y-96649972D01*
X142497491Y-96654132D01*
X142428056Y-96658595D01*
X142359683Y-96663390D01*
X142291774Y-96668548D01*
X142223729Y-96674096D01*
X142187833Y-96677168D01*
X142035425Y-96691484D01*
X141888916Y-96707501D01*
X141747314Y-96725426D01*
X141609629Y-96745462D01*
X141474869Y-96767813D01*
X141342042Y-96792686D01*
X141210156Y-96820283D01*
X141078221Y-96850811D01*
X140945244Y-96884473D01*
X140810234Y-96921474D01*
X140672199Y-96962018D01*
X140530149Y-97006311D01*
X140422181Y-97041516D01*
X140365529Y-97060415D01*
X140313101Y-97078181D01*
X140264324Y-97095079D01*
X140218627Y-97111377D01*
X140175437Y-97127340D01*
X140134184Y-97143235D01*
X140094295Y-97159327D01*
X140055199Y-97175884D01*
X140016325Y-97193170D01*
X139977099Y-97211452D01*
X139936952Y-97230997D01*
X139895310Y-97252071D01*
X139851602Y-97274939D01*
X139805257Y-97299869D01*
X139755703Y-97327125D01*
X139702368Y-97356975D01*
X139644680Y-97389684D01*
X139582068Y-97425519D01*
X139517306Y-97462815D01*
X139467113Y-97491743D01*
X139422343Y-97517450D01*
X139382339Y-97540298D01*
X139346445Y-97560648D01*
X139314006Y-97578863D01*
X139284365Y-97595303D01*
X139256866Y-97610330D01*
X139230853Y-97624307D01*
X139205670Y-97637594D01*
X139180662Y-97650554D01*
X139155172Y-97663549D01*
X139132778Y-97674820D01*
X139067461Y-97706741D01*
X139006674Y-97734702D01*
X138949369Y-97759064D01*
X138894501Y-97780188D01*
X138841022Y-97798436D01*
X138787885Y-97814169D01*
X138734043Y-97827748D01*
X138678449Y-97839537D01*
X138630975Y-97848094D01*
X138571699Y-97857475D01*
X138517114Y-97864849D01*
X138465196Y-97870377D01*
X138413926Y-97874223D01*
X138361279Y-97876550D01*
X138305234Y-97877522D01*
X138266708Y-97877509D01*
X138240120Y-97877309D01*
X138215076Y-97877051D01*
X138192670Y-97876751D01*
X138173997Y-97876426D01*
X138160149Y-97876092D01*
X138152223Y-97875767D01*
X138152056Y-97875755D01*
X138061009Y-97866740D01*
X137971200Y-97853096D01*
X137883485Y-97835042D01*
X137798718Y-97812798D01*
X137717756Y-97786583D01*
X137641455Y-97756619D01*
X137583791Y-97729817D01*
X137497957Y-97682919D01*
X137414330Y-97629377D01*
X137332988Y-97569273D01*
X137254006Y-97502690D01*
X137177461Y-97429708D01*
X137103429Y-97350411D01*
X137031985Y-97264879D01*
X136963207Y-97173196D01*
X136897171Y-97075442D01*
X136833952Y-96971701D01*
X136773627Y-96862053D01*
X136769300Y-96853746D01*
X136732293Y-96778734D01*
X136697779Y-96700989D01*
X136665400Y-96619580D01*
X136634798Y-96533574D01*
X136605612Y-96442039D01*
X136589110Y-96385758D01*
X136581543Y-96359169D01*
X136335806Y-96260044D01*
X136296329Y-96244069D01*
X136258813Y-96228791D01*
X136223766Y-96214422D01*
X136191694Y-96201173D01*
X136163102Y-96189257D01*
X136138498Y-96178887D01*
X136118388Y-96170274D01*
X136103278Y-96163630D01*
X136093674Y-96159168D01*
X136090083Y-96157101D01*
X136090069Y-96157055D01*
X136092644Y-96154178D01*
X136100115Y-96146965D01*
X136112098Y-96135762D01*
X136128213Y-96120917D01*
X136148078Y-96102776D01*
X136171310Y-96081686D01*
X136197529Y-96057994D01*
X136226351Y-96032048D01*
X136257395Y-96004193D01*
X136290280Y-95974778D01*
X136315847Y-95951966D01*
X136541625Y-95750741D01*
X136556003Y-95711022D01*
X136584338Y-95640948D01*
X136617586Y-95574045D01*
X136656152Y-95509707D01*
X136700445Y-95447324D01*
X136750870Y-95386287D01*
X136807835Y-95325990D01*
X136824224Y-95309917D01*
X136891538Y-95249739D01*
X136964130Y-95194059D01*
X137041734Y-95143010D01*
X137124086Y-95096722D01*
X137210921Y-95055330D01*
X137301974Y-95018964D01*
X137396979Y-94987758D01*
X137495671Y-94961842D01*
X137541750Y-94951834D01*
X137586147Y-94943197D01*
X137625869Y-94936427D01*
X137662979Y-94931295D01*
X137699540Y-94927572D01*
X137737614Y-94925029D01*
X137779265Y-94923439D01*
X137802806Y-94922916D01*
X137849574Y-94922493D01*
X137891031Y-94923103D01*
D12*
X137000000Y-121600000D03*
X138000000Y-121600000D03*
X139000000Y-121600000D03*
X140000000Y-121600000D03*
X141000000Y-121600000D03*
X142000000Y-121600000D03*
X143000000Y-121600000D03*
X144000000Y-121600000D03*
X145000000Y-121600000D03*
X146000000Y-121600000D03*
X147000000Y-121600000D03*
X148000000Y-121600000D03*
X149000000Y-121600000D03*
X150000000Y-121600000D03*
X151000000Y-121600000D03*
X152000000Y-121600000D03*
D13*
X136000000Y-123700000D03*
X153000000Y-123700000D03*
D14*
X171800000Y-104800000D03*
X131900000Y-99400000D03*
D15*
X135100000Y-116100000D03*
X135100000Y-112500000D03*
X134600000Y-112500000D03*
X134600000Y-116100000D03*
D16*
X136150000Y-115550000D03*
X136150000Y-115050000D03*
X136150000Y-114550000D03*
X136150000Y-114050000D03*
X136150000Y-113550000D03*
X136150000Y-113050000D03*
X133550000Y-113050000D03*
X133550000Y-113550000D03*
X133550000Y-114050000D03*
X133550000Y-114550000D03*
X133550000Y-115050000D03*
X133550000Y-115550000D03*
D17*
X148800000Y-101700000D03*
D18*
X148250000Y-100650000D03*
X147750000Y-100650000D03*
X147250000Y-100650000D03*
X146750000Y-100650000D03*
X146250000Y-100650000D03*
X145750000Y-100650000D03*
X145250000Y-100650000D03*
X144750000Y-100650000D03*
X144250000Y-100650000D03*
X143750000Y-100650000D03*
D17*
X143200000Y-101700000D03*
X143200000Y-103200000D03*
D18*
X143750000Y-104250000D03*
X144250000Y-104250000D03*
X144750000Y-104250000D03*
X145250000Y-104250000D03*
X145750000Y-104250000D03*
X146250000Y-104250000D03*
X146750000Y-104250000D03*
X147250000Y-104250000D03*
X147750000Y-104250000D03*
X148250000Y-104250000D03*
D17*
X148800000Y-103200000D03*
X151850000Y-112150000D03*
D18*
X151300000Y-111100000D03*
X150800000Y-111100000D03*
X150300000Y-111100000D03*
X149800000Y-111100000D03*
X149300000Y-111100000D03*
X148800000Y-111100000D03*
X148300000Y-111100000D03*
X147800000Y-111100000D03*
X147300000Y-111100000D03*
X146800000Y-111100000D03*
D17*
X146250000Y-112150000D03*
X146250000Y-113650000D03*
D18*
X146800000Y-114700000D03*
X147300000Y-114700000D03*
X147800000Y-114700000D03*
X148300000Y-114700000D03*
X148800000Y-114700000D03*
X149300000Y-114700000D03*
X149800000Y-114700000D03*
X150300000Y-114700000D03*
X150800000Y-114700000D03*
X151300000Y-114700000D03*
D17*
X151850000Y-113650000D03*
D10*
G36*
X170621077Y-95105439D02*
X171365237Y-94361279D01*
X171678061Y-94674103D01*
X170933901Y-95418263D01*
X170621077Y-95105439D01*
X170621077Y-95105439D01*
G37*
G36*
X169489706Y-94320550D02*
X169802530Y-94007726D01*
X170546690Y-94751886D01*
X170233866Y-95064710D01*
X169489706Y-94320550D01*
X169489706Y-94320550D01*
G37*
G36*
X169136153Y-94674103D02*
X169448977Y-94361279D01*
X170193137Y-95105439D01*
X169880313Y-95418263D01*
X169136153Y-94674103D01*
X169136153Y-94674103D01*
G37*
G36*
X168782599Y-95027656D02*
X169095423Y-94714832D01*
X169839583Y-95458992D01*
X169526759Y-95771816D01*
X168782599Y-95027656D01*
X168782599Y-95027656D01*
G37*
G36*
X168429046Y-95381210D02*
X168741870Y-95068386D01*
X169486030Y-95812546D01*
X169173206Y-96125370D01*
X168429046Y-95381210D01*
X168429046Y-95381210D01*
G37*
G36*
X168075492Y-95734763D02*
X168388316Y-95421939D01*
X169132476Y-96166099D01*
X168819652Y-96478923D01*
X168075492Y-95734763D01*
X168075492Y-95734763D01*
G37*
G36*
X167721939Y-96088316D02*
X168034763Y-95775492D01*
X168778923Y-96519652D01*
X168466099Y-96832476D01*
X167721939Y-96088316D01*
X167721939Y-96088316D01*
G37*
G36*
X167368386Y-96441870D02*
X167681210Y-96129046D01*
X168425370Y-96873206D01*
X168112546Y-97186030D01*
X167368386Y-96441870D01*
X167368386Y-96441870D01*
G37*
G36*
X167014832Y-96795423D02*
X167327656Y-96482599D01*
X168071816Y-97226759D01*
X167758992Y-97539583D01*
X167014832Y-96795423D01*
X167014832Y-96795423D01*
G37*
G36*
X166661279Y-97148977D02*
X166974103Y-96836153D01*
X167718263Y-97580313D01*
X167405439Y-97893137D01*
X166661279Y-97148977D01*
X166661279Y-97148977D01*
G37*
G36*
X166307726Y-97502530D02*
X166620550Y-97189706D01*
X167364710Y-97933866D01*
X167051886Y-98246690D01*
X166307726Y-97502530D01*
X166307726Y-97502530D01*
G37*
G36*
X166661279Y-99065237D02*
X167405439Y-98321077D01*
X167718263Y-98633901D01*
X166974103Y-99378061D01*
X166661279Y-99065237D01*
X166661279Y-99065237D01*
G37*
G36*
X167721939Y-100125897D02*
X168466099Y-99381737D01*
X168778923Y-99694561D01*
X168034763Y-100438721D01*
X167721939Y-100125897D01*
X167721939Y-100125897D01*
G37*
G36*
X168853310Y-100048114D02*
X169166134Y-99735290D01*
X169910294Y-100479450D01*
X169597470Y-100792274D01*
X168853310Y-100048114D01*
X168853310Y-100048114D01*
G37*
G36*
X169206863Y-99694561D02*
X169519687Y-99381737D01*
X170263847Y-100125897D01*
X169951023Y-100438721D01*
X169206863Y-99694561D01*
X169206863Y-99694561D01*
G37*
G36*
X169560417Y-99341008D02*
X169873241Y-99028184D01*
X170617401Y-99772344D01*
X170304577Y-100085168D01*
X169560417Y-99341008D01*
X169560417Y-99341008D01*
G37*
G36*
X169913970Y-98987454D02*
X170226794Y-98674630D01*
X170970954Y-99418790D01*
X170658130Y-99731614D01*
X169913970Y-98987454D01*
X169913970Y-98987454D01*
G37*
G36*
X170267524Y-98633901D02*
X170580348Y-98321077D01*
X171324508Y-99065237D01*
X171011684Y-99378061D01*
X170267524Y-98633901D01*
X170267524Y-98633901D01*
G37*
G36*
X170621077Y-98280348D02*
X170933901Y-97967524D01*
X171678061Y-98711684D01*
X171365237Y-99024508D01*
X170621077Y-98280348D01*
X170621077Y-98280348D01*
G37*
G36*
X170974630Y-97926794D02*
X171287454Y-97613970D01*
X172031614Y-98358130D01*
X171718790Y-98670954D01*
X170974630Y-97926794D01*
X170974630Y-97926794D01*
G37*
G36*
X171328184Y-97573241D02*
X171641008Y-97260417D01*
X172385168Y-98004577D01*
X172072344Y-98317401D01*
X171328184Y-97573241D01*
X171328184Y-97573241D01*
G37*
G36*
X171681737Y-97219687D02*
X171994561Y-96906863D01*
X172738721Y-97651023D01*
X172425897Y-97963847D01*
X171681737Y-97219687D01*
X171681737Y-97219687D01*
G37*
G36*
X172035290Y-96866134D02*
X172348114Y-96553310D01*
X173092274Y-97297470D01*
X172779450Y-97610294D01*
X172035290Y-96866134D01*
X172035290Y-96866134D01*
G37*
G36*
X171681737Y-96166099D02*
X172425897Y-95421939D01*
X172738721Y-95734763D01*
X171994561Y-96478923D01*
X171681737Y-96166099D01*
X171681737Y-96166099D01*
G37*
G36*
X170694561Y-120921077D02*
X171438721Y-121665237D01*
X171125897Y-121978061D01*
X170381737Y-121233901D01*
X170694561Y-120921077D01*
X170694561Y-120921077D01*
G37*
G36*
X171479450Y-119789706D02*
X171792274Y-120102530D01*
X171048114Y-120846690D01*
X170735290Y-120533866D01*
X171479450Y-119789706D01*
X171479450Y-119789706D01*
G37*
G36*
X171125897Y-119436153D02*
X171438721Y-119748977D01*
X170694561Y-120493137D01*
X170381737Y-120180313D01*
X171125897Y-119436153D01*
X171125897Y-119436153D01*
G37*
G36*
X170772344Y-119082599D02*
X171085168Y-119395423D01*
X170341008Y-120139583D01*
X170028184Y-119826759D01*
X170772344Y-119082599D01*
X170772344Y-119082599D01*
G37*
G36*
X170418790Y-118729046D02*
X170731614Y-119041870D01*
X169987454Y-119786030D01*
X169674630Y-119473206D01*
X170418790Y-118729046D01*
X170418790Y-118729046D01*
G37*
G36*
X170065237Y-118375492D02*
X170378061Y-118688316D01*
X169633901Y-119432476D01*
X169321077Y-119119652D01*
X170065237Y-118375492D01*
X170065237Y-118375492D01*
G37*
G36*
X169711684Y-118021939D02*
X170024508Y-118334763D01*
X169280348Y-119078923D01*
X168967524Y-118766099D01*
X169711684Y-118021939D01*
X169711684Y-118021939D01*
G37*
G36*
X169358130Y-117668386D02*
X169670954Y-117981210D01*
X168926794Y-118725370D01*
X168613970Y-118412546D01*
X169358130Y-117668386D01*
X169358130Y-117668386D01*
G37*
G36*
X169004577Y-117314832D02*
X169317401Y-117627656D01*
X168573241Y-118371816D01*
X168260417Y-118058992D01*
X169004577Y-117314832D01*
X169004577Y-117314832D01*
G37*
G36*
X168651023Y-116961279D02*
X168963847Y-117274103D01*
X168219687Y-118018263D01*
X167906863Y-117705439D01*
X168651023Y-116961279D01*
X168651023Y-116961279D01*
G37*
G36*
X168297470Y-116607726D02*
X168610294Y-116920550D01*
X167866134Y-117664710D01*
X167553310Y-117351886D01*
X168297470Y-116607726D01*
X168297470Y-116607726D01*
G37*
G36*
X166734763Y-116961279D02*
X167478923Y-117705439D01*
X167166099Y-118018263D01*
X166421939Y-117274103D01*
X166734763Y-116961279D01*
X166734763Y-116961279D01*
G37*
G36*
X165674103Y-118021939D02*
X166418263Y-118766099D01*
X166105439Y-119078923D01*
X165361279Y-118334763D01*
X165674103Y-118021939D01*
X165674103Y-118021939D01*
G37*
G36*
X165751886Y-119153310D02*
X166064710Y-119466134D01*
X165320550Y-120210294D01*
X165007726Y-119897470D01*
X165751886Y-119153310D01*
X165751886Y-119153310D01*
G37*
G36*
X166105439Y-119506863D02*
X166418263Y-119819687D01*
X165674103Y-120563847D01*
X165361279Y-120251023D01*
X166105439Y-119506863D01*
X166105439Y-119506863D01*
G37*
G36*
X166458992Y-119860417D02*
X166771816Y-120173241D01*
X166027656Y-120917401D01*
X165714832Y-120604577D01*
X166458992Y-119860417D01*
X166458992Y-119860417D01*
G37*
G36*
X166812546Y-120213970D02*
X167125370Y-120526794D01*
X166381210Y-121270954D01*
X166068386Y-120958130D01*
X166812546Y-120213970D01*
X166812546Y-120213970D01*
G37*
G36*
X167166099Y-120567524D02*
X167478923Y-120880348D01*
X166734763Y-121624508D01*
X166421939Y-121311684D01*
X167166099Y-120567524D01*
X167166099Y-120567524D01*
G37*
G36*
X167519652Y-120921077D02*
X167832476Y-121233901D01*
X167088316Y-121978061D01*
X166775492Y-121665237D01*
X167519652Y-120921077D01*
X167519652Y-120921077D01*
G37*
G36*
X167873206Y-121274630D02*
X168186030Y-121587454D01*
X167441870Y-122331614D01*
X167129046Y-122018790D01*
X167873206Y-121274630D01*
X167873206Y-121274630D01*
G37*
G36*
X168226759Y-121628184D02*
X168539583Y-121941008D01*
X167795423Y-122685168D01*
X167482599Y-122372344D01*
X168226759Y-121628184D01*
X168226759Y-121628184D01*
G37*
G36*
X168580313Y-121981737D02*
X168893137Y-122294561D01*
X168148977Y-123038721D01*
X167836153Y-122725897D01*
X168580313Y-121981737D01*
X168580313Y-121981737D01*
G37*
G36*
X168933866Y-122335290D02*
X169246690Y-122648114D01*
X168502530Y-123392274D01*
X168189706Y-123079450D01*
X168933866Y-122335290D01*
X168933866Y-122335290D01*
G37*
G36*
X169633901Y-121981737D02*
X170378061Y-122725897D01*
X170065237Y-123038721D01*
X169321077Y-122294561D01*
X169633901Y-121981737D01*
X169633901Y-121981737D01*
G37*
D14*
X131350000Y-120050000D03*
D19*
X157750000Y-106700000D03*
X157750000Y-104500000D03*
X159450000Y-106700000D03*
X159450000Y-104500000D03*
D20*
X140450000Y-114700000D03*
X138250000Y-114700000D03*
X140450000Y-116700000D03*
X138250000Y-116700000D03*
X140450000Y-113050000D03*
X138250000Y-113050000D03*
X133700000Y-118150000D03*
X135900000Y-118150000D03*
X149250000Y-96350000D03*
X151450000Y-96350000D03*
X136800000Y-109350000D03*
X139000000Y-109350000D03*
D19*
X172900000Y-93700000D03*
X172900000Y-91500000D03*
D20*
X172850000Y-125200000D03*
X170650000Y-125200000D03*
M02*
