G04 #@! TF.FileFunction,Legend,Top*
%FSLAX46Y46*%
G04 Gerber Fmt 4.6, Leading zero omitted, Abs format (unit mm)*
G04 Created by KiCad (PCBNEW 4.0.1-stable) date Tuesday, May 31, 2016 'AMt' 10:57:44 AM*
%MOMM*%
G01*
G04 APERTURE LIST*
%ADD10C,0.100000*%
%ADD11C,0.150000*%
%ADD12C,0.200000*%
G04 APERTURE END LIST*
D10*
D11*
X159942858Y-122485714D02*
X159942858Y-123152381D01*
X159704762Y-122104762D02*
X159466667Y-122819048D01*
X160085715Y-122819048D01*
X160609524Y-122580952D02*
X160514286Y-122533333D01*
X160466667Y-122485714D01*
X160419048Y-122390476D01*
X160419048Y-122342857D01*
X160466667Y-122247619D01*
X160514286Y-122200000D01*
X160609524Y-122152381D01*
X160800001Y-122152381D01*
X160895239Y-122200000D01*
X160942858Y-122247619D01*
X160990477Y-122342857D01*
X160990477Y-122390476D01*
X160942858Y-122485714D01*
X160895239Y-122533333D01*
X160800001Y-122580952D01*
X160609524Y-122580952D01*
X160514286Y-122628571D01*
X160466667Y-122676190D01*
X160419048Y-122771429D01*
X160419048Y-122961905D01*
X160466667Y-123057143D01*
X160514286Y-123104762D01*
X160609524Y-123152381D01*
X160800001Y-123152381D01*
X160895239Y-123104762D01*
X160942858Y-123057143D01*
X160990477Y-122961905D01*
X160990477Y-122771429D01*
X160942858Y-122676190D01*
X160895239Y-122628571D01*
X160800001Y-122580952D01*
X161419048Y-122771429D02*
X162180953Y-122771429D01*
X163085715Y-122152381D02*
X162895238Y-122152381D01*
X162800000Y-122200000D01*
X162752381Y-122247619D01*
X162657143Y-122390476D01*
X162609524Y-122580952D01*
X162609524Y-122961905D01*
X162657143Y-123057143D01*
X162704762Y-123104762D01*
X162800000Y-123152381D01*
X162990477Y-123152381D01*
X163085715Y-123104762D01*
X163133334Y-123057143D01*
X163180953Y-122961905D01*
X163180953Y-122723810D01*
X163133334Y-122628571D01*
X163085715Y-122580952D01*
X162990477Y-122533333D01*
X162800000Y-122533333D01*
X162704762Y-122580952D01*
X162657143Y-122628571D01*
X162609524Y-122723810D01*
X163514286Y-122152381D02*
X164133334Y-122152381D01*
X163800000Y-122533333D01*
X163942858Y-122533333D01*
X164038096Y-122580952D01*
X164085715Y-122628571D01*
X164133334Y-122723810D01*
X164133334Y-122961905D01*
X164085715Y-123057143D01*
X164038096Y-123104762D01*
X163942858Y-123152381D01*
X163657143Y-123152381D01*
X163561905Y-123104762D01*
X163514286Y-123057143D01*
X160319048Y-96552381D02*
X160938096Y-96552381D01*
X160604762Y-96933333D01*
X160747620Y-96933333D01*
X160842858Y-96980952D01*
X160890477Y-97028571D01*
X160938096Y-97123810D01*
X160938096Y-97361905D01*
X160890477Y-97457143D01*
X160842858Y-97504762D01*
X160747620Y-97552381D01*
X160461905Y-97552381D01*
X160366667Y-97504762D01*
X160319048Y-97457143D01*
X161319048Y-96647619D02*
X161366667Y-96600000D01*
X161461905Y-96552381D01*
X161700001Y-96552381D01*
X161795239Y-96600000D01*
X161842858Y-96647619D01*
X161890477Y-96742857D01*
X161890477Y-96838095D01*
X161842858Y-96980952D01*
X161271429Y-97552381D01*
X161890477Y-97552381D01*
X162319048Y-97171429D02*
X163080953Y-97171429D01*
X163985715Y-96885714D02*
X163985715Y-97552381D01*
X163747619Y-96504762D02*
X163509524Y-97219048D01*
X164128572Y-97219048D01*
X164414286Y-96552381D02*
X165080953Y-96552381D01*
X164652381Y-97552381D01*
X147438096Y-109652381D02*
X146866667Y-109652381D01*
X147152381Y-109652381D02*
X147152381Y-108652381D01*
X147057143Y-108795238D01*
X146961905Y-108890476D01*
X146866667Y-108938095D01*
X148295239Y-108652381D02*
X148104762Y-108652381D01*
X148009524Y-108700000D01*
X147961905Y-108747619D01*
X147866667Y-108890476D01*
X147819048Y-109080952D01*
X147819048Y-109461905D01*
X147866667Y-109557143D01*
X147914286Y-109604762D01*
X148009524Y-109652381D01*
X148200001Y-109652381D01*
X148295239Y-109604762D01*
X148342858Y-109557143D01*
X148390477Y-109461905D01*
X148390477Y-109223810D01*
X148342858Y-109128571D01*
X148295239Y-109080952D01*
X148200001Y-109033333D01*
X148009524Y-109033333D01*
X147914286Y-109080952D01*
X147866667Y-109128571D01*
X147819048Y-109223810D01*
X148819048Y-109271429D02*
X149580953Y-109271429D01*
X149961905Y-108652381D02*
X150580953Y-108652381D01*
X150247619Y-109033333D01*
X150390477Y-109033333D01*
X150485715Y-109080952D01*
X150533334Y-109128571D01*
X150580953Y-109223810D01*
X150580953Y-109461905D01*
X150533334Y-109557143D01*
X150485715Y-109604762D01*
X150390477Y-109652381D01*
X150104762Y-109652381D01*
X150009524Y-109604762D01*
X149961905Y-109557143D01*
X151533334Y-109652381D02*
X150961905Y-109652381D01*
X151247619Y-109652381D02*
X151247619Y-108652381D01*
X151152381Y-108795238D01*
X151057143Y-108890476D01*
X150961905Y-108938095D01*
X144180952Y-98352381D02*
X144276191Y-98352381D01*
X144371429Y-98400000D01*
X144419048Y-98447619D01*
X144466667Y-98542857D01*
X144514286Y-98733333D01*
X144514286Y-98971429D01*
X144466667Y-99161905D01*
X144419048Y-99257143D01*
X144371429Y-99304762D01*
X144276191Y-99352381D01*
X144180952Y-99352381D01*
X144085714Y-99304762D01*
X144038095Y-99257143D01*
X143990476Y-99161905D01*
X143942857Y-98971429D01*
X143942857Y-98733333D01*
X143990476Y-98542857D01*
X144038095Y-98447619D01*
X144085714Y-98400000D01*
X144180952Y-98352381D01*
X144942857Y-98971429D02*
X145704762Y-98971429D01*
X146704762Y-99352381D02*
X146133333Y-99352381D01*
X146419047Y-99352381D02*
X146419047Y-98352381D01*
X146323809Y-98495238D01*
X146228571Y-98590476D01*
X146133333Y-98638095D01*
X147609524Y-98352381D02*
X147133333Y-98352381D01*
X147085714Y-98828571D01*
X147133333Y-98780952D01*
X147228571Y-98733333D01*
X147466667Y-98733333D01*
X147561905Y-98780952D01*
X147609524Y-98828571D01*
X147657143Y-98923810D01*
X147657143Y-99161905D01*
X147609524Y-99257143D01*
X147561905Y-99304762D01*
X147466667Y-99352381D01*
X147228571Y-99352381D01*
X147133333Y-99304762D01*
X147085714Y-99257143D01*
D12*
X132635714Y-93407143D02*
X132492857Y-93478571D01*
X132207143Y-93478571D01*
X132064285Y-93407143D01*
X131992857Y-93335714D01*
X131921428Y-93192857D01*
X131921428Y-92764286D01*
X131992857Y-92621429D01*
X132064285Y-92550000D01*
X132207143Y-92478571D01*
X132492857Y-92478571D01*
X132635714Y-92550000D01*
X133278571Y-93478571D02*
X133278571Y-91978571D01*
X133421428Y-92907143D02*
X133849999Y-93478571D01*
X133849999Y-92478571D02*
X133278571Y-93050000D01*
X135135714Y-93478571D02*
X135135714Y-91978571D01*
X135135714Y-93407143D02*
X134992857Y-93478571D01*
X134707143Y-93478571D01*
X134564285Y-93407143D01*
X134492857Y-93335714D01*
X134421428Y-93192857D01*
X134421428Y-92764286D01*
X134492857Y-92621429D01*
X134564285Y-92550000D01*
X134707143Y-92478571D01*
X134992857Y-92478571D01*
X135135714Y-92550000D01*
X135850000Y-93335714D02*
X135921428Y-93407143D01*
X135850000Y-93478571D01*
X135778571Y-93407143D01*
X135850000Y-93335714D01*
X135850000Y-93478571D01*
X136350000Y-92478571D02*
X136921429Y-92478571D01*
X136564286Y-91978571D02*
X136564286Y-93264286D01*
X136635714Y-93407143D01*
X136778572Y-93478571D01*
X136921429Y-93478571D01*
X137992857Y-93407143D02*
X137850000Y-93478571D01*
X137564286Y-93478571D01*
X137421429Y-93407143D01*
X137350000Y-93264286D01*
X137350000Y-92692857D01*
X137421429Y-92550000D01*
X137564286Y-92478571D01*
X137850000Y-92478571D01*
X137992857Y-92550000D01*
X138064286Y-92692857D01*
X138064286Y-92835714D01*
X137350000Y-92978571D01*
X139350000Y-93407143D02*
X139207143Y-93478571D01*
X138921429Y-93478571D01*
X138778571Y-93407143D01*
X138707143Y-93335714D01*
X138635714Y-93192857D01*
X138635714Y-92764286D01*
X138707143Y-92621429D01*
X138778571Y-92550000D01*
X138921429Y-92478571D01*
X139207143Y-92478571D01*
X139350000Y-92550000D01*
X139992857Y-93478571D02*
X139992857Y-91978571D01*
X140635714Y-93478571D02*
X140635714Y-92692857D01*
X140564285Y-92550000D01*
X140421428Y-92478571D01*
X140207143Y-92478571D01*
X140064285Y-92550000D01*
X139992857Y-92621429D01*
X142421428Y-91907143D02*
X141135714Y-93835714D01*
X143564286Y-92478571D02*
X143564286Y-93692857D01*
X143492857Y-93835714D01*
X143421429Y-93907143D01*
X143278572Y-93978571D01*
X143064286Y-93978571D01*
X142921429Y-93907143D01*
X143564286Y-93407143D02*
X143421429Y-93478571D01*
X143135715Y-93478571D01*
X142992857Y-93407143D01*
X142921429Y-93335714D01*
X142850000Y-93192857D01*
X142850000Y-92764286D01*
X142921429Y-92621429D01*
X142992857Y-92550000D01*
X143135715Y-92478571D01*
X143421429Y-92478571D01*
X143564286Y-92550000D01*
X144278572Y-92907143D02*
X145421429Y-92907143D01*
X145921429Y-92478571D02*
X146492858Y-92478571D01*
X146135715Y-91978571D02*
X146135715Y-93264286D01*
X146207143Y-93407143D01*
X146350001Y-93478571D01*
X146492858Y-93478571D01*
X147564286Y-93407143D02*
X147421429Y-93478571D01*
X147135715Y-93478571D01*
X146992858Y-93407143D01*
X146921429Y-93264286D01*
X146921429Y-92692857D01*
X146992858Y-92550000D01*
X147135715Y-92478571D01*
X147421429Y-92478571D01*
X147564286Y-92550000D01*
X147635715Y-92692857D01*
X147635715Y-92835714D01*
X146921429Y-92978571D01*
X148207143Y-93407143D02*
X148350000Y-93478571D01*
X148635715Y-93478571D01*
X148778572Y-93407143D01*
X148850000Y-93264286D01*
X148850000Y-93192857D01*
X148778572Y-93050000D01*
X148635715Y-92978571D01*
X148421429Y-92978571D01*
X148278572Y-92907143D01*
X148207143Y-92764286D01*
X148207143Y-92692857D01*
X148278572Y-92550000D01*
X148421429Y-92478571D01*
X148635715Y-92478571D01*
X148778572Y-92550000D01*
X149278572Y-92478571D02*
X149850001Y-92478571D01*
X149492858Y-91978571D02*
X149492858Y-93264286D01*
X149564286Y-93407143D01*
X149707144Y-93478571D01*
X149850001Y-93478571D01*
X150350001Y-92907143D02*
X151492858Y-92907143D01*
X151992858Y-92478571D02*
X152564287Y-92478571D01*
X152207144Y-91978571D02*
X152207144Y-93264286D01*
X152278572Y-93407143D01*
X152421430Y-93478571D01*
X152564287Y-93478571D01*
X153278573Y-93478571D02*
X153135715Y-93407143D01*
X153064287Y-93335714D01*
X152992858Y-93192857D01*
X152992858Y-92764286D01*
X153064287Y-92621429D01*
X153135715Y-92550000D01*
X153278573Y-92478571D01*
X153492858Y-92478571D01*
X153635715Y-92550000D01*
X153707144Y-92621429D01*
X153778573Y-92764286D01*
X153778573Y-93192857D01*
X153707144Y-93335714D01*
X153635715Y-93407143D01*
X153492858Y-93478571D01*
X153278573Y-93478571D01*
X154421430Y-92478571D02*
X154421430Y-93978571D01*
X154421430Y-92550000D02*
X154564287Y-92478571D01*
X154850001Y-92478571D01*
X154992858Y-92550000D01*
X155064287Y-92621429D01*
X155135716Y-92764286D01*
X155135716Y-93192857D01*
X155064287Y-93335714D01*
X154992858Y-93407143D01*
X154850001Y-93478571D01*
X154564287Y-93478571D01*
X154421430Y-93407143D01*
X156850001Y-91907143D02*
X155564287Y-93835714D01*
X157207145Y-92478571D02*
X157564288Y-93478571D01*
X157921430Y-92478571D01*
X159135716Y-92478571D02*
X159135716Y-93478571D01*
X158778573Y-91907143D02*
X158421430Y-92978571D01*
X159350002Y-92978571D01*
X173765476Y-118638096D02*
X173765476Y-119233334D01*
X172515476Y-119233334D01*
X173765476Y-118221429D02*
X172932143Y-118221429D01*
X172515476Y-118221429D02*
X172575000Y-118280953D01*
X172634524Y-118221429D01*
X172575000Y-118161905D01*
X172515476Y-118221429D01*
X172634524Y-118221429D01*
X172932143Y-117804762D02*
X172932143Y-117328572D01*
X173765476Y-117626191D02*
X172694048Y-117626191D01*
X172575000Y-117566667D01*
X172515476Y-117447620D01*
X172515476Y-117328572D01*
X172932143Y-117090476D02*
X172932143Y-116614286D01*
X172515476Y-116911905D02*
X173586905Y-116911905D01*
X173705952Y-116852381D01*
X173765476Y-116733334D01*
X173765476Y-116614286D01*
X172932143Y-114709524D02*
X173765476Y-114709524D01*
X172932143Y-115245238D02*
X173586905Y-115245238D01*
X173705952Y-115185714D01*
X173765476Y-115066667D01*
X173765476Y-114888095D01*
X173705952Y-114769047D01*
X173646429Y-114709524D01*
X172932143Y-114114286D02*
X174182143Y-114114286D01*
X172991667Y-114114286D02*
X172932143Y-113995238D01*
X172932143Y-113757143D01*
X172991667Y-113638095D01*
X173051190Y-113578572D01*
X173170238Y-113519048D01*
X173527381Y-113519048D01*
X173646429Y-113578572D01*
X173705952Y-113638095D01*
X173765476Y-113757143D01*
X173765476Y-113995238D01*
X173705952Y-114114286D01*
X172932143Y-112209524D02*
X172932143Y-111733334D01*
X172515476Y-112030953D02*
X173586905Y-112030953D01*
X173705952Y-111971429D01*
X173765476Y-111852382D01*
X173765476Y-111733334D01*
X173765476Y-111138096D02*
X173705952Y-111257143D01*
X173646429Y-111316667D01*
X173527381Y-111376191D01*
X173170238Y-111376191D01*
X173051190Y-111316667D01*
X172991667Y-111257143D01*
X172932143Y-111138096D01*
X172932143Y-110959524D01*
X172991667Y-110840476D01*
X173051190Y-110780953D01*
X173170238Y-110721429D01*
X173527381Y-110721429D01*
X173646429Y-110780953D01*
X173705952Y-110840476D01*
X173765476Y-110959524D01*
X173765476Y-111138096D01*
X173765476Y-109233334D02*
X172932143Y-109233334D01*
X173170238Y-109233334D02*
X173051190Y-109173810D01*
X172991667Y-109114286D01*
X172932143Y-108995239D01*
X172932143Y-108876191D01*
X173705952Y-107983333D02*
X173765476Y-108102381D01*
X173765476Y-108340476D01*
X173705952Y-108459524D01*
X173586905Y-108519048D01*
X173110714Y-108519048D01*
X172991667Y-108459524D01*
X172932143Y-108340476D01*
X172932143Y-108102381D01*
X172991667Y-107983333D01*
X173110714Y-107923810D01*
X173229762Y-107923810D01*
X173348810Y-108519048D01*
X173765476Y-107388095D02*
X172932143Y-107388095D01*
X173051190Y-107388095D02*
X172991667Y-107328571D01*
X172932143Y-107209524D01*
X172932143Y-107030952D01*
X172991667Y-106911904D01*
X173110714Y-106852381D01*
X173765476Y-106852381D01*
X173110714Y-106852381D02*
X172991667Y-106792857D01*
X172932143Y-106673809D01*
X172932143Y-106495238D01*
X172991667Y-106376190D01*
X173110714Y-106316666D01*
X173765476Y-106316666D01*
X173765476Y-105542857D02*
X173705952Y-105661904D01*
X173646429Y-105721428D01*
X173527381Y-105780952D01*
X173170238Y-105780952D01*
X173051190Y-105721428D01*
X172991667Y-105661904D01*
X172932143Y-105542857D01*
X172932143Y-105364285D01*
X172991667Y-105245237D01*
X173051190Y-105185714D01*
X173170238Y-105126190D01*
X173527381Y-105126190D01*
X173646429Y-105185714D01*
X173705952Y-105245237D01*
X173765476Y-105364285D01*
X173765476Y-105542857D01*
X172932143Y-104709524D02*
X173765476Y-104411905D01*
X172932143Y-104114285D01*
X173705952Y-103161904D02*
X173765476Y-103280952D01*
X173765476Y-103519047D01*
X173705952Y-103638095D01*
X173586905Y-103697619D01*
X173110714Y-103697619D01*
X172991667Y-103638095D01*
X172932143Y-103519047D01*
X172932143Y-103280952D01*
X172991667Y-103161904D01*
X173110714Y-103102381D01*
X173229762Y-103102381D01*
X173348810Y-103697619D01*
X173646429Y-102566666D02*
X173705952Y-102507142D01*
X173765476Y-102566666D01*
X173705952Y-102626190D01*
X173646429Y-102566666D01*
X173765476Y-102566666D01*
X173289286Y-102566666D02*
X172575000Y-102626190D01*
X172515476Y-102566666D01*
X172575000Y-102507142D01*
X173289286Y-102566666D01*
X172515476Y-102566666D01*
D11*
X153409524Y-120652381D02*
X152838095Y-120652381D01*
X153123809Y-120652381D02*
X153123809Y-119652381D01*
X153028571Y-119795238D01*
X152933333Y-119890476D01*
X152838095Y-119938095D01*
X154266667Y-119652381D02*
X154076190Y-119652381D01*
X153980952Y-119700000D01*
X153933333Y-119747619D01*
X153838095Y-119890476D01*
X153790476Y-120080952D01*
X153790476Y-120461905D01*
X153838095Y-120557143D01*
X153885714Y-120604762D01*
X153980952Y-120652381D01*
X154171429Y-120652381D01*
X154266667Y-120604762D01*
X154314286Y-120557143D01*
X154361905Y-120461905D01*
X154361905Y-120223810D01*
X154314286Y-120128571D01*
X154266667Y-120080952D01*
X154171429Y-120033333D01*
X153980952Y-120033333D01*
X153885714Y-120080952D01*
X153838095Y-120128571D01*
X153790476Y-120223810D01*
X136235715Y-120652381D02*
X135664286Y-120652381D01*
X135950000Y-120652381D02*
X135950000Y-119652381D01*
X135854762Y-119795238D01*
X135759524Y-119890476D01*
X135664286Y-119938095D01*
X137202353Y-116830000D02*
G75*
G03X137202353Y-116830000I-362353J0D01*
G01*
X149706742Y-100470000D02*
G75*
G03X149706742Y-100470000I-366742J0D01*
G01*
X152756742Y-110920000D02*
G75*
G03X152756742Y-110920000I-366742J0D01*
G01*
X171028407Y-93638192D02*
G75*
G03X171028407Y-93638192I-366742J0D01*
G01*
X172528550Y-120961665D02*
G75*
G03X172528550Y-120961665I-366742J0D01*
G01*
X158425000Y-105100000D02*
X158425000Y-106100000D01*
X157075000Y-106100000D02*
X157075000Y-105100000D01*
X160125000Y-105100000D02*
X160125000Y-106100000D01*
X158775000Y-106100000D02*
X158775000Y-105100000D01*
X138850000Y-114025000D02*
X139850000Y-114025000D01*
X139850000Y-115375000D02*
X138850000Y-115375000D01*
X138850000Y-116025000D02*
X139850000Y-116025000D01*
X139850000Y-117375000D02*
X138850000Y-117375000D01*
X138850000Y-112375000D02*
X139850000Y-112375000D01*
X139850000Y-113725000D02*
X138850000Y-113725000D01*
X135300000Y-118825000D02*
X134300000Y-118825000D01*
X134300000Y-117475000D02*
X135300000Y-117475000D01*
X150850000Y-97025000D02*
X149850000Y-97025000D01*
X149850000Y-95675000D02*
X150850000Y-95675000D01*
X138400000Y-110025000D02*
X137400000Y-110025000D01*
X137400000Y-108675000D02*
X138400000Y-108675000D01*
X173575000Y-92100000D02*
X173575000Y-93100000D01*
X172225000Y-93100000D02*
X172225000Y-92100000D01*
X171250000Y-124525000D02*
X172250000Y-124525000D01*
X172250000Y-125875000D02*
X171250000Y-125875000D01*
D10*
G36*
X156050711Y-128416801D02*
X156409048Y-127646439D01*
X156428025Y-127648854D01*
X156446638Y-127651038D01*
X156464888Y-127652993D01*
X156482773Y-127654717D01*
X156500296Y-127656212D01*
X156517454Y-127657477D01*
X156534249Y-127658512D01*
X156550680Y-127659317D01*
X156566748Y-127659892D01*
X156582452Y-127660236D01*
X156597792Y-127660351D01*
X156616813Y-127660022D01*
X156635290Y-127659035D01*
X156653223Y-127657390D01*
X156670613Y-127655087D01*
X156687460Y-127652126D01*
X156703762Y-127648506D01*
X156719522Y-127644229D01*
X156734737Y-127639293D01*
X156749409Y-127633700D01*
X156763538Y-127627448D01*
X156777123Y-127620539D01*
X156790164Y-127612971D01*
X156802662Y-127604745D01*
X156814616Y-127595861D01*
X156826026Y-127586319D01*
X156836893Y-127576119D01*
X156847217Y-127565261D01*
X156854930Y-127556190D01*
X156862284Y-127546515D01*
X156869280Y-127536237D01*
X156875916Y-127525355D01*
X156882194Y-127513870D01*
X156888114Y-127501781D01*
X156893674Y-127489088D01*
X156898876Y-127475792D01*
X156903719Y-127461893D01*
X156908203Y-127447390D01*
X156912329Y-127432283D01*
X156916096Y-127416573D01*
X156919504Y-127400259D01*
X156922553Y-127383342D01*
X156925244Y-127365821D01*
X156927576Y-127347696D01*
X156929549Y-127328968D01*
X156931163Y-127309637D01*
X156932419Y-127289702D01*
X156933316Y-127269163D01*
X156933854Y-127248021D01*
X156934033Y-127226275D01*
X156933899Y-127204009D01*
X156933498Y-127182313D01*
X156932829Y-127161186D01*
X156931892Y-127140629D01*
X156930688Y-127120642D01*
X156929216Y-127101223D01*
X156927476Y-127082375D01*
X156925469Y-127064096D01*
X156923194Y-127046386D01*
X156920651Y-127029246D01*
X156917841Y-127012675D01*
X156914763Y-126996674D01*
X156911418Y-126981242D01*
X156907805Y-126966380D01*
X156903924Y-126952087D01*
X156899776Y-126938364D01*
X156895360Y-126925210D01*
X156890676Y-126912626D01*
X156885725Y-126900611D01*
X156880506Y-126889166D01*
X156875019Y-126878291D01*
X156869265Y-126867984D01*
X156861312Y-126855395D01*
X156852691Y-126843568D01*
X156843402Y-126832504D01*
X156833446Y-126822204D01*
X156822822Y-126812666D01*
X156811531Y-126803892D01*
X156799572Y-126795880D01*
X156786945Y-126788631D01*
X156773651Y-126782146D01*
X156759690Y-126776423D01*
X156745061Y-126771464D01*
X156729764Y-126767267D01*
X156713800Y-126763834D01*
X156697168Y-126761163D01*
X156679869Y-126759256D01*
X156661902Y-126758111D01*
X156643267Y-126757730D01*
X156621698Y-126758016D01*
X156601087Y-126758876D01*
X156581435Y-126760309D01*
X156562742Y-126762315D01*
X156545007Y-126764894D01*
X156528231Y-126768046D01*
X156512413Y-126771771D01*
X156497555Y-126776069D01*
X156483654Y-126780941D01*
X156470713Y-126786386D01*
X156458730Y-126792403D01*
X156447705Y-126798994D01*
X156437640Y-126806158D01*
X156428533Y-126813896D01*
X156420384Y-126822206D01*
X156413195Y-126831089D01*
X156406963Y-126840546D01*
X156401691Y-126850575D01*
X156397377Y-126861178D01*
X156394022Y-126872354D01*
X156391625Y-126884103D01*
X156390187Y-126896425D01*
X156389708Y-126909321D01*
X156389708Y-127643813D01*
X156389708Y-127643794D01*
X156409048Y-127646439D01*
X156050711Y-128416801D01*
X156050711Y-126940929D01*
X156050984Y-126924138D01*
X156051805Y-126907555D01*
X156053172Y-126891180D01*
X156055087Y-126875013D01*
X156057549Y-126859055D01*
X156060557Y-126843305D01*
X156064113Y-126827764D01*
X156068216Y-126812431D01*
X156072866Y-126797306D01*
X156078063Y-126782390D01*
X156083807Y-126767682D01*
X156090098Y-126753182D01*
X156096936Y-126738891D01*
X156104321Y-126724808D01*
X156112253Y-126710933D01*
X156120733Y-126697267D01*
X156129759Y-126683809D01*
X156139332Y-126670559D01*
X156149453Y-126657518D01*
X156160120Y-126644685D01*
X156171335Y-126632061D01*
X156183096Y-126619645D01*
X156195405Y-126607437D01*
X156205664Y-126597910D01*
X156216293Y-126588717D01*
X156227293Y-126579859D01*
X156238663Y-126571334D01*
X156250403Y-126563144D01*
X156262514Y-126555289D01*
X156274995Y-126547768D01*
X156287846Y-126540580D01*
X156301068Y-126533728D01*
X156314660Y-126527209D01*
X156328622Y-126521025D01*
X156342955Y-126515175D01*
X156357658Y-126509659D01*
X156372731Y-126504478D01*
X156388174Y-126499631D01*
X156403988Y-126495118D01*
X156420172Y-126490940D01*
X156436727Y-126487095D01*
X156453652Y-126483585D01*
X156470947Y-126480410D01*
X156488612Y-126477568D01*
X156506648Y-126475061D01*
X156525054Y-126472888D01*
X156543830Y-126471050D01*
X156562977Y-126469546D01*
X156582494Y-126468376D01*
X156602381Y-126467540D01*
X156622639Y-126467038D01*
X156643267Y-126466871D01*
X156660816Y-126467045D01*
X156678321Y-126467565D01*
X156695783Y-126468432D01*
X156713203Y-126469647D01*
X156730579Y-126471208D01*
X156747912Y-126473116D01*
X156765202Y-126475370D01*
X156782449Y-126477972D01*
X156796739Y-126480549D01*
X156811498Y-126483839D01*
X156826725Y-126487843D01*
X156842421Y-126492560D01*
X156858586Y-126497991D01*
X156875218Y-126504135D01*
X156892320Y-126510993D01*
X156909890Y-126518564D01*
X156927928Y-126526848D01*
X156946435Y-126535846D01*
X156962092Y-126543849D01*
X156977365Y-126552234D01*
X156992255Y-126561002D01*
X157006763Y-126570152D01*
X157020888Y-126579685D01*
X157034630Y-126589600D01*
X157047989Y-126599898D01*
X157060966Y-126610579D01*
X157073560Y-126621642D01*
X157085770Y-126633088D01*
X157097599Y-126644916D01*
X157109044Y-126657127D01*
X157117968Y-126667361D01*
X157126732Y-126678219D01*
X157135337Y-126689703D01*
X157143783Y-126701811D01*
X157152069Y-126714543D01*
X157160197Y-126727901D01*
X157168165Y-126741882D01*
X157175974Y-126756489D01*
X157183623Y-126771720D01*
X157191114Y-126787576D01*
X157198445Y-126804057D01*
X157205617Y-126821162D01*
X157212630Y-126838892D01*
X157219483Y-126857246D01*
X157226177Y-126876225D01*
X157231014Y-126890670D01*
X157235603Y-126905343D01*
X157239944Y-126920243D01*
X157244037Y-126935370D01*
X157247881Y-126950725D01*
X157251478Y-126966307D01*
X157254827Y-126982117D01*
X157257927Y-126998154D01*
X157260780Y-127014419D01*
X157263384Y-127030911D01*
X157265741Y-127047631D01*
X157267849Y-127064578D01*
X157269709Y-127081753D01*
X157271322Y-127099155D01*
X157272686Y-127116784D01*
X157273802Y-127134641D01*
X157274670Y-127152726D01*
X157275290Y-127171038D01*
X157275663Y-127189577D01*
X157275787Y-127208344D01*
X157275640Y-127228471D01*
X157275200Y-127248321D01*
X157274467Y-127267894D01*
X157273441Y-127287191D01*
X157272121Y-127306211D01*
X157270508Y-127324955D01*
X157268602Y-127343422D01*
X157266403Y-127361613D01*
X157263910Y-127379527D01*
X157261124Y-127397165D01*
X157258045Y-127414526D01*
X157254673Y-127431610D01*
X157251007Y-127448419D01*
X157247048Y-127464950D01*
X157242796Y-127481205D01*
X157238251Y-127497184D01*
X157233412Y-127512886D01*
X157228280Y-127528311D01*
X157222855Y-127543460D01*
X157217137Y-127558332D01*
X157211125Y-127572928D01*
X157204820Y-127587248D01*
X157198222Y-127601291D01*
X157191330Y-127615057D01*
X157184146Y-127628547D01*
X157176668Y-127641760D01*
X157168897Y-127654697D01*
X157160832Y-127667357D01*
X157152475Y-127679741D01*
X157143824Y-127691848D01*
X157134880Y-127703678D01*
X157125642Y-127715232D01*
X157116112Y-127726510D01*
X157106288Y-127737511D01*
X157095881Y-127748532D01*
X157085206Y-127759214D01*
X157074263Y-127769557D01*
X157063051Y-127779561D01*
X157051571Y-127789226D01*
X157039823Y-127798552D01*
X157027807Y-127807538D01*
X157015522Y-127816186D01*
X157002969Y-127824494D01*
X156990148Y-127832463D01*
X156977059Y-127840094D01*
X156963701Y-127847385D01*
X156950075Y-127854336D01*
X156936181Y-127860949D01*
X156922018Y-127867223D01*
X156907587Y-127873157D01*
X156892888Y-127878753D01*
X156877921Y-127884009D01*
X156862685Y-127888926D01*
X156847181Y-127893504D01*
X156831409Y-127897743D01*
X156815369Y-127901643D01*
X156799060Y-127905204D01*
X156782483Y-127908425D01*
X156765638Y-127911308D01*
X156748524Y-127913851D01*
X156731143Y-127916056D01*
X156713493Y-127917921D01*
X156695574Y-127919447D01*
X156677388Y-127920634D01*
X156658933Y-127921481D01*
X156640210Y-127921990D01*
X156621218Y-127922160D01*
X156604316Y-127922033D01*
X156587471Y-127921654D01*
X156570681Y-127921021D01*
X156553948Y-127920135D01*
X156537271Y-127918997D01*
X156520650Y-127917605D01*
X156504085Y-127915960D01*
X156487577Y-127914062D01*
X156471125Y-127911911D01*
X156454729Y-127909508D01*
X156438389Y-127906851D01*
X156422106Y-127903941D01*
X156405879Y-127900778D01*
X156389708Y-127897362D01*
X156389708Y-128416876D01*
X156050711Y-128416876D01*
X156050711Y-128416801D01*
X156050711Y-128416801D01*
G37*
G36*
X157733295Y-127729157D02*
X157923818Y-126956816D01*
X157920019Y-126972623D01*
X157916552Y-126989136D01*
X157913414Y-127006356D01*
X157910607Y-127024281D01*
X157908130Y-127042913D01*
X157905983Y-127062250D01*
X157904166Y-127082294D01*
X157902680Y-127103044D01*
X157901524Y-127124500D01*
X157900698Y-127146662D01*
X157900203Y-127169530D01*
X157900038Y-127193104D01*
X157900203Y-127216557D01*
X157900698Y-127239308D01*
X157901524Y-127261360D01*
X157902680Y-127282711D01*
X157904166Y-127303361D01*
X157905983Y-127323311D01*
X157908130Y-127342561D01*
X157910607Y-127361110D01*
X157913414Y-127378959D01*
X157916552Y-127396108D01*
X157920019Y-127412556D01*
X157923818Y-127428303D01*
X157927946Y-127443350D01*
X157932405Y-127457697D01*
X157937194Y-127471343D01*
X157942313Y-127484289D01*
X157947762Y-127496535D01*
X157953542Y-127508080D01*
X157959652Y-127518924D01*
X157966093Y-127529069D01*
X157972863Y-127538512D01*
X157979964Y-127547256D01*
X157989825Y-127557641D01*
X158000277Y-127567397D01*
X158011320Y-127576524D01*
X158022955Y-127585021D01*
X158035181Y-127592888D01*
X158047998Y-127600127D01*
X158061407Y-127606736D01*
X158075406Y-127612715D01*
X158089997Y-127618065D01*
X158105180Y-127622786D01*
X158120953Y-127626877D01*
X158137318Y-127630339D01*
X158154274Y-127633171D01*
X158171821Y-127635374D01*
X158189960Y-127636948D01*
X158208690Y-127637892D01*
X158228011Y-127638206D01*
X158247327Y-127637892D01*
X158266043Y-127636948D01*
X158284158Y-127635374D01*
X158301672Y-127633171D01*
X158318585Y-127630339D01*
X158334897Y-127626877D01*
X158350609Y-127622786D01*
X158365719Y-127618065D01*
X158380229Y-127612715D01*
X158394139Y-127606736D01*
X158407447Y-127600127D01*
X158420154Y-127592888D01*
X158432261Y-127585021D01*
X158443767Y-127576524D01*
X158454672Y-127567397D01*
X158464976Y-127557641D01*
X158474680Y-127547256D01*
X158481781Y-127538512D01*
X158488551Y-127529069D01*
X158494992Y-127518924D01*
X158501102Y-127508080D01*
X158506881Y-127496535D01*
X158512331Y-127484289D01*
X158517450Y-127471343D01*
X158522239Y-127457697D01*
X158526698Y-127443350D01*
X158530826Y-127428303D01*
X158534624Y-127412556D01*
X158538092Y-127396108D01*
X158541230Y-127378959D01*
X158544037Y-127361110D01*
X158546514Y-127342561D01*
X158548661Y-127323311D01*
X158550478Y-127303361D01*
X158551964Y-127282711D01*
X158553120Y-127261360D01*
X158553946Y-127239308D01*
X158554441Y-127216557D01*
X158554606Y-127193104D01*
X158554441Y-127169530D01*
X158553946Y-127146662D01*
X158553120Y-127124500D01*
X158551964Y-127103044D01*
X158550478Y-127082294D01*
X158548661Y-127062250D01*
X158546514Y-127042913D01*
X158544037Y-127024281D01*
X158541230Y-127006356D01*
X158538092Y-126989136D01*
X158534624Y-126972623D01*
X158530826Y-126956816D01*
X158526698Y-126941715D01*
X158522239Y-126927320D01*
X158517450Y-126913631D01*
X158512331Y-126900648D01*
X158506881Y-126888371D01*
X158501102Y-126876801D01*
X158494992Y-126865936D01*
X158488551Y-126855778D01*
X158481781Y-126846326D01*
X158474680Y-126837580D01*
X158464976Y-126827035D01*
X158454672Y-126817130D01*
X158443767Y-126807864D01*
X158432261Y-126799236D01*
X158420154Y-126791248D01*
X158407447Y-126783899D01*
X158394139Y-126777189D01*
X158380229Y-126771118D01*
X158365719Y-126765686D01*
X158350609Y-126760893D01*
X158334897Y-126756739D01*
X158318585Y-126753225D01*
X158301672Y-126750349D01*
X158284158Y-126748112D01*
X158266043Y-126746515D01*
X158247327Y-126745556D01*
X158228011Y-126745237D01*
X158208690Y-126745556D01*
X158189960Y-126746515D01*
X158171821Y-126748112D01*
X158154274Y-126750349D01*
X158137318Y-126753225D01*
X158120953Y-126756739D01*
X158105180Y-126760893D01*
X158089997Y-126765686D01*
X158075406Y-126771118D01*
X158061407Y-126777189D01*
X158047998Y-126783899D01*
X158035181Y-126791248D01*
X158022955Y-126799236D01*
X158011320Y-126807864D01*
X158000277Y-126817130D01*
X157989825Y-126827035D01*
X157979964Y-126837580D01*
X157972863Y-126846326D01*
X157966093Y-126855778D01*
X157959652Y-126865936D01*
X157953542Y-126876801D01*
X157947762Y-126888371D01*
X157942313Y-126900648D01*
X157937194Y-126913631D01*
X157932405Y-126927320D01*
X157927946Y-126941715D01*
X157923818Y-126956816D01*
X157733295Y-127729157D01*
X157723593Y-127718315D01*
X157714172Y-127707208D01*
X157705031Y-127695834D01*
X157696173Y-127684196D01*
X157687595Y-127672292D01*
X157679299Y-127660123D01*
X157671284Y-127647688D01*
X157663550Y-127634987D01*
X157656097Y-127622021D01*
X157648926Y-127608790D01*
X157642035Y-127595293D01*
X157635426Y-127581531D01*
X157629099Y-127567503D01*
X157623052Y-127553210D01*
X157617287Y-127538651D01*
X157611803Y-127523827D01*
X157606600Y-127508738D01*
X157601679Y-127493383D01*
X157597038Y-127477762D01*
X157592679Y-127461876D01*
X157588601Y-127445725D01*
X157584805Y-127429308D01*
X157581289Y-127412626D01*
X157578055Y-127395678D01*
X157575102Y-127378464D01*
X157572430Y-127360986D01*
X157570040Y-127343241D01*
X157567931Y-127325232D01*
X157566103Y-127306957D01*
X157564556Y-127288416D01*
X157563290Y-127269610D01*
X157562306Y-127250538D01*
X157561603Y-127231201D01*
X157561181Y-127211599D01*
X157561040Y-127191731D01*
X157561181Y-127171862D01*
X157561603Y-127152258D01*
X157562306Y-127132920D01*
X157563290Y-127113848D01*
X157564556Y-127095041D01*
X157566103Y-127076499D01*
X157567931Y-127058223D01*
X157570040Y-127040213D01*
X157572430Y-127022468D01*
X157575102Y-127004988D01*
X157578055Y-126987774D01*
X157581289Y-126970825D01*
X157584805Y-126954142D01*
X157588601Y-126937725D01*
X157592679Y-126921573D01*
X157597038Y-126905686D01*
X157601679Y-126890065D01*
X157606600Y-126874710D01*
X157611803Y-126859620D01*
X157617287Y-126844795D01*
X157623052Y-126830236D01*
X157629099Y-126815942D01*
X157635426Y-126801914D01*
X157642035Y-126788152D01*
X157648926Y-126774654D01*
X157656097Y-126761423D01*
X157663550Y-126748457D01*
X157671284Y-126735756D01*
X157679299Y-126723321D01*
X157687595Y-126711151D01*
X157696173Y-126699247D01*
X157705031Y-126687609D01*
X157714172Y-126676235D01*
X157723593Y-126665128D01*
X157733295Y-126654286D01*
X157743872Y-126643099D01*
X157754721Y-126632257D01*
X157765844Y-126621759D01*
X157777241Y-126611605D01*
X157788910Y-126601796D01*
X157800853Y-126592331D01*
X157813070Y-126583209D01*
X157825559Y-126574432D01*
X157838322Y-126566000D01*
X157851359Y-126557911D01*
X157864668Y-126550167D01*
X157878251Y-126542766D01*
X157892108Y-126535710D01*
X157906237Y-126528999D01*
X157920640Y-126522631D01*
X157935316Y-126516608D01*
X157950266Y-126510928D01*
X157965489Y-126505593D01*
X157980985Y-126500602D01*
X157996755Y-126495956D01*
X158012798Y-126491653D01*
X158029114Y-126487695D01*
X158045704Y-126484081D01*
X158062567Y-126480811D01*
X158079703Y-126477886D01*
X158097113Y-126475304D01*
X158114795Y-126473067D01*
X158132752Y-126471174D01*
X158150981Y-126469625D01*
X158169484Y-126468420D01*
X158188260Y-126467560D01*
X158207310Y-126467043D01*
X158226633Y-126466871D01*
X158246038Y-126467043D01*
X158265167Y-126467560D01*
X158284021Y-126468420D01*
X158302598Y-126469625D01*
X158320900Y-126471174D01*
X158338926Y-126473067D01*
X158356676Y-126475304D01*
X158374150Y-126477886D01*
X158391348Y-126480811D01*
X158408271Y-126484081D01*
X158424917Y-126487695D01*
X158441288Y-126491653D01*
X158457383Y-126495956D01*
X158473202Y-126500602D01*
X158488745Y-126505593D01*
X158504012Y-126510928D01*
X158519004Y-126516608D01*
X158533719Y-126522631D01*
X158548159Y-126528999D01*
X158562323Y-126535710D01*
X158576211Y-126542766D01*
X158589823Y-126550167D01*
X158603159Y-126557911D01*
X158616219Y-126566000D01*
X158629004Y-126574432D01*
X158641512Y-126583209D01*
X158653745Y-126592331D01*
X158665702Y-126601796D01*
X158677383Y-126611605D01*
X158688788Y-126621759D01*
X158699918Y-126632257D01*
X158710771Y-126643099D01*
X158721349Y-126654286D01*
X158731051Y-126665128D01*
X158740473Y-126676235D01*
X158749613Y-126687609D01*
X158758471Y-126699247D01*
X158767049Y-126711151D01*
X158775345Y-126723321D01*
X158783360Y-126735756D01*
X158791094Y-126748457D01*
X158798547Y-126761423D01*
X158805718Y-126774654D01*
X158812609Y-126788152D01*
X158819218Y-126801914D01*
X158825545Y-126815942D01*
X158831592Y-126830236D01*
X158837357Y-126844795D01*
X158842841Y-126859620D01*
X158848044Y-126874710D01*
X158852965Y-126890065D01*
X158857606Y-126905686D01*
X158861965Y-126921573D01*
X158866043Y-126937725D01*
X158869839Y-126954142D01*
X158873355Y-126970825D01*
X158876589Y-126987774D01*
X158879542Y-127004988D01*
X158882214Y-127022468D01*
X158884604Y-127040213D01*
X158886713Y-127058223D01*
X158888541Y-127076499D01*
X158890088Y-127095041D01*
X158891354Y-127113848D01*
X158892338Y-127132920D01*
X158893041Y-127152258D01*
X158893463Y-127171862D01*
X158893603Y-127191731D01*
X158893463Y-127211599D01*
X158893041Y-127231201D01*
X158892338Y-127250538D01*
X158891354Y-127269610D01*
X158890088Y-127288416D01*
X158888541Y-127306957D01*
X158886713Y-127325232D01*
X158884604Y-127343241D01*
X158882214Y-127360986D01*
X158879542Y-127378464D01*
X158876589Y-127395678D01*
X158873355Y-127412626D01*
X158869839Y-127429308D01*
X158866043Y-127445725D01*
X158861965Y-127461876D01*
X158857606Y-127477762D01*
X158852965Y-127493383D01*
X158848044Y-127508738D01*
X158842841Y-127523827D01*
X158837357Y-127538651D01*
X158831592Y-127553210D01*
X158825545Y-127567503D01*
X158819218Y-127581531D01*
X158812609Y-127595293D01*
X158805718Y-127608790D01*
X158798547Y-127622021D01*
X158791094Y-127634987D01*
X158783360Y-127647688D01*
X158775345Y-127660123D01*
X158767049Y-127672292D01*
X158758471Y-127684196D01*
X158749613Y-127695834D01*
X158740473Y-127707208D01*
X158731051Y-127718315D01*
X158721349Y-127729157D01*
X158710771Y-127740344D01*
X158699918Y-127751186D01*
X158688788Y-127761684D01*
X158677383Y-127771837D01*
X158665702Y-127781647D01*
X158653745Y-127791112D01*
X158641512Y-127800234D01*
X158629004Y-127809011D01*
X158616219Y-127817443D01*
X158603159Y-127825532D01*
X158589823Y-127833276D01*
X158576211Y-127840677D01*
X158562323Y-127847733D01*
X158548159Y-127854444D01*
X158533719Y-127860812D01*
X158519004Y-127866835D01*
X158504012Y-127872515D01*
X158488745Y-127877850D01*
X158473202Y-127882840D01*
X158457383Y-127887487D01*
X158441288Y-127891790D01*
X158424917Y-127895748D01*
X158408271Y-127899362D01*
X158391348Y-127902632D01*
X158374150Y-127905557D01*
X158356676Y-127908139D01*
X158338926Y-127910376D01*
X158320900Y-127912269D01*
X158302598Y-127913818D01*
X158284021Y-127915023D01*
X158265167Y-127915883D01*
X158246038Y-127916400D01*
X158226633Y-127916572D01*
X158207310Y-127916400D01*
X158188260Y-127915883D01*
X158169484Y-127915023D01*
X158150981Y-127913818D01*
X158132752Y-127912269D01*
X158114795Y-127910376D01*
X158097113Y-127908139D01*
X158079703Y-127905557D01*
X158062567Y-127902632D01*
X158045704Y-127899362D01*
X158029114Y-127895748D01*
X158012798Y-127891790D01*
X157996755Y-127887487D01*
X157980985Y-127882840D01*
X157965489Y-127877850D01*
X157950266Y-127872515D01*
X157935316Y-127866835D01*
X157920640Y-127860812D01*
X157906237Y-127854444D01*
X157892108Y-127847733D01*
X157878251Y-127840677D01*
X157864668Y-127833276D01*
X157851359Y-127825532D01*
X157838322Y-127817443D01*
X157825559Y-127809011D01*
X157813070Y-127800234D01*
X157800853Y-127791112D01*
X157788910Y-127781647D01*
X157777241Y-127771837D01*
X157765844Y-127761684D01*
X157754721Y-127751186D01*
X157743872Y-127740344D01*
X157733295Y-127729157D01*
X157733295Y-127729157D01*
G37*
G36*
X159257406Y-127894521D02*
X159257406Y-125950122D01*
X159596403Y-125950122D01*
X159596403Y-127894521D01*
X159257406Y-127894521D01*
X159257406Y-127894521D01*
G37*
G36*
X159902327Y-126486175D02*
X160261995Y-126486175D01*
X160577566Y-127468704D01*
X160887625Y-126486175D01*
X161245915Y-126486175D01*
X160709858Y-127928971D01*
X160702042Y-127949925D01*
X160694180Y-127970400D01*
X160686272Y-127990397D01*
X160678319Y-128009916D01*
X160670319Y-128028956D01*
X160662274Y-128047518D01*
X160654182Y-128065601D01*
X160646045Y-128083206D01*
X160637862Y-128100333D01*
X160629633Y-128116981D01*
X160621359Y-128133150D01*
X160613038Y-128148842D01*
X160604671Y-128164054D01*
X160596259Y-128178789D01*
X160587801Y-128193044D01*
X160579296Y-128206822D01*
X160570746Y-128220121D01*
X160562150Y-128232941D01*
X160553509Y-128245283D01*
X160544821Y-128257147D01*
X160536087Y-128268532D01*
X160527308Y-128279438D01*
X160518483Y-128289867D01*
X160509611Y-128299816D01*
X160500694Y-128309288D01*
X160491731Y-128318281D01*
X160482722Y-128326795D01*
X160473668Y-128334831D01*
X160464567Y-128342388D01*
X160449838Y-128354000D01*
X160435050Y-128364948D01*
X160420202Y-128375232D01*
X160405294Y-128384853D01*
X160390327Y-128393811D01*
X160375301Y-128402105D01*
X160360215Y-128409735D01*
X160345069Y-128416702D01*
X160329864Y-128423005D01*
X160314599Y-128428645D01*
X160299275Y-128433621D01*
X160283891Y-128437934D01*
X160268448Y-128441584D01*
X160252945Y-128444569D01*
X160237382Y-128446892D01*
X160221760Y-128448551D01*
X160206079Y-128449546D01*
X160190337Y-128449878D01*
X160174201Y-128449649D01*
X160158015Y-128448964D01*
X160141780Y-128447822D01*
X160125496Y-128446224D01*
X160109164Y-128444169D01*
X160092782Y-128441657D01*
X160076352Y-128438689D01*
X160059872Y-128435264D01*
X160043344Y-128431382D01*
X160026767Y-128427044D01*
X160010141Y-128422249D01*
X159993466Y-128416997D01*
X159976742Y-128411288D01*
X159976742Y-128128784D01*
X159992975Y-128135329D01*
X160009153Y-128141186D01*
X160025276Y-128146353D01*
X160041344Y-128150832D01*
X160057357Y-128154621D01*
X160073314Y-128157722D01*
X160089217Y-128160133D01*
X160105064Y-128161856D01*
X160120857Y-128162889D01*
X160136594Y-128163234D01*
X160146643Y-128162827D01*
X160156643Y-128161608D01*
X160166594Y-128159577D01*
X160176496Y-128156732D01*
X160186349Y-128153075D01*
X160196153Y-128148605D01*
X160205907Y-128143322D01*
X160215612Y-128137227D01*
X160225268Y-128130318D01*
X160234875Y-128122597D01*
X160244433Y-128114064D01*
X160253942Y-128104717D01*
X160263401Y-128094558D01*
X160272812Y-128083586D01*
X160282173Y-128071802D01*
X160291485Y-128059205D01*
X160300748Y-128045795D01*
X160309961Y-128031572D01*
X160319126Y-128016536D01*
X160328241Y-128000688D01*
X160337307Y-127984027D01*
X160346324Y-127966554D01*
X160355292Y-127948267D01*
X160364211Y-127929168D01*
X160373081Y-127909256D01*
X160381901Y-127888532D01*
X160390672Y-127866994D01*
X160399394Y-127844644D01*
X160408067Y-127821482D01*
X159902327Y-126486175D01*
X159902327Y-126486175D01*
G37*
G36*
X161441596Y-126903714D02*
X161441877Y-126885448D01*
X161442721Y-126867557D01*
X161444128Y-126850042D01*
X161446097Y-126832901D01*
X161448630Y-126816136D01*
X161451724Y-126799746D01*
X161455382Y-126783731D01*
X161459602Y-126768091D01*
X161464385Y-126752826D01*
X161469730Y-126737936D01*
X161475638Y-126723421D01*
X161482109Y-126709281D01*
X161489142Y-126695516D01*
X161496738Y-126682127D01*
X161504897Y-126669112D01*
X161513619Y-126656473D01*
X161522903Y-126644209D01*
X161532750Y-126632319D01*
X161543159Y-126620805D01*
X161554132Y-126609666D01*
X161565666Y-126598902D01*
X161577764Y-126588513D01*
X161590424Y-126578500D01*
X161603068Y-126569167D01*
X161615966Y-126560231D01*
X161629117Y-126551693D01*
X161642522Y-126543552D01*
X161656180Y-126535807D01*
X161670092Y-126528460D01*
X161684258Y-126521511D01*
X161698677Y-126514958D01*
X161713350Y-126508802D01*
X161728276Y-126503044D01*
X161743456Y-126497682D01*
X161758889Y-126492718D01*
X161774577Y-126488151D01*
X161790517Y-126483981D01*
X161806712Y-126480208D01*
X161823160Y-126476833D01*
X161839861Y-126473854D01*
X161856816Y-126471273D01*
X161874025Y-126469089D01*
X161891487Y-126467301D01*
X161909203Y-126465911D01*
X161927173Y-126464919D01*
X161945396Y-126464323D01*
X161963873Y-126464124D01*
X161981268Y-126464299D01*
X161998544Y-126464823D01*
X162015700Y-126465696D01*
X162032736Y-126466919D01*
X162049653Y-126468491D01*
X162066450Y-126470412D01*
X162083128Y-126472683D01*
X162099686Y-126475302D01*
X162116124Y-126478272D01*
X162132443Y-126481590D01*
X162148642Y-126485258D01*
X162164722Y-126489275D01*
X162180682Y-126493642D01*
X162196522Y-126498357D01*
X162212242Y-126503422D01*
X162227844Y-126508837D01*
X162243325Y-126514600D01*
X162258687Y-126520713D01*
X162273929Y-126527176D01*
X162289051Y-126533987D01*
X162304054Y-126541148D01*
X162318938Y-126548659D01*
X162333701Y-126556518D01*
X162348345Y-126564727D01*
X162348345Y-126822415D01*
X162333917Y-126815831D01*
X162319296Y-126809585D01*
X162304482Y-126803676D01*
X162289475Y-126798105D01*
X162274276Y-126792872D01*
X162258883Y-126787976D01*
X162243297Y-126783418D01*
X162227519Y-126779198D01*
X162211547Y-126775315D01*
X162195383Y-126771770D01*
X162179026Y-126768563D01*
X162162476Y-126765693D01*
X162145732Y-126763161D01*
X162128796Y-126760966D01*
X162111667Y-126759109D01*
X162094345Y-126757590D01*
X162076830Y-126756408D01*
X162059123Y-126755564D01*
X162041222Y-126755057D01*
X162023128Y-126754889D01*
X162000580Y-126755157D01*
X161979131Y-126755963D01*
X161958782Y-126757307D01*
X161939534Y-126759188D01*
X161921385Y-126761607D01*
X161904336Y-126764563D01*
X161888387Y-126768057D01*
X161873538Y-126772088D01*
X161859789Y-126776657D01*
X161847139Y-126781763D01*
X161835590Y-126787406D01*
X161825141Y-126793587D01*
X161815791Y-126800306D01*
X161807542Y-126807562D01*
X161800392Y-126815355D01*
X161794343Y-126823686D01*
X161789393Y-126832555D01*
X161785543Y-126841960D01*
X161782793Y-126851904D01*
X161781143Y-126862385D01*
X161780594Y-126873403D01*
X161781670Y-126887828D01*
X161784900Y-126901477D01*
X161790283Y-126914352D01*
X161797819Y-126926451D01*
X161807508Y-126937776D01*
X161819351Y-126948326D01*
X161833347Y-126958101D01*
X161849495Y-126967101D01*
X161862274Y-126973058D01*
X161875553Y-126978901D01*
X161889333Y-126984630D01*
X161903615Y-126990246D01*
X161918397Y-126995748D01*
X161933681Y-127001135D01*
X161949466Y-127006409D01*
X161965752Y-127011570D01*
X161982539Y-127016616D01*
X161999827Y-127021549D01*
X162017616Y-127026367D01*
X162034143Y-127030635D01*
X162050651Y-127035170D01*
X162067139Y-127039973D01*
X162083609Y-127045044D01*
X162100059Y-127050384D01*
X162116490Y-127055991D01*
X162132902Y-127061867D01*
X162149295Y-127068011D01*
X162165669Y-127074423D01*
X162182024Y-127081103D01*
X162198359Y-127088051D01*
X162214676Y-127095267D01*
X162228695Y-127101678D01*
X162242405Y-127108708D01*
X162255806Y-127116356D01*
X162268897Y-127124623D01*
X162281679Y-127133509D01*
X162294152Y-127143014D01*
X162306315Y-127153137D01*
X162318169Y-127163879D01*
X162329714Y-127175240D01*
X162340949Y-127187220D01*
X162351875Y-127199818D01*
X162362491Y-127213036D01*
X162372798Y-127226872D01*
X162382796Y-127241327D01*
X162390821Y-127253683D01*
X162398360Y-127266431D01*
X162405412Y-127279569D01*
X162411978Y-127293098D01*
X162418058Y-127307018D01*
X162423651Y-127321329D01*
X162428758Y-127336030D01*
X162433378Y-127351123D01*
X162437512Y-127366606D01*
X162441160Y-127382481D01*
X162444322Y-127398746D01*
X162446997Y-127415402D01*
X162449185Y-127432449D01*
X162450888Y-127449887D01*
X162452103Y-127467716D01*
X162452833Y-127485935D01*
X162453076Y-127504546D01*
X162452748Y-127521338D01*
X162451764Y-127537856D01*
X162450123Y-127554098D01*
X162447827Y-127570066D01*
X162444874Y-127585758D01*
X162441264Y-127601176D01*
X162436999Y-127616319D01*
X162432078Y-127631186D01*
X162426500Y-127645779D01*
X162420266Y-127660097D01*
X162413376Y-127674140D01*
X162405829Y-127687908D01*
X162397627Y-127701401D01*
X162388768Y-127714620D01*
X162379253Y-127727563D01*
X162369081Y-127740231D01*
X162358254Y-127752625D01*
X162346770Y-127764743D01*
X162334631Y-127776587D01*
X162321834Y-127788156D01*
X162308382Y-127799449D01*
X162296277Y-127809006D01*
X162283845Y-127818156D01*
X162271089Y-127826900D01*
X162258007Y-127835237D01*
X162244600Y-127843167D01*
X162230868Y-127850690D01*
X162216810Y-127857807D01*
X162202426Y-127864517D01*
X162187718Y-127870821D01*
X162172684Y-127876718D01*
X162157324Y-127882208D01*
X162141640Y-127887291D01*
X162125629Y-127891968D01*
X162109294Y-127896238D01*
X162092633Y-127900101D01*
X162075647Y-127903558D01*
X162058335Y-127906608D01*
X162040698Y-127909251D01*
X162022736Y-127911488D01*
X162004448Y-127913318D01*
X161985835Y-127914742D01*
X161966897Y-127915758D01*
X161947633Y-127916368D01*
X161928044Y-127916572D01*
X161910769Y-127916424D01*
X161893593Y-127915981D01*
X161876515Y-127915243D01*
X161859536Y-127914209D01*
X161842655Y-127912881D01*
X161825872Y-127911257D01*
X161809188Y-127909337D01*
X161792602Y-127907123D01*
X161776115Y-127904613D01*
X161759726Y-127901808D01*
X161743436Y-127898707D01*
X161727244Y-127895312D01*
X161711150Y-127891621D01*
X161695155Y-127887634D01*
X161679259Y-127883353D01*
X161663460Y-127878776D01*
X161647761Y-127873904D01*
X161632159Y-127868737D01*
X161616656Y-127863274D01*
X161601252Y-127857516D01*
X161585946Y-127851463D01*
X161570738Y-127845114D01*
X161555629Y-127838471D01*
X161540618Y-127831532D01*
X161525706Y-127824297D01*
X161510892Y-127816768D01*
X161496176Y-127808943D01*
X161481559Y-127800823D01*
X161481559Y-127499033D01*
X161496484Y-127508757D01*
X161511492Y-127518084D01*
X161526585Y-127527014D01*
X161541761Y-127535547D01*
X161557021Y-127543683D01*
X161572364Y-127551422D01*
X161587792Y-127558765D01*
X161603303Y-127565710D01*
X161618898Y-127572259D01*
X161634577Y-127578411D01*
X161650339Y-127584166D01*
X161666186Y-127589524D01*
X161682116Y-127594485D01*
X161698130Y-127599049D01*
X161714227Y-127603216D01*
X161730409Y-127606987D01*
X161746674Y-127610360D01*
X161763023Y-127613337D01*
X161779456Y-127615917D01*
X161795972Y-127618099D01*
X161812573Y-127619885D01*
X161829257Y-127621275D01*
X161846025Y-127622267D01*
X161862877Y-127622862D01*
X161879812Y-127623061D01*
X161903449Y-127622831D01*
X161925670Y-127622142D01*
X161946475Y-127620993D01*
X161965863Y-127619385D01*
X161983835Y-127617318D01*
X162000391Y-127614791D01*
X162015530Y-127611805D01*
X162029253Y-127608360D01*
X162041560Y-127604455D01*
X162052450Y-127600091D01*
X162061924Y-127595267D01*
X162069982Y-127589984D01*
X162080317Y-127580855D01*
X162089274Y-127570692D01*
X162096853Y-127559495D01*
X162103054Y-127547265D01*
X162107878Y-127534001D01*
X162111323Y-127519704D01*
X162113390Y-127504373D01*
X162114079Y-127488008D01*
X162113211Y-127474533D01*
X162110608Y-127461671D01*
X162106270Y-127449421D01*
X162100196Y-127437783D01*
X162092387Y-127426757D01*
X162082843Y-127416344D01*
X162071564Y-127406543D01*
X162058549Y-127397355D01*
X162043799Y-127388778D01*
X162031021Y-127381857D01*
X162017741Y-127375117D01*
X162003961Y-127368559D01*
X161989680Y-127362183D01*
X161974897Y-127355989D01*
X161959613Y-127349976D01*
X161943828Y-127344146D01*
X161927543Y-127338498D01*
X161910755Y-127333031D01*
X161893467Y-127327747D01*
X161875678Y-127322644D01*
X161859362Y-127317754D01*
X161843026Y-127312731D01*
X161826672Y-127307573D01*
X161810298Y-127302280D01*
X161793905Y-127296854D01*
X161777493Y-127291294D01*
X161761062Y-127285600D01*
X161744611Y-127279772D01*
X161728142Y-127273809D01*
X161711653Y-127267713D01*
X161695146Y-127261483D01*
X161678619Y-127255118D01*
X161663729Y-127248888D01*
X161649166Y-127242071D01*
X161634929Y-127234666D01*
X161621018Y-127226675D01*
X161607434Y-127218097D01*
X161594175Y-127208932D01*
X161581243Y-127199181D01*
X161568637Y-127188842D01*
X161556356Y-127177916D01*
X161544403Y-127166403D01*
X161532775Y-127154304D01*
X161521473Y-127141617D01*
X161510498Y-127128344D01*
X161501617Y-127116198D01*
X161493349Y-127103648D01*
X161485693Y-127090694D01*
X161478650Y-127077335D01*
X161472219Y-127063573D01*
X161466401Y-127049406D01*
X161461195Y-127034835D01*
X161456601Y-127019859D01*
X161452620Y-127004480D01*
X161449252Y-126988696D01*
X161446496Y-126972508D01*
X161444352Y-126955916D01*
X161442821Y-126938919D01*
X161441902Y-126921519D01*
X161441596Y-126903714D01*
X161441596Y-126903714D01*
G37*
G36*
X162666672Y-126776939D02*
X162666672Y-126486175D01*
X162903695Y-126486175D01*
X162903695Y-126068618D01*
X163242692Y-126068618D01*
X163242692Y-126486175D01*
X163576177Y-126486175D01*
X163576177Y-126776939D01*
X163242692Y-126776939D01*
X163242692Y-127471470D01*
X163243273Y-127493281D01*
X163245017Y-127513241D01*
X163247924Y-127531348D01*
X163251994Y-127547604D01*
X163257226Y-127562007D01*
X163263621Y-127574558D01*
X163271179Y-127585257D01*
X163279899Y-127594105D01*
X163289188Y-127600758D01*
X163299906Y-127606629D01*
X163312053Y-127611717D01*
X163325630Y-127616023D01*
X163340635Y-127619545D01*
X163357069Y-127622285D01*
X163374933Y-127624242D01*
X163394225Y-127625416D01*
X163414947Y-127625807D01*
X163432930Y-127625504D01*
X163450500Y-127624595D01*
X163467657Y-127623080D01*
X163484400Y-127620958D01*
X163500730Y-127618230D01*
X163516646Y-127614896D01*
X163532149Y-127610955D01*
X163547239Y-127606409D01*
X163561915Y-127601256D01*
X163576177Y-127595497D01*
X163576177Y-127875235D01*
X163560807Y-127881350D01*
X163545224Y-127886976D01*
X163529430Y-127892112D01*
X163513424Y-127896760D01*
X163497205Y-127900918D01*
X163480775Y-127904587D01*
X163464132Y-127907766D01*
X163447278Y-127910457D01*
X163430211Y-127912658D01*
X163412933Y-127914370D01*
X163395442Y-127915593D01*
X163377740Y-127916327D01*
X163359825Y-127916572D01*
X163352935Y-127916572D01*
X163334078Y-127916315D01*
X163315592Y-127915547D01*
X163297475Y-127914265D01*
X163279729Y-127912472D01*
X163262352Y-127910165D01*
X163245346Y-127907346D01*
X163228710Y-127904015D01*
X163212444Y-127900171D01*
X163196548Y-127895815D01*
X163181022Y-127890946D01*
X163165867Y-127885565D01*
X163151081Y-127879671D01*
X163136666Y-127873265D01*
X163122621Y-127866346D01*
X163108946Y-127858914D01*
X163095641Y-127850970D01*
X163082706Y-127842514D01*
X163070141Y-127833545D01*
X163057947Y-127824064D01*
X163046123Y-127814070D01*
X163034668Y-127803563D01*
X163023584Y-127792544D01*
X163013386Y-127781584D01*
X163003640Y-127770269D01*
X162994348Y-127758600D01*
X162985510Y-127746576D01*
X162977124Y-127734198D01*
X162969192Y-127721465D01*
X162961713Y-127708378D01*
X162954687Y-127694937D01*
X162948115Y-127681142D01*
X162941996Y-127666992D01*
X162936330Y-127652487D01*
X162931118Y-127637628D01*
X162926358Y-127622415D01*
X162922052Y-127606848D01*
X162918199Y-127590926D01*
X162914800Y-127574649D01*
X162911854Y-127558019D01*
X162909361Y-127541033D01*
X162907321Y-127523694D01*
X162905735Y-127506000D01*
X162904601Y-127487952D01*
X162903921Y-127469549D01*
X162903695Y-127450792D01*
X162903695Y-126776939D01*
X162666672Y-126776939D01*
X162666672Y-126776939D01*
X162666672Y-126776939D01*
G37*
G36*
X163843517Y-127434254D02*
X164178379Y-127391544D01*
X164178718Y-127407399D01*
X164179736Y-127422677D01*
X164181432Y-127437379D01*
X164183807Y-127451504D01*
X164186860Y-127465053D01*
X164190592Y-127478025D01*
X164195002Y-127490421D01*
X164200090Y-127502240D01*
X164205857Y-127513482D01*
X164212303Y-127524148D01*
X164219427Y-127534238D01*
X164227229Y-127543751D01*
X164235710Y-127552687D01*
X164244869Y-127561047D01*
X164254707Y-127568830D01*
X164265224Y-127576037D01*
X164276418Y-127582667D01*
X164288292Y-127588721D01*
X164300843Y-127594198D01*
X164314074Y-127599098D01*
X164327982Y-127603423D01*
X164342570Y-127607170D01*
X164357835Y-127610341D01*
X164373779Y-127612935D01*
X164390402Y-127614953D01*
X164407703Y-127616395D01*
X164425682Y-127617259D01*
X164444340Y-127617548D01*
X164447097Y-127617548D01*
X164465531Y-127617255D01*
X164483270Y-127616376D01*
X164500313Y-127614911D01*
X164516660Y-127612860D01*
X164532312Y-127610223D01*
X164547268Y-127606999D01*
X164561529Y-127603190D01*
X164575094Y-127598795D01*
X164587963Y-127593814D01*
X164600137Y-127588247D01*
X164611615Y-127582094D01*
X164622397Y-127575354D01*
X164632484Y-127568029D01*
X164641875Y-127560118D01*
X164650570Y-127551620D01*
X164658570Y-127542537D01*
X164665874Y-127532868D01*
X164672483Y-127522612D01*
X164678396Y-127511771D01*
X164683613Y-127500344D01*
X164688135Y-127488330D01*
X164691961Y-127475731D01*
X164695091Y-127462545D01*
X164697526Y-127448774D01*
X164699265Y-127434416D01*
X164700308Y-127419473D01*
X164700656Y-127403943D01*
X164700656Y-127226181D01*
X164681143Y-127223527D01*
X164662109Y-127221085D01*
X164643554Y-127218855D01*
X164625476Y-127216836D01*
X164607878Y-127215029D01*
X164590757Y-127213434D01*
X164574116Y-127212050D01*
X164557953Y-127210878D01*
X164542268Y-127209918D01*
X164527061Y-127209169D01*
X164512334Y-127208632D01*
X164498084Y-127208307D01*
X164476508Y-127208525D01*
X164455685Y-127209178D01*
X164435616Y-127210268D01*
X164416300Y-127211794D01*
X164397738Y-127213755D01*
X164379930Y-127216152D01*
X164362876Y-127218985D01*
X164346576Y-127222254D01*
X164331029Y-127225959D01*
X164316236Y-127230099D01*
X164302197Y-127234676D01*
X164288911Y-127239688D01*
X164276379Y-127245136D01*
X164264601Y-127251020D01*
X164253577Y-127257340D01*
X164243306Y-127264096D01*
X164233789Y-127271287D01*
X164225026Y-127278915D01*
X164217017Y-127286978D01*
X164209761Y-127295477D01*
X164203260Y-127304412D01*
X164197511Y-127313783D01*
X164192517Y-127323589D01*
X164188276Y-127333832D01*
X164184790Y-127344510D01*
X164182056Y-127355624D01*
X164180077Y-127367174D01*
X164178851Y-127379160D01*
X164178380Y-127391582D01*
X164178379Y-127391544D01*
X163843517Y-127434254D01*
X163843848Y-127417114D01*
X163844840Y-127399863D01*
X163846493Y-127382501D01*
X163848808Y-127365027D01*
X163851784Y-127347442D01*
X163854681Y-127333999D01*
X163858646Y-127319656D01*
X163863681Y-127304413D01*
X163869783Y-127288270D01*
X163876955Y-127271227D01*
X163885195Y-127253284D01*
X163894503Y-127234441D01*
X163902771Y-127219639D01*
X163911652Y-127205246D01*
X163921145Y-127191261D01*
X163931251Y-127177684D01*
X163941969Y-127164516D01*
X163953299Y-127151756D01*
X163965242Y-127139404D01*
X163977798Y-127127461D01*
X163990966Y-127115926D01*
X164001473Y-127107533D01*
X164012785Y-127099351D01*
X164024900Y-127091380D01*
X164037819Y-127083619D01*
X164051542Y-127076069D01*
X164066069Y-127068729D01*
X164081400Y-127061600D01*
X164097534Y-127054682D01*
X164114473Y-127047974D01*
X164132215Y-127041477D01*
X164150761Y-127035190D01*
X164170111Y-127029114D01*
X164184201Y-127024867D01*
X164198587Y-127020877D01*
X164213269Y-127017145D01*
X164228246Y-127013669D01*
X164243519Y-127010452D01*
X164259087Y-127007491D01*
X164274951Y-127004788D01*
X164291111Y-127002343D01*
X164307567Y-127000155D01*
X164324318Y-126998224D01*
X164341364Y-126996551D01*
X164358707Y-126995135D01*
X164376345Y-126993977D01*
X164394278Y-126993076D01*
X164412507Y-126992432D01*
X164431032Y-126992046D01*
X164449853Y-126991918D01*
X164465360Y-126992003D01*
X164481015Y-126992260D01*
X164496816Y-126992689D01*
X164512765Y-126993289D01*
X164528860Y-126994060D01*
X164545103Y-126995003D01*
X164561492Y-126996117D01*
X164578029Y-126997403D01*
X164594712Y-126998860D01*
X164611542Y-127000489D01*
X164628520Y-127002289D01*
X164645644Y-127004260D01*
X164662916Y-127006403D01*
X164680334Y-127008717D01*
X164697899Y-127011203D01*
X164697625Y-126995328D01*
X164696801Y-126979941D01*
X164695428Y-126965043D01*
X164693506Y-126950634D01*
X164691035Y-126936713D01*
X164688014Y-126923280D01*
X164684444Y-126910336D01*
X164680325Y-126897880D01*
X164675657Y-126885913D01*
X164670440Y-126874434D01*
X164664673Y-126863444D01*
X164658358Y-126852942D01*
X164651493Y-126842928D01*
X164644079Y-126833403D01*
X164636116Y-126824367D01*
X164627603Y-126815819D01*
X164618541Y-126807759D01*
X164608931Y-126800188D01*
X164598771Y-126793106D01*
X164588061Y-126786511D01*
X164576803Y-126780406D01*
X164564995Y-126774788D01*
X164552639Y-126769660D01*
X164539733Y-126765019D01*
X164526277Y-126760867D01*
X164512273Y-126757204D01*
X164497720Y-126754029D01*
X164482617Y-126751342D01*
X164466965Y-126749144D01*
X164450764Y-126747435D01*
X164434013Y-126746213D01*
X164416714Y-126745481D01*
X164398865Y-126745237D01*
X164380003Y-126745351D01*
X164361339Y-126745695D01*
X164342873Y-126746269D01*
X164324606Y-126747071D01*
X164306537Y-126748103D01*
X164288666Y-126749364D01*
X164270994Y-126750855D01*
X164253521Y-126752575D01*
X164236246Y-126754524D01*
X164219169Y-126756703D01*
X164202291Y-126759111D01*
X164185611Y-126761748D01*
X164169130Y-126764615D01*
X164152847Y-126767711D01*
X164136762Y-126771036D01*
X164120876Y-126774591D01*
X164105189Y-126778375D01*
X164089700Y-126782388D01*
X164074409Y-126786631D01*
X164059317Y-126791103D01*
X164044423Y-126795804D01*
X164029727Y-126800734D01*
X164015230Y-126805894D01*
X164000932Y-126811284D01*
X163986832Y-126816902D01*
X163986832Y-126542676D01*
X164001841Y-126536750D01*
X164016977Y-126531056D01*
X164032240Y-126525595D01*
X164047628Y-126520366D01*
X164063144Y-126515369D01*
X164078785Y-126510605D01*
X164094553Y-126506073D01*
X164110447Y-126501773D01*
X164126468Y-126497706D01*
X164142615Y-126493872D01*
X164158889Y-126490270D01*
X164175289Y-126486900D01*
X164191815Y-126483762D01*
X164208468Y-126480857D01*
X164225247Y-126478185D01*
X164242152Y-126475744D01*
X164259184Y-126473537D01*
X164276342Y-126471561D01*
X164293627Y-126469818D01*
X164311038Y-126468308D01*
X164328575Y-126467029D01*
X164346239Y-126465984D01*
X164364029Y-126465170D01*
X164381946Y-126464589D01*
X164399988Y-126464241D01*
X164418158Y-126464124D01*
X164438119Y-126464296D01*
X164457766Y-126464810D01*
X164477096Y-126465668D01*
X164496112Y-126466868D01*
X164514812Y-126468412D01*
X164533196Y-126470298D01*
X164551266Y-126472527D01*
X164569019Y-126475100D01*
X164586458Y-126478015D01*
X164603580Y-126481273D01*
X164620388Y-126484874D01*
X164636880Y-126488818D01*
X164653057Y-126493106D01*
X164668918Y-126497736D01*
X164684464Y-126502709D01*
X164699694Y-126508025D01*
X164714609Y-126513684D01*
X164729209Y-126519686D01*
X164743493Y-126526031D01*
X164757461Y-126532719D01*
X164771115Y-126539750D01*
X164784453Y-126547124D01*
X164797475Y-126554841D01*
X164810182Y-126562901D01*
X164822574Y-126571303D01*
X164834650Y-126580049D01*
X164846411Y-126589138D01*
X164857856Y-126598570D01*
X164868986Y-126608345D01*
X164879801Y-126618462D01*
X164890280Y-126628813D01*
X164900404Y-126639470D01*
X164910173Y-126650433D01*
X164919586Y-126661703D01*
X164928644Y-126673278D01*
X164937347Y-126685160D01*
X164945695Y-126697348D01*
X164953688Y-126709842D01*
X164961325Y-126722643D01*
X164968608Y-126735750D01*
X164975534Y-126749163D01*
X164982106Y-126762882D01*
X164988323Y-126776907D01*
X164994184Y-126791239D01*
X164999690Y-126805877D01*
X165004841Y-126820821D01*
X165009636Y-126836071D01*
X165014077Y-126851628D01*
X165018162Y-126867490D01*
X165021892Y-126883659D01*
X165025266Y-126900134D01*
X165028286Y-126916916D01*
X165030950Y-126934003D01*
X165033259Y-126951397D01*
X165035213Y-126969097D01*
X165036811Y-126987104D01*
X165038055Y-127005416D01*
X165038943Y-127024035D01*
X165039475Y-127042960D01*
X165039653Y-127062191D01*
X165039653Y-127442532D01*
X165039377Y-127459326D01*
X165038549Y-127475917D01*
X165037168Y-127492305D01*
X165035235Y-127508490D01*
X165032750Y-127524471D01*
X165029712Y-127540250D01*
X165026123Y-127555825D01*
X165021981Y-127571197D01*
X165017287Y-127586366D01*
X165012040Y-127601332D01*
X165006241Y-127616094D01*
X164999891Y-127630653D01*
X164992987Y-127645010D01*
X164985532Y-127659163D01*
X164977524Y-127673113D01*
X164968964Y-127686859D01*
X164959852Y-127700403D01*
X164950187Y-127713744D01*
X164939971Y-127726881D01*
X164929202Y-127739815D01*
X164917880Y-127752546D01*
X164906007Y-127765074D01*
X164893581Y-127777398D01*
X164883415Y-127786831D01*
X164872876Y-127795933D01*
X164861963Y-127804704D01*
X164850677Y-127813143D01*
X164839016Y-127821252D01*
X164826983Y-127829030D01*
X164814576Y-127836477D01*
X164801795Y-127843593D01*
X164788640Y-127850377D01*
X164775112Y-127856831D01*
X164761211Y-127862954D01*
X164746935Y-127868746D01*
X164732286Y-127874207D01*
X164717264Y-127879337D01*
X164701868Y-127884136D01*
X164686098Y-127888605D01*
X164669955Y-127892742D01*
X164653438Y-127896548D01*
X164636548Y-127900023D01*
X164619284Y-127903167D01*
X164601647Y-127905981D01*
X164583635Y-127908463D01*
X164565251Y-127910614D01*
X164546492Y-127912434D01*
X164527360Y-127913924D01*
X164507855Y-127915082D01*
X164487976Y-127915910D01*
X164467723Y-127916406D01*
X164447096Y-127916572D01*
X164426607Y-127916415D01*
X164406478Y-127915947D01*
X164386711Y-127915166D01*
X164367305Y-127914073D01*
X164348261Y-127912667D01*
X164329577Y-127910949D01*
X164311256Y-127908919D01*
X164293295Y-127906576D01*
X164275696Y-127903921D01*
X164258458Y-127900953D01*
X164241582Y-127897673D01*
X164225067Y-127894081D01*
X164208913Y-127890177D01*
X164193121Y-127885960D01*
X164177690Y-127881430D01*
X164162620Y-127876589D01*
X164147912Y-127871434D01*
X164133565Y-127865968D01*
X164119580Y-127860189D01*
X164105956Y-127854098D01*
X164092693Y-127847695D01*
X164079791Y-127840979D01*
X164067251Y-127833950D01*
X164055072Y-127826610D01*
X164043255Y-127818957D01*
X164031799Y-127810991D01*
X164020704Y-127802714D01*
X164009971Y-127794123D01*
X163999599Y-127785221D01*
X163989588Y-127776006D01*
X163977162Y-127763670D01*
X163965289Y-127751105D01*
X163953967Y-127738310D01*
X163943198Y-127725286D01*
X163932982Y-127712032D01*
X163923317Y-127698549D01*
X163914205Y-127684837D01*
X163905645Y-127670896D01*
X163897637Y-127656725D01*
X163890182Y-127642325D01*
X163883278Y-127627695D01*
X163876927Y-127612837D01*
X163871129Y-127597749D01*
X163865882Y-127582431D01*
X163861188Y-127566884D01*
X163857046Y-127551108D01*
X163853457Y-127535103D01*
X163850419Y-127518868D01*
X163847934Y-127502404D01*
X163846001Y-127485710D01*
X163844620Y-127468787D01*
X163843792Y-127451635D01*
X163843516Y-127434254D01*
X163843517Y-127434254D01*
X163843517Y-127434254D01*
G37*
G36*
X165337310Y-127191731D02*
X165337451Y-127171707D01*
X165337873Y-127151953D01*
X165338576Y-127132470D01*
X165339560Y-127113256D01*
X165340826Y-127094312D01*
X165342372Y-127075638D01*
X165344200Y-127057234D01*
X165346310Y-127039100D01*
X165348700Y-127021237D01*
X165351372Y-127003643D01*
X165354325Y-126986319D01*
X165357559Y-126969265D01*
X165361074Y-126952481D01*
X165364871Y-126935967D01*
X165368949Y-126919723D01*
X165373308Y-126903749D01*
X165377948Y-126888045D01*
X165382870Y-126872611D01*
X165388073Y-126857447D01*
X165393557Y-126842553D01*
X165399322Y-126827928D01*
X165405368Y-126813574D01*
X165411696Y-126799490D01*
X165418305Y-126785676D01*
X165425195Y-126772132D01*
X165432367Y-126758858D01*
X165439819Y-126745853D01*
X165447553Y-126733119D01*
X165455568Y-126720655D01*
X165463865Y-126708460D01*
X165472442Y-126696536D01*
X165481301Y-126684882D01*
X165490441Y-126673497D01*
X165499862Y-126662383D01*
X165509565Y-126651539D01*
X165520141Y-126640352D01*
X165530991Y-126629510D01*
X165542114Y-126619012D01*
X165553510Y-126608859D01*
X165565180Y-126599049D01*
X165577123Y-126589584D01*
X165589339Y-126580462D01*
X165601829Y-126571685D01*
X165614592Y-126563253D01*
X165627628Y-126555164D01*
X165640938Y-126547420D01*
X165654521Y-126540019D01*
X165668377Y-126532963D01*
X165682507Y-126526252D01*
X165696910Y-126519884D01*
X165711586Y-126513861D01*
X165726536Y-126508181D01*
X165741759Y-126502846D01*
X165757255Y-126497856D01*
X165773025Y-126493209D01*
X165789067Y-126488906D01*
X165805384Y-126484948D01*
X165821973Y-126481334D01*
X165838836Y-126478064D01*
X165855973Y-126475139D01*
X165873382Y-126472557D01*
X165891065Y-126470320D01*
X165909021Y-126468427D01*
X165927251Y-126466878D01*
X165945754Y-126465673D01*
X165964530Y-126464813D01*
X165983580Y-126464296D01*
X166002903Y-126464124D01*
X166020116Y-126464261D01*
X166037306Y-126464670D01*
X166054471Y-126465352D01*
X166071613Y-126466306D01*
X166088731Y-126467534D01*
X166105825Y-126469034D01*
X166122895Y-126470807D01*
X166139941Y-126472852D01*
X166156963Y-126475171D01*
X166173961Y-126477762D01*
X166190935Y-126480626D01*
X166207886Y-126483762D01*
X166224812Y-126487172D01*
X166241715Y-126490854D01*
X166258593Y-126494809D01*
X166275448Y-126499036D01*
X166292279Y-126503537D01*
X166309086Y-126508310D01*
X166325868Y-126513356D01*
X166342627Y-126518674D01*
X166359362Y-126524266D01*
X166376073Y-126530130D01*
X166392761Y-126536267D01*
X166409424Y-126542676D01*
X166409424Y-126825162D01*
X166393506Y-126818884D01*
X166377513Y-126812912D01*
X166361446Y-126807247D01*
X166345303Y-126801887D01*
X166329085Y-126796834D01*
X166312793Y-126792088D01*
X166296425Y-126787647D01*
X166279982Y-126783513D01*
X166263464Y-126779685D01*
X166246872Y-126776163D01*
X166230204Y-126772948D01*
X166213461Y-126770038D01*
X166196644Y-126767435D01*
X166179751Y-126765138D01*
X166162783Y-126763148D01*
X166145741Y-126761464D01*
X166128623Y-126760085D01*
X166111430Y-126759014D01*
X166094162Y-126758248D01*
X166076820Y-126757789D01*
X166059402Y-126757635D01*
X166039224Y-126757884D01*
X166019596Y-126758628D01*
X166000517Y-126759869D01*
X165981988Y-126761606D01*
X165964008Y-126763839D01*
X165946579Y-126766568D01*
X165929699Y-126769794D01*
X165913368Y-126773516D01*
X165897588Y-126777735D01*
X165882357Y-126782449D01*
X165867675Y-126787660D01*
X165853544Y-126793367D01*
X165839962Y-126799571D01*
X165826930Y-126806270D01*
X165814447Y-126813466D01*
X165802514Y-126821158D01*
X165791131Y-126829347D01*
X165780298Y-126838032D01*
X165770014Y-126847213D01*
X165761689Y-126855579D01*
X165753751Y-126864639D01*
X165746200Y-126874394D01*
X165739037Y-126884844D01*
X165732260Y-126895989D01*
X165725871Y-126907828D01*
X165719870Y-126920362D01*
X165714255Y-126933591D01*
X165709027Y-126947514D01*
X165704187Y-126962132D01*
X165699734Y-126977444D01*
X165695669Y-126993452D01*
X165691990Y-127010153D01*
X165688699Y-127027550D01*
X165685794Y-127045641D01*
X165683278Y-127064427D01*
X165681148Y-127083908D01*
X165679405Y-127104083D01*
X165678050Y-127124953D01*
X165677082Y-127146518D01*
X165676501Y-127168777D01*
X165676308Y-127191731D01*
X165676501Y-127214445D01*
X165677082Y-127236487D01*
X165678050Y-127257857D01*
X165679405Y-127278555D01*
X165681148Y-127298582D01*
X165683278Y-127317936D01*
X165685794Y-127336619D01*
X165688699Y-127354629D01*
X165691990Y-127371968D01*
X165695669Y-127388635D01*
X165699734Y-127404630D01*
X165704187Y-127419953D01*
X165709027Y-127434604D01*
X165714255Y-127448584D01*
X165719870Y-127461891D01*
X165725871Y-127474527D01*
X165732260Y-127486490D01*
X165739037Y-127497782D01*
X165746200Y-127508402D01*
X165753751Y-127518350D01*
X165761689Y-127527626D01*
X165770014Y-127536230D01*
X165780298Y-127545411D01*
X165791131Y-127554096D01*
X165802514Y-127562284D01*
X165814447Y-127569977D01*
X165826930Y-127577173D01*
X165839962Y-127583872D01*
X165853544Y-127590076D01*
X165867675Y-127595783D01*
X165882357Y-127600994D01*
X165897588Y-127605708D01*
X165913368Y-127609927D01*
X165929699Y-127613649D01*
X165946579Y-127616875D01*
X165964008Y-127619604D01*
X165981988Y-127621837D01*
X166000517Y-127623574D01*
X166019596Y-127624815D01*
X166039224Y-127625559D01*
X166059402Y-127625807D01*
X166076070Y-127625648D01*
X166092738Y-127625170D01*
X166109405Y-127624373D01*
X166126073Y-127623258D01*
X166142741Y-127621824D01*
X166159408Y-127620071D01*
X166176076Y-127617999D01*
X166192744Y-127615609D01*
X166209411Y-127612900D01*
X166226079Y-127609872D01*
X166242747Y-127606526D01*
X166259415Y-127602861D01*
X166276082Y-127598877D01*
X166292750Y-127594575D01*
X166309418Y-127589954D01*
X166326085Y-127585014D01*
X166342753Y-127579755D01*
X166359421Y-127574178D01*
X166376089Y-127568282D01*
X166392756Y-127562067D01*
X166409424Y-127555534D01*
X166409424Y-127838020D01*
X166392761Y-127844429D01*
X166376073Y-127850566D01*
X166359362Y-127856430D01*
X166342627Y-127862022D01*
X166325868Y-127867340D01*
X166309086Y-127872386D01*
X166292279Y-127877159D01*
X166275448Y-127881660D01*
X166258593Y-127885887D01*
X166241715Y-127889842D01*
X166224812Y-127893524D01*
X166207886Y-127896934D01*
X166190935Y-127900070D01*
X166173961Y-127902934D01*
X166156963Y-127905525D01*
X166139941Y-127907844D01*
X166122895Y-127909889D01*
X166105825Y-127911662D01*
X166088731Y-127913162D01*
X166071613Y-127914390D01*
X166054471Y-127915344D01*
X166037306Y-127916026D01*
X166020116Y-127916435D01*
X166002903Y-127916572D01*
X165983580Y-127916400D01*
X165964530Y-127915883D01*
X165945754Y-127915023D01*
X165927251Y-127913818D01*
X165909021Y-127912269D01*
X165891065Y-127910376D01*
X165873382Y-127908139D01*
X165855973Y-127905557D01*
X165838836Y-127902632D01*
X165821973Y-127899362D01*
X165805384Y-127895748D01*
X165789067Y-127891790D01*
X165773025Y-127887487D01*
X165757255Y-127882840D01*
X165741759Y-127877850D01*
X165726536Y-127872515D01*
X165711586Y-127866835D01*
X165696910Y-127860812D01*
X165682507Y-127854444D01*
X165668377Y-127847733D01*
X165654521Y-127840677D01*
X165640938Y-127833276D01*
X165627628Y-127825532D01*
X165614592Y-127817443D01*
X165601829Y-127809011D01*
X165589339Y-127800234D01*
X165577123Y-127791112D01*
X165565180Y-127781647D01*
X165553510Y-127771837D01*
X165542114Y-127761684D01*
X165530991Y-127751186D01*
X165520141Y-127740344D01*
X165509565Y-127729157D01*
X165499862Y-127718315D01*
X165490441Y-127707208D01*
X165481301Y-127695834D01*
X165472442Y-127684196D01*
X165463865Y-127672292D01*
X165455568Y-127660123D01*
X165447553Y-127647688D01*
X165439819Y-127634987D01*
X165432367Y-127622021D01*
X165425195Y-127608790D01*
X165418305Y-127595293D01*
X165411696Y-127581531D01*
X165405368Y-127567503D01*
X165399322Y-127553210D01*
X165393557Y-127538651D01*
X165388073Y-127523827D01*
X165382870Y-127508738D01*
X165377948Y-127493383D01*
X165373308Y-127477762D01*
X165368949Y-127461876D01*
X165364871Y-127445725D01*
X165361074Y-127429308D01*
X165357559Y-127412626D01*
X165354325Y-127395678D01*
X165351372Y-127378464D01*
X165348700Y-127360986D01*
X165346310Y-127343241D01*
X165344200Y-127325232D01*
X165342372Y-127306957D01*
X165340826Y-127288416D01*
X165339560Y-127269610D01*
X165338576Y-127250538D01*
X165337873Y-127231201D01*
X165337451Y-127211599D01*
X165337310Y-127191731D01*
X165337310Y-127191731D01*
G37*
G36*
X166722239Y-127894521D02*
X166722239Y-125958382D01*
X167061236Y-125958382D01*
X167061236Y-127002943D01*
X167535281Y-126486175D01*
X167984522Y-126486175D01*
X167371295Y-127113179D01*
X168049289Y-127894521D01*
X167620719Y-127894521D01*
X167154943Y-127339183D01*
X167061236Y-127434254D01*
X167061236Y-127894521D01*
X166722239Y-127894521D01*
X166722239Y-127894521D01*
G37*
D11*
X143761905Y-125052381D02*
X143761905Y-124052381D01*
X144142858Y-124052381D01*
X144238096Y-124100000D01*
X144285715Y-124147619D01*
X144333334Y-124242857D01*
X144333334Y-124385714D01*
X144285715Y-124480952D01*
X144238096Y-124528571D01*
X144142858Y-124576190D01*
X143761905Y-124576190D01*
X145285715Y-125052381D02*
X144714286Y-125052381D01*
X145000000Y-125052381D02*
X145000000Y-124052381D01*
X144904762Y-124195238D01*
X144809524Y-124290476D01*
X144714286Y-124338095D01*
X171466667Y-106628571D02*
X171133333Y-106628571D01*
X171133333Y-107152381D02*
X171133333Y-106152381D01*
X171609524Y-106152381D01*
X171895238Y-106152381D02*
X172514286Y-106152381D01*
X172180952Y-106533333D01*
X172323810Y-106533333D01*
X172419048Y-106580952D01*
X172466667Y-106628571D01*
X172514286Y-106723810D01*
X172514286Y-106961905D01*
X172466667Y-107057143D01*
X172419048Y-107104762D01*
X172323810Y-107152381D01*
X172038095Y-107152381D01*
X171942857Y-107104762D01*
X171895238Y-107057143D01*
X133666667Y-99328571D02*
X133333333Y-99328571D01*
X133333333Y-99852381D02*
X133333333Y-98852381D01*
X133809524Y-98852381D01*
X134142857Y-98947619D02*
X134190476Y-98900000D01*
X134285714Y-98852381D01*
X134523810Y-98852381D01*
X134619048Y-98900000D01*
X134666667Y-98947619D01*
X134714286Y-99042857D01*
X134714286Y-99138095D01*
X134666667Y-99280952D01*
X134095238Y-99852381D01*
X134714286Y-99852381D01*
X131422381Y-115071905D02*
X132231905Y-115071905D01*
X132327143Y-115024286D01*
X132374762Y-114976667D01*
X132422381Y-114881429D01*
X132422381Y-114690952D01*
X132374762Y-114595714D01*
X132327143Y-114548095D01*
X132231905Y-114500476D01*
X131422381Y-114500476D01*
X132422381Y-113500476D02*
X132422381Y-114071905D01*
X132422381Y-113786191D02*
X131422381Y-113786191D01*
X131565238Y-113881429D01*
X131660476Y-113976667D01*
X131708095Y-114071905D01*
X145238095Y-105742381D02*
X145238095Y-106551905D01*
X145285714Y-106647143D01*
X145333333Y-106694762D01*
X145428571Y-106742381D01*
X145619048Y-106742381D01*
X145714286Y-106694762D01*
X145761905Y-106647143D01*
X145809524Y-106551905D01*
X145809524Y-105742381D01*
X146238095Y-105837619D02*
X146285714Y-105790000D01*
X146380952Y-105742381D01*
X146619048Y-105742381D01*
X146714286Y-105790000D01*
X146761905Y-105837619D01*
X146809524Y-105932857D01*
X146809524Y-106028095D01*
X146761905Y-106170952D01*
X146190476Y-106742381D01*
X146809524Y-106742381D01*
X148288095Y-116192381D02*
X148288095Y-117001905D01*
X148335714Y-117097143D01*
X148383333Y-117144762D01*
X148478571Y-117192381D01*
X148669048Y-117192381D01*
X148764286Y-117144762D01*
X148811905Y-117097143D01*
X148859524Y-117001905D01*
X148859524Y-116192381D01*
X149240476Y-116192381D02*
X149859524Y-116192381D01*
X149526190Y-116573333D01*
X149669048Y-116573333D01*
X149764286Y-116620952D01*
X149811905Y-116668571D01*
X149859524Y-116763810D01*
X149859524Y-117001905D01*
X149811905Y-117097143D01*
X149764286Y-117144762D01*
X149669048Y-117192381D01*
X149383333Y-117192381D01*
X149288095Y-117144762D01*
X149240476Y-117097143D01*
X171489317Y-100266813D02*
X172061737Y-100839233D01*
X172162752Y-100872905D01*
X172230095Y-100872905D01*
X172331110Y-100839233D01*
X172465798Y-100704545D01*
X172499470Y-100603530D01*
X172499470Y-100536187D01*
X172465798Y-100435172D01*
X171893378Y-99862752D01*
X172768843Y-99458690D02*
X173240248Y-99930095D01*
X172331110Y-99357676D02*
X172667828Y-100031111D01*
X173105561Y-99593378D01*
X165533187Y-121789317D02*
X164960767Y-122361737D01*
X164927095Y-122462752D01*
X164927095Y-122530095D01*
X164960767Y-122631110D01*
X165095455Y-122765798D01*
X165196470Y-122799470D01*
X165263813Y-122799470D01*
X165364828Y-122765798D01*
X165937248Y-122193378D01*
X166610683Y-122866813D02*
X166273965Y-122530095D01*
X165903577Y-122833141D01*
X165970920Y-122833141D01*
X166071935Y-122866812D01*
X166240294Y-123035172D01*
X166273966Y-123136187D01*
X166273966Y-123203530D01*
X166240294Y-123304546D01*
X166071935Y-123472905D01*
X165970920Y-123506576D01*
X165903577Y-123506576D01*
X165802561Y-123472905D01*
X165634202Y-123304545D01*
X165600530Y-123203530D01*
X165600530Y-123136187D01*
X131116667Y-118178571D02*
X130783333Y-118178571D01*
X130783333Y-118702381D02*
X130783333Y-117702381D01*
X131259524Y-117702381D01*
X132164286Y-118702381D02*
X131592857Y-118702381D01*
X131878571Y-118702381D02*
X131878571Y-117702381D01*
X131783333Y-117845238D01*
X131688095Y-117940476D01*
X131592857Y-117988095D01*
X157583334Y-108852381D02*
X157250000Y-108376190D01*
X157011905Y-108852381D02*
X157011905Y-107852381D01*
X157392858Y-107852381D01*
X157488096Y-107900000D01*
X157535715Y-107947619D01*
X157583334Y-108042857D01*
X157583334Y-108185714D01*
X157535715Y-108280952D01*
X157488096Y-108328571D01*
X157392858Y-108376190D01*
X157011905Y-108376190D01*
X158535715Y-108852381D02*
X157964286Y-108852381D01*
X158250000Y-108852381D02*
X158250000Y-107852381D01*
X158154762Y-107995238D01*
X158059524Y-108090476D01*
X157964286Y-108138095D01*
X159383334Y-108852381D02*
X159050000Y-108376190D01*
X158811905Y-108852381D02*
X158811905Y-107852381D01*
X159192858Y-107852381D01*
X159288096Y-107900000D01*
X159335715Y-107947619D01*
X159383334Y-108042857D01*
X159383334Y-108185714D01*
X159335715Y-108280952D01*
X159288096Y-108328571D01*
X159192858Y-108376190D01*
X158811905Y-108376190D01*
X159764286Y-107947619D02*
X159811905Y-107900000D01*
X159907143Y-107852381D01*
X160145239Y-107852381D01*
X160240477Y-107900000D01*
X160288096Y-107947619D01*
X160335715Y-108042857D01*
X160335715Y-108138095D01*
X160288096Y-108280952D01*
X159716667Y-108852381D01*
X160335715Y-108852381D01*
X142083334Y-115152381D02*
X141750000Y-114676190D01*
X141511905Y-115152381D02*
X141511905Y-114152381D01*
X141892858Y-114152381D01*
X141988096Y-114200000D01*
X142035715Y-114247619D01*
X142083334Y-114342857D01*
X142083334Y-114485714D01*
X142035715Y-114580952D01*
X141988096Y-114628571D01*
X141892858Y-114676190D01*
X141511905Y-114676190D01*
X142416667Y-114152381D02*
X143035715Y-114152381D01*
X142702381Y-114533333D01*
X142845239Y-114533333D01*
X142940477Y-114580952D01*
X142988096Y-114628571D01*
X143035715Y-114723810D01*
X143035715Y-114961905D01*
X142988096Y-115057143D01*
X142940477Y-115104762D01*
X142845239Y-115152381D01*
X142559524Y-115152381D01*
X142464286Y-115104762D01*
X142416667Y-115057143D01*
X142083334Y-117152381D02*
X141750000Y-116676190D01*
X141511905Y-117152381D02*
X141511905Y-116152381D01*
X141892858Y-116152381D01*
X141988096Y-116200000D01*
X142035715Y-116247619D01*
X142083334Y-116342857D01*
X142083334Y-116485714D01*
X142035715Y-116580952D01*
X141988096Y-116628571D01*
X141892858Y-116676190D01*
X141511905Y-116676190D01*
X142940477Y-116485714D02*
X142940477Y-117152381D01*
X142702381Y-116104762D02*
X142464286Y-116819048D01*
X143083334Y-116819048D01*
X142133334Y-113502381D02*
X141800000Y-113026190D01*
X141561905Y-113502381D02*
X141561905Y-112502381D01*
X141942858Y-112502381D01*
X142038096Y-112550000D01*
X142085715Y-112597619D01*
X142133334Y-112692857D01*
X142133334Y-112835714D01*
X142085715Y-112930952D01*
X142038096Y-112978571D01*
X141942858Y-113026190D01*
X141561905Y-113026190D01*
X143038096Y-112502381D02*
X142561905Y-112502381D01*
X142514286Y-112978571D01*
X142561905Y-112930952D01*
X142657143Y-112883333D01*
X142895239Y-112883333D01*
X142990477Y-112930952D01*
X143038096Y-112978571D01*
X143085715Y-113073810D01*
X143085715Y-113311905D01*
X143038096Y-113407143D01*
X142990477Y-113454762D01*
X142895239Y-113502381D01*
X142657143Y-113502381D01*
X142561905Y-113454762D01*
X142514286Y-113407143D01*
X133533334Y-120102381D02*
X133200000Y-119626190D01*
X132961905Y-120102381D02*
X132961905Y-119102381D01*
X133342858Y-119102381D01*
X133438096Y-119150000D01*
X133485715Y-119197619D01*
X133533334Y-119292857D01*
X133533334Y-119435714D01*
X133485715Y-119530952D01*
X133438096Y-119578571D01*
X133342858Y-119626190D01*
X132961905Y-119626190D01*
X134390477Y-119102381D02*
X134200000Y-119102381D01*
X134104762Y-119150000D01*
X134057143Y-119197619D01*
X133961905Y-119340476D01*
X133914286Y-119530952D01*
X133914286Y-119911905D01*
X133961905Y-120007143D01*
X134009524Y-120054762D01*
X134104762Y-120102381D01*
X134295239Y-120102381D01*
X134390477Y-120054762D01*
X134438096Y-120007143D01*
X134485715Y-119911905D01*
X134485715Y-119673810D01*
X134438096Y-119578571D01*
X134390477Y-119530952D01*
X134295239Y-119483333D01*
X134104762Y-119483333D01*
X134009524Y-119530952D01*
X133961905Y-119578571D01*
X133914286Y-119673810D01*
X150183334Y-94902381D02*
X149850000Y-94426190D01*
X149611905Y-94902381D02*
X149611905Y-93902381D01*
X149992858Y-93902381D01*
X150088096Y-93950000D01*
X150135715Y-93997619D01*
X150183334Y-94092857D01*
X150183334Y-94235714D01*
X150135715Y-94330952D01*
X150088096Y-94378571D01*
X149992858Y-94426190D01*
X149611905Y-94426190D01*
X150516667Y-93902381D02*
X151183334Y-93902381D01*
X150754762Y-94902381D01*
X137733334Y-107902381D02*
X137400000Y-107426190D01*
X137161905Y-107902381D02*
X137161905Y-106902381D01*
X137542858Y-106902381D01*
X137638096Y-106950000D01*
X137685715Y-106997619D01*
X137733334Y-107092857D01*
X137733334Y-107235714D01*
X137685715Y-107330952D01*
X137638096Y-107378571D01*
X137542858Y-107426190D01*
X137161905Y-107426190D01*
X138304762Y-107330952D02*
X138209524Y-107283333D01*
X138161905Y-107235714D01*
X138114286Y-107140476D01*
X138114286Y-107092857D01*
X138161905Y-106997619D01*
X138209524Y-106950000D01*
X138304762Y-106902381D01*
X138495239Y-106902381D01*
X138590477Y-106950000D01*
X138638096Y-106997619D01*
X138685715Y-107092857D01*
X138685715Y-107140476D01*
X138638096Y-107235714D01*
X138590477Y-107283333D01*
X138495239Y-107330952D01*
X138304762Y-107330952D01*
X138209524Y-107378571D01*
X138161905Y-107426190D01*
X138114286Y-107521429D01*
X138114286Y-107711905D01*
X138161905Y-107807143D01*
X138209524Y-107854762D01*
X138304762Y-107902381D01*
X138495239Y-107902381D01*
X138590477Y-107854762D01*
X138638096Y-107807143D01*
X138685715Y-107711905D01*
X138685715Y-107521429D01*
X138638096Y-107426190D01*
X138590477Y-107378571D01*
X138495239Y-107330952D01*
X170933334Y-91702381D02*
X170600000Y-91226190D01*
X170361905Y-91702381D02*
X170361905Y-90702381D01*
X170742858Y-90702381D01*
X170838096Y-90750000D01*
X170885715Y-90797619D01*
X170933334Y-90892857D01*
X170933334Y-91035714D01*
X170885715Y-91130952D01*
X170838096Y-91178571D01*
X170742858Y-91226190D01*
X170361905Y-91226190D01*
X171409524Y-91702381D02*
X171600000Y-91702381D01*
X171695239Y-91654762D01*
X171742858Y-91607143D01*
X171838096Y-91464286D01*
X171885715Y-91273810D01*
X171885715Y-90892857D01*
X171838096Y-90797619D01*
X171790477Y-90750000D01*
X171695239Y-90702381D01*
X171504762Y-90702381D01*
X171409524Y-90750000D01*
X171361905Y-90797619D01*
X171314286Y-90892857D01*
X171314286Y-91130952D01*
X171361905Y-91226190D01*
X171409524Y-91273810D01*
X171504762Y-91321429D01*
X171695239Y-91321429D01*
X171790477Y-91273810D01*
X171838096Y-91226190D01*
X171885715Y-91130952D01*
X172557143Y-124202381D02*
X172223809Y-123726190D01*
X171985714Y-124202381D02*
X171985714Y-123202381D01*
X172366667Y-123202381D01*
X172461905Y-123250000D01*
X172509524Y-123297619D01*
X172557143Y-123392857D01*
X172557143Y-123535714D01*
X172509524Y-123630952D01*
X172461905Y-123678571D01*
X172366667Y-123726190D01*
X171985714Y-123726190D01*
X173509524Y-124202381D02*
X172938095Y-124202381D01*
X173223809Y-124202381D02*
X173223809Y-123202381D01*
X173128571Y-123345238D01*
X173033333Y-123440476D01*
X172938095Y-123488095D01*
X174128571Y-123202381D02*
X174223810Y-123202381D01*
X174319048Y-123250000D01*
X174366667Y-123297619D01*
X174414286Y-123392857D01*
X174461905Y-123583333D01*
X174461905Y-123821429D01*
X174414286Y-124011905D01*
X174366667Y-124107143D01*
X174319048Y-124154762D01*
X174223810Y-124202381D01*
X174128571Y-124202381D01*
X174033333Y-124154762D01*
X173985714Y-124107143D01*
X173938095Y-124011905D01*
X173890476Y-123821429D01*
X173890476Y-123583333D01*
X173938095Y-123392857D01*
X173985714Y-123297619D01*
X174033333Y-123250000D01*
X174128571Y-123202381D01*
M02*
