G04 #@! TF.FileFunction,Legend,Bot*
%FSLAX46Y46*%
G04 Gerber Fmt 4.6, Leading zero omitted, Abs format (unit mm)*
G04 Created by KiCad (PCBNEW 4.0.1-stable) date Friday, March 04, 2016 'AMt' 01:01:00 AM*
%MOMM*%
G01*
G04 APERTURE LIST*
%ADD10C,0.100000*%
%ADD11C,0.150000*%
G04 APERTURE END LIST*
D10*
D11*
X158725000Y-99240000D02*
X160575000Y-99240000D01*
X158725000Y-116760000D02*
X160575000Y-116760000D01*
X159650000Y-115800000D02*
X159650000Y-100200000D01*
X172133333Y-106628571D02*
X172466667Y-106628571D01*
X172466667Y-107152381D02*
X172466667Y-106152381D01*
X171990476Y-106152381D01*
X171180952Y-106152381D02*
X171371429Y-106152381D01*
X171466667Y-106200000D01*
X171514286Y-106247619D01*
X171609524Y-106390476D01*
X171657143Y-106580952D01*
X171657143Y-106961905D01*
X171609524Y-107057143D01*
X171561905Y-107104762D01*
X171466667Y-107152381D01*
X171276190Y-107152381D01*
X171180952Y-107104762D01*
X171133333Y-107057143D01*
X171085714Y-106961905D01*
X171085714Y-106723810D01*
X171133333Y-106628571D01*
X171180952Y-106580952D01*
X171276190Y-106533333D01*
X171466667Y-106533333D01*
X171561905Y-106580952D01*
X171609524Y-106628571D01*
X171657143Y-106723810D01*
X134333333Y-99328571D02*
X134666667Y-99328571D01*
X134666667Y-99852381D02*
X134666667Y-98852381D01*
X134190476Y-98852381D01*
X133333333Y-98852381D02*
X133809524Y-98852381D01*
X133857143Y-99328571D01*
X133809524Y-99280952D01*
X133714286Y-99233333D01*
X133476190Y-99233333D01*
X133380952Y-99280952D01*
X133333333Y-99328571D01*
X133285714Y-99423810D01*
X133285714Y-99661905D01*
X133333333Y-99757143D01*
X133380952Y-99804762D01*
X133476190Y-99852381D01*
X133714286Y-99852381D01*
X133809524Y-99804762D01*
X133857143Y-99757143D01*
X132133333Y-116628571D02*
X132466667Y-116628571D01*
X132466667Y-117152381D02*
X132466667Y-116152381D01*
X131990476Y-116152381D01*
X131180952Y-116485714D02*
X131180952Y-117152381D01*
X131419048Y-116104762D02*
X131657143Y-116819048D01*
X131038095Y-116819048D01*
M02*
