G04 #@! TF.FileFunction,Legend,Top*
%FSLAX46Y46*%
G04 Gerber Fmt 4.6, Leading zero omitted, Abs format (unit mm)*
G04 Created by KiCad (PCBNEW 4.0.1-stable) date Friday, March 04, 2016 'AMt' 01:01:00 AM*
%MOMM*%
G01*
G04 APERTURE LIST*
%ADD10C,0.100000*%
%ADD11C,0.150000*%
%ADD12C,0.300000*%
%ADD13C,0.200000*%
%ADD14C,0.010000*%
G04 APERTURE END LIST*
D10*
D11*
X159942858Y-122485714D02*
X159942858Y-123152381D01*
X159704762Y-122104762D02*
X159466667Y-122819048D01*
X160085715Y-122819048D01*
X160609524Y-122580952D02*
X160514286Y-122533333D01*
X160466667Y-122485714D01*
X160419048Y-122390476D01*
X160419048Y-122342857D01*
X160466667Y-122247619D01*
X160514286Y-122200000D01*
X160609524Y-122152381D01*
X160800001Y-122152381D01*
X160895239Y-122200000D01*
X160942858Y-122247619D01*
X160990477Y-122342857D01*
X160990477Y-122390476D01*
X160942858Y-122485714D01*
X160895239Y-122533333D01*
X160800001Y-122580952D01*
X160609524Y-122580952D01*
X160514286Y-122628571D01*
X160466667Y-122676190D01*
X160419048Y-122771429D01*
X160419048Y-122961905D01*
X160466667Y-123057143D01*
X160514286Y-123104762D01*
X160609524Y-123152381D01*
X160800001Y-123152381D01*
X160895239Y-123104762D01*
X160942858Y-123057143D01*
X160990477Y-122961905D01*
X160990477Y-122771429D01*
X160942858Y-122676190D01*
X160895239Y-122628571D01*
X160800001Y-122580952D01*
X161419048Y-122771429D02*
X162180953Y-122771429D01*
X163085715Y-122152381D02*
X162895238Y-122152381D01*
X162800000Y-122200000D01*
X162752381Y-122247619D01*
X162657143Y-122390476D01*
X162609524Y-122580952D01*
X162609524Y-122961905D01*
X162657143Y-123057143D01*
X162704762Y-123104762D01*
X162800000Y-123152381D01*
X162990477Y-123152381D01*
X163085715Y-123104762D01*
X163133334Y-123057143D01*
X163180953Y-122961905D01*
X163180953Y-122723810D01*
X163133334Y-122628571D01*
X163085715Y-122580952D01*
X162990477Y-122533333D01*
X162800000Y-122533333D01*
X162704762Y-122580952D01*
X162657143Y-122628571D01*
X162609524Y-122723810D01*
X163514286Y-122152381D02*
X164133334Y-122152381D01*
X163800000Y-122533333D01*
X163942858Y-122533333D01*
X164038096Y-122580952D01*
X164085715Y-122628571D01*
X164133334Y-122723810D01*
X164133334Y-122961905D01*
X164085715Y-123057143D01*
X164038096Y-123104762D01*
X163942858Y-123152381D01*
X163657143Y-123152381D01*
X163561905Y-123104762D01*
X163514286Y-123057143D01*
X160319048Y-96552381D02*
X160938096Y-96552381D01*
X160604762Y-96933333D01*
X160747620Y-96933333D01*
X160842858Y-96980952D01*
X160890477Y-97028571D01*
X160938096Y-97123810D01*
X160938096Y-97361905D01*
X160890477Y-97457143D01*
X160842858Y-97504762D01*
X160747620Y-97552381D01*
X160461905Y-97552381D01*
X160366667Y-97504762D01*
X160319048Y-97457143D01*
X161319048Y-96647619D02*
X161366667Y-96600000D01*
X161461905Y-96552381D01*
X161700001Y-96552381D01*
X161795239Y-96600000D01*
X161842858Y-96647619D01*
X161890477Y-96742857D01*
X161890477Y-96838095D01*
X161842858Y-96980952D01*
X161271429Y-97552381D01*
X161890477Y-97552381D01*
X162319048Y-97171429D02*
X163080953Y-97171429D01*
X163985715Y-96885714D02*
X163985715Y-97552381D01*
X163747619Y-96504762D02*
X163509524Y-97219048D01*
X164128572Y-97219048D01*
X164414286Y-96552381D02*
X165080953Y-96552381D01*
X164652381Y-97552381D01*
X147438096Y-109652381D02*
X146866667Y-109652381D01*
X147152381Y-109652381D02*
X147152381Y-108652381D01*
X147057143Y-108795238D01*
X146961905Y-108890476D01*
X146866667Y-108938095D01*
X148295239Y-108652381D02*
X148104762Y-108652381D01*
X148009524Y-108700000D01*
X147961905Y-108747619D01*
X147866667Y-108890476D01*
X147819048Y-109080952D01*
X147819048Y-109461905D01*
X147866667Y-109557143D01*
X147914286Y-109604762D01*
X148009524Y-109652381D01*
X148200001Y-109652381D01*
X148295239Y-109604762D01*
X148342858Y-109557143D01*
X148390477Y-109461905D01*
X148390477Y-109223810D01*
X148342858Y-109128571D01*
X148295239Y-109080952D01*
X148200001Y-109033333D01*
X148009524Y-109033333D01*
X147914286Y-109080952D01*
X147866667Y-109128571D01*
X147819048Y-109223810D01*
X148819048Y-109271429D02*
X149580953Y-109271429D01*
X149961905Y-108652381D02*
X150580953Y-108652381D01*
X150247619Y-109033333D01*
X150390477Y-109033333D01*
X150485715Y-109080952D01*
X150533334Y-109128571D01*
X150580953Y-109223810D01*
X150580953Y-109461905D01*
X150533334Y-109557143D01*
X150485715Y-109604762D01*
X150390477Y-109652381D01*
X150104762Y-109652381D01*
X150009524Y-109604762D01*
X149961905Y-109557143D01*
X151533334Y-109652381D02*
X150961905Y-109652381D01*
X151247619Y-109652381D02*
X151247619Y-108652381D01*
X151152381Y-108795238D01*
X151057143Y-108890476D01*
X150961905Y-108938095D01*
X144180952Y-98352381D02*
X144276191Y-98352381D01*
X144371429Y-98400000D01*
X144419048Y-98447619D01*
X144466667Y-98542857D01*
X144514286Y-98733333D01*
X144514286Y-98971429D01*
X144466667Y-99161905D01*
X144419048Y-99257143D01*
X144371429Y-99304762D01*
X144276191Y-99352381D01*
X144180952Y-99352381D01*
X144085714Y-99304762D01*
X144038095Y-99257143D01*
X143990476Y-99161905D01*
X143942857Y-98971429D01*
X143942857Y-98733333D01*
X143990476Y-98542857D01*
X144038095Y-98447619D01*
X144085714Y-98400000D01*
X144180952Y-98352381D01*
X144942857Y-98971429D02*
X145704762Y-98971429D01*
X146704762Y-99352381D02*
X146133333Y-99352381D01*
X146419047Y-99352381D02*
X146419047Y-98352381D01*
X146323809Y-98495238D01*
X146228571Y-98590476D01*
X146133333Y-98638095D01*
X147609524Y-98352381D02*
X147133333Y-98352381D01*
X147085714Y-98828571D01*
X147133333Y-98780952D01*
X147228571Y-98733333D01*
X147466667Y-98733333D01*
X147561905Y-98780952D01*
X147609524Y-98828571D01*
X147657143Y-98923810D01*
X147657143Y-99161905D01*
X147609524Y-99257143D01*
X147561905Y-99304762D01*
X147466667Y-99352381D01*
X147228571Y-99352381D01*
X147133333Y-99304762D01*
X147085714Y-99257143D01*
D12*
X132635714Y-93407143D02*
X132492857Y-93478571D01*
X132207143Y-93478571D01*
X132064285Y-93407143D01*
X131992857Y-93335714D01*
X131921428Y-93192857D01*
X131921428Y-92764286D01*
X131992857Y-92621429D01*
X132064285Y-92550000D01*
X132207143Y-92478571D01*
X132492857Y-92478571D01*
X132635714Y-92550000D01*
X133278571Y-93478571D02*
X133278571Y-91978571D01*
X133421428Y-92907143D02*
X133849999Y-93478571D01*
X133849999Y-92478571D02*
X133278571Y-93050000D01*
X135135714Y-93478571D02*
X135135714Y-91978571D01*
X135135714Y-93407143D02*
X134992857Y-93478571D01*
X134707143Y-93478571D01*
X134564285Y-93407143D01*
X134492857Y-93335714D01*
X134421428Y-93192857D01*
X134421428Y-92764286D01*
X134492857Y-92621429D01*
X134564285Y-92550000D01*
X134707143Y-92478571D01*
X134992857Y-92478571D01*
X135135714Y-92550000D01*
X135850000Y-93335714D02*
X135921428Y-93407143D01*
X135850000Y-93478571D01*
X135778571Y-93407143D01*
X135850000Y-93335714D01*
X135850000Y-93478571D01*
X136350000Y-92478571D02*
X136921429Y-92478571D01*
X136564286Y-91978571D02*
X136564286Y-93264286D01*
X136635714Y-93407143D01*
X136778572Y-93478571D01*
X136921429Y-93478571D01*
X137992857Y-93407143D02*
X137850000Y-93478571D01*
X137564286Y-93478571D01*
X137421429Y-93407143D01*
X137350000Y-93264286D01*
X137350000Y-92692857D01*
X137421429Y-92550000D01*
X137564286Y-92478571D01*
X137850000Y-92478571D01*
X137992857Y-92550000D01*
X138064286Y-92692857D01*
X138064286Y-92835714D01*
X137350000Y-92978571D01*
X139350000Y-93407143D02*
X139207143Y-93478571D01*
X138921429Y-93478571D01*
X138778571Y-93407143D01*
X138707143Y-93335714D01*
X138635714Y-93192857D01*
X138635714Y-92764286D01*
X138707143Y-92621429D01*
X138778571Y-92550000D01*
X138921429Y-92478571D01*
X139207143Y-92478571D01*
X139350000Y-92550000D01*
X139992857Y-93478571D02*
X139992857Y-91978571D01*
X140635714Y-93478571D02*
X140635714Y-92692857D01*
X140564285Y-92550000D01*
X140421428Y-92478571D01*
X140207143Y-92478571D01*
X140064285Y-92550000D01*
X139992857Y-92621429D01*
X142421428Y-91907143D02*
X141135714Y-93835714D01*
X143564286Y-92478571D02*
X143564286Y-93692857D01*
X143492857Y-93835714D01*
X143421429Y-93907143D01*
X143278572Y-93978571D01*
X143064286Y-93978571D01*
X142921429Y-93907143D01*
X143564286Y-93407143D02*
X143421429Y-93478571D01*
X143135715Y-93478571D01*
X142992857Y-93407143D01*
X142921429Y-93335714D01*
X142850000Y-93192857D01*
X142850000Y-92764286D01*
X142921429Y-92621429D01*
X142992857Y-92550000D01*
X143135715Y-92478571D01*
X143421429Y-92478571D01*
X143564286Y-92550000D01*
X144278572Y-92907143D02*
X145421429Y-92907143D01*
X145921429Y-92478571D02*
X146492858Y-92478571D01*
X146135715Y-91978571D02*
X146135715Y-93264286D01*
X146207143Y-93407143D01*
X146350001Y-93478571D01*
X146492858Y-93478571D01*
X147564286Y-93407143D02*
X147421429Y-93478571D01*
X147135715Y-93478571D01*
X146992858Y-93407143D01*
X146921429Y-93264286D01*
X146921429Y-92692857D01*
X146992858Y-92550000D01*
X147135715Y-92478571D01*
X147421429Y-92478571D01*
X147564286Y-92550000D01*
X147635715Y-92692857D01*
X147635715Y-92835714D01*
X146921429Y-92978571D01*
X148207143Y-93407143D02*
X148350000Y-93478571D01*
X148635715Y-93478571D01*
X148778572Y-93407143D01*
X148850000Y-93264286D01*
X148850000Y-93192857D01*
X148778572Y-93050000D01*
X148635715Y-92978571D01*
X148421429Y-92978571D01*
X148278572Y-92907143D01*
X148207143Y-92764286D01*
X148207143Y-92692857D01*
X148278572Y-92550000D01*
X148421429Y-92478571D01*
X148635715Y-92478571D01*
X148778572Y-92550000D01*
X149278572Y-92478571D02*
X149850001Y-92478571D01*
X149492858Y-91978571D02*
X149492858Y-93264286D01*
X149564286Y-93407143D01*
X149707144Y-93478571D01*
X149850001Y-93478571D01*
X150350001Y-92907143D02*
X151492858Y-92907143D01*
X151992858Y-92478571D02*
X152564287Y-92478571D01*
X152207144Y-91978571D02*
X152207144Y-93264286D01*
X152278572Y-93407143D01*
X152421430Y-93478571D01*
X152564287Y-93478571D01*
X153278573Y-93478571D02*
X153135715Y-93407143D01*
X153064287Y-93335714D01*
X152992858Y-93192857D01*
X152992858Y-92764286D01*
X153064287Y-92621429D01*
X153135715Y-92550000D01*
X153278573Y-92478571D01*
X153492858Y-92478571D01*
X153635715Y-92550000D01*
X153707144Y-92621429D01*
X153778573Y-92764286D01*
X153778573Y-93192857D01*
X153707144Y-93335714D01*
X153635715Y-93407143D01*
X153492858Y-93478571D01*
X153278573Y-93478571D01*
X154421430Y-92478571D02*
X154421430Y-93978571D01*
X154421430Y-92550000D02*
X154564287Y-92478571D01*
X154850001Y-92478571D01*
X154992858Y-92550000D01*
X155064287Y-92621429D01*
X155135716Y-92764286D01*
X155135716Y-93192857D01*
X155064287Y-93335714D01*
X154992858Y-93407143D01*
X154850001Y-93478571D01*
X154564287Y-93478571D01*
X154421430Y-93407143D01*
X156850001Y-91907143D02*
X155564287Y-93835714D01*
X157207145Y-92478571D02*
X157564288Y-93478571D01*
X157921430Y-92478571D01*
X158421430Y-92121429D02*
X158492859Y-92050000D01*
X158635716Y-91978571D01*
X158992859Y-91978571D01*
X159135716Y-92050000D01*
X159207145Y-92121429D01*
X159278573Y-92264286D01*
X159278573Y-92407143D01*
X159207145Y-92621429D01*
X158350002Y-93478571D01*
X159278573Y-93478571D01*
D13*
X174165476Y-118438096D02*
X174165476Y-119033334D01*
X172915476Y-119033334D01*
X174165476Y-118021429D02*
X173332143Y-118021429D01*
X172915476Y-118021429D02*
X172975000Y-118080953D01*
X173034524Y-118021429D01*
X172975000Y-117961905D01*
X172915476Y-118021429D01*
X173034524Y-118021429D01*
X173332143Y-117604762D02*
X173332143Y-117128572D01*
X174165476Y-117426191D02*
X173094048Y-117426191D01*
X172975000Y-117366667D01*
X172915476Y-117247620D01*
X172915476Y-117128572D01*
X173332143Y-116890476D02*
X173332143Y-116414286D01*
X172915476Y-116711905D02*
X173986905Y-116711905D01*
X174105952Y-116652381D01*
X174165476Y-116533334D01*
X174165476Y-116414286D01*
X173332143Y-114509524D02*
X174165476Y-114509524D01*
X173332143Y-115045238D02*
X173986905Y-115045238D01*
X174105952Y-114985714D01*
X174165476Y-114866667D01*
X174165476Y-114688095D01*
X174105952Y-114569047D01*
X174046429Y-114509524D01*
X173332143Y-113914286D02*
X174582143Y-113914286D01*
X173391667Y-113914286D02*
X173332143Y-113795238D01*
X173332143Y-113557143D01*
X173391667Y-113438095D01*
X173451190Y-113378572D01*
X173570238Y-113319048D01*
X173927381Y-113319048D01*
X174046429Y-113378572D01*
X174105952Y-113438095D01*
X174165476Y-113557143D01*
X174165476Y-113795238D01*
X174105952Y-113914286D01*
X173332143Y-112009524D02*
X173332143Y-111533334D01*
X172915476Y-111830953D02*
X173986905Y-111830953D01*
X174105952Y-111771429D01*
X174165476Y-111652382D01*
X174165476Y-111533334D01*
X174165476Y-110938096D02*
X174105952Y-111057143D01*
X174046429Y-111116667D01*
X173927381Y-111176191D01*
X173570238Y-111176191D01*
X173451190Y-111116667D01*
X173391667Y-111057143D01*
X173332143Y-110938096D01*
X173332143Y-110759524D01*
X173391667Y-110640476D01*
X173451190Y-110580953D01*
X173570238Y-110521429D01*
X173927381Y-110521429D01*
X174046429Y-110580953D01*
X174105952Y-110640476D01*
X174165476Y-110759524D01*
X174165476Y-110938096D01*
X174165476Y-109033334D02*
X173332143Y-109033334D01*
X173570238Y-109033334D02*
X173451190Y-108973810D01*
X173391667Y-108914286D01*
X173332143Y-108795239D01*
X173332143Y-108676191D01*
X174105952Y-107783333D02*
X174165476Y-107902381D01*
X174165476Y-108140476D01*
X174105952Y-108259524D01*
X173986905Y-108319048D01*
X173510714Y-108319048D01*
X173391667Y-108259524D01*
X173332143Y-108140476D01*
X173332143Y-107902381D01*
X173391667Y-107783333D01*
X173510714Y-107723810D01*
X173629762Y-107723810D01*
X173748810Y-108319048D01*
X174165476Y-107188095D02*
X173332143Y-107188095D01*
X173451190Y-107188095D02*
X173391667Y-107128571D01*
X173332143Y-107009524D01*
X173332143Y-106830952D01*
X173391667Y-106711904D01*
X173510714Y-106652381D01*
X174165476Y-106652381D01*
X173510714Y-106652381D02*
X173391667Y-106592857D01*
X173332143Y-106473809D01*
X173332143Y-106295238D01*
X173391667Y-106176190D01*
X173510714Y-106116666D01*
X174165476Y-106116666D01*
X174165476Y-105342857D02*
X174105952Y-105461904D01*
X174046429Y-105521428D01*
X173927381Y-105580952D01*
X173570238Y-105580952D01*
X173451190Y-105521428D01*
X173391667Y-105461904D01*
X173332143Y-105342857D01*
X173332143Y-105164285D01*
X173391667Y-105045237D01*
X173451190Y-104985714D01*
X173570238Y-104926190D01*
X173927381Y-104926190D01*
X174046429Y-104985714D01*
X174105952Y-105045237D01*
X174165476Y-105164285D01*
X174165476Y-105342857D01*
X173332143Y-104509524D02*
X174165476Y-104211905D01*
X173332143Y-103914285D01*
X174105952Y-102961904D02*
X174165476Y-103080952D01*
X174165476Y-103319047D01*
X174105952Y-103438095D01*
X173986905Y-103497619D01*
X173510714Y-103497619D01*
X173391667Y-103438095D01*
X173332143Y-103319047D01*
X173332143Y-103080952D01*
X173391667Y-102961904D01*
X173510714Y-102902381D01*
X173629762Y-102902381D01*
X173748810Y-103497619D01*
X174046429Y-102366666D02*
X174105952Y-102307142D01*
X174165476Y-102366666D01*
X174105952Y-102426190D01*
X174046429Y-102366666D01*
X174165476Y-102366666D01*
X173689286Y-102366666D02*
X172975000Y-102426190D01*
X172915476Y-102366666D01*
X172975000Y-102307142D01*
X173689286Y-102366666D01*
X172915476Y-102366666D01*
D11*
X153409524Y-120652381D02*
X152838095Y-120652381D01*
X153123809Y-120652381D02*
X153123809Y-119652381D01*
X153028571Y-119795238D01*
X152933333Y-119890476D01*
X152838095Y-119938095D01*
X154266667Y-119652381D02*
X154076190Y-119652381D01*
X153980952Y-119700000D01*
X153933333Y-119747619D01*
X153838095Y-119890476D01*
X153790476Y-120080952D01*
X153790476Y-120461905D01*
X153838095Y-120557143D01*
X153885714Y-120604762D01*
X153980952Y-120652381D01*
X154171429Y-120652381D01*
X154266667Y-120604762D01*
X154314286Y-120557143D01*
X154361905Y-120461905D01*
X154361905Y-120223810D01*
X154314286Y-120128571D01*
X154266667Y-120080952D01*
X154171429Y-120033333D01*
X153980952Y-120033333D01*
X153885714Y-120080952D01*
X153838095Y-120128571D01*
X153790476Y-120223810D01*
X136085715Y-120652381D02*
X135514286Y-120652381D01*
X135800000Y-120652381D02*
X135800000Y-119652381D01*
X135704762Y-119795238D01*
X135609524Y-119890476D01*
X135514286Y-119938095D01*
X140352353Y-118480000D02*
G75*
G03X140352353Y-118480000I-362353J0D01*
G01*
X149706742Y-100470000D02*
G75*
G03X149706742Y-100470000I-366742J0D01*
G01*
X152756742Y-110920000D02*
G75*
G03X152756742Y-110920000I-366742J0D01*
G01*
X171028407Y-93638192D02*
G75*
G03X171028407Y-93638192I-366742J0D01*
G01*
X172528550Y-120961665D02*
G75*
G03X172528550Y-120961665I-366742J0D01*
G01*
D14*
G36*
X161611343Y-126662173D02*
X161682011Y-126667779D01*
X161753885Y-126677766D01*
X161801382Y-126686682D01*
X161826837Y-126692279D01*
X161852505Y-126698526D01*
X161877782Y-126705225D01*
X161902064Y-126712177D01*
X161924750Y-126719184D01*
X161945234Y-126726047D01*
X161962915Y-126732567D01*
X161977188Y-126738546D01*
X161987451Y-126743786D01*
X161993099Y-126748087D01*
X161994023Y-126750081D01*
X161993536Y-126753499D01*
X161992111Y-126762235D01*
X161989802Y-126775983D01*
X161986660Y-126794442D01*
X161982741Y-126817305D01*
X161978097Y-126844270D01*
X161972780Y-126875033D01*
X161966846Y-126909290D01*
X161960346Y-126946736D01*
X161953334Y-126987068D01*
X161945863Y-127029982D01*
X161937987Y-127075174D01*
X161929758Y-127122340D01*
X161921231Y-127171177D01*
X161912457Y-127221380D01*
X161903492Y-127272645D01*
X161894387Y-127324668D01*
X161885196Y-127377146D01*
X161875972Y-127429775D01*
X161866769Y-127482250D01*
X161857640Y-127534268D01*
X161848637Y-127585525D01*
X161839815Y-127635717D01*
X161831227Y-127684540D01*
X161822925Y-127731690D01*
X161814963Y-127776863D01*
X161807395Y-127819756D01*
X161800273Y-127860063D01*
X161793651Y-127897483D01*
X161787582Y-127931709D01*
X161782119Y-127962440D01*
X161777316Y-127989370D01*
X161773226Y-128012195D01*
X161769902Y-128030613D01*
X161767397Y-128044319D01*
X161765764Y-128053008D01*
X161765375Y-128054977D01*
X161750970Y-128119946D01*
X161734930Y-128182006D01*
X161717410Y-128240722D01*
X161698560Y-128295660D01*
X161678535Y-128346386D01*
X161657487Y-128392464D01*
X161635569Y-128433461D01*
X161627679Y-128446595D01*
X161596411Y-128492499D01*
X161562288Y-128534126D01*
X161525596Y-128571188D01*
X161486624Y-128603397D01*
X161445660Y-128630464D01*
X161441820Y-128632675D01*
X161410174Y-128648664D01*
X161373928Y-128663437D01*
X161334117Y-128676698D01*
X161291776Y-128688152D01*
X161247938Y-128697503D01*
X161203638Y-128704455D01*
X161182510Y-128706853D01*
X161161263Y-128708560D01*
X161136707Y-128709889D01*
X161110329Y-128710814D01*
X161083615Y-128711308D01*
X161058050Y-128711344D01*
X161035122Y-128710895D01*
X161016316Y-128709934D01*
X161015512Y-128709872D01*
X160938839Y-128701108D01*
X160861212Y-128686763D01*
X160831045Y-128679748D01*
X160814287Y-128675460D01*
X160797612Y-128670890D01*
X160782097Y-128666365D01*
X160768821Y-128662210D01*
X160758860Y-128658750D01*
X160753293Y-128656312D01*
X160753109Y-128656196D01*
X160751958Y-128654332D01*
X160751567Y-128650254D01*
X160752003Y-128643284D01*
X160753336Y-128632743D01*
X160755634Y-128617955D01*
X160758942Y-128598380D01*
X160768508Y-128543000D01*
X160951035Y-128541419D01*
X160988914Y-128541074D01*
X161021550Y-128540734D01*
X161049407Y-128540384D01*
X161072951Y-128540010D01*
X161092645Y-128539598D01*
X161108955Y-128539132D01*
X161122345Y-128538598D01*
X161133280Y-128537982D01*
X161142224Y-128537269D01*
X161149642Y-128536445D01*
X161155999Y-128535495D01*
X161159247Y-128534907D01*
X161196448Y-128526777D01*
X161228941Y-128517465D01*
X161257664Y-128506626D01*
X161283556Y-128493913D01*
X161303710Y-128481594D01*
X161317129Y-128471416D01*
X161332624Y-128457726D01*
X161349039Y-128441715D01*
X161365218Y-128424576D01*
X161380002Y-128407500D01*
X161392238Y-128391680D01*
X161395420Y-128387085D01*
X161411533Y-128360628D01*
X161427673Y-128329677D01*
X161443320Y-128295422D01*
X161457955Y-128259050D01*
X161471057Y-128221750D01*
X161478936Y-128196080D01*
X161482337Y-128183606D01*
X161486192Y-128168400D01*
X161490263Y-128151521D01*
X161494315Y-128134029D01*
X161498109Y-128116985D01*
X161501408Y-128101450D01*
X161503977Y-128088483D01*
X161505577Y-128079145D01*
X161506000Y-128075007D01*
X161504304Y-128073844D01*
X161498898Y-128074862D01*
X161489302Y-128078194D01*
X161476747Y-128083259D01*
X161433426Y-128100106D01*
X161390202Y-128114483D01*
X161348315Y-128126027D01*
X161309001Y-128134376D01*
X161293382Y-128136867D01*
X161279180Y-128138324D01*
X161260714Y-128139395D01*
X161239319Y-128140080D01*
X161216327Y-128140378D01*
X161193074Y-128140289D01*
X161170891Y-128139812D01*
X161151113Y-128138945D01*
X161135075Y-128137689D01*
X161129247Y-128136969D01*
X161104748Y-128132711D01*
X161079000Y-128127038D01*
X161054049Y-128120462D01*
X161031938Y-128113494D01*
X161024388Y-128110728D01*
X160994248Y-128096239D01*
X160965440Y-128076844D01*
X160938770Y-128053321D01*
X160915041Y-128026448D01*
X160895059Y-127997001D01*
X160883334Y-127974402D01*
X160867082Y-127932405D01*
X160854393Y-127885963D01*
X160845266Y-127835095D01*
X160839704Y-127779815D01*
X160837708Y-127720141D01*
X160839279Y-127656090D01*
X160839534Y-127652696D01*
X161096448Y-127652696D01*
X161096695Y-127699856D01*
X161099354Y-127744444D01*
X161104398Y-127785594D01*
X161111796Y-127822444D01*
X161112277Y-127824355D01*
X161123204Y-127857702D01*
X161137902Y-127886776D01*
X161156374Y-127911578D01*
X161178625Y-127932110D01*
X161204657Y-127948374D01*
X161234474Y-127960373D01*
X161268081Y-127968107D01*
X161305480Y-127971580D01*
X161346677Y-127970793D01*
X161378947Y-127967556D01*
X161397250Y-127964529D01*
X161417107Y-127960159D01*
X161437717Y-127954733D01*
X161458277Y-127948535D01*
X161477987Y-127941854D01*
X161496045Y-127934974D01*
X161511649Y-127928182D01*
X161523998Y-127921764D01*
X161532291Y-127916007D01*
X161535623Y-127911626D01*
X161536280Y-127908288D01*
X161537862Y-127899674D01*
X161540311Y-127886116D01*
X161543567Y-127867949D01*
X161547573Y-127845504D01*
X161552268Y-127819116D01*
X161557595Y-127789118D01*
X161563495Y-127755842D01*
X161569910Y-127719623D01*
X161576779Y-127680793D01*
X161584046Y-127639686D01*
X161591650Y-127596635D01*
X161599534Y-127551973D01*
X161607639Y-127506033D01*
X161615906Y-127459149D01*
X161624276Y-127411654D01*
X161632691Y-127363881D01*
X161641092Y-127316164D01*
X161649420Y-127268836D01*
X161657617Y-127222229D01*
X161665624Y-127176678D01*
X161673382Y-127132515D01*
X161680832Y-127090074D01*
X161687916Y-127049688D01*
X161694576Y-127011690D01*
X161700751Y-126976414D01*
X161706385Y-126944192D01*
X161711418Y-126915358D01*
X161715791Y-126890246D01*
X161719446Y-126869188D01*
X161722323Y-126852518D01*
X161724366Y-126840569D01*
X161725513Y-126833675D01*
X161725753Y-126832034D01*
X161723015Y-126831080D01*
X161715256Y-126830339D01*
X161703160Y-126829800D01*
X161687408Y-126829454D01*
X161668684Y-126829290D01*
X161647671Y-126829296D01*
X161625050Y-126829464D01*
X161601506Y-126829781D01*
X161577720Y-126830238D01*
X161554376Y-126830824D01*
X161532156Y-126831528D01*
X161511743Y-126832340D01*
X161493820Y-126833249D01*
X161479070Y-126834245D01*
X161468175Y-126835316D01*
X161463273Y-126836093D01*
X161428186Y-126845095D01*
X161397246Y-126856721D01*
X161369241Y-126871641D01*
X161342955Y-126890523D01*
X161317175Y-126914036D01*
X161311850Y-126919480D01*
X161286667Y-126948881D01*
X161262512Y-126983477D01*
X161239605Y-127022812D01*
X161218164Y-127066430D01*
X161198408Y-127113877D01*
X161180557Y-127164697D01*
X161164829Y-127218434D01*
X161161061Y-127233045D01*
X161153746Y-127263889D01*
X161146098Y-127299201D01*
X161138335Y-127337768D01*
X161130675Y-127378376D01*
X161123337Y-127419811D01*
X161116539Y-127460861D01*
X161110500Y-127500311D01*
X161105436Y-127536949D01*
X161103306Y-127554112D01*
X161098642Y-127603827D01*
X161096448Y-127652696D01*
X160839534Y-127652696D01*
X160844419Y-127587679D01*
X160849805Y-127539842D01*
X160858559Y-127476957D01*
X160868864Y-127414010D01*
X160880541Y-127351778D01*
X160893411Y-127291039D01*
X160907295Y-127232569D01*
X160922016Y-127177146D01*
X160937394Y-127125546D01*
X160953251Y-127078546D01*
X160960002Y-127060389D01*
X160982699Y-127005643D01*
X161006909Y-126956038D01*
X161032894Y-126911143D01*
X161060916Y-126870530D01*
X161091238Y-126833770D01*
X161111949Y-126812089D01*
X161147740Y-126779834D01*
X161185488Y-126752096D01*
X161225823Y-126728536D01*
X161269376Y-126708815D01*
X161316778Y-126692593D01*
X161350461Y-126683642D01*
X161411441Y-126671685D01*
X161475572Y-126664123D01*
X161542368Y-126660954D01*
X161611343Y-126662173D01*
X161611343Y-126662173D01*
G37*
X161611343Y-126662173D02*
X161682011Y-126667779D01*
X161753885Y-126677766D01*
X161801382Y-126686682D01*
X161826837Y-126692279D01*
X161852505Y-126698526D01*
X161877782Y-126705225D01*
X161902064Y-126712177D01*
X161924750Y-126719184D01*
X161945234Y-126726047D01*
X161962915Y-126732567D01*
X161977188Y-126738546D01*
X161987451Y-126743786D01*
X161993099Y-126748087D01*
X161994023Y-126750081D01*
X161993536Y-126753499D01*
X161992111Y-126762235D01*
X161989802Y-126775983D01*
X161986660Y-126794442D01*
X161982741Y-126817305D01*
X161978097Y-126844270D01*
X161972780Y-126875033D01*
X161966846Y-126909290D01*
X161960346Y-126946736D01*
X161953334Y-126987068D01*
X161945863Y-127029982D01*
X161937987Y-127075174D01*
X161929758Y-127122340D01*
X161921231Y-127171177D01*
X161912457Y-127221380D01*
X161903492Y-127272645D01*
X161894387Y-127324668D01*
X161885196Y-127377146D01*
X161875972Y-127429775D01*
X161866769Y-127482250D01*
X161857640Y-127534268D01*
X161848637Y-127585525D01*
X161839815Y-127635717D01*
X161831227Y-127684540D01*
X161822925Y-127731690D01*
X161814963Y-127776863D01*
X161807395Y-127819756D01*
X161800273Y-127860063D01*
X161793651Y-127897483D01*
X161787582Y-127931709D01*
X161782119Y-127962440D01*
X161777316Y-127989370D01*
X161773226Y-128012195D01*
X161769902Y-128030613D01*
X161767397Y-128044319D01*
X161765764Y-128053008D01*
X161765375Y-128054977D01*
X161750970Y-128119946D01*
X161734930Y-128182006D01*
X161717410Y-128240722D01*
X161698560Y-128295660D01*
X161678535Y-128346386D01*
X161657487Y-128392464D01*
X161635569Y-128433461D01*
X161627679Y-128446595D01*
X161596411Y-128492499D01*
X161562288Y-128534126D01*
X161525596Y-128571188D01*
X161486624Y-128603397D01*
X161445660Y-128630464D01*
X161441820Y-128632675D01*
X161410174Y-128648664D01*
X161373928Y-128663437D01*
X161334117Y-128676698D01*
X161291776Y-128688152D01*
X161247938Y-128697503D01*
X161203638Y-128704455D01*
X161182510Y-128706853D01*
X161161263Y-128708560D01*
X161136707Y-128709889D01*
X161110329Y-128710814D01*
X161083615Y-128711308D01*
X161058050Y-128711344D01*
X161035122Y-128710895D01*
X161016316Y-128709934D01*
X161015512Y-128709872D01*
X160938839Y-128701108D01*
X160861212Y-128686763D01*
X160831045Y-128679748D01*
X160814287Y-128675460D01*
X160797612Y-128670890D01*
X160782097Y-128666365D01*
X160768821Y-128662210D01*
X160758860Y-128658750D01*
X160753293Y-128656312D01*
X160753109Y-128656196D01*
X160751958Y-128654332D01*
X160751567Y-128650254D01*
X160752003Y-128643284D01*
X160753336Y-128632743D01*
X160755634Y-128617955D01*
X160758942Y-128598380D01*
X160768508Y-128543000D01*
X160951035Y-128541419D01*
X160988914Y-128541074D01*
X161021550Y-128540734D01*
X161049407Y-128540384D01*
X161072951Y-128540010D01*
X161092645Y-128539598D01*
X161108955Y-128539132D01*
X161122345Y-128538598D01*
X161133280Y-128537982D01*
X161142224Y-128537269D01*
X161149642Y-128536445D01*
X161155999Y-128535495D01*
X161159247Y-128534907D01*
X161196448Y-128526777D01*
X161228941Y-128517465D01*
X161257664Y-128506626D01*
X161283556Y-128493913D01*
X161303710Y-128481594D01*
X161317129Y-128471416D01*
X161332624Y-128457726D01*
X161349039Y-128441715D01*
X161365218Y-128424576D01*
X161380002Y-128407500D01*
X161392238Y-128391680D01*
X161395420Y-128387085D01*
X161411533Y-128360628D01*
X161427673Y-128329677D01*
X161443320Y-128295422D01*
X161457955Y-128259050D01*
X161471057Y-128221750D01*
X161478936Y-128196080D01*
X161482337Y-128183606D01*
X161486192Y-128168400D01*
X161490263Y-128151521D01*
X161494315Y-128134029D01*
X161498109Y-128116985D01*
X161501408Y-128101450D01*
X161503977Y-128088483D01*
X161505577Y-128079145D01*
X161506000Y-128075007D01*
X161504304Y-128073844D01*
X161498898Y-128074862D01*
X161489302Y-128078194D01*
X161476747Y-128083259D01*
X161433426Y-128100106D01*
X161390202Y-128114483D01*
X161348315Y-128126027D01*
X161309001Y-128134376D01*
X161293382Y-128136867D01*
X161279180Y-128138324D01*
X161260714Y-128139395D01*
X161239319Y-128140080D01*
X161216327Y-128140378D01*
X161193074Y-128140289D01*
X161170891Y-128139812D01*
X161151113Y-128138945D01*
X161135075Y-128137689D01*
X161129247Y-128136969D01*
X161104748Y-128132711D01*
X161079000Y-128127038D01*
X161054049Y-128120462D01*
X161031938Y-128113494D01*
X161024388Y-128110728D01*
X160994248Y-128096239D01*
X160965440Y-128076844D01*
X160938770Y-128053321D01*
X160915041Y-128026448D01*
X160895059Y-127997001D01*
X160883334Y-127974402D01*
X160867082Y-127932405D01*
X160854393Y-127885963D01*
X160845266Y-127835095D01*
X160839704Y-127779815D01*
X160837708Y-127720141D01*
X160839279Y-127656090D01*
X160839534Y-127652696D01*
X161096448Y-127652696D01*
X161096695Y-127699856D01*
X161099354Y-127744444D01*
X161104398Y-127785594D01*
X161111796Y-127822444D01*
X161112277Y-127824355D01*
X161123204Y-127857702D01*
X161137902Y-127886776D01*
X161156374Y-127911578D01*
X161178625Y-127932110D01*
X161204657Y-127948374D01*
X161234474Y-127960373D01*
X161268081Y-127968107D01*
X161305480Y-127971580D01*
X161346677Y-127970793D01*
X161378947Y-127967556D01*
X161397250Y-127964529D01*
X161417107Y-127960159D01*
X161437717Y-127954733D01*
X161458277Y-127948535D01*
X161477987Y-127941854D01*
X161496045Y-127934974D01*
X161511649Y-127928182D01*
X161523998Y-127921764D01*
X161532291Y-127916007D01*
X161535623Y-127911626D01*
X161536280Y-127908288D01*
X161537862Y-127899674D01*
X161540311Y-127886116D01*
X161543567Y-127867949D01*
X161547573Y-127845504D01*
X161552268Y-127819116D01*
X161557595Y-127789118D01*
X161563495Y-127755842D01*
X161569910Y-127719623D01*
X161576779Y-127680793D01*
X161584046Y-127639686D01*
X161591650Y-127596635D01*
X161599534Y-127551973D01*
X161607639Y-127506033D01*
X161615906Y-127459149D01*
X161624276Y-127411654D01*
X161632691Y-127363881D01*
X161641092Y-127316164D01*
X161649420Y-127268836D01*
X161657617Y-127222229D01*
X161665624Y-127176678D01*
X161673382Y-127132515D01*
X161680832Y-127090074D01*
X161687916Y-127049688D01*
X161694576Y-127011690D01*
X161700751Y-126976414D01*
X161706385Y-126944192D01*
X161711418Y-126915358D01*
X161715791Y-126890246D01*
X161719446Y-126869188D01*
X161722323Y-126852518D01*
X161724366Y-126840569D01*
X161725513Y-126833675D01*
X161725753Y-126832034D01*
X161723015Y-126831080D01*
X161715256Y-126830339D01*
X161703160Y-126829800D01*
X161687408Y-126829454D01*
X161668684Y-126829290D01*
X161647671Y-126829296D01*
X161625050Y-126829464D01*
X161601506Y-126829781D01*
X161577720Y-126830238D01*
X161554376Y-126830824D01*
X161532156Y-126831528D01*
X161511743Y-126832340D01*
X161493820Y-126833249D01*
X161479070Y-126834245D01*
X161468175Y-126835316D01*
X161463273Y-126836093D01*
X161428186Y-126845095D01*
X161397246Y-126856721D01*
X161369241Y-126871641D01*
X161342955Y-126890523D01*
X161317175Y-126914036D01*
X161311850Y-126919480D01*
X161286667Y-126948881D01*
X161262512Y-126983477D01*
X161239605Y-127022812D01*
X161218164Y-127066430D01*
X161198408Y-127113877D01*
X161180557Y-127164697D01*
X161164829Y-127218434D01*
X161161061Y-127233045D01*
X161153746Y-127263889D01*
X161146098Y-127299201D01*
X161138335Y-127337768D01*
X161130675Y-127378376D01*
X161123337Y-127419811D01*
X161116539Y-127460861D01*
X161110500Y-127500311D01*
X161105436Y-127536949D01*
X161103306Y-127554112D01*
X161098642Y-127603827D01*
X161096448Y-127652696D01*
X160839534Y-127652696D01*
X160844419Y-127587679D01*
X160849805Y-127539842D01*
X160858559Y-127476957D01*
X160868864Y-127414010D01*
X160880541Y-127351778D01*
X160893411Y-127291039D01*
X160907295Y-127232569D01*
X160922016Y-127177146D01*
X160937394Y-127125546D01*
X160953251Y-127078546D01*
X160960002Y-127060389D01*
X160982699Y-127005643D01*
X161006909Y-126956038D01*
X161032894Y-126911143D01*
X161060916Y-126870530D01*
X161091238Y-126833770D01*
X161111949Y-126812089D01*
X161147740Y-126779834D01*
X161185488Y-126752096D01*
X161225823Y-126728536D01*
X161269376Y-126708815D01*
X161316778Y-126692593D01*
X161350461Y-126683642D01*
X161411441Y-126671685D01*
X161475572Y-126664123D01*
X161542368Y-126660954D01*
X161611343Y-126662173D01*
G36*
X164098868Y-126381859D02*
X164098157Y-126385611D01*
X164096589Y-126394303D01*
X164094267Y-126407336D01*
X164091296Y-126424108D01*
X164087783Y-126444021D01*
X164083832Y-126466473D01*
X164079548Y-126490864D01*
X164075036Y-126516595D01*
X164070400Y-126543064D01*
X164065747Y-126569673D01*
X164061180Y-126595821D01*
X164056805Y-126620907D01*
X164052727Y-126644331D01*
X164049051Y-126665494D01*
X164045882Y-126683794D01*
X164043325Y-126698633D01*
X164041484Y-126709409D01*
X164040465Y-126715523D01*
X164040292Y-126716703D01*
X164043070Y-126716907D01*
X164051098Y-126717121D01*
X164063920Y-126717340D01*
X164081077Y-126717559D01*
X164102113Y-126717774D01*
X164126570Y-126717981D01*
X164153990Y-126718176D01*
X164183917Y-126718353D01*
X164215894Y-126718509D01*
X164239493Y-126718604D01*
X164438694Y-126719337D01*
X164427457Y-126782590D01*
X164416219Y-126845843D01*
X164405913Y-126848640D01*
X164398615Y-126850624D01*
X164387646Y-126853612D01*
X164374842Y-126857102D01*
X164368253Y-126858899D01*
X164309595Y-126873118D01*
X164248363Y-126884627D01*
X164186274Y-126893193D01*
X164125044Y-126898581D01*
X164066388Y-126900556D01*
X164063432Y-126900561D01*
X164006499Y-126900561D01*
X164004889Y-126908410D01*
X164004097Y-126912716D01*
X164002405Y-126922247D01*
X163999883Y-126936604D01*
X163996599Y-126955385D01*
X163992624Y-126978193D01*
X163988025Y-127004625D01*
X163982873Y-127034284D01*
X163977236Y-127066768D01*
X163971184Y-127101678D01*
X163964785Y-127138613D01*
X163958109Y-127177175D01*
X163951224Y-127216962D01*
X163944201Y-127257576D01*
X163937107Y-127298616D01*
X163930012Y-127339682D01*
X163922986Y-127380374D01*
X163916096Y-127420293D01*
X163909414Y-127459038D01*
X163903006Y-127496210D01*
X163896943Y-127531408D01*
X163891294Y-127564233D01*
X163886128Y-127594285D01*
X163881514Y-127621164D01*
X163877521Y-127644469D01*
X163874218Y-127663802D01*
X163871674Y-127678762D01*
X163869958Y-127688949D01*
X163869142Y-127693955D01*
X163864900Y-127732407D01*
X163863771Y-127770073D01*
X163865672Y-127806109D01*
X163870520Y-127839669D01*
X163878234Y-127869906D01*
X163888728Y-127895976D01*
X163888973Y-127896464D01*
X163897130Y-127909859D01*
X163908096Y-127924112D01*
X163920459Y-127937647D01*
X163932803Y-127948889D01*
X163941585Y-127955096D01*
X163947823Y-127958603D01*
X163953949Y-127961580D01*
X163960484Y-127964074D01*
X163967943Y-127966134D01*
X163976845Y-127967809D01*
X163987707Y-127969146D01*
X164001048Y-127970194D01*
X164017385Y-127971002D01*
X164037235Y-127971618D01*
X164061117Y-127972090D01*
X164089547Y-127972467D01*
X164123045Y-127972797D01*
X164131829Y-127972874D01*
X164273309Y-127974096D01*
X164265304Y-128020245D01*
X164261746Y-128040959D01*
X164258969Y-128056800D01*
X164256649Y-128068494D01*
X164254460Y-128076769D01*
X164252078Y-128082349D01*
X164249177Y-128085962D01*
X164245432Y-128088335D01*
X164240518Y-128090193D01*
X164234110Y-128092263D01*
X164232884Y-128092677D01*
X164204501Y-128101359D01*
X164171507Y-128109713D01*
X164134996Y-128117525D01*
X164096065Y-128124583D01*
X164055807Y-128130673D01*
X164015319Y-128135583D01*
X164008318Y-128136302D01*
X163973926Y-128139322D01*
X163943686Y-128141016D01*
X163916206Y-128141412D01*
X163890091Y-128140534D01*
X163868240Y-128138835D01*
X163823382Y-128132772D01*
X163783216Y-128123585D01*
X163747556Y-128111114D01*
X163716214Y-128095199D01*
X163689004Y-128075679D01*
X163665740Y-128052395D01*
X163646235Y-128025186D01*
X163630302Y-127993892D01*
X163617757Y-127958353D01*
X163608411Y-127918408D01*
X163607816Y-127915134D01*
X163605823Y-127899756D01*
X163604394Y-127880007D01*
X163603541Y-127857196D01*
X163603274Y-127832632D01*
X163603606Y-127807627D01*
X163604548Y-127783489D01*
X163606111Y-127761529D01*
X163606433Y-127758168D01*
X163607205Y-127750604D01*
X163608008Y-127743157D01*
X163608892Y-127735522D01*
X163609907Y-127727397D01*
X163611105Y-127718476D01*
X163612535Y-127708455D01*
X163614246Y-127697032D01*
X163616291Y-127683901D01*
X163618717Y-127668758D01*
X163621577Y-127651300D01*
X163624919Y-127631222D01*
X163628795Y-127608220D01*
X163633254Y-127581990D01*
X163638346Y-127552229D01*
X163644123Y-127518632D01*
X163650633Y-127480895D01*
X163657927Y-127438713D01*
X163666055Y-127391784D01*
X163675068Y-127339803D01*
X163683756Y-127289729D01*
X163691675Y-127244043D01*
X163699321Y-127199852D01*
X163706635Y-127157489D01*
X163713562Y-127117286D01*
X163720044Y-127079575D01*
X163726025Y-127044688D01*
X163731449Y-127012956D01*
X163736258Y-126984712D01*
X163740396Y-126960288D01*
X163743805Y-126940016D01*
X163746431Y-126924228D01*
X163748215Y-126913255D01*
X163749101Y-126907430D01*
X163749191Y-126906589D01*
X163749076Y-126904864D01*
X163748325Y-126903504D01*
X163746333Y-126902466D01*
X163742492Y-126901706D01*
X163736196Y-126901181D01*
X163726838Y-126900848D01*
X163713811Y-126900662D01*
X163696509Y-126900581D01*
X163674324Y-126900562D01*
X163665000Y-126900561D01*
X163639780Y-126900510D01*
X163619779Y-126900342D01*
X163604509Y-126900036D01*
X163593482Y-126899572D01*
X163586210Y-126898929D01*
X163582206Y-126898086D01*
X163580981Y-126897023D01*
X163580981Y-126896994D01*
X163581533Y-126893395D01*
X163583015Y-126884898D01*
X163585296Y-126872214D01*
X163588248Y-126856056D01*
X163591741Y-126837134D01*
X163595645Y-126816159D01*
X163597476Y-126806382D01*
X163613798Y-126719337D01*
X163699466Y-126718582D01*
X163785134Y-126717828D01*
X163814966Y-126546635D01*
X163844798Y-126375443D01*
X163972566Y-126375440D01*
X164100334Y-126375438D01*
X164098868Y-126381859D01*
X164098868Y-126381859D01*
G37*
X164098868Y-126381859D02*
X164098157Y-126385611D01*
X164096589Y-126394303D01*
X164094267Y-126407336D01*
X164091296Y-126424108D01*
X164087783Y-126444021D01*
X164083832Y-126466473D01*
X164079548Y-126490864D01*
X164075036Y-126516595D01*
X164070400Y-126543064D01*
X164065747Y-126569673D01*
X164061180Y-126595821D01*
X164056805Y-126620907D01*
X164052727Y-126644331D01*
X164049051Y-126665494D01*
X164045882Y-126683794D01*
X164043325Y-126698633D01*
X164041484Y-126709409D01*
X164040465Y-126715523D01*
X164040292Y-126716703D01*
X164043070Y-126716907D01*
X164051098Y-126717121D01*
X164063920Y-126717340D01*
X164081077Y-126717559D01*
X164102113Y-126717774D01*
X164126570Y-126717981D01*
X164153990Y-126718176D01*
X164183917Y-126718353D01*
X164215894Y-126718509D01*
X164239493Y-126718604D01*
X164438694Y-126719337D01*
X164427457Y-126782590D01*
X164416219Y-126845843D01*
X164405913Y-126848640D01*
X164398615Y-126850624D01*
X164387646Y-126853612D01*
X164374842Y-126857102D01*
X164368253Y-126858899D01*
X164309595Y-126873118D01*
X164248363Y-126884627D01*
X164186274Y-126893193D01*
X164125044Y-126898581D01*
X164066388Y-126900556D01*
X164063432Y-126900561D01*
X164006499Y-126900561D01*
X164004889Y-126908410D01*
X164004097Y-126912716D01*
X164002405Y-126922247D01*
X163999883Y-126936604D01*
X163996599Y-126955385D01*
X163992624Y-126978193D01*
X163988025Y-127004625D01*
X163982873Y-127034284D01*
X163977236Y-127066768D01*
X163971184Y-127101678D01*
X163964785Y-127138613D01*
X163958109Y-127177175D01*
X163951224Y-127216962D01*
X163944201Y-127257576D01*
X163937107Y-127298616D01*
X163930012Y-127339682D01*
X163922986Y-127380374D01*
X163916096Y-127420293D01*
X163909414Y-127459038D01*
X163903006Y-127496210D01*
X163896943Y-127531408D01*
X163891294Y-127564233D01*
X163886128Y-127594285D01*
X163881514Y-127621164D01*
X163877521Y-127644469D01*
X163874218Y-127663802D01*
X163871674Y-127678762D01*
X163869958Y-127688949D01*
X163869142Y-127693955D01*
X163864900Y-127732407D01*
X163863771Y-127770073D01*
X163865672Y-127806109D01*
X163870520Y-127839669D01*
X163878234Y-127869906D01*
X163888728Y-127895976D01*
X163888973Y-127896464D01*
X163897130Y-127909859D01*
X163908096Y-127924112D01*
X163920459Y-127937647D01*
X163932803Y-127948889D01*
X163941585Y-127955096D01*
X163947823Y-127958603D01*
X163953949Y-127961580D01*
X163960484Y-127964074D01*
X163967943Y-127966134D01*
X163976845Y-127967809D01*
X163987707Y-127969146D01*
X164001048Y-127970194D01*
X164017385Y-127971002D01*
X164037235Y-127971618D01*
X164061117Y-127972090D01*
X164089547Y-127972467D01*
X164123045Y-127972797D01*
X164131829Y-127972874D01*
X164273309Y-127974096D01*
X164265304Y-128020245D01*
X164261746Y-128040959D01*
X164258969Y-128056800D01*
X164256649Y-128068494D01*
X164254460Y-128076769D01*
X164252078Y-128082349D01*
X164249177Y-128085962D01*
X164245432Y-128088335D01*
X164240518Y-128090193D01*
X164234110Y-128092263D01*
X164232884Y-128092677D01*
X164204501Y-128101359D01*
X164171507Y-128109713D01*
X164134996Y-128117525D01*
X164096065Y-128124583D01*
X164055807Y-128130673D01*
X164015319Y-128135583D01*
X164008318Y-128136302D01*
X163973926Y-128139322D01*
X163943686Y-128141016D01*
X163916206Y-128141412D01*
X163890091Y-128140534D01*
X163868240Y-128138835D01*
X163823382Y-128132772D01*
X163783216Y-128123585D01*
X163747556Y-128111114D01*
X163716214Y-128095199D01*
X163689004Y-128075679D01*
X163665740Y-128052395D01*
X163646235Y-128025186D01*
X163630302Y-127993892D01*
X163617757Y-127958353D01*
X163608411Y-127918408D01*
X163607816Y-127915134D01*
X163605823Y-127899756D01*
X163604394Y-127880007D01*
X163603541Y-127857196D01*
X163603274Y-127832632D01*
X163603606Y-127807627D01*
X163604548Y-127783489D01*
X163606111Y-127761529D01*
X163606433Y-127758168D01*
X163607205Y-127750604D01*
X163608008Y-127743157D01*
X163608892Y-127735522D01*
X163609907Y-127727397D01*
X163611105Y-127718476D01*
X163612535Y-127708455D01*
X163614246Y-127697032D01*
X163616291Y-127683901D01*
X163618717Y-127668758D01*
X163621577Y-127651300D01*
X163624919Y-127631222D01*
X163628795Y-127608220D01*
X163633254Y-127581990D01*
X163638346Y-127552229D01*
X163644123Y-127518632D01*
X163650633Y-127480895D01*
X163657927Y-127438713D01*
X163666055Y-127391784D01*
X163675068Y-127339803D01*
X163683756Y-127289729D01*
X163691675Y-127244043D01*
X163699321Y-127199852D01*
X163706635Y-127157489D01*
X163713562Y-127117286D01*
X163720044Y-127079575D01*
X163726025Y-127044688D01*
X163731449Y-127012956D01*
X163736258Y-126984712D01*
X163740396Y-126960288D01*
X163743805Y-126940016D01*
X163746431Y-126924228D01*
X163748215Y-126913255D01*
X163749101Y-126907430D01*
X163749191Y-126906589D01*
X163749076Y-126904864D01*
X163748325Y-126903504D01*
X163746333Y-126902466D01*
X163742492Y-126901706D01*
X163736196Y-126901181D01*
X163726838Y-126900848D01*
X163713811Y-126900662D01*
X163696509Y-126900581D01*
X163674324Y-126900562D01*
X163665000Y-126900561D01*
X163639780Y-126900510D01*
X163619779Y-126900342D01*
X163604509Y-126900036D01*
X163593482Y-126899572D01*
X163586210Y-126898929D01*
X163582206Y-126898086D01*
X163580981Y-126897023D01*
X163580981Y-126896994D01*
X163581533Y-126893395D01*
X163583015Y-126884898D01*
X163585296Y-126872214D01*
X163588248Y-126856056D01*
X163591741Y-126837134D01*
X163595645Y-126816159D01*
X163597476Y-126806382D01*
X163613798Y-126719337D01*
X163699466Y-126718582D01*
X163785134Y-126717828D01*
X163814966Y-126546635D01*
X163844798Y-126375443D01*
X163972566Y-126375440D01*
X164100334Y-126375438D01*
X164098868Y-126381859D01*
G36*
X165336971Y-126091549D02*
X165390019Y-126093652D01*
X165443322Y-126097410D01*
X165495914Y-126102738D01*
X165546832Y-126109553D01*
X165595111Y-126117771D01*
X165639786Y-126127308D01*
X165679893Y-126138081D01*
X165682168Y-126138776D01*
X165695047Y-126142911D01*
X165703233Y-126146061D01*
X165707565Y-126148650D01*
X165708880Y-126151103D01*
X165708719Y-126152248D01*
X165707908Y-126156075D01*
X165706319Y-126164416D01*
X165704133Y-126176249D01*
X165701532Y-126190553D01*
X165698699Y-126206306D01*
X165695816Y-126222487D01*
X165693064Y-126238074D01*
X165690626Y-126252047D01*
X165688684Y-126263383D01*
X165687419Y-126271063D01*
X165687011Y-126274016D01*
X165684230Y-126274229D01*
X165676174Y-126274455D01*
X165663276Y-126274690D01*
X165645971Y-126274928D01*
X165624691Y-126275167D01*
X165599870Y-126275401D01*
X165571941Y-126275626D01*
X165541337Y-126275837D01*
X165508492Y-126276032D01*
X165473840Y-126276204D01*
X165465118Y-126276243D01*
X165422242Y-126276431D01*
X165384631Y-126276621D01*
X165351842Y-126276844D01*
X165323430Y-126277128D01*
X165298954Y-126277502D01*
X165277970Y-126277995D01*
X165260035Y-126278636D01*
X165244705Y-126279454D01*
X165231538Y-126280479D01*
X165220091Y-126281739D01*
X165209919Y-126283264D01*
X165200581Y-126285082D01*
X165191633Y-126287222D01*
X165182631Y-126289714D01*
X165173133Y-126292587D01*
X165162696Y-126295869D01*
X165161888Y-126296125D01*
X165123580Y-126310214D01*
X165089570Y-126327070D01*
X165058880Y-126347281D01*
X165030534Y-126371431D01*
X165021711Y-126380177D01*
X164993766Y-126412872D01*
X164969634Y-126449563D01*
X164949460Y-126489873D01*
X164933391Y-126533423D01*
X164921571Y-126579836D01*
X164914147Y-126628733D01*
X164911587Y-126665783D01*
X164911304Y-126699546D01*
X164913245Y-126729047D01*
X164917736Y-126755405D01*
X164925104Y-126779741D01*
X164935675Y-126803177D01*
X164949777Y-126826832D01*
X164964643Y-126847764D01*
X164978773Y-126865520D01*
X164993806Y-126882301D01*
X165010176Y-126898405D01*
X165028318Y-126914128D01*
X165048665Y-126929765D01*
X165071652Y-126945612D01*
X165097712Y-126961967D01*
X165127279Y-126979125D01*
X165160788Y-126997383D01*
X165198671Y-127017036D01*
X165241364Y-127038381D01*
X165250360Y-127042802D01*
X165281880Y-127058646D01*
X165309182Y-127073318D01*
X165333428Y-127087555D01*
X165355781Y-127102091D01*
X165377402Y-127117660D01*
X165399455Y-127134998D01*
X165410180Y-127143867D01*
X165439547Y-127170005D01*
X165464485Y-127195763D01*
X165486024Y-127222414D01*
X165505198Y-127251232D01*
X165522529Y-127282491D01*
X165537269Y-127313847D01*
X165548487Y-127343922D01*
X165556508Y-127374127D01*
X165561652Y-127405875D01*
X165564245Y-127440577D01*
X165564713Y-127467067D01*
X165562506Y-127522995D01*
X165555888Y-127579387D01*
X165548844Y-127618533D01*
X165534567Y-127680803D01*
X165518052Y-127738005D01*
X165499127Y-127790394D01*
X165477621Y-127838221D01*
X165453362Y-127881740D01*
X165426178Y-127921205D01*
X165395898Y-127956868D01*
X165362349Y-127988983D01*
X165325360Y-128017802D01*
X165284759Y-128043580D01*
X165247133Y-128063360D01*
X165208482Y-128080635D01*
X165169286Y-128095320D01*
X165128604Y-128107661D01*
X165085494Y-128117901D01*
X165039013Y-128126283D01*
X164988219Y-128133053D01*
X164970674Y-128134941D01*
X164956972Y-128136059D01*
X164938816Y-128137122D01*
X164917200Y-128138108D01*
X164893118Y-128138994D01*
X164867563Y-128139757D01*
X164841528Y-128140374D01*
X164816007Y-128140823D01*
X164791994Y-128141080D01*
X164770481Y-128141122D01*
X164752463Y-128140927D01*
X164738933Y-128140472D01*
X164736652Y-128140334D01*
X164697909Y-128137565D01*
X164663736Y-128134759D01*
X164632994Y-128131779D01*
X164604548Y-128128490D01*
X164577260Y-128124756D01*
X164549991Y-128120442D01*
X164521606Y-128115412D01*
X164511191Y-128113457D01*
X164493882Y-128109976D01*
X164475748Y-128106003D01*
X164457726Y-128101778D01*
X164440750Y-128097539D01*
X164425753Y-128093529D01*
X164413671Y-128089985D01*
X164405437Y-128087148D01*
X164402141Y-128085452D01*
X164402129Y-128082320D01*
X164402980Y-128074553D01*
X164404536Y-128063133D01*
X164406640Y-128049041D01*
X164409134Y-128033258D01*
X164411860Y-128016765D01*
X164414662Y-128000545D01*
X164417381Y-127985578D01*
X164419861Y-127972845D01*
X164421295Y-127966118D01*
X164422665Y-127960022D01*
X164647439Y-127958497D01*
X164692237Y-127958178D01*
X164731792Y-127957848D01*
X164766569Y-127957483D01*
X164797033Y-127957060D01*
X164823649Y-127956552D01*
X164846883Y-127955937D01*
X164867198Y-127955190D01*
X164885061Y-127954285D01*
X164900935Y-127953199D01*
X164915287Y-127951908D01*
X164928581Y-127950386D01*
X164941281Y-127948609D01*
X164953854Y-127946553D01*
X164966764Y-127944194D01*
X164980475Y-127941506D01*
X164983997Y-127940797D01*
X165030310Y-127929598D01*
X165071879Y-127915605D01*
X165109019Y-127898670D01*
X165142043Y-127878643D01*
X165171266Y-127855373D01*
X165179206Y-127847869D01*
X165205562Y-127819166D01*
X165228595Y-127787923D01*
X165248550Y-127753630D01*
X165265674Y-127715775D01*
X165280213Y-127673849D01*
X165292411Y-127627340D01*
X165297905Y-127601202D01*
X165300412Y-127584285D01*
X165302124Y-127564303D01*
X165303042Y-127542633D01*
X165303168Y-127520650D01*
X165302500Y-127499732D01*
X165301040Y-127481254D01*
X165298788Y-127466593D01*
X165297859Y-127462786D01*
X165289856Y-127439384D01*
X165278863Y-127416803D01*
X165264284Y-127394053D01*
X165245524Y-127370143D01*
X165234771Y-127357866D01*
X165217688Y-127340801D01*
X165196334Y-127322809D01*
X165170540Y-127303780D01*
X165140132Y-127283604D01*
X165104938Y-127262172D01*
X165064787Y-127239374D01*
X165019506Y-127215101D01*
X164974955Y-127192270D01*
X164942955Y-127175892D01*
X164915292Y-127161077D01*
X164891013Y-127147250D01*
X164869162Y-127133837D01*
X164848783Y-127120266D01*
X164828923Y-127105963D01*
X164820080Y-127099274D01*
X164781719Y-127066722D01*
X164748298Y-127031555D01*
X164719479Y-126993321D01*
X164694922Y-126951570D01*
X164674451Y-126906269D01*
X164662811Y-126870080D01*
X164654658Y-126829815D01*
X164649988Y-126785918D01*
X164648798Y-126738832D01*
X164651087Y-126688998D01*
X164656850Y-126636859D01*
X164666086Y-126582858D01*
X164676805Y-126535258D01*
X164693905Y-126475991D01*
X164714499Y-126421192D01*
X164738655Y-126370763D01*
X164766443Y-126324606D01*
X164797932Y-126282622D01*
X164833191Y-126244714D01*
X164872289Y-126210783D01*
X164915296Y-126180731D01*
X164934296Y-126169382D01*
X164969336Y-126151685D01*
X165008905Y-126135774D01*
X165052029Y-126121932D01*
X165097731Y-126110439D01*
X165145037Y-126101575D01*
X165189000Y-126095998D01*
X165235497Y-126092638D01*
X165285142Y-126091183D01*
X165336971Y-126091549D01*
X165336971Y-126091549D01*
G37*
X165336971Y-126091549D02*
X165390019Y-126093652D01*
X165443322Y-126097410D01*
X165495914Y-126102738D01*
X165546832Y-126109553D01*
X165595111Y-126117771D01*
X165639786Y-126127308D01*
X165679893Y-126138081D01*
X165682168Y-126138776D01*
X165695047Y-126142911D01*
X165703233Y-126146061D01*
X165707565Y-126148650D01*
X165708880Y-126151103D01*
X165708719Y-126152248D01*
X165707908Y-126156075D01*
X165706319Y-126164416D01*
X165704133Y-126176249D01*
X165701532Y-126190553D01*
X165698699Y-126206306D01*
X165695816Y-126222487D01*
X165693064Y-126238074D01*
X165690626Y-126252047D01*
X165688684Y-126263383D01*
X165687419Y-126271063D01*
X165687011Y-126274016D01*
X165684230Y-126274229D01*
X165676174Y-126274455D01*
X165663276Y-126274690D01*
X165645971Y-126274928D01*
X165624691Y-126275167D01*
X165599870Y-126275401D01*
X165571941Y-126275626D01*
X165541337Y-126275837D01*
X165508492Y-126276032D01*
X165473840Y-126276204D01*
X165465118Y-126276243D01*
X165422242Y-126276431D01*
X165384631Y-126276621D01*
X165351842Y-126276844D01*
X165323430Y-126277128D01*
X165298954Y-126277502D01*
X165277970Y-126277995D01*
X165260035Y-126278636D01*
X165244705Y-126279454D01*
X165231538Y-126280479D01*
X165220091Y-126281739D01*
X165209919Y-126283264D01*
X165200581Y-126285082D01*
X165191633Y-126287222D01*
X165182631Y-126289714D01*
X165173133Y-126292587D01*
X165162696Y-126295869D01*
X165161888Y-126296125D01*
X165123580Y-126310214D01*
X165089570Y-126327070D01*
X165058880Y-126347281D01*
X165030534Y-126371431D01*
X165021711Y-126380177D01*
X164993766Y-126412872D01*
X164969634Y-126449563D01*
X164949460Y-126489873D01*
X164933391Y-126533423D01*
X164921571Y-126579836D01*
X164914147Y-126628733D01*
X164911587Y-126665783D01*
X164911304Y-126699546D01*
X164913245Y-126729047D01*
X164917736Y-126755405D01*
X164925104Y-126779741D01*
X164935675Y-126803177D01*
X164949777Y-126826832D01*
X164964643Y-126847764D01*
X164978773Y-126865520D01*
X164993806Y-126882301D01*
X165010176Y-126898405D01*
X165028318Y-126914128D01*
X165048665Y-126929765D01*
X165071652Y-126945612D01*
X165097712Y-126961967D01*
X165127279Y-126979125D01*
X165160788Y-126997383D01*
X165198671Y-127017036D01*
X165241364Y-127038381D01*
X165250360Y-127042802D01*
X165281880Y-127058646D01*
X165309182Y-127073318D01*
X165333428Y-127087555D01*
X165355781Y-127102091D01*
X165377402Y-127117660D01*
X165399455Y-127134998D01*
X165410180Y-127143867D01*
X165439547Y-127170005D01*
X165464485Y-127195763D01*
X165486024Y-127222414D01*
X165505198Y-127251232D01*
X165522529Y-127282491D01*
X165537269Y-127313847D01*
X165548487Y-127343922D01*
X165556508Y-127374127D01*
X165561652Y-127405875D01*
X165564245Y-127440577D01*
X165564713Y-127467067D01*
X165562506Y-127522995D01*
X165555888Y-127579387D01*
X165548844Y-127618533D01*
X165534567Y-127680803D01*
X165518052Y-127738005D01*
X165499127Y-127790394D01*
X165477621Y-127838221D01*
X165453362Y-127881740D01*
X165426178Y-127921205D01*
X165395898Y-127956868D01*
X165362349Y-127988983D01*
X165325360Y-128017802D01*
X165284759Y-128043580D01*
X165247133Y-128063360D01*
X165208482Y-128080635D01*
X165169286Y-128095320D01*
X165128604Y-128107661D01*
X165085494Y-128117901D01*
X165039013Y-128126283D01*
X164988219Y-128133053D01*
X164970674Y-128134941D01*
X164956972Y-128136059D01*
X164938816Y-128137122D01*
X164917200Y-128138108D01*
X164893118Y-128138994D01*
X164867563Y-128139757D01*
X164841528Y-128140374D01*
X164816007Y-128140823D01*
X164791994Y-128141080D01*
X164770481Y-128141122D01*
X164752463Y-128140927D01*
X164738933Y-128140472D01*
X164736652Y-128140334D01*
X164697909Y-128137565D01*
X164663736Y-128134759D01*
X164632994Y-128131779D01*
X164604548Y-128128490D01*
X164577260Y-128124756D01*
X164549991Y-128120442D01*
X164521606Y-128115412D01*
X164511191Y-128113457D01*
X164493882Y-128109976D01*
X164475748Y-128106003D01*
X164457726Y-128101778D01*
X164440750Y-128097539D01*
X164425753Y-128093529D01*
X164413671Y-128089985D01*
X164405437Y-128087148D01*
X164402141Y-128085452D01*
X164402129Y-128082320D01*
X164402980Y-128074553D01*
X164404536Y-128063133D01*
X164406640Y-128049041D01*
X164409134Y-128033258D01*
X164411860Y-128016765D01*
X164414662Y-128000545D01*
X164417381Y-127985578D01*
X164419861Y-127972845D01*
X164421295Y-127966118D01*
X164422665Y-127960022D01*
X164647439Y-127958497D01*
X164692237Y-127958178D01*
X164731792Y-127957848D01*
X164766569Y-127957483D01*
X164797033Y-127957060D01*
X164823649Y-127956552D01*
X164846883Y-127955937D01*
X164867198Y-127955190D01*
X164885061Y-127954285D01*
X164900935Y-127953199D01*
X164915287Y-127951908D01*
X164928581Y-127950386D01*
X164941281Y-127948609D01*
X164953854Y-127946553D01*
X164966764Y-127944194D01*
X164980475Y-127941506D01*
X164983997Y-127940797D01*
X165030310Y-127929598D01*
X165071879Y-127915605D01*
X165109019Y-127898670D01*
X165142043Y-127878643D01*
X165171266Y-127855373D01*
X165179206Y-127847869D01*
X165205562Y-127819166D01*
X165228595Y-127787923D01*
X165248550Y-127753630D01*
X165265674Y-127715775D01*
X165280213Y-127673849D01*
X165292411Y-127627340D01*
X165297905Y-127601202D01*
X165300412Y-127584285D01*
X165302124Y-127564303D01*
X165303042Y-127542633D01*
X165303168Y-127520650D01*
X165302500Y-127499732D01*
X165301040Y-127481254D01*
X165298788Y-127466593D01*
X165297859Y-127462786D01*
X165289856Y-127439384D01*
X165278863Y-127416803D01*
X165264284Y-127394053D01*
X165245524Y-127370143D01*
X165234771Y-127357866D01*
X165217688Y-127340801D01*
X165196334Y-127322809D01*
X165170540Y-127303780D01*
X165140132Y-127283604D01*
X165104938Y-127262172D01*
X165064787Y-127239374D01*
X165019506Y-127215101D01*
X164974955Y-127192270D01*
X164942955Y-127175892D01*
X164915292Y-127161077D01*
X164891013Y-127147250D01*
X164869162Y-127133837D01*
X164848783Y-127120266D01*
X164828923Y-127105963D01*
X164820080Y-127099274D01*
X164781719Y-127066722D01*
X164748298Y-127031555D01*
X164719479Y-126993321D01*
X164694922Y-126951570D01*
X164674451Y-126906269D01*
X164662811Y-126870080D01*
X164654658Y-126829815D01*
X164649988Y-126785918D01*
X164648798Y-126738832D01*
X164651087Y-126688998D01*
X164656850Y-126636859D01*
X164666086Y-126582858D01*
X164676805Y-126535258D01*
X164693905Y-126475991D01*
X164714499Y-126421192D01*
X164738655Y-126370763D01*
X164766443Y-126324606D01*
X164797932Y-126282622D01*
X164833191Y-126244714D01*
X164872289Y-126210783D01*
X164915296Y-126180731D01*
X164934296Y-126169382D01*
X164969336Y-126151685D01*
X165008905Y-126135774D01*
X165052029Y-126121932D01*
X165097731Y-126110439D01*
X165145037Y-126101575D01*
X165189000Y-126095998D01*
X165235497Y-126092638D01*
X165285142Y-126091183D01*
X165336971Y-126091549D01*
G36*
X166353413Y-126381859D02*
X166352686Y-126385639D01*
X166351101Y-126394363D01*
X166348765Y-126407428D01*
X166345783Y-126424233D01*
X166342258Y-126444176D01*
X166338298Y-126466657D01*
X166334007Y-126491073D01*
X166329490Y-126516822D01*
X166324852Y-126543303D01*
X166320199Y-126569915D01*
X166315636Y-126596056D01*
X166311268Y-126621124D01*
X166307201Y-126644518D01*
X166303539Y-126665636D01*
X166300388Y-126683876D01*
X166297853Y-126698638D01*
X166296039Y-126709318D01*
X166295052Y-126715317D01*
X166294899Y-126716407D01*
X166297677Y-126716661D01*
X166305705Y-126716921D01*
X166318526Y-126717183D01*
X166335682Y-126717442D01*
X166356717Y-126717692D01*
X166381172Y-126717929D01*
X166408590Y-126718147D01*
X166438514Y-126718341D01*
X166470485Y-126718507D01*
X166493991Y-126718604D01*
X166693082Y-126719337D01*
X166681869Y-126782612D01*
X166670657Y-126845886D01*
X166660435Y-126848662D01*
X166653178Y-126850636D01*
X166642243Y-126853614D01*
X166629461Y-126857098D01*
X166622860Y-126858899D01*
X166564202Y-126873118D01*
X166502970Y-126884627D01*
X166440881Y-126893193D01*
X166379651Y-126898581D01*
X166320995Y-126900556D01*
X166318039Y-126900561D01*
X166261105Y-126900561D01*
X166259446Y-126908410D01*
X166258010Y-126915749D01*
X166255720Y-126928176D01*
X166252642Y-126945290D01*
X166248847Y-126966687D01*
X166244402Y-126991968D01*
X166239377Y-127020730D01*
X166233839Y-127052572D01*
X166227858Y-127087093D01*
X166221501Y-127123891D01*
X166214838Y-127162564D01*
X166207937Y-127202711D01*
X166200866Y-127243930D01*
X166193695Y-127285821D01*
X166186491Y-127327981D01*
X166179324Y-127370009D01*
X166172261Y-127411503D01*
X166165372Y-127452063D01*
X166158724Y-127491285D01*
X166152387Y-127528770D01*
X166146430Y-127564115D01*
X166140919Y-127596919D01*
X166135925Y-127626781D01*
X166131516Y-127653298D01*
X166127759Y-127676070D01*
X166124725Y-127694695D01*
X166122481Y-127708771D01*
X166121096Y-127717897D01*
X166120680Y-127721067D01*
X166118261Y-127761292D01*
X166119426Y-127799086D01*
X166124060Y-127834084D01*
X166132045Y-127865924D01*
X166143261Y-127894241D01*
X166157593Y-127918672D01*
X166174922Y-127938854D01*
X166195131Y-127954422D01*
X166196477Y-127955228D01*
X166202643Y-127958707D01*
X166208724Y-127961660D01*
X166215237Y-127964135D01*
X166222699Y-127966180D01*
X166231626Y-127967842D01*
X166242536Y-127969170D01*
X166255943Y-127970212D01*
X166272366Y-127971015D01*
X166292321Y-127971628D01*
X166316324Y-127972099D01*
X166344893Y-127972475D01*
X166378543Y-127972805D01*
X166386380Y-127972874D01*
X166527804Y-127974096D01*
X166518454Y-128027254D01*
X166515456Y-128044110D01*
X166512727Y-128059100D01*
X166510443Y-128071289D01*
X166508779Y-128079741D01*
X166507910Y-128083522D01*
X166507902Y-128083542D01*
X166504714Y-128085693D01*
X166496976Y-128088908D01*
X166485678Y-128092880D01*
X166471812Y-128097305D01*
X166456367Y-128101878D01*
X166440336Y-128106292D01*
X166424709Y-128110242D01*
X166411910Y-128113128D01*
X166356727Y-128123652D01*
X166303770Y-128131763D01*
X166253601Y-128137410D01*
X166206780Y-128140544D01*
X166163865Y-128141114D01*
X166125418Y-128139070D01*
X166124164Y-128138951D01*
X166079643Y-128132953D01*
X166039818Y-128123968D01*
X166004473Y-128111918D01*
X165973392Y-128096720D01*
X165946358Y-128078295D01*
X165935168Y-128068664D01*
X165921464Y-128054991D01*
X165910344Y-128041328D01*
X165900407Y-128025756D01*
X165891509Y-128008914D01*
X165878307Y-127977772D01*
X165868298Y-127943864D01*
X165861450Y-127906847D01*
X165857733Y-127866376D01*
X165857117Y-127822109D01*
X165859571Y-127773700D01*
X165865065Y-127720806D01*
X165865540Y-127717098D01*
X165866545Y-127710292D01*
X165868470Y-127698222D01*
X165871253Y-127681248D01*
X165874834Y-127659727D01*
X165879150Y-127634019D01*
X165884142Y-127604483D01*
X165889748Y-127571478D01*
X165895907Y-127535364D01*
X165902558Y-127496498D01*
X165909640Y-127455240D01*
X165917092Y-127411949D01*
X165924853Y-127366984D01*
X165932862Y-127320704D01*
X165936816Y-127297898D01*
X165944829Y-127251675D01*
X165952568Y-127206951D01*
X165959978Y-127164053D01*
X165967002Y-127123308D01*
X165973584Y-127085046D01*
X165979669Y-127049592D01*
X165985201Y-127017275D01*
X165990122Y-126988422D01*
X165994379Y-126963360D01*
X165997913Y-126942417D01*
X166000670Y-126925921D01*
X166002594Y-126914199D01*
X166003628Y-126907579D01*
X166003798Y-126906196D01*
X166003616Y-126904586D01*
X166002668Y-126903315D01*
X166000348Y-126902345D01*
X165996052Y-126901634D01*
X165989174Y-126901142D01*
X165979111Y-126900830D01*
X165965257Y-126900655D01*
X165947007Y-126900579D01*
X165923757Y-126900562D01*
X165919274Y-126900561D01*
X165834751Y-126900561D01*
X165836256Y-126892713D01*
X165837140Y-126887969D01*
X165838905Y-126878389D01*
X165841409Y-126864750D01*
X165844509Y-126847831D01*
X165848062Y-126828411D01*
X165851925Y-126807268D01*
X165852998Y-126801388D01*
X165868236Y-126717911D01*
X165953899Y-126717910D01*
X166039562Y-126717910D01*
X166069438Y-126546674D01*
X166099315Y-126375438D01*
X166354940Y-126375438D01*
X166353413Y-126381859D01*
X166353413Y-126381859D01*
G37*
X166353413Y-126381859D02*
X166352686Y-126385639D01*
X166351101Y-126394363D01*
X166348765Y-126407428D01*
X166345783Y-126424233D01*
X166342258Y-126444176D01*
X166338298Y-126466657D01*
X166334007Y-126491073D01*
X166329490Y-126516822D01*
X166324852Y-126543303D01*
X166320199Y-126569915D01*
X166315636Y-126596056D01*
X166311268Y-126621124D01*
X166307201Y-126644518D01*
X166303539Y-126665636D01*
X166300388Y-126683876D01*
X166297853Y-126698638D01*
X166296039Y-126709318D01*
X166295052Y-126715317D01*
X166294899Y-126716407D01*
X166297677Y-126716661D01*
X166305705Y-126716921D01*
X166318526Y-126717183D01*
X166335682Y-126717442D01*
X166356717Y-126717692D01*
X166381172Y-126717929D01*
X166408590Y-126718147D01*
X166438514Y-126718341D01*
X166470485Y-126718507D01*
X166493991Y-126718604D01*
X166693082Y-126719337D01*
X166681869Y-126782612D01*
X166670657Y-126845886D01*
X166660435Y-126848662D01*
X166653178Y-126850636D01*
X166642243Y-126853614D01*
X166629461Y-126857098D01*
X166622860Y-126858899D01*
X166564202Y-126873118D01*
X166502970Y-126884627D01*
X166440881Y-126893193D01*
X166379651Y-126898581D01*
X166320995Y-126900556D01*
X166318039Y-126900561D01*
X166261105Y-126900561D01*
X166259446Y-126908410D01*
X166258010Y-126915749D01*
X166255720Y-126928176D01*
X166252642Y-126945290D01*
X166248847Y-126966687D01*
X166244402Y-126991968D01*
X166239377Y-127020730D01*
X166233839Y-127052572D01*
X166227858Y-127087093D01*
X166221501Y-127123891D01*
X166214838Y-127162564D01*
X166207937Y-127202711D01*
X166200866Y-127243930D01*
X166193695Y-127285821D01*
X166186491Y-127327981D01*
X166179324Y-127370009D01*
X166172261Y-127411503D01*
X166165372Y-127452063D01*
X166158724Y-127491285D01*
X166152387Y-127528770D01*
X166146430Y-127564115D01*
X166140919Y-127596919D01*
X166135925Y-127626781D01*
X166131516Y-127653298D01*
X166127759Y-127676070D01*
X166124725Y-127694695D01*
X166122481Y-127708771D01*
X166121096Y-127717897D01*
X166120680Y-127721067D01*
X166118261Y-127761292D01*
X166119426Y-127799086D01*
X166124060Y-127834084D01*
X166132045Y-127865924D01*
X166143261Y-127894241D01*
X166157593Y-127918672D01*
X166174922Y-127938854D01*
X166195131Y-127954422D01*
X166196477Y-127955228D01*
X166202643Y-127958707D01*
X166208724Y-127961660D01*
X166215237Y-127964135D01*
X166222699Y-127966180D01*
X166231626Y-127967842D01*
X166242536Y-127969170D01*
X166255943Y-127970212D01*
X166272366Y-127971015D01*
X166292321Y-127971628D01*
X166316324Y-127972099D01*
X166344893Y-127972475D01*
X166378543Y-127972805D01*
X166386380Y-127972874D01*
X166527804Y-127974096D01*
X166518454Y-128027254D01*
X166515456Y-128044110D01*
X166512727Y-128059100D01*
X166510443Y-128071289D01*
X166508779Y-128079741D01*
X166507910Y-128083522D01*
X166507902Y-128083542D01*
X166504714Y-128085693D01*
X166496976Y-128088908D01*
X166485678Y-128092880D01*
X166471812Y-128097305D01*
X166456367Y-128101878D01*
X166440336Y-128106292D01*
X166424709Y-128110242D01*
X166411910Y-128113128D01*
X166356727Y-128123652D01*
X166303770Y-128131763D01*
X166253601Y-128137410D01*
X166206780Y-128140544D01*
X166163865Y-128141114D01*
X166125418Y-128139070D01*
X166124164Y-128138951D01*
X166079643Y-128132953D01*
X166039818Y-128123968D01*
X166004473Y-128111918D01*
X165973392Y-128096720D01*
X165946358Y-128078295D01*
X165935168Y-128068664D01*
X165921464Y-128054991D01*
X165910344Y-128041328D01*
X165900407Y-128025756D01*
X165891509Y-128008914D01*
X165878307Y-127977772D01*
X165868298Y-127943864D01*
X165861450Y-127906847D01*
X165857733Y-127866376D01*
X165857117Y-127822109D01*
X165859571Y-127773700D01*
X165865065Y-127720806D01*
X165865540Y-127717098D01*
X165866545Y-127710292D01*
X165868470Y-127698222D01*
X165871253Y-127681248D01*
X165874834Y-127659727D01*
X165879150Y-127634019D01*
X165884142Y-127604483D01*
X165889748Y-127571478D01*
X165895907Y-127535364D01*
X165902558Y-127496498D01*
X165909640Y-127455240D01*
X165917092Y-127411949D01*
X165924853Y-127366984D01*
X165932862Y-127320704D01*
X165936816Y-127297898D01*
X165944829Y-127251675D01*
X165952568Y-127206951D01*
X165959978Y-127164053D01*
X165967002Y-127123308D01*
X165973584Y-127085046D01*
X165979669Y-127049592D01*
X165985201Y-127017275D01*
X165990122Y-126988422D01*
X165994379Y-126963360D01*
X165997913Y-126942417D01*
X166000670Y-126925921D01*
X166002594Y-126914199D01*
X166003628Y-126907579D01*
X166003798Y-126906196D01*
X166003616Y-126904586D01*
X166002668Y-126903315D01*
X166000348Y-126902345D01*
X165996052Y-126901634D01*
X165989174Y-126901142D01*
X165979111Y-126900830D01*
X165965257Y-126900655D01*
X165947007Y-126900579D01*
X165923757Y-126900562D01*
X165919274Y-126900561D01*
X165834751Y-126900561D01*
X165836256Y-126892713D01*
X165837140Y-126887969D01*
X165838905Y-126878389D01*
X165841409Y-126864750D01*
X165844509Y-126847831D01*
X165848062Y-126828411D01*
X165851925Y-126807268D01*
X165852998Y-126801388D01*
X165868236Y-126717911D01*
X165953899Y-126717910D01*
X166039562Y-126717910D01*
X166069438Y-126546674D01*
X166099315Y-126375438D01*
X166354940Y-126375438D01*
X166353413Y-126381859D01*
G36*
X167503239Y-126662728D02*
X167532204Y-126663545D01*
X167558852Y-126664818D01*
X167582038Y-126666544D01*
X167592011Y-126667582D01*
X167636768Y-126673724D01*
X167682380Y-126681677D01*
X167727769Y-126691174D01*
X167771859Y-126701951D01*
X167813573Y-126713742D01*
X167851833Y-126726284D01*
X167885562Y-126739310D01*
X167888335Y-126740495D01*
X167896353Y-126744257D01*
X167900176Y-126747361D01*
X167900964Y-126751128D01*
X167900453Y-126754293D01*
X167899816Y-126757787D01*
X167898240Y-126766656D01*
X167895769Y-126780652D01*
X167892445Y-126799527D01*
X167888314Y-126823034D01*
X167883417Y-126850925D01*
X167877798Y-126882951D01*
X167871502Y-126918866D01*
X167864570Y-126958422D01*
X167857047Y-127001370D01*
X167848976Y-127047463D01*
X167840401Y-127096453D01*
X167831364Y-127148093D01*
X167821909Y-127202134D01*
X167812080Y-127258329D01*
X167801920Y-127316430D01*
X167791473Y-127376189D01*
X167781824Y-127431393D01*
X167771157Y-127492417D01*
X167760740Y-127551996D01*
X167750615Y-127609882D01*
X167740827Y-127665830D01*
X167731417Y-127719590D01*
X167722431Y-127770918D01*
X167713910Y-127819564D01*
X167705899Y-127865283D01*
X167698441Y-127907828D01*
X167691578Y-127946950D01*
X167685355Y-127982403D01*
X167679814Y-128013941D01*
X167675000Y-128041315D01*
X167670955Y-128064279D01*
X167667722Y-128082586D01*
X167665345Y-128095988D01*
X167663868Y-128104239D01*
X167663342Y-128107061D01*
X167661824Y-128113483D01*
X167450742Y-128113483D01*
X167450742Y-128027865D01*
X167443479Y-128027865D01*
X167437678Y-128029633D01*
X167428298Y-128034643D01*
X167416119Y-128042449D01*
X167408518Y-128047769D01*
X167364088Y-128076223D01*
X167317115Y-128099637D01*
X167267854Y-128117945D01*
X167216560Y-128131083D01*
X167163488Y-128138983D01*
X167108894Y-128141582D01*
X167053384Y-128138847D01*
X167010587Y-128132913D01*
X166970659Y-128123733D01*
X166934122Y-128111496D01*
X166901503Y-128096388D01*
X166873326Y-128078598D01*
X166863776Y-128071076D01*
X166839364Y-128047970D01*
X166818037Y-128022085D01*
X166799631Y-127993043D01*
X166783986Y-127960467D01*
X166770941Y-127923978D01*
X166760335Y-127883200D01*
X166752005Y-127837755D01*
X166746806Y-127797168D01*
X166743983Y-127757873D01*
X166743350Y-127713739D01*
X166743693Y-127702714D01*
X167002649Y-127702714D01*
X167005419Y-127748808D01*
X167011001Y-127790466D01*
X167019388Y-127827532D01*
X167030573Y-127859854D01*
X167037621Y-127874985D01*
X167049810Y-127894748D01*
X167065163Y-127913656D01*
X167082361Y-127930335D01*
X167100083Y-127943413D01*
X167107309Y-127947474D01*
X167134181Y-127958352D01*
X167164974Y-127966086D01*
X167198781Y-127970574D01*
X167234692Y-127971714D01*
X167271800Y-127969405D01*
X167286641Y-127967513D01*
X167331070Y-127958501D01*
X167375845Y-127944589D01*
X167413945Y-127928831D01*
X167441361Y-127916085D01*
X167450505Y-127864239D01*
X167451987Y-127855837D01*
X167454404Y-127842141D01*
X167457698Y-127823477D01*
X167461811Y-127800173D01*
X167466686Y-127772555D01*
X167472264Y-127740951D01*
X167478489Y-127705686D01*
X167485303Y-127667087D01*
X167492647Y-127625482D01*
X167500464Y-127581198D01*
X167508697Y-127534560D01*
X167517287Y-127485896D01*
X167526178Y-127435533D01*
X167535311Y-127383797D01*
X167544629Y-127331016D01*
X167546054Y-127322943D01*
X167555231Y-127270912D01*
X167564124Y-127220392D01*
X167572685Y-127171672D01*
X167580862Y-127125038D01*
X167588607Y-127080776D01*
X167595870Y-127039173D01*
X167602600Y-127000516D01*
X167608748Y-126965092D01*
X167614265Y-126933188D01*
X167619101Y-126905089D01*
X167623205Y-126881084D01*
X167626529Y-126861458D01*
X167629022Y-126846499D01*
X167630635Y-126836493D01*
X167631318Y-126831727D01*
X167631331Y-126831353D01*
X167628239Y-126830726D01*
X167620179Y-126830214D01*
X167607891Y-126829816D01*
X167592112Y-126829528D01*
X167573582Y-126829349D01*
X167553040Y-126829276D01*
X167531225Y-126829305D01*
X167508876Y-126829435D01*
X167486730Y-126829663D01*
X167465529Y-126829986D01*
X167446009Y-126830402D01*
X167428910Y-126830908D01*
X167414972Y-126831502D01*
X167405355Y-126832142D01*
X167366584Y-126837323D01*
X167331842Y-126845850D01*
X167300282Y-126858106D01*
X167271054Y-126874475D01*
X167243310Y-126895339D01*
X167222400Y-126914735D01*
X167209579Y-126928378D01*
X167196343Y-126943793D01*
X167184379Y-126958953D01*
X167177177Y-126969056D01*
X167167690Y-126984332D01*
X167156784Y-127003624D01*
X167145108Y-127025629D01*
X167133313Y-127049043D01*
X167122047Y-127072563D01*
X167111963Y-127094887D01*
X167103709Y-127114709D01*
X167101088Y-127121587D01*
X167087729Y-127161039D01*
X167074665Y-127205995D01*
X167061943Y-127256256D01*
X167049608Y-127311621D01*
X167037705Y-127371892D01*
X167026280Y-127436871D01*
X167019825Y-127477056D01*
X167011279Y-127539354D01*
X167005572Y-127597832D01*
X167002698Y-127652337D01*
X167002649Y-127702714D01*
X166743693Y-127702714D01*
X166744864Y-127665181D01*
X166748481Y-127612613D01*
X166754156Y-127556449D01*
X166761846Y-127497102D01*
X166771507Y-127434987D01*
X166783093Y-127370518D01*
X166796563Y-127304108D01*
X166801791Y-127280134D01*
X166819973Y-127205191D01*
X166840054Y-127135599D01*
X166862052Y-127071318D01*
X166885987Y-127012311D01*
X166911877Y-126958539D01*
X166939741Y-126909963D01*
X166969596Y-126866545D01*
X167001461Y-126828245D01*
X167034747Y-126795563D01*
X167069137Y-126767675D01*
X167105110Y-126743489D01*
X167143255Y-126722763D01*
X167184161Y-126705253D01*
X167228415Y-126690717D01*
X167276606Y-126678912D01*
X167329321Y-126669594D01*
X167344846Y-126667414D01*
X167363694Y-126665487D01*
X167387087Y-126664020D01*
X167413882Y-126663011D01*
X167442935Y-126662459D01*
X167473102Y-126662365D01*
X167503239Y-126662728D01*
X167503239Y-126662728D01*
G37*
X167503239Y-126662728D02*
X167532204Y-126663545D01*
X167558852Y-126664818D01*
X167582038Y-126666544D01*
X167592011Y-126667582D01*
X167636768Y-126673724D01*
X167682380Y-126681677D01*
X167727769Y-126691174D01*
X167771859Y-126701951D01*
X167813573Y-126713742D01*
X167851833Y-126726284D01*
X167885562Y-126739310D01*
X167888335Y-126740495D01*
X167896353Y-126744257D01*
X167900176Y-126747361D01*
X167900964Y-126751128D01*
X167900453Y-126754293D01*
X167899816Y-126757787D01*
X167898240Y-126766656D01*
X167895769Y-126780652D01*
X167892445Y-126799527D01*
X167888314Y-126823034D01*
X167883417Y-126850925D01*
X167877798Y-126882951D01*
X167871502Y-126918866D01*
X167864570Y-126958422D01*
X167857047Y-127001370D01*
X167848976Y-127047463D01*
X167840401Y-127096453D01*
X167831364Y-127148093D01*
X167821909Y-127202134D01*
X167812080Y-127258329D01*
X167801920Y-127316430D01*
X167791473Y-127376189D01*
X167781824Y-127431393D01*
X167771157Y-127492417D01*
X167760740Y-127551996D01*
X167750615Y-127609882D01*
X167740827Y-127665830D01*
X167731417Y-127719590D01*
X167722431Y-127770918D01*
X167713910Y-127819564D01*
X167705899Y-127865283D01*
X167698441Y-127907828D01*
X167691578Y-127946950D01*
X167685355Y-127982403D01*
X167679814Y-128013941D01*
X167675000Y-128041315D01*
X167670955Y-128064279D01*
X167667722Y-128082586D01*
X167665345Y-128095988D01*
X167663868Y-128104239D01*
X167663342Y-128107061D01*
X167661824Y-128113483D01*
X167450742Y-128113483D01*
X167450742Y-128027865D01*
X167443479Y-128027865D01*
X167437678Y-128029633D01*
X167428298Y-128034643D01*
X167416119Y-128042449D01*
X167408518Y-128047769D01*
X167364088Y-128076223D01*
X167317115Y-128099637D01*
X167267854Y-128117945D01*
X167216560Y-128131083D01*
X167163488Y-128138983D01*
X167108894Y-128141582D01*
X167053384Y-128138847D01*
X167010587Y-128132913D01*
X166970659Y-128123733D01*
X166934122Y-128111496D01*
X166901503Y-128096388D01*
X166873326Y-128078598D01*
X166863776Y-128071076D01*
X166839364Y-128047970D01*
X166818037Y-128022085D01*
X166799631Y-127993043D01*
X166783986Y-127960467D01*
X166770941Y-127923978D01*
X166760335Y-127883200D01*
X166752005Y-127837755D01*
X166746806Y-127797168D01*
X166743983Y-127757873D01*
X166743350Y-127713739D01*
X166743693Y-127702714D01*
X167002649Y-127702714D01*
X167005419Y-127748808D01*
X167011001Y-127790466D01*
X167019388Y-127827532D01*
X167030573Y-127859854D01*
X167037621Y-127874985D01*
X167049810Y-127894748D01*
X167065163Y-127913656D01*
X167082361Y-127930335D01*
X167100083Y-127943413D01*
X167107309Y-127947474D01*
X167134181Y-127958352D01*
X167164974Y-127966086D01*
X167198781Y-127970574D01*
X167234692Y-127971714D01*
X167271800Y-127969405D01*
X167286641Y-127967513D01*
X167331070Y-127958501D01*
X167375845Y-127944589D01*
X167413945Y-127928831D01*
X167441361Y-127916085D01*
X167450505Y-127864239D01*
X167451987Y-127855837D01*
X167454404Y-127842141D01*
X167457698Y-127823477D01*
X167461811Y-127800173D01*
X167466686Y-127772555D01*
X167472264Y-127740951D01*
X167478489Y-127705686D01*
X167485303Y-127667087D01*
X167492647Y-127625482D01*
X167500464Y-127581198D01*
X167508697Y-127534560D01*
X167517287Y-127485896D01*
X167526178Y-127435533D01*
X167535311Y-127383797D01*
X167544629Y-127331016D01*
X167546054Y-127322943D01*
X167555231Y-127270912D01*
X167564124Y-127220392D01*
X167572685Y-127171672D01*
X167580862Y-127125038D01*
X167588607Y-127080776D01*
X167595870Y-127039173D01*
X167602600Y-127000516D01*
X167608748Y-126965092D01*
X167614265Y-126933188D01*
X167619101Y-126905089D01*
X167623205Y-126881084D01*
X167626529Y-126861458D01*
X167629022Y-126846499D01*
X167630635Y-126836493D01*
X167631318Y-126831727D01*
X167631331Y-126831353D01*
X167628239Y-126830726D01*
X167620179Y-126830214D01*
X167607891Y-126829816D01*
X167592112Y-126829528D01*
X167573582Y-126829349D01*
X167553040Y-126829276D01*
X167531225Y-126829305D01*
X167508876Y-126829435D01*
X167486730Y-126829663D01*
X167465529Y-126829986D01*
X167446009Y-126830402D01*
X167428910Y-126830908D01*
X167414972Y-126831502D01*
X167405355Y-126832142D01*
X167366584Y-126837323D01*
X167331842Y-126845850D01*
X167300282Y-126858106D01*
X167271054Y-126874475D01*
X167243310Y-126895339D01*
X167222400Y-126914735D01*
X167209579Y-126928378D01*
X167196343Y-126943793D01*
X167184379Y-126958953D01*
X167177177Y-126969056D01*
X167167690Y-126984332D01*
X167156784Y-127003624D01*
X167145108Y-127025629D01*
X167133313Y-127049043D01*
X167122047Y-127072563D01*
X167111963Y-127094887D01*
X167103709Y-127114709D01*
X167101088Y-127121587D01*
X167087729Y-127161039D01*
X167074665Y-127205995D01*
X167061943Y-127256256D01*
X167049608Y-127311621D01*
X167037705Y-127371892D01*
X167026280Y-127436871D01*
X167019825Y-127477056D01*
X167011279Y-127539354D01*
X167005572Y-127597832D01*
X167002698Y-127652337D01*
X167002649Y-127702714D01*
X166743693Y-127702714D01*
X166744864Y-127665181D01*
X166748481Y-127612613D01*
X166754156Y-127556449D01*
X166761846Y-127497102D01*
X166771507Y-127434987D01*
X166783093Y-127370518D01*
X166796563Y-127304108D01*
X166801791Y-127280134D01*
X166819973Y-127205191D01*
X166840054Y-127135599D01*
X166862052Y-127071318D01*
X166885987Y-127012311D01*
X166911877Y-126958539D01*
X166939741Y-126909963D01*
X166969596Y-126866545D01*
X167001461Y-126828245D01*
X167034747Y-126795563D01*
X167069137Y-126767675D01*
X167105110Y-126743489D01*
X167143255Y-126722763D01*
X167184161Y-126705253D01*
X167228415Y-126690717D01*
X167276606Y-126678912D01*
X167329321Y-126669594D01*
X167344846Y-126667414D01*
X167363694Y-126665487D01*
X167387087Y-126664020D01*
X167413882Y-126663011D01*
X167442935Y-126662459D01*
X167473102Y-126662365D01*
X167503239Y-126662728D01*
G36*
X168774673Y-126662664D02*
X168801267Y-126663237D01*
X168826169Y-126664216D01*
X168848148Y-126665593D01*
X168865975Y-126667361D01*
X168866932Y-126667485D01*
X168895864Y-126671671D01*
X168926437Y-126676726D01*
X168956831Y-126682316D01*
X168985227Y-126688105D01*
X169009805Y-126693758D01*
X169010416Y-126693910D01*
X169026010Y-126697978D01*
X169041823Y-126702415D01*
X169056788Y-126706888D01*
X169069835Y-126711062D01*
X169079896Y-126714603D01*
X169085901Y-126717177D01*
X169086893Y-126717827D01*
X169087136Y-126721153D01*
X169086470Y-126729198D01*
X169085006Y-126741069D01*
X169082856Y-126755869D01*
X169080132Y-126772704D01*
X169079818Y-126774551D01*
X169070469Y-126829213D01*
X168931993Y-126829238D01*
X168902791Y-126829303D01*
X168874010Y-126829478D01*
X168846421Y-126829751D01*
X168820798Y-126830110D01*
X168797916Y-126830543D01*
X168778547Y-126831037D01*
X168763465Y-126831580D01*
X168754696Y-126832063D01*
X168709925Y-126837442D01*
X168668937Y-126846952D01*
X168631399Y-126860765D01*
X168596978Y-126879058D01*
X168565344Y-126902004D01*
X168536162Y-126929778D01*
X168510980Y-126960031D01*
X168490377Y-126989610D01*
X168471239Y-127021624D01*
X168453444Y-127056427D01*
X168436873Y-127094374D01*
X168421404Y-127135820D01*
X168406916Y-127181119D01*
X168393290Y-127230626D01*
X168380404Y-127284696D01*
X168368138Y-127343683D01*
X168356371Y-127407943D01*
X168354103Y-127421245D01*
X168346929Y-127464967D01*
X168340995Y-127503888D01*
X168336229Y-127538758D01*
X168332559Y-127570333D01*
X168329911Y-127599363D01*
X168328215Y-127626602D01*
X168327396Y-127652804D01*
X168327384Y-127678719D01*
X168327762Y-127695382D01*
X168330173Y-127737671D01*
X168334725Y-127775083D01*
X168341559Y-127808084D01*
X168350819Y-127837144D01*
X168362647Y-127862731D01*
X168377184Y-127885312D01*
X168390164Y-127900786D01*
X168408705Y-127918829D01*
X168427624Y-127933213D01*
X168448165Y-127944598D01*
X168471570Y-127953646D01*
X168499082Y-127961018D01*
X168506328Y-127962589D01*
X168518985Y-127964929D01*
X168533215Y-127966938D01*
X168549477Y-127968639D01*
X168568233Y-127970050D01*
X168589944Y-127971191D01*
X168615071Y-127972084D01*
X168644074Y-127972748D01*
X168677416Y-127973202D01*
X168715556Y-127973469D01*
X168757486Y-127973566D01*
X168895545Y-127973640D01*
X168894062Y-127981488D01*
X168893099Y-127986871D01*
X168891383Y-127996756D01*
X168889106Y-128010018D01*
X168886461Y-128025533D01*
X168884497Y-128037122D01*
X168876415Y-128084908D01*
X168859225Y-128090583D01*
X168838845Y-128096679D01*
X168813920Y-128103107D01*
X168785582Y-128109639D01*
X168754966Y-128116045D01*
X168723206Y-128122096D01*
X168691435Y-128127564D01*
X168660788Y-128132218D01*
X168639405Y-128135015D01*
X168625859Y-128136323D01*
X168608281Y-128137542D01*
X168587820Y-128138637D01*
X168565620Y-128139573D01*
X168542830Y-128140316D01*
X168520596Y-128140831D01*
X168500066Y-128141083D01*
X168482385Y-128141036D01*
X168468702Y-128140657D01*
X168463888Y-128140347D01*
X168417471Y-128135740D01*
X168376142Y-128130130D01*
X168339343Y-128123323D01*
X168306513Y-128115130D01*
X168277091Y-128105360D01*
X168250518Y-128093821D01*
X168226232Y-128080323D01*
X168203673Y-128064674D01*
X168182282Y-128046684D01*
X168178329Y-128043009D01*
X168154848Y-128018093D01*
X168134578Y-127990491D01*
X168117302Y-127959722D01*
X168102801Y-127925304D01*
X168090857Y-127886754D01*
X168081251Y-127843591D01*
X168077164Y-127819528D01*
X168074590Y-127798215D01*
X168072641Y-127772483D01*
X168071339Y-127743587D01*
X168070699Y-127712783D01*
X168070741Y-127681327D01*
X168071484Y-127650475D01*
X168072945Y-127621483D01*
X168074051Y-127606910D01*
X168079310Y-127555675D01*
X168086465Y-127500554D01*
X168095268Y-127442952D01*
X168105474Y-127384274D01*
X168116835Y-127325925D01*
X168129104Y-127269309D01*
X168142036Y-127215832D01*
X168144229Y-127207359D01*
X168164712Y-127135868D01*
X168187412Y-127069626D01*
X168212339Y-127008618D01*
X168239502Y-126952830D01*
X168268909Y-126902248D01*
X168300568Y-126856858D01*
X168334490Y-126816645D01*
X168370682Y-126781595D01*
X168409154Y-126751693D01*
X168435339Y-126735039D01*
X168469094Y-126717653D01*
X168507491Y-126702053D01*
X168549668Y-126688504D01*
X168594767Y-126677270D01*
X168641925Y-126668616D01*
X168659382Y-126666165D01*
X168675982Y-126664590D01*
X168697041Y-126663461D01*
X168721330Y-126662768D01*
X168747617Y-126662505D01*
X168774673Y-126662664D01*
X168774673Y-126662664D01*
G37*
X168774673Y-126662664D02*
X168801267Y-126663237D01*
X168826169Y-126664216D01*
X168848148Y-126665593D01*
X168865975Y-126667361D01*
X168866932Y-126667485D01*
X168895864Y-126671671D01*
X168926437Y-126676726D01*
X168956831Y-126682316D01*
X168985227Y-126688105D01*
X169009805Y-126693758D01*
X169010416Y-126693910D01*
X169026010Y-126697978D01*
X169041823Y-126702415D01*
X169056788Y-126706888D01*
X169069835Y-126711062D01*
X169079896Y-126714603D01*
X169085901Y-126717177D01*
X169086893Y-126717827D01*
X169087136Y-126721153D01*
X169086470Y-126729198D01*
X169085006Y-126741069D01*
X169082856Y-126755869D01*
X169080132Y-126772704D01*
X169079818Y-126774551D01*
X169070469Y-126829213D01*
X168931993Y-126829238D01*
X168902791Y-126829303D01*
X168874010Y-126829478D01*
X168846421Y-126829751D01*
X168820798Y-126830110D01*
X168797916Y-126830543D01*
X168778547Y-126831037D01*
X168763465Y-126831580D01*
X168754696Y-126832063D01*
X168709925Y-126837442D01*
X168668937Y-126846952D01*
X168631399Y-126860765D01*
X168596978Y-126879058D01*
X168565344Y-126902004D01*
X168536162Y-126929778D01*
X168510980Y-126960031D01*
X168490377Y-126989610D01*
X168471239Y-127021624D01*
X168453444Y-127056427D01*
X168436873Y-127094374D01*
X168421404Y-127135820D01*
X168406916Y-127181119D01*
X168393290Y-127230626D01*
X168380404Y-127284696D01*
X168368138Y-127343683D01*
X168356371Y-127407943D01*
X168354103Y-127421245D01*
X168346929Y-127464967D01*
X168340995Y-127503888D01*
X168336229Y-127538758D01*
X168332559Y-127570333D01*
X168329911Y-127599363D01*
X168328215Y-127626602D01*
X168327396Y-127652804D01*
X168327384Y-127678719D01*
X168327762Y-127695382D01*
X168330173Y-127737671D01*
X168334725Y-127775083D01*
X168341559Y-127808084D01*
X168350819Y-127837144D01*
X168362647Y-127862731D01*
X168377184Y-127885312D01*
X168390164Y-127900786D01*
X168408705Y-127918829D01*
X168427624Y-127933213D01*
X168448165Y-127944598D01*
X168471570Y-127953646D01*
X168499082Y-127961018D01*
X168506328Y-127962589D01*
X168518985Y-127964929D01*
X168533215Y-127966938D01*
X168549477Y-127968639D01*
X168568233Y-127970050D01*
X168589944Y-127971191D01*
X168615071Y-127972084D01*
X168644074Y-127972748D01*
X168677416Y-127973202D01*
X168715556Y-127973469D01*
X168757486Y-127973566D01*
X168895545Y-127973640D01*
X168894062Y-127981488D01*
X168893099Y-127986871D01*
X168891383Y-127996756D01*
X168889106Y-128010018D01*
X168886461Y-128025533D01*
X168884497Y-128037122D01*
X168876415Y-128084908D01*
X168859225Y-128090583D01*
X168838845Y-128096679D01*
X168813920Y-128103107D01*
X168785582Y-128109639D01*
X168754966Y-128116045D01*
X168723206Y-128122096D01*
X168691435Y-128127564D01*
X168660788Y-128132218D01*
X168639405Y-128135015D01*
X168625859Y-128136323D01*
X168608281Y-128137542D01*
X168587820Y-128138637D01*
X168565620Y-128139573D01*
X168542830Y-128140316D01*
X168520596Y-128140831D01*
X168500066Y-128141083D01*
X168482385Y-128141036D01*
X168468702Y-128140657D01*
X168463888Y-128140347D01*
X168417471Y-128135740D01*
X168376142Y-128130130D01*
X168339343Y-128123323D01*
X168306513Y-128115130D01*
X168277091Y-128105360D01*
X168250518Y-128093821D01*
X168226232Y-128080323D01*
X168203673Y-128064674D01*
X168182282Y-128046684D01*
X168178329Y-128043009D01*
X168154848Y-128018093D01*
X168134578Y-127990491D01*
X168117302Y-127959722D01*
X168102801Y-127925304D01*
X168090857Y-127886754D01*
X168081251Y-127843591D01*
X168077164Y-127819528D01*
X168074590Y-127798215D01*
X168072641Y-127772483D01*
X168071339Y-127743587D01*
X168070699Y-127712783D01*
X168070741Y-127681327D01*
X168071484Y-127650475D01*
X168072945Y-127621483D01*
X168074051Y-127606910D01*
X168079310Y-127555675D01*
X168086465Y-127500554D01*
X168095268Y-127442952D01*
X168105474Y-127384274D01*
X168116835Y-127325925D01*
X168129104Y-127269309D01*
X168142036Y-127215832D01*
X168144229Y-127207359D01*
X168164712Y-127135868D01*
X168187412Y-127069626D01*
X168212339Y-127008618D01*
X168239502Y-126952830D01*
X168268909Y-126902248D01*
X168300568Y-126856858D01*
X168334490Y-126816645D01*
X168370682Y-126781595D01*
X168409154Y-126751693D01*
X168435339Y-126735039D01*
X168469094Y-126717653D01*
X168507491Y-126702053D01*
X168549668Y-126688504D01*
X168594767Y-126677270D01*
X168641925Y-126668616D01*
X168659382Y-126666165D01*
X168675982Y-126664590D01*
X168697041Y-126663461D01*
X168721330Y-126662768D01*
X168747617Y-126662505D01*
X168774673Y-126662664D01*
G36*
X159595590Y-126126432D02*
X159594729Y-126131161D01*
X159593058Y-126140749D01*
X159590708Y-126154429D01*
X159587810Y-126171430D01*
X159584497Y-126190984D01*
X159580898Y-126212321D01*
X159579624Y-126219898D01*
X159575970Y-126241584D01*
X159572563Y-126261673D01*
X159569532Y-126279412D01*
X159567007Y-126294049D01*
X159565117Y-126304829D01*
X159563993Y-126310999D01*
X159563803Y-126311938D01*
X159562363Y-126318359D01*
X158850171Y-126318359D01*
X158788151Y-126664398D01*
X158780330Y-126708070D01*
X158772795Y-126750204D01*
X158765607Y-126790458D01*
X158758827Y-126828489D01*
X158752516Y-126863952D01*
X158746734Y-126896505D01*
X158741543Y-126925803D01*
X158737004Y-126951504D01*
X158733177Y-126973264D01*
X158730123Y-126990738D01*
X158727903Y-127003585D01*
X158726578Y-127011460D01*
X158726201Y-127014005D01*
X158727262Y-127014598D01*
X158730603Y-127015125D01*
X158736496Y-127015591D01*
X158745214Y-127015998D01*
X158757031Y-127016350D01*
X158772219Y-127016650D01*
X158791050Y-127016901D01*
X158813798Y-127017107D01*
X158840736Y-127017271D01*
X158872136Y-127017395D01*
X158908271Y-127017484D01*
X158949414Y-127017541D01*
X158995838Y-127017569D01*
X159024506Y-127017573D01*
X159074017Y-127017585D01*
X159118094Y-127017625D01*
X159157008Y-127017695D01*
X159191033Y-127017799D01*
X159220441Y-127017940D01*
X159245505Y-127018121D01*
X159266499Y-127018346D01*
X159283695Y-127018617D01*
X159297365Y-127018939D01*
X159307783Y-127019313D01*
X159315222Y-127019745D01*
X159319953Y-127020236D01*
X159322251Y-127020790D01*
X159322576Y-127021140D01*
X159322063Y-127024716D01*
X159320682Y-127033232D01*
X159318550Y-127046003D01*
X159315781Y-127062346D01*
X159312492Y-127081577D01*
X159308798Y-127103014D01*
X159306047Y-127118887D01*
X159289684Y-127213067D01*
X158690692Y-127215921D01*
X158630173Y-127562674D01*
X158622145Y-127608674D01*
X158614126Y-127654622D01*
X158606200Y-127700032D01*
X158598453Y-127744419D01*
X158590969Y-127787297D01*
X158583833Y-127828181D01*
X158577130Y-127866586D01*
X158570945Y-127902026D01*
X158565361Y-127934015D01*
X158560465Y-127962068D01*
X158556340Y-127985700D01*
X158553071Y-128004424D01*
X158551844Y-128011455D01*
X158534032Y-128113483D01*
X158278888Y-128113483D01*
X158282714Y-128092792D01*
X158283494Y-128088429D01*
X158285224Y-128078653D01*
X158287866Y-128063672D01*
X158291385Y-128043694D01*
X158295744Y-128018928D01*
X158300905Y-127989583D01*
X158306833Y-127955867D01*
X158313490Y-127917989D01*
X158320841Y-127876156D01*
X158328848Y-127830579D01*
X158337474Y-127781464D01*
X158346685Y-127729021D01*
X158356441Y-127673459D01*
X158366708Y-127614985D01*
X158377448Y-127553808D01*
X158388625Y-127490137D01*
X158400201Y-127424181D01*
X158412142Y-127356147D01*
X158424409Y-127286245D01*
X158436966Y-127214682D01*
X158449777Y-127141668D01*
X158456528Y-127103191D01*
X158469431Y-127029649D01*
X158482088Y-126957517D01*
X158494462Y-126887002D01*
X158506518Y-126818307D01*
X158518220Y-126751638D01*
X158529531Y-126687199D01*
X158540416Y-126625196D01*
X158550839Y-126565833D01*
X158560763Y-126509316D01*
X158570153Y-126455848D01*
X158578973Y-126405635D01*
X158587187Y-126358883D01*
X158594758Y-126315795D01*
X158601651Y-126276577D01*
X158607830Y-126241433D01*
X158613258Y-126210569D01*
X158617900Y-126184190D01*
X158621720Y-126162500D01*
X158624682Y-126145704D01*
X158626749Y-126134007D01*
X158627887Y-126127614D01*
X158628103Y-126126432D01*
X158629690Y-126118584D01*
X159597173Y-126118584D01*
X159595590Y-126126432D01*
X159595590Y-126126432D01*
G37*
X159595590Y-126126432D02*
X159594729Y-126131161D01*
X159593058Y-126140749D01*
X159590708Y-126154429D01*
X159587810Y-126171430D01*
X159584497Y-126190984D01*
X159580898Y-126212321D01*
X159579624Y-126219898D01*
X159575970Y-126241584D01*
X159572563Y-126261673D01*
X159569532Y-126279412D01*
X159567007Y-126294049D01*
X159565117Y-126304829D01*
X159563993Y-126310999D01*
X159563803Y-126311938D01*
X159562363Y-126318359D01*
X158850171Y-126318359D01*
X158788151Y-126664398D01*
X158780330Y-126708070D01*
X158772795Y-126750204D01*
X158765607Y-126790458D01*
X158758827Y-126828489D01*
X158752516Y-126863952D01*
X158746734Y-126896505D01*
X158741543Y-126925803D01*
X158737004Y-126951504D01*
X158733177Y-126973264D01*
X158730123Y-126990738D01*
X158727903Y-127003585D01*
X158726578Y-127011460D01*
X158726201Y-127014005D01*
X158727262Y-127014598D01*
X158730603Y-127015125D01*
X158736496Y-127015591D01*
X158745214Y-127015998D01*
X158757031Y-127016350D01*
X158772219Y-127016650D01*
X158791050Y-127016901D01*
X158813798Y-127017107D01*
X158840736Y-127017271D01*
X158872136Y-127017395D01*
X158908271Y-127017484D01*
X158949414Y-127017541D01*
X158995838Y-127017569D01*
X159024506Y-127017573D01*
X159074017Y-127017585D01*
X159118094Y-127017625D01*
X159157008Y-127017695D01*
X159191033Y-127017799D01*
X159220441Y-127017940D01*
X159245505Y-127018121D01*
X159266499Y-127018346D01*
X159283695Y-127018617D01*
X159297365Y-127018939D01*
X159307783Y-127019313D01*
X159315222Y-127019745D01*
X159319953Y-127020236D01*
X159322251Y-127020790D01*
X159322576Y-127021140D01*
X159322063Y-127024716D01*
X159320682Y-127033232D01*
X159318550Y-127046003D01*
X159315781Y-127062346D01*
X159312492Y-127081577D01*
X159308798Y-127103014D01*
X159306047Y-127118887D01*
X159289684Y-127213067D01*
X158690692Y-127215921D01*
X158630173Y-127562674D01*
X158622145Y-127608674D01*
X158614126Y-127654622D01*
X158606200Y-127700032D01*
X158598453Y-127744419D01*
X158590969Y-127787297D01*
X158583833Y-127828181D01*
X158577130Y-127866586D01*
X158570945Y-127902026D01*
X158565361Y-127934015D01*
X158560465Y-127962068D01*
X158556340Y-127985700D01*
X158553071Y-128004424D01*
X158551844Y-128011455D01*
X158534032Y-128113483D01*
X158278888Y-128113483D01*
X158282714Y-128092792D01*
X158283494Y-128088429D01*
X158285224Y-128078653D01*
X158287866Y-128063672D01*
X158291385Y-128043694D01*
X158295744Y-128018928D01*
X158300905Y-127989583D01*
X158306833Y-127955867D01*
X158313490Y-127917989D01*
X158320841Y-127876156D01*
X158328848Y-127830579D01*
X158337474Y-127781464D01*
X158346685Y-127729021D01*
X158356441Y-127673459D01*
X158366708Y-127614985D01*
X158377448Y-127553808D01*
X158388625Y-127490137D01*
X158400201Y-127424181D01*
X158412142Y-127356147D01*
X158424409Y-127286245D01*
X158436966Y-127214682D01*
X158449777Y-127141668D01*
X158456528Y-127103191D01*
X158469431Y-127029649D01*
X158482088Y-126957517D01*
X158494462Y-126887002D01*
X158506518Y-126818307D01*
X158518220Y-126751638D01*
X158529531Y-126687199D01*
X158540416Y-126625196D01*
X158550839Y-126565833D01*
X158560763Y-126509316D01*
X158570153Y-126455848D01*
X158578973Y-126405635D01*
X158587187Y-126358883D01*
X158594758Y-126315795D01*
X158601651Y-126276577D01*
X158607830Y-126241433D01*
X158613258Y-126210569D01*
X158617900Y-126184190D01*
X158621720Y-126162500D01*
X158624682Y-126145704D01*
X158626749Y-126134007D01*
X158627887Y-126127614D01*
X158628103Y-126126432D01*
X158629690Y-126118584D01*
X159597173Y-126118584D01*
X159595590Y-126126432D01*
G36*
X160011048Y-126118601D02*
X160036294Y-126118664D01*
X160056791Y-126118790D01*
X160073018Y-126118994D01*
X160085455Y-126119294D01*
X160094581Y-126119706D01*
X160100876Y-126120247D01*
X160104818Y-126120933D01*
X160106887Y-126121782D01*
X160107562Y-126122809D01*
X160107573Y-126122989D01*
X160107087Y-126125967D01*
X160105657Y-126134322D01*
X160103326Y-126147810D01*
X160100136Y-126166186D01*
X160096132Y-126189206D01*
X160091355Y-126216625D01*
X160085848Y-126248199D01*
X160079654Y-126283683D01*
X160072817Y-126322832D01*
X160065378Y-126365403D01*
X160057381Y-126411150D01*
X160048869Y-126459829D01*
X160039884Y-126511196D01*
X160030469Y-126565006D01*
X160020668Y-126621013D01*
X160010522Y-126678975D01*
X160000076Y-126738646D01*
X159989371Y-126799782D01*
X159978451Y-126862138D01*
X159967358Y-126925469D01*
X159956135Y-126989532D01*
X159944826Y-127054081D01*
X159933472Y-127118873D01*
X159922117Y-127183661D01*
X159910804Y-127248203D01*
X159899575Y-127312253D01*
X159888474Y-127375567D01*
X159877543Y-127437901D01*
X159866825Y-127499009D01*
X159856362Y-127558647D01*
X159846199Y-127616572D01*
X159836377Y-127672537D01*
X159826939Y-127726299D01*
X159817929Y-127777613D01*
X159809389Y-127826235D01*
X159801362Y-127871919D01*
X159793891Y-127914422D01*
X159787018Y-127953499D01*
X159780787Y-127988906D01*
X159775241Y-128020397D01*
X159770421Y-128047729D01*
X159766372Y-128070656D01*
X159763136Y-128088934D01*
X159760755Y-128102320D01*
X159760418Y-128104207D01*
X159758758Y-128113483D01*
X159632076Y-128113483D01*
X159601780Y-128113469D01*
X159576705Y-128113416D01*
X159556362Y-128113305D01*
X159540263Y-128113118D01*
X159527921Y-128112837D01*
X159518848Y-128112444D01*
X159512556Y-128111920D01*
X159508558Y-128111246D01*
X159506365Y-128110405D01*
X159505490Y-128109379D01*
X159505394Y-128108738D01*
X159505882Y-128105601D01*
X159507324Y-128097045D01*
X159509684Y-128083271D01*
X159512927Y-128064480D01*
X159517017Y-128040875D01*
X159521920Y-128012656D01*
X159527600Y-127980026D01*
X159534022Y-127943186D01*
X159541150Y-127902338D01*
X159548949Y-127857684D01*
X159557385Y-127809426D01*
X159566421Y-127757764D01*
X159576023Y-127702902D01*
X159586155Y-127645040D01*
X159596782Y-127584380D01*
X159607868Y-127521124D01*
X159619379Y-127455474D01*
X159631279Y-127387631D01*
X159643533Y-127317797D01*
X159656106Y-127246174D01*
X159668961Y-127172963D01*
X159679483Y-127113063D01*
X159692537Y-127038753D01*
X159705337Y-126965885D01*
X159717846Y-126894658D01*
X159730030Y-126825273D01*
X159741853Y-126757932D01*
X159753281Y-126692835D01*
X159764278Y-126630183D01*
X159774808Y-126570177D01*
X159784837Y-126513018D01*
X159794330Y-126458907D01*
X159803250Y-126408044D01*
X159811564Y-126360632D01*
X159819235Y-126316869D01*
X159826228Y-126276959D01*
X159832509Y-126241100D01*
X159838042Y-126209495D01*
X159842791Y-126182344D01*
X159846722Y-126159848D01*
X159849799Y-126142208D01*
X159851987Y-126129625D01*
X159853251Y-126122300D01*
X159853573Y-126120358D01*
X159856332Y-126119991D01*
X159864225Y-126119649D01*
X159876681Y-126119341D01*
X159893126Y-126119074D01*
X159912989Y-126118858D01*
X159935695Y-126118699D01*
X159960672Y-126118606D01*
X159980573Y-126118584D01*
X160011048Y-126118601D01*
X160011048Y-126118601D01*
G37*
X160011048Y-126118601D02*
X160036294Y-126118664D01*
X160056791Y-126118790D01*
X160073018Y-126118994D01*
X160085455Y-126119294D01*
X160094581Y-126119706D01*
X160100876Y-126120247D01*
X160104818Y-126120933D01*
X160106887Y-126121782D01*
X160107562Y-126122809D01*
X160107573Y-126122989D01*
X160107087Y-126125967D01*
X160105657Y-126134322D01*
X160103326Y-126147810D01*
X160100136Y-126166186D01*
X160096132Y-126189206D01*
X160091355Y-126216625D01*
X160085848Y-126248199D01*
X160079654Y-126283683D01*
X160072817Y-126322832D01*
X160065378Y-126365403D01*
X160057381Y-126411150D01*
X160048869Y-126459829D01*
X160039884Y-126511196D01*
X160030469Y-126565006D01*
X160020668Y-126621013D01*
X160010522Y-126678975D01*
X160000076Y-126738646D01*
X159989371Y-126799782D01*
X159978451Y-126862138D01*
X159967358Y-126925469D01*
X159956135Y-126989532D01*
X159944826Y-127054081D01*
X159933472Y-127118873D01*
X159922117Y-127183661D01*
X159910804Y-127248203D01*
X159899575Y-127312253D01*
X159888474Y-127375567D01*
X159877543Y-127437901D01*
X159866825Y-127499009D01*
X159856362Y-127558647D01*
X159846199Y-127616572D01*
X159836377Y-127672537D01*
X159826939Y-127726299D01*
X159817929Y-127777613D01*
X159809389Y-127826235D01*
X159801362Y-127871919D01*
X159793891Y-127914422D01*
X159787018Y-127953499D01*
X159780787Y-127988906D01*
X159775241Y-128020397D01*
X159770421Y-128047729D01*
X159766372Y-128070656D01*
X159763136Y-128088934D01*
X159760755Y-128102320D01*
X159760418Y-128104207D01*
X159758758Y-128113483D01*
X159632076Y-128113483D01*
X159601780Y-128113469D01*
X159576705Y-128113416D01*
X159556362Y-128113305D01*
X159540263Y-128113118D01*
X159527921Y-128112837D01*
X159518848Y-128112444D01*
X159512556Y-128111920D01*
X159508558Y-128111246D01*
X159506365Y-128110405D01*
X159505490Y-128109379D01*
X159505394Y-128108738D01*
X159505882Y-128105601D01*
X159507324Y-128097045D01*
X159509684Y-128083271D01*
X159512927Y-128064480D01*
X159517017Y-128040875D01*
X159521920Y-128012656D01*
X159527600Y-127980026D01*
X159534022Y-127943186D01*
X159541150Y-127902338D01*
X159548949Y-127857684D01*
X159557385Y-127809426D01*
X159566421Y-127757764D01*
X159576023Y-127702902D01*
X159586155Y-127645040D01*
X159596782Y-127584380D01*
X159607868Y-127521124D01*
X159619379Y-127455474D01*
X159631279Y-127387631D01*
X159643533Y-127317797D01*
X159656106Y-127246174D01*
X159668961Y-127172963D01*
X159679483Y-127113063D01*
X159692537Y-127038753D01*
X159705337Y-126965885D01*
X159717846Y-126894658D01*
X159730030Y-126825273D01*
X159741853Y-126757932D01*
X159753281Y-126692835D01*
X159764278Y-126630183D01*
X159774808Y-126570177D01*
X159784837Y-126513018D01*
X159794330Y-126458907D01*
X159803250Y-126408044D01*
X159811564Y-126360632D01*
X159819235Y-126316869D01*
X159826228Y-126276959D01*
X159832509Y-126241100D01*
X159838042Y-126209495D01*
X159842791Y-126182344D01*
X159846722Y-126159848D01*
X159849799Y-126142208D01*
X159851987Y-126129625D01*
X159853251Y-126122300D01*
X159853573Y-126120358D01*
X159856332Y-126119991D01*
X159864225Y-126119649D01*
X159876681Y-126119341D01*
X159893126Y-126119074D01*
X159912989Y-126118858D01*
X159935695Y-126118699D01*
X159960672Y-126118606D01*
X159980573Y-126118584D01*
X160011048Y-126118601D01*
G36*
X160471424Y-126689774D02*
X160494202Y-126689840D01*
X160519228Y-126689948D01*
X160538950Y-126690054D01*
X160665849Y-126690797D01*
X160540935Y-127400000D01*
X160529881Y-127462767D01*
X160519087Y-127524063D01*
X160508597Y-127583651D01*
X160498451Y-127641292D01*
X160488692Y-127696749D01*
X160479361Y-127749783D01*
X160470501Y-127800158D01*
X160462152Y-127847634D01*
X160454357Y-127891975D01*
X160447157Y-127932942D01*
X160440595Y-127970298D01*
X160434711Y-128003804D01*
X160429549Y-128033224D01*
X160425149Y-128058318D01*
X160421554Y-128078850D01*
X160418805Y-128094581D01*
X160416945Y-128105273D01*
X160416014Y-128110690D01*
X160415910Y-128111342D01*
X160413128Y-128111786D01*
X160405211Y-128112198D01*
X160392734Y-128112570D01*
X160376269Y-128112891D01*
X160356390Y-128113152D01*
X160333670Y-128113344D01*
X160308683Y-128113456D01*
X160288798Y-128113483D01*
X160256998Y-128113447D01*
X160230522Y-128113334D01*
X160208989Y-128113133D01*
X160192015Y-128112834D01*
X160179219Y-128112425D01*
X160170216Y-128111897D01*
X160164626Y-128111240D01*
X160162064Y-128110442D01*
X160161798Y-128110026D01*
X160162284Y-128106952D01*
X160163708Y-128098557D01*
X160166020Y-128085131D01*
X160169169Y-128066962D01*
X160173103Y-128044339D01*
X160177772Y-128017553D01*
X160183125Y-127986891D01*
X160189112Y-127952643D01*
X160195681Y-127915099D01*
X160202781Y-127874547D01*
X160210362Y-127831277D01*
X160218374Y-127785577D01*
X160226764Y-127737738D01*
X160235482Y-127688047D01*
X160244478Y-127636795D01*
X160253701Y-127584271D01*
X160263099Y-127530763D01*
X160272622Y-127476561D01*
X160282219Y-127421954D01*
X160291839Y-127367232D01*
X160301432Y-127312682D01*
X160310946Y-127258596D01*
X160320331Y-127205261D01*
X160329536Y-127152967D01*
X160338510Y-127102003D01*
X160347202Y-127052659D01*
X160355562Y-127005223D01*
X160363538Y-126959984D01*
X160371079Y-126917233D01*
X160378136Y-126877257D01*
X160384657Y-126840347D01*
X160390590Y-126806791D01*
X160395886Y-126776878D01*
X160400494Y-126750898D01*
X160404362Y-126729140D01*
X160407440Y-126711894D01*
X160409677Y-126699447D01*
X160411023Y-126692090D01*
X160411426Y-126690054D01*
X160414317Y-126689916D01*
X160422339Y-126689819D01*
X160434916Y-126689763D01*
X160451469Y-126689748D01*
X160471424Y-126689774D01*
X160471424Y-126689774D01*
G37*
X160471424Y-126689774D02*
X160494202Y-126689840D01*
X160519228Y-126689948D01*
X160538950Y-126690054D01*
X160665849Y-126690797D01*
X160540935Y-127400000D01*
X160529881Y-127462767D01*
X160519087Y-127524063D01*
X160508597Y-127583651D01*
X160498451Y-127641292D01*
X160488692Y-127696749D01*
X160479361Y-127749783D01*
X160470501Y-127800158D01*
X160462152Y-127847634D01*
X160454357Y-127891975D01*
X160447157Y-127932942D01*
X160440595Y-127970298D01*
X160434711Y-128003804D01*
X160429549Y-128033224D01*
X160425149Y-128058318D01*
X160421554Y-128078850D01*
X160418805Y-128094581D01*
X160416945Y-128105273D01*
X160416014Y-128110690D01*
X160415910Y-128111342D01*
X160413128Y-128111786D01*
X160405211Y-128112198D01*
X160392734Y-128112570D01*
X160376269Y-128112891D01*
X160356390Y-128113152D01*
X160333670Y-128113344D01*
X160308683Y-128113456D01*
X160288798Y-128113483D01*
X160256998Y-128113447D01*
X160230522Y-128113334D01*
X160208989Y-128113133D01*
X160192015Y-128112834D01*
X160179219Y-128112425D01*
X160170216Y-128111897D01*
X160164626Y-128111240D01*
X160162064Y-128110442D01*
X160161798Y-128110026D01*
X160162284Y-128106952D01*
X160163708Y-128098557D01*
X160166020Y-128085131D01*
X160169169Y-128066962D01*
X160173103Y-128044339D01*
X160177772Y-128017553D01*
X160183125Y-127986891D01*
X160189112Y-127952643D01*
X160195681Y-127915099D01*
X160202781Y-127874547D01*
X160210362Y-127831277D01*
X160218374Y-127785577D01*
X160226764Y-127737738D01*
X160235482Y-127688047D01*
X160244478Y-127636795D01*
X160253701Y-127584271D01*
X160263099Y-127530763D01*
X160272622Y-127476561D01*
X160282219Y-127421954D01*
X160291839Y-127367232D01*
X160301432Y-127312682D01*
X160310946Y-127258596D01*
X160320331Y-127205261D01*
X160329536Y-127152967D01*
X160338510Y-127102003D01*
X160347202Y-127052659D01*
X160355562Y-127005223D01*
X160363538Y-126959984D01*
X160371079Y-126917233D01*
X160378136Y-126877257D01*
X160384657Y-126840347D01*
X160390590Y-126806791D01*
X160395886Y-126776878D01*
X160400494Y-126750898D01*
X160404362Y-126729140D01*
X160407440Y-126711894D01*
X160409677Y-126699447D01*
X160411023Y-126692090D01*
X160411426Y-126690054D01*
X160414317Y-126689916D01*
X160422339Y-126689819D01*
X160434916Y-126689763D01*
X160451469Y-126689748D01*
X160471424Y-126689774D01*
G36*
X162727618Y-126118987D02*
X162739056Y-126119053D01*
X162745795Y-126119159D01*
X162747423Y-126119268D01*
X162746932Y-126122119D01*
X162745511Y-126130229D01*
X162743225Y-126143236D01*
X162740138Y-126160776D01*
X162736312Y-126182490D01*
X162731813Y-126208013D01*
X162726703Y-126236984D01*
X162721047Y-126269041D01*
X162714909Y-126303822D01*
X162708352Y-126340965D01*
X162701441Y-126380107D01*
X162694238Y-126420886D01*
X162693444Y-126425382D01*
X162686222Y-126466315D01*
X162679296Y-126505650D01*
X162672732Y-126543025D01*
X162666590Y-126578078D01*
X162660934Y-126610447D01*
X162655827Y-126639770D01*
X162651333Y-126665684D01*
X162647513Y-126687828D01*
X162644431Y-126705840D01*
X162642149Y-126719357D01*
X162640732Y-126728017D01*
X162640241Y-126731459D01*
X162640246Y-126731503D01*
X162643018Y-126730832D01*
X162649525Y-126728344D01*
X162657625Y-126724895D01*
X162671562Y-126719187D01*
X162689555Y-126712492D01*
X162710150Y-126705299D01*
X162731891Y-126698098D01*
X162753321Y-126691379D01*
X162772985Y-126685631D01*
X162780281Y-126683648D01*
X162823133Y-126673996D01*
X162867724Y-126667077D01*
X162913265Y-126662855D01*
X162958966Y-126661293D01*
X163004040Y-126662356D01*
X163047696Y-126666007D01*
X163089146Y-126672209D01*
X163127600Y-126680928D01*
X163162271Y-126692125D01*
X163185540Y-126702240D01*
X163213552Y-126718968D01*
X163239428Y-126740022D01*
X163261979Y-126764304D01*
X163278633Y-126788320D01*
X163291095Y-126814013D01*
X163301108Y-126844155D01*
X163308570Y-126877991D01*
X163313383Y-126914768D01*
X163315446Y-126953733D01*
X163314659Y-126994131D01*
X163311155Y-127033354D01*
X163310377Y-127038508D01*
X163308676Y-127048939D01*
X163306114Y-127064303D01*
X163302749Y-127084254D01*
X163298642Y-127108448D01*
X163293852Y-127136538D01*
X163288439Y-127168180D01*
X163282464Y-127203029D01*
X163275985Y-127240739D01*
X163269063Y-127280966D01*
X163261757Y-127323364D01*
X163254127Y-127367588D01*
X163246234Y-127413293D01*
X163238136Y-127460134D01*
X163229894Y-127507766D01*
X163221568Y-127555842D01*
X163213217Y-127604020D01*
X163204901Y-127651952D01*
X163196680Y-127699294D01*
X163188614Y-127745701D01*
X163180762Y-127790828D01*
X163173185Y-127834329D01*
X163165942Y-127875859D01*
X163159093Y-127915074D01*
X163152697Y-127951628D01*
X163146816Y-127985176D01*
X163141507Y-128015372D01*
X163136833Y-128041872D01*
X163132851Y-128064330D01*
X163129622Y-128082401D01*
X163127205Y-128095741D01*
X163125662Y-128104003D01*
X163125338Y-128105634D01*
X163123727Y-128113483D01*
X162869451Y-128113483D01*
X162871381Y-128101353D01*
X162872071Y-128097303D01*
X162873698Y-128087920D01*
X162876211Y-128073494D01*
X162879558Y-128054317D01*
X162883690Y-128030676D01*
X162888556Y-128002863D01*
X162894104Y-127971166D01*
X162900284Y-127935876D01*
X162907046Y-127897283D01*
X162914338Y-127855676D01*
X162922110Y-127811345D01*
X162930311Y-127764579D01*
X162938890Y-127715669D01*
X162947797Y-127664905D01*
X162956980Y-127612575D01*
X162961982Y-127584078D01*
X162972973Y-127521453D01*
X162983019Y-127464185D01*
X162992161Y-127412008D01*
X163000445Y-127364658D01*
X163007913Y-127321870D01*
X163014607Y-127283380D01*
X163020573Y-127248922D01*
X163025853Y-127218231D01*
X163030489Y-127191043D01*
X163034527Y-127167093D01*
X163038008Y-127146116D01*
X163040976Y-127127847D01*
X163043475Y-127112021D01*
X163045547Y-127098373D01*
X163047236Y-127086639D01*
X163048586Y-127076554D01*
X163049640Y-127067852D01*
X163050440Y-127060270D01*
X163051030Y-127053541D01*
X163051454Y-127047402D01*
X163051755Y-127041587D01*
X163051976Y-127035832D01*
X163052066Y-127033032D01*
X163052532Y-127014760D01*
X163052585Y-127000812D01*
X163052132Y-126989815D01*
X163051082Y-126980395D01*
X163049343Y-126971176D01*
X163047418Y-126963111D01*
X163043562Y-126949625D01*
X163038939Y-126936040D01*
X163034455Y-126924993D01*
X163033827Y-126923668D01*
X163025480Y-126910084D01*
X163013597Y-126895281D01*
X162999652Y-126880779D01*
X162985118Y-126868096D01*
X162971469Y-126858751D01*
X162970108Y-126858004D01*
X162948316Y-126848672D01*
X162922175Y-126841265D01*
X162892737Y-126835859D01*
X162861053Y-126832530D01*
X162828174Y-126831353D01*
X162795152Y-126832406D01*
X162763038Y-126835763D01*
X162734892Y-126841023D01*
X162710673Y-126847429D01*
X162685170Y-126855474D01*
X162660437Y-126864444D01*
X162638525Y-126873625D01*
X162631347Y-126877030D01*
X162610840Y-126887168D01*
X162607656Y-126905994D01*
X162606861Y-126910607D01*
X162605132Y-126920573D01*
X162602517Y-126935621D01*
X162599063Y-126955482D01*
X162594816Y-126979886D01*
X162589823Y-127008562D01*
X162584132Y-127041241D01*
X162577790Y-127077651D01*
X162570843Y-127117524D01*
X162563339Y-127160589D01*
X162555325Y-127206576D01*
X162546848Y-127255214D01*
X162537955Y-127306234D01*
X162528693Y-127359366D01*
X162519109Y-127414339D01*
X162509250Y-127470884D01*
X162500958Y-127518438D01*
X162397445Y-128112056D01*
X162269801Y-128112799D01*
X162142158Y-128113542D01*
X162143874Y-128104237D01*
X162144492Y-128100754D01*
X162146062Y-128091853D01*
X162148547Y-128077736D01*
X162151912Y-128058608D01*
X162156122Y-128034671D01*
X162161140Y-128006129D01*
X162166931Y-127973185D01*
X162173460Y-127936042D01*
X162180690Y-127894904D01*
X162188585Y-127849974D01*
X162197111Y-127801455D01*
X162206231Y-127749551D01*
X162215910Y-127694464D01*
X162226111Y-127636400D01*
X162236799Y-127575559D01*
X162247939Y-127512147D01*
X162259495Y-127446365D01*
X162271430Y-127378419D01*
X162283710Y-127308510D01*
X162296298Y-127236842D01*
X162309159Y-127163619D01*
X162319020Y-127107471D01*
X162492449Y-126120011D01*
X162619955Y-126119268D01*
X162646313Y-126119130D01*
X162670830Y-126119034D01*
X162692934Y-126118977D01*
X162712054Y-126118962D01*
X162727618Y-126118987D01*
X162727618Y-126118987D01*
G37*
X162727618Y-126118987D02*
X162739056Y-126119053D01*
X162745795Y-126119159D01*
X162747423Y-126119268D01*
X162746932Y-126122119D01*
X162745511Y-126130229D01*
X162743225Y-126143236D01*
X162740138Y-126160776D01*
X162736312Y-126182490D01*
X162731813Y-126208013D01*
X162726703Y-126236984D01*
X162721047Y-126269041D01*
X162714909Y-126303822D01*
X162708352Y-126340965D01*
X162701441Y-126380107D01*
X162694238Y-126420886D01*
X162693444Y-126425382D01*
X162686222Y-126466315D01*
X162679296Y-126505650D01*
X162672732Y-126543025D01*
X162666590Y-126578078D01*
X162660934Y-126610447D01*
X162655827Y-126639770D01*
X162651333Y-126665684D01*
X162647513Y-126687828D01*
X162644431Y-126705840D01*
X162642149Y-126719357D01*
X162640732Y-126728017D01*
X162640241Y-126731459D01*
X162640246Y-126731503D01*
X162643018Y-126730832D01*
X162649525Y-126728344D01*
X162657625Y-126724895D01*
X162671562Y-126719187D01*
X162689555Y-126712492D01*
X162710150Y-126705299D01*
X162731891Y-126698098D01*
X162753321Y-126691379D01*
X162772985Y-126685631D01*
X162780281Y-126683648D01*
X162823133Y-126673996D01*
X162867724Y-126667077D01*
X162913265Y-126662855D01*
X162958966Y-126661293D01*
X163004040Y-126662356D01*
X163047696Y-126666007D01*
X163089146Y-126672209D01*
X163127600Y-126680928D01*
X163162271Y-126692125D01*
X163185540Y-126702240D01*
X163213552Y-126718968D01*
X163239428Y-126740022D01*
X163261979Y-126764304D01*
X163278633Y-126788320D01*
X163291095Y-126814013D01*
X163301108Y-126844155D01*
X163308570Y-126877991D01*
X163313383Y-126914768D01*
X163315446Y-126953733D01*
X163314659Y-126994131D01*
X163311155Y-127033354D01*
X163310377Y-127038508D01*
X163308676Y-127048939D01*
X163306114Y-127064303D01*
X163302749Y-127084254D01*
X163298642Y-127108448D01*
X163293852Y-127136538D01*
X163288439Y-127168180D01*
X163282464Y-127203029D01*
X163275985Y-127240739D01*
X163269063Y-127280966D01*
X163261757Y-127323364D01*
X163254127Y-127367588D01*
X163246234Y-127413293D01*
X163238136Y-127460134D01*
X163229894Y-127507766D01*
X163221568Y-127555842D01*
X163213217Y-127604020D01*
X163204901Y-127651952D01*
X163196680Y-127699294D01*
X163188614Y-127745701D01*
X163180762Y-127790828D01*
X163173185Y-127834329D01*
X163165942Y-127875859D01*
X163159093Y-127915074D01*
X163152697Y-127951628D01*
X163146816Y-127985176D01*
X163141507Y-128015372D01*
X163136833Y-128041872D01*
X163132851Y-128064330D01*
X163129622Y-128082401D01*
X163127205Y-128095741D01*
X163125662Y-128104003D01*
X163125338Y-128105634D01*
X163123727Y-128113483D01*
X162869451Y-128113483D01*
X162871381Y-128101353D01*
X162872071Y-128097303D01*
X162873698Y-128087920D01*
X162876211Y-128073494D01*
X162879558Y-128054317D01*
X162883690Y-128030676D01*
X162888556Y-128002863D01*
X162894104Y-127971166D01*
X162900284Y-127935876D01*
X162907046Y-127897283D01*
X162914338Y-127855676D01*
X162922110Y-127811345D01*
X162930311Y-127764579D01*
X162938890Y-127715669D01*
X162947797Y-127664905D01*
X162956980Y-127612575D01*
X162961982Y-127584078D01*
X162972973Y-127521453D01*
X162983019Y-127464185D01*
X162992161Y-127412008D01*
X163000445Y-127364658D01*
X163007913Y-127321870D01*
X163014607Y-127283380D01*
X163020573Y-127248922D01*
X163025853Y-127218231D01*
X163030489Y-127191043D01*
X163034527Y-127167093D01*
X163038008Y-127146116D01*
X163040976Y-127127847D01*
X163043475Y-127112021D01*
X163045547Y-127098373D01*
X163047236Y-127086639D01*
X163048586Y-127076554D01*
X163049640Y-127067852D01*
X163050440Y-127060270D01*
X163051030Y-127053541D01*
X163051454Y-127047402D01*
X163051755Y-127041587D01*
X163051976Y-127035832D01*
X163052066Y-127033032D01*
X163052532Y-127014760D01*
X163052585Y-127000812D01*
X163052132Y-126989815D01*
X163051082Y-126980395D01*
X163049343Y-126971176D01*
X163047418Y-126963111D01*
X163043562Y-126949625D01*
X163038939Y-126936040D01*
X163034455Y-126924993D01*
X163033827Y-126923668D01*
X163025480Y-126910084D01*
X163013597Y-126895281D01*
X162999652Y-126880779D01*
X162985118Y-126868096D01*
X162971469Y-126858751D01*
X162970108Y-126858004D01*
X162948316Y-126848672D01*
X162922175Y-126841265D01*
X162892737Y-126835859D01*
X162861053Y-126832530D01*
X162828174Y-126831353D01*
X162795152Y-126832406D01*
X162763038Y-126835763D01*
X162734892Y-126841023D01*
X162710673Y-126847429D01*
X162685170Y-126855474D01*
X162660437Y-126864444D01*
X162638525Y-126873625D01*
X162631347Y-126877030D01*
X162610840Y-126887168D01*
X162607656Y-126905994D01*
X162606861Y-126910607D01*
X162605132Y-126920573D01*
X162602517Y-126935621D01*
X162599063Y-126955482D01*
X162594816Y-126979886D01*
X162589823Y-127008562D01*
X162584132Y-127041241D01*
X162577790Y-127077651D01*
X162570843Y-127117524D01*
X162563339Y-127160589D01*
X162555325Y-127206576D01*
X162546848Y-127255214D01*
X162537955Y-127306234D01*
X162528693Y-127359366D01*
X162519109Y-127414339D01*
X162509250Y-127470884D01*
X162500958Y-127518438D01*
X162397445Y-128112056D01*
X162269801Y-128112799D01*
X162142158Y-128113542D01*
X162143874Y-128104237D01*
X162144492Y-128100754D01*
X162146062Y-128091853D01*
X162148547Y-128077736D01*
X162151912Y-128058608D01*
X162156122Y-128034671D01*
X162161140Y-128006129D01*
X162166931Y-127973185D01*
X162173460Y-127936042D01*
X162180690Y-127894904D01*
X162188585Y-127849974D01*
X162197111Y-127801455D01*
X162206231Y-127749551D01*
X162215910Y-127694464D01*
X162226111Y-127636400D01*
X162236799Y-127575559D01*
X162247939Y-127512147D01*
X162259495Y-127446365D01*
X162271430Y-127378419D01*
X162283710Y-127308510D01*
X162296298Y-127236842D01*
X162309159Y-127163619D01*
X162319020Y-127107471D01*
X162492449Y-126120011D01*
X162619955Y-126119268D01*
X162646313Y-126119130D01*
X162670830Y-126119034D01*
X162692934Y-126118977D01*
X162712054Y-126118962D01*
X162727618Y-126118987D01*
G36*
X169702584Y-126118987D02*
X169714027Y-126119052D01*
X169720772Y-126119159D01*
X169722406Y-126119268D01*
X169721909Y-126122107D01*
X169720464Y-126130311D01*
X169718115Y-126143625D01*
X169714907Y-126161792D01*
X169710886Y-126184557D01*
X169706096Y-126211665D01*
X169700584Y-126242860D01*
X169694393Y-126277885D01*
X169687569Y-126316486D01*
X169680158Y-126358407D01*
X169672204Y-126403393D01*
X169663753Y-126451186D01*
X169654850Y-126501533D01*
X169645541Y-126554177D01*
X169635869Y-126608863D01*
X169625882Y-126665335D01*
X169615623Y-126723337D01*
X169614311Y-126730752D01*
X169604026Y-126788934D01*
X169594016Y-126845621D01*
X169584326Y-126900559D01*
X169575002Y-126953490D01*
X169566087Y-127004159D01*
X169557627Y-127052310D01*
X169549666Y-127097688D01*
X169542249Y-127140036D01*
X169535421Y-127179098D01*
X169529225Y-127214620D01*
X169523708Y-127246344D01*
X169518914Y-127274016D01*
X169514887Y-127297379D01*
X169511673Y-127316177D01*
X169509315Y-127330154D01*
X169507859Y-127339056D01*
X169507350Y-127342625D01*
X169507355Y-127342683D01*
X169509370Y-127342683D01*
X169511241Y-127340365D01*
X169516500Y-127333853D01*
X169524947Y-127323394D01*
X169536384Y-127309234D01*
X169550612Y-127291620D01*
X169567431Y-127270798D01*
X169586643Y-127247015D01*
X169608048Y-127220516D01*
X169631447Y-127191550D01*
X169656642Y-127160361D01*
X169683433Y-127127196D01*
X169711621Y-127092303D01*
X169741007Y-127055926D01*
X169771392Y-127018314D01*
X169773719Y-127015432D01*
X170037126Y-126689370D01*
X170178384Y-126689370D01*
X170210412Y-126689379D01*
X170237183Y-126689417D01*
X170259150Y-126689499D01*
X170276765Y-126689642D01*
X170290479Y-126689862D01*
X170300743Y-126690176D01*
X170308010Y-126690600D01*
X170312731Y-126691149D01*
X170315358Y-126691841D01*
X170316344Y-126692691D01*
X170316138Y-126693716D01*
X170315726Y-126694303D01*
X170313471Y-126697026D01*
X170307757Y-126703880D01*
X170298787Y-126714619D01*
X170286769Y-126729000D01*
X170271905Y-126746776D01*
X170254402Y-126767704D01*
X170234465Y-126791537D01*
X170212298Y-126818031D01*
X170188106Y-126846941D01*
X170162095Y-126878021D01*
X170134470Y-126911027D01*
X170105435Y-126945714D01*
X170075195Y-126981837D01*
X170043956Y-127019149D01*
X170039259Y-127024760D01*
X170007897Y-127062218D01*
X169977509Y-127098516D01*
X169948299Y-127133410D01*
X169920472Y-127166653D01*
X169894233Y-127198003D01*
X169869786Y-127227214D01*
X169847335Y-127254042D01*
X169827086Y-127278242D01*
X169809244Y-127299571D01*
X169794011Y-127317782D01*
X169781595Y-127332632D01*
X169772198Y-127343877D01*
X169766025Y-127351271D01*
X169763282Y-127354570D01*
X169763179Y-127354697D01*
X169763012Y-127355989D01*
X169763623Y-127358723D01*
X169765119Y-127363128D01*
X169767609Y-127369433D01*
X169771200Y-127377868D01*
X169776002Y-127388663D01*
X169782122Y-127402046D01*
X169789669Y-127418249D01*
X169798751Y-127437499D01*
X169809476Y-127460027D01*
X169821953Y-127486063D01*
X169836290Y-127515835D01*
X169852596Y-127549573D01*
X169870978Y-127587508D01*
X169891546Y-127629868D01*
X169914407Y-127676883D01*
X169939669Y-127728782D01*
X169940821Y-127731147D01*
X169961927Y-127774502D01*
X169982359Y-127816493D01*
X170001974Y-127856831D01*
X170020633Y-127895226D01*
X170038194Y-127931385D01*
X170054517Y-127965020D01*
X170069462Y-127995840D01*
X170082886Y-128023554D01*
X170094650Y-128047872D01*
X170104612Y-128068503D01*
X170112632Y-128085156D01*
X170118569Y-128097542D01*
X170122283Y-128105370D01*
X170123627Y-128108333D01*
X170123778Y-128109502D01*
X170123117Y-128110479D01*
X170121182Y-128111283D01*
X170117513Y-128111929D01*
X170111647Y-128112434D01*
X170103124Y-128112817D01*
X170091482Y-128113094D01*
X170076259Y-128113281D01*
X170056994Y-128113397D01*
X170033226Y-128113457D01*
X170004493Y-128113480D01*
X169984314Y-128113483D01*
X169843367Y-128113483D01*
X169674084Y-127746039D01*
X169654149Y-127702784D01*
X169634851Y-127660943D01*
X169616327Y-127620810D01*
X169598712Y-127582679D01*
X169582144Y-127546844D01*
X169566759Y-127513600D01*
X169552692Y-127483241D01*
X169540081Y-127456060D01*
X169529062Y-127432353D01*
X169519771Y-127412412D01*
X169512344Y-127396533D01*
X169506918Y-127385009D01*
X169503629Y-127378134D01*
X169502622Y-127376173D01*
X169502267Y-127375597D01*
X169501971Y-127374948D01*
X169501682Y-127374504D01*
X169501350Y-127374541D01*
X169500926Y-127375339D01*
X169500358Y-127377175D01*
X169499596Y-127380328D01*
X169498591Y-127385076D01*
X169497291Y-127391696D01*
X169495646Y-127400467D01*
X169493606Y-127411667D01*
X169491120Y-127425573D01*
X169488138Y-127442465D01*
X169484610Y-127462620D01*
X169480485Y-127486316D01*
X169475713Y-127513831D01*
X169470243Y-127545444D01*
X169464025Y-127581432D01*
X169457010Y-127622074D01*
X169449145Y-127667647D01*
X169440381Y-127718430D01*
X169435739Y-127745325D01*
X169428081Y-127789674D01*
X169420674Y-127832527D01*
X169413579Y-127873540D01*
X169406855Y-127912371D01*
X169400561Y-127948676D01*
X169394758Y-127982113D01*
X169389505Y-128012339D01*
X169384862Y-128039009D01*
X169380887Y-128061782D01*
X169377642Y-128080314D01*
X169375185Y-128094261D01*
X169373577Y-128103281D01*
X169372876Y-128107031D01*
X169372869Y-128107061D01*
X169371330Y-128113483D01*
X169244384Y-128113483D01*
X169218089Y-128113436D01*
X169193639Y-128113303D01*
X169171606Y-128113093D01*
X169152563Y-128112816D01*
X169137083Y-128112481D01*
X169125736Y-128112098D01*
X169119096Y-128111677D01*
X169117549Y-128111342D01*
X169118046Y-128108403D01*
X169119496Y-128100043D01*
X169121864Y-128086463D01*
X169125115Y-128067863D01*
X169129214Y-128044444D01*
X169134125Y-128016406D01*
X169139813Y-127983950D01*
X169146243Y-127947278D01*
X169153380Y-127906588D01*
X169161189Y-127862083D01*
X169169634Y-127813962D01*
X169178680Y-127762426D01*
X169188292Y-127707677D01*
X169198435Y-127649914D01*
X169209073Y-127589338D01*
X169220172Y-127526150D01*
X169231696Y-127460550D01*
X169243610Y-127392739D01*
X169255878Y-127322918D01*
X169268466Y-127251288D01*
X169281338Y-127178048D01*
X169292489Y-127114606D01*
X169467318Y-126120011D01*
X169594895Y-126119268D01*
X169621259Y-126119130D01*
X169645782Y-126119034D01*
X169667891Y-126118977D01*
X169687015Y-126118962D01*
X169702584Y-126118987D01*
X169702584Y-126118987D01*
G37*
X169702584Y-126118987D02*
X169714027Y-126119052D01*
X169720772Y-126119159D01*
X169722406Y-126119268D01*
X169721909Y-126122107D01*
X169720464Y-126130311D01*
X169718115Y-126143625D01*
X169714907Y-126161792D01*
X169710886Y-126184557D01*
X169706096Y-126211665D01*
X169700584Y-126242860D01*
X169694393Y-126277885D01*
X169687569Y-126316486D01*
X169680158Y-126358407D01*
X169672204Y-126403393D01*
X169663753Y-126451186D01*
X169654850Y-126501533D01*
X169645541Y-126554177D01*
X169635869Y-126608863D01*
X169625882Y-126665335D01*
X169615623Y-126723337D01*
X169614311Y-126730752D01*
X169604026Y-126788934D01*
X169594016Y-126845621D01*
X169584326Y-126900559D01*
X169575002Y-126953490D01*
X169566087Y-127004159D01*
X169557627Y-127052310D01*
X169549666Y-127097688D01*
X169542249Y-127140036D01*
X169535421Y-127179098D01*
X169529225Y-127214620D01*
X169523708Y-127246344D01*
X169518914Y-127274016D01*
X169514887Y-127297379D01*
X169511673Y-127316177D01*
X169509315Y-127330154D01*
X169507859Y-127339056D01*
X169507350Y-127342625D01*
X169507355Y-127342683D01*
X169509370Y-127342683D01*
X169511241Y-127340365D01*
X169516500Y-127333853D01*
X169524947Y-127323394D01*
X169536384Y-127309234D01*
X169550612Y-127291620D01*
X169567431Y-127270798D01*
X169586643Y-127247015D01*
X169608048Y-127220516D01*
X169631447Y-127191550D01*
X169656642Y-127160361D01*
X169683433Y-127127196D01*
X169711621Y-127092303D01*
X169741007Y-127055926D01*
X169771392Y-127018314D01*
X169773719Y-127015432D01*
X170037126Y-126689370D01*
X170178384Y-126689370D01*
X170210412Y-126689379D01*
X170237183Y-126689417D01*
X170259150Y-126689499D01*
X170276765Y-126689642D01*
X170290479Y-126689862D01*
X170300743Y-126690176D01*
X170308010Y-126690600D01*
X170312731Y-126691149D01*
X170315358Y-126691841D01*
X170316344Y-126692691D01*
X170316138Y-126693716D01*
X170315726Y-126694303D01*
X170313471Y-126697026D01*
X170307757Y-126703880D01*
X170298787Y-126714619D01*
X170286769Y-126729000D01*
X170271905Y-126746776D01*
X170254402Y-126767704D01*
X170234465Y-126791537D01*
X170212298Y-126818031D01*
X170188106Y-126846941D01*
X170162095Y-126878021D01*
X170134470Y-126911027D01*
X170105435Y-126945714D01*
X170075195Y-126981837D01*
X170043956Y-127019149D01*
X170039259Y-127024760D01*
X170007897Y-127062218D01*
X169977509Y-127098516D01*
X169948299Y-127133410D01*
X169920472Y-127166653D01*
X169894233Y-127198003D01*
X169869786Y-127227214D01*
X169847335Y-127254042D01*
X169827086Y-127278242D01*
X169809244Y-127299571D01*
X169794011Y-127317782D01*
X169781595Y-127332632D01*
X169772198Y-127343877D01*
X169766025Y-127351271D01*
X169763282Y-127354570D01*
X169763179Y-127354697D01*
X169763012Y-127355989D01*
X169763623Y-127358723D01*
X169765119Y-127363128D01*
X169767609Y-127369433D01*
X169771200Y-127377868D01*
X169776002Y-127388663D01*
X169782122Y-127402046D01*
X169789669Y-127418249D01*
X169798751Y-127437499D01*
X169809476Y-127460027D01*
X169821953Y-127486063D01*
X169836290Y-127515835D01*
X169852596Y-127549573D01*
X169870978Y-127587508D01*
X169891546Y-127629868D01*
X169914407Y-127676883D01*
X169939669Y-127728782D01*
X169940821Y-127731147D01*
X169961927Y-127774502D01*
X169982359Y-127816493D01*
X170001974Y-127856831D01*
X170020633Y-127895226D01*
X170038194Y-127931385D01*
X170054517Y-127965020D01*
X170069462Y-127995840D01*
X170082886Y-128023554D01*
X170094650Y-128047872D01*
X170104612Y-128068503D01*
X170112632Y-128085156D01*
X170118569Y-128097542D01*
X170122283Y-128105370D01*
X170123627Y-128108333D01*
X170123778Y-128109502D01*
X170123117Y-128110479D01*
X170121182Y-128111283D01*
X170117513Y-128111929D01*
X170111647Y-128112434D01*
X170103124Y-128112817D01*
X170091482Y-128113094D01*
X170076259Y-128113281D01*
X170056994Y-128113397D01*
X170033226Y-128113457D01*
X170004493Y-128113480D01*
X169984314Y-128113483D01*
X169843367Y-128113483D01*
X169674084Y-127746039D01*
X169654149Y-127702784D01*
X169634851Y-127660943D01*
X169616327Y-127620810D01*
X169598712Y-127582679D01*
X169582144Y-127546844D01*
X169566759Y-127513600D01*
X169552692Y-127483241D01*
X169540081Y-127456060D01*
X169529062Y-127432353D01*
X169519771Y-127412412D01*
X169512344Y-127396533D01*
X169506918Y-127385009D01*
X169503629Y-127378134D01*
X169502622Y-127376173D01*
X169502267Y-127375597D01*
X169501971Y-127374948D01*
X169501682Y-127374504D01*
X169501350Y-127374541D01*
X169500926Y-127375339D01*
X169500358Y-127377175D01*
X169499596Y-127380328D01*
X169498591Y-127385076D01*
X169497291Y-127391696D01*
X169495646Y-127400467D01*
X169493606Y-127411667D01*
X169491120Y-127425573D01*
X169488138Y-127442465D01*
X169484610Y-127462620D01*
X169480485Y-127486316D01*
X169475713Y-127513831D01*
X169470243Y-127545444D01*
X169464025Y-127581432D01*
X169457010Y-127622074D01*
X169449145Y-127667647D01*
X169440381Y-127718430D01*
X169435739Y-127745325D01*
X169428081Y-127789674D01*
X169420674Y-127832527D01*
X169413579Y-127873540D01*
X169406855Y-127912371D01*
X169400561Y-127948676D01*
X169394758Y-127982113D01*
X169389505Y-128012339D01*
X169384862Y-128039009D01*
X169380887Y-128061782D01*
X169377642Y-128080314D01*
X169375185Y-128094261D01*
X169373577Y-128103281D01*
X169372876Y-128107031D01*
X169372869Y-128107061D01*
X169371330Y-128113483D01*
X169244384Y-128113483D01*
X169218089Y-128113436D01*
X169193639Y-128113303D01*
X169171606Y-128113093D01*
X169152563Y-128112816D01*
X169137083Y-128112481D01*
X169125736Y-128112098D01*
X169119096Y-128111677D01*
X169117549Y-128111342D01*
X169118046Y-128108403D01*
X169119496Y-128100043D01*
X169121864Y-128086463D01*
X169125115Y-128067863D01*
X169129214Y-128044444D01*
X169134125Y-128016406D01*
X169139813Y-127983950D01*
X169146243Y-127947278D01*
X169153380Y-127906588D01*
X169161189Y-127862083D01*
X169169634Y-127813962D01*
X169178680Y-127762426D01*
X169188292Y-127707677D01*
X169198435Y-127649914D01*
X169209073Y-127589338D01*
X169220172Y-127526150D01*
X169231696Y-127460550D01*
X169243610Y-127392739D01*
X169255878Y-127322918D01*
X169268466Y-127251288D01*
X169281338Y-127178048D01*
X169292489Y-127114606D01*
X169467318Y-126120011D01*
X169594895Y-126119268D01*
X169621259Y-126119130D01*
X169645782Y-126119034D01*
X169667891Y-126118977D01*
X169687015Y-126118962D01*
X169702584Y-126118987D01*
G36*
X160559895Y-126176066D02*
X160582672Y-126176132D01*
X160607695Y-126176240D01*
X160627393Y-126176346D01*
X160754262Y-126177089D01*
X160733584Y-126296955D01*
X160728908Y-126324061D01*
X160724292Y-126350823D01*
X160719880Y-126376406D01*
X160715815Y-126399976D01*
X160712243Y-126420696D01*
X160709306Y-126437733D01*
X160707149Y-126450251D01*
X160706639Y-126453207D01*
X160700372Y-126489595D01*
X160573782Y-126489595D01*
X160543558Y-126489584D01*
X160518551Y-126489537D01*
X160498269Y-126489435D01*
X160482221Y-126489259D01*
X160469917Y-126488990D01*
X160460863Y-126488607D01*
X160454570Y-126488092D01*
X160450547Y-126487425D01*
X160448301Y-126486587D01*
X160447342Y-126485558D01*
X160447171Y-126484601D01*
X160447633Y-126481069D01*
X160448957Y-126472604D01*
X160451033Y-126459831D01*
X160453757Y-126443375D01*
X160457021Y-126423861D01*
X160460717Y-126401914D01*
X160464740Y-126378160D01*
X160468981Y-126353224D01*
X160473335Y-126327730D01*
X160477693Y-126302304D01*
X160481950Y-126277571D01*
X160485999Y-126254156D01*
X160489731Y-126232684D01*
X160493041Y-126213781D01*
X160495822Y-126198071D01*
X160497966Y-126186180D01*
X160499367Y-126178732D01*
X160499902Y-126176346D01*
X160502793Y-126176208D01*
X160510814Y-126176111D01*
X160523389Y-126176055D01*
X160539942Y-126176040D01*
X160559895Y-126176066D01*
X160559895Y-126176066D01*
G37*
X160559895Y-126176066D02*
X160582672Y-126176132D01*
X160607695Y-126176240D01*
X160627393Y-126176346D01*
X160754262Y-126177089D01*
X160733584Y-126296955D01*
X160728908Y-126324061D01*
X160724292Y-126350823D01*
X160719880Y-126376406D01*
X160715815Y-126399976D01*
X160712243Y-126420696D01*
X160709306Y-126437733D01*
X160707149Y-126450251D01*
X160706639Y-126453207D01*
X160700372Y-126489595D01*
X160573782Y-126489595D01*
X160543558Y-126489584D01*
X160518551Y-126489537D01*
X160498269Y-126489435D01*
X160482221Y-126489259D01*
X160469917Y-126488990D01*
X160460863Y-126488607D01*
X160454570Y-126488092D01*
X160450547Y-126487425D01*
X160448301Y-126486587D01*
X160447342Y-126485558D01*
X160447171Y-126484601D01*
X160447633Y-126481069D01*
X160448957Y-126472604D01*
X160451033Y-126459831D01*
X160453757Y-126443375D01*
X160457021Y-126423861D01*
X160460717Y-126401914D01*
X160464740Y-126378160D01*
X160468981Y-126353224D01*
X160473335Y-126327730D01*
X160477693Y-126302304D01*
X160481950Y-126277571D01*
X160485999Y-126254156D01*
X160489731Y-126232684D01*
X160493041Y-126213781D01*
X160495822Y-126198071D01*
X160497966Y-126186180D01*
X160499367Y-126178732D01*
X160499902Y-126176346D01*
X160502793Y-126176208D01*
X160510814Y-126176111D01*
X160523389Y-126176055D01*
X160539942Y-126176040D01*
X160559895Y-126176066D01*
D11*
X171466667Y-106628571D02*
X171133333Y-106628571D01*
X171133333Y-107152381D02*
X171133333Y-106152381D01*
X171609524Y-106152381D01*
X171895238Y-106152381D02*
X172514286Y-106152381D01*
X172180952Y-106533333D01*
X172323810Y-106533333D01*
X172419048Y-106580952D01*
X172466667Y-106628571D01*
X172514286Y-106723810D01*
X172514286Y-106961905D01*
X172466667Y-107057143D01*
X172419048Y-107104762D01*
X172323810Y-107152381D01*
X172038095Y-107152381D01*
X171942857Y-107104762D01*
X171895238Y-107057143D01*
X133666667Y-99328571D02*
X133333333Y-99328571D01*
X133333333Y-99852381D02*
X133333333Y-98852381D01*
X133809524Y-98852381D01*
X134142857Y-98947619D02*
X134190476Y-98900000D01*
X134285714Y-98852381D01*
X134523810Y-98852381D01*
X134619048Y-98900000D01*
X134666667Y-98947619D01*
X134714286Y-99042857D01*
X134714286Y-99138095D01*
X134666667Y-99280952D01*
X134095238Y-99852381D01*
X134714286Y-99852381D01*
X143761905Y-125052381D02*
X143761905Y-124052381D01*
X144142858Y-124052381D01*
X144238096Y-124100000D01*
X144285715Y-124147619D01*
X144333334Y-124242857D01*
X144333334Y-124385714D01*
X144285715Y-124480952D01*
X144238096Y-124528571D01*
X144142858Y-124576190D01*
X143761905Y-124576190D01*
X145285715Y-125052381D02*
X144714286Y-125052381D01*
X145000000Y-125052381D02*
X145000000Y-124052381D01*
X144904762Y-124195238D01*
X144809524Y-124290476D01*
X144714286Y-124338095D01*
X134572381Y-116721905D02*
X135381905Y-116721905D01*
X135477143Y-116674286D01*
X135524762Y-116626667D01*
X135572381Y-116531429D01*
X135572381Y-116340952D01*
X135524762Y-116245714D01*
X135477143Y-116198095D01*
X135381905Y-116150476D01*
X134572381Y-116150476D01*
X135572381Y-115150476D02*
X135572381Y-115721905D01*
X135572381Y-115436191D02*
X134572381Y-115436191D01*
X134715238Y-115531429D01*
X134810476Y-115626667D01*
X134858095Y-115721905D01*
X145238095Y-105742381D02*
X145238095Y-106551905D01*
X145285714Y-106647143D01*
X145333333Y-106694762D01*
X145428571Y-106742381D01*
X145619048Y-106742381D01*
X145714286Y-106694762D01*
X145761905Y-106647143D01*
X145809524Y-106551905D01*
X145809524Y-105742381D01*
X146238095Y-105837619D02*
X146285714Y-105790000D01*
X146380952Y-105742381D01*
X146619048Y-105742381D01*
X146714286Y-105790000D01*
X146761905Y-105837619D01*
X146809524Y-105932857D01*
X146809524Y-106028095D01*
X146761905Y-106170952D01*
X146190476Y-106742381D01*
X146809524Y-106742381D01*
X148288095Y-116192381D02*
X148288095Y-117001905D01*
X148335714Y-117097143D01*
X148383333Y-117144762D01*
X148478571Y-117192381D01*
X148669048Y-117192381D01*
X148764286Y-117144762D01*
X148811905Y-117097143D01*
X148859524Y-117001905D01*
X148859524Y-116192381D01*
X149240476Y-116192381D02*
X149859524Y-116192381D01*
X149526190Y-116573333D01*
X149669048Y-116573333D01*
X149764286Y-116620952D01*
X149811905Y-116668571D01*
X149859524Y-116763810D01*
X149859524Y-117001905D01*
X149811905Y-117097143D01*
X149764286Y-117144762D01*
X149669048Y-117192381D01*
X149383333Y-117192381D01*
X149288095Y-117144762D01*
X149240476Y-117097143D01*
X171489317Y-100266813D02*
X172061737Y-100839233D01*
X172162752Y-100872905D01*
X172230095Y-100872905D01*
X172331110Y-100839233D01*
X172465798Y-100704545D01*
X172499470Y-100603530D01*
X172499470Y-100536187D01*
X172465798Y-100435172D01*
X171893378Y-99862752D01*
X172768843Y-99458690D02*
X173240248Y-99930095D01*
X172331110Y-99357676D02*
X172667828Y-100031111D01*
X173105561Y-99593378D01*
X165533187Y-121789317D02*
X164960767Y-122361737D01*
X164927095Y-122462752D01*
X164927095Y-122530095D01*
X164960767Y-122631110D01*
X165095455Y-122765798D01*
X165196470Y-122799470D01*
X165263813Y-122799470D01*
X165364828Y-122765798D01*
X165937248Y-122193378D01*
X166610683Y-122866813D02*
X166273965Y-122530095D01*
X165903577Y-122833141D01*
X165970920Y-122833141D01*
X166071935Y-122866812D01*
X166240294Y-123035172D01*
X166273966Y-123136187D01*
X166273966Y-123203530D01*
X166240294Y-123304546D01*
X166071935Y-123472905D01*
X165970920Y-123506576D01*
X165903577Y-123506576D01*
X165802561Y-123472905D01*
X165634202Y-123304545D01*
X165600530Y-123203530D01*
X165600530Y-123136187D01*
X131666667Y-116628571D02*
X131333333Y-116628571D01*
X131333333Y-117152381D02*
X131333333Y-116152381D01*
X131809524Y-116152381D01*
X132714286Y-117152381D02*
X132142857Y-117152381D01*
X132428571Y-117152381D02*
X132428571Y-116152381D01*
X132333333Y-116295238D01*
X132238095Y-116390476D01*
X132142857Y-116438095D01*
M02*
