G04 #@! TF.FileFunction,Copper,L1,Top,Signal*
%FSLAX46Y46*%
G04 Gerber Fmt 4.6, Leading zero omitted, Abs format (unit mm)*
G04 Created by KiCad (PCBNEW 4.0.1-stable) date Wednesday, January 27, 2016 'PMt' 03:57:36 PM*
%MOMM*%
G01*
G04 APERTURE LIST*
%ADD10C,0.100000*%
%ADD11C,0.010000*%
%ADD12R,0.600000X2.000000*%
%ADD13R,0.700000X4.200000*%
%ADD14R,0.240000X0.900000*%
%ADD15R,0.900000X0.240000*%
%ADD16R,0.900000X0.290000*%
%ADD17R,0.290000X0.900000*%
%ADD18C,0.685800*%
%ADD19C,0.685801*%
%ADD20C,0.254000*%
%ADD21C,0.152400*%
G04 APERTURE END LIST*
D10*
D11*
G36*
X133209423Y-95305069D02*
X133241094Y-95305572D01*
X133268725Y-95306621D01*
X133293824Y-95308340D01*
X133317893Y-95310851D01*
X133342439Y-95314276D01*
X133368967Y-95318740D01*
X133390931Y-95322815D01*
X133449786Y-95335578D01*
X133510883Y-95351645D01*
X133571336Y-95370182D01*
X133628260Y-95390354D01*
X133639639Y-95394777D01*
X133682817Y-95411970D01*
X133725192Y-95429108D01*
X133767150Y-95446370D01*
X133809080Y-95463937D01*
X133851369Y-95481989D01*
X133894404Y-95500707D01*
X133938573Y-95520271D01*
X133984265Y-95540862D01*
X134031866Y-95562659D01*
X134081764Y-95585844D01*
X134134347Y-95610597D01*
X134190003Y-95637099D01*
X134249118Y-95665528D01*
X134312082Y-95696067D01*
X134379280Y-95728896D01*
X134451102Y-95764194D01*
X134527935Y-95802143D01*
X134610166Y-95842923D01*
X134698183Y-95886714D01*
X134720903Y-95898037D01*
X134799183Y-95936981D01*
X134871702Y-95972880D01*
X134938949Y-96005961D01*
X135001415Y-96036448D01*
X135059589Y-96064567D01*
X135113962Y-96090545D01*
X135165024Y-96114606D01*
X135213265Y-96136978D01*
X135259175Y-96157885D01*
X135303244Y-96177553D01*
X135345962Y-96196208D01*
X135387819Y-96214076D01*
X135429306Y-96231382D01*
X135470912Y-96248353D01*
X135513128Y-96265213D01*
X135546403Y-96278281D01*
X135569926Y-96287518D01*
X135591319Y-96296037D01*
X135609688Y-96303473D01*
X135624143Y-96309460D01*
X135633791Y-96313635D01*
X135637732Y-96315624D01*
X135637199Y-96319719D01*
X135631987Y-96327737D01*
X135622739Y-96338968D01*
X135610100Y-96352704D01*
X135594712Y-96368236D01*
X135577219Y-96384855D01*
X135564178Y-96396657D01*
X135496199Y-96452758D01*
X135421764Y-96506253D01*
X135340994Y-96557086D01*
X135254011Y-96605200D01*
X135160938Y-96650538D01*
X135061897Y-96693043D01*
X134957009Y-96732658D01*
X134846398Y-96769327D01*
X134730185Y-96802992D01*
X134643292Y-96825296D01*
X134542697Y-96848538D01*
X134447709Y-96867867D01*
X134358081Y-96883303D01*
X134273561Y-96894868D01*
X134193901Y-96902580D01*
X134118851Y-96906462D01*
X134048163Y-96906535D01*
X133981587Y-96902818D01*
X133918874Y-96895332D01*
X133881082Y-96888660D01*
X133820450Y-96873748D01*
X133765094Y-96854367D01*
X133715086Y-96830590D01*
X133670499Y-96802491D01*
X133631404Y-96770142D01*
X133597873Y-96733617D01*
X133569979Y-96692988D01*
X133547795Y-96648329D01*
X133531392Y-96599713D01*
X133520842Y-96547214D01*
X133517903Y-96520940D01*
X133517085Y-96509833D01*
X133516149Y-96501698D01*
X133514111Y-96495994D01*
X133509991Y-96492178D01*
X133502806Y-96489710D01*
X133491575Y-96488046D01*
X133475315Y-96486646D01*
X133453045Y-96484967D01*
X133452667Y-96484937D01*
X133425115Y-96482710D01*
X133403944Y-96480816D01*
X133388491Y-96479166D01*
X133378094Y-96477673D01*
X133372090Y-96476249D01*
X133369817Y-96474807D01*
X133369918Y-96473974D01*
X133367973Y-96472665D01*
X133361139Y-96472440D01*
X133351468Y-96473114D01*
X133341010Y-96474497D01*
X133331817Y-96476403D01*
X133327431Y-96477859D01*
X133321923Y-96479376D01*
X133310616Y-96481836D01*
X133294669Y-96485008D01*
X133275241Y-96488665D01*
X133253489Y-96492578D01*
X133248056Y-96493529D01*
X133166570Y-96507036D01*
X133089154Y-96518409D01*
X133013266Y-96527987D01*
X132936367Y-96536109D01*
X132912917Y-96538294D01*
X132890487Y-96539888D01*
X132863281Y-96541121D01*
X132832652Y-96541993D01*
X132799951Y-96542504D01*
X132766529Y-96542652D01*
X132733738Y-96542438D01*
X132702930Y-96541861D01*
X132675455Y-96540920D01*
X132652666Y-96539615D01*
X132639514Y-96538402D01*
X132566686Y-96528747D01*
X132495829Y-96516860D01*
X132425068Y-96502349D01*
X132352527Y-96484822D01*
X132276331Y-96463890D01*
X132260857Y-96459368D01*
X132238243Y-96452575D01*
X132221577Y-96447222D01*
X132209982Y-96442959D01*
X132202578Y-96439438D01*
X132198490Y-96436309D01*
X132197057Y-96433968D01*
X132196091Y-96428855D01*
X132194509Y-96417561D01*
X132192410Y-96400925D01*
X132189895Y-96379783D01*
X132187063Y-96354975D01*
X132184013Y-96327338D01*
X132180918Y-96298392D01*
X132177321Y-96264399D01*
X132174435Y-96236757D01*
X132172312Y-96214791D01*
X132171001Y-96197830D01*
X132170553Y-96185198D01*
X132171018Y-96176223D01*
X132172447Y-96170230D01*
X132174890Y-96166547D01*
X132178397Y-96164499D01*
X132183018Y-96163413D01*
X132188805Y-96162615D01*
X132191091Y-96162283D01*
X132202337Y-96160254D01*
X132219389Y-96156797D01*
X132241193Y-96152151D01*
X132266700Y-96146555D01*
X132294858Y-96140249D01*
X132324615Y-96133471D01*
X132354921Y-96126461D01*
X132384725Y-96119457D01*
X132412975Y-96112700D01*
X132438620Y-96106427D01*
X132457833Y-96101593D01*
X132560462Y-96074234D01*
X132656453Y-96046397D01*
X132746213Y-96017945D01*
X132830153Y-95988742D01*
X132908680Y-95958650D01*
X132982203Y-95927534D01*
X132994056Y-95922213D01*
X133064730Y-95887760D01*
X133136700Y-95848022D01*
X133208246Y-95804092D01*
X133277648Y-95757066D01*
X133343190Y-95708037D01*
X133387403Y-95671786D01*
X133405065Y-95656423D01*
X133423398Y-95640012D01*
X133441684Y-95623244D01*
X133459206Y-95606810D01*
X133475249Y-95591401D01*
X133489095Y-95577709D01*
X133500027Y-95566424D01*
X133507329Y-95558238D01*
X133510283Y-95553841D01*
X133510219Y-95553368D01*
X133504114Y-95550119D01*
X133492137Y-95545797D01*
X133475347Y-95540663D01*
X133454801Y-95534980D01*
X133431556Y-95529011D01*
X133406670Y-95523019D01*
X133381199Y-95517265D01*
X133356201Y-95512013D01*
X133332732Y-95507526D01*
X133311852Y-95504065D01*
X133311556Y-95504021D01*
X133256513Y-95497477D01*
X133202179Y-95494423D01*
X133147039Y-95494893D01*
X133089581Y-95498923D01*
X133028289Y-95506548D01*
X132998461Y-95511261D01*
X132905204Y-95529850D01*
X132815771Y-95553707D01*
X132730377Y-95582725D01*
X132649234Y-95616797D01*
X132572557Y-95655818D01*
X132500558Y-95699681D01*
X132433451Y-95748280D01*
X132371449Y-95801509D01*
X132327949Y-95844915D01*
X132285574Y-95893556D01*
X132247536Y-95944333D01*
X132214493Y-95996230D01*
X132187105Y-96048230D01*
X132169656Y-96089355D01*
X132164680Y-96101769D01*
X132160056Y-96111937D01*
X132156789Y-96117652D01*
X132153532Y-96120958D01*
X132145631Y-96128670D01*
X132133561Y-96140334D01*
X132117793Y-96155496D01*
X132098801Y-96173704D01*
X132077057Y-96194504D01*
X132053034Y-96217442D01*
X132027205Y-96242065D01*
X132008042Y-96260309D01*
X131981341Y-96285737D01*
X131956208Y-96309712D01*
X131933104Y-96331794D01*
X131912486Y-96351540D01*
X131894813Y-96368513D01*
X131880545Y-96382270D01*
X131870139Y-96392371D01*
X131864055Y-96398376D01*
X131862607Y-96399922D01*
X131865572Y-96401699D01*
X131874384Y-96406052D01*
X131888436Y-96412701D01*
X131907123Y-96421368D01*
X131929836Y-96431773D01*
X131955972Y-96443637D01*
X131984923Y-96456683D01*
X132016083Y-96470630D01*
X132023468Y-96473923D01*
X132185126Y-96545942D01*
X132201981Y-96606214D01*
X132210094Y-96634199D01*
X132219941Y-96666534D01*
X132230916Y-96701347D01*
X132242411Y-96736762D01*
X132253817Y-96770907D01*
X132264527Y-96801907D01*
X132273511Y-96826757D01*
X132278959Y-96840443D01*
X132283479Y-96848917D01*
X132288136Y-96853733D01*
X132293830Y-96856392D01*
X132301132Y-96857558D01*
X132314453Y-96858496D01*
X132332760Y-96859209D01*
X132355020Y-96859697D01*
X132380201Y-96859965D01*
X132407269Y-96860013D01*
X132435192Y-96859845D01*
X132462937Y-96859461D01*
X132489472Y-96858866D01*
X132513763Y-96858060D01*
X132534777Y-96857046D01*
X132551319Y-96855841D01*
X132714261Y-96838212D01*
X132814139Y-96824838D01*
X132856859Y-96818400D01*
X132893678Y-96812100D01*
X132925734Y-96805624D01*
X132954167Y-96798661D01*
X132980116Y-96790899D01*
X133004721Y-96782025D01*
X133029122Y-96771727D01*
X133054457Y-96759694D01*
X133057556Y-96758147D01*
X133113115Y-96726813D01*
X133167664Y-96689211D01*
X133220233Y-96646128D01*
X133269852Y-96598353D01*
X133310314Y-96553042D01*
X133328347Y-96531319D01*
X133330748Y-96556569D01*
X133337775Y-96603991D01*
X133349681Y-96653168D01*
X133365802Y-96702224D01*
X133385477Y-96749282D01*
X133408042Y-96792463D01*
X133421719Y-96814289D01*
X133459340Y-96864006D01*
X133502141Y-96909003D01*
X133550037Y-96949251D01*
X133602937Y-96984723D01*
X133660757Y-97015389D01*
X133723406Y-97041223D01*
X133790799Y-97062197D01*
X133862848Y-97078282D01*
X133939465Y-97089451D01*
X134020562Y-97095676D01*
X134106053Y-97096929D01*
X134195848Y-97093182D01*
X134274639Y-97086139D01*
X134347782Y-97076822D01*
X134425875Y-97064509D01*
X134507621Y-97049481D01*
X134591724Y-97032024D01*
X134676887Y-97012418D01*
X134761813Y-96990949D01*
X134845205Y-96967899D01*
X134921986Y-96944745D01*
X135019460Y-96912112D01*
X135113786Y-96876670D01*
X135204613Y-96838629D01*
X135291592Y-96798203D01*
X135374372Y-96755600D01*
X135452604Y-96711034D01*
X135525937Y-96664714D01*
X135594021Y-96616853D01*
X135656506Y-96567661D01*
X135713041Y-96517350D01*
X135763278Y-96466131D01*
X135806865Y-96414215D01*
X135811516Y-96408103D01*
X135821132Y-96395676D01*
X135827892Y-96388104D01*
X135832929Y-96384422D01*
X135837377Y-96383664D01*
X135839726Y-96384079D01*
X135859163Y-96388388D01*
X135884240Y-96393070D01*
X135913568Y-96397922D01*
X135945757Y-96402737D01*
X135979415Y-96407313D01*
X136013152Y-96411443D01*
X136045578Y-96414923D01*
X136056167Y-96415932D01*
X136087905Y-96418462D01*
X136119888Y-96420184D01*
X136152791Y-96421067D01*
X136187290Y-96421080D01*
X136224060Y-96420194D01*
X136263775Y-96418377D01*
X136307113Y-96415599D01*
X136354746Y-96411829D01*
X136407352Y-96407037D01*
X136465605Y-96401192D01*
X136527125Y-96394600D01*
X136616165Y-96384237D01*
X136711639Y-96372018D01*
X136813193Y-96358007D01*
X136920469Y-96342269D01*
X137033115Y-96324868D01*
X137150774Y-96305867D01*
X137273091Y-96285332D01*
X137399712Y-96263326D01*
X137530280Y-96239914D01*
X137664441Y-96215160D01*
X137801840Y-96189128D01*
X137942121Y-96161882D01*
X138084930Y-96133486D01*
X138229911Y-96104006D01*
X138376709Y-96073505D01*
X138524969Y-96042046D01*
X138674335Y-96009696D01*
X138761972Y-95990408D01*
X138806466Y-95980554D01*
X138844684Y-95972267D01*
X138877258Y-95965680D01*
X138904823Y-95960928D01*
X138928011Y-95958146D01*
X138947455Y-95957468D01*
X138963788Y-95959028D01*
X138977642Y-95962962D01*
X138989652Y-95969404D01*
X139000449Y-95978488D01*
X139010667Y-95990348D01*
X139020938Y-96005120D01*
X139031896Y-96022938D01*
X139044174Y-96043936D01*
X139048453Y-96051295D01*
X139085722Y-96117072D01*
X139120654Y-96182322D01*
X139152855Y-96246214D01*
X139181929Y-96307915D01*
X139207481Y-96366594D01*
X139229117Y-96421419D01*
X139242982Y-96460859D01*
X139258442Y-96513272D01*
X139269158Y-96562184D01*
X139275158Y-96607367D01*
X139276469Y-96648594D01*
X139273119Y-96685635D01*
X139265134Y-96718262D01*
X139252543Y-96746247D01*
X139235372Y-96769362D01*
X139213649Y-96787378D01*
X139203124Y-96793395D01*
X139192991Y-96798154D01*
X139181941Y-96802524D01*
X139169615Y-96806533D01*
X139155657Y-96810209D01*
X139139709Y-96813581D01*
X139121413Y-96816677D01*
X139100414Y-96819524D01*
X139076352Y-96822152D01*
X139048872Y-96824587D01*
X139017615Y-96826859D01*
X138982225Y-96828995D01*
X138942343Y-96831023D01*
X138897613Y-96832973D01*
X138847677Y-96834871D01*
X138792178Y-96836746D01*
X138730759Y-96838626D01*
X138663062Y-96840540D01*
X138588731Y-96842515D01*
X138575000Y-96842869D01*
X138452923Y-96846207D01*
X138337344Y-96849786D01*
X138227707Y-96853639D01*
X138123456Y-96857794D01*
X138024037Y-96862284D01*
X137928895Y-96867138D01*
X137837474Y-96872388D01*
X137749219Y-96878064D01*
X137663574Y-96884196D01*
X137579985Y-96890816D01*
X137497897Y-96897954D01*
X137416754Y-96905640D01*
X137389667Y-96908345D01*
X137260967Y-96922177D01*
X137136502Y-96937273D01*
X137015523Y-96953805D01*
X136897281Y-96971941D01*
X136781028Y-96991851D01*
X136666016Y-97013705D01*
X136551496Y-97037671D01*
X136436721Y-97063920D01*
X136320941Y-97092620D01*
X136203408Y-97123942D01*
X136083373Y-97158054D01*
X135960090Y-97195127D01*
X135832808Y-97235329D01*
X135700780Y-97278830D01*
X135595792Y-97314551D01*
X135545932Y-97332059D01*
X135498400Y-97349485D01*
X135452527Y-97367150D01*
X135407643Y-97385374D01*
X135363080Y-97404476D01*
X135318167Y-97424779D01*
X135272235Y-97446601D01*
X135224615Y-97470263D01*
X135174637Y-97496085D01*
X135121633Y-97524388D01*
X135064932Y-97555492D01*
X135003865Y-97589717D01*
X134937763Y-97627384D01*
X134916694Y-97639493D01*
X134858073Y-97673223D01*
X134805102Y-97703651D01*
X134757334Y-97731025D01*
X134714321Y-97755591D01*
X134675616Y-97777596D01*
X134640771Y-97797287D01*
X134609338Y-97814910D01*
X134580870Y-97830714D01*
X134554919Y-97844944D01*
X134531037Y-97857848D01*
X134508777Y-97869672D01*
X134487692Y-97880664D01*
X134467332Y-97891070D01*
X134447252Y-97901138D01*
X134427003Y-97911113D01*
X134406138Y-97921244D01*
X134404306Y-97922128D01*
X134336867Y-97953565D01*
X134273250Y-97980819D01*
X134212082Y-98004282D01*
X134151992Y-98024345D01*
X134091609Y-98041402D01*
X134029560Y-98055844D01*
X133964474Y-98068064D01*
X133894978Y-98078454D01*
X133830139Y-98086279D01*
X133789152Y-98090039D01*
X133743206Y-98092999D01*
X133694358Y-98095105D01*
X133644663Y-98096301D01*
X133596179Y-98096532D01*
X133550962Y-98095744D01*
X133521458Y-98094508D01*
X133441912Y-98087865D01*
X133361456Y-98076743D01*
X133281278Y-98061443D01*
X133202567Y-98042263D01*
X133126511Y-98019501D01*
X133054298Y-97993456D01*
X132987116Y-97964427D01*
X132969008Y-97955625D01*
X132888028Y-97911372D01*
X132808806Y-97860408D01*
X132731482Y-97802893D01*
X132656195Y-97738983D01*
X132583086Y-97668836D01*
X132512295Y-97592610D01*
X132443960Y-97510463D01*
X132378223Y-97422552D01*
X132315222Y-97329036D01*
X132255097Y-97230070D01*
X132197989Y-97125814D01*
X132152897Y-97035201D01*
X132134559Y-96995287D01*
X132116937Y-96953922D01*
X132099526Y-96909814D01*
X132081819Y-96861672D01*
X132063310Y-96808204D01*
X132058965Y-96795250D01*
X132051296Y-96771804D01*
X132043193Y-96746214D01*
X132035008Y-96719673D01*
X132027093Y-96693373D01*
X132019801Y-96668508D01*
X132013485Y-96646269D01*
X132008496Y-96627848D01*
X132005187Y-96614440D01*
X132004378Y-96610558D01*
X132002209Y-96598996D01*
X131797595Y-96516428D01*
X131761615Y-96501883D01*
X131727607Y-96488085D01*
X131696132Y-96475266D01*
X131667748Y-96463654D01*
X131643014Y-96453480D01*
X131622490Y-96444974D01*
X131606734Y-96438367D01*
X131596307Y-96433889D01*
X131591768Y-96431769D01*
X131591619Y-96431656D01*
X131593960Y-96429006D01*
X131601162Y-96422050D01*
X131612812Y-96411163D01*
X131628495Y-96396724D01*
X131647797Y-96379108D01*
X131670304Y-96358694D01*
X131695601Y-96335859D01*
X131723274Y-96310979D01*
X131752909Y-96284432D01*
X131778286Y-96261769D01*
X131814302Y-96229640D01*
X131845416Y-96201846D01*
X131871998Y-96178033D01*
X131894415Y-96157848D01*
X131913038Y-96140935D01*
X131928235Y-96126942D01*
X131940376Y-96115513D01*
X131949830Y-96106294D01*
X131956965Y-96098931D01*
X131962152Y-96093071D01*
X131965759Y-96088358D01*
X131968156Y-96084439D01*
X131969712Y-96080959D01*
X131970795Y-96077565D01*
X131970979Y-96076897D01*
X131977388Y-96056348D01*
X131986490Y-96031398D01*
X131997560Y-96003816D01*
X132009874Y-95975375D01*
X132022705Y-95947843D01*
X132029300Y-95934554D01*
X132061749Y-95876345D01*
X132098977Y-95820220D01*
X132141666Y-95765249D01*
X132190499Y-95710502D01*
X132203642Y-95696849D01*
X132259151Y-95643310D01*
X132316431Y-95594827D01*
X132376685Y-95550531D01*
X132441117Y-95509557D01*
X132510931Y-95471037D01*
X132531917Y-95460420D01*
X132599971Y-95428548D01*
X132667985Y-95400713D01*
X132737187Y-95376541D01*
X132808807Y-95355659D01*
X132884072Y-95337692D01*
X132964212Y-95322268D01*
X133010680Y-95314752D01*
X133030516Y-95311832D01*
X133047844Y-95309566D01*
X133064061Y-95307870D01*
X133080562Y-95306659D01*
X133098742Y-95305848D01*
X133119998Y-95305355D01*
X133145724Y-95305094D01*
X133172208Y-95304991D01*
X133209423Y-95305069D01*
X133209423Y-95305069D01*
G37*
X133209423Y-95305069D02*
X133241094Y-95305572D01*
X133268725Y-95306621D01*
X133293824Y-95308340D01*
X133317893Y-95310851D01*
X133342439Y-95314276D01*
X133368967Y-95318740D01*
X133390931Y-95322815D01*
X133449786Y-95335578D01*
X133510883Y-95351645D01*
X133571336Y-95370182D01*
X133628260Y-95390354D01*
X133639639Y-95394777D01*
X133682817Y-95411970D01*
X133725192Y-95429108D01*
X133767150Y-95446370D01*
X133809080Y-95463937D01*
X133851369Y-95481989D01*
X133894404Y-95500707D01*
X133938573Y-95520271D01*
X133984265Y-95540862D01*
X134031866Y-95562659D01*
X134081764Y-95585844D01*
X134134347Y-95610597D01*
X134190003Y-95637099D01*
X134249118Y-95665528D01*
X134312082Y-95696067D01*
X134379280Y-95728896D01*
X134451102Y-95764194D01*
X134527935Y-95802143D01*
X134610166Y-95842923D01*
X134698183Y-95886714D01*
X134720903Y-95898037D01*
X134799183Y-95936981D01*
X134871702Y-95972880D01*
X134938949Y-96005961D01*
X135001415Y-96036448D01*
X135059589Y-96064567D01*
X135113962Y-96090545D01*
X135165024Y-96114606D01*
X135213265Y-96136978D01*
X135259175Y-96157885D01*
X135303244Y-96177553D01*
X135345962Y-96196208D01*
X135387819Y-96214076D01*
X135429306Y-96231382D01*
X135470912Y-96248353D01*
X135513128Y-96265213D01*
X135546403Y-96278281D01*
X135569926Y-96287518D01*
X135591319Y-96296037D01*
X135609688Y-96303473D01*
X135624143Y-96309460D01*
X135633791Y-96313635D01*
X135637732Y-96315624D01*
X135637199Y-96319719D01*
X135631987Y-96327737D01*
X135622739Y-96338968D01*
X135610100Y-96352704D01*
X135594712Y-96368236D01*
X135577219Y-96384855D01*
X135564178Y-96396657D01*
X135496199Y-96452758D01*
X135421764Y-96506253D01*
X135340994Y-96557086D01*
X135254011Y-96605200D01*
X135160938Y-96650538D01*
X135061897Y-96693043D01*
X134957009Y-96732658D01*
X134846398Y-96769327D01*
X134730185Y-96802992D01*
X134643292Y-96825296D01*
X134542697Y-96848538D01*
X134447709Y-96867867D01*
X134358081Y-96883303D01*
X134273561Y-96894868D01*
X134193901Y-96902580D01*
X134118851Y-96906462D01*
X134048163Y-96906535D01*
X133981587Y-96902818D01*
X133918874Y-96895332D01*
X133881082Y-96888660D01*
X133820450Y-96873748D01*
X133765094Y-96854367D01*
X133715086Y-96830590D01*
X133670499Y-96802491D01*
X133631404Y-96770142D01*
X133597873Y-96733617D01*
X133569979Y-96692988D01*
X133547795Y-96648329D01*
X133531392Y-96599713D01*
X133520842Y-96547214D01*
X133517903Y-96520940D01*
X133517085Y-96509833D01*
X133516149Y-96501698D01*
X133514111Y-96495994D01*
X133509991Y-96492178D01*
X133502806Y-96489710D01*
X133491575Y-96488046D01*
X133475315Y-96486646D01*
X133453045Y-96484967D01*
X133452667Y-96484937D01*
X133425115Y-96482710D01*
X133403944Y-96480816D01*
X133388491Y-96479166D01*
X133378094Y-96477673D01*
X133372090Y-96476249D01*
X133369817Y-96474807D01*
X133369918Y-96473974D01*
X133367973Y-96472665D01*
X133361139Y-96472440D01*
X133351468Y-96473114D01*
X133341010Y-96474497D01*
X133331817Y-96476403D01*
X133327431Y-96477859D01*
X133321923Y-96479376D01*
X133310616Y-96481836D01*
X133294669Y-96485008D01*
X133275241Y-96488665D01*
X133253489Y-96492578D01*
X133248056Y-96493529D01*
X133166570Y-96507036D01*
X133089154Y-96518409D01*
X133013266Y-96527987D01*
X132936367Y-96536109D01*
X132912917Y-96538294D01*
X132890487Y-96539888D01*
X132863281Y-96541121D01*
X132832652Y-96541993D01*
X132799951Y-96542504D01*
X132766529Y-96542652D01*
X132733738Y-96542438D01*
X132702930Y-96541861D01*
X132675455Y-96540920D01*
X132652666Y-96539615D01*
X132639514Y-96538402D01*
X132566686Y-96528747D01*
X132495829Y-96516860D01*
X132425068Y-96502349D01*
X132352527Y-96484822D01*
X132276331Y-96463890D01*
X132260857Y-96459368D01*
X132238243Y-96452575D01*
X132221577Y-96447222D01*
X132209982Y-96442959D01*
X132202578Y-96439438D01*
X132198490Y-96436309D01*
X132197057Y-96433968D01*
X132196091Y-96428855D01*
X132194509Y-96417561D01*
X132192410Y-96400925D01*
X132189895Y-96379783D01*
X132187063Y-96354975D01*
X132184013Y-96327338D01*
X132180918Y-96298392D01*
X132177321Y-96264399D01*
X132174435Y-96236757D01*
X132172312Y-96214791D01*
X132171001Y-96197830D01*
X132170553Y-96185198D01*
X132171018Y-96176223D01*
X132172447Y-96170230D01*
X132174890Y-96166547D01*
X132178397Y-96164499D01*
X132183018Y-96163413D01*
X132188805Y-96162615D01*
X132191091Y-96162283D01*
X132202337Y-96160254D01*
X132219389Y-96156797D01*
X132241193Y-96152151D01*
X132266700Y-96146555D01*
X132294858Y-96140249D01*
X132324615Y-96133471D01*
X132354921Y-96126461D01*
X132384725Y-96119457D01*
X132412975Y-96112700D01*
X132438620Y-96106427D01*
X132457833Y-96101593D01*
X132560462Y-96074234D01*
X132656453Y-96046397D01*
X132746213Y-96017945D01*
X132830153Y-95988742D01*
X132908680Y-95958650D01*
X132982203Y-95927534D01*
X132994056Y-95922213D01*
X133064730Y-95887760D01*
X133136700Y-95848022D01*
X133208246Y-95804092D01*
X133277648Y-95757066D01*
X133343190Y-95708037D01*
X133387403Y-95671786D01*
X133405065Y-95656423D01*
X133423398Y-95640012D01*
X133441684Y-95623244D01*
X133459206Y-95606810D01*
X133475249Y-95591401D01*
X133489095Y-95577709D01*
X133500027Y-95566424D01*
X133507329Y-95558238D01*
X133510283Y-95553841D01*
X133510219Y-95553368D01*
X133504114Y-95550119D01*
X133492137Y-95545797D01*
X133475347Y-95540663D01*
X133454801Y-95534980D01*
X133431556Y-95529011D01*
X133406670Y-95523019D01*
X133381199Y-95517265D01*
X133356201Y-95512013D01*
X133332732Y-95507526D01*
X133311852Y-95504065D01*
X133311556Y-95504021D01*
X133256513Y-95497477D01*
X133202179Y-95494423D01*
X133147039Y-95494893D01*
X133089581Y-95498923D01*
X133028289Y-95506548D01*
X132998461Y-95511261D01*
X132905204Y-95529850D01*
X132815771Y-95553707D01*
X132730377Y-95582725D01*
X132649234Y-95616797D01*
X132572557Y-95655818D01*
X132500558Y-95699681D01*
X132433451Y-95748280D01*
X132371449Y-95801509D01*
X132327949Y-95844915D01*
X132285574Y-95893556D01*
X132247536Y-95944333D01*
X132214493Y-95996230D01*
X132187105Y-96048230D01*
X132169656Y-96089355D01*
X132164680Y-96101769D01*
X132160056Y-96111937D01*
X132156789Y-96117652D01*
X132153532Y-96120958D01*
X132145631Y-96128670D01*
X132133561Y-96140334D01*
X132117793Y-96155496D01*
X132098801Y-96173704D01*
X132077057Y-96194504D01*
X132053034Y-96217442D01*
X132027205Y-96242065D01*
X132008042Y-96260309D01*
X131981341Y-96285737D01*
X131956208Y-96309712D01*
X131933104Y-96331794D01*
X131912486Y-96351540D01*
X131894813Y-96368513D01*
X131880545Y-96382270D01*
X131870139Y-96392371D01*
X131864055Y-96398376D01*
X131862607Y-96399922D01*
X131865572Y-96401699D01*
X131874384Y-96406052D01*
X131888436Y-96412701D01*
X131907123Y-96421368D01*
X131929836Y-96431773D01*
X131955972Y-96443637D01*
X131984923Y-96456683D01*
X132016083Y-96470630D01*
X132023468Y-96473923D01*
X132185126Y-96545942D01*
X132201981Y-96606214D01*
X132210094Y-96634199D01*
X132219941Y-96666534D01*
X132230916Y-96701347D01*
X132242411Y-96736762D01*
X132253817Y-96770907D01*
X132264527Y-96801907D01*
X132273511Y-96826757D01*
X132278959Y-96840443D01*
X132283479Y-96848917D01*
X132288136Y-96853733D01*
X132293830Y-96856392D01*
X132301132Y-96857558D01*
X132314453Y-96858496D01*
X132332760Y-96859209D01*
X132355020Y-96859697D01*
X132380201Y-96859965D01*
X132407269Y-96860013D01*
X132435192Y-96859845D01*
X132462937Y-96859461D01*
X132489472Y-96858866D01*
X132513763Y-96858060D01*
X132534777Y-96857046D01*
X132551319Y-96855841D01*
X132714261Y-96838212D01*
X132814139Y-96824838D01*
X132856859Y-96818400D01*
X132893678Y-96812100D01*
X132925734Y-96805624D01*
X132954167Y-96798661D01*
X132980116Y-96790899D01*
X133004721Y-96782025D01*
X133029122Y-96771727D01*
X133054457Y-96759694D01*
X133057556Y-96758147D01*
X133113115Y-96726813D01*
X133167664Y-96689211D01*
X133220233Y-96646128D01*
X133269852Y-96598353D01*
X133310314Y-96553042D01*
X133328347Y-96531319D01*
X133330748Y-96556569D01*
X133337775Y-96603991D01*
X133349681Y-96653168D01*
X133365802Y-96702224D01*
X133385477Y-96749282D01*
X133408042Y-96792463D01*
X133421719Y-96814289D01*
X133459340Y-96864006D01*
X133502141Y-96909003D01*
X133550037Y-96949251D01*
X133602937Y-96984723D01*
X133660757Y-97015389D01*
X133723406Y-97041223D01*
X133790799Y-97062197D01*
X133862848Y-97078282D01*
X133939465Y-97089451D01*
X134020562Y-97095676D01*
X134106053Y-97096929D01*
X134195848Y-97093182D01*
X134274639Y-97086139D01*
X134347782Y-97076822D01*
X134425875Y-97064509D01*
X134507621Y-97049481D01*
X134591724Y-97032024D01*
X134676887Y-97012418D01*
X134761813Y-96990949D01*
X134845205Y-96967899D01*
X134921986Y-96944745D01*
X135019460Y-96912112D01*
X135113786Y-96876670D01*
X135204613Y-96838629D01*
X135291592Y-96798203D01*
X135374372Y-96755600D01*
X135452604Y-96711034D01*
X135525937Y-96664714D01*
X135594021Y-96616853D01*
X135656506Y-96567661D01*
X135713041Y-96517350D01*
X135763278Y-96466131D01*
X135806865Y-96414215D01*
X135811516Y-96408103D01*
X135821132Y-96395676D01*
X135827892Y-96388104D01*
X135832929Y-96384422D01*
X135837377Y-96383664D01*
X135839726Y-96384079D01*
X135859163Y-96388388D01*
X135884240Y-96393070D01*
X135913568Y-96397922D01*
X135945757Y-96402737D01*
X135979415Y-96407313D01*
X136013152Y-96411443D01*
X136045578Y-96414923D01*
X136056167Y-96415932D01*
X136087905Y-96418462D01*
X136119888Y-96420184D01*
X136152791Y-96421067D01*
X136187290Y-96421080D01*
X136224060Y-96420194D01*
X136263775Y-96418377D01*
X136307113Y-96415599D01*
X136354746Y-96411829D01*
X136407352Y-96407037D01*
X136465605Y-96401192D01*
X136527125Y-96394600D01*
X136616165Y-96384237D01*
X136711639Y-96372018D01*
X136813193Y-96358007D01*
X136920469Y-96342269D01*
X137033115Y-96324868D01*
X137150774Y-96305867D01*
X137273091Y-96285332D01*
X137399712Y-96263326D01*
X137530280Y-96239914D01*
X137664441Y-96215160D01*
X137801840Y-96189128D01*
X137942121Y-96161882D01*
X138084930Y-96133486D01*
X138229911Y-96104006D01*
X138376709Y-96073505D01*
X138524969Y-96042046D01*
X138674335Y-96009696D01*
X138761972Y-95990408D01*
X138806466Y-95980554D01*
X138844684Y-95972267D01*
X138877258Y-95965680D01*
X138904823Y-95960928D01*
X138928011Y-95958146D01*
X138947455Y-95957468D01*
X138963788Y-95959028D01*
X138977642Y-95962962D01*
X138989652Y-95969404D01*
X139000449Y-95978488D01*
X139010667Y-95990348D01*
X139020938Y-96005120D01*
X139031896Y-96022938D01*
X139044174Y-96043936D01*
X139048453Y-96051295D01*
X139085722Y-96117072D01*
X139120654Y-96182322D01*
X139152855Y-96246214D01*
X139181929Y-96307915D01*
X139207481Y-96366594D01*
X139229117Y-96421419D01*
X139242982Y-96460859D01*
X139258442Y-96513272D01*
X139269158Y-96562184D01*
X139275158Y-96607367D01*
X139276469Y-96648594D01*
X139273119Y-96685635D01*
X139265134Y-96718262D01*
X139252543Y-96746247D01*
X139235372Y-96769362D01*
X139213649Y-96787378D01*
X139203124Y-96793395D01*
X139192991Y-96798154D01*
X139181941Y-96802524D01*
X139169615Y-96806533D01*
X139155657Y-96810209D01*
X139139709Y-96813581D01*
X139121413Y-96816677D01*
X139100414Y-96819524D01*
X139076352Y-96822152D01*
X139048872Y-96824587D01*
X139017615Y-96826859D01*
X138982225Y-96828995D01*
X138942343Y-96831023D01*
X138897613Y-96832973D01*
X138847677Y-96834871D01*
X138792178Y-96836746D01*
X138730759Y-96838626D01*
X138663062Y-96840540D01*
X138588731Y-96842515D01*
X138575000Y-96842869D01*
X138452923Y-96846207D01*
X138337344Y-96849786D01*
X138227707Y-96853639D01*
X138123456Y-96857794D01*
X138024037Y-96862284D01*
X137928895Y-96867138D01*
X137837474Y-96872388D01*
X137749219Y-96878064D01*
X137663574Y-96884196D01*
X137579985Y-96890816D01*
X137497897Y-96897954D01*
X137416754Y-96905640D01*
X137389667Y-96908345D01*
X137260967Y-96922177D01*
X137136502Y-96937273D01*
X137015523Y-96953805D01*
X136897281Y-96971941D01*
X136781028Y-96991851D01*
X136666016Y-97013705D01*
X136551496Y-97037671D01*
X136436721Y-97063920D01*
X136320941Y-97092620D01*
X136203408Y-97123942D01*
X136083373Y-97158054D01*
X135960090Y-97195127D01*
X135832808Y-97235329D01*
X135700780Y-97278830D01*
X135595792Y-97314551D01*
X135545932Y-97332059D01*
X135498400Y-97349485D01*
X135452527Y-97367150D01*
X135407643Y-97385374D01*
X135363080Y-97404476D01*
X135318167Y-97424779D01*
X135272235Y-97446601D01*
X135224615Y-97470263D01*
X135174637Y-97496085D01*
X135121633Y-97524388D01*
X135064932Y-97555492D01*
X135003865Y-97589717D01*
X134937763Y-97627384D01*
X134916694Y-97639493D01*
X134858073Y-97673223D01*
X134805102Y-97703651D01*
X134757334Y-97731025D01*
X134714321Y-97755591D01*
X134675616Y-97777596D01*
X134640771Y-97797287D01*
X134609338Y-97814910D01*
X134580870Y-97830714D01*
X134554919Y-97844944D01*
X134531037Y-97857848D01*
X134508777Y-97869672D01*
X134487692Y-97880664D01*
X134467332Y-97891070D01*
X134447252Y-97901138D01*
X134427003Y-97911113D01*
X134406138Y-97921244D01*
X134404306Y-97922128D01*
X134336867Y-97953565D01*
X134273250Y-97980819D01*
X134212082Y-98004282D01*
X134151992Y-98024345D01*
X134091609Y-98041402D01*
X134029560Y-98055844D01*
X133964474Y-98068064D01*
X133894978Y-98078454D01*
X133830139Y-98086279D01*
X133789152Y-98090039D01*
X133743206Y-98092999D01*
X133694358Y-98095105D01*
X133644663Y-98096301D01*
X133596179Y-98096532D01*
X133550962Y-98095744D01*
X133521458Y-98094508D01*
X133441912Y-98087865D01*
X133361456Y-98076743D01*
X133281278Y-98061443D01*
X133202567Y-98042263D01*
X133126511Y-98019501D01*
X133054298Y-97993456D01*
X132987116Y-97964427D01*
X132969008Y-97955625D01*
X132888028Y-97911372D01*
X132808806Y-97860408D01*
X132731482Y-97802893D01*
X132656195Y-97738983D01*
X132583086Y-97668836D01*
X132512295Y-97592610D01*
X132443960Y-97510463D01*
X132378223Y-97422552D01*
X132315222Y-97329036D01*
X132255097Y-97230070D01*
X132197989Y-97125814D01*
X132152897Y-97035201D01*
X132134559Y-96995287D01*
X132116937Y-96953922D01*
X132099526Y-96909814D01*
X132081819Y-96861672D01*
X132063310Y-96808204D01*
X132058965Y-96795250D01*
X132051296Y-96771804D01*
X132043193Y-96746214D01*
X132035008Y-96719673D01*
X132027093Y-96693373D01*
X132019801Y-96668508D01*
X132013485Y-96646269D01*
X132008496Y-96627848D01*
X132005187Y-96614440D01*
X132004378Y-96610558D01*
X132002209Y-96598996D01*
X131797595Y-96516428D01*
X131761615Y-96501883D01*
X131727607Y-96488085D01*
X131696132Y-96475266D01*
X131667748Y-96463654D01*
X131643014Y-96453480D01*
X131622490Y-96444974D01*
X131606734Y-96438367D01*
X131596307Y-96433889D01*
X131591768Y-96431769D01*
X131591619Y-96431656D01*
X131593960Y-96429006D01*
X131601162Y-96422050D01*
X131612812Y-96411163D01*
X131628495Y-96396724D01*
X131647797Y-96379108D01*
X131670304Y-96358694D01*
X131695601Y-96335859D01*
X131723274Y-96310979D01*
X131752909Y-96284432D01*
X131778286Y-96261769D01*
X131814302Y-96229640D01*
X131845416Y-96201846D01*
X131871998Y-96178033D01*
X131894415Y-96157848D01*
X131913038Y-96140935D01*
X131928235Y-96126942D01*
X131940376Y-96115513D01*
X131949830Y-96106294D01*
X131956965Y-96098931D01*
X131962152Y-96093071D01*
X131965759Y-96088358D01*
X131968156Y-96084439D01*
X131969712Y-96080959D01*
X131970795Y-96077565D01*
X131970979Y-96076897D01*
X131977388Y-96056348D01*
X131986490Y-96031398D01*
X131997560Y-96003816D01*
X132009874Y-95975375D01*
X132022705Y-95947843D01*
X132029300Y-95934554D01*
X132061749Y-95876345D01*
X132098977Y-95820220D01*
X132141666Y-95765249D01*
X132190499Y-95710502D01*
X132203642Y-95696849D01*
X132259151Y-95643310D01*
X132316431Y-95594827D01*
X132376685Y-95550531D01*
X132441117Y-95509557D01*
X132510931Y-95471037D01*
X132531917Y-95460420D01*
X132599971Y-95428548D01*
X132667985Y-95400713D01*
X132737187Y-95376541D01*
X132808807Y-95355659D01*
X132884072Y-95337692D01*
X132964212Y-95322268D01*
X133010680Y-95314752D01*
X133030516Y-95311832D01*
X133047844Y-95309566D01*
X133064061Y-95307870D01*
X133080562Y-95306659D01*
X133098742Y-95305848D01*
X133119998Y-95305355D01*
X133145724Y-95305094D01*
X133172208Y-95304991D01*
X133209423Y-95305069D01*
D12*
X137000000Y-121600000D03*
X138000000Y-121600000D03*
X139000000Y-121600000D03*
X140000000Y-121600000D03*
X141000000Y-121600000D03*
X142000000Y-121600000D03*
X143000000Y-121600000D03*
X144000000Y-121600000D03*
X145000000Y-121600000D03*
X146000000Y-121600000D03*
X147000000Y-121600000D03*
X148000000Y-121600000D03*
X149000000Y-121600000D03*
X150000000Y-121600000D03*
X151000000Y-121600000D03*
X152000000Y-121600000D03*
D13*
X136000000Y-123700000D03*
X153000000Y-123700000D03*
D14*
X138250000Y-117750000D03*
X138250000Y-114150000D03*
X137750000Y-114150000D03*
X137750000Y-117750000D03*
D15*
X139300000Y-117200000D03*
X139300000Y-116700000D03*
X139300000Y-116200000D03*
X139300000Y-115700000D03*
X139300000Y-115200000D03*
X139300000Y-114700000D03*
X136700000Y-114700000D03*
X136700000Y-115200000D03*
X136700000Y-115700000D03*
X136700000Y-116200000D03*
X136700000Y-116700000D03*
X136700000Y-117200000D03*
D16*
X148800000Y-101700000D03*
D17*
X148250000Y-100650000D03*
X147750000Y-100650000D03*
X147250000Y-100650000D03*
X146750000Y-100650000D03*
X146250000Y-100650000D03*
X145750000Y-100650000D03*
X145250000Y-100650000D03*
X144750000Y-100650000D03*
X144250000Y-100650000D03*
X143750000Y-100650000D03*
D16*
X143200000Y-101700000D03*
X143200000Y-103200000D03*
D17*
X143750000Y-104250000D03*
X144250000Y-104250000D03*
X144750000Y-104250000D03*
X145250000Y-104250000D03*
X145750000Y-104250000D03*
X146250000Y-104250000D03*
X146750000Y-104250000D03*
X147250000Y-104250000D03*
X147750000Y-104250000D03*
X148250000Y-104250000D03*
D16*
X148800000Y-103200000D03*
X151850000Y-112150000D03*
D17*
X151300000Y-111100000D03*
X150800000Y-111100000D03*
X150300000Y-111100000D03*
X149800000Y-111100000D03*
X149300000Y-111100000D03*
X148800000Y-111100000D03*
X148300000Y-111100000D03*
X147800000Y-111100000D03*
X147300000Y-111100000D03*
X146800000Y-111100000D03*
D16*
X146250000Y-112150000D03*
X146250000Y-113650000D03*
D17*
X146800000Y-114700000D03*
X147300000Y-114700000D03*
X147800000Y-114700000D03*
X148300000Y-114700000D03*
X148800000Y-114700000D03*
X149300000Y-114700000D03*
X149800000Y-114700000D03*
X150300000Y-114700000D03*
X150800000Y-114700000D03*
X151300000Y-114700000D03*
D16*
X151850000Y-113650000D03*
D10*
G36*
X170728840Y-95105439D02*
X171365237Y-94469042D01*
X171570298Y-94674103D01*
X170933901Y-95310500D01*
X170728840Y-95105439D01*
X170728840Y-95105439D01*
G37*
G36*
X169597469Y-94320550D02*
X169802530Y-94115489D01*
X170438927Y-94751886D01*
X170233866Y-94956947D01*
X169597469Y-94320550D01*
X169597469Y-94320550D01*
G37*
G36*
X169243916Y-94674103D02*
X169448977Y-94469042D01*
X170085374Y-95105439D01*
X169880313Y-95310500D01*
X169243916Y-94674103D01*
X169243916Y-94674103D01*
G37*
G36*
X168890362Y-95027656D02*
X169095423Y-94822595D01*
X169731820Y-95458992D01*
X169526759Y-95664053D01*
X168890362Y-95027656D01*
X168890362Y-95027656D01*
G37*
G36*
X168536809Y-95381210D02*
X168741870Y-95176149D01*
X169378267Y-95812546D01*
X169173206Y-96017607D01*
X168536809Y-95381210D01*
X168536809Y-95381210D01*
G37*
G36*
X168183255Y-95734763D02*
X168388316Y-95529702D01*
X169024713Y-96166099D01*
X168819652Y-96371160D01*
X168183255Y-95734763D01*
X168183255Y-95734763D01*
G37*
G36*
X167829702Y-96088316D02*
X168034763Y-95883255D01*
X168671160Y-96519652D01*
X168466099Y-96724713D01*
X167829702Y-96088316D01*
X167829702Y-96088316D01*
G37*
G36*
X167476149Y-96441870D02*
X167681210Y-96236809D01*
X168317607Y-96873206D01*
X168112546Y-97078267D01*
X167476149Y-96441870D01*
X167476149Y-96441870D01*
G37*
G36*
X167122595Y-96795423D02*
X167327656Y-96590362D01*
X167964053Y-97226759D01*
X167758992Y-97431820D01*
X167122595Y-96795423D01*
X167122595Y-96795423D01*
G37*
G36*
X166769042Y-97148977D02*
X166974103Y-96943916D01*
X167610500Y-97580313D01*
X167405439Y-97785374D01*
X166769042Y-97148977D01*
X166769042Y-97148977D01*
G37*
G36*
X166415489Y-97502530D02*
X166620550Y-97297469D01*
X167256947Y-97933866D01*
X167051886Y-98138927D01*
X166415489Y-97502530D01*
X166415489Y-97502530D01*
G37*
G36*
X166769042Y-99065237D02*
X167405439Y-98428840D01*
X167610500Y-98633901D01*
X166974103Y-99270298D01*
X166769042Y-99065237D01*
X166769042Y-99065237D01*
G37*
G36*
X167829702Y-100125897D02*
X168466099Y-99489500D01*
X168671160Y-99694561D01*
X168034763Y-100330958D01*
X167829702Y-100125897D01*
X167829702Y-100125897D01*
G37*
G36*
X168961073Y-100048114D02*
X169166134Y-99843053D01*
X169802531Y-100479450D01*
X169597470Y-100684511D01*
X168961073Y-100048114D01*
X168961073Y-100048114D01*
G37*
G36*
X169314626Y-99694561D02*
X169519687Y-99489500D01*
X170156084Y-100125897D01*
X169951023Y-100330958D01*
X169314626Y-99694561D01*
X169314626Y-99694561D01*
G37*
G36*
X169668180Y-99341008D02*
X169873241Y-99135947D01*
X170509638Y-99772344D01*
X170304577Y-99977405D01*
X169668180Y-99341008D01*
X169668180Y-99341008D01*
G37*
G36*
X170021733Y-98987454D02*
X170226794Y-98782393D01*
X170863191Y-99418790D01*
X170658130Y-99623851D01*
X170021733Y-98987454D01*
X170021733Y-98987454D01*
G37*
G36*
X170375287Y-98633901D02*
X170580348Y-98428840D01*
X171216745Y-99065237D01*
X171011684Y-99270298D01*
X170375287Y-98633901D01*
X170375287Y-98633901D01*
G37*
G36*
X170728840Y-98280348D02*
X170933901Y-98075287D01*
X171570298Y-98711684D01*
X171365237Y-98916745D01*
X170728840Y-98280348D01*
X170728840Y-98280348D01*
G37*
G36*
X171082393Y-97926794D02*
X171287454Y-97721733D01*
X171923851Y-98358130D01*
X171718790Y-98563191D01*
X171082393Y-97926794D01*
X171082393Y-97926794D01*
G37*
G36*
X171435947Y-97573241D02*
X171641008Y-97368180D01*
X172277405Y-98004577D01*
X172072344Y-98209638D01*
X171435947Y-97573241D01*
X171435947Y-97573241D01*
G37*
G36*
X171789500Y-97219687D02*
X171994561Y-97014626D01*
X172630958Y-97651023D01*
X172425897Y-97856084D01*
X171789500Y-97219687D01*
X171789500Y-97219687D01*
G37*
G36*
X172143053Y-96866134D02*
X172348114Y-96661073D01*
X172984511Y-97297470D01*
X172779450Y-97502531D01*
X172143053Y-96866134D01*
X172143053Y-96866134D01*
G37*
G36*
X171789500Y-96166099D02*
X172425897Y-95529702D01*
X172630958Y-95734763D01*
X171994561Y-96371160D01*
X171789500Y-96166099D01*
X171789500Y-96166099D01*
G37*
G36*
X170694561Y-121028840D02*
X171330958Y-121665237D01*
X171125897Y-121870298D01*
X170489500Y-121233901D01*
X170694561Y-121028840D01*
X170694561Y-121028840D01*
G37*
G36*
X171479450Y-119897469D02*
X171684511Y-120102530D01*
X171048114Y-120738927D01*
X170843053Y-120533866D01*
X171479450Y-119897469D01*
X171479450Y-119897469D01*
G37*
G36*
X171125897Y-119543916D02*
X171330958Y-119748977D01*
X170694561Y-120385374D01*
X170489500Y-120180313D01*
X171125897Y-119543916D01*
X171125897Y-119543916D01*
G37*
G36*
X170772344Y-119190362D02*
X170977405Y-119395423D01*
X170341008Y-120031820D01*
X170135947Y-119826759D01*
X170772344Y-119190362D01*
X170772344Y-119190362D01*
G37*
G36*
X170418790Y-118836809D02*
X170623851Y-119041870D01*
X169987454Y-119678267D01*
X169782393Y-119473206D01*
X170418790Y-118836809D01*
X170418790Y-118836809D01*
G37*
G36*
X170065237Y-118483255D02*
X170270298Y-118688316D01*
X169633901Y-119324713D01*
X169428840Y-119119652D01*
X170065237Y-118483255D01*
X170065237Y-118483255D01*
G37*
G36*
X169711684Y-118129702D02*
X169916745Y-118334763D01*
X169280348Y-118971160D01*
X169075287Y-118766099D01*
X169711684Y-118129702D01*
X169711684Y-118129702D01*
G37*
G36*
X169358130Y-117776149D02*
X169563191Y-117981210D01*
X168926794Y-118617607D01*
X168721733Y-118412546D01*
X169358130Y-117776149D01*
X169358130Y-117776149D01*
G37*
G36*
X169004577Y-117422595D02*
X169209638Y-117627656D01*
X168573241Y-118264053D01*
X168368180Y-118058992D01*
X169004577Y-117422595D01*
X169004577Y-117422595D01*
G37*
G36*
X168651023Y-117069042D02*
X168856084Y-117274103D01*
X168219687Y-117910500D01*
X168014626Y-117705439D01*
X168651023Y-117069042D01*
X168651023Y-117069042D01*
G37*
G36*
X168297470Y-116715489D02*
X168502531Y-116920550D01*
X167866134Y-117556947D01*
X167661073Y-117351886D01*
X168297470Y-116715489D01*
X168297470Y-116715489D01*
G37*
G36*
X166734763Y-117069042D02*
X167371160Y-117705439D01*
X167166099Y-117910500D01*
X166529702Y-117274103D01*
X166734763Y-117069042D01*
X166734763Y-117069042D01*
G37*
G36*
X165674103Y-118129702D02*
X166310500Y-118766099D01*
X166105439Y-118971160D01*
X165469042Y-118334763D01*
X165674103Y-118129702D01*
X165674103Y-118129702D01*
G37*
G36*
X165751886Y-119261073D02*
X165956947Y-119466134D01*
X165320550Y-120102531D01*
X165115489Y-119897470D01*
X165751886Y-119261073D01*
X165751886Y-119261073D01*
G37*
G36*
X166105439Y-119614626D02*
X166310500Y-119819687D01*
X165674103Y-120456084D01*
X165469042Y-120251023D01*
X166105439Y-119614626D01*
X166105439Y-119614626D01*
G37*
G36*
X166458992Y-119968180D02*
X166664053Y-120173241D01*
X166027656Y-120809638D01*
X165822595Y-120604577D01*
X166458992Y-119968180D01*
X166458992Y-119968180D01*
G37*
G36*
X166812546Y-120321733D02*
X167017607Y-120526794D01*
X166381210Y-121163191D01*
X166176149Y-120958130D01*
X166812546Y-120321733D01*
X166812546Y-120321733D01*
G37*
G36*
X167166099Y-120675287D02*
X167371160Y-120880348D01*
X166734763Y-121516745D01*
X166529702Y-121311684D01*
X167166099Y-120675287D01*
X167166099Y-120675287D01*
G37*
G36*
X167519652Y-121028840D02*
X167724713Y-121233901D01*
X167088316Y-121870298D01*
X166883255Y-121665237D01*
X167519652Y-121028840D01*
X167519652Y-121028840D01*
G37*
G36*
X167873206Y-121382393D02*
X168078267Y-121587454D01*
X167441870Y-122223851D01*
X167236809Y-122018790D01*
X167873206Y-121382393D01*
X167873206Y-121382393D01*
G37*
G36*
X168226759Y-121735947D02*
X168431820Y-121941008D01*
X167795423Y-122577405D01*
X167590362Y-122372344D01*
X168226759Y-121735947D01*
X168226759Y-121735947D01*
G37*
G36*
X168580313Y-122089500D02*
X168785374Y-122294561D01*
X168148977Y-122930958D01*
X167943916Y-122725897D01*
X168580313Y-122089500D01*
X168580313Y-122089500D01*
G37*
G36*
X168933866Y-122443053D02*
X169138927Y-122648114D01*
X168502530Y-123284511D01*
X168297469Y-123079450D01*
X168933866Y-122443053D01*
X168933866Y-122443053D01*
G37*
G36*
X169633901Y-122089500D02*
X170270298Y-122725897D01*
X170065237Y-122930958D01*
X169428840Y-122294561D01*
X169633901Y-122089500D01*
X169633901Y-122089500D01*
G37*
D18*
X164500000Y-120300000D03*
X160141749Y-120550000D03*
X143200000Y-102500000D03*
X170600000Y-100600000D03*
X167600000Y-99500000D03*
X145900000Y-118400000D03*
X145900000Y-123400000D03*
X138970457Y-113821291D03*
X144500000Y-105400000D03*
X140326577Y-115259564D03*
X145200000Y-112100000D03*
X171360000Y-92280000D03*
X148584468Y-116823784D03*
X171000000Y-123800000D03*
X169300000Y-123800000D03*
X140309075Y-117191059D03*
X140609379Y-116048628D03*
X153937447Y-113672000D03*
X172300000Y-93800000D03*
X156200000Y-97100000D03*
X153400000Y-103499994D03*
X160300000Y-118700000D03*
X164581049Y-117115293D03*
X141800000Y-110900000D03*
X167132985Y-114978957D03*
X144400000Y-111400000D03*
X138300000Y-119800000D03*
X141801220Y-112718686D03*
X161200000Y-119128480D03*
X164320714Y-117980918D03*
X142728480Y-110220045D03*
X144628621Y-110407057D03*
X139400000Y-119800000D03*
X143871520Y-112722320D03*
X165051279Y-119249865D03*
X159838359Y-119768621D03*
X166299903Y-115071559D03*
X154953113Y-120877680D03*
X146677680Y-117071484D03*
X140300000Y-119900000D03*
X143168001Y-113643157D03*
X160800000Y-121600000D03*
X167500177Y-116685138D03*
X166600000Y-118200000D03*
X145300000Y-114500000D03*
X141200000Y-119700000D03*
X142376267Y-117334687D03*
X142013185Y-119903296D03*
X142900000Y-119754243D03*
X143000000Y-117900000D03*
X143978651Y-119849432D03*
X144000000Y-118300000D03*
X145000000Y-118400000D03*
X145000000Y-119800000D03*
X149300000Y-118413533D03*
X151660590Y-119010654D03*
X159300000Y-109800000D03*
X149909816Y-119583671D03*
X152600000Y-119000000D03*
X159400000Y-110700000D03*
X148200000Y-119700000D03*
X154203439Y-119128480D03*
X159400000Y-101800000D03*
X149100002Y-119800000D03*
X153881135Y-118354711D03*
D19*
X158255617Y-99054899D03*
X158255617Y-99054899D03*
X156437124Y-117714065D03*
X157446623Y-116264546D03*
X161523051Y-116737732D03*
D18*
X150798761Y-118205197D03*
X149314439Y-117270512D03*
D19*
X161045015Y-99054899D03*
D18*
X166628480Y-122826273D03*
X165748513Y-122052168D03*
D19*
X161996016Y-116045704D03*
X162767523Y-116433503D03*
X163540000Y-115990000D03*
X163625803Y-117020165D03*
X164677927Y-116277298D03*
D18*
X167765542Y-115528930D03*
D19*
X166452313Y-113928537D03*
D18*
X171857628Y-121152203D03*
X168600730Y-115600061D03*
D19*
X165607161Y-113704049D03*
D18*
X171877680Y-119499998D03*
D19*
X165605042Y-112865840D03*
D18*
X168568740Y-114461506D03*
X171400000Y-118800000D03*
X170626195Y-113868340D03*
D19*
X164700000Y-112900000D03*
D18*
X168342958Y-113629670D03*
D19*
X164787300Y-112029507D03*
D18*
X170093653Y-113052771D03*
X168075725Y-112835198D03*
D19*
X163783155Y-111316748D03*
D18*
X167532652Y-112061600D03*
X169500418Y-112258144D03*
D19*
X168599462Y-111502140D03*
X163528885Y-110173726D03*
X163700000Y-106699996D03*
D18*
X166495177Y-105779252D03*
D19*
X162917233Y-105773905D03*
D18*
X167700000Y-105700000D03*
X166594252Y-104946916D03*
D19*
X163900000Y-105500000D03*
D18*
X168400000Y-105000000D03*
X166601952Y-104108740D03*
D19*
X162988743Y-104630882D03*
D18*
X168700000Y-104100000D03*
X166418886Y-103290764D03*
D19*
X164208262Y-104233682D03*
D18*
X170000000Y-103200000D03*
X167306354Y-102919789D03*
D19*
X163633163Y-103623879D03*
D18*
X171817506Y-102760838D03*
X167686844Y-102144202D03*
D19*
X164510988Y-103080989D03*
D18*
X173267077Y-101291360D03*
D19*
X163925512Y-102481142D03*
D18*
X168792867Y-101271520D03*
X172977680Y-96300000D03*
X170358453Y-92669345D03*
X166675319Y-96370794D03*
D19*
X165449376Y-100142373D03*
D18*
X169867078Y-93345288D03*
X165600000Y-95900000D03*
D19*
X164496621Y-100273613D03*
D18*
X168922069Y-93557547D03*
X166415868Y-95227772D03*
D19*
X164914047Y-99035328D03*
D18*
X165856067Y-94536610D03*
X169500000Y-92500000D03*
D19*
X164080050Y-99148578D03*
D18*
X168616630Y-92415374D03*
X166500000Y-94000000D03*
D19*
X163435854Y-98612285D03*
D18*
X166000000Y-93100000D03*
X169000000Y-91500000D03*
D19*
X162933625Y-99319524D03*
D18*
X167900000Y-91477931D03*
X166600000Y-92400000D03*
D19*
X162207512Y-98900766D03*
X161835375Y-99815595D03*
X157346862Y-99771229D03*
X156760000Y-98970000D03*
X156138620Y-99719813D03*
X154700925Y-99969497D03*
X154142323Y-100591036D03*
X155029216Y-101160016D03*
X154063921Y-101911817D03*
X155450923Y-102278211D03*
X154700000Y-102980000D03*
X155731356Y-103448640D03*
D18*
X155156773Y-104173153D03*
X154248970Y-105773268D03*
X155030908Y-105311095D03*
D19*
X155987304Y-105757689D03*
X155591702Y-106504132D03*
X156597189Y-106791829D03*
X155849475Y-109450942D03*
X156328496Y-110253281D03*
X155461664Y-110744803D03*
X156058966Y-111396303D03*
X155122346Y-111940706D03*
X155733147Y-112537001D03*
X154988699Y-113106476D03*
X155449606Y-113806593D03*
X154616544Y-114288174D03*
X155152729Y-114949170D03*
X153934695Y-115269631D03*
X154471693Y-115922208D03*
X155025317Y-116551572D03*
X156216367Y-116414980D03*
X156875103Y-116999381D03*
D18*
X135776331Y-115600000D03*
X133594652Y-116102115D03*
X151166057Y-101236441D03*
X153000000Y-97699614D03*
X145898236Y-117379813D03*
X135328480Y-114440100D03*
X134276211Y-115023448D03*
X151700000Y-112900000D03*
D20*
X164500000Y-119579839D02*
X164500000Y-119815067D01*
X164500000Y-119815067D02*
X164500000Y-120300000D01*
X164355978Y-119435817D02*
X164500000Y-119579839D01*
X164430008Y-119213746D02*
X164355978Y-119435817D01*
X164430008Y-118890998D02*
X164430008Y-119213746D01*
X166950431Y-117489771D02*
X165831235Y-117489771D01*
X164624263Y-120424263D02*
X164500000Y-120300000D01*
X165831235Y-117489771D02*
X164430008Y-118890998D01*
X165500863Y-120424263D02*
X164624263Y-120424263D01*
X165889771Y-120035355D02*
X165500863Y-120424263D01*
X157691826Y-121505266D02*
X158647092Y-120550000D01*
X154100000Y-121000000D02*
X154605266Y-121505266D01*
X152000000Y-121600000D02*
X152600000Y-121000000D01*
X154605266Y-121505266D02*
X157691826Y-121505266D01*
X152600000Y-121000000D02*
X154100000Y-121000000D01*
X158647092Y-120550000D02*
X159656816Y-120550000D01*
X159656816Y-120550000D02*
X160141749Y-120550000D01*
X143200000Y-101700000D02*
X143200000Y-102500000D01*
X170425126Y-100600000D02*
X170600000Y-100600000D01*
X169735355Y-99910229D02*
X170425126Y-100600000D01*
X167189771Y-98849569D02*
X167189771Y-99089771D01*
X167189771Y-99089771D02*
X167600000Y-99500000D01*
X147242899Y-118057101D02*
X147300000Y-118000000D01*
X147300000Y-118000000D02*
X147300000Y-114700000D01*
X145900000Y-118400000D02*
X146242899Y-118057101D01*
X146242899Y-118057101D02*
X147242899Y-118057101D01*
X152000000Y-121600000D02*
X152000000Y-122300000D01*
X152000000Y-122300000D02*
X150900000Y-123400000D01*
X150900000Y-123400000D02*
X145900000Y-123400000D01*
X138250000Y-114150000D02*
X138641748Y-114150000D01*
X138641748Y-114150000D02*
X138970457Y-113821291D01*
X144250000Y-105150000D02*
X144500000Y-105400000D01*
X144250000Y-104250000D02*
X144250000Y-105150000D01*
X140267013Y-115200000D02*
X140326577Y-115259564D01*
X139300000Y-115200000D02*
X140267013Y-115200000D01*
X146250000Y-112150000D02*
X145250000Y-112150000D01*
X145250000Y-112150000D02*
X145200000Y-112100000D01*
X171017101Y-91937101D02*
X171360000Y-92280000D01*
X157400532Y-97100000D02*
X163644920Y-90855611D01*
X169935611Y-90855611D02*
X171017101Y-91937101D01*
X163644920Y-90855611D02*
X169935611Y-90855611D01*
X156200000Y-97100000D02*
X157400532Y-97100000D01*
X144493120Y-119155611D02*
X146737574Y-119155611D01*
X141552931Y-119131923D02*
X143483192Y-119131923D01*
X141498706Y-119077698D02*
X141552931Y-119131923D01*
X140600000Y-119204000D02*
X140726302Y-119077698D01*
X140726302Y-119077698D02*
X141498706Y-119077698D01*
X143483192Y-119131923D02*
X143578381Y-119227112D01*
X143578381Y-119227112D02*
X144421619Y-119227112D01*
X148584468Y-117308717D02*
X148584468Y-116823784D01*
X146737574Y-119155611D02*
X148584468Y-117308717D01*
X144421619Y-119227112D02*
X144493120Y-119155611D01*
X154099810Y-127265233D02*
X154665043Y-126700000D01*
X165659798Y-126700000D02*
X168859798Y-123500000D01*
X154665043Y-126700000D02*
X165659798Y-126700000D01*
X144600190Y-127265233D02*
X154099810Y-127265233D01*
X144034957Y-126700000D02*
X144600190Y-127265233D01*
X137000000Y-122300000D02*
X141400000Y-126700000D01*
X137000000Y-121600000D02*
X137000000Y-122300000D01*
X141400000Y-126700000D02*
X144034957Y-126700000D01*
X172642899Y-94142899D02*
X172300000Y-93800000D01*
X171000000Y-123800000D02*
X173889378Y-120910622D01*
X173889378Y-120910622D02*
X173889378Y-95389378D01*
X173889378Y-95389378D02*
X172642899Y-94142899D01*
X168859798Y-123500000D02*
X169000000Y-123500000D01*
X168859798Y-123500000D02*
X169849569Y-122510229D01*
X169000000Y-123500000D02*
X169300000Y-123800000D01*
X140309075Y-118913075D02*
X140309075Y-117675992D01*
X140309075Y-117675992D02*
X140309075Y-117191059D01*
X140952278Y-115705729D02*
X140609379Y-116048628D01*
X140952278Y-114931271D02*
X140952278Y-115705729D01*
X140084068Y-114326000D02*
X140399613Y-114641545D01*
X140004000Y-114326000D02*
X140084068Y-114326000D01*
X139630000Y-114700000D02*
X140004000Y-114326000D01*
X139300000Y-114700000D02*
X139630000Y-114700000D01*
X140662552Y-114641545D02*
X140952278Y-114931271D01*
X140600000Y-119204000D02*
X140309075Y-118913075D01*
X140399613Y-114641545D02*
X140662552Y-114641545D01*
X140573698Y-119177698D02*
X140600000Y-119204000D01*
X137026302Y-119177698D02*
X140573698Y-119177698D01*
X137000000Y-119204000D02*
X137026302Y-119177698D01*
X153915447Y-113650000D02*
X153937447Y-113672000D01*
X151850000Y-113650000D02*
X153915447Y-113650000D01*
X172300000Y-93800000D02*
X172300000Y-95860660D01*
X172300000Y-95860660D02*
X172210229Y-95950431D01*
X148800000Y-103200000D02*
X153100006Y-103200000D01*
X153100006Y-103200000D02*
X153400000Y-103499994D01*
X137750000Y-117750000D02*
X137750000Y-118454000D01*
X137750000Y-118454000D02*
X137000000Y-119204000D01*
X137000000Y-120346000D02*
X137000000Y-121600000D01*
X137000000Y-119204000D02*
X137000000Y-120346000D01*
D21*
X161314710Y-111776844D02*
X161314710Y-112269000D01*
X165246890Y-116934385D02*
X165065982Y-117115293D01*
X142033412Y-126333412D02*
X144171278Y-126333412D01*
X162647488Y-100890378D02*
X160990378Y-102547488D01*
X167189771Y-97364645D02*
X166800863Y-96975737D01*
X160323687Y-122476313D02*
X161600578Y-122476313D01*
X164063511Y-114816497D02*
X165246890Y-115999876D01*
X165065982Y-117115293D02*
X164581049Y-117115293D01*
X160990378Y-111452512D02*
X161314710Y-111776844D01*
X166095189Y-97232854D02*
X166095189Y-100304811D01*
X166095189Y-100304811D02*
X165609620Y-100790380D01*
X166800863Y-96975737D02*
X166352306Y-96975737D01*
X165246890Y-115999876D02*
X165246890Y-116934385D01*
X161600578Y-122476313D02*
X161950083Y-122126808D01*
X160956436Y-118528497D02*
X160784933Y-118700000D01*
X165609620Y-100790380D02*
X165247487Y-100790380D01*
X160784933Y-118700000D02*
X160300000Y-118700000D01*
X144747488Y-126909622D02*
X153952512Y-126909622D01*
X163862207Y-114816497D02*
X164063511Y-114816497D01*
X138000000Y-122300000D02*
X142033412Y-126333412D01*
X138000000Y-121600000D02*
X138000000Y-122300000D01*
X154528722Y-126333412D02*
X156466588Y-126333412D01*
X161455604Y-118528497D02*
X160956436Y-118528497D01*
X161950083Y-119022976D02*
X161455604Y-118528497D01*
X153952512Y-126909622D02*
X154528722Y-126333412D01*
X144171278Y-126333412D02*
X144747488Y-126909622D01*
X156466588Y-126333412D02*
X160323687Y-122476313D01*
X161314710Y-112269000D02*
X163862207Y-114816497D01*
X165247487Y-100790380D02*
X165147489Y-100890378D01*
X161950083Y-122126808D02*
X161950083Y-119022976D01*
X165147489Y-100890378D02*
X162647488Y-100890378D01*
X160990378Y-102547488D02*
X160990378Y-111452512D01*
X166352306Y-96975737D02*
X166095189Y-97232854D01*
X141800000Y-101300000D02*
X141800000Y-110900000D01*
X143600000Y-99500000D02*
X141800000Y-101300000D01*
X143702400Y-99500000D02*
X143600000Y-99500000D01*
X144250000Y-100650000D02*
X144250000Y-100047600D01*
X144250000Y-100047600D02*
X143702400Y-99500000D01*
X167814600Y-116171502D02*
X167743098Y-116100000D01*
X168435355Y-117489771D02*
X168824263Y-117100863D01*
X167132985Y-115463890D02*
X167132985Y-114978957D01*
X167132985Y-115862904D02*
X167132985Y-115463890D01*
X168471502Y-116171502D02*
X167814600Y-116171502D01*
X167743098Y-116100000D02*
X167370081Y-116100000D01*
X168824263Y-117100863D02*
X168824263Y-116524263D01*
X167370081Y-116100000D02*
X167132985Y-115862904D01*
X168824263Y-116524263D02*
X168471502Y-116171502D01*
X144700000Y-109500000D02*
X146302400Y-109500000D01*
X146302400Y-109500000D02*
X147300000Y-110497600D01*
X147300000Y-110497600D02*
X147300000Y-111100000D01*
X144057101Y-110142899D02*
X144700000Y-109500000D01*
X144400000Y-111400000D02*
X144057101Y-111057101D01*
X144057101Y-111057101D02*
X144057101Y-110142899D01*
X138000000Y-121600000D02*
X138000000Y-120100000D01*
X138000000Y-120100000D02*
X138300000Y-119800000D01*
X166400000Y-98154416D02*
X166662978Y-97891438D01*
X166400000Y-100468934D02*
X166400000Y-98154416D01*
X162773744Y-101195189D02*
X165673745Y-101195189D01*
X164503252Y-114514226D02*
X164145292Y-114514226D01*
X164145292Y-114514226D02*
X161619521Y-111988455D01*
X166300000Y-116310974D02*
X164503252Y-114514226D01*
X161295189Y-111326256D02*
X161295189Y-102673744D01*
X161619521Y-111988455D02*
X161619521Y-111650587D01*
X166662978Y-97891438D02*
X166836218Y-97718198D01*
X161295189Y-102673744D02*
X162773744Y-101195189D01*
X161619521Y-111650587D02*
X161295189Y-111326256D01*
X165673745Y-101195189D02*
X166400000Y-100468934D01*
X142728480Y-111791426D02*
X142144119Y-112375787D01*
X142144119Y-112375787D02*
X141801220Y-112718686D01*
X142728480Y-110220045D02*
X142728480Y-111791426D01*
X139000000Y-121600000D02*
X139000000Y-122300000D01*
X155071399Y-126028601D02*
X158928498Y-122171502D01*
X161542899Y-119471379D02*
X161200000Y-119128480D01*
X161542899Y-122102925D02*
X161542899Y-119471379D01*
X161474322Y-122171502D02*
X161542899Y-122102925D01*
X154402466Y-126028601D02*
X155071399Y-126028601D01*
X144297534Y-126028601D02*
X144873744Y-126604811D01*
X153826256Y-126604811D02*
X154402466Y-126028601D01*
X142728601Y-126028601D02*
X144297534Y-126028601D01*
X144873744Y-126604811D02*
X153826256Y-126604811D01*
X139000000Y-122300000D02*
X142728601Y-126028601D01*
X158928498Y-122171502D02*
X161474322Y-122171502D01*
X164805647Y-117980918D02*
X164320714Y-117980918D01*
X166300000Y-116310974D02*
X166300000Y-116486565D01*
X166300000Y-116486565D02*
X164805647Y-117980918D01*
X167514152Y-117525126D02*
X166300000Y-116310974D01*
X167692894Y-117525126D02*
X167514152Y-117525126D01*
X168081802Y-117136218D02*
X167692894Y-117525126D01*
X142385581Y-109877146D02*
X142728480Y-110220045D01*
X142385581Y-101507937D02*
X142385581Y-109877146D01*
X143243518Y-100650000D02*
X142385581Y-101507937D01*
X143750000Y-100650000D02*
X143243518Y-100650000D01*
X145321564Y-111100000D02*
X144971520Y-110749956D01*
X146800000Y-111100000D02*
X145321564Y-111100000D01*
X144971520Y-110749956D02*
X144628621Y-110407057D01*
X139000000Y-121600000D02*
X139000000Y-120200000D01*
X139000000Y-120200000D02*
X139400000Y-119800000D01*
X143750000Y-113795822D02*
X143871520Y-113674302D01*
X143871520Y-113674302D02*
X143871520Y-113207253D01*
X143871520Y-113207253D02*
X143871520Y-112722320D01*
X165536218Y-119681802D02*
X165104281Y-119249865D01*
X165104281Y-119249865D02*
X165051279Y-119249865D01*
X159353426Y-119768621D02*
X159838359Y-119768621D01*
X154953113Y-120877680D02*
X157816502Y-120877680D01*
X158925561Y-119768621D02*
X159353426Y-119768621D01*
X157816502Y-120877680D02*
X158925561Y-119768621D01*
X143750000Y-110681066D02*
X143750000Y-113795822D01*
X143750000Y-104250000D02*
X143750000Y-110681066D01*
X162424904Y-111573744D02*
X165579820Y-114728660D01*
X163557322Y-101804811D02*
X162020835Y-103341298D01*
X166786916Y-101804811D02*
X163557322Y-101804811D01*
X169381802Y-100263782D02*
X168945584Y-100700000D01*
X165957004Y-114728660D02*
X166299903Y-115071559D01*
X165579820Y-114728660D02*
X165957004Y-114728660D01*
X167891726Y-100700000D02*
X166786916Y-101804811D01*
X168945584Y-100700000D02*
X167891726Y-100700000D01*
X162020835Y-109689768D02*
X162424904Y-110093837D01*
X162424904Y-110093837D02*
X162424904Y-111573744D01*
X162020835Y-103341298D02*
X162020835Y-109689768D01*
X146800000Y-116949164D02*
X146677680Y-117071484D01*
X146800000Y-114700000D02*
X146800000Y-116949164D01*
X140000000Y-121600000D02*
X140000000Y-120200000D01*
X140000000Y-120200000D02*
X140300000Y-119900000D01*
X145900200Y-115302400D02*
X146502600Y-114700000D01*
X143750000Y-113795822D02*
X145256578Y-115302400D01*
X145256578Y-115302400D02*
X145900200Y-115302400D01*
X146502600Y-114700000D02*
X146800000Y-114700000D01*
X143300000Y-103597400D02*
X143300000Y-113026225D01*
X143200000Y-103497400D02*
X143300000Y-103597400D01*
X143200000Y-103200000D02*
X143200000Y-103497400D01*
X143168001Y-113158224D02*
X143168001Y-113643157D01*
X143300000Y-113026225D02*
X143168001Y-113158224D01*
X145000000Y-126300000D02*
X153400000Y-126300000D01*
X160315067Y-121600000D02*
X160800000Y-121600000D01*
X158100000Y-121600000D02*
X160315067Y-121600000D01*
X153400000Y-126300000D02*
X158100000Y-121600000D01*
X141000000Y-122300000D02*
X145000000Y-126300000D01*
X141000000Y-121600000D02*
X141000000Y-122300000D01*
X162900000Y-101500000D02*
X166660660Y-101500000D01*
X166660660Y-101500000D02*
X168250431Y-99910229D01*
X161600000Y-102800000D02*
X162900000Y-101500000D01*
X161600000Y-111200000D02*
X161600000Y-102800000D01*
X162100000Y-111700000D02*
X161600000Y-111200000D01*
X162120093Y-111700000D02*
X162100000Y-111700000D01*
X167500177Y-116685138D02*
X167105231Y-116685138D01*
X167105231Y-116685138D02*
X162120093Y-111700000D01*
X166249569Y-118550431D02*
X166600000Y-118200000D01*
X165889771Y-118550431D02*
X166249569Y-118550431D01*
X145300000Y-114500000D02*
X145400000Y-114500000D01*
X145400000Y-114500000D02*
X146250000Y-113650000D01*
X141000000Y-121600000D02*
X141000000Y-119900000D01*
X141000000Y-119900000D02*
X141200000Y-119700000D01*
X142376267Y-114953156D02*
X142376267Y-116849754D01*
X142376267Y-116849754D02*
X142376267Y-117334687D01*
X140799423Y-113676312D02*
X141099423Y-113676312D01*
X139723111Y-112600000D02*
X140799423Y-113676312D01*
X141099423Y-113676312D02*
X142376267Y-114953156D01*
X135900000Y-114200000D02*
X137500000Y-112600000D01*
X136218518Y-115200000D02*
X135900000Y-114881482D01*
X136700000Y-115200000D02*
X136218518Y-115200000D01*
X135900000Y-114881482D02*
X135900000Y-114200000D01*
X137500000Y-112600000D02*
X139723111Y-112600000D01*
X142000000Y-121600000D02*
X142000000Y-119916481D01*
X142000000Y-119916481D02*
X142013185Y-119903296D01*
X136700000Y-114700000D02*
X136700000Y-113900000D01*
X136700000Y-113900000D02*
X137655021Y-112944979D01*
X137655021Y-112944979D02*
X139637023Y-112944979D01*
X139637023Y-112944979D02*
X140673167Y-113981123D01*
X140673167Y-113981123D02*
X140950056Y-113981123D01*
X140950056Y-113981123D02*
X141628499Y-114659566D01*
X141628499Y-114659566D02*
X141628499Y-117645841D01*
X141628499Y-117645841D02*
X141925679Y-117943021D01*
X141925679Y-117943021D02*
X142472046Y-117943021D01*
X142472046Y-117943021D02*
X142515067Y-117900000D01*
X142515067Y-117900000D02*
X143000000Y-117900000D01*
X143000000Y-121600000D02*
X143000000Y-119854243D01*
X143000000Y-119854243D02*
X142900000Y-119754243D01*
X141323688Y-114799771D02*
X141323688Y-117772097D01*
X138099794Y-113249790D02*
X139510767Y-113249790D01*
X142023092Y-118471501D02*
X143343566Y-118471501D01*
X143343566Y-118471501D02*
X143515067Y-118300000D01*
X141323688Y-117772097D02*
X142023092Y-118471501D01*
X140546911Y-114285934D02*
X140809851Y-114285934D01*
X140809851Y-114285934D02*
X141323688Y-114799771D01*
X143515067Y-118300000D02*
X144000000Y-118300000D01*
X137750000Y-114150000D02*
X137750000Y-113599584D01*
X137750000Y-113599584D02*
X138099794Y-113249790D01*
X139510767Y-113249790D02*
X140546911Y-114285934D01*
X144000000Y-121600000D02*
X144000000Y-119870781D01*
X144000000Y-119870781D02*
X143978651Y-119849432D01*
X145000000Y-118400000D02*
X144657101Y-118742899D01*
X140325700Y-116610773D02*
X139991627Y-116610773D01*
X139991627Y-116610773D02*
X139902400Y-116700000D01*
X140593152Y-116620130D02*
X140335057Y-116620130D01*
X140335057Y-116620130D02*
X140325700Y-116610773D01*
X141018877Y-117898353D02*
X141018877Y-117045855D01*
X141018877Y-117045855D02*
X140593152Y-116620130D01*
X141896836Y-118776312D02*
X141018877Y-117898353D01*
X143630490Y-118776312D02*
X141896836Y-118776312D01*
X144274321Y-118871501D02*
X143725679Y-118871501D01*
X143725679Y-118871501D02*
X143630490Y-118776312D01*
X144657101Y-118742899D02*
X144402923Y-118742899D01*
X139902400Y-116700000D02*
X139300000Y-116700000D01*
X144402923Y-118742899D02*
X144274321Y-118871501D01*
X145000000Y-121600000D02*
X145000000Y-119800000D01*
X152003489Y-119353553D02*
X151660590Y-119010654D01*
X152087529Y-119353553D02*
X152003489Y-119353553D01*
X154457197Y-120096707D02*
X152830683Y-120096707D01*
X159361912Y-117969155D02*
X157329699Y-120001368D01*
X154552536Y-120001368D02*
X154457197Y-120096707D01*
X159361912Y-114969154D02*
X159361912Y-117969155D01*
X159971501Y-114359565D02*
X159361912Y-114969154D01*
X159971501Y-109986568D02*
X159971501Y-114359565D01*
X159300000Y-109800000D02*
X159784933Y-109800000D01*
X152830683Y-120096707D02*
X152087529Y-119353553D01*
X157329699Y-120001368D02*
X154552536Y-120001368D01*
X159784933Y-109800000D02*
X159971501Y-109986568D01*
X148815067Y-118413533D02*
X149300000Y-118413533D01*
X148533409Y-118695191D02*
X148815067Y-118413533D01*
X147752409Y-118695191D02*
X148533409Y-118695191D01*
X146000000Y-121600000D02*
X146000000Y-120447600D01*
X146000000Y-120447600D02*
X147752409Y-118695191D01*
X159057101Y-117842899D02*
X157203443Y-119696557D01*
X159057101Y-111042899D02*
X159057101Y-117842899D01*
X154422837Y-119700000D02*
X153300000Y-119700000D01*
X154426280Y-119696557D02*
X154422837Y-119700000D01*
X157203443Y-119696557D02*
X154426280Y-119696557D01*
X152942899Y-119342899D02*
X152600000Y-119000000D01*
X153300000Y-119700000D02*
X152942899Y-119342899D01*
X159400000Y-110700000D02*
X159057101Y-111042899D01*
X149566917Y-119240772D02*
X149909816Y-119583671D01*
X149454643Y-119128498D02*
X149566917Y-119240772D01*
X147000000Y-120054176D02*
X147925678Y-119128498D01*
X147925678Y-119128498D02*
X149454643Y-119128498D01*
X147000000Y-121600000D02*
X147000000Y-120054176D01*
X148000000Y-119900000D02*
X148200000Y-119700000D01*
X148000000Y-121600000D02*
X148000000Y-119900000D01*
X154688372Y-119128480D02*
X154203439Y-119128480D01*
X159400000Y-101800000D02*
X158595191Y-102604809D01*
X158595191Y-102604809D02*
X158595191Y-117573743D01*
X158595191Y-117573743D02*
X157040454Y-119128480D01*
X157040454Y-119128480D02*
X154688372Y-119128480D01*
X149000000Y-121600000D02*
X149000000Y-119900002D01*
X149000000Y-119900002D02*
X149100002Y-119800000D01*
X154275492Y-118354711D02*
X153881135Y-118354711D01*
X154511159Y-118590378D02*
X154275492Y-118354711D01*
X158255617Y-99054899D02*
X158255617Y-117482251D01*
X158255617Y-117482251D02*
X157147490Y-118590378D01*
X157147490Y-118590378D02*
X154511159Y-118590378D01*
X150481318Y-119857993D02*
X150481318Y-119302685D01*
X149922430Y-117646606D02*
X150240170Y-117328866D01*
X153705755Y-117328866D02*
X153855288Y-117478399D01*
X149922430Y-118743797D02*
X149922430Y-117646606D01*
X154281712Y-117478399D02*
X154622189Y-117818876D01*
X153855288Y-117478399D02*
X154281712Y-117478399D01*
X156332313Y-117818876D02*
X156437124Y-117714065D01*
X150240170Y-117328866D02*
X153705755Y-117328866D01*
X150000000Y-120339311D02*
X150481318Y-119857993D01*
X154622189Y-117818876D02*
X156332313Y-117818876D01*
X150481318Y-119302685D02*
X149922430Y-118743797D01*
X150000000Y-121600000D02*
X150000000Y-120339311D01*
X150786129Y-119176429D02*
X150786129Y-120233729D01*
X150786129Y-120233729D02*
X151000000Y-120447600D01*
X151000000Y-120447600D02*
X151000000Y-121600000D01*
X157021235Y-118285567D02*
X154657813Y-118285567D01*
X154657813Y-118285567D02*
X154155456Y-117783210D01*
X154155456Y-117783210D02*
X153729032Y-117783210D01*
X157446623Y-117860179D02*
X157021235Y-118285567D01*
X157446623Y-116264546D02*
X157446623Y-117860179D01*
X150227241Y-118617541D02*
X150786129Y-119176429D01*
X153579499Y-117633677D02*
X150400448Y-117633677D01*
X150400448Y-117633677D02*
X150227241Y-117806884D01*
X150227241Y-117806884D02*
X150227241Y-118617541D01*
X153729032Y-117783210D02*
X153579499Y-117633677D01*
X161802213Y-116737732D02*
X161523051Y-116737732D01*
X163595556Y-120772445D02*
X163595556Y-118531075D01*
X163595556Y-118531075D02*
X161802213Y-116737732D01*
X165594613Y-122771502D02*
X163595556Y-120772445D01*
X166354159Y-121692288D02*
X166354159Y-122254772D01*
X165837429Y-122771502D02*
X165594613Y-122771502D01*
X166354159Y-122254772D02*
X165837429Y-122771502D01*
X166950431Y-121096016D02*
X166354159Y-121692288D01*
X147800000Y-115302400D02*
X148402411Y-115904811D01*
X148402411Y-115904811D02*
X148473745Y-115904811D01*
X149314439Y-116745505D02*
X149314439Y-116785579D01*
X148473745Y-115904811D02*
X149314439Y-116745505D01*
X149314439Y-116785579D02*
X149314439Y-117270512D01*
X147800000Y-114700000D02*
X147800000Y-115302400D01*
X150798761Y-118690130D02*
X150798761Y-118205197D01*
X151088431Y-119054328D02*
X151088431Y-118979800D01*
X151090940Y-119056837D02*
X151088431Y-119054328D01*
X151932831Y-120304811D02*
X151090940Y-119462919D01*
X152607720Y-120304811D02*
X151932831Y-120304811D01*
X152704427Y-120401518D02*
X152607720Y-120304811D01*
X154583453Y-120401518D02*
X152704427Y-120401518D01*
X160995191Y-111888391D02*
X160995191Y-113935875D01*
X154678792Y-120306179D02*
X154583453Y-120401518D01*
X157455955Y-120306179D02*
X154678792Y-120306179D01*
X159666723Y-118095411D02*
X157455955Y-120306179D01*
X159666723Y-115264343D02*
X159666723Y-118095411D01*
X160995191Y-113935875D02*
X159666723Y-115264343D01*
X160685569Y-111578769D02*
X160995191Y-111888391D01*
X160685569Y-99414345D02*
X160685569Y-111578769D01*
X161045015Y-99054899D02*
X160685569Y-99414345D01*
X151090940Y-119462919D02*
X151090940Y-119056837D01*
X151088431Y-118979800D02*
X150798761Y-118690130D01*
X165405614Y-121709269D02*
X165748513Y-122052168D01*
X161996016Y-116045704D02*
X162198562Y-116248250D01*
X162198562Y-116706606D02*
X163900366Y-118408410D01*
X162198562Y-116248250D02*
X162198562Y-116706606D01*
X163900366Y-120646188D02*
X164963447Y-121709269D01*
X164963447Y-121709269D02*
X165405614Y-121709269D01*
X163900366Y-118408410D02*
X163900366Y-120646188D01*
X166915076Y-121838477D02*
X166915076Y-122539677D01*
X167303984Y-121449569D02*
X166915076Y-121838477D01*
X166915076Y-122539677D02*
X166628480Y-122826273D01*
X161148277Y-117309252D02*
X160951531Y-117112506D01*
X167268630Y-122631370D02*
X167200000Y-122700000D01*
X161781592Y-115304811D02*
X162123764Y-115304811D01*
X167102104Y-123397793D02*
X165497793Y-123397793D01*
X163290745Y-118653738D02*
X161946259Y-117309252D01*
X160951531Y-116134872D02*
X161781592Y-115304811D01*
X162767523Y-115948570D02*
X162767523Y-116433503D01*
X167200000Y-123299897D02*
X167102104Y-123397793D01*
X160951531Y-117112506D02*
X160951531Y-116134872D01*
X165497793Y-123397793D02*
X163290745Y-121190745D01*
X167657538Y-121803122D02*
X167268630Y-122192030D01*
X167268630Y-122192030D02*
X167268630Y-122631370D01*
X162123764Y-115304811D02*
X162767523Y-115948570D01*
X161946259Y-117309252D02*
X161148277Y-117309252D01*
X163290745Y-121190745D02*
X163290745Y-118653738D01*
X167200000Y-122700000D02*
X167200000Y-123299897D01*
X162550000Y-115000000D02*
X163197101Y-115647101D01*
X167228360Y-123702604D02*
X165264736Y-123702604D01*
X168011091Y-122156676D02*
X167622183Y-122545584D01*
X165264736Y-123702604D02*
X162948252Y-121386120D01*
X163197101Y-115647101D02*
X163540000Y-115990000D01*
X160646720Y-117238762D02*
X160646720Y-116008613D01*
X161655333Y-115000000D02*
X162550000Y-115000000D01*
X161022021Y-117614063D02*
X160646720Y-117238762D01*
X162948252Y-118738720D02*
X161823595Y-117614063D01*
X167622183Y-122545584D02*
X167622183Y-123308781D01*
X161823595Y-117614063D02*
X161022021Y-117614063D01*
X167622183Y-123308781D02*
X167228360Y-123702604D01*
X162948252Y-121386120D02*
X162948252Y-118738720D01*
X160646720Y-116008613D02*
X161655333Y-115000000D01*
X162628975Y-121497910D02*
X162628975Y-118846918D01*
X160341909Y-115882357D02*
X161824266Y-114400000D01*
X160895765Y-117918874D02*
X160341909Y-117365018D01*
X164108962Y-116537006D02*
X163968702Y-116677266D01*
X163813103Y-115421039D02*
X164108962Y-115716898D01*
X167975737Y-122899137D02*
X167975737Y-123386294D01*
X161824266Y-114400000D02*
X162500236Y-114400000D01*
X162500236Y-114400000D02*
X163521275Y-115421039D01*
X163968702Y-116677266D02*
X163625803Y-117020165D01*
X161700931Y-117918874D02*
X160895765Y-117918874D01*
X165138480Y-124007415D02*
X162628975Y-121497910D01*
X167354616Y-124007415D02*
X165138480Y-124007415D01*
X167975737Y-123386294D02*
X167354616Y-124007415D01*
X168364645Y-122510229D02*
X167975737Y-122899137D01*
X164108962Y-115716898D02*
X164108962Y-116537006D01*
X160341909Y-117365018D02*
X160341909Y-115882357D01*
X162628975Y-118846918D02*
X161700931Y-117918874D01*
X163521275Y-115421039D02*
X163813103Y-115421039D01*
X164677927Y-115858388D02*
X164677927Y-116277298D01*
X162638644Y-114026256D02*
X163731156Y-115118768D01*
X163731156Y-115118768D02*
X163938307Y-115118768D01*
X160037098Y-115325035D02*
X161335877Y-114026256D01*
X161578267Y-118223685D02*
X160769509Y-118223685D01*
X167544664Y-124312226D02*
X165012224Y-124312226D01*
X162288450Y-121588452D02*
X162288450Y-118933868D01*
X168329290Y-123252690D02*
X168329290Y-123527600D01*
X168718198Y-122863782D02*
X168329290Y-123252690D01*
X162288450Y-118933868D02*
X161578267Y-118223685D01*
X161335877Y-114026256D02*
X162638644Y-114026256D01*
X168329290Y-123527600D02*
X167544664Y-124312226D01*
X160037098Y-117491274D02*
X160037098Y-115325035D01*
X163938307Y-115118768D02*
X164677927Y-115858388D01*
X165012224Y-124312226D02*
X162288450Y-121588452D01*
X160769509Y-118223685D02*
X160037098Y-117491274D01*
X167407307Y-114407455D02*
X167704487Y-114704635D01*
X166452313Y-113928537D02*
X166931231Y-114407455D01*
X167765542Y-115043997D02*
X167765542Y-115528930D01*
X167704487Y-114704635D02*
X167704487Y-114982942D01*
X166931231Y-114407455D02*
X167407307Y-114407455D01*
X167704487Y-114982942D02*
X167765542Y-115043997D01*
X171857628Y-120912044D02*
X171857628Y-121152203D01*
X171263782Y-120318198D02*
X171857628Y-120912044D01*
X165954175Y-113357035D02*
X166725903Y-113357035D01*
X167533563Y-114102644D02*
X168009298Y-114578379D01*
X168009298Y-114578379D02*
X168009298Y-114841108D01*
X167471512Y-114102644D02*
X167533563Y-114102644D01*
X168600730Y-115432540D02*
X168600730Y-115600061D01*
X166725903Y-113357035D02*
X167471512Y-114102644D01*
X168009298Y-114841108D02*
X168600730Y-115432540D01*
X165607161Y-113704049D02*
X165954175Y-113357035D01*
X171374876Y-119499998D02*
X171392747Y-119499998D01*
X171392747Y-119499998D02*
X171877680Y-119499998D01*
X170910229Y-119964645D02*
X171374876Y-119499998D01*
X165605042Y-112865840D02*
X166665775Y-112865840D01*
X167586343Y-113718877D02*
X168328972Y-114461506D01*
X166665775Y-112865840D02*
X167518812Y-113718877D01*
X168328972Y-114461506D02*
X168568740Y-114461506D01*
X167518812Y-113718877D02*
X167586343Y-113718877D01*
X171367767Y-118800000D02*
X171400000Y-118800000D01*
X170556676Y-119611091D02*
X171367767Y-118800000D01*
X166525340Y-112294338D02*
X165330720Y-112294338D01*
X170626195Y-118834465D02*
X170626195Y-114353273D01*
X165067957Y-112557101D02*
X165042899Y-112557101D01*
X167645068Y-113414066D02*
X166525340Y-112294338D01*
X165042899Y-112557101D02*
X164700000Y-112900000D01*
X168342958Y-113629670D02*
X168127354Y-113414066D01*
X170626195Y-114353273D02*
X170626195Y-113868340D01*
X168127354Y-113414066D02*
X167645068Y-113414066D01*
X170203122Y-119257538D02*
X170626195Y-118834465D01*
X165330720Y-112294338D02*
X165067957Y-112557101D01*
X167497999Y-112835198D02*
X166652328Y-111989527D01*
X170093653Y-113537704D02*
X170093653Y-113052771D01*
X170238477Y-118515076D02*
X170238477Y-114738477D01*
X169849569Y-118903984D02*
X170238477Y-118515076D01*
X170054675Y-114554675D02*
X170054675Y-113576682D01*
X166652328Y-111989527D02*
X164827280Y-111989527D01*
X170238477Y-114738477D02*
X170054675Y-114554675D01*
X164827280Y-111989527D02*
X164787300Y-112029507D01*
X170054675Y-113576682D02*
X170093653Y-113537704D01*
X168075725Y-112835198D02*
X167497999Y-112835198D01*
X167532652Y-112061600D02*
X166929057Y-111458005D01*
X166929057Y-111458005D02*
X164409345Y-111458005D01*
X164409345Y-111458005D02*
X164268088Y-111316748D01*
X164268088Y-111316748D02*
X163783155Y-111316748D01*
X169749864Y-114695574D02*
X169749864Y-113934672D01*
X169500418Y-113076255D02*
X169500418Y-112743077D01*
X169500418Y-112743077D02*
X169500418Y-112258144D01*
X169496016Y-118550431D02*
X169884924Y-118161523D01*
X169524081Y-113708889D02*
X169524081Y-113099918D01*
X169524081Y-113099918D02*
X169500418Y-113076255D01*
X169884924Y-118161523D02*
X169884924Y-114830634D01*
X169884924Y-114830634D02*
X169749864Y-114695574D01*
X169749864Y-113934672D02*
X169524081Y-113708889D01*
X169219270Y-113226174D02*
X168964275Y-112971180D01*
X169445053Y-114060928D02*
X169219270Y-113835146D01*
X168964275Y-112456099D02*
X168599462Y-112091286D01*
X168964275Y-112971180D02*
X168964275Y-112456099D01*
X169142462Y-118196878D02*
X169531370Y-117807970D01*
X168599462Y-111987073D02*
X168599462Y-111502140D01*
X169531370Y-114948401D02*
X169445053Y-114862084D01*
X168599462Y-112091286D02*
X168599462Y-111987073D01*
X169531370Y-117807970D02*
X169531370Y-114948401D01*
X169445053Y-114862084D02*
X169445053Y-114060928D01*
X169219270Y-113835146D02*
X169219270Y-113226174D01*
X168659464Y-112582355D02*
X168104154Y-112027045D01*
X168914459Y-113352430D02*
X168659464Y-113097435D01*
X168104154Y-111787278D02*
X167470070Y-111153194D01*
X167470070Y-111153194D02*
X164599017Y-111153194D01*
X168104154Y-112027045D02*
X168104154Y-111787278D01*
X163962448Y-110516625D02*
X163871784Y-110516625D01*
X168659464Y-113097435D02*
X168659464Y-112582355D01*
X168914459Y-113961401D02*
X168914459Y-113352430D01*
X164599017Y-111153194D02*
X163962448Y-110516625D01*
X168788909Y-117843324D02*
X169177817Y-117454416D01*
X169177817Y-115031995D02*
X169140242Y-114994420D01*
X169177817Y-117454416D02*
X169177817Y-115031995D01*
X169140242Y-114994420D02*
X169140242Y-114187184D01*
X169140242Y-114187184D02*
X168914459Y-113961401D01*
X163871784Y-110516625D02*
X163528885Y-110173726D01*
X171171502Y-100874322D02*
X170874322Y-101171502D01*
X170088909Y-99556676D02*
X170560731Y-100028498D01*
X167371502Y-104974322D02*
X167071502Y-105274322D01*
X171171502Y-100325678D02*
X171171502Y-100874322D01*
X164184933Y-106699996D02*
X163700000Y-106699996D01*
X167071501Y-106012534D02*
X166384039Y-106699996D01*
X167371502Y-103700463D02*
X167371502Y-104974322D01*
X170874322Y-100028498D02*
X171171502Y-100325678D01*
X167877855Y-103107076D02*
X167877855Y-103194110D01*
X166384039Y-106699996D02*
X164184933Y-106699996D01*
X170560731Y-100028498D02*
X170874322Y-100028498D01*
X167877855Y-103194110D02*
X167371502Y-103700463D01*
X167071502Y-105274322D02*
X167071501Y-106012534D01*
X169813429Y-101171502D02*
X167877855Y-103107076D01*
X170874322Y-101171502D02*
X169813429Y-101171502D01*
X171476313Y-100199422D02*
X170868921Y-99592030D01*
X170015731Y-101476313D02*
X171000578Y-101476313D01*
X171000578Y-101476313D02*
X171476313Y-101000578D01*
X168182666Y-103320366D02*
X168182666Y-103309378D01*
X167700000Y-103803032D02*
X168182666Y-103320366D01*
X163260132Y-106116804D02*
X166157625Y-106116804D01*
X170868921Y-99592030D02*
X170831370Y-99592030D01*
X170831370Y-99592030D02*
X170442462Y-99203122D01*
X168182666Y-103309378D02*
X170015731Y-101476313D01*
X167700000Y-105700000D02*
X167700000Y-103803032D01*
X166157625Y-106116804D02*
X166495177Y-105779252D01*
X162917233Y-105773905D02*
X163260132Y-106116804D01*
X171476313Y-101000578D02*
X171476313Y-100199422D01*
X171126834Y-101781124D02*
X171781124Y-101126834D01*
X171781124Y-99834677D02*
X171184924Y-99238477D01*
X170141987Y-101781124D02*
X171126834Y-101781124D01*
X168487477Y-103435634D02*
X170141987Y-101781124D01*
X171781124Y-101126834D02*
X171781124Y-99834677D01*
X168057101Y-103876997D02*
X168487477Y-103446622D01*
X168487477Y-103446622D02*
X168487477Y-103435634D01*
X168400000Y-105000000D02*
X168057101Y-104657101D01*
X171184924Y-99238477D02*
X170796016Y-98849569D01*
X165515067Y-105500000D02*
X166068151Y-104946916D01*
X166068151Y-104946916D02*
X166109319Y-104946916D01*
X163900000Y-105500000D02*
X165515067Y-105500000D01*
X168057101Y-104657101D02*
X168057101Y-103876997D01*
X166109319Y-104946916D02*
X166594252Y-104946916D01*
X166117019Y-104108740D02*
X166601952Y-104108740D01*
X163753727Y-104910933D02*
X165304134Y-104910933D01*
X162988743Y-104630882D02*
X163473676Y-104630882D01*
X165304134Y-104910933D02*
X166106327Y-104108740D01*
X166106327Y-104108740D02*
X166117019Y-104108740D01*
X163473676Y-104630882D02*
X163753727Y-104910933D01*
X169042899Y-103757101D02*
X169042899Y-103311279D01*
X172085935Y-99432382D02*
X171538477Y-98884924D01*
X170268243Y-102085935D02*
X171253090Y-102085935D01*
X172085935Y-101253090D02*
X172085935Y-99432382D01*
X169042899Y-103311279D02*
X170268243Y-102085935D01*
X168700000Y-104100000D02*
X169042899Y-103757101D01*
X171253090Y-102085935D02*
X172085935Y-101253090D01*
X171538477Y-98884924D02*
X171149569Y-98496016D01*
X164208262Y-104233682D02*
X165475968Y-104233682D01*
X166075987Y-103633663D02*
X166418886Y-103290764D01*
X165475968Y-104233682D02*
X166075987Y-103633663D01*
X171892030Y-98531370D02*
X171503122Y-98142462D01*
X172390746Y-99030086D02*
X171892030Y-98531370D01*
X172390746Y-101379346D02*
X172390746Y-99030086D01*
X170570092Y-103200000D02*
X172390746Y-101379346D01*
X170000000Y-103200000D02*
X170570092Y-103200000D01*
X163633163Y-103623879D02*
X164118096Y-103623879D01*
X164785311Y-103652492D02*
X165718559Y-102719244D01*
X165718559Y-102719244D02*
X167105809Y-102719244D01*
X167105809Y-102719244D02*
X167306354Y-102919789D01*
X164118096Y-103623879D02*
X164146709Y-103652492D01*
X164146709Y-103652492D02*
X164785311Y-103652492D01*
X172695557Y-98627790D02*
X172695557Y-101882787D01*
X172160405Y-102417939D02*
X171817506Y-102760838D01*
X172695557Y-101882787D02*
X172160405Y-102417939D01*
X171856676Y-97788909D02*
X172695557Y-98627790D01*
X165177544Y-102414433D02*
X167039428Y-102414433D01*
X164510988Y-103080989D02*
X165177544Y-102414433D01*
X167039428Y-102414433D02*
X167309658Y-102144202D01*
X167309658Y-102144202D02*
X167686844Y-102144202D01*
X173267077Y-100806427D02*
X173267077Y-101291360D01*
X173267077Y-98492203D02*
X173267077Y-100806427D01*
X172210229Y-97435355D02*
X173267077Y-98492203D01*
X164297032Y-102109622D02*
X164268411Y-102138243D01*
X164268411Y-102138243D02*
X163925512Y-102481142D01*
X166913172Y-102109622D02*
X164297032Y-102109622D01*
X167751274Y-101271520D02*
X166913172Y-102109622D01*
X168792867Y-101271520D02*
X167751274Y-101271520D01*
X172977680Y-96667904D02*
X172977680Y-96300000D01*
X172563782Y-97081802D02*
X172977680Y-96667904D01*
X170701352Y-93012244D02*
X170358453Y-92669345D01*
X170701352Y-93853064D02*
X170701352Y-93012244D01*
X170018198Y-94536218D02*
X170701352Y-93853064D01*
X166190386Y-96370794D02*
X166675319Y-96370794D01*
X165790378Y-96770802D02*
X166190386Y-96370794D01*
X165790378Y-99801371D02*
X165790378Y-96770802D01*
X165449376Y-100142373D02*
X165790378Y-99801371D01*
X169524179Y-93801259D02*
X169524179Y-93688187D01*
X169275737Y-94049701D02*
X169524179Y-93801259D01*
X169524179Y-93688187D02*
X169867078Y-93345288D01*
X169664645Y-94889771D02*
X169275737Y-94500863D01*
X169275737Y-94500863D02*
X169275737Y-94049701D01*
X165257101Y-96242899D02*
X165600000Y-95900000D01*
X165257101Y-98192766D02*
X165257101Y-96242899D01*
X164496621Y-100273613D02*
X165485567Y-99284667D01*
X165485567Y-99284667D02*
X165485567Y-98421232D01*
X165485567Y-98421232D02*
X165257101Y-98192766D01*
X169311091Y-95243324D02*
X168922069Y-94854302D01*
X168922069Y-94854302D02*
X168922069Y-94042480D01*
X168922069Y-94042480D02*
X168922069Y-93557547D01*
X165082674Y-94871502D02*
X165345135Y-94871502D01*
X164914047Y-99035328D02*
X164914047Y-95040129D01*
X165345135Y-94871502D02*
X165701405Y-95227772D01*
X164914047Y-95040129D02*
X165082674Y-94871502D01*
X165701405Y-95227772D02*
X165930935Y-95227772D01*
X165930935Y-95227772D02*
X166415868Y-95227772D01*
X169034929Y-92842899D02*
X169157101Y-92842899D01*
X168583216Y-92986876D02*
X168890952Y-92986876D01*
X168323688Y-94686988D02*
X168323688Y-93246404D01*
X168568630Y-94931930D02*
X168323688Y-94686988D01*
X168957538Y-95596878D02*
X168568630Y-95207970D01*
X168323688Y-93246404D02*
X168583216Y-92986876D01*
X168890952Y-92986876D02*
X169034929Y-92842899D01*
X168568630Y-95207970D02*
X168568630Y-94931930D01*
X169157101Y-92842899D02*
X169500000Y-92500000D01*
X164080050Y-95415351D02*
X164958791Y-94536610D01*
X165371134Y-94536610D02*
X165856067Y-94536610D01*
X164958791Y-94536610D02*
X165371134Y-94536610D01*
X164080050Y-99148578D02*
X164080050Y-95415351D01*
X168273731Y-92865294D02*
X168273731Y-92758273D01*
X168018877Y-93120148D02*
X168273731Y-92865294D01*
X168603984Y-95950431D02*
X168251628Y-95598075D01*
X168251628Y-95045995D02*
X168018877Y-94813244D01*
X168018877Y-94813244D02*
X168018877Y-93120148D01*
X168273731Y-92758273D02*
X168616630Y-92415374D01*
X168251628Y-95598075D02*
X168251628Y-95045995D01*
X165207355Y-93671502D02*
X166171502Y-93671502D01*
X163435854Y-95443003D02*
X165207355Y-93671502D01*
X163435854Y-98612285D02*
X163435854Y-95443003D01*
X166171502Y-93671502D02*
X166500000Y-94000000D01*
X168657101Y-91842899D02*
X169000000Y-91500000D01*
X167781124Y-92926834D02*
X167781124Y-92442629D01*
X167714066Y-94939500D02*
X167714066Y-92993892D01*
X167946817Y-95172251D02*
X167714066Y-94939500D01*
X167781124Y-92442629D02*
X168380854Y-91842899D01*
X168380854Y-91842899D02*
X168657101Y-91842899D01*
X167946817Y-96000370D02*
X167946817Y-95172251D01*
X168250431Y-96303984D02*
X167946817Y-96000370D01*
X167714066Y-92993892D02*
X167781124Y-92926834D01*
X165515067Y-93100000D02*
X166000000Y-93100000D01*
X165315067Y-93100000D02*
X165515067Y-93100000D01*
X162864353Y-99250252D02*
X162864353Y-95550714D01*
X162864353Y-95550714D02*
X165315067Y-93100000D01*
X162933625Y-99319524D02*
X162864353Y-99250252D01*
X167601092Y-96361752D02*
X167601092Y-95257593D01*
X167557101Y-91820830D02*
X167900000Y-91477931D01*
X167409255Y-92867636D02*
X167476313Y-92800578D01*
X167409255Y-95065756D02*
X167409255Y-92867636D01*
X167896878Y-96657538D02*
X167601092Y-96361752D01*
X167476313Y-92800578D02*
X167476313Y-91901618D01*
X167476313Y-91901618D02*
X167557101Y-91820830D01*
X167601092Y-95257593D02*
X167409255Y-95065756D01*
X162207512Y-95707555D02*
X165515067Y-92400000D01*
X162207512Y-98900766D02*
X162207512Y-95707555D01*
X166115067Y-92400000D02*
X166600000Y-92400000D01*
X165515067Y-92400000D02*
X166115067Y-92400000D01*
X167171502Y-91345958D02*
X167036766Y-91211222D01*
X167247539Y-95335107D02*
X167104444Y-95192012D01*
X161619606Y-94834572D02*
X161619606Y-99599826D01*
X165242956Y-91211222D02*
X161619606Y-94834572D01*
X161619606Y-99599826D02*
X161835375Y-99815595D01*
X167171502Y-92674322D02*
X167171502Y-91345958D01*
X167104444Y-95192012D02*
X167104444Y-92741380D01*
X167036766Y-91211222D02*
X165242956Y-91211222D01*
X167247539Y-96715306D02*
X167247539Y-95335107D01*
X167543324Y-97011091D02*
X167247539Y-96715306D01*
X167104444Y-92741380D02*
X167171502Y-92674322D01*
X157346862Y-99771229D02*
X157346862Y-98714796D01*
X157346862Y-98714796D02*
X156303567Y-97671501D01*
X156303567Y-97671501D02*
X153957169Y-97671501D01*
X153957169Y-97671501D02*
X153357536Y-98271134D01*
X153357536Y-98271134D02*
X152726468Y-98271134D01*
X152526473Y-98071139D02*
X146726461Y-98071139D01*
X146726461Y-98071139D02*
X144750000Y-100047600D01*
X144750000Y-100047600D02*
X144750000Y-100650000D01*
X152726468Y-98271134D02*
X152526473Y-98071139D01*
X145250000Y-100047600D02*
X146921651Y-98375949D01*
X156365945Y-98575945D02*
X156417101Y-98627101D01*
X149431281Y-98375948D02*
X149631279Y-98575945D01*
X145250000Y-100650000D02*
X145250000Y-100047600D01*
X149631279Y-98575945D02*
X156365945Y-98575945D01*
X156417101Y-98627101D02*
X156760000Y-98970000D01*
X146921651Y-98375949D02*
X149431281Y-98375948D01*
X145750000Y-100047600D02*
X147116841Y-98680759D01*
X155304376Y-98885569D02*
X155795721Y-99376914D01*
X145750000Y-100650000D02*
X145750000Y-100047600D01*
X149305026Y-98680758D02*
X149509836Y-98885569D01*
X149509836Y-98885569D02*
X155304376Y-98885569D01*
X147116841Y-98680759D02*
X149305026Y-98680758D01*
X155795721Y-99376914D02*
X156138620Y-99719813D01*
X146250000Y-100047600D02*
X147312032Y-98985568D01*
X146250000Y-100650000D02*
X146250000Y-100047600D01*
X153921808Y-99190380D02*
X154358026Y-99626598D01*
X149383580Y-99190380D02*
X153921808Y-99190380D01*
X149178768Y-98985567D02*
X149383580Y-99190380D01*
X154358026Y-99626598D02*
X154700925Y-99969497D01*
X147312032Y-98985568D02*
X149178768Y-98985567D01*
X146750000Y-100047600D02*
X147507222Y-99290378D01*
X149257324Y-99495191D02*
X153046478Y-99495191D01*
X153799424Y-100248137D02*
X154142323Y-100591036D01*
X147507222Y-99290378D02*
X149052512Y-99290378D01*
X146750000Y-100650000D02*
X146750000Y-100047600D01*
X149052512Y-99290378D02*
X149257324Y-99495191D01*
X153046478Y-99495191D02*
X153799424Y-100248137D01*
X152540381Y-100040381D02*
X153660016Y-101160016D01*
X149371446Y-100040380D02*
X152540381Y-100040381D01*
X147702411Y-99595189D02*
X148926256Y-99595189D01*
X148926256Y-99595189D02*
X149371446Y-100040380D01*
X154544283Y-101160016D02*
X155029216Y-101160016D01*
X147250000Y-100650000D02*
X147250000Y-100047600D01*
X147250000Y-100047600D02*
X147702411Y-99595189D01*
X153660016Y-101160016D02*
X154544283Y-101160016D01*
X147897600Y-99900000D02*
X148800000Y-99900000D01*
X153080751Y-101911817D02*
X153578988Y-101911817D01*
X151514125Y-100345191D02*
X153080751Y-101911817D01*
X153578988Y-101911817D02*
X154063921Y-101911817D01*
X147750000Y-100047600D02*
X147897600Y-99900000D01*
X148800000Y-99900000D02*
X149245191Y-100345191D01*
X147750000Y-100650000D02*
X147750000Y-100047600D01*
X149245191Y-100345191D02*
X151514125Y-100345191D01*
X153280879Y-102543011D02*
X154324924Y-102543011D01*
X154965990Y-102278211D02*
X155450923Y-102278211D01*
X151387868Y-100650000D02*
X153280879Y-102543011D01*
X154589724Y-102278211D02*
X154965990Y-102278211D01*
X154324924Y-102543011D02*
X154589724Y-102278211D01*
X148250000Y-100650000D02*
X151387868Y-100650000D01*
X154357101Y-103322899D02*
X154700000Y-102980000D01*
X154357101Y-103352897D02*
X154357101Y-103322899D01*
X148250000Y-104250000D02*
X153459998Y-104250000D01*
X153459998Y-104250000D02*
X154357101Y-103352897D01*
X155083104Y-103608963D02*
X155243427Y-103448640D01*
X147997600Y-105100000D02*
X153276889Y-105100000D01*
X147750000Y-104250000D02*
X147750000Y-104852400D01*
X154767926Y-103608963D02*
X155083104Y-103608963D01*
X155243427Y-103448640D02*
X155246423Y-103448640D01*
X153276889Y-105100000D02*
X154767926Y-103608963D01*
X147750000Y-104852400D02*
X147997600Y-105100000D01*
X155246423Y-103448640D02*
X155731356Y-103448640D01*
X147802411Y-105404811D02*
X153415505Y-105404811D01*
X153415505Y-105404811D02*
X154647163Y-104173153D01*
X154647163Y-104173153D02*
X154671840Y-104173153D01*
X147250000Y-104250000D02*
X147250000Y-104852400D01*
X154671840Y-104173153D02*
X155156773Y-104173153D01*
X147250000Y-104852400D02*
X147802411Y-105404811D01*
X153764037Y-105773268D02*
X154248970Y-105773268D01*
X146750000Y-104852400D02*
X147670868Y-105773268D01*
X147670868Y-105773268D02*
X153764037Y-105773268D01*
X146750000Y-104250000D02*
X146750000Y-104852400D01*
X154481992Y-106344944D02*
X155030908Y-105796028D01*
X153974869Y-106344944D02*
X154481992Y-106344944D01*
X147735849Y-106338249D02*
X153968174Y-106338249D01*
X155030908Y-105796028D02*
X155030908Y-105311095D01*
X153968174Y-106338249D02*
X153974869Y-106344944D01*
X146250000Y-104250000D02*
X146250000Y-104852400D01*
X146250000Y-104852400D02*
X147735849Y-106338249D01*
X155020200Y-106279322D02*
X155020200Y-106239860D01*
X147540660Y-106643060D02*
X153841918Y-106643060D01*
X155020200Y-106239860D02*
X155502371Y-105757689D01*
X145750000Y-104250000D02*
X145750000Y-104852400D01*
X154649767Y-106649755D02*
X155020200Y-106279322D01*
X153841918Y-106643060D02*
X153848613Y-106649755D01*
X145750000Y-104852400D02*
X147540660Y-106643060D01*
X153848613Y-106649755D02*
X154649767Y-106649755D01*
X155502371Y-105757689D02*
X155987304Y-105757689D01*
X153715662Y-106947871D02*
X153722357Y-106954566D01*
X147345471Y-106947871D02*
X153715662Y-106947871D01*
X145250000Y-104852400D02*
X147345471Y-106947871D01*
X145250000Y-104250000D02*
X145250000Y-104852400D01*
X155248803Y-106847031D02*
X155591702Y-106504132D01*
X155141268Y-106954566D02*
X155248803Y-106847031D01*
X153722357Y-106954566D02*
X155141268Y-106954566D01*
X156254290Y-107134728D02*
X156597189Y-106791829D01*
X156129641Y-107259377D02*
X156254290Y-107134728D01*
X153596101Y-107259377D02*
X156129641Y-107259377D01*
X153589406Y-107252682D02*
X153596101Y-107259377D01*
X147174184Y-107252682D02*
X153589406Y-107252682D01*
X144750000Y-104250000D02*
X144750000Y-104828498D01*
X144750000Y-104828498D02*
X147174184Y-107252682D01*
X155506576Y-109108043D02*
X155849475Y-109450942D01*
X150026466Y-108271134D02*
X152357536Y-108271134D01*
X147800000Y-110497600D02*
X150026466Y-108271134D01*
X147800000Y-111100000D02*
X147800000Y-110497600D01*
X152357536Y-108271134D02*
X152581591Y-108495189D01*
X152581591Y-108495189D02*
X154893722Y-108495189D01*
X154893722Y-108495189D02*
X155506576Y-109108043D01*
X148300000Y-110497600D02*
X148300000Y-111100000D01*
X148300000Y-110444665D02*
X148300000Y-110497600D01*
X150168720Y-108575945D02*
X148300000Y-110444665D01*
X152231280Y-108575945D02*
X150168720Y-108575945D01*
X152755334Y-109100000D02*
X152231280Y-108575945D01*
X154690282Y-109100000D02*
X152755334Y-109100000D01*
X155843563Y-110253281D02*
X154690282Y-109100000D01*
X156328496Y-110253281D02*
X155843563Y-110253281D01*
X155118765Y-110401904D02*
X155461664Y-110744803D01*
X154121672Y-109404811D02*
X155118765Y-110401904D01*
X152629079Y-109404811D02*
X154121672Y-109404811D01*
X152105024Y-108880756D02*
X152629079Y-109404811D01*
X150294976Y-108880756D02*
X152105024Y-108880756D01*
X148800000Y-110375732D02*
X150294976Y-108880756D01*
X148800000Y-111100000D02*
X148800000Y-110375732D01*
X150421232Y-109185567D02*
X149300000Y-110306799D01*
X155574033Y-111396303D02*
X155494036Y-111316306D01*
X156058966Y-111396303D02*
X155574033Y-111396303D01*
X155187342Y-111316306D02*
X153580658Y-109709622D01*
X152502822Y-109709622D02*
X151978768Y-109185567D01*
X149300000Y-110306799D02*
X149300000Y-110497600D01*
X155494036Y-111316306D02*
X155187342Y-111316306D01*
X151978768Y-109185567D02*
X150421232Y-109185567D01*
X153580658Y-109709622D02*
X152502822Y-109709622D01*
X149300000Y-110497600D02*
X149300000Y-111100000D01*
X151852512Y-109490378D02*
X152376567Y-110014433D01*
X150547488Y-109490378D02*
X151852512Y-109490378D01*
X153196073Y-110014433D02*
X154779447Y-111597807D01*
X154779447Y-111597807D02*
X155122346Y-111940706D01*
X152376567Y-110014433D02*
X153196073Y-110014433D01*
X149800000Y-110237866D02*
X150547488Y-109490378D01*
X149800000Y-111100000D02*
X149800000Y-110237866D01*
X150300000Y-110497600D02*
X150300000Y-111100000D01*
X150673744Y-109795189D02*
X150300000Y-110168933D01*
X151726256Y-109795189D02*
X150673744Y-109795189D01*
X152250310Y-110319244D02*
X151726256Y-109795189D01*
X152655060Y-110319244D02*
X152250310Y-110319244D01*
X155733147Y-112537001D02*
X155248214Y-112537001D01*
X150300000Y-110168933D02*
X150300000Y-110497600D01*
X154848024Y-112512209D02*
X152655060Y-110319244D01*
X155223422Y-112512209D02*
X154848024Y-112512209D01*
X155248214Y-112537001D02*
X155223422Y-112512209D01*
X150800000Y-111100000D02*
X150800000Y-110300000D01*
X150800000Y-110300000D02*
X150900000Y-110200000D01*
X150900000Y-110200000D02*
X151700000Y-110200000D01*
X151700000Y-110200000D02*
X152124055Y-110624055D01*
X152124055Y-110624055D02*
X152506278Y-110624055D01*
X152506278Y-110624055D02*
X154645800Y-112763577D01*
X154645800Y-112763577D02*
X154988699Y-113106476D01*
X154418652Y-113363655D02*
X154715832Y-113660835D01*
X154818915Y-113660835D02*
X154964673Y-113806593D01*
X151300000Y-111100000D02*
X152266688Y-111100000D01*
X154715832Y-113660835D02*
X154818915Y-113660835D01*
X152266688Y-111100000D02*
X154418652Y-113251964D01*
X154418652Y-113251964D02*
X154418652Y-113363655D01*
X154964673Y-113806593D02*
X155449606Y-113806593D01*
X151300000Y-114700000D02*
X151597400Y-114700000D01*
X152009226Y-114288174D02*
X154616544Y-114288174D01*
X151597400Y-114700000D02*
X152009226Y-114288174D01*
X152858502Y-115500000D02*
X153660373Y-114698129D01*
X154667796Y-114949170D02*
X155152729Y-114949170D01*
X150997600Y-115500000D02*
X152858502Y-115500000D01*
X150800000Y-115302400D02*
X150997600Y-115500000D01*
X150800000Y-114700000D02*
X150800000Y-115302400D01*
X153660373Y-114698129D02*
X154209018Y-114698129D01*
X154209018Y-114698129D02*
X154460059Y-114949170D01*
X154460059Y-114949170D02*
X154667796Y-114949170D01*
X150300000Y-114700000D02*
X150300000Y-115302400D01*
X153591796Y-115612530D02*
X153934695Y-115269631D01*
X150802411Y-115804811D02*
X153399515Y-115804811D01*
X150300000Y-115302400D02*
X150802411Y-115804811D01*
X153399515Y-115804811D02*
X153591796Y-115612530D01*
X149800000Y-114700000D02*
X149800000Y-115275726D01*
X153986760Y-115922208D02*
X154471693Y-115922208D01*
X153799346Y-116109622D02*
X153986760Y-115922208D01*
X150633896Y-116109622D02*
X153799346Y-116109622D01*
X149800000Y-115275726D02*
X150633896Y-116109622D01*
X154221662Y-116551572D02*
X154540384Y-116551572D01*
X154084523Y-116414433D02*
X154221662Y-116551572D01*
X150507640Y-116414433D02*
X154084523Y-116414433D01*
X149300000Y-115206793D02*
X150507640Y-116414433D01*
X149300000Y-114700000D02*
X149300000Y-115206793D01*
X154540384Y-116551572D02*
X155025317Y-116551572D01*
X148800000Y-115137860D02*
X148800000Y-114700000D01*
X150381384Y-116719244D02*
X148800000Y-115137860D01*
X154107800Y-116868777D02*
X153958267Y-116719244D01*
X153958267Y-116719244D02*
X150381384Y-116719244D01*
X154534224Y-116868777D02*
X154107800Y-116868777D01*
X154788520Y-117123074D02*
X154534224Y-116868777D01*
X155508273Y-117123074D02*
X154788520Y-117123074D01*
X156216367Y-116414980D02*
X155508273Y-117123074D01*
X148300000Y-114700000D02*
X148300000Y-115302400D01*
X148300000Y-115302400D02*
X148597600Y-115600000D01*
X156390170Y-116999381D02*
X156875103Y-116999381D01*
X148600000Y-115600000D02*
X150024055Y-117024055D01*
X150024055Y-117024055D02*
X153832011Y-117024055D01*
X148597600Y-115600000D02*
X148600000Y-115600000D01*
X153832011Y-117024055D02*
X153981544Y-117173588D01*
X153981544Y-117173588D02*
X154407968Y-117173588D01*
X154407968Y-117173588D02*
X154674104Y-117439725D01*
X154674104Y-117439725D02*
X155874125Y-117439725D01*
X155874125Y-117439725D02*
X156314469Y-116999381D01*
X156314469Y-116999381D02*
X156390170Y-116999381D01*
X133594652Y-124156134D02*
X133594652Y-116587048D01*
X142531559Y-127720844D02*
X142010715Y-127200000D01*
X154147107Y-127720844D02*
X142531559Y-127720844D01*
X154667951Y-127200000D02*
X154147107Y-127720844D01*
X168959565Y-124371502D02*
X166131067Y-127200000D01*
X169574322Y-124371502D02*
X168959565Y-124371502D01*
X170910229Y-123035595D02*
X169574322Y-124371502D01*
X170910229Y-121449569D02*
X170910229Y-123035595D01*
X133594652Y-116587048D02*
X133594652Y-116102115D01*
X166131067Y-127200000D02*
X154667951Y-127200000D01*
X142010715Y-127200000D02*
X136638518Y-127200000D01*
X136638518Y-127200000D02*
X133594652Y-124156134D01*
X135876331Y-115700000D02*
X135776331Y-115600000D01*
X136700000Y-115700000D02*
X135876331Y-115700000D01*
X144269320Y-97699614D02*
X152515067Y-97699614D01*
X141495189Y-101898329D02*
X141495189Y-100473745D01*
X141495189Y-100473745D02*
X144269320Y-97699614D01*
X134756978Y-114165778D02*
X135200000Y-113722756D01*
X134756978Y-114714422D02*
X134756978Y-114165778D01*
X135204811Y-115162255D02*
X134756978Y-114714422D01*
X135204811Y-116126256D02*
X135204811Y-115162255D01*
X135200000Y-113722756D02*
X135200000Y-108193518D01*
X135278555Y-116200000D02*
X135204811Y-116126256D01*
X136700000Y-116200000D02*
X135278555Y-116200000D01*
X152515067Y-97699614D02*
X153000000Y-97699614D01*
X135200000Y-108193518D02*
X141495189Y-101898329D01*
X150823158Y-101579340D02*
X151166057Y-101236441D01*
X150702498Y-101700000D02*
X150823158Y-101579340D01*
X148800000Y-101700000D02*
X150702498Y-101700000D01*
X145555337Y-117036914D02*
X145898236Y-117379813D01*
X141889924Y-113371501D02*
X145555337Y-117036914D01*
X140925679Y-113371501D02*
X141889924Y-113371501D01*
X135328480Y-114145727D02*
X137179018Y-112295189D01*
X135328480Y-114440100D02*
X135328480Y-114145727D01*
X137179018Y-112295189D02*
X139849367Y-112295189D01*
X139849367Y-112295189D02*
X140925679Y-113371501D01*
X134900002Y-115647239D02*
X134619110Y-115366347D01*
X134619110Y-115366347D02*
X134276211Y-115023448D01*
X136700000Y-116700000D02*
X135347489Y-116700000D01*
X134900002Y-116252513D02*
X134900002Y-115647239D01*
X135347489Y-116700000D02*
X134900002Y-116252513D01*
X151850000Y-112150000D02*
X151850000Y-112750000D01*
X151850000Y-112750000D02*
X151700000Y-112900000D01*
X134295189Y-116126256D02*
X135368933Y-117200000D01*
X135368933Y-117200000D02*
X136097600Y-117200000D01*
X134295189Y-108667262D02*
X134295189Y-114158648D01*
X133704710Y-115297769D02*
X134295189Y-115888248D01*
X134900000Y-108062452D02*
X134295189Y-108667262D01*
X163097623Y-90900000D02*
X148500000Y-90900000D01*
X171149569Y-94889771D02*
X171149569Y-93332496D01*
X163497623Y-90500000D02*
X163097623Y-90900000D01*
X170392065Y-90500000D02*
X163497623Y-90500000D01*
X134295189Y-114158648D02*
X133704710Y-114749127D01*
X171928962Y-92036897D02*
X170392065Y-90500000D01*
X134900000Y-104500000D02*
X134900000Y-108062452D01*
X171149569Y-93332496D02*
X171928962Y-92553103D01*
X136097600Y-117200000D02*
X136700000Y-117200000D01*
X133704710Y-114749127D02*
X133704710Y-115297769D01*
X134295189Y-115888248D02*
X134295189Y-116126256D01*
X171928962Y-92553103D02*
X171928962Y-92036897D01*
X148500000Y-90900000D02*
X134900000Y-104500000D01*
M02*
