G04 #@! TF.FileFunction,Copper,L1,Top,Signal*
%FSLAX46Y46*%
G04 Gerber Fmt 4.6, Leading zero omitted, Abs format (unit mm)*
G04 Created by KiCad (PCBNEW 4.0.1-stable) date Wednesday, April 13, 2016 'PMt' 12:19:44 PM*
%MOMM*%
G01*
G04 APERTURE LIST*
%ADD10C,0.100000*%
%ADD11C,0.010000*%
%ADD12R,0.600000X2.000000*%
%ADD13R,0.700000X4.200000*%
%ADD14C,1.000000*%
%ADD15R,0.240000X0.900000*%
%ADD16R,0.900000X0.240000*%
%ADD17R,0.900000X0.290000*%
%ADD18R,0.290000X0.900000*%
%ADD19R,0.900000X1.200000*%
%ADD20R,1.200000X0.900000*%
%ADD21C,0.685800*%
%ADD22C,0.685801*%
%ADD23C,0.254000*%
%ADD24C,0.152400*%
G04 APERTURE END LIST*
D10*
D11*
G36*
X137859423Y-95005069D02*
X137891094Y-95005572D01*
X137918725Y-95006621D01*
X137943824Y-95008340D01*
X137967893Y-95010851D01*
X137992439Y-95014276D01*
X138018967Y-95018740D01*
X138040931Y-95022815D01*
X138099786Y-95035578D01*
X138160883Y-95051645D01*
X138221336Y-95070182D01*
X138278260Y-95090354D01*
X138289639Y-95094777D01*
X138332817Y-95111970D01*
X138375192Y-95129108D01*
X138417150Y-95146370D01*
X138459080Y-95163937D01*
X138501369Y-95181989D01*
X138544404Y-95200707D01*
X138588573Y-95220271D01*
X138634265Y-95240862D01*
X138681866Y-95262659D01*
X138731764Y-95285844D01*
X138784347Y-95310597D01*
X138840003Y-95337099D01*
X138899118Y-95365528D01*
X138962082Y-95396067D01*
X139029280Y-95428896D01*
X139101102Y-95464194D01*
X139177935Y-95502143D01*
X139260166Y-95542923D01*
X139348183Y-95586714D01*
X139370903Y-95598037D01*
X139449183Y-95636981D01*
X139521702Y-95672880D01*
X139588949Y-95705961D01*
X139651415Y-95736448D01*
X139709589Y-95764567D01*
X139763962Y-95790545D01*
X139815024Y-95814606D01*
X139863265Y-95836978D01*
X139909175Y-95857885D01*
X139953244Y-95877553D01*
X139995962Y-95896208D01*
X140037819Y-95914076D01*
X140079306Y-95931382D01*
X140120912Y-95948353D01*
X140163128Y-95965213D01*
X140196403Y-95978281D01*
X140219926Y-95987518D01*
X140241319Y-95996037D01*
X140259688Y-96003473D01*
X140274143Y-96009460D01*
X140283791Y-96013635D01*
X140287732Y-96015624D01*
X140287199Y-96019719D01*
X140281987Y-96027737D01*
X140272739Y-96038968D01*
X140260100Y-96052704D01*
X140244712Y-96068236D01*
X140227219Y-96084855D01*
X140214178Y-96096657D01*
X140146199Y-96152758D01*
X140071764Y-96206253D01*
X139990994Y-96257086D01*
X139904011Y-96305200D01*
X139810938Y-96350538D01*
X139711897Y-96393043D01*
X139607009Y-96432658D01*
X139496398Y-96469327D01*
X139380185Y-96502992D01*
X139293292Y-96525296D01*
X139192697Y-96548538D01*
X139097709Y-96567867D01*
X139008081Y-96583303D01*
X138923561Y-96594868D01*
X138843901Y-96602580D01*
X138768851Y-96606462D01*
X138698163Y-96606535D01*
X138631587Y-96602818D01*
X138568874Y-96595332D01*
X138531082Y-96588660D01*
X138470450Y-96573748D01*
X138415094Y-96554367D01*
X138365086Y-96530590D01*
X138320499Y-96502491D01*
X138281404Y-96470142D01*
X138247873Y-96433617D01*
X138219979Y-96392988D01*
X138197795Y-96348329D01*
X138181392Y-96299713D01*
X138170842Y-96247214D01*
X138167903Y-96220940D01*
X138167085Y-96209833D01*
X138166149Y-96201698D01*
X138164111Y-96195994D01*
X138159991Y-96192178D01*
X138152806Y-96189710D01*
X138141575Y-96188046D01*
X138125315Y-96186646D01*
X138103045Y-96184967D01*
X138102667Y-96184937D01*
X138075115Y-96182710D01*
X138053944Y-96180816D01*
X138038491Y-96179166D01*
X138028094Y-96177673D01*
X138022090Y-96176249D01*
X138019817Y-96174807D01*
X138019918Y-96173974D01*
X138017973Y-96172665D01*
X138011139Y-96172440D01*
X138001468Y-96173114D01*
X137991010Y-96174497D01*
X137981817Y-96176403D01*
X137977431Y-96177859D01*
X137971923Y-96179376D01*
X137960616Y-96181836D01*
X137944669Y-96185008D01*
X137925241Y-96188665D01*
X137903489Y-96192578D01*
X137898056Y-96193529D01*
X137816570Y-96207036D01*
X137739154Y-96218409D01*
X137663266Y-96227987D01*
X137586367Y-96236109D01*
X137562917Y-96238294D01*
X137540487Y-96239888D01*
X137513281Y-96241121D01*
X137482652Y-96241993D01*
X137449951Y-96242504D01*
X137416529Y-96242652D01*
X137383738Y-96242438D01*
X137352930Y-96241861D01*
X137325455Y-96240920D01*
X137302666Y-96239615D01*
X137289514Y-96238402D01*
X137216686Y-96228747D01*
X137145829Y-96216860D01*
X137075068Y-96202349D01*
X137002527Y-96184822D01*
X136926331Y-96163890D01*
X136910857Y-96159368D01*
X136888243Y-96152575D01*
X136871577Y-96147222D01*
X136859982Y-96142959D01*
X136852578Y-96139438D01*
X136848490Y-96136309D01*
X136847057Y-96133968D01*
X136846091Y-96128855D01*
X136844509Y-96117561D01*
X136842410Y-96100925D01*
X136839895Y-96079783D01*
X136837063Y-96054975D01*
X136834013Y-96027338D01*
X136830918Y-95998392D01*
X136827321Y-95964399D01*
X136824435Y-95936757D01*
X136822312Y-95914791D01*
X136821001Y-95897830D01*
X136820553Y-95885198D01*
X136821018Y-95876223D01*
X136822447Y-95870230D01*
X136824890Y-95866547D01*
X136828397Y-95864499D01*
X136833018Y-95863413D01*
X136838805Y-95862615D01*
X136841091Y-95862283D01*
X136852337Y-95860254D01*
X136869389Y-95856797D01*
X136891193Y-95852151D01*
X136916700Y-95846555D01*
X136944858Y-95840249D01*
X136974615Y-95833471D01*
X137004921Y-95826461D01*
X137034725Y-95819457D01*
X137062975Y-95812700D01*
X137088620Y-95806427D01*
X137107833Y-95801593D01*
X137210462Y-95774234D01*
X137306453Y-95746397D01*
X137396213Y-95717945D01*
X137480153Y-95688742D01*
X137558680Y-95658650D01*
X137632203Y-95627534D01*
X137644056Y-95622213D01*
X137714730Y-95587760D01*
X137786700Y-95548022D01*
X137858246Y-95504092D01*
X137927648Y-95457066D01*
X137993190Y-95408037D01*
X138037403Y-95371786D01*
X138055065Y-95356423D01*
X138073398Y-95340012D01*
X138091684Y-95323244D01*
X138109206Y-95306810D01*
X138125249Y-95291401D01*
X138139095Y-95277709D01*
X138150027Y-95266424D01*
X138157329Y-95258238D01*
X138160283Y-95253841D01*
X138160219Y-95253368D01*
X138154114Y-95250119D01*
X138142137Y-95245797D01*
X138125347Y-95240663D01*
X138104801Y-95234980D01*
X138081556Y-95229011D01*
X138056670Y-95223019D01*
X138031199Y-95217265D01*
X138006201Y-95212013D01*
X137982732Y-95207526D01*
X137961852Y-95204065D01*
X137961556Y-95204021D01*
X137906513Y-95197477D01*
X137852179Y-95194423D01*
X137797039Y-95194893D01*
X137739581Y-95198923D01*
X137678289Y-95206548D01*
X137648461Y-95211261D01*
X137555204Y-95229850D01*
X137465771Y-95253707D01*
X137380377Y-95282725D01*
X137299234Y-95316797D01*
X137222557Y-95355818D01*
X137150558Y-95399681D01*
X137083451Y-95448280D01*
X137021449Y-95501509D01*
X136977949Y-95544915D01*
X136935574Y-95593556D01*
X136897536Y-95644333D01*
X136864493Y-95696230D01*
X136837105Y-95748230D01*
X136819656Y-95789355D01*
X136814680Y-95801769D01*
X136810056Y-95811937D01*
X136806789Y-95817652D01*
X136803532Y-95820958D01*
X136795631Y-95828670D01*
X136783561Y-95840334D01*
X136767793Y-95855496D01*
X136748801Y-95873704D01*
X136727057Y-95894504D01*
X136703034Y-95917442D01*
X136677205Y-95942065D01*
X136658042Y-95960309D01*
X136631341Y-95985737D01*
X136606208Y-96009712D01*
X136583104Y-96031794D01*
X136562486Y-96051540D01*
X136544813Y-96068513D01*
X136530545Y-96082270D01*
X136520139Y-96092371D01*
X136514055Y-96098376D01*
X136512607Y-96099922D01*
X136515572Y-96101699D01*
X136524384Y-96106052D01*
X136538436Y-96112701D01*
X136557123Y-96121368D01*
X136579836Y-96131773D01*
X136605972Y-96143637D01*
X136634923Y-96156683D01*
X136666083Y-96170630D01*
X136673468Y-96173923D01*
X136835126Y-96245942D01*
X136851981Y-96306214D01*
X136860094Y-96334199D01*
X136869941Y-96366534D01*
X136880916Y-96401347D01*
X136892411Y-96436762D01*
X136903817Y-96470907D01*
X136914527Y-96501907D01*
X136923511Y-96526757D01*
X136928959Y-96540443D01*
X136933479Y-96548917D01*
X136938136Y-96553733D01*
X136943830Y-96556392D01*
X136951132Y-96557558D01*
X136964453Y-96558496D01*
X136982760Y-96559209D01*
X137005020Y-96559697D01*
X137030201Y-96559965D01*
X137057269Y-96560013D01*
X137085192Y-96559845D01*
X137112937Y-96559461D01*
X137139472Y-96558866D01*
X137163763Y-96558060D01*
X137184777Y-96557046D01*
X137201319Y-96555841D01*
X137364261Y-96538212D01*
X137464139Y-96524838D01*
X137506859Y-96518400D01*
X137543678Y-96512100D01*
X137575734Y-96505624D01*
X137604167Y-96498661D01*
X137630116Y-96490899D01*
X137654721Y-96482025D01*
X137679122Y-96471727D01*
X137704457Y-96459694D01*
X137707556Y-96458147D01*
X137763115Y-96426813D01*
X137817664Y-96389211D01*
X137870233Y-96346128D01*
X137919852Y-96298353D01*
X137960314Y-96253042D01*
X137978347Y-96231319D01*
X137980748Y-96256569D01*
X137987775Y-96303991D01*
X137999681Y-96353168D01*
X138015802Y-96402224D01*
X138035477Y-96449282D01*
X138058042Y-96492463D01*
X138071719Y-96514289D01*
X138109340Y-96564006D01*
X138152141Y-96609003D01*
X138200037Y-96649251D01*
X138252937Y-96684723D01*
X138310757Y-96715389D01*
X138373406Y-96741223D01*
X138440799Y-96762197D01*
X138512848Y-96778282D01*
X138589465Y-96789451D01*
X138670562Y-96795676D01*
X138756053Y-96796929D01*
X138845848Y-96793182D01*
X138924639Y-96786139D01*
X138997782Y-96776822D01*
X139075875Y-96764509D01*
X139157621Y-96749481D01*
X139241724Y-96732024D01*
X139326887Y-96712418D01*
X139411813Y-96690949D01*
X139495205Y-96667899D01*
X139571986Y-96644745D01*
X139669460Y-96612112D01*
X139763786Y-96576670D01*
X139854613Y-96538629D01*
X139941592Y-96498203D01*
X140024372Y-96455600D01*
X140102604Y-96411034D01*
X140175937Y-96364714D01*
X140244021Y-96316853D01*
X140306506Y-96267661D01*
X140363041Y-96217350D01*
X140413278Y-96166131D01*
X140456865Y-96114215D01*
X140461516Y-96108103D01*
X140471132Y-96095676D01*
X140477892Y-96088104D01*
X140482929Y-96084422D01*
X140487377Y-96083664D01*
X140489726Y-96084079D01*
X140509163Y-96088388D01*
X140534240Y-96093070D01*
X140563568Y-96097922D01*
X140595757Y-96102737D01*
X140629415Y-96107313D01*
X140663152Y-96111443D01*
X140695578Y-96114923D01*
X140706167Y-96115932D01*
X140737905Y-96118462D01*
X140769888Y-96120184D01*
X140802791Y-96121067D01*
X140837290Y-96121080D01*
X140874060Y-96120194D01*
X140913775Y-96118377D01*
X140957113Y-96115599D01*
X141004746Y-96111829D01*
X141057352Y-96107037D01*
X141115605Y-96101192D01*
X141177125Y-96094600D01*
X141266165Y-96084237D01*
X141361639Y-96072018D01*
X141463193Y-96058007D01*
X141570469Y-96042269D01*
X141683115Y-96024868D01*
X141800774Y-96005867D01*
X141923091Y-95985332D01*
X142049712Y-95963326D01*
X142180280Y-95939914D01*
X142314441Y-95915160D01*
X142451840Y-95889128D01*
X142592121Y-95861882D01*
X142734930Y-95833486D01*
X142879911Y-95804006D01*
X143026709Y-95773505D01*
X143174969Y-95742046D01*
X143324335Y-95709696D01*
X143411972Y-95690408D01*
X143456466Y-95680554D01*
X143494684Y-95672267D01*
X143527258Y-95665680D01*
X143554823Y-95660928D01*
X143578011Y-95658146D01*
X143597455Y-95657468D01*
X143613788Y-95659028D01*
X143627642Y-95662962D01*
X143639652Y-95669404D01*
X143650449Y-95678488D01*
X143660667Y-95690348D01*
X143670938Y-95705120D01*
X143681896Y-95722938D01*
X143694174Y-95743936D01*
X143698453Y-95751295D01*
X143735722Y-95817072D01*
X143770654Y-95882322D01*
X143802855Y-95946214D01*
X143831929Y-96007915D01*
X143857481Y-96066594D01*
X143879117Y-96121419D01*
X143892982Y-96160859D01*
X143908442Y-96213272D01*
X143919158Y-96262184D01*
X143925158Y-96307367D01*
X143926469Y-96348594D01*
X143923119Y-96385635D01*
X143915134Y-96418262D01*
X143902543Y-96446247D01*
X143885372Y-96469362D01*
X143863649Y-96487378D01*
X143853124Y-96493395D01*
X143842991Y-96498154D01*
X143831941Y-96502524D01*
X143819615Y-96506533D01*
X143805657Y-96510209D01*
X143789709Y-96513581D01*
X143771413Y-96516677D01*
X143750414Y-96519524D01*
X143726352Y-96522152D01*
X143698872Y-96524587D01*
X143667615Y-96526859D01*
X143632225Y-96528995D01*
X143592343Y-96531023D01*
X143547613Y-96532973D01*
X143497677Y-96534871D01*
X143442178Y-96536746D01*
X143380759Y-96538626D01*
X143313062Y-96540540D01*
X143238731Y-96542515D01*
X143225000Y-96542869D01*
X143102923Y-96546207D01*
X142987344Y-96549786D01*
X142877707Y-96553639D01*
X142773456Y-96557794D01*
X142674037Y-96562284D01*
X142578895Y-96567138D01*
X142487474Y-96572388D01*
X142399219Y-96578064D01*
X142313574Y-96584196D01*
X142229985Y-96590816D01*
X142147897Y-96597954D01*
X142066754Y-96605640D01*
X142039667Y-96608345D01*
X141910967Y-96622177D01*
X141786502Y-96637273D01*
X141665523Y-96653805D01*
X141547281Y-96671941D01*
X141431028Y-96691851D01*
X141316016Y-96713705D01*
X141201496Y-96737671D01*
X141086721Y-96763920D01*
X140970941Y-96792620D01*
X140853408Y-96823942D01*
X140733373Y-96858054D01*
X140610090Y-96895127D01*
X140482808Y-96935329D01*
X140350780Y-96978830D01*
X140245792Y-97014551D01*
X140195932Y-97032059D01*
X140148400Y-97049485D01*
X140102527Y-97067150D01*
X140057643Y-97085374D01*
X140013080Y-97104476D01*
X139968167Y-97124779D01*
X139922235Y-97146601D01*
X139874615Y-97170263D01*
X139824637Y-97196085D01*
X139771633Y-97224388D01*
X139714932Y-97255492D01*
X139653865Y-97289717D01*
X139587763Y-97327384D01*
X139566694Y-97339493D01*
X139508073Y-97373223D01*
X139455102Y-97403651D01*
X139407334Y-97431025D01*
X139364321Y-97455591D01*
X139325616Y-97477596D01*
X139290771Y-97497287D01*
X139259338Y-97514910D01*
X139230870Y-97530714D01*
X139204919Y-97544944D01*
X139181037Y-97557848D01*
X139158777Y-97569672D01*
X139137692Y-97580664D01*
X139117332Y-97591070D01*
X139097252Y-97601138D01*
X139077003Y-97611113D01*
X139056138Y-97621244D01*
X139054306Y-97622128D01*
X138986867Y-97653565D01*
X138923250Y-97680819D01*
X138862082Y-97704282D01*
X138801992Y-97724345D01*
X138741609Y-97741402D01*
X138679560Y-97755844D01*
X138614474Y-97768064D01*
X138544978Y-97778454D01*
X138480139Y-97786279D01*
X138439152Y-97790039D01*
X138393206Y-97792999D01*
X138344358Y-97795105D01*
X138294663Y-97796301D01*
X138246179Y-97796532D01*
X138200962Y-97795744D01*
X138171458Y-97794508D01*
X138091912Y-97787865D01*
X138011456Y-97776743D01*
X137931278Y-97761443D01*
X137852567Y-97742263D01*
X137776511Y-97719501D01*
X137704298Y-97693456D01*
X137637116Y-97664427D01*
X137619008Y-97655625D01*
X137538028Y-97611372D01*
X137458806Y-97560408D01*
X137381482Y-97502893D01*
X137306195Y-97438983D01*
X137233086Y-97368836D01*
X137162295Y-97292610D01*
X137093960Y-97210463D01*
X137028223Y-97122552D01*
X136965222Y-97029036D01*
X136905097Y-96930070D01*
X136847989Y-96825814D01*
X136802897Y-96735201D01*
X136784559Y-96695287D01*
X136766937Y-96653922D01*
X136749526Y-96609814D01*
X136731819Y-96561672D01*
X136713310Y-96508204D01*
X136708965Y-96495250D01*
X136701296Y-96471804D01*
X136693193Y-96446214D01*
X136685008Y-96419673D01*
X136677093Y-96393373D01*
X136669801Y-96368508D01*
X136663485Y-96346269D01*
X136658496Y-96327848D01*
X136655187Y-96314440D01*
X136654378Y-96310558D01*
X136652209Y-96298996D01*
X136447595Y-96216428D01*
X136411615Y-96201883D01*
X136377607Y-96188085D01*
X136346132Y-96175266D01*
X136317748Y-96163654D01*
X136293014Y-96153480D01*
X136272490Y-96144974D01*
X136256734Y-96138367D01*
X136246307Y-96133889D01*
X136241768Y-96131769D01*
X136241619Y-96131656D01*
X136243960Y-96129006D01*
X136251162Y-96122050D01*
X136262812Y-96111163D01*
X136278495Y-96096724D01*
X136297797Y-96079108D01*
X136320304Y-96058694D01*
X136345601Y-96035859D01*
X136373274Y-96010979D01*
X136402909Y-95984432D01*
X136428286Y-95961769D01*
X136464302Y-95929640D01*
X136495416Y-95901846D01*
X136521998Y-95878033D01*
X136544415Y-95857848D01*
X136563038Y-95840935D01*
X136578235Y-95826942D01*
X136590376Y-95815513D01*
X136599830Y-95806294D01*
X136606965Y-95798931D01*
X136612152Y-95793071D01*
X136615759Y-95788358D01*
X136618156Y-95784439D01*
X136619712Y-95780959D01*
X136620795Y-95777565D01*
X136620979Y-95776897D01*
X136627388Y-95756348D01*
X136636490Y-95731398D01*
X136647560Y-95703816D01*
X136659874Y-95675375D01*
X136672705Y-95647843D01*
X136679300Y-95634554D01*
X136711749Y-95576345D01*
X136748977Y-95520220D01*
X136791666Y-95465249D01*
X136840499Y-95410502D01*
X136853642Y-95396849D01*
X136909151Y-95343310D01*
X136966431Y-95294827D01*
X137026685Y-95250531D01*
X137091117Y-95209557D01*
X137160931Y-95171037D01*
X137181917Y-95160420D01*
X137249971Y-95128548D01*
X137317985Y-95100713D01*
X137387187Y-95076541D01*
X137458807Y-95055659D01*
X137534072Y-95037692D01*
X137614212Y-95022268D01*
X137660680Y-95014752D01*
X137680516Y-95011832D01*
X137697844Y-95009566D01*
X137714061Y-95007870D01*
X137730562Y-95006659D01*
X137748742Y-95005848D01*
X137769998Y-95005355D01*
X137795724Y-95005094D01*
X137822208Y-95004991D01*
X137859423Y-95005069D01*
X137859423Y-95005069D01*
G37*
X137859423Y-95005069D02*
X137891094Y-95005572D01*
X137918725Y-95006621D01*
X137943824Y-95008340D01*
X137967893Y-95010851D01*
X137992439Y-95014276D01*
X138018967Y-95018740D01*
X138040931Y-95022815D01*
X138099786Y-95035578D01*
X138160883Y-95051645D01*
X138221336Y-95070182D01*
X138278260Y-95090354D01*
X138289639Y-95094777D01*
X138332817Y-95111970D01*
X138375192Y-95129108D01*
X138417150Y-95146370D01*
X138459080Y-95163937D01*
X138501369Y-95181989D01*
X138544404Y-95200707D01*
X138588573Y-95220271D01*
X138634265Y-95240862D01*
X138681866Y-95262659D01*
X138731764Y-95285844D01*
X138784347Y-95310597D01*
X138840003Y-95337099D01*
X138899118Y-95365528D01*
X138962082Y-95396067D01*
X139029280Y-95428896D01*
X139101102Y-95464194D01*
X139177935Y-95502143D01*
X139260166Y-95542923D01*
X139348183Y-95586714D01*
X139370903Y-95598037D01*
X139449183Y-95636981D01*
X139521702Y-95672880D01*
X139588949Y-95705961D01*
X139651415Y-95736448D01*
X139709589Y-95764567D01*
X139763962Y-95790545D01*
X139815024Y-95814606D01*
X139863265Y-95836978D01*
X139909175Y-95857885D01*
X139953244Y-95877553D01*
X139995962Y-95896208D01*
X140037819Y-95914076D01*
X140079306Y-95931382D01*
X140120912Y-95948353D01*
X140163128Y-95965213D01*
X140196403Y-95978281D01*
X140219926Y-95987518D01*
X140241319Y-95996037D01*
X140259688Y-96003473D01*
X140274143Y-96009460D01*
X140283791Y-96013635D01*
X140287732Y-96015624D01*
X140287199Y-96019719D01*
X140281987Y-96027737D01*
X140272739Y-96038968D01*
X140260100Y-96052704D01*
X140244712Y-96068236D01*
X140227219Y-96084855D01*
X140214178Y-96096657D01*
X140146199Y-96152758D01*
X140071764Y-96206253D01*
X139990994Y-96257086D01*
X139904011Y-96305200D01*
X139810938Y-96350538D01*
X139711897Y-96393043D01*
X139607009Y-96432658D01*
X139496398Y-96469327D01*
X139380185Y-96502992D01*
X139293292Y-96525296D01*
X139192697Y-96548538D01*
X139097709Y-96567867D01*
X139008081Y-96583303D01*
X138923561Y-96594868D01*
X138843901Y-96602580D01*
X138768851Y-96606462D01*
X138698163Y-96606535D01*
X138631587Y-96602818D01*
X138568874Y-96595332D01*
X138531082Y-96588660D01*
X138470450Y-96573748D01*
X138415094Y-96554367D01*
X138365086Y-96530590D01*
X138320499Y-96502491D01*
X138281404Y-96470142D01*
X138247873Y-96433617D01*
X138219979Y-96392988D01*
X138197795Y-96348329D01*
X138181392Y-96299713D01*
X138170842Y-96247214D01*
X138167903Y-96220940D01*
X138167085Y-96209833D01*
X138166149Y-96201698D01*
X138164111Y-96195994D01*
X138159991Y-96192178D01*
X138152806Y-96189710D01*
X138141575Y-96188046D01*
X138125315Y-96186646D01*
X138103045Y-96184967D01*
X138102667Y-96184937D01*
X138075115Y-96182710D01*
X138053944Y-96180816D01*
X138038491Y-96179166D01*
X138028094Y-96177673D01*
X138022090Y-96176249D01*
X138019817Y-96174807D01*
X138019918Y-96173974D01*
X138017973Y-96172665D01*
X138011139Y-96172440D01*
X138001468Y-96173114D01*
X137991010Y-96174497D01*
X137981817Y-96176403D01*
X137977431Y-96177859D01*
X137971923Y-96179376D01*
X137960616Y-96181836D01*
X137944669Y-96185008D01*
X137925241Y-96188665D01*
X137903489Y-96192578D01*
X137898056Y-96193529D01*
X137816570Y-96207036D01*
X137739154Y-96218409D01*
X137663266Y-96227987D01*
X137586367Y-96236109D01*
X137562917Y-96238294D01*
X137540487Y-96239888D01*
X137513281Y-96241121D01*
X137482652Y-96241993D01*
X137449951Y-96242504D01*
X137416529Y-96242652D01*
X137383738Y-96242438D01*
X137352930Y-96241861D01*
X137325455Y-96240920D01*
X137302666Y-96239615D01*
X137289514Y-96238402D01*
X137216686Y-96228747D01*
X137145829Y-96216860D01*
X137075068Y-96202349D01*
X137002527Y-96184822D01*
X136926331Y-96163890D01*
X136910857Y-96159368D01*
X136888243Y-96152575D01*
X136871577Y-96147222D01*
X136859982Y-96142959D01*
X136852578Y-96139438D01*
X136848490Y-96136309D01*
X136847057Y-96133968D01*
X136846091Y-96128855D01*
X136844509Y-96117561D01*
X136842410Y-96100925D01*
X136839895Y-96079783D01*
X136837063Y-96054975D01*
X136834013Y-96027338D01*
X136830918Y-95998392D01*
X136827321Y-95964399D01*
X136824435Y-95936757D01*
X136822312Y-95914791D01*
X136821001Y-95897830D01*
X136820553Y-95885198D01*
X136821018Y-95876223D01*
X136822447Y-95870230D01*
X136824890Y-95866547D01*
X136828397Y-95864499D01*
X136833018Y-95863413D01*
X136838805Y-95862615D01*
X136841091Y-95862283D01*
X136852337Y-95860254D01*
X136869389Y-95856797D01*
X136891193Y-95852151D01*
X136916700Y-95846555D01*
X136944858Y-95840249D01*
X136974615Y-95833471D01*
X137004921Y-95826461D01*
X137034725Y-95819457D01*
X137062975Y-95812700D01*
X137088620Y-95806427D01*
X137107833Y-95801593D01*
X137210462Y-95774234D01*
X137306453Y-95746397D01*
X137396213Y-95717945D01*
X137480153Y-95688742D01*
X137558680Y-95658650D01*
X137632203Y-95627534D01*
X137644056Y-95622213D01*
X137714730Y-95587760D01*
X137786700Y-95548022D01*
X137858246Y-95504092D01*
X137927648Y-95457066D01*
X137993190Y-95408037D01*
X138037403Y-95371786D01*
X138055065Y-95356423D01*
X138073398Y-95340012D01*
X138091684Y-95323244D01*
X138109206Y-95306810D01*
X138125249Y-95291401D01*
X138139095Y-95277709D01*
X138150027Y-95266424D01*
X138157329Y-95258238D01*
X138160283Y-95253841D01*
X138160219Y-95253368D01*
X138154114Y-95250119D01*
X138142137Y-95245797D01*
X138125347Y-95240663D01*
X138104801Y-95234980D01*
X138081556Y-95229011D01*
X138056670Y-95223019D01*
X138031199Y-95217265D01*
X138006201Y-95212013D01*
X137982732Y-95207526D01*
X137961852Y-95204065D01*
X137961556Y-95204021D01*
X137906513Y-95197477D01*
X137852179Y-95194423D01*
X137797039Y-95194893D01*
X137739581Y-95198923D01*
X137678289Y-95206548D01*
X137648461Y-95211261D01*
X137555204Y-95229850D01*
X137465771Y-95253707D01*
X137380377Y-95282725D01*
X137299234Y-95316797D01*
X137222557Y-95355818D01*
X137150558Y-95399681D01*
X137083451Y-95448280D01*
X137021449Y-95501509D01*
X136977949Y-95544915D01*
X136935574Y-95593556D01*
X136897536Y-95644333D01*
X136864493Y-95696230D01*
X136837105Y-95748230D01*
X136819656Y-95789355D01*
X136814680Y-95801769D01*
X136810056Y-95811937D01*
X136806789Y-95817652D01*
X136803532Y-95820958D01*
X136795631Y-95828670D01*
X136783561Y-95840334D01*
X136767793Y-95855496D01*
X136748801Y-95873704D01*
X136727057Y-95894504D01*
X136703034Y-95917442D01*
X136677205Y-95942065D01*
X136658042Y-95960309D01*
X136631341Y-95985737D01*
X136606208Y-96009712D01*
X136583104Y-96031794D01*
X136562486Y-96051540D01*
X136544813Y-96068513D01*
X136530545Y-96082270D01*
X136520139Y-96092371D01*
X136514055Y-96098376D01*
X136512607Y-96099922D01*
X136515572Y-96101699D01*
X136524384Y-96106052D01*
X136538436Y-96112701D01*
X136557123Y-96121368D01*
X136579836Y-96131773D01*
X136605972Y-96143637D01*
X136634923Y-96156683D01*
X136666083Y-96170630D01*
X136673468Y-96173923D01*
X136835126Y-96245942D01*
X136851981Y-96306214D01*
X136860094Y-96334199D01*
X136869941Y-96366534D01*
X136880916Y-96401347D01*
X136892411Y-96436762D01*
X136903817Y-96470907D01*
X136914527Y-96501907D01*
X136923511Y-96526757D01*
X136928959Y-96540443D01*
X136933479Y-96548917D01*
X136938136Y-96553733D01*
X136943830Y-96556392D01*
X136951132Y-96557558D01*
X136964453Y-96558496D01*
X136982760Y-96559209D01*
X137005020Y-96559697D01*
X137030201Y-96559965D01*
X137057269Y-96560013D01*
X137085192Y-96559845D01*
X137112937Y-96559461D01*
X137139472Y-96558866D01*
X137163763Y-96558060D01*
X137184777Y-96557046D01*
X137201319Y-96555841D01*
X137364261Y-96538212D01*
X137464139Y-96524838D01*
X137506859Y-96518400D01*
X137543678Y-96512100D01*
X137575734Y-96505624D01*
X137604167Y-96498661D01*
X137630116Y-96490899D01*
X137654721Y-96482025D01*
X137679122Y-96471727D01*
X137704457Y-96459694D01*
X137707556Y-96458147D01*
X137763115Y-96426813D01*
X137817664Y-96389211D01*
X137870233Y-96346128D01*
X137919852Y-96298353D01*
X137960314Y-96253042D01*
X137978347Y-96231319D01*
X137980748Y-96256569D01*
X137987775Y-96303991D01*
X137999681Y-96353168D01*
X138015802Y-96402224D01*
X138035477Y-96449282D01*
X138058042Y-96492463D01*
X138071719Y-96514289D01*
X138109340Y-96564006D01*
X138152141Y-96609003D01*
X138200037Y-96649251D01*
X138252937Y-96684723D01*
X138310757Y-96715389D01*
X138373406Y-96741223D01*
X138440799Y-96762197D01*
X138512848Y-96778282D01*
X138589465Y-96789451D01*
X138670562Y-96795676D01*
X138756053Y-96796929D01*
X138845848Y-96793182D01*
X138924639Y-96786139D01*
X138997782Y-96776822D01*
X139075875Y-96764509D01*
X139157621Y-96749481D01*
X139241724Y-96732024D01*
X139326887Y-96712418D01*
X139411813Y-96690949D01*
X139495205Y-96667899D01*
X139571986Y-96644745D01*
X139669460Y-96612112D01*
X139763786Y-96576670D01*
X139854613Y-96538629D01*
X139941592Y-96498203D01*
X140024372Y-96455600D01*
X140102604Y-96411034D01*
X140175937Y-96364714D01*
X140244021Y-96316853D01*
X140306506Y-96267661D01*
X140363041Y-96217350D01*
X140413278Y-96166131D01*
X140456865Y-96114215D01*
X140461516Y-96108103D01*
X140471132Y-96095676D01*
X140477892Y-96088104D01*
X140482929Y-96084422D01*
X140487377Y-96083664D01*
X140489726Y-96084079D01*
X140509163Y-96088388D01*
X140534240Y-96093070D01*
X140563568Y-96097922D01*
X140595757Y-96102737D01*
X140629415Y-96107313D01*
X140663152Y-96111443D01*
X140695578Y-96114923D01*
X140706167Y-96115932D01*
X140737905Y-96118462D01*
X140769888Y-96120184D01*
X140802791Y-96121067D01*
X140837290Y-96121080D01*
X140874060Y-96120194D01*
X140913775Y-96118377D01*
X140957113Y-96115599D01*
X141004746Y-96111829D01*
X141057352Y-96107037D01*
X141115605Y-96101192D01*
X141177125Y-96094600D01*
X141266165Y-96084237D01*
X141361639Y-96072018D01*
X141463193Y-96058007D01*
X141570469Y-96042269D01*
X141683115Y-96024868D01*
X141800774Y-96005867D01*
X141923091Y-95985332D01*
X142049712Y-95963326D01*
X142180280Y-95939914D01*
X142314441Y-95915160D01*
X142451840Y-95889128D01*
X142592121Y-95861882D01*
X142734930Y-95833486D01*
X142879911Y-95804006D01*
X143026709Y-95773505D01*
X143174969Y-95742046D01*
X143324335Y-95709696D01*
X143411972Y-95690408D01*
X143456466Y-95680554D01*
X143494684Y-95672267D01*
X143527258Y-95665680D01*
X143554823Y-95660928D01*
X143578011Y-95658146D01*
X143597455Y-95657468D01*
X143613788Y-95659028D01*
X143627642Y-95662962D01*
X143639652Y-95669404D01*
X143650449Y-95678488D01*
X143660667Y-95690348D01*
X143670938Y-95705120D01*
X143681896Y-95722938D01*
X143694174Y-95743936D01*
X143698453Y-95751295D01*
X143735722Y-95817072D01*
X143770654Y-95882322D01*
X143802855Y-95946214D01*
X143831929Y-96007915D01*
X143857481Y-96066594D01*
X143879117Y-96121419D01*
X143892982Y-96160859D01*
X143908442Y-96213272D01*
X143919158Y-96262184D01*
X143925158Y-96307367D01*
X143926469Y-96348594D01*
X143923119Y-96385635D01*
X143915134Y-96418262D01*
X143902543Y-96446247D01*
X143885372Y-96469362D01*
X143863649Y-96487378D01*
X143853124Y-96493395D01*
X143842991Y-96498154D01*
X143831941Y-96502524D01*
X143819615Y-96506533D01*
X143805657Y-96510209D01*
X143789709Y-96513581D01*
X143771413Y-96516677D01*
X143750414Y-96519524D01*
X143726352Y-96522152D01*
X143698872Y-96524587D01*
X143667615Y-96526859D01*
X143632225Y-96528995D01*
X143592343Y-96531023D01*
X143547613Y-96532973D01*
X143497677Y-96534871D01*
X143442178Y-96536746D01*
X143380759Y-96538626D01*
X143313062Y-96540540D01*
X143238731Y-96542515D01*
X143225000Y-96542869D01*
X143102923Y-96546207D01*
X142987344Y-96549786D01*
X142877707Y-96553639D01*
X142773456Y-96557794D01*
X142674037Y-96562284D01*
X142578895Y-96567138D01*
X142487474Y-96572388D01*
X142399219Y-96578064D01*
X142313574Y-96584196D01*
X142229985Y-96590816D01*
X142147897Y-96597954D01*
X142066754Y-96605640D01*
X142039667Y-96608345D01*
X141910967Y-96622177D01*
X141786502Y-96637273D01*
X141665523Y-96653805D01*
X141547281Y-96671941D01*
X141431028Y-96691851D01*
X141316016Y-96713705D01*
X141201496Y-96737671D01*
X141086721Y-96763920D01*
X140970941Y-96792620D01*
X140853408Y-96823942D01*
X140733373Y-96858054D01*
X140610090Y-96895127D01*
X140482808Y-96935329D01*
X140350780Y-96978830D01*
X140245792Y-97014551D01*
X140195932Y-97032059D01*
X140148400Y-97049485D01*
X140102527Y-97067150D01*
X140057643Y-97085374D01*
X140013080Y-97104476D01*
X139968167Y-97124779D01*
X139922235Y-97146601D01*
X139874615Y-97170263D01*
X139824637Y-97196085D01*
X139771633Y-97224388D01*
X139714932Y-97255492D01*
X139653865Y-97289717D01*
X139587763Y-97327384D01*
X139566694Y-97339493D01*
X139508073Y-97373223D01*
X139455102Y-97403651D01*
X139407334Y-97431025D01*
X139364321Y-97455591D01*
X139325616Y-97477596D01*
X139290771Y-97497287D01*
X139259338Y-97514910D01*
X139230870Y-97530714D01*
X139204919Y-97544944D01*
X139181037Y-97557848D01*
X139158777Y-97569672D01*
X139137692Y-97580664D01*
X139117332Y-97591070D01*
X139097252Y-97601138D01*
X139077003Y-97611113D01*
X139056138Y-97621244D01*
X139054306Y-97622128D01*
X138986867Y-97653565D01*
X138923250Y-97680819D01*
X138862082Y-97704282D01*
X138801992Y-97724345D01*
X138741609Y-97741402D01*
X138679560Y-97755844D01*
X138614474Y-97768064D01*
X138544978Y-97778454D01*
X138480139Y-97786279D01*
X138439152Y-97790039D01*
X138393206Y-97792999D01*
X138344358Y-97795105D01*
X138294663Y-97796301D01*
X138246179Y-97796532D01*
X138200962Y-97795744D01*
X138171458Y-97794508D01*
X138091912Y-97787865D01*
X138011456Y-97776743D01*
X137931278Y-97761443D01*
X137852567Y-97742263D01*
X137776511Y-97719501D01*
X137704298Y-97693456D01*
X137637116Y-97664427D01*
X137619008Y-97655625D01*
X137538028Y-97611372D01*
X137458806Y-97560408D01*
X137381482Y-97502893D01*
X137306195Y-97438983D01*
X137233086Y-97368836D01*
X137162295Y-97292610D01*
X137093960Y-97210463D01*
X137028223Y-97122552D01*
X136965222Y-97029036D01*
X136905097Y-96930070D01*
X136847989Y-96825814D01*
X136802897Y-96735201D01*
X136784559Y-96695287D01*
X136766937Y-96653922D01*
X136749526Y-96609814D01*
X136731819Y-96561672D01*
X136713310Y-96508204D01*
X136708965Y-96495250D01*
X136701296Y-96471804D01*
X136693193Y-96446214D01*
X136685008Y-96419673D01*
X136677093Y-96393373D01*
X136669801Y-96368508D01*
X136663485Y-96346269D01*
X136658496Y-96327848D01*
X136655187Y-96314440D01*
X136654378Y-96310558D01*
X136652209Y-96298996D01*
X136447595Y-96216428D01*
X136411615Y-96201883D01*
X136377607Y-96188085D01*
X136346132Y-96175266D01*
X136317748Y-96163654D01*
X136293014Y-96153480D01*
X136272490Y-96144974D01*
X136256734Y-96138367D01*
X136246307Y-96133889D01*
X136241768Y-96131769D01*
X136241619Y-96131656D01*
X136243960Y-96129006D01*
X136251162Y-96122050D01*
X136262812Y-96111163D01*
X136278495Y-96096724D01*
X136297797Y-96079108D01*
X136320304Y-96058694D01*
X136345601Y-96035859D01*
X136373274Y-96010979D01*
X136402909Y-95984432D01*
X136428286Y-95961769D01*
X136464302Y-95929640D01*
X136495416Y-95901846D01*
X136521998Y-95878033D01*
X136544415Y-95857848D01*
X136563038Y-95840935D01*
X136578235Y-95826942D01*
X136590376Y-95815513D01*
X136599830Y-95806294D01*
X136606965Y-95798931D01*
X136612152Y-95793071D01*
X136615759Y-95788358D01*
X136618156Y-95784439D01*
X136619712Y-95780959D01*
X136620795Y-95777565D01*
X136620979Y-95776897D01*
X136627388Y-95756348D01*
X136636490Y-95731398D01*
X136647560Y-95703816D01*
X136659874Y-95675375D01*
X136672705Y-95647843D01*
X136679300Y-95634554D01*
X136711749Y-95576345D01*
X136748977Y-95520220D01*
X136791666Y-95465249D01*
X136840499Y-95410502D01*
X136853642Y-95396849D01*
X136909151Y-95343310D01*
X136966431Y-95294827D01*
X137026685Y-95250531D01*
X137091117Y-95209557D01*
X137160931Y-95171037D01*
X137181917Y-95160420D01*
X137249971Y-95128548D01*
X137317985Y-95100713D01*
X137387187Y-95076541D01*
X137458807Y-95055659D01*
X137534072Y-95037692D01*
X137614212Y-95022268D01*
X137660680Y-95014752D01*
X137680516Y-95011832D01*
X137697844Y-95009566D01*
X137714061Y-95007870D01*
X137730562Y-95006659D01*
X137748742Y-95005848D01*
X137769998Y-95005355D01*
X137795724Y-95005094D01*
X137822208Y-95004991D01*
X137859423Y-95005069D01*
G36*
X133591912Y-94539328D02*
X133629087Y-94539340D01*
X133661821Y-94539366D01*
X133690406Y-94539411D01*
X133715137Y-94539481D01*
X133736306Y-94539581D01*
X133754208Y-94539715D01*
X133769136Y-94539889D01*
X133781384Y-94540109D01*
X133791247Y-94540379D01*
X133799017Y-94540705D01*
X133804988Y-94541092D01*
X133809454Y-94541544D01*
X133812709Y-94542067D01*
X133815046Y-94542667D01*
X133816760Y-94543349D01*
X133818032Y-94544048D01*
X133824217Y-94549369D01*
X133828517Y-94555738D01*
X133828618Y-94555984D01*
X133829468Y-94559432D01*
X133831162Y-94567481D01*
X133833633Y-94579785D01*
X133836816Y-94595999D01*
X133840644Y-94615777D01*
X133845052Y-94638772D01*
X133849972Y-94664640D01*
X133855339Y-94693034D01*
X133861087Y-94723609D01*
X133867150Y-94756019D01*
X133873461Y-94789918D01*
X133876888Y-94808396D01*
X133883321Y-94843102D01*
X133889535Y-94876614D01*
X133895466Y-94908574D01*
X133901046Y-94938625D01*
X133906209Y-94966411D01*
X133910889Y-94991572D01*
X133915018Y-95013753D01*
X133918531Y-95032596D01*
X133921362Y-95047743D01*
X133923443Y-95058837D01*
X133924708Y-95065522D01*
X133925013Y-95067096D01*
X133925885Y-95071591D01*
X133926785Y-95075572D01*
X133928016Y-95079199D01*
X133929879Y-95082631D01*
X133932678Y-95086027D01*
X133936715Y-95089546D01*
X133942292Y-95093349D01*
X133949712Y-95097593D01*
X133959277Y-95102440D01*
X133971290Y-95108046D01*
X133986054Y-95114573D01*
X134003871Y-95122180D01*
X134025043Y-95131025D01*
X134049873Y-95141268D01*
X134078663Y-95153068D01*
X134111716Y-95166586D01*
X134121628Y-95170639D01*
X134156076Y-95184740D01*
X134186188Y-95197060D01*
X134212294Y-95207692D01*
X134234727Y-95216727D01*
X134253816Y-95224258D01*
X134269894Y-95230378D01*
X134283292Y-95235177D01*
X134294341Y-95238748D01*
X134303372Y-95241184D01*
X134310717Y-95242576D01*
X134316707Y-95243017D01*
X134321673Y-95242599D01*
X134325947Y-95241413D01*
X134329860Y-95239553D01*
X134333743Y-95237110D01*
X134337927Y-95234176D01*
X134341390Y-95231759D01*
X134345895Y-95228675D01*
X134354234Y-95222960D01*
X134366094Y-95214828D01*
X134381161Y-95204496D01*
X134399123Y-95192176D01*
X134419666Y-95178085D01*
X134442477Y-95162437D01*
X134467244Y-95145447D01*
X134493652Y-95127329D01*
X134521388Y-95108299D01*
X134550140Y-95088571D01*
X134561367Y-95080867D01*
X134594967Y-95057819D01*
X134624678Y-95037457D01*
X134650756Y-95019616D01*
X134673454Y-95004130D01*
X134693028Y-94990833D01*
X134709732Y-94979561D01*
X134723819Y-94970146D01*
X134735546Y-94962424D01*
X134745166Y-94956229D01*
X134752934Y-94951394D01*
X134759104Y-94947754D01*
X134763931Y-94945144D01*
X134767669Y-94943398D01*
X134770573Y-94942350D01*
X134772897Y-94941833D01*
X134774895Y-94941684D01*
X134775110Y-94941683D01*
X134786011Y-94941683D01*
X134972758Y-95128429D01*
X135002582Y-95158256D01*
X135029048Y-95184738D01*
X135052358Y-95208086D01*
X135072712Y-95228513D01*
X135090310Y-95246229D01*
X135105352Y-95261445D01*
X135118040Y-95274372D01*
X135128573Y-95285223D01*
X135137152Y-95294207D01*
X135143977Y-95301537D01*
X135149249Y-95307423D01*
X135153168Y-95312076D01*
X135155935Y-95315708D01*
X135157749Y-95318530D01*
X135158812Y-95320754D01*
X135159323Y-95322589D01*
X135159484Y-95324249D01*
X135159495Y-95325217D01*
X135158249Y-95334021D01*
X135155215Y-95342217D01*
X135154773Y-95342985D01*
X135152686Y-95346153D01*
X135147958Y-95353162D01*
X135140798Y-95363709D01*
X135131414Y-95377491D01*
X135120012Y-95394203D01*
X135106801Y-95413542D01*
X135091987Y-95435204D01*
X135075780Y-95458884D01*
X135058385Y-95484279D01*
X135040012Y-95511086D01*
X135020866Y-95538999D01*
X135018179Y-95542916D01*
X134998759Y-95571219D01*
X134979948Y-95598639D01*
X134961966Y-95624850D01*
X134945037Y-95649529D01*
X134929383Y-95672353D01*
X134915226Y-95692997D01*
X134902787Y-95711137D01*
X134892289Y-95726450D01*
X134883954Y-95738611D01*
X134878005Y-95747297D01*
X134874663Y-95752184D01*
X134874525Y-95752386D01*
X134871271Y-95757029D01*
X134868436Y-95761113D01*
X134866117Y-95764966D01*
X134864410Y-95768916D01*
X134863412Y-95773290D01*
X134863218Y-95778418D01*
X134863927Y-95784628D01*
X134865635Y-95792247D01*
X134868437Y-95801604D01*
X134872431Y-95813027D01*
X134877713Y-95826845D01*
X134884381Y-95843385D01*
X134892529Y-95862975D01*
X134902256Y-95885945D01*
X134913657Y-95912621D01*
X134926830Y-95943333D01*
X134939234Y-95972256D01*
X134951459Y-96000761D01*
X134963181Y-96028056D01*
X134974240Y-96053768D01*
X134984475Y-96077524D01*
X134993723Y-96098952D01*
X135001825Y-96117678D01*
X135008620Y-96133330D01*
X135013945Y-96145536D01*
X135017640Y-96153921D01*
X135019544Y-96158114D01*
X135019671Y-96158370D01*
X135024634Y-96165307D01*
X135031041Y-96171298D01*
X135031084Y-96171329D01*
X135032257Y-96172180D01*
X135033418Y-96172962D01*
X135034835Y-96173728D01*
X135036774Y-96174531D01*
X135039505Y-96175425D01*
X135043294Y-96176463D01*
X135048410Y-96177699D01*
X135055119Y-96179185D01*
X135063691Y-96180974D01*
X135074392Y-96183121D01*
X135087490Y-96185678D01*
X135103253Y-96188699D01*
X135121948Y-96192236D01*
X135143845Y-96196344D01*
X135169209Y-96201075D01*
X135198308Y-96206483D01*
X135231412Y-96212621D01*
X135268786Y-96219543D01*
X135310700Y-96227300D01*
X135334287Y-96231666D01*
X135364902Y-96237339D01*
X135394300Y-96242800D01*
X135422076Y-96247972D01*
X135447820Y-96252779D01*
X135471124Y-96257143D01*
X135491580Y-96260989D01*
X135508782Y-96264240D01*
X135522319Y-96266819D01*
X135531786Y-96268650D01*
X135536773Y-96269656D01*
X135537099Y-96269729D01*
X135545862Y-96272846D01*
X135553200Y-96277326D01*
X135554703Y-96278716D01*
X135560623Y-96285018D01*
X135561262Y-96548246D01*
X135561362Y-96590381D01*
X135561443Y-96627778D01*
X135561500Y-96660730D01*
X135561528Y-96689530D01*
X135561523Y-96714469D01*
X135561481Y-96735841D01*
X135561396Y-96753938D01*
X135561265Y-96769052D01*
X135561083Y-96781475D01*
X135560845Y-96791500D01*
X135560546Y-96799419D01*
X135560183Y-96805525D01*
X135559751Y-96810110D01*
X135559245Y-96813466D01*
X135558660Y-96815886D01*
X135557993Y-96817663D01*
X135557238Y-96819088D01*
X135557056Y-96819389D01*
X135550775Y-96826182D01*
X135543843Y-96830019D01*
X135539972Y-96830937D01*
X135531590Y-96832681D01*
X135519132Y-96835167D01*
X135503035Y-96838312D01*
X135483733Y-96842032D01*
X135461662Y-96846243D01*
X135437258Y-96850861D01*
X135410957Y-96855803D01*
X135383193Y-96860984D01*
X135372010Y-96863062D01*
X135326078Y-96871585D01*
X135284833Y-96879241D01*
X135248017Y-96886081D01*
X135215370Y-96892152D01*
X135186635Y-96897503D01*
X135161553Y-96902184D01*
X135139865Y-96906244D01*
X135121313Y-96909731D01*
X135105637Y-96912695D01*
X135092580Y-96915184D01*
X135081883Y-96917248D01*
X135073287Y-96918935D01*
X135066533Y-96920294D01*
X135061364Y-96921375D01*
X135057520Y-96922226D01*
X135054743Y-96922896D01*
X135052774Y-96923435D01*
X135052077Y-96923649D01*
X135044794Y-96927446D01*
X135038208Y-96933110D01*
X135037927Y-96933437D01*
X135036055Y-96936873D01*
X135032476Y-96944645D01*
X135027329Y-96956416D01*
X135020757Y-96971844D01*
X135012901Y-96990589D01*
X135003901Y-97012313D01*
X134993899Y-97036674D01*
X134983037Y-97063333D01*
X134971454Y-97091951D01*
X134959294Y-97122186D01*
X134953193Y-97137423D01*
X134939259Y-97172282D01*
X134927081Y-97202781D01*
X134916543Y-97229233D01*
X134907533Y-97251948D01*
X134899936Y-97271239D01*
X134893639Y-97287415D01*
X134888527Y-97300787D01*
X134884487Y-97311668D01*
X134881406Y-97320367D01*
X134879168Y-97327196D01*
X134877661Y-97332467D01*
X134876770Y-97336489D01*
X134876381Y-97339575D01*
X134876382Y-97342035D01*
X134876657Y-97344180D01*
X134876961Y-97345703D01*
X134877914Y-97348459D01*
X134879976Y-97352672D01*
X134883294Y-97358563D01*
X134888016Y-97366354D01*
X134894288Y-97376268D01*
X134902257Y-97388525D01*
X134912070Y-97403349D01*
X134923875Y-97420961D01*
X134937818Y-97441583D01*
X134954045Y-97465436D01*
X134972705Y-97492743D01*
X134993943Y-97523726D01*
X135017907Y-97558606D01*
X135018620Y-97559643D01*
X135038339Y-97588371D01*
X135057248Y-97616022D01*
X135075151Y-97642303D01*
X135091851Y-97666922D01*
X135107151Y-97689585D01*
X135120857Y-97710000D01*
X135132771Y-97727874D01*
X135142698Y-97742914D01*
X135150441Y-97754828D01*
X135155804Y-97763324D01*
X135158590Y-97768107D01*
X135158951Y-97768972D01*
X135159189Y-97776912D01*
X135158379Y-97782804D01*
X135156445Y-97785722D01*
X135151277Y-97791774D01*
X135142837Y-97801002D01*
X135131086Y-97813444D01*
X135115985Y-97829142D01*
X135097494Y-97848136D01*
X135075575Y-97870466D01*
X135050189Y-97896172D01*
X135021296Y-97925294D01*
X134988858Y-97957873D01*
X134975143Y-97971619D01*
X134949929Y-97996847D01*
X134925621Y-98021107D01*
X134902468Y-98044157D01*
X134880714Y-98065753D01*
X134860608Y-98085654D01*
X134842395Y-98103615D01*
X134826321Y-98119396D01*
X134812634Y-98132752D01*
X134801579Y-98143442D01*
X134793404Y-98151223D01*
X134788354Y-98155851D01*
X134786803Y-98157089D01*
X134776833Y-98160352D01*
X134766612Y-98159312D01*
X134755289Y-98153848D01*
X134753010Y-98152346D01*
X134749136Y-98149695D01*
X134741436Y-98144419D01*
X134730229Y-98136737D01*
X134715836Y-98126870D01*
X134698578Y-98115037D01*
X134678776Y-98101458D01*
X134656749Y-98086352D01*
X134632818Y-98069940D01*
X134607305Y-98052442D01*
X134580529Y-98034077D01*
X134555940Y-98017211D01*
X134528417Y-97998348D01*
X134501938Y-97980232D01*
X134476816Y-97963074D01*
X134453363Y-97947087D01*
X134431892Y-97932482D01*
X134412716Y-97919473D01*
X134396147Y-97908271D01*
X134382498Y-97899088D01*
X134372082Y-97892136D01*
X134365212Y-97887629D01*
X134362297Y-97885825D01*
X134350483Y-97882294D01*
X134344107Y-97882398D01*
X134339402Y-97883917D01*
X134330635Y-97887726D01*
X134318135Y-97893662D01*
X134302231Y-97901562D01*
X134283253Y-97911264D01*
X134261529Y-97922606D01*
X134244559Y-97931596D01*
X134220834Y-97944199D01*
X134201102Y-97954565D01*
X134184942Y-97962860D01*
X134171927Y-97969252D01*
X134161636Y-97973908D01*
X134153644Y-97976995D01*
X134147526Y-97978680D01*
X134142861Y-97979131D01*
X134139223Y-97978513D01*
X134136189Y-97976994D01*
X134133889Y-97975222D01*
X134132309Y-97972374D01*
X134128885Y-97965011D01*
X134123675Y-97953274D01*
X134116737Y-97937305D01*
X134108133Y-97917245D01*
X134097920Y-97893234D01*
X134086159Y-97865413D01*
X134072908Y-97833924D01*
X134058227Y-97798906D01*
X134042175Y-97760501D01*
X134024812Y-97718850D01*
X134006196Y-97674094D01*
X133986388Y-97626374D01*
X133965446Y-97575830D01*
X133948588Y-97535080D01*
X133926707Y-97482154D01*
X133906672Y-97433674D01*
X133888403Y-97389444D01*
X133871821Y-97349263D01*
X133856845Y-97312932D01*
X133843396Y-97280253D01*
X133831395Y-97251026D01*
X133820763Y-97225052D01*
X133811419Y-97202131D01*
X133803285Y-97182066D01*
X133796280Y-97164657D01*
X133790325Y-97149704D01*
X133785342Y-97137009D01*
X133781249Y-97126373D01*
X133777968Y-97117595D01*
X133775419Y-97110478D01*
X133773522Y-97104823D01*
X133772199Y-97100429D01*
X133771369Y-97097099D01*
X133770953Y-97094632D01*
X133770871Y-97092830D01*
X133771045Y-97091494D01*
X133771199Y-97090950D01*
X133773599Y-97085298D01*
X133777242Y-97080243D01*
X133782912Y-97075085D01*
X133791395Y-97069125D01*
X133803475Y-97061663D01*
X133805257Y-97060602D01*
X133817135Y-97053219D01*
X133830052Y-97044680D01*
X133841491Y-97036656D01*
X133842980Y-97035558D01*
X133852649Y-97028368D01*
X133864572Y-97019506D01*
X133876963Y-97010299D01*
X133884475Y-97004719D01*
X133925725Y-96970988D01*
X133963516Y-96933697D01*
X133997598Y-96893121D01*
X134027724Y-96849533D01*
X134033524Y-96840024D01*
X134056301Y-96797314D01*
X134075628Y-96751638D01*
X134091173Y-96703973D01*
X134102607Y-96655300D01*
X134108232Y-96619155D01*
X134109830Y-96600627D01*
X134110694Y-96578600D01*
X134110850Y-96554549D01*
X134110321Y-96529948D01*
X134109129Y-96506271D01*
X134107300Y-96484991D01*
X134105914Y-96474045D01*
X134095747Y-96421737D01*
X134080996Y-96371214D01*
X134061839Y-96322723D01*
X134038456Y-96276508D01*
X134011024Y-96232817D01*
X133979724Y-96191897D01*
X133944732Y-96153992D01*
X133906229Y-96119350D01*
X133864393Y-96088217D01*
X133819403Y-96060840D01*
X133797977Y-96049712D01*
X133750646Y-96028956D01*
X133702462Y-96012984D01*
X133653044Y-96001707D01*
X133602010Y-95995039D01*
X133550000Y-95992891D01*
X133504843Y-95994365D01*
X133462475Y-95998928D01*
X133421562Y-96006788D01*
X133380769Y-96018152D01*
X133373960Y-96020378D01*
X133324705Y-96039370D01*
X133277852Y-96062596D01*
X133233643Y-96089815D01*
X133192319Y-96120788D01*
X133154122Y-96155275D01*
X133119295Y-96193036D01*
X133088078Y-96233832D01*
X133060714Y-96277422D01*
X133037445Y-96323567D01*
X133018512Y-96372026D01*
X133018074Y-96373329D01*
X133006907Y-96410050D01*
X132998666Y-96445126D01*
X132993102Y-96480130D01*
X132989965Y-96516637D01*
X132989004Y-96556084D01*
X132989990Y-96593824D01*
X132993057Y-96628572D01*
X132998476Y-96662030D01*
X133006521Y-96695900D01*
X133016756Y-96729742D01*
X133035700Y-96779412D01*
X133058995Y-96826635D01*
X133086490Y-96871205D01*
X133118038Y-96912917D01*
X133153490Y-96951564D01*
X133192697Y-96986943D01*
X133215524Y-97004723D01*
X133226681Y-97012991D01*
X133237963Y-97021394D01*
X133247838Y-97028788D01*
X133253247Y-97032869D01*
X133261470Y-97038763D01*
X133272332Y-97046081D01*
X133284134Y-97053693D01*
X133290970Y-97057937D01*
X133304169Y-97066145D01*
X133313686Y-97072542D01*
X133320241Y-97077755D01*
X133324550Y-97082410D01*
X133327333Y-97087134D01*
X133328805Y-97090963D01*
X133329075Y-97092144D01*
X133329131Y-97093689D01*
X133328892Y-97095799D01*
X133328280Y-97098672D01*
X133327214Y-97102506D01*
X133325615Y-97107503D01*
X133323404Y-97113860D01*
X133320501Y-97121776D01*
X133316826Y-97131451D01*
X133312300Y-97143084D01*
X133306844Y-97156874D01*
X133300377Y-97173020D01*
X133292821Y-97191722D01*
X133284096Y-97213177D01*
X133274121Y-97237586D01*
X133262819Y-97265148D01*
X133250108Y-97296061D01*
X133235911Y-97330526D01*
X133220146Y-97368740D01*
X133202735Y-97410903D01*
X133183598Y-97457214D01*
X133162655Y-97507873D01*
X133151400Y-97535093D01*
X133129840Y-97587188D01*
X133109326Y-97636673D01*
X133089918Y-97683400D01*
X133071680Y-97727222D01*
X133054674Y-97767990D01*
X133038960Y-97805558D01*
X133024603Y-97839776D01*
X133011664Y-97870499D01*
X133000205Y-97897577D01*
X132990288Y-97920864D01*
X132981976Y-97940211D01*
X132975331Y-97955471D01*
X132970415Y-97966495D01*
X132967290Y-97973138D01*
X132966094Y-97975222D01*
X132959755Y-97978499D01*
X132953425Y-97979623D01*
X132948868Y-97978370D01*
X132940014Y-97974631D01*
X132926924Y-97968434D01*
X132909655Y-97959809D01*
X132888269Y-97948785D01*
X132862823Y-97935390D01*
X132856253Y-97931898D01*
X132836434Y-97921410D01*
X132817737Y-97911640D01*
X132800684Y-97902852D01*
X132785798Y-97895310D01*
X132773603Y-97889279D01*
X132764622Y-97885022D01*
X132759377Y-97882804D01*
X132758575Y-97882569D01*
X132750146Y-97882265D01*
X132742779Y-97883666D01*
X132739584Y-97885468D01*
X132732560Y-97889915D01*
X132722019Y-97896797D01*
X132708271Y-97905905D01*
X132691630Y-97917028D01*
X132672407Y-97929958D01*
X132650914Y-97944484D01*
X132627463Y-97960396D01*
X132602365Y-97977486D01*
X132575933Y-97995542D01*
X132552155Y-98011834D01*
X132524535Y-98030782D01*
X132497794Y-98049127D01*
X132472265Y-98066639D01*
X132448281Y-98083089D01*
X132426177Y-98098249D01*
X132406285Y-98111890D01*
X132388940Y-98123784D01*
X132374475Y-98133700D01*
X132363223Y-98141411D01*
X132355520Y-98146688D01*
X132352143Y-98148997D01*
X132340080Y-98156348D01*
X132330284Y-98160042D01*
X132321756Y-98160249D01*
X132313499Y-98157140D01*
X132311435Y-98155912D01*
X132308636Y-98153496D01*
X132302539Y-98147759D01*
X132293394Y-98138946D01*
X132281448Y-98127303D01*
X132266951Y-98113076D01*
X132250151Y-98096510D01*
X132231297Y-98077851D01*
X132210638Y-98057345D01*
X132188423Y-98035237D01*
X132164900Y-98011772D01*
X132140318Y-97987196D01*
X132123599Y-97970451D01*
X132089864Y-97936593D01*
X132059690Y-97906208D01*
X132033039Y-97879257D01*
X132009874Y-97855702D01*
X131990155Y-97835503D01*
X131973845Y-97818619D01*
X131960905Y-97805013D01*
X131951297Y-97794645D01*
X131944984Y-97787474D01*
X131941926Y-97783463D01*
X131941620Y-97782804D01*
X131940720Y-97774838D01*
X131941035Y-97768972D01*
X131942592Y-97765961D01*
X131946814Y-97759106D01*
X131953504Y-97748700D01*
X131962468Y-97735035D01*
X131973508Y-97718405D01*
X131986428Y-97699102D01*
X132001032Y-97677418D01*
X132017124Y-97653647D01*
X132034507Y-97628081D01*
X132052986Y-97601013D01*
X132072364Y-97572735D01*
X132081360Y-97559643D01*
X132105411Y-97524639D01*
X132126733Y-97493539D01*
X132145470Y-97466121D01*
X132161771Y-97442165D01*
X132175781Y-97421447D01*
X132187648Y-97403747D01*
X132197518Y-97388844D01*
X132205539Y-97376515D01*
X132211856Y-97366539D01*
X132216616Y-97358694D01*
X132219967Y-97352759D01*
X132222054Y-97348513D01*
X132223025Y-97345733D01*
X132223032Y-97345703D01*
X132223436Y-97343591D01*
X132223648Y-97341390D01*
X132223553Y-97338789D01*
X132223037Y-97335475D01*
X132221987Y-97331139D01*
X132220289Y-97325468D01*
X132217829Y-97318151D01*
X132214492Y-97308877D01*
X132210166Y-97297335D01*
X132204736Y-97283213D01*
X132198087Y-97266201D01*
X132190107Y-97245986D01*
X132180682Y-97222258D01*
X132169696Y-97194705D01*
X132157038Y-97163017D01*
X132146905Y-97137669D01*
X132134860Y-97107618D01*
X132123256Y-97078812D01*
X132112239Y-97051606D01*
X132101957Y-97026358D01*
X132092556Y-97003425D01*
X132084185Y-96983164D01*
X132076989Y-96965931D01*
X132071117Y-96952083D01*
X132066716Y-96941977D01*
X132063932Y-96935970D01*
X132063088Y-96934467D01*
X132056838Y-96928611D01*
X132050097Y-96924588D01*
X132046559Y-96923678D01*
X132038425Y-96921925D01*
X132026048Y-96919397D01*
X132009779Y-96916162D01*
X131989970Y-96912289D01*
X131966973Y-96907844D01*
X131941139Y-96902896D01*
X131912820Y-96897512D01*
X131882367Y-96891761D01*
X131850133Y-96885710D01*
X131816468Y-96879427D01*
X131803435Y-96877004D01*
X131769307Y-96870655D01*
X131736465Y-96864523D01*
X131705261Y-96858675D01*
X131676049Y-96853179D01*
X131649181Y-96848101D01*
X131625011Y-96843509D01*
X131603890Y-96839469D01*
X131586171Y-96836049D01*
X131572208Y-96833316D01*
X131562352Y-96831337D01*
X131556958Y-96830179D01*
X131556157Y-96829970D01*
X131548245Y-96825394D01*
X131542943Y-96819389D01*
X131542168Y-96818002D01*
X131541481Y-96816330D01*
X131540879Y-96814080D01*
X131540355Y-96810959D01*
X131539907Y-96806675D01*
X131539529Y-96800936D01*
X131539216Y-96793449D01*
X131538965Y-96783921D01*
X131538771Y-96772061D01*
X131538628Y-96757577D01*
X131538534Y-96740175D01*
X131538482Y-96719563D01*
X131538470Y-96695449D01*
X131538491Y-96667540D01*
X131538541Y-96635545D01*
X131538617Y-96599170D01*
X131538713Y-96558123D01*
X131538737Y-96548246D01*
X131539376Y-96285018D01*
X131545371Y-96278637D01*
X131546249Y-96277558D01*
X131546863Y-96276630D01*
X131547492Y-96275794D01*
X131548412Y-96274993D01*
X131549901Y-96274170D01*
X131552235Y-96273267D01*
X131555692Y-96272228D01*
X131560550Y-96270993D01*
X131567085Y-96269507D01*
X131575575Y-96267712D01*
X131586297Y-96265550D01*
X131599528Y-96262964D01*
X131615546Y-96259897D01*
X131634627Y-96256290D01*
X131657049Y-96252087D01*
X131683089Y-96247231D01*
X131713025Y-96241663D01*
X131747133Y-96235327D01*
X131785691Y-96228165D01*
X131819033Y-96221969D01*
X131859894Y-96214373D01*
X131896104Y-96207633D01*
X131927952Y-96201678D01*
X131955730Y-96196438D01*
X131979729Y-96191841D01*
X132000240Y-96187816D01*
X132017555Y-96184294D01*
X132031964Y-96181202D01*
X132043759Y-96178470D01*
X132053232Y-96176027D01*
X132060672Y-96173802D01*
X132066372Y-96171724D01*
X132070622Y-96169723D01*
X132073714Y-96167728D01*
X132075938Y-96165667D01*
X132077587Y-96163470D01*
X132078951Y-96161066D01*
X132080321Y-96158384D01*
X132080328Y-96158370D01*
X132081932Y-96154878D01*
X132085354Y-96147134D01*
X132090431Y-96135510D01*
X132097002Y-96120381D01*
X132104907Y-96102119D01*
X132113985Y-96081096D01*
X132124073Y-96057685D01*
X132135012Y-96032259D01*
X132146640Y-96005190D01*
X132158795Y-95976853D01*
X132160765Y-95972256D01*
X132175488Y-95937931D01*
X132188358Y-95907914D01*
X132199474Y-95881878D01*
X132208931Y-95859494D01*
X132216826Y-95840435D01*
X132223256Y-95824371D01*
X132228317Y-95810975D01*
X132232107Y-95799918D01*
X132234721Y-95790873D01*
X132236256Y-95783511D01*
X132236809Y-95777503D01*
X132236477Y-95772522D01*
X132235356Y-95768240D01*
X132233543Y-95764328D01*
X132231134Y-95760457D01*
X132228226Y-95756301D01*
X132225494Y-95752386D01*
X132222369Y-95747811D01*
X132216618Y-95739410D01*
X132208463Y-95727505D01*
X132198122Y-95712415D01*
X132185816Y-95694463D01*
X132171766Y-95673969D01*
X132156191Y-95651255D01*
X132139312Y-95626642D01*
X132121348Y-95600451D01*
X132102521Y-95573003D01*
X132083050Y-95544620D01*
X132080030Y-95540217D01*
X132060707Y-95512039D01*
X132042160Y-95484966D01*
X132024592Y-95459298D01*
X132008206Y-95435329D01*
X131993202Y-95413359D01*
X131979785Y-95393683D01*
X131968157Y-95376599D01*
X131958520Y-95362404D01*
X131951077Y-95351394D01*
X131946030Y-95343867D01*
X131943582Y-95340120D01*
X131943407Y-95339823D01*
X131941443Y-95333596D01*
X131940507Y-95325669D01*
X131940495Y-95324753D01*
X131940576Y-95323141D01*
X131940955Y-95321404D01*
X131941831Y-95319332D01*
X131943405Y-95316714D01*
X131945877Y-95313339D01*
X131949448Y-95308996D01*
X131954318Y-95303476D01*
X131960686Y-95296567D01*
X131968754Y-95288059D01*
X131978723Y-95277740D01*
X131990791Y-95265402D01*
X132005160Y-95250832D01*
X132022031Y-95233820D01*
X132041602Y-95214155D01*
X132064076Y-95191628D01*
X132089652Y-95166027D01*
X132118530Y-95137141D01*
X132127241Y-95128429D01*
X132313988Y-94941683D01*
X132324972Y-94941683D01*
X132326369Y-94941594D01*
X132327491Y-94941417D01*
X132328543Y-94941286D01*
X132329727Y-94941335D01*
X132331247Y-94941700D01*
X132333305Y-94942514D01*
X132336105Y-94943912D01*
X132339851Y-94946028D01*
X132344744Y-94948997D01*
X132350989Y-94952953D01*
X132358789Y-94958030D01*
X132368346Y-94964364D01*
X132379864Y-94972087D01*
X132393546Y-94981336D01*
X132409595Y-94992243D01*
X132428215Y-95004944D01*
X132449608Y-95019574D01*
X132473978Y-95036265D01*
X132501528Y-95055153D01*
X132532460Y-95076373D01*
X132566979Y-95100058D01*
X132605287Y-95126344D01*
X132638033Y-95148809D01*
X132665331Y-95167530D01*
X132688804Y-95183605D01*
X132708772Y-95197235D01*
X132725556Y-95208622D01*
X132739475Y-95217967D01*
X132750851Y-95225472D01*
X132760003Y-95231339D01*
X132767253Y-95235769D01*
X132772919Y-95238963D01*
X132777323Y-95241124D01*
X132780786Y-95242454D01*
X132783627Y-95243152D01*
X132786166Y-95243422D01*
X132788451Y-95243465D01*
X132791406Y-95243229D01*
X132795398Y-95242441D01*
X132800742Y-95240979D01*
X132807755Y-95238723D01*
X132816754Y-95235553D01*
X132828054Y-95231347D01*
X132841972Y-95225985D01*
X132858824Y-95219345D01*
X132878927Y-95211308D01*
X132902596Y-95201752D01*
X132930148Y-95190556D01*
X132961900Y-95177600D01*
X132976141Y-95171777D01*
X133004446Y-95160172D01*
X133031495Y-95149031D01*
X133056912Y-95138511D01*
X133080319Y-95128772D01*
X133101341Y-95119970D01*
X133119601Y-95112266D01*
X133134722Y-95105816D01*
X133146327Y-95100779D01*
X133154041Y-95097313D01*
X133157486Y-95095577D01*
X133157527Y-95095547D01*
X133159785Y-95093863D01*
X133161830Y-95092155D01*
X133163729Y-95090136D01*
X133165547Y-95087517D01*
X133167351Y-95084014D01*
X133169207Y-95079338D01*
X133171181Y-95073203D01*
X133173339Y-95065322D01*
X133175747Y-95055407D01*
X133178471Y-95043173D01*
X133181577Y-95028331D01*
X133185131Y-95010596D01*
X133189200Y-94989680D01*
X133193849Y-94965296D01*
X133199144Y-94937158D01*
X133205152Y-94904977D01*
X133211939Y-94868468D01*
X133219570Y-94827344D01*
X133220771Y-94820869D01*
X133227357Y-94785447D01*
X133233728Y-94751329D01*
X133239819Y-94718850D01*
X133245567Y-94688348D01*
X133250907Y-94660159D01*
X133255774Y-94634620D01*
X133260105Y-94612068D01*
X133263834Y-94592838D01*
X133266898Y-94577269D01*
X133269233Y-94565695D01*
X133270773Y-94558455D01*
X133271400Y-94555984D01*
X133275549Y-94549638D01*
X133281701Y-94544214D01*
X133281968Y-94544048D01*
X133283368Y-94543288D01*
X133285123Y-94542614D01*
X133287526Y-94542020D01*
X133290872Y-94541503D01*
X133295454Y-94541056D01*
X133301565Y-94540675D01*
X133309501Y-94540354D01*
X133319553Y-94540089D01*
X133332017Y-94539873D01*
X133347185Y-94539702D01*
X133365351Y-94539571D01*
X133386810Y-94539474D01*
X133411855Y-94539406D01*
X133440779Y-94539363D01*
X133473876Y-94539338D01*
X133511441Y-94539328D01*
X133550000Y-94539325D01*
X133591912Y-94539328D01*
X133591912Y-94539328D01*
G37*
X133591912Y-94539328D02*
X133629087Y-94539340D01*
X133661821Y-94539366D01*
X133690406Y-94539411D01*
X133715137Y-94539481D01*
X133736306Y-94539581D01*
X133754208Y-94539715D01*
X133769136Y-94539889D01*
X133781384Y-94540109D01*
X133791247Y-94540379D01*
X133799017Y-94540705D01*
X133804988Y-94541092D01*
X133809454Y-94541544D01*
X133812709Y-94542067D01*
X133815046Y-94542667D01*
X133816760Y-94543349D01*
X133818032Y-94544048D01*
X133824217Y-94549369D01*
X133828517Y-94555738D01*
X133828618Y-94555984D01*
X133829468Y-94559432D01*
X133831162Y-94567481D01*
X133833633Y-94579785D01*
X133836816Y-94595999D01*
X133840644Y-94615777D01*
X133845052Y-94638772D01*
X133849972Y-94664640D01*
X133855339Y-94693034D01*
X133861087Y-94723609D01*
X133867150Y-94756019D01*
X133873461Y-94789918D01*
X133876888Y-94808396D01*
X133883321Y-94843102D01*
X133889535Y-94876614D01*
X133895466Y-94908574D01*
X133901046Y-94938625D01*
X133906209Y-94966411D01*
X133910889Y-94991572D01*
X133915018Y-95013753D01*
X133918531Y-95032596D01*
X133921362Y-95047743D01*
X133923443Y-95058837D01*
X133924708Y-95065522D01*
X133925013Y-95067096D01*
X133925885Y-95071591D01*
X133926785Y-95075572D01*
X133928016Y-95079199D01*
X133929879Y-95082631D01*
X133932678Y-95086027D01*
X133936715Y-95089546D01*
X133942292Y-95093349D01*
X133949712Y-95097593D01*
X133959277Y-95102440D01*
X133971290Y-95108046D01*
X133986054Y-95114573D01*
X134003871Y-95122180D01*
X134025043Y-95131025D01*
X134049873Y-95141268D01*
X134078663Y-95153068D01*
X134111716Y-95166586D01*
X134121628Y-95170639D01*
X134156076Y-95184740D01*
X134186188Y-95197060D01*
X134212294Y-95207692D01*
X134234727Y-95216727D01*
X134253816Y-95224258D01*
X134269894Y-95230378D01*
X134283292Y-95235177D01*
X134294341Y-95238748D01*
X134303372Y-95241184D01*
X134310717Y-95242576D01*
X134316707Y-95243017D01*
X134321673Y-95242599D01*
X134325947Y-95241413D01*
X134329860Y-95239553D01*
X134333743Y-95237110D01*
X134337927Y-95234176D01*
X134341390Y-95231759D01*
X134345895Y-95228675D01*
X134354234Y-95222960D01*
X134366094Y-95214828D01*
X134381161Y-95204496D01*
X134399123Y-95192176D01*
X134419666Y-95178085D01*
X134442477Y-95162437D01*
X134467244Y-95145447D01*
X134493652Y-95127329D01*
X134521388Y-95108299D01*
X134550140Y-95088571D01*
X134561367Y-95080867D01*
X134594967Y-95057819D01*
X134624678Y-95037457D01*
X134650756Y-95019616D01*
X134673454Y-95004130D01*
X134693028Y-94990833D01*
X134709732Y-94979561D01*
X134723819Y-94970146D01*
X134735546Y-94962424D01*
X134745166Y-94956229D01*
X134752934Y-94951394D01*
X134759104Y-94947754D01*
X134763931Y-94945144D01*
X134767669Y-94943398D01*
X134770573Y-94942350D01*
X134772897Y-94941833D01*
X134774895Y-94941684D01*
X134775110Y-94941683D01*
X134786011Y-94941683D01*
X134972758Y-95128429D01*
X135002582Y-95158256D01*
X135029048Y-95184738D01*
X135052358Y-95208086D01*
X135072712Y-95228513D01*
X135090310Y-95246229D01*
X135105352Y-95261445D01*
X135118040Y-95274372D01*
X135128573Y-95285223D01*
X135137152Y-95294207D01*
X135143977Y-95301537D01*
X135149249Y-95307423D01*
X135153168Y-95312076D01*
X135155935Y-95315708D01*
X135157749Y-95318530D01*
X135158812Y-95320754D01*
X135159323Y-95322589D01*
X135159484Y-95324249D01*
X135159495Y-95325217D01*
X135158249Y-95334021D01*
X135155215Y-95342217D01*
X135154773Y-95342985D01*
X135152686Y-95346153D01*
X135147958Y-95353162D01*
X135140798Y-95363709D01*
X135131414Y-95377491D01*
X135120012Y-95394203D01*
X135106801Y-95413542D01*
X135091987Y-95435204D01*
X135075780Y-95458884D01*
X135058385Y-95484279D01*
X135040012Y-95511086D01*
X135020866Y-95538999D01*
X135018179Y-95542916D01*
X134998759Y-95571219D01*
X134979948Y-95598639D01*
X134961966Y-95624850D01*
X134945037Y-95649529D01*
X134929383Y-95672353D01*
X134915226Y-95692997D01*
X134902787Y-95711137D01*
X134892289Y-95726450D01*
X134883954Y-95738611D01*
X134878005Y-95747297D01*
X134874663Y-95752184D01*
X134874525Y-95752386D01*
X134871271Y-95757029D01*
X134868436Y-95761113D01*
X134866117Y-95764966D01*
X134864410Y-95768916D01*
X134863412Y-95773290D01*
X134863218Y-95778418D01*
X134863927Y-95784628D01*
X134865635Y-95792247D01*
X134868437Y-95801604D01*
X134872431Y-95813027D01*
X134877713Y-95826845D01*
X134884381Y-95843385D01*
X134892529Y-95862975D01*
X134902256Y-95885945D01*
X134913657Y-95912621D01*
X134926830Y-95943333D01*
X134939234Y-95972256D01*
X134951459Y-96000761D01*
X134963181Y-96028056D01*
X134974240Y-96053768D01*
X134984475Y-96077524D01*
X134993723Y-96098952D01*
X135001825Y-96117678D01*
X135008620Y-96133330D01*
X135013945Y-96145536D01*
X135017640Y-96153921D01*
X135019544Y-96158114D01*
X135019671Y-96158370D01*
X135024634Y-96165307D01*
X135031041Y-96171298D01*
X135031084Y-96171329D01*
X135032257Y-96172180D01*
X135033418Y-96172962D01*
X135034835Y-96173728D01*
X135036774Y-96174531D01*
X135039505Y-96175425D01*
X135043294Y-96176463D01*
X135048410Y-96177699D01*
X135055119Y-96179185D01*
X135063691Y-96180974D01*
X135074392Y-96183121D01*
X135087490Y-96185678D01*
X135103253Y-96188699D01*
X135121948Y-96192236D01*
X135143845Y-96196344D01*
X135169209Y-96201075D01*
X135198308Y-96206483D01*
X135231412Y-96212621D01*
X135268786Y-96219543D01*
X135310700Y-96227300D01*
X135334287Y-96231666D01*
X135364902Y-96237339D01*
X135394300Y-96242800D01*
X135422076Y-96247972D01*
X135447820Y-96252779D01*
X135471124Y-96257143D01*
X135491580Y-96260989D01*
X135508782Y-96264240D01*
X135522319Y-96266819D01*
X135531786Y-96268650D01*
X135536773Y-96269656D01*
X135537099Y-96269729D01*
X135545862Y-96272846D01*
X135553200Y-96277326D01*
X135554703Y-96278716D01*
X135560623Y-96285018D01*
X135561262Y-96548246D01*
X135561362Y-96590381D01*
X135561443Y-96627778D01*
X135561500Y-96660730D01*
X135561528Y-96689530D01*
X135561523Y-96714469D01*
X135561481Y-96735841D01*
X135561396Y-96753938D01*
X135561265Y-96769052D01*
X135561083Y-96781475D01*
X135560845Y-96791500D01*
X135560546Y-96799419D01*
X135560183Y-96805525D01*
X135559751Y-96810110D01*
X135559245Y-96813466D01*
X135558660Y-96815886D01*
X135557993Y-96817663D01*
X135557238Y-96819088D01*
X135557056Y-96819389D01*
X135550775Y-96826182D01*
X135543843Y-96830019D01*
X135539972Y-96830937D01*
X135531590Y-96832681D01*
X135519132Y-96835167D01*
X135503035Y-96838312D01*
X135483733Y-96842032D01*
X135461662Y-96846243D01*
X135437258Y-96850861D01*
X135410957Y-96855803D01*
X135383193Y-96860984D01*
X135372010Y-96863062D01*
X135326078Y-96871585D01*
X135284833Y-96879241D01*
X135248017Y-96886081D01*
X135215370Y-96892152D01*
X135186635Y-96897503D01*
X135161553Y-96902184D01*
X135139865Y-96906244D01*
X135121313Y-96909731D01*
X135105637Y-96912695D01*
X135092580Y-96915184D01*
X135081883Y-96917248D01*
X135073287Y-96918935D01*
X135066533Y-96920294D01*
X135061364Y-96921375D01*
X135057520Y-96922226D01*
X135054743Y-96922896D01*
X135052774Y-96923435D01*
X135052077Y-96923649D01*
X135044794Y-96927446D01*
X135038208Y-96933110D01*
X135037927Y-96933437D01*
X135036055Y-96936873D01*
X135032476Y-96944645D01*
X135027329Y-96956416D01*
X135020757Y-96971844D01*
X135012901Y-96990589D01*
X135003901Y-97012313D01*
X134993899Y-97036674D01*
X134983037Y-97063333D01*
X134971454Y-97091951D01*
X134959294Y-97122186D01*
X134953193Y-97137423D01*
X134939259Y-97172282D01*
X134927081Y-97202781D01*
X134916543Y-97229233D01*
X134907533Y-97251948D01*
X134899936Y-97271239D01*
X134893639Y-97287415D01*
X134888527Y-97300787D01*
X134884487Y-97311668D01*
X134881406Y-97320367D01*
X134879168Y-97327196D01*
X134877661Y-97332467D01*
X134876770Y-97336489D01*
X134876381Y-97339575D01*
X134876382Y-97342035D01*
X134876657Y-97344180D01*
X134876961Y-97345703D01*
X134877914Y-97348459D01*
X134879976Y-97352672D01*
X134883294Y-97358563D01*
X134888016Y-97366354D01*
X134894288Y-97376268D01*
X134902257Y-97388525D01*
X134912070Y-97403349D01*
X134923875Y-97420961D01*
X134937818Y-97441583D01*
X134954045Y-97465436D01*
X134972705Y-97492743D01*
X134993943Y-97523726D01*
X135017907Y-97558606D01*
X135018620Y-97559643D01*
X135038339Y-97588371D01*
X135057248Y-97616022D01*
X135075151Y-97642303D01*
X135091851Y-97666922D01*
X135107151Y-97689585D01*
X135120857Y-97710000D01*
X135132771Y-97727874D01*
X135142698Y-97742914D01*
X135150441Y-97754828D01*
X135155804Y-97763324D01*
X135158590Y-97768107D01*
X135158951Y-97768972D01*
X135159189Y-97776912D01*
X135158379Y-97782804D01*
X135156445Y-97785722D01*
X135151277Y-97791774D01*
X135142837Y-97801002D01*
X135131086Y-97813444D01*
X135115985Y-97829142D01*
X135097494Y-97848136D01*
X135075575Y-97870466D01*
X135050189Y-97896172D01*
X135021296Y-97925294D01*
X134988858Y-97957873D01*
X134975143Y-97971619D01*
X134949929Y-97996847D01*
X134925621Y-98021107D01*
X134902468Y-98044157D01*
X134880714Y-98065753D01*
X134860608Y-98085654D01*
X134842395Y-98103615D01*
X134826321Y-98119396D01*
X134812634Y-98132752D01*
X134801579Y-98143442D01*
X134793404Y-98151223D01*
X134788354Y-98155851D01*
X134786803Y-98157089D01*
X134776833Y-98160352D01*
X134766612Y-98159312D01*
X134755289Y-98153848D01*
X134753010Y-98152346D01*
X134749136Y-98149695D01*
X134741436Y-98144419D01*
X134730229Y-98136737D01*
X134715836Y-98126870D01*
X134698578Y-98115037D01*
X134678776Y-98101458D01*
X134656749Y-98086352D01*
X134632818Y-98069940D01*
X134607305Y-98052442D01*
X134580529Y-98034077D01*
X134555940Y-98017211D01*
X134528417Y-97998348D01*
X134501938Y-97980232D01*
X134476816Y-97963074D01*
X134453363Y-97947087D01*
X134431892Y-97932482D01*
X134412716Y-97919473D01*
X134396147Y-97908271D01*
X134382498Y-97899088D01*
X134372082Y-97892136D01*
X134365212Y-97887629D01*
X134362297Y-97885825D01*
X134350483Y-97882294D01*
X134344107Y-97882398D01*
X134339402Y-97883917D01*
X134330635Y-97887726D01*
X134318135Y-97893662D01*
X134302231Y-97901562D01*
X134283253Y-97911264D01*
X134261529Y-97922606D01*
X134244559Y-97931596D01*
X134220834Y-97944199D01*
X134201102Y-97954565D01*
X134184942Y-97962860D01*
X134171927Y-97969252D01*
X134161636Y-97973908D01*
X134153644Y-97976995D01*
X134147526Y-97978680D01*
X134142861Y-97979131D01*
X134139223Y-97978513D01*
X134136189Y-97976994D01*
X134133889Y-97975222D01*
X134132309Y-97972374D01*
X134128885Y-97965011D01*
X134123675Y-97953274D01*
X134116737Y-97937305D01*
X134108133Y-97917245D01*
X134097920Y-97893234D01*
X134086159Y-97865413D01*
X134072908Y-97833924D01*
X134058227Y-97798906D01*
X134042175Y-97760501D01*
X134024812Y-97718850D01*
X134006196Y-97674094D01*
X133986388Y-97626374D01*
X133965446Y-97575830D01*
X133948588Y-97535080D01*
X133926707Y-97482154D01*
X133906672Y-97433674D01*
X133888403Y-97389444D01*
X133871821Y-97349263D01*
X133856845Y-97312932D01*
X133843396Y-97280253D01*
X133831395Y-97251026D01*
X133820763Y-97225052D01*
X133811419Y-97202131D01*
X133803285Y-97182066D01*
X133796280Y-97164657D01*
X133790325Y-97149704D01*
X133785342Y-97137009D01*
X133781249Y-97126373D01*
X133777968Y-97117595D01*
X133775419Y-97110478D01*
X133773522Y-97104823D01*
X133772199Y-97100429D01*
X133771369Y-97097099D01*
X133770953Y-97094632D01*
X133770871Y-97092830D01*
X133771045Y-97091494D01*
X133771199Y-97090950D01*
X133773599Y-97085298D01*
X133777242Y-97080243D01*
X133782912Y-97075085D01*
X133791395Y-97069125D01*
X133803475Y-97061663D01*
X133805257Y-97060602D01*
X133817135Y-97053219D01*
X133830052Y-97044680D01*
X133841491Y-97036656D01*
X133842980Y-97035558D01*
X133852649Y-97028368D01*
X133864572Y-97019506D01*
X133876963Y-97010299D01*
X133884475Y-97004719D01*
X133925725Y-96970988D01*
X133963516Y-96933697D01*
X133997598Y-96893121D01*
X134027724Y-96849533D01*
X134033524Y-96840024D01*
X134056301Y-96797314D01*
X134075628Y-96751638D01*
X134091173Y-96703973D01*
X134102607Y-96655300D01*
X134108232Y-96619155D01*
X134109830Y-96600627D01*
X134110694Y-96578600D01*
X134110850Y-96554549D01*
X134110321Y-96529948D01*
X134109129Y-96506271D01*
X134107300Y-96484991D01*
X134105914Y-96474045D01*
X134095747Y-96421737D01*
X134080996Y-96371214D01*
X134061839Y-96322723D01*
X134038456Y-96276508D01*
X134011024Y-96232817D01*
X133979724Y-96191897D01*
X133944732Y-96153992D01*
X133906229Y-96119350D01*
X133864393Y-96088217D01*
X133819403Y-96060840D01*
X133797977Y-96049712D01*
X133750646Y-96028956D01*
X133702462Y-96012984D01*
X133653044Y-96001707D01*
X133602010Y-95995039D01*
X133550000Y-95992891D01*
X133504843Y-95994365D01*
X133462475Y-95998928D01*
X133421562Y-96006788D01*
X133380769Y-96018152D01*
X133373960Y-96020378D01*
X133324705Y-96039370D01*
X133277852Y-96062596D01*
X133233643Y-96089815D01*
X133192319Y-96120788D01*
X133154122Y-96155275D01*
X133119295Y-96193036D01*
X133088078Y-96233832D01*
X133060714Y-96277422D01*
X133037445Y-96323567D01*
X133018512Y-96372026D01*
X133018074Y-96373329D01*
X133006907Y-96410050D01*
X132998666Y-96445126D01*
X132993102Y-96480130D01*
X132989965Y-96516637D01*
X132989004Y-96556084D01*
X132989990Y-96593824D01*
X132993057Y-96628572D01*
X132998476Y-96662030D01*
X133006521Y-96695900D01*
X133016756Y-96729742D01*
X133035700Y-96779412D01*
X133058995Y-96826635D01*
X133086490Y-96871205D01*
X133118038Y-96912917D01*
X133153490Y-96951564D01*
X133192697Y-96986943D01*
X133215524Y-97004723D01*
X133226681Y-97012991D01*
X133237963Y-97021394D01*
X133247838Y-97028788D01*
X133253247Y-97032869D01*
X133261470Y-97038763D01*
X133272332Y-97046081D01*
X133284134Y-97053693D01*
X133290970Y-97057937D01*
X133304169Y-97066145D01*
X133313686Y-97072542D01*
X133320241Y-97077755D01*
X133324550Y-97082410D01*
X133327333Y-97087134D01*
X133328805Y-97090963D01*
X133329075Y-97092144D01*
X133329131Y-97093689D01*
X133328892Y-97095799D01*
X133328280Y-97098672D01*
X133327214Y-97102506D01*
X133325615Y-97107503D01*
X133323404Y-97113860D01*
X133320501Y-97121776D01*
X133316826Y-97131451D01*
X133312300Y-97143084D01*
X133306844Y-97156874D01*
X133300377Y-97173020D01*
X133292821Y-97191722D01*
X133284096Y-97213177D01*
X133274121Y-97237586D01*
X133262819Y-97265148D01*
X133250108Y-97296061D01*
X133235911Y-97330526D01*
X133220146Y-97368740D01*
X133202735Y-97410903D01*
X133183598Y-97457214D01*
X133162655Y-97507873D01*
X133151400Y-97535093D01*
X133129840Y-97587188D01*
X133109326Y-97636673D01*
X133089918Y-97683400D01*
X133071680Y-97727222D01*
X133054674Y-97767990D01*
X133038960Y-97805558D01*
X133024603Y-97839776D01*
X133011664Y-97870499D01*
X133000205Y-97897577D01*
X132990288Y-97920864D01*
X132981976Y-97940211D01*
X132975331Y-97955471D01*
X132970415Y-97966495D01*
X132967290Y-97973138D01*
X132966094Y-97975222D01*
X132959755Y-97978499D01*
X132953425Y-97979623D01*
X132948868Y-97978370D01*
X132940014Y-97974631D01*
X132926924Y-97968434D01*
X132909655Y-97959809D01*
X132888269Y-97948785D01*
X132862823Y-97935390D01*
X132856253Y-97931898D01*
X132836434Y-97921410D01*
X132817737Y-97911640D01*
X132800684Y-97902852D01*
X132785798Y-97895310D01*
X132773603Y-97889279D01*
X132764622Y-97885022D01*
X132759377Y-97882804D01*
X132758575Y-97882569D01*
X132750146Y-97882265D01*
X132742779Y-97883666D01*
X132739584Y-97885468D01*
X132732560Y-97889915D01*
X132722019Y-97896797D01*
X132708271Y-97905905D01*
X132691630Y-97917028D01*
X132672407Y-97929958D01*
X132650914Y-97944484D01*
X132627463Y-97960396D01*
X132602365Y-97977486D01*
X132575933Y-97995542D01*
X132552155Y-98011834D01*
X132524535Y-98030782D01*
X132497794Y-98049127D01*
X132472265Y-98066639D01*
X132448281Y-98083089D01*
X132426177Y-98098249D01*
X132406285Y-98111890D01*
X132388940Y-98123784D01*
X132374475Y-98133700D01*
X132363223Y-98141411D01*
X132355520Y-98146688D01*
X132352143Y-98148997D01*
X132340080Y-98156348D01*
X132330284Y-98160042D01*
X132321756Y-98160249D01*
X132313499Y-98157140D01*
X132311435Y-98155912D01*
X132308636Y-98153496D01*
X132302539Y-98147759D01*
X132293394Y-98138946D01*
X132281448Y-98127303D01*
X132266951Y-98113076D01*
X132250151Y-98096510D01*
X132231297Y-98077851D01*
X132210638Y-98057345D01*
X132188423Y-98035237D01*
X132164900Y-98011772D01*
X132140318Y-97987196D01*
X132123599Y-97970451D01*
X132089864Y-97936593D01*
X132059690Y-97906208D01*
X132033039Y-97879257D01*
X132009874Y-97855702D01*
X131990155Y-97835503D01*
X131973845Y-97818619D01*
X131960905Y-97805013D01*
X131951297Y-97794645D01*
X131944984Y-97787474D01*
X131941926Y-97783463D01*
X131941620Y-97782804D01*
X131940720Y-97774838D01*
X131941035Y-97768972D01*
X131942592Y-97765961D01*
X131946814Y-97759106D01*
X131953504Y-97748700D01*
X131962468Y-97735035D01*
X131973508Y-97718405D01*
X131986428Y-97699102D01*
X132001032Y-97677418D01*
X132017124Y-97653647D01*
X132034507Y-97628081D01*
X132052986Y-97601013D01*
X132072364Y-97572735D01*
X132081360Y-97559643D01*
X132105411Y-97524639D01*
X132126733Y-97493539D01*
X132145470Y-97466121D01*
X132161771Y-97442165D01*
X132175781Y-97421447D01*
X132187648Y-97403747D01*
X132197518Y-97388844D01*
X132205539Y-97376515D01*
X132211856Y-97366539D01*
X132216616Y-97358694D01*
X132219967Y-97352759D01*
X132222054Y-97348513D01*
X132223025Y-97345733D01*
X132223032Y-97345703D01*
X132223436Y-97343591D01*
X132223648Y-97341390D01*
X132223553Y-97338789D01*
X132223037Y-97335475D01*
X132221987Y-97331139D01*
X132220289Y-97325468D01*
X132217829Y-97318151D01*
X132214492Y-97308877D01*
X132210166Y-97297335D01*
X132204736Y-97283213D01*
X132198087Y-97266201D01*
X132190107Y-97245986D01*
X132180682Y-97222258D01*
X132169696Y-97194705D01*
X132157038Y-97163017D01*
X132146905Y-97137669D01*
X132134860Y-97107618D01*
X132123256Y-97078812D01*
X132112239Y-97051606D01*
X132101957Y-97026358D01*
X132092556Y-97003425D01*
X132084185Y-96983164D01*
X132076989Y-96965931D01*
X132071117Y-96952083D01*
X132066716Y-96941977D01*
X132063932Y-96935970D01*
X132063088Y-96934467D01*
X132056838Y-96928611D01*
X132050097Y-96924588D01*
X132046559Y-96923678D01*
X132038425Y-96921925D01*
X132026048Y-96919397D01*
X132009779Y-96916162D01*
X131989970Y-96912289D01*
X131966973Y-96907844D01*
X131941139Y-96902896D01*
X131912820Y-96897512D01*
X131882367Y-96891761D01*
X131850133Y-96885710D01*
X131816468Y-96879427D01*
X131803435Y-96877004D01*
X131769307Y-96870655D01*
X131736465Y-96864523D01*
X131705261Y-96858675D01*
X131676049Y-96853179D01*
X131649181Y-96848101D01*
X131625011Y-96843509D01*
X131603890Y-96839469D01*
X131586171Y-96836049D01*
X131572208Y-96833316D01*
X131562352Y-96831337D01*
X131556958Y-96830179D01*
X131556157Y-96829970D01*
X131548245Y-96825394D01*
X131542943Y-96819389D01*
X131542168Y-96818002D01*
X131541481Y-96816330D01*
X131540879Y-96814080D01*
X131540355Y-96810959D01*
X131539907Y-96806675D01*
X131539529Y-96800936D01*
X131539216Y-96793449D01*
X131538965Y-96783921D01*
X131538771Y-96772061D01*
X131538628Y-96757577D01*
X131538534Y-96740175D01*
X131538482Y-96719563D01*
X131538470Y-96695449D01*
X131538491Y-96667540D01*
X131538541Y-96635545D01*
X131538617Y-96599170D01*
X131538713Y-96558123D01*
X131538737Y-96548246D01*
X131539376Y-96285018D01*
X131545371Y-96278637D01*
X131546249Y-96277558D01*
X131546863Y-96276630D01*
X131547492Y-96275794D01*
X131548412Y-96274993D01*
X131549901Y-96274170D01*
X131552235Y-96273267D01*
X131555692Y-96272228D01*
X131560550Y-96270993D01*
X131567085Y-96269507D01*
X131575575Y-96267712D01*
X131586297Y-96265550D01*
X131599528Y-96262964D01*
X131615546Y-96259897D01*
X131634627Y-96256290D01*
X131657049Y-96252087D01*
X131683089Y-96247231D01*
X131713025Y-96241663D01*
X131747133Y-96235327D01*
X131785691Y-96228165D01*
X131819033Y-96221969D01*
X131859894Y-96214373D01*
X131896104Y-96207633D01*
X131927952Y-96201678D01*
X131955730Y-96196438D01*
X131979729Y-96191841D01*
X132000240Y-96187816D01*
X132017555Y-96184294D01*
X132031964Y-96181202D01*
X132043759Y-96178470D01*
X132053232Y-96176027D01*
X132060672Y-96173802D01*
X132066372Y-96171724D01*
X132070622Y-96169723D01*
X132073714Y-96167728D01*
X132075938Y-96165667D01*
X132077587Y-96163470D01*
X132078951Y-96161066D01*
X132080321Y-96158384D01*
X132080328Y-96158370D01*
X132081932Y-96154878D01*
X132085354Y-96147134D01*
X132090431Y-96135510D01*
X132097002Y-96120381D01*
X132104907Y-96102119D01*
X132113985Y-96081096D01*
X132124073Y-96057685D01*
X132135012Y-96032259D01*
X132146640Y-96005190D01*
X132158795Y-95976853D01*
X132160765Y-95972256D01*
X132175488Y-95937931D01*
X132188358Y-95907914D01*
X132199474Y-95881878D01*
X132208931Y-95859494D01*
X132216826Y-95840435D01*
X132223256Y-95824371D01*
X132228317Y-95810975D01*
X132232107Y-95799918D01*
X132234721Y-95790873D01*
X132236256Y-95783511D01*
X132236809Y-95777503D01*
X132236477Y-95772522D01*
X132235356Y-95768240D01*
X132233543Y-95764328D01*
X132231134Y-95760457D01*
X132228226Y-95756301D01*
X132225494Y-95752386D01*
X132222369Y-95747811D01*
X132216618Y-95739410D01*
X132208463Y-95727505D01*
X132198122Y-95712415D01*
X132185816Y-95694463D01*
X132171766Y-95673969D01*
X132156191Y-95651255D01*
X132139312Y-95626642D01*
X132121348Y-95600451D01*
X132102521Y-95573003D01*
X132083050Y-95544620D01*
X132080030Y-95540217D01*
X132060707Y-95512039D01*
X132042160Y-95484966D01*
X132024592Y-95459298D01*
X132008206Y-95435329D01*
X131993202Y-95413359D01*
X131979785Y-95393683D01*
X131968157Y-95376599D01*
X131958520Y-95362404D01*
X131951077Y-95351394D01*
X131946030Y-95343867D01*
X131943582Y-95340120D01*
X131943407Y-95339823D01*
X131941443Y-95333596D01*
X131940507Y-95325669D01*
X131940495Y-95324753D01*
X131940576Y-95323141D01*
X131940955Y-95321404D01*
X131941831Y-95319332D01*
X131943405Y-95316714D01*
X131945877Y-95313339D01*
X131949448Y-95308996D01*
X131954318Y-95303476D01*
X131960686Y-95296567D01*
X131968754Y-95288059D01*
X131978723Y-95277740D01*
X131990791Y-95265402D01*
X132005160Y-95250832D01*
X132022031Y-95233820D01*
X132041602Y-95214155D01*
X132064076Y-95191628D01*
X132089652Y-95166027D01*
X132118530Y-95137141D01*
X132127241Y-95128429D01*
X132313988Y-94941683D01*
X132324972Y-94941683D01*
X132326369Y-94941594D01*
X132327491Y-94941417D01*
X132328543Y-94941286D01*
X132329727Y-94941335D01*
X132331247Y-94941700D01*
X132333305Y-94942514D01*
X132336105Y-94943912D01*
X132339851Y-94946028D01*
X132344744Y-94948997D01*
X132350989Y-94952953D01*
X132358789Y-94958030D01*
X132368346Y-94964364D01*
X132379864Y-94972087D01*
X132393546Y-94981336D01*
X132409595Y-94992243D01*
X132428215Y-95004944D01*
X132449608Y-95019574D01*
X132473978Y-95036265D01*
X132501528Y-95055153D01*
X132532460Y-95076373D01*
X132566979Y-95100058D01*
X132605287Y-95126344D01*
X132638033Y-95148809D01*
X132665331Y-95167530D01*
X132688804Y-95183605D01*
X132708772Y-95197235D01*
X132725556Y-95208622D01*
X132739475Y-95217967D01*
X132750851Y-95225472D01*
X132760003Y-95231339D01*
X132767253Y-95235769D01*
X132772919Y-95238963D01*
X132777323Y-95241124D01*
X132780786Y-95242454D01*
X132783627Y-95243152D01*
X132786166Y-95243422D01*
X132788451Y-95243465D01*
X132791406Y-95243229D01*
X132795398Y-95242441D01*
X132800742Y-95240979D01*
X132807755Y-95238723D01*
X132816754Y-95235553D01*
X132828054Y-95231347D01*
X132841972Y-95225985D01*
X132858824Y-95219345D01*
X132878927Y-95211308D01*
X132902596Y-95201752D01*
X132930148Y-95190556D01*
X132961900Y-95177600D01*
X132976141Y-95171777D01*
X133004446Y-95160172D01*
X133031495Y-95149031D01*
X133056912Y-95138511D01*
X133080319Y-95128772D01*
X133101341Y-95119970D01*
X133119601Y-95112266D01*
X133134722Y-95105816D01*
X133146327Y-95100779D01*
X133154041Y-95097313D01*
X133157486Y-95095577D01*
X133157527Y-95095547D01*
X133159785Y-95093863D01*
X133161830Y-95092155D01*
X133163729Y-95090136D01*
X133165547Y-95087517D01*
X133167351Y-95084014D01*
X133169207Y-95079338D01*
X133171181Y-95073203D01*
X133173339Y-95065322D01*
X133175747Y-95055407D01*
X133178471Y-95043173D01*
X133181577Y-95028331D01*
X133185131Y-95010596D01*
X133189200Y-94989680D01*
X133193849Y-94965296D01*
X133199144Y-94937158D01*
X133205152Y-94904977D01*
X133211939Y-94868468D01*
X133219570Y-94827344D01*
X133220771Y-94820869D01*
X133227357Y-94785447D01*
X133233728Y-94751329D01*
X133239819Y-94718850D01*
X133245567Y-94688348D01*
X133250907Y-94660159D01*
X133255774Y-94634620D01*
X133260105Y-94612068D01*
X133263834Y-94592838D01*
X133266898Y-94577269D01*
X133269233Y-94565695D01*
X133270773Y-94558455D01*
X133271400Y-94555984D01*
X133275549Y-94549638D01*
X133281701Y-94544214D01*
X133281968Y-94544048D01*
X133283368Y-94543288D01*
X133285123Y-94542614D01*
X133287526Y-94542020D01*
X133290872Y-94541503D01*
X133295454Y-94541056D01*
X133301565Y-94540675D01*
X133309501Y-94540354D01*
X133319553Y-94540089D01*
X133332017Y-94539873D01*
X133347185Y-94539702D01*
X133365351Y-94539571D01*
X133386810Y-94539474D01*
X133411855Y-94539406D01*
X133440779Y-94539363D01*
X133473876Y-94539338D01*
X133511441Y-94539328D01*
X133550000Y-94539325D01*
X133591912Y-94539328D01*
D12*
X137000000Y-121600000D03*
X138000000Y-121600000D03*
X139000000Y-121600000D03*
X140000000Y-121600000D03*
X141000000Y-121600000D03*
X142000000Y-121600000D03*
X143000000Y-121600000D03*
X144000000Y-121600000D03*
X145000000Y-121600000D03*
X146000000Y-121600000D03*
X147000000Y-121600000D03*
X148000000Y-121600000D03*
X149000000Y-121600000D03*
X150000000Y-121600000D03*
X151000000Y-121600000D03*
X152000000Y-121600000D03*
D13*
X136000000Y-123700000D03*
X153000000Y-123700000D03*
D14*
X171800000Y-104800000D03*
X131900000Y-99400000D03*
D15*
X135100000Y-116100000D03*
X135100000Y-112500000D03*
X134600000Y-112500000D03*
X134600000Y-116100000D03*
D16*
X136150000Y-115550000D03*
X136150000Y-115050000D03*
X136150000Y-114550000D03*
X136150000Y-114050000D03*
X136150000Y-113550000D03*
X136150000Y-113050000D03*
X133550000Y-113050000D03*
X133550000Y-113550000D03*
X133550000Y-114050000D03*
X133550000Y-114550000D03*
X133550000Y-115050000D03*
X133550000Y-115550000D03*
D17*
X148800000Y-101700000D03*
D18*
X148250000Y-100650000D03*
X147750000Y-100650000D03*
X147250000Y-100650000D03*
X146750000Y-100650000D03*
X146250000Y-100650000D03*
X145750000Y-100650000D03*
X145250000Y-100650000D03*
X144750000Y-100650000D03*
X144250000Y-100650000D03*
X143750000Y-100650000D03*
D17*
X143200000Y-101700000D03*
X143200000Y-103200000D03*
D18*
X143750000Y-104250000D03*
X144250000Y-104250000D03*
X144750000Y-104250000D03*
X145250000Y-104250000D03*
X145750000Y-104250000D03*
X146250000Y-104250000D03*
X146750000Y-104250000D03*
X147250000Y-104250000D03*
X147750000Y-104250000D03*
X148250000Y-104250000D03*
D17*
X148800000Y-103200000D03*
X151850000Y-112150000D03*
D18*
X151300000Y-111100000D03*
X150800000Y-111100000D03*
X150300000Y-111100000D03*
X149800000Y-111100000D03*
X149300000Y-111100000D03*
X148800000Y-111100000D03*
X148300000Y-111100000D03*
X147800000Y-111100000D03*
X147300000Y-111100000D03*
X146800000Y-111100000D03*
D17*
X146250000Y-112150000D03*
X146250000Y-113650000D03*
D18*
X146800000Y-114700000D03*
X147300000Y-114700000D03*
X147800000Y-114700000D03*
X148300000Y-114700000D03*
X148800000Y-114700000D03*
X149300000Y-114700000D03*
X149800000Y-114700000D03*
X150300000Y-114700000D03*
X150800000Y-114700000D03*
X151300000Y-114700000D03*
D17*
X151850000Y-113650000D03*
D10*
G36*
X170728840Y-95105439D02*
X171365237Y-94469042D01*
X171570298Y-94674103D01*
X170933901Y-95310500D01*
X170728840Y-95105439D01*
X170728840Y-95105439D01*
G37*
G36*
X169597469Y-94320550D02*
X169802530Y-94115489D01*
X170438927Y-94751886D01*
X170233866Y-94956947D01*
X169597469Y-94320550D01*
X169597469Y-94320550D01*
G37*
G36*
X169243916Y-94674103D02*
X169448977Y-94469042D01*
X170085374Y-95105439D01*
X169880313Y-95310500D01*
X169243916Y-94674103D01*
X169243916Y-94674103D01*
G37*
G36*
X168890362Y-95027656D02*
X169095423Y-94822595D01*
X169731820Y-95458992D01*
X169526759Y-95664053D01*
X168890362Y-95027656D01*
X168890362Y-95027656D01*
G37*
G36*
X168536809Y-95381210D02*
X168741870Y-95176149D01*
X169378267Y-95812546D01*
X169173206Y-96017607D01*
X168536809Y-95381210D01*
X168536809Y-95381210D01*
G37*
G36*
X168183255Y-95734763D02*
X168388316Y-95529702D01*
X169024713Y-96166099D01*
X168819652Y-96371160D01*
X168183255Y-95734763D01*
X168183255Y-95734763D01*
G37*
G36*
X167829702Y-96088316D02*
X168034763Y-95883255D01*
X168671160Y-96519652D01*
X168466099Y-96724713D01*
X167829702Y-96088316D01*
X167829702Y-96088316D01*
G37*
G36*
X167476149Y-96441870D02*
X167681210Y-96236809D01*
X168317607Y-96873206D01*
X168112546Y-97078267D01*
X167476149Y-96441870D01*
X167476149Y-96441870D01*
G37*
G36*
X167122595Y-96795423D02*
X167327656Y-96590362D01*
X167964053Y-97226759D01*
X167758992Y-97431820D01*
X167122595Y-96795423D01*
X167122595Y-96795423D01*
G37*
G36*
X166769042Y-97148977D02*
X166974103Y-96943916D01*
X167610500Y-97580313D01*
X167405439Y-97785374D01*
X166769042Y-97148977D01*
X166769042Y-97148977D01*
G37*
G36*
X166415489Y-97502530D02*
X166620550Y-97297469D01*
X167256947Y-97933866D01*
X167051886Y-98138927D01*
X166415489Y-97502530D01*
X166415489Y-97502530D01*
G37*
G36*
X166769042Y-99065237D02*
X167405439Y-98428840D01*
X167610500Y-98633901D01*
X166974103Y-99270298D01*
X166769042Y-99065237D01*
X166769042Y-99065237D01*
G37*
G36*
X167829702Y-100125897D02*
X168466099Y-99489500D01*
X168671160Y-99694561D01*
X168034763Y-100330958D01*
X167829702Y-100125897D01*
X167829702Y-100125897D01*
G37*
G36*
X168961073Y-100048114D02*
X169166134Y-99843053D01*
X169802531Y-100479450D01*
X169597470Y-100684511D01*
X168961073Y-100048114D01*
X168961073Y-100048114D01*
G37*
G36*
X169314626Y-99694561D02*
X169519687Y-99489500D01*
X170156084Y-100125897D01*
X169951023Y-100330958D01*
X169314626Y-99694561D01*
X169314626Y-99694561D01*
G37*
G36*
X169668180Y-99341008D02*
X169873241Y-99135947D01*
X170509638Y-99772344D01*
X170304577Y-99977405D01*
X169668180Y-99341008D01*
X169668180Y-99341008D01*
G37*
G36*
X170021733Y-98987454D02*
X170226794Y-98782393D01*
X170863191Y-99418790D01*
X170658130Y-99623851D01*
X170021733Y-98987454D01*
X170021733Y-98987454D01*
G37*
G36*
X170375287Y-98633901D02*
X170580348Y-98428840D01*
X171216745Y-99065237D01*
X171011684Y-99270298D01*
X170375287Y-98633901D01*
X170375287Y-98633901D01*
G37*
G36*
X170728840Y-98280348D02*
X170933901Y-98075287D01*
X171570298Y-98711684D01*
X171365237Y-98916745D01*
X170728840Y-98280348D01*
X170728840Y-98280348D01*
G37*
G36*
X171082393Y-97926794D02*
X171287454Y-97721733D01*
X171923851Y-98358130D01*
X171718790Y-98563191D01*
X171082393Y-97926794D01*
X171082393Y-97926794D01*
G37*
G36*
X171435947Y-97573241D02*
X171641008Y-97368180D01*
X172277405Y-98004577D01*
X172072344Y-98209638D01*
X171435947Y-97573241D01*
X171435947Y-97573241D01*
G37*
G36*
X171789500Y-97219687D02*
X171994561Y-97014626D01*
X172630958Y-97651023D01*
X172425897Y-97856084D01*
X171789500Y-97219687D01*
X171789500Y-97219687D01*
G37*
G36*
X172143053Y-96866134D02*
X172348114Y-96661073D01*
X172984511Y-97297470D01*
X172779450Y-97502531D01*
X172143053Y-96866134D01*
X172143053Y-96866134D01*
G37*
G36*
X171789500Y-96166099D02*
X172425897Y-95529702D01*
X172630958Y-95734763D01*
X171994561Y-96371160D01*
X171789500Y-96166099D01*
X171789500Y-96166099D01*
G37*
G36*
X170694561Y-121028840D02*
X171330958Y-121665237D01*
X171125897Y-121870298D01*
X170489500Y-121233901D01*
X170694561Y-121028840D01*
X170694561Y-121028840D01*
G37*
G36*
X171479450Y-119897469D02*
X171684511Y-120102530D01*
X171048114Y-120738927D01*
X170843053Y-120533866D01*
X171479450Y-119897469D01*
X171479450Y-119897469D01*
G37*
G36*
X171125897Y-119543916D02*
X171330958Y-119748977D01*
X170694561Y-120385374D01*
X170489500Y-120180313D01*
X171125897Y-119543916D01*
X171125897Y-119543916D01*
G37*
G36*
X170772344Y-119190362D02*
X170977405Y-119395423D01*
X170341008Y-120031820D01*
X170135947Y-119826759D01*
X170772344Y-119190362D01*
X170772344Y-119190362D01*
G37*
G36*
X170418790Y-118836809D02*
X170623851Y-119041870D01*
X169987454Y-119678267D01*
X169782393Y-119473206D01*
X170418790Y-118836809D01*
X170418790Y-118836809D01*
G37*
G36*
X170065237Y-118483255D02*
X170270298Y-118688316D01*
X169633901Y-119324713D01*
X169428840Y-119119652D01*
X170065237Y-118483255D01*
X170065237Y-118483255D01*
G37*
G36*
X169711684Y-118129702D02*
X169916745Y-118334763D01*
X169280348Y-118971160D01*
X169075287Y-118766099D01*
X169711684Y-118129702D01*
X169711684Y-118129702D01*
G37*
G36*
X169358130Y-117776149D02*
X169563191Y-117981210D01*
X168926794Y-118617607D01*
X168721733Y-118412546D01*
X169358130Y-117776149D01*
X169358130Y-117776149D01*
G37*
G36*
X169004577Y-117422595D02*
X169209638Y-117627656D01*
X168573241Y-118264053D01*
X168368180Y-118058992D01*
X169004577Y-117422595D01*
X169004577Y-117422595D01*
G37*
G36*
X168651023Y-117069042D02*
X168856084Y-117274103D01*
X168219687Y-117910500D01*
X168014626Y-117705439D01*
X168651023Y-117069042D01*
X168651023Y-117069042D01*
G37*
G36*
X168297470Y-116715489D02*
X168502531Y-116920550D01*
X167866134Y-117556947D01*
X167661073Y-117351886D01*
X168297470Y-116715489D01*
X168297470Y-116715489D01*
G37*
G36*
X166734763Y-117069042D02*
X167371160Y-117705439D01*
X167166099Y-117910500D01*
X166529702Y-117274103D01*
X166734763Y-117069042D01*
X166734763Y-117069042D01*
G37*
G36*
X165674103Y-118129702D02*
X166310500Y-118766099D01*
X166105439Y-118971160D01*
X165469042Y-118334763D01*
X165674103Y-118129702D01*
X165674103Y-118129702D01*
G37*
G36*
X165751886Y-119261073D02*
X165956947Y-119466134D01*
X165320550Y-120102531D01*
X165115489Y-119897470D01*
X165751886Y-119261073D01*
X165751886Y-119261073D01*
G37*
G36*
X166105439Y-119614626D02*
X166310500Y-119819687D01*
X165674103Y-120456084D01*
X165469042Y-120251023D01*
X166105439Y-119614626D01*
X166105439Y-119614626D01*
G37*
G36*
X166458992Y-119968180D02*
X166664053Y-120173241D01*
X166027656Y-120809638D01*
X165822595Y-120604577D01*
X166458992Y-119968180D01*
X166458992Y-119968180D01*
G37*
G36*
X166812546Y-120321733D02*
X167017607Y-120526794D01*
X166381210Y-121163191D01*
X166176149Y-120958130D01*
X166812546Y-120321733D01*
X166812546Y-120321733D01*
G37*
G36*
X167166099Y-120675287D02*
X167371160Y-120880348D01*
X166734763Y-121516745D01*
X166529702Y-121311684D01*
X167166099Y-120675287D01*
X167166099Y-120675287D01*
G37*
G36*
X167519652Y-121028840D02*
X167724713Y-121233901D01*
X167088316Y-121870298D01*
X166883255Y-121665237D01*
X167519652Y-121028840D01*
X167519652Y-121028840D01*
G37*
G36*
X167873206Y-121382393D02*
X168078267Y-121587454D01*
X167441870Y-122223851D01*
X167236809Y-122018790D01*
X167873206Y-121382393D01*
X167873206Y-121382393D01*
G37*
G36*
X168226759Y-121735947D02*
X168431820Y-121941008D01*
X167795423Y-122577405D01*
X167590362Y-122372344D01*
X168226759Y-121735947D01*
X168226759Y-121735947D01*
G37*
G36*
X168580313Y-122089500D02*
X168785374Y-122294561D01*
X168148977Y-122930958D01*
X167943916Y-122725897D01*
X168580313Y-122089500D01*
X168580313Y-122089500D01*
G37*
G36*
X168933866Y-122443053D02*
X169138927Y-122648114D01*
X168502530Y-123284511D01*
X168297469Y-123079450D01*
X168933866Y-122443053D01*
X168933866Y-122443053D01*
G37*
G36*
X169633901Y-122089500D02*
X170270298Y-122725897D01*
X170065237Y-122930958D01*
X169428840Y-122294561D01*
X169633901Y-122089500D01*
X169633901Y-122089500D01*
G37*
D14*
X131350000Y-120050000D03*
D19*
X157750000Y-106700000D03*
X157750000Y-104500000D03*
X159450000Y-106700000D03*
X159450000Y-104500000D03*
D20*
X140450000Y-114700000D03*
X138250000Y-114700000D03*
X140450000Y-116700000D03*
X138250000Y-116700000D03*
X140450000Y-113050000D03*
X138250000Y-113050000D03*
X133700000Y-118150000D03*
X135900000Y-118150000D03*
X149250000Y-96350000D03*
X151450000Y-96350000D03*
X136800000Y-109350000D03*
X139000000Y-109350000D03*
D19*
X172900000Y-93700000D03*
X172900000Y-91500000D03*
D20*
X172850000Y-125200000D03*
X170650000Y-125200000D03*
D21*
X147400000Y-115850000D03*
X147400000Y-123500000D03*
X132650000Y-117050000D03*
X139100000Y-111925793D03*
X135650000Y-109700000D03*
X147950000Y-96350000D03*
X174100000Y-94000000D03*
X172850000Y-126450000D03*
X164500000Y-120300000D03*
X160141749Y-120550000D03*
X143200000Y-102500000D03*
X170600000Y-100600000D03*
X167600000Y-99500000D03*
X144500000Y-105400000D03*
X145200000Y-112100000D03*
X133850000Y-116800000D03*
X170700000Y-122350000D03*
X172200000Y-94900000D03*
X149800000Y-102500000D03*
X171360000Y-92280000D03*
X148584468Y-116823784D03*
X171000000Y-123800000D03*
X169300000Y-123800000D03*
X153937447Y-113672000D03*
X156200000Y-97100000D03*
X153400000Y-103499994D03*
X141909643Y-110674566D03*
X144618980Y-111400000D03*
X138064327Y-119800000D03*
X160300000Y-118700000D03*
X164581049Y-117115293D03*
X167132985Y-114978957D03*
X142952059Y-111694264D03*
X144678150Y-110377081D03*
X138900000Y-119800000D03*
X161200000Y-119128480D03*
X164320714Y-117980918D03*
X142728480Y-110220045D03*
X147550000Y-117400000D03*
X144750000Y-112950000D03*
X165051279Y-119249865D03*
X159838359Y-119768621D03*
X166299903Y-115071559D03*
X154953113Y-120877680D03*
X140300000Y-119900000D03*
X144600004Y-114400000D03*
X143502142Y-113720009D03*
X160800000Y-121600000D03*
X167500177Y-116685138D03*
X166600000Y-118200000D03*
X141200000Y-119700000D03*
X143350000Y-115550000D03*
X142013185Y-119903296D03*
X142900000Y-119754243D03*
X143000000Y-117900000D03*
X143978651Y-119849432D03*
X144000000Y-118300000D03*
X145150000Y-125600000D03*
X145000000Y-118400000D03*
X145000000Y-119800000D03*
X149300000Y-118413533D03*
X151660590Y-119010654D03*
X159300000Y-109800000D03*
X149909816Y-119583671D03*
X152600000Y-119000000D03*
X159400000Y-110700000D03*
X159400000Y-101800000D03*
D22*
X154700925Y-99969497D03*
X156437124Y-117714065D03*
X157446623Y-116264546D03*
X161523051Y-116737732D03*
D21*
X150798761Y-118205197D03*
X149314439Y-117270512D03*
D22*
X161045015Y-99054899D03*
D21*
X165699619Y-122003274D03*
X166628480Y-122721136D03*
D22*
X161996016Y-116045704D03*
X162767523Y-116433503D03*
X163540000Y-115990000D03*
X163625803Y-117020165D03*
X164677927Y-116277298D03*
D21*
X167765542Y-115528930D03*
D22*
X166452313Y-113928537D03*
D21*
X171857628Y-121152203D03*
X168600730Y-115600061D03*
D22*
X165607161Y-113704049D03*
D21*
X171877680Y-119499998D03*
D22*
X165605042Y-112865840D03*
D21*
X168568740Y-114461506D03*
X171400000Y-118800000D03*
X170626195Y-113868340D03*
D22*
X164700000Y-112900000D03*
D21*
X168342958Y-113629670D03*
D22*
X164787300Y-112029507D03*
D21*
X170093653Y-113052771D03*
X168075725Y-112835198D03*
D22*
X163783155Y-111316748D03*
D21*
X167532652Y-112061600D03*
X169500418Y-112258144D03*
D22*
X168599462Y-111502140D03*
X163528885Y-110173726D03*
X163700000Y-106699996D03*
D21*
X166495177Y-105779252D03*
D22*
X162917233Y-105773905D03*
D21*
X167700000Y-105700000D03*
X166594252Y-104946916D03*
D22*
X163900000Y-105500000D03*
D21*
X168400000Y-105000000D03*
X166601952Y-104108740D03*
D22*
X162988743Y-104630882D03*
D21*
X168700000Y-104100000D03*
X166418886Y-103290764D03*
D22*
X164208262Y-104233682D03*
D21*
X170000000Y-103200000D03*
X167306354Y-102919789D03*
D22*
X163633163Y-103623879D03*
D21*
X171817506Y-102760838D03*
X167686844Y-102144202D03*
D22*
X164510988Y-103080989D03*
D21*
X173267077Y-101291360D03*
D22*
X163925512Y-102481142D03*
D21*
X168792867Y-101271520D03*
X172977680Y-96300000D03*
X170358453Y-92669345D03*
X166675319Y-96370794D03*
D22*
X165449376Y-100142373D03*
D21*
X169867078Y-93345288D03*
X165600000Y-95900000D03*
D22*
X164496621Y-100273613D03*
D21*
X168922069Y-93557547D03*
X166415868Y-95227772D03*
D22*
X164914047Y-99035328D03*
D21*
X165856067Y-94536610D03*
X169500000Y-92500000D03*
D22*
X164080050Y-99148578D03*
D21*
X168616630Y-92415374D03*
X166500000Y-94000000D03*
D22*
X163435854Y-98612285D03*
D21*
X166000000Y-93100000D03*
X169000000Y-91500000D03*
D22*
X162933625Y-99319524D03*
D21*
X167900000Y-91477931D03*
X166600000Y-92400000D03*
D22*
X162207512Y-98900766D03*
X161835375Y-99815595D03*
X157346862Y-99771229D03*
X156760000Y-99071251D03*
X156138620Y-99719813D03*
X154142323Y-100591036D03*
X155029216Y-101160016D03*
X154063921Y-101911817D03*
X155450923Y-102278211D03*
X154700000Y-102980000D03*
X155731356Y-103448640D03*
D21*
X155156773Y-104173153D03*
X154248970Y-105773268D03*
X155030908Y-105311095D03*
D22*
X155987304Y-105757689D03*
X155591702Y-106504132D03*
X156597189Y-106791829D03*
X155849475Y-109450942D03*
X156328496Y-110253281D03*
X155461664Y-110744803D03*
X156058966Y-111396303D03*
X155122346Y-111940706D03*
X155733147Y-112537001D03*
X154988699Y-113106476D03*
X155449606Y-113806593D03*
X154616544Y-114288174D03*
X155152729Y-114949170D03*
X153934695Y-115269631D03*
X154471693Y-115922208D03*
X155025317Y-116551572D03*
X156216367Y-116414980D03*
X156875103Y-116999381D03*
D21*
X132100000Y-114050000D03*
X130515130Y-115055406D03*
X131700000Y-113150000D03*
X131200000Y-112000000D03*
X152917422Y-97531020D03*
X151166057Y-101236441D03*
X146100000Y-116300000D03*
X151700000Y-112900000D03*
X158300000Y-99000000D03*
X148200000Y-119700000D03*
X154203439Y-119128480D03*
X149100002Y-119800000D03*
X153881135Y-118354711D03*
D23*
X147300000Y-114700000D02*
X147300000Y-115750000D01*
X147300000Y-115750000D02*
X147400000Y-115850000D01*
X147884933Y-123500000D02*
X147400000Y-123500000D01*
X152000000Y-122300000D02*
X150800000Y-123500000D01*
X152000000Y-121600000D02*
X152000000Y-122300000D01*
X150800000Y-123500000D02*
X147884933Y-123500000D01*
X133700000Y-118150000D02*
X133700000Y-118100000D01*
X133700000Y-118100000D02*
X132650000Y-117050000D01*
X135650000Y-109700000D02*
X136450000Y-109700000D01*
X136450000Y-109700000D02*
X136800000Y-109350000D01*
X135100000Y-112500000D02*
X135100000Y-111850000D01*
X135100000Y-111850000D02*
X135250000Y-111700000D01*
X135250000Y-111700000D02*
X137348414Y-111700000D01*
X137348414Y-111700000D02*
X137574207Y-111925793D01*
X137100000Y-112400000D02*
X137574207Y-111925793D01*
X140300000Y-113050000D02*
X139175793Y-111925793D01*
X140450000Y-113050000D02*
X140300000Y-113050000D01*
X137574207Y-111925793D02*
X138615067Y-111925793D01*
X137100000Y-113000000D02*
X137100000Y-112400000D01*
X138615067Y-111925793D02*
X139100000Y-111925793D01*
X139175793Y-111925793D02*
X139100000Y-111925793D01*
X137100000Y-113000000D02*
X137100000Y-113304000D01*
X137100000Y-113000000D02*
X137050000Y-113050000D01*
X137050000Y-113050000D02*
X136150000Y-113050000D01*
X136854000Y-113550000D02*
X136150000Y-113550000D01*
X137100000Y-113304000D02*
X136854000Y-113550000D01*
X140450000Y-114700000D02*
X140450000Y-116700000D01*
X140450000Y-113050000D02*
X140450000Y-114700000D01*
X149250000Y-96350000D02*
X147950000Y-96350000D01*
X172900000Y-93700000D02*
X173800000Y-93700000D01*
X173800000Y-93700000D02*
X174100000Y-94000000D01*
X172850000Y-125200000D02*
X172850000Y-126450000D01*
X164500000Y-119579839D02*
X164500000Y-119815067D01*
X164500000Y-119815067D02*
X164500000Y-120300000D01*
X164355978Y-119435817D02*
X164500000Y-119579839D01*
X164430008Y-119213746D02*
X164355978Y-119435817D01*
X164430008Y-118890998D02*
X164430008Y-119213746D01*
X166950431Y-117489771D02*
X165831235Y-117489771D01*
X164624263Y-120424263D02*
X164500000Y-120300000D01*
X165831235Y-117489771D02*
X164430008Y-118890998D01*
X165500863Y-120424263D02*
X164624263Y-120424263D01*
X165889771Y-120035355D02*
X165500863Y-120424263D01*
X157691826Y-121505266D02*
X158647092Y-120550000D01*
X154100000Y-121000000D02*
X154605266Y-121505266D01*
X152000000Y-121600000D02*
X152600000Y-121000000D01*
X154605266Y-121505266D02*
X157691826Y-121505266D01*
X152600000Y-121000000D02*
X154100000Y-121000000D01*
X158647092Y-120550000D02*
X159656816Y-120550000D01*
X159656816Y-120550000D02*
X160141749Y-120550000D01*
X143200000Y-101700000D02*
X143200000Y-102500000D01*
X170425126Y-100600000D02*
X170600000Y-100600000D01*
X169735355Y-99910229D02*
X170425126Y-100600000D01*
X167189771Y-98849569D02*
X167189771Y-99089771D01*
X167189771Y-99089771D02*
X167600000Y-99500000D01*
X144250000Y-105150000D02*
X144500000Y-105400000D01*
X144250000Y-104250000D02*
X144250000Y-105150000D01*
X146250000Y-112150000D02*
X145250000Y-112150000D01*
X145250000Y-112150000D02*
X145200000Y-112100000D01*
X156815043Y-124550000D02*
X167809798Y-124550000D01*
X144600190Y-127265233D02*
X154099810Y-127265233D01*
X137000000Y-122300000D02*
X141400000Y-126700000D01*
X167809798Y-124550000D02*
X168859798Y-123500000D01*
X144034957Y-126700000D02*
X144600190Y-127265233D01*
X154099810Y-127265233D02*
X156815043Y-124550000D01*
X137000000Y-121600000D02*
X137000000Y-122300000D01*
X141400000Y-126700000D02*
X144034957Y-126700000D01*
X134600000Y-117150000D02*
X134200000Y-117150000D01*
X134200000Y-117150000D02*
X133850000Y-116800000D01*
X134850000Y-117400000D02*
X134850000Y-118648350D01*
X134850000Y-118648350D02*
X135405650Y-119204000D01*
X135405650Y-119204000D02*
X137000000Y-119204000D01*
X134600000Y-117150000D02*
X134850000Y-117400000D01*
X134600000Y-116100000D02*
X134600000Y-117150000D01*
X170700000Y-122350000D02*
X170009798Y-122350000D01*
X170009798Y-122350000D02*
X169849569Y-122510229D01*
X172210229Y-95950431D02*
X172210229Y-94910229D01*
X173889378Y-96104445D02*
X172684933Y-94900000D01*
X172210229Y-94910229D02*
X172200000Y-94900000D01*
X171000000Y-123800000D02*
X173889378Y-120910622D01*
X172684933Y-94900000D02*
X172200000Y-94900000D01*
X173889378Y-120910622D02*
X173889378Y-96104445D01*
X148800000Y-103200000D02*
X149950000Y-103200000D01*
X149950000Y-103200000D02*
X153100006Y-103200000D01*
X149800000Y-102500000D02*
X149800000Y-102984933D01*
X149950000Y-103134933D02*
X149950000Y-103200000D01*
X149800000Y-102984933D02*
X149950000Y-103134933D01*
X171017101Y-91937101D02*
X171360000Y-92280000D01*
X157400532Y-97100000D02*
X163644920Y-90855611D01*
X169935611Y-90855611D02*
X171017101Y-91937101D01*
X163644920Y-90855611D02*
X169935611Y-90855611D01*
X156200000Y-97100000D02*
X157400532Y-97100000D01*
X144493120Y-119155611D02*
X146737574Y-119155611D01*
X141552931Y-119131923D02*
X143483192Y-119131923D01*
X141498706Y-119077698D02*
X141552931Y-119131923D01*
X140600000Y-119204000D02*
X140726302Y-119077698D01*
X140726302Y-119077698D02*
X141498706Y-119077698D01*
X143483192Y-119131923D02*
X143578381Y-119227112D01*
X143578381Y-119227112D02*
X144421619Y-119227112D01*
X148584468Y-117308717D02*
X148584468Y-116823784D01*
X146737574Y-119155611D02*
X148584468Y-117308717D01*
X144421619Y-119227112D02*
X144493120Y-119155611D01*
X168859798Y-123500000D02*
X169000000Y-123500000D01*
X168859798Y-123500000D02*
X169849569Y-122510229D01*
X169000000Y-123500000D02*
X169300000Y-123800000D01*
X140573698Y-119177698D02*
X140600000Y-119204000D01*
X137026302Y-119177698D02*
X140573698Y-119177698D01*
X137000000Y-119204000D02*
X137026302Y-119177698D01*
X153915447Y-113650000D02*
X153937447Y-113672000D01*
X151850000Y-113650000D02*
X153915447Y-113650000D01*
X153100006Y-103200000D02*
X153400000Y-103499994D01*
X137000000Y-120346000D02*
X137000000Y-121600000D01*
X137000000Y-119204000D02*
X137000000Y-120346000D01*
D24*
X153956104Y-126909622D02*
X158389413Y-122476313D01*
X161950083Y-119022976D02*
X161455604Y-118528497D01*
X158389413Y-122476313D02*
X161600578Y-122476313D01*
X144747488Y-126909622D02*
X153956104Y-126909622D01*
X161455604Y-118528497D02*
X160956436Y-118528497D01*
X144171278Y-126333412D02*
X144747488Y-126909622D01*
X161600578Y-122476313D02*
X161950083Y-122126808D01*
X142033412Y-126333412D02*
X144171278Y-126333412D01*
X138000000Y-122300000D02*
X142033412Y-126333412D01*
X138000000Y-121600000D02*
X138000000Y-122300000D01*
X161950083Y-122126808D02*
X161950083Y-119022976D01*
X160784933Y-118700000D02*
X160300000Y-118700000D01*
X160956436Y-118528497D02*
X160784933Y-118700000D01*
X143654948Y-99500000D02*
X141909643Y-101245305D01*
X144250000Y-100047600D02*
X143702400Y-99500000D01*
X141909643Y-110189633D02*
X141909643Y-110674566D01*
X141909643Y-101245305D02*
X141909643Y-110189633D01*
X143702400Y-99500000D02*
X143654948Y-99500000D01*
X144250000Y-100650000D02*
X144250000Y-100047600D01*
X144057101Y-110560692D02*
X144618980Y-111122571D01*
X144700000Y-109500000D02*
X144057101Y-110142899D01*
X144057101Y-110142899D02*
X144057101Y-110560692D01*
X146302400Y-109500000D02*
X144700000Y-109500000D01*
X147300000Y-110497600D02*
X146302400Y-109500000D01*
X147300000Y-111100000D02*
X147300000Y-110497600D01*
X144618980Y-111122571D02*
X144618980Y-111400000D01*
X138000000Y-119864327D02*
X138064327Y-119800000D01*
X138000000Y-121600000D02*
X138000000Y-119864327D01*
X161314710Y-111776844D02*
X161314710Y-112269000D01*
X165246890Y-116934385D02*
X165065982Y-117115293D01*
X162647488Y-100890378D02*
X160990378Y-102547488D01*
X167189771Y-97364645D02*
X166800863Y-96975737D01*
X164063511Y-114816497D02*
X165246890Y-115999876D01*
X165065982Y-117115293D02*
X164581049Y-117115293D01*
X160990378Y-111452512D02*
X161314710Y-111776844D01*
X166095189Y-97232854D02*
X166095189Y-100304811D01*
X166095189Y-100304811D02*
X165609620Y-100790380D01*
X166800863Y-96975737D02*
X166352306Y-96975737D01*
X165246890Y-115999876D02*
X165246890Y-116934385D01*
X165609620Y-100790380D02*
X165247487Y-100790380D01*
X163862207Y-114816497D02*
X164063511Y-114816497D01*
X161314710Y-112269000D02*
X163862207Y-114816497D01*
X165247487Y-100790380D02*
X165147489Y-100890378D01*
X165147489Y-100890378D02*
X162647488Y-100890378D01*
X160990378Y-102547488D02*
X160990378Y-111452512D01*
X166352306Y-96975737D02*
X166095189Y-97232854D01*
X167814600Y-116171502D02*
X167743098Y-116100000D01*
X168435355Y-117489771D02*
X168824263Y-117100863D01*
X167132985Y-115463890D02*
X167132985Y-114978957D01*
X167132985Y-115862904D02*
X167132985Y-115463890D01*
X168471502Y-116171502D02*
X167814600Y-116171502D01*
X167743098Y-116100000D02*
X167370081Y-116100000D01*
X168824263Y-117100863D02*
X168824263Y-116524263D01*
X167370081Y-116100000D02*
X167132985Y-115862904D01*
X168824263Y-116524263D02*
X168471502Y-116171502D01*
X161474322Y-122171502D02*
X161542899Y-122102925D01*
X158266749Y-122171502D02*
X161474322Y-122171502D01*
X144873744Y-126604811D02*
X153833440Y-126604811D01*
X144297534Y-126028601D02*
X144873744Y-126604811D01*
X139000000Y-122300000D02*
X142728601Y-126028601D01*
X139000000Y-121600000D02*
X139000000Y-122300000D01*
X161542899Y-122102925D02*
X161542899Y-119471379D01*
X142728601Y-126028601D02*
X144297534Y-126028601D01*
X161542899Y-119471379D02*
X161200000Y-119128480D01*
X153833440Y-126604811D02*
X158266749Y-122171502D01*
X142728480Y-110220045D02*
X142728480Y-111470685D01*
X142728480Y-111470685D02*
X142952059Y-111694264D01*
X145021049Y-110719980D02*
X144678150Y-110377081D01*
X145401069Y-111100000D02*
X145021049Y-110719980D01*
X146800000Y-111100000D02*
X145401069Y-111100000D01*
X139000000Y-119900000D02*
X138900000Y-119800000D01*
X139000000Y-121600000D02*
X139000000Y-119900000D01*
X166400000Y-98154416D02*
X166662978Y-97891438D01*
X166400000Y-100468934D02*
X166400000Y-98154416D01*
X162773744Y-101195189D02*
X165673745Y-101195189D01*
X164503252Y-114514226D02*
X164145292Y-114514226D01*
X164145292Y-114514226D02*
X161619521Y-111988455D01*
X166300000Y-116310974D02*
X164503252Y-114514226D01*
X161295189Y-111326256D02*
X161295189Y-102673744D01*
X161619521Y-111988455D02*
X161619521Y-111650587D01*
X166662978Y-97891438D02*
X166836218Y-97718198D01*
X161295189Y-102673744D02*
X162773744Y-101195189D01*
X161619521Y-111650587D02*
X161295189Y-111326256D01*
X165673745Y-101195189D02*
X166400000Y-100468934D01*
X164805647Y-117980918D02*
X164320714Y-117980918D01*
X166300000Y-116310974D02*
X166300000Y-116486565D01*
X166300000Y-116486565D02*
X164805647Y-117980918D01*
X167514152Y-117525126D02*
X166300000Y-116310974D01*
X167692894Y-117525126D02*
X167514152Y-117525126D01*
X168081802Y-117136218D02*
X167692894Y-117525126D01*
X142385581Y-109877146D02*
X142728480Y-110220045D01*
X142385581Y-101507937D02*
X142385581Y-109877146D01*
X143243518Y-100650000D02*
X142385581Y-101507937D01*
X143750000Y-100650000D02*
X143243518Y-100650000D01*
X146502600Y-114700000D02*
X146800000Y-114700000D01*
X145971561Y-115231039D02*
X146502600Y-114700000D01*
X143931038Y-114673103D02*
X144488974Y-115231039D01*
X144081038Y-113976897D02*
X143931038Y-114126897D01*
X143931038Y-114126897D02*
X143931038Y-114673103D01*
X144081038Y-113381038D02*
X144081038Y-113976897D01*
X144050000Y-113350000D02*
X144081038Y-113381038D01*
X144488974Y-115231039D02*
X145971561Y-115231039D01*
X147207101Y-117057101D02*
X147550000Y-117400000D01*
X146800000Y-114700000D02*
X146800000Y-116650000D01*
X146800000Y-116650000D02*
X147207101Y-117057101D01*
X144050000Y-110981066D02*
X144050000Y-113350000D01*
X144407101Y-113292899D02*
X144107101Y-113292899D01*
X144107101Y-113292899D02*
X144050000Y-113350000D01*
X143750000Y-110681066D02*
X144050000Y-110981066D01*
X143750000Y-104250000D02*
X143750000Y-110681066D01*
X144407101Y-113292899D02*
X144750000Y-112950000D01*
X165536218Y-119681802D02*
X165104281Y-119249865D01*
X165104281Y-119249865D02*
X165051279Y-119249865D01*
X159353426Y-119768621D02*
X159838359Y-119768621D01*
X154953113Y-120877680D02*
X157816502Y-120877680D01*
X158925561Y-119768621D02*
X159353426Y-119768621D01*
X157816502Y-120877680D02*
X158925561Y-119768621D01*
X162424904Y-111573744D02*
X165579820Y-114728660D01*
X163557322Y-101804811D02*
X162020835Y-103341298D01*
X166786916Y-101804811D02*
X163557322Y-101804811D01*
X169381802Y-100263782D02*
X168945584Y-100700000D01*
X165957004Y-114728660D02*
X166299903Y-115071559D01*
X165579820Y-114728660D02*
X165957004Y-114728660D01*
X167891726Y-100700000D02*
X166786916Y-101804811D01*
X168945584Y-100700000D02*
X167891726Y-100700000D01*
X162020835Y-109689768D02*
X162424904Y-110093837D01*
X162424904Y-110093837D02*
X162424904Y-111573744D01*
X162020835Y-103341298D02*
X162020835Y-109689768D01*
X140000000Y-121600000D02*
X140000000Y-120200000D01*
X140000000Y-120200000D02*
X140300000Y-119900000D01*
X145350004Y-113650000D02*
X144942903Y-114057101D01*
X144942903Y-114057101D02*
X144600004Y-114400000D01*
X146250000Y-113650000D02*
X145350004Y-113650000D01*
X143521020Y-111421162D02*
X143521020Y-113216198D01*
X143200000Y-103200000D02*
X143200000Y-103497400D01*
X143377143Y-111277285D02*
X143521020Y-111421162D01*
X143377143Y-103674543D02*
X143377143Y-111277285D01*
X143521020Y-113216198D02*
X143502142Y-113235076D01*
X143502142Y-113235076D02*
X143502142Y-113720009D01*
X143200000Y-103497400D02*
X143377143Y-103674543D01*
X145000000Y-126300000D02*
X153400000Y-126300000D01*
X160315067Y-121600000D02*
X160800000Y-121600000D01*
X158100000Y-121600000D02*
X160315067Y-121600000D01*
X153400000Y-126300000D02*
X158100000Y-121600000D01*
X141000000Y-122300000D02*
X145000000Y-126300000D01*
X141000000Y-121600000D02*
X141000000Y-122300000D01*
X162900000Y-101500000D02*
X166660660Y-101500000D01*
X166660660Y-101500000D02*
X168250431Y-99910229D01*
X161600000Y-102800000D02*
X162900000Y-101500000D01*
X161600000Y-111200000D02*
X161600000Y-102800000D01*
X162100000Y-111700000D02*
X161600000Y-111200000D01*
X162120093Y-111700000D02*
X162100000Y-111700000D01*
X167500177Y-116685138D02*
X167105231Y-116685138D01*
X167105231Y-116685138D02*
X162120093Y-111700000D01*
X166249569Y-118550431D02*
X166600000Y-118200000D01*
X165889771Y-118550431D02*
X166249569Y-118550431D01*
X141000000Y-121600000D02*
X141000000Y-119900000D01*
X141000000Y-119900000D02*
X141200000Y-119700000D01*
X142154542Y-113604542D02*
X142154542Y-112099592D01*
X132197731Y-112800131D02*
X132947600Y-113550000D01*
X143007101Y-115207101D02*
X143007101Y-114457101D01*
X132197731Y-112524795D02*
X132197731Y-112800131D01*
X133980137Y-110742389D02*
X132197731Y-112524795D01*
X142154542Y-112099592D02*
X141550408Y-111495458D01*
X139689404Y-110742389D02*
X133980137Y-110742389D01*
X143350000Y-115550000D02*
X143007101Y-115207101D01*
X132947600Y-113550000D02*
X133550000Y-113550000D01*
X143007101Y-114457101D02*
X142154542Y-113604542D01*
X141550408Y-111495458D02*
X140442473Y-111495458D01*
X140442473Y-111495458D02*
X139689404Y-110742389D01*
X142000000Y-121600000D02*
X142000000Y-119916481D01*
X142000000Y-119916481D02*
X142013185Y-119903296D01*
X139564200Y-111044660D02*
X134928549Y-111044660D01*
X141852271Y-113729746D02*
X141852271Y-112224796D01*
X133550000Y-112423209D02*
X133550000Y-112777600D01*
X140317269Y-111797729D02*
X139564200Y-111044660D01*
X141425204Y-111797729D02*
X140317269Y-111797729D01*
X141852271Y-112224796D02*
X141425204Y-111797729D01*
X142657101Y-114534576D02*
X141852271Y-113729746D01*
X142657101Y-117557101D02*
X142657101Y-114534576D01*
X143000000Y-117900000D02*
X142657101Y-117557101D01*
X134928549Y-111044660D02*
X133550000Y-112423209D01*
X133550000Y-112777600D02*
X133550000Y-113050000D01*
X143000000Y-121600000D02*
X143000000Y-119854243D01*
X143000000Y-119854243D02*
X142900000Y-119754243D01*
X134600000Y-111897600D02*
X134600000Y-112500000D01*
X134600000Y-111850683D02*
X134600000Y-111897600D01*
X141300000Y-112100000D02*
X140192065Y-112100000D01*
X135103754Y-111346929D02*
X134600000Y-111850683D01*
X141550000Y-112350000D02*
X141300000Y-112100000D01*
X141750000Y-114054950D02*
X141550000Y-113854950D01*
X141750000Y-118198409D02*
X141750000Y-114054950D01*
X142023092Y-118471501D02*
X141750000Y-118198409D01*
X140192065Y-112100000D02*
X139438994Y-111346929D01*
X139438994Y-111346929D02*
X135103754Y-111346929D01*
X144000000Y-118300000D02*
X143515067Y-118300000D01*
X143515067Y-118300000D02*
X143343566Y-118471501D01*
X141550000Y-113854950D02*
X141550000Y-112350000D01*
X143343566Y-118471501D02*
X142023092Y-118471501D01*
X144000000Y-121600000D02*
X144000000Y-119870781D01*
X144000000Y-119870781D02*
X143978651Y-119849432D01*
X145150000Y-125600000D02*
X145150000Y-121750000D01*
X145150000Y-121750000D02*
X145000000Y-121600000D01*
X136150000Y-115050000D02*
X136752400Y-115050000D01*
X139400000Y-116150000D02*
X139400000Y-117400000D01*
X136752400Y-115050000D02*
X137502400Y-115800000D01*
X137502400Y-115800000D02*
X139050000Y-115800000D01*
X143725679Y-118871501D02*
X144274321Y-118871501D01*
X144274321Y-118871501D02*
X144402923Y-118742899D01*
X139050000Y-115800000D02*
X139400000Y-116150000D01*
X139400000Y-117400000D02*
X139898353Y-117898353D01*
X139898353Y-117898353D02*
X141018877Y-117898353D01*
X144657101Y-118742899D02*
X145000000Y-118400000D01*
X141018877Y-117898353D02*
X141896836Y-118776312D01*
X144402923Y-118742899D02*
X144657101Y-118742899D01*
X141896836Y-118776312D02*
X143630490Y-118776312D01*
X143630490Y-118776312D02*
X143725679Y-118871501D01*
X145000000Y-121600000D02*
X145000000Y-119800000D01*
X152003489Y-119353553D02*
X151660590Y-119010654D01*
X152087529Y-119353553D02*
X152003489Y-119353553D01*
X154457197Y-120096707D02*
X152830683Y-120096707D01*
X159361912Y-117969155D02*
X157329699Y-120001368D01*
X154552536Y-120001368D02*
X154457197Y-120096707D01*
X159361912Y-114969154D02*
X159361912Y-117969155D01*
X159971501Y-114359565D02*
X159361912Y-114969154D01*
X159971501Y-109986568D02*
X159971501Y-114359565D01*
X159300000Y-109800000D02*
X159784933Y-109800000D01*
X152830683Y-120096707D02*
X152087529Y-119353553D01*
X157329699Y-120001368D02*
X154552536Y-120001368D01*
X159784933Y-109800000D02*
X159971501Y-109986568D01*
X148815067Y-118413533D02*
X149300000Y-118413533D01*
X148533409Y-118695191D02*
X148815067Y-118413533D01*
X147752409Y-118695191D02*
X148533409Y-118695191D01*
X146000000Y-121600000D02*
X146000000Y-120447600D01*
X146000000Y-120447600D02*
X147752409Y-118695191D01*
X159057101Y-117842899D02*
X157203443Y-119696557D01*
X159057101Y-111042899D02*
X159057101Y-117842899D01*
X154422837Y-119700000D02*
X153300000Y-119700000D01*
X154426280Y-119696557D02*
X154422837Y-119700000D01*
X157203443Y-119696557D02*
X154426280Y-119696557D01*
X152942899Y-119342899D02*
X152600000Y-119000000D01*
X153300000Y-119700000D02*
X152942899Y-119342899D01*
X159400000Y-110700000D02*
X159057101Y-111042899D01*
X149566917Y-119240772D02*
X149909816Y-119583671D01*
X149454643Y-119128498D02*
X149566917Y-119240772D01*
X147000000Y-120054176D02*
X147925678Y-119128498D01*
X147925678Y-119128498D02*
X149454643Y-119128498D01*
X147000000Y-121600000D02*
X147000000Y-120054176D01*
X159400000Y-101800000D02*
X159400000Y-104450000D01*
X159400000Y-104450000D02*
X159450000Y-104500000D01*
X154700925Y-99969497D02*
X155469497Y-99969497D01*
X155469497Y-99969497D02*
X157750000Y-102250000D01*
X157750000Y-102250000D02*
X157750000Y-104500000D01*
X150481318Y-119857993D02*
X150481318Y-119302685D01*
X149922430Y-117646606D02*
X150240170Y-117328866D01*
X153705755Y-117328866D02*
X153855288Y-117478399D01*
X149922430Y-118743797D02*
X149922430Y-117646606D01*
X154281712Y-117478399D02*
X154622189Y-117818876D01*
X153855288Y-117478399D02*
X154281712Y-117478399D01*
X156332313Y-117818876D02*
X156437124Y-117714065D01*
X150240170Y-117328866D02*
X153705755Y-117328866D01*
X150000000Y-120339311D02*
X150481318Y-119857993D01*
X154622189Y-117818876D02*
X156332313Y-117818876D01*
X150481318Y-119302685D02*
X149922430Y-118743797D01*
X150000000Y-121600000D02*
X150000000Y-120339311D01*
X150786129Y-119176429D02*
X150786129Y-120233729D01*
X150786129Y-120233729D02*
X151000000Y-120447600D01*
X151000000Y-120447600D02*
X151000000Y-121600000D01*
X157021235Y-118285567D02*
X154657813Y-118285567D01*
X154657813Y-118285567D02*
X154155456Y-117783210D01*
X154155456Y-117783210D02*
X153729032Y-117783210D01*
X157446623Y-117860179D02*
X157021235Y-118285567D01*
X157446623Y-116264546D02*
X157446623Y-117860179D01*
X150227241Y-118617541D02*
X150786129Y-119176429D01*
X153579499Y-117633677D02*
X150400448Y-117633677D01*
X150400448Y-117633677D02*
X150227241Y-117806884D01*
X150227241Y-117806884D02*
X150227241Y-118617541D01*
X153729032Y-117783210D02*
X153579499Y-117633677D01*
X161802213Y-116737732D02*
X161523051Y-116737732D01*
X163595556Y-120772445D02*
X163595556Y-118531075D01*
X165594613Y-122771502D02*
X163595556Y-120772445D01*
X163595556Y-118531075D02*
X161802213Y-116737732D01*
X166950431Y-121096016D02*
X166354159Y-121692288D01*
X165736051Y-122771502D02*
X165594613Y-122771502D01*
X166354159Y-121692288D02*
X166354159Y-122153394D01*
X166354159Y-122153394D02*
X165736051Y-122771502D01*
X147800000Y-115302400D02*
X148402411Y-115904811D01*
X148402411Y-115904811D02*
X148473745Y-115904811D01*
X149314439Y-116745505D02*
X149314439Y-116785579D01*
X148473745Y-115904811D02*
X149314439Y-116745505D01*
X149314439Y-116785579D02*
X149314439Y-117270512D01*
X147800000Y-114700000D02*
X147800000Y-115302400D01*
X150798761Y-118690130D02*
X150798761Y-118205197D01*
X151088431Y-119054328D02*
X151088431Y-118979800D01*
X151090940Y-119056837D02*
X151088431Y-119054328D01*
X151932831Y-120304811D02*
X151090940Y-119462919D01*
X152607720Y-120304811D02*
X151932831Y-120304811D01*
X152704427Y-120401518D02*
X152607720Y-120304811D01*
X154583453Y-120401518D02*
X152704427Y-120401518D01*
X160995191Y-111888391D02*
X160995191Y-113935875D01*
X154678792Y-120306179D02*
X154583453Y-120401518D01*
X157455955Y-120306179D02*
X154678792Y-120306179D01*
X159666723Y-118095411D02*
X157455955Y-120306179D01*
X159666723Y-115264343D02*
X159666723Y-118095411D01*
X160995191Y-113935875D02*
X159666723Y-115264343D01*
X160685569Y-111578769D02*
X160995191Y-111888391D01*
X160685569Y-99414345D02*
X160685569Y-111578769D01*
X161045015Y-99054899D02*
X160685569Y-99414345D01*
X151090940Y-119462919D02*
X151090940Y-119056837D01*
X151088431Y-118979800D02*
X150798761Y-118690130D01*
X163900366Y-120646188D02*
X164914553Y-121660375D01*
X163900366Y-118408410D02*
X163900366Y-120646188D01*
X162198562Y-116706606D02*
X163900366Y-118408410D01*
X161996016Y-116045704D02*
X162198562Y-116248250D01*
X166915076Y-121838477D02*
X166915076Y-122434540D01*
X162198562Y-116248250D02*
X162198562Y-116706606D01*
X165356720Y-121660375D02*
X165699619Y-122003274D01*
X167303984Y-121449569D02*
X166915076Y-121838477D01*
X166915076Y-122434540D02*
X166628480Y-122721136D01*
X164914553Y-121660375D02*
X165356720Y-121660375D01*
X167268630Y-123231267D02*
X167209781Y-123290116D01*
X161148277Y-117309252D02*
X160951531Y-117112506D01*
X162123764Y-115304811D02*
X162767523Y-115948570D01*
X160951531Y-117112506D02*
X160951531Y-116134872D01*
X160951531Y-116134872D02*
X161781592Y-115304811D01*
X163290745Y-118653738D02*
X161946259Y-117309252D01*
X163290745Y-121190745D02*
X163290745Y-118653738D01*
X167209781Y-123290116D02*
X165390116Y-123290116D01*
X167657538Y-121803122D02*
X167268630Y-122192030D01*
X161781592Y-115304811D02*
X162123764Y-115304811D01*
X165390116Y-123290116D02*
X163290745Y-121190745D01*
X167268630Y-122192030D02*
X167268630Y-123231267D01*
X161946259Y-117309252D02*
X161148277Y-117309252D01*
X162767523Y-115948570D02*
X162767523Y-116433503D01*
X165154519Y-123592387D02*
X162948252Y-121386120D01*
X163197101Y-115647101D02*
X163540000Y-115990000D01*
X161823595Y-117614063D02*
X161022021Y-117614063D01*
X162948252Y-118738720D02*
X161823595Y-117614063D01*
X167338577Y-123592387D02*
X165154519Y-123592387D01*
X167622183Y-123308781D02*
X167338577Y-123592387D01*
X161655333Y-115000000D02*
X162550000Y-115000000D01*
X167622183Y-122545584D02*
X167622183Y-123308781D01*
X162550000Y-115000000D02*
X163197101Y-115647101D01*
X160646720Y-116008613D02*
X161655333Y-115000000D01*
X161022021Y-117614063D02*
X160646720Y-117238762D01*
X168011091Y-122156676D02*
X167622183Y-122545584D01*
X162948252Y-121386120D02*
X162948252Y-118738720D01*
X160646720Y-117238762D02*
X160646720Y-116008613D01*
X164108962Y-116537006D02*
X163968702Y-116677266D01*
X165025723Y-123894658D02*
X162628975Y-121497910D01*
X161700931Y-117918874D02*
X160895765Y-117918874D01*
X160895765Y-117918874D02*
X160341909Y-117365018D01*
X162628975Y-121497910D02*
X162628975Y-118846918D01*
X163968702Y-116677266D02*
X163625803Y-117020165D01*
X160341909Y-115882357D02*
X161824266Y-114400000D01*
X162628975Y-118846918D02*
X161700931Y-117918874D01*
X167467373Y-123894658D02*
X165025723Y-123894658D01*
X167975737Y-123386294D02*
X167467373Y-123894658D01*
X168364645Y-122510229D02*
X167975737Y-122899137D01*
X167975737Y-122899137D02*
X167975737Y-123386294D01*
X160341909Y-117365018D02*
X160341909Y-115882357D01*
X161824266Y-114400000D02*
X162500236Y-114400000D01*
X163813103Y-115421039D02*
X164108962Y-115716898D01*
X163521275Y-115421039D02*
X163813103Y-115421039D01*
X162500236Y-114400000D02*
X163521275Y-115421039D01*
X164108962Y-115716898D02*
X164108962Y-116537006D01*
X162288450Y-118933868D02*
X161578267Y-118223685D01*
X162638644Y-114026256D02*
X163731156Y-115118768D01*
X161578267Y-118223685D02*
X160769509Y-118223685D01*
X164896927Y-124196929D02*
X162288450Y-121588452D01*
X161335877Y-114026256D02*
X162638644Y-114026256D01*
X164677927Y-115858388D02*
X164677927Y-116277298D01*
X160037098Y-115325035D02*
X161335877Y-114026256D01*
X167659961Y-124196929D02*
X164896927Y-124196929D01*
X168329290Y-123527600D02*
X167659961Y-124196929D01*
X168718198Y-122863782D02*
X168329290Y-123252690D01*
X160037098Y-117491274D02*
X160037098Y-115325035D01*
X163731156Y-115118768D02*
X163938307Y-115118768D01*
X162288450Y-121588452D02*
X162288450Y-118933868D01*
X168329290Y-123252690D02*
X168329290Y-123527600D01*
X163938307Y-115118768D02*
X164677927Y-115858388D01*
X160769509Y-118223685D02*
X160037098Y-117491274D01*
X167407307Y-114407455D02*
X167704487Y-114704635D01*
X166452313Y-113928537D02*
X166931231Y-114407455D01*
X167765542Y-115043997D02*
X167765542Y-115528930D01*
X167704487Y-114704635D02*
X167704487Y-114982942D01*
X166931231Y-114407455D02*
X167407307Y-114407455D01*
X167704487Y-114982942D02*
X167765542Y-115043997D01*
X171857628Y-120912044D02*
X171857628Y-121152203D01*
X171263782Y-120318198D02*
X171857628Y-120912044D01*
X165954175Y-113357035D02*
X166725903Y-113357035D01*
X167533563Y-114102644D02*
X168009298Y-114578379D01*
X168009298Y-114578379D02*
X168009298Y-114841108D01*
X167471512Y-114102644D02*
X167533563Y-114102644D01*
X168600730Y-115432540D02*
X168600730Y-115600061D01*
X166725903Y-113357035D02*
X167471512Y-114102644D01*
X168009298Y-114841108D02*
X168600730Y-115432540D01*
X165607161Y-113704049D02*
X165954175Y-113357035D01*
X171374876Y-119499998D02*
X171392747Y-119499998D01*
X171392747Y-119499998D02*
X171877680Y-119499998D01*
X170910229Y-119964645D02*
X171374876Y-119499998D01*
X165605042Y-112865840D02*
X166665775Y-112865840D01*
X167586343Y-113718877D02*
X168328972Y-114461506D01*
X166665775Y-112865840D02*
X167518812Y-113718877D01*
X168328972Y-114461506D02*
X168568740Y-114461506D01*
X167518812Y-113718877D02*
X167586343Y-113718877D01*
X171367767Y-118800000D02*
X171400000Y-118800000D01*
X170556676Y-119611091D02*
X171367767Y-118800000D01*
X166525340Y-112294338D02*
X165330720Y-112294338D01*
X170626195Y-118834465D02*
X170626195Y-114353273D01*
X165067957Y-112557101D02*
X165042899Y-112557101D01*
X167645068Y-113414066D02*
X166525340Y-112294338D01*
X165042899Y-112557101D02*
X164700000Y-112900000D01*
X168342958Y-113629670D02*
X168127354Y-113414066D01*
X170626195Y-114353273D02*
X170626195Y-113868340D01*
X168127354Y-113414066D02*
X167645068Y-113414066D01*
X170203122Y-119257538D02*
X170626195Y-118834465D01*
X165330720Y-112294338D02*
X165067957Y-112557101D01*
X167497999Y-112835198D02*
X166652328Y-111989527D01*
X170093653Y-113537704D02*
X170093653Y-113052771D01*
X170238477Y-118515076D02*
X170238477Y-114738477D01*
X169849569Y-118903984D02*
X170238477Y-118515076D01*
X170054675Y-114554675D02*
X170054675Y-113576682D01*
X166652328Y-111989527D02*
X164827280Y-111989527D01*
X170238477Y-114738477D02*
X170054675Y-114554675D01*
X164827280Y-111989527D02*
X164787300Y-112029507D01*
X170054675Y-113576682D02*
X170093653Y-113537704D01*
X168075725Y-112835198D02*
X167497999Y-112835198D01*
X167532652Y-112061600D02*
X166929057Y-111458005D01*
X166929057Y-111458005D02*
X164409345Y-111458005D01*
X164409345Y-111458005D02*
X164268088Y-111316748D01*
X164268088Y-111316748D02*
X163783155Y-111316748D01*
X169749864Y-114695574D02*
X169749864Y-113934672D01*
X169500418Y-113076255D02*
X169500418Y-112743077D01*
X169500418Y-112743077D02*
X169500418Y-112258144D01*
X169496016Y-118550431D02*
X169884924Y-118161523D01*
X169524081Y-113708889D02*
X169524081Y-113099918D01*
X169524081Y-113099918D02*
X169500418Y-113076255D01*
X169884924Y-118161523D02*
X169884924Y-114830634D01*
X169884924Y-114830634D02*
X169749864Y-114695574D01*
X169749864Y-113934672D02*
X169524081Y-113708889D01*
X169219270Y-113226174D02*
X168964275Y-112971180D01*
X169445053Y-114060928D02*
X169219270Y-113835146D01*
X168964275Y-112456099D02*
X168599462Y-112091286D01*
X168964275Y-112971180D02*
X168964275Y-112456099D01*
X169142462Y-118196878D02*
X169531370Y-117807970D01*
X168599462Y-111987073D02*
X168599462Y-111502140D01*
X169531370Y-114948401D02*
X169445053Y-114862084D01*
X168599462Y-112091286D02*
X168599462Y-111987073D01*
X169531370Y-117807970D02*
X169531370Y-114948401D01*
X169445053Y-114862084D02*
X169445053Y-114060928D01*
X169219270Y-113835146D02*
X169219270Y-113226174D01*
X168659464Y-112582355D02*
X168104154Y-112027045D01*
X168914459Y-113352430D02*
X168659464Y-113097435D01*
X168104154Y-111787278D02*
X167470070Y-111153194D01*
X167470070Y-111153194D02*
X164599017Y-111153194D01*
X168104154Y-112027045D02*
X168104154Y-111787278D01*
X163962448Y-110516625D02*
X163871784Y-110516625D01*
X168659464Y-113097435D02*
X168659464Y-112582355D01*
X168914459Y-113961401D02*
X168914459Y-113352430D01*
X164599017Y-111153194D02*
X163962448Y-110516625D01*
X168788909Y-117843324D02*
X169177817Y-117454416D01*
X169177817Y-115031995D02*
X169140242Y-114994420D01*
X169177817Y-117454416D02*
X169177817Y-115031995D01*
X169140242Y-114994420D02*
X169140242Y-114187184D01*
X169140242Y-114187184D02*
X168914459Y-113961401D01*
X163871784Y-110516625D02*
X163528885Y-110173726D01*
X171171502Y-100874322D02*
X170874322Y-101171502D01*
X170088909Y-99556676D02*
X170560731Y-100028498D01*
X167371502Y-104974322D02*
X167071502Y-105274322D01*
X171171502Y-100325678D02*
X171171502Y-100874322D01*
X164184933Y-106699996D02*
X163700000Y-106699996D01*
X167071501Y-106012534D02*
X166384039Y-106699996D01*
X167371502Y-103700463D02*
X167371502Y-104974322D01*
X170874322Y-100028498D02*
X171171502Y-100325678D01*
X167877855Y-103107076D02*
X167877855Y-103194110D01*
X166384039Y-106699996D02*
X164184933Y-106699996D01*
X170560731Y-100028498D02*
X170874322Y-100028498D01*
X167877855Y-103194110D02*
X167371502Y-103700463D01*
X167071502Y-105274322D02*
X167071501Y-106012534D01*
X169813429Y-101171502D02*
X167877855Y-103107076D01*
X170874322Y-101171502D02*
X169813429Y-101171502D01*
X171476313Y-100199422D02*
X170868921Y-99592030D01*
X170015731Y-101476313D02*
X171000578Y-101476313D01*
X171000578Y-101476313D02*
X171476313Y-101000578D01*
X168182666Y-103320366D02*
X168182666Y-103309378D01*
X167700000Y-103803032D02*
X168182666Y-103320366D01*
X163260132Y-106116804D02*
X166157625Y-106116804D01*
X170868921Y-99592030D02*
X170831370Y-99592030D01*
X170831370Y-99592030D02*
X170442462Y-99203122D01*
X168182666Y-103309378D02*
X170015731Y-101476313D01*
X167700000Y-105700000D02*
X167700000Y-103803032D01*
X166157625Y-106116804D02*
X166495177Y-105779252D01*
X162917233Y-105773905D02*
X163260132Y-106116804D01*
X171476313Y-101000578D02*
X171476313Y-100199422D01*
X171126834Y-101781124D02*
X171781124Y-101126834D01*
X171781124Y-99834677D02*
X171184924Y-99238477D01*
X170141987Y-101781124D02*
X171126834Y-101781124D01*
X168487477Y-103435634D02*
X170141987Y-101781124D01*
X171781124Y-101126834D02*
X171781124Y-99834677D01*
X168057101Y-103876997D02*
X168487477Y-103446622D01*
X168487477Y-103446622D02*
X168487477Y-103435634D01*
X168400000Y-105000000D02*
X168057101Y-104657101D01*
X171184924Y-99238477D02*
X170796016Y-98849569D01*
X165515067Y-105500000D02*
X166068151Y-104946916D01*
X166068151Y-104946916D02*
X166109319Y-104946916D01*
X163900000Y-105500000D02*
X165515067Y-105500000D01*
X168057101Y-104657101D02*
X168057101Y-103876997D01*
X166109319Y-104946916D02*
X166594252Y-104946916D01*
X166117019Y-104108740D02*
X166601952Y-104108740D01*
X163753727Y-104910933D02*
X165304134Y-104910933D01*
X162988743Y-104630882D02*
X163473676Y-104630882D01*
X165304134Y-104910933D02*
X166106327Y-104108740D01*
X166106327Y-104108740D02*
X166117019Y-104108740D01*
X163473676Y-104630882D02*
X163753727Y-104910933D01*
X169042899Y-103757101D02*
X169042899Y-103311279D01*
X172085935Y-99432382D02*
X171538477Y-98884924D01*
X170268243Y-102085935D02*
X171253090Y-102085935D01*
X172085935Y-101253090D02*
X172085935Y-99432382D01*
X169042899Y-103311279D02*
X170268243Y-102085935D01*
X168700000Y-104100000D02*
X169042899Y-103757101D01*
X171253090Y-102085935D02*
X172085935Y-101253090D01*
X171538477Y-98884924D02*
X171149569Y-98496016D01*
X164208262Y-104233682D02*
X165475968Y-104233682D01*
X166075987Y-103633663D02*
X166418886Y-103290764D01*
X165475968Y-104233682D02*
X166075987Y-103633663D01*
X171892030Y-98531370D02*
X171503122Y-98142462D01*
X172390746Y-99030086D02*
X171892030Y-98531370D01*
X172390746Y-101379346D02*
X172390746Y-99030086D01*
X170570092Y-103200000D02*
X172390746Y-101379346D01*
X170000000Y-103200000D02*
X170570092Y-103200000D01*
X163633163Y-103623879D02*
X164118096Y-103623879D01*
X164785311Y-103652492D02*
X165718559Y-102719244D01*
X165718559Y-102719244D02*
X167105809Y-102719244D01*
X167105809Y-102719244D02*
X167306354Y-102919789D01*
X164118096Y-103623879D02*
X164146709Y-103652492D01*
X164146709Y-103652492D02*
X164785311Y-103652492D01*
X172695557Y-98627790D02*
X172695557Y-101882787D01*
X172160405Y-102417939D02*
X171817506Y-102760838D01*
X172695557Y-101882787D02*
X172160405Y-102417939D01*
X171856676Y-97788909D02*
X172695557Y-98627790D01*
X165177544Y-102414433D02*
X167039428Y-102414433D01*
X164510988Y-103080989D02*
X165177544Y-102414433D01*
X167039428Y-102414433D02*
X167309658Y-102144202D01*
X167309658Y-102144202D02*
X167686844Y-102144202D01*
X173267077Y-100806427D02*
X173267077Y-101291360D01*
X173267077Y-98492203D02*
X173267077Y-100806427D01*
X172210229Y-97435355D02*
X173267077Y-98492203D01*
X164297032Y-102109622D02*
X164268411Y-102138243D01*
X164268411Y-102138243D02*
X163925512Y-102481142D01*
X166913172Y-102109622D02*
X164297032Y-102109622D01*
X167751274Y-101271520D02*
X166913172Y-102109622D01*
X168792867Y-101271520D02*
X167751274Y-101271520D01*
X172977680Y-96667904D02*
X172977680Y-96300000D01*
X172563782Y-97081802D02*
X172977680Y-96667904D01*
X170701352Y-93012244D02*
X170358453Y-92669345D01*
X170701352Y-93853064D02*
X170701352Y-93012244D01*
X170018198Y-94536218D02*
X170701352Y-93853064D01*
X166190386Y-96370794D02*
X166675319Y-96370794D01*
X165790378Y-96770802D02*
X166190386Y-96370794D01*
X165790378Y-99801371D02*
X165790378Y-96770802D01*
X165449376Y-100142373D02*
X165790378Y-99801371D01*
X169524179Y-93801259D02*
X169524179Y-93688187D01*
X169275737Y-94049701D02*
X169524179Y-93801259D01*
X169524179Y-93688187D02*
X169867078Y-93345288D01*
X169664645Y-94889771D02*
X169275737Y-94500863D01*
X169275737Y-94500863D02*
X169275737Y-94049701D01*
X165257101Y-96242899D02*
X165600000Y-95900000D01*
X165257101Y-98192766D02*
X165257101Y-96242899D01*
X164496621Y-100273613D02*
X165485567Y-99284667D01*
X165485567Y-99284667D02*
X165485567Y-98421232D01*
X165485567Y-98421232D02*
X165257101Y-98192766D01*
X169311091Y-95243324D02*
X168922069Y-94854302D01*
X168922069Y-94854302D02*
X168922069Y-94042480D01*
X168922069Y-94042480D02*
X168922069Y-93557547D01*
X165082674Y-94871502D02*
X165345135Y-94871502D01*
X164914047Y-99035328D02*
X164914047Y-95040129D01*
X165345135Y-94871502D02*
X165701405Y-95227772D01*
X164914047Y-95040129D02*
X165082674Y-94871502D01*
X165701405Y-95227772D02*
X165930935Y-95227772D01*
X165930935Y-95227772D02*
X166415868Y-95227772D01*
X169034929Y-92842899D02*
X169157101Y-92842899D01*
X168583216Y-92986876D02*
X168890952Y-92986876D01*
X168323688Y-94686988D02*
X168323688Y-93246404D01*
X168568630Y-94931930D02*
X168323688Y-94686988D01*
X168957538Y-95596878D02*
X168568630Y-95207970D01*
X168323688Y-93246404D02*
X168583216Y-92986876D01*
X168890952Y-92986876D02*
X169034929Y-92842899D01*
X168568630Y-95207970D02*
X168568630Y-94931930D01*
X169157101Y-92842899D02*
X169500000Y-92500000D01*
X164080050Y-95415351D02*
X164958791Y-94536610D01*
X165371134Y-94536610D02*
X165856067Y-94536610D01*
X164958791Y-94536610D02*
X165371134Y-94536610D01*
X164080050Y-99148578D02*
X164080050Y-95415351D01*
X168273731Y-92865294D02*
X168273731Y-92758273D01*
X168018877Y-93120148D02*
X168273731Y-92865294D01*
X168603984Y-95950431D02*
X168251628Y-95598075D01*
X168251628Y-95045995D02*
X168018877Y-94813244D01*
X168018877Y-94813244D02*
X168018877Y-93120148D01*
X168273731Y-92758273D02*
X168616630Y-92415374D01*
X168251628Y-95598075D02*
X168251628Y-95045995D01*
X165207355Y-93671502D02*
X166171502Y-93671502D01*
X163435854Y-95443003D02*
X165207355Y-93671502D01*
X163435854Y-98612285D02*
X163435854Y-95443003D01*
X166171502Y-93671502D02*
X166500000Y-94000000D01*
X168657101Y-91842899D02*
X169000000Y-91500000D01*
X167781124Y-92926834D02*
X167781124Y-92442629D01*
X167714066Y-94939500D02*
X167714066Y-92993892D01*
X167946817Y-95172251D02*
X167714066Y-94939500D01*
X167781124Y-92442629D02*
X168380854Y-91842899D01*
X168380854Y-91842899D02*
X168657101Y-91842899D01*
X167946817Y-96000370D02*
X167946817Y-95172251D01*
X168250431Y-96303984D02*
X167946817Y-96000370D01*
X167714066Y-92993892D02*
X167781124Y-92926834D01*
X165515067Y-93100000D02*
X166000000Y-93100000D01*
X165315067Y-93100000D02*
X165515067Y-93100000D01*
X162864353Y-99250252D02*
X162864353Y-95550714D01*
X162864353Y-95550714D02*
X165315067Y-93100000D01*
X162933625Y-99319524D02*
X162864353Y-99250252D01*
X167601092Y-96361752D02*
X167601092Y-95257593D01*
X167557101Y-91820830D02*
X167900000Y-91477931D01*
X167409255Y-92867636D02*
X167476313Y-92800578D01*
X167409255Y-95065756D02*
X167409255Y-92867636D01*
X167896878Y-96657538D02*
X167601092Y-96361752D01*
X167476313Y-92800578D02*
X167476313Y-91901618D01*
X167476313Y-91901618D02*
X167557101Y-91820830D01*
X167601092Y-95257593D02*
X167409255Y-95065756D01*
X162207512Y-95707555D02*
X165515067Y-92400000D01*
X162207512Y-98900766D02*
X162207512Y-95707555D01*
X166115067Y-92400000D02*
X166600000Y-92400000D01*
X165515067Y-92400000D02*
X166115067Y-92400000D01*
X167171502Y-91345958D02*
X167036766Y-91211222D01*
X167247539Y-95335107D02*
X167104444Y-95192012D01*
X161619606Y-94834572D02*
X161619606Y-99599826D01*
X165242956Y-91211222D02*
X161619606Y-94834572D01*
X161619606Y-99599826D02*
X161835375Y-99815595D01*
X167171502Y-92674322D02*
X167171502Y-91345958D01*
X167104444Y-95192012D02*
X167104444Y-92741380D01*
X167036766Y-91211222D02*
X165242956Y-91211222D01*
X167247539Y-96715306D02*
X167247539Y-95335107D01*
X167543324Y-97011091D02*
X167247539Y-96715306D01*
X167104444Y-92741380D02*
X167171502Y-92674322D01*
X157346862Y-99771229D02*
X157346862Y-98714796D01*
X145250000Y-100047600D02*
X145250000Y-100650000D01*
X157346862Y-98714796D02*
X157134337Y-98502271D01*
X145250000Y-99350000D02*
X145250000Y-100047600D01*
X149139646Y-98202271D02*
X146397728Y-98202271D01*
X149439646Y-98502271D02*
X149139646Y-98202271D01*
X146397728Y-98202271D02*
X145250000Y-99350000D01*
X157134337Y-98502271D02*
X149439646Y-98502271D01*
X156109609Y-98804542D02*
X149314442Y-98804542D01*
X145750000Y-100047600D02*
X145750000Y-100650000D01*
X145750000Y-99277474D02*
X145750000Y-100047600D01*
X146522932Y-98504542D02*
X145750000Y-99277474D01*
X149014442Y-98504542D02*
X146522932Y-98504542D01*
X156760000Y-98970000D02*
X156275067Y-98970000D01*
X156275067Y-98970000D02*
X156109609Y-98804542D01*
X156760000Y-99071251D02*
X156760000Y-98970000D01*
X149314442Y-98804542D02*
X149014442Y-98504542D01*
X155525620Y-99106813D02*
X149189238Y-99106813D01*
X146250000Y-99350000D02*
X146250000Y-100047600D01*
X146250000Y-100047600D02*
X146250000Y-100650000D01*
X148889238Y-98806813D02*
X146793187Y-98806813D01*
X149189238Y-99106813D02*
X148889238Y-98806813D01*
X156138620Y-99719813D02*
X155525620Y-99106813D01*
X146793187Y-98806813D02*
X146250000Y-99350000D01*
X146750000Y-100650000D02*
X146750000Y-100047600D01*
X147502142Y-99295458D02*
X148950408Y-99295458D01*
X146750000Y-100047600D02*
X147502142Y-99295458D01*
X153799424Y-100248137D02*
X154142323Y-100591036D01*
X149064034Y-99409084D02*
X152960371Y-99409084D01*
X152960371Y-99409084D02*
X153799424Y-100248137D01*
X148950408Y-99295458D02*
X149064034Y-99409084D01*
X147250000Y-100650000D02*
X147250000Y-100047600D01*
X152540381Y-100040381D02*
X153660016Y-101160016D01*
X147699871Y-99597729D02*
X148825204Y-99597729D01*
X154544283Y-101160016D02*
X155029216Y-101160016D01*
X147250000Y-100047600D02*
X147699871Y-99597729D01*
X149267855Y-100040381D02*
X152540381Y-100040381D01*
X148825204Y-99597729D02*
X149267855Y-100040381D01*
X153660016Y-101160016D02*
X154544283Y-101160016D01*
X147750000Y-100047600D02*
X147897600Y-99900000D01*
X151514125Y-100345191D02*
X153080751Y-101911817D01*
X147897600Y-99900000D02*
X148700000Y-99900000D01*
X153578988Y-101911817D02*
X154063921Y-101911817D01*
X147750000Y-100650000D02*
X147750000Y-100047600D01*
X148700000Y-99900000D02*
X149145191Y-100345191D01*
X149145191Y-100345191D02*
X151514125Y-100345191D01*
X153080751Y-101911817D02*
X153578988Y-101911817D01*
X153280879Y-102543011D02*
X154324924Y-102543011D01*
X154965990Y-102278211D02*
X155450923Y-102278211D01*
X151387868Y-100650000D02*
X153280879Y-102543011D01*
X154589724Y-102278211D02*
X154965990Y-102278211D01*
X154324924Y-102543011D02*
X154589724Y-102278211D01*
X148250000Y-100650000D02*
X151387868Y-100650000D01*
X154357101Y-103322899D02*
X154700000Y-102980000D01*
X154357101Y-103352897D02*
X154357101Y-103322899D01*
X148250000Y-104250000D02*
X153459998Y-104250000D01*
X153459998Y-104250000D02*
X154357101Y-103352897D01*
X155083104Y-103608963D02*
X155243427Y-103448640D01*
X147997600Y-105100000D02*
X153276889Y-105100000D01*
X147750000Y-104250000D02*
X147750000Y-104852400D01*
X154767926Y-103608963D02*
X155083104Y-103608963D01*
X155243427Y-103448640D02*
X155246423Y-103448640D01*
X153276889Y-105100000D02*
X154767926Y-103608963D01*
X147750000Y-104852400D02*
X147997600Y-105100000D01*
X155246423Y-103448640D02*
X155731356Y-103448640D01*
X147802411Y-105404811D02*
X153415505Y-105404811D01*
X153415505Y-105404811D02*
X154647163Y-104173153D01*
X154647163Y-104173153D02*
X154671840Y-104173153D01*
X147250000Y-104250000D02*
X147250000Y-104852400D01*
X154671840Y-104173153D02*
X155156773Y-104173153D01*
X147250000Y-104852400D02*
X147802411Y-105404811D01*
X153764037Y-105773268D02*
X154248970Y-105773268D01*
X146750000Y-104852400D02*
X147670868Y-105773268D01*
X147670868Y-105773268D02*
X153764037Y-105773268D01*
X146750000Y-104250000D02*
X146750000Y-104852400D01*
X154481992Y-106344944D02*
X155030908Y-105796028D01*
X153974869Y-106344944D02*
X154481992Y-106344944D01*
X147735849Y-106338249D02*
X153968174Y-106338249D01*
X155030908Y-105796028D02*
X155030908Y-105311095D01*
X153968174Y-106338249D02*
X153974869Y-106344944D01*
X146250000Y-104250000D02*
X146250000Y-104852400D01*
X146250000Y-104852400D02*
X147735849Y-106338249D01*
X155020200Y-106279322D02*
X155020200Y-106239860D01*
X147540660Y-106643060D02*
X153841918Y-106643060D01*
X155020200Y-106239860D02*
X155502371Y-105757689D01*
X145750000Y-104250000D02*
X145750000Y-104852400D01*
X154649767Y-106649755D02*
X155020200Y-106279322D01*
X153841918Y-106643060D02*
X153848613Y-106649755D01*
X145750000Y-104852400D02*
X147540660Y-106643060D01*
X153848613Y-106649755D02*
X154649767Y-106649755D01*
X155502371Y-105757689D02*
X155987304Y-105757689D01*
X153715662Y-106947871D02*
X153722357Y-106954566D01*
X147345471Y-106947871D02*
X153715662Y-106947871D01*
X145250000Y-104852400D02*
X147345471Y-106947871D01*
X145250000Y-104250000D02*
X145250000Y-104852400D01*
X155248803Y-106847031D02*
X155591702Y-106504132D01*
X155141268Y-106954566D02*
X155248803Y-106847031D01*
X153722357Y-106954566D02*
X155141268Y-106954566D01*
X156254290Y-107134728D02*
X156597189Y-106791829D01*
X156129641Y-107259377D02*
X156254290Y-107134728D01*
X153596101Y-107259377D02*
X156129641Y-107259377D01*
X153589406Y-107252682D02*
X153596101Y-107259377D01*
X147174184Y-107252682D02*
X153589406Y-107252682D01*
X144750000Y-104250000D02*
X144750000Y-104828498D01*
X144750000Y-104828498D02*
X147174184Y-107252682D01*
X155506576Y-109108043D02*
X155849475Y-109450942D01*
X150026466Y-108271134D02*
X152357536Y-108271134D01*
X147800000Y-110497600D02*
X150026466Y-108271134D01*
X147800000Y-111100000D02*
X147800000Y-110497600D01*
X152357536Y-108271134D02*
X152581591Y-108495189D01*
X152581591Y-108495189D02*
X154893722Y-108495189D01*
X154893722Y-108495189D02*
X155506576Y-109108043D01*
X148300000Y-110497600D02*
X148300000Y-111100000D01*
X148300000Y-110444665D02*
X148300000Y-110497600D01*
X150168720Y-108575945D02*
X148300000Y-110444665D01*
X152231280Y-108575945D02*
X150168720Y-108575945D01*
X152755334Y-109100000D02*
X152231280Y-108575945D01*
X154690282Y-109100000D02*
X152755334Y-109100000D01*
X155843563Y-110253281D02*
X154690282Y-109100000D01*
X156328496Y-110253281D02*
X155843563Y-110253281D01*
X155118765Y-110401904D02*
X155461664Y-110744803D01*
X154121672Y-109404811D02*
X155118765Y-110401904D01*
X152629079Y-109404811D02*
X154121672Y-109404811D01*
X152105024Y-108880756D02*
X152629079Y-109404811D01*
X150294976Y-108880756D02*
X152105024Y-108880756D01*
X148800000Y-110375732D02*
X150294976Y-108880756D01*
X148800000Y-111100000D02*
X148800000Y-110375732D01*
X150421232Y-109185567D02*
X149300000Y-110306799D01*
X155574033Y-111396303D02*
X155494036Y-111316306D01*
X156058966Y-111396303D02*
X155574033Y-111396303D01*
X155187342Y-111316306D02*
X153580658Y-109709622D01*
X152502822Y-109709622D02*
X151978768Y-109185567D01*
X149300000Y-110306799D02*
X149300000Y-110497600D01*
X155494036Y-111316306D02*
X155187342Y-111316306D01*
X151978768Y-109185567D02*
X150421232Y-109185567D01*
X153580658Y-109709622D02*
X152502822Y-109709622D01*
X149300000Y-110497600D02*
X149300000Y-111100000D01*
X151852512Y-109490378D02*
X152376567Y-110014433D01*
X150547488Y-109490378D02*
X151852512Y-109490378D01*
X153196073Y-110014433D02*
X154779447Y-111597807D01*
X154779447Y-111597807D02*
X155122346Y-111940706D01*
X152376567Y-110014433D02*
X153196073Y-110014433D01*
X149800000Y-110237866D02*
X150547488Y-109490378D01*
X149800000Y-111100000D02*
X149800000Y-110237866D01*
X150300000Y-110497600D02*
X150300000Y-111100000D01*
X150673744Y-109795189D02*
X150300000Y-110168933D01*
X151726256Y-109795189D02*
X150673744Y-109795189D01*
X152250310Y-110319244D02*
X151726256Y-109795189D01*
X152655060Y-110319244D02*
X152250310Y-110319244D01*
X155733147Y-112537001D02*
X155248214Y-112537001D01*
X150300000Y-110168933D02*
X150300000Y-110497600D01*
X154848024Y-112512209D02*
X152655060Y-110319244D01*
X155223422Y-112512209D02*
X154848024Y-112512209D01*
X155248214Y-112537001D02*
X155223422Y-112512209D01*
X150800000Y-111100000D02*
X150800000Y-110300000D01*
X150800000Y-110300000D02*
X150900000Y-110200000D01*
X150900000Y-110200000D02*
X151700000Y-110200000D01*
X151700000Y-110200000D02*
X152124055Y-110624055D01*
X152124055Y-110624055D02*
X152506278Y-110624055D01*
X152506278Y-110624055D02*
X154645800Y-112763577D01*
X154645800Y-112763577D02*
X154988699Y-113106476D01*
X154418652Y-113363655D02*
X154715832Y-113660835D01*
X154818915Y-113660835D02*
X154964673Y-113806593D01*
X151300000Y-111100000D02*
X152266688Y-111100000D01*
X154715832Y-113660835D02*
X154818915Y-113660835D01*
X152266688Y-111100000D02*
X154418652Y-113251964D01*
X154418652Y-113251964D02*
X154418652Y-113363655D01*
X154964673Y-113806593D02*
X155449606Y-113806593D01*
X151300000Y-114700000D02*
X151597400Y-114700000D01*
X152009226Y-114288174D02*
X154616544Y-114288174D01*
X151597400Y-114700000D02*
X152009226Y-114288174D01*
X152858502Y-115500000D02*
X153660373Y-114698129D01*
X154667796Y-114949170D02*
X155152729Y-114949170D01*
X150997600Y-115500000D02*
X152858502Y-115500000D01*
X150800000Y-115302400D02*
X150997600Y-115500000D01*
X150800000Y-114700000D02*
X150800000Y-115302400D01*
X153660373Y-114698129D02*
X154209018Y-114698129D01*
X154209018Y-114698129D02*
X154460059Y-114949170D01*
X154460059Y-114949170D02*
X154667796Y-114949170D01*
X150300000Y-114700000D02*
X150300000Y-115302400D01*
X153591796Y-115612530D02*
X153934695Y-115269631D01*
X150802411Y-115804811D02*
X153399515Y-115804811D01*
X150300000Y-115302400D02*
X150802411Y-115804811D01*
X153399515Y-115804811D02*
X153591796Y-115612530D01*
X149800000Y-114700000D02*
X149800000Y-115275726D01*
X153986760Y-115922208D02*
X154471693Y-115922208D01*
X153799346Y-116109622D02*
X153986760Y-115922208D01*
X150633896Y-116109622D02*
X153799346Y-116109622D01*
X149800000Y-115275726D02*
X150633896Y-116109622D01*
X154221662Y-116551572D02*
X154540384Y-116551572D01*
X154084523Y-116414433D02*
X154221662Y-116551572D01*
X150507640Y-116414433D02*
X154084523Y-116414433D01*
X149300000Y-115206793D02*
X150507640Y-116414433D01*
X149300000Y-114700000D02*
X149300000Y-115206793D01*
X154540384Y-116551572D02*
X155025317Y-116551572D01*
X148800000Y-115137860D02*
X148800000Y-114700000D01*
X150381384Y-116719244D02*
X148800000Y-115137860D01*
X154107800Y-116868777D02*
X153958267Y-116719244D01*
X153958267Y-116719244D02*
X150381384Y-116719244D01*
X154534224Y-116868777D02*
X154107800Y-116868777D01*
X154788520Y-117123074D02*
X154534224Y-116868777D01*
X155508273Y-117123074D02*
X154788520Y-117123074D01*
X156216367Y-116414980D02*
X155508273Y-117123074D01*
X148300000Y-114700000D02*
X148300000Y-115302400D01*
X148300000Y-115302400D02*
X148597600Y-115600000D01*
X156390170Y-116999381D02*
X156875103Y-116999381D01*
X148600000Y-115600000D02*
X150024055Y-117024055D01*
X150024055Y-117024055D02*
X153832011Y-117024055D01*
X148597600Y-115600000D02*
X148600000Y-115600000D01*
X153832011Y-117024055D02*
X153981544Y-117173588D01*
X153981544Y-117173588D02*
X154407968Y-117173588D01*
X154407968Y-117173588D02*
X154674104Y-117439725D01*
X154674104Y-117439725D02*
X155874125Y-117439725D01*
X155874125Y-117439725D02*
X156314469Y-116999381D01*
X156314469Y-116999381D02*
X156390170Y-116999381D01*
X169574322Y-124371502D02*
X168959565Y-124371502D01*
X168959565Y-124371502D02*
X168381067Y-124950000D01*
X133594652Y-120294652D02*
X130515130Y-117215130D01*
X168381067Y-124950000D02*
X156917951Y-124950000D01*
X156917951Y-124950000D02*
X154147107Y-127720844D01*
X142010715Y-127200000D02*
X136638518Y-127200000D01*
X154147107Y-127720844D02*
X142531559Y-127720844D01*
X142531559Y-127720844D02*
X142010715Y-127200000D01*
X136638518Y-127200000D02*
X133594652Y-124156134D01*
X133594652Y-124156134D02*
X133594652Y-120294652D01*
X130515130Y-117215130D02*
X130515130Y-115540339D01*
X130515130Y-115540339D02*
X130515130Y-115055406D01*
X133550000Y-114050000D02*
X132100000Y-114050000D01*
X170650000Y-125200000D02*
X170650000Y-124597600D01*
X170650000Y-124597600D02*
X170423902Y-124371502D01*
X170423902Y-124371502D02*
X169574322Y-124371502D01*
X170910229Y-121449569D02*
X171299137Y-121838477D01*
X171299137Y-122646687D02*
X169574322Y-124371502D01*
X171299137Y-121838477D02*
X171299137Y-122646687D01*
X132878638Y-114618962D02*
X132947600Y-114550000D01*
X131700000Y-113634933D02*
X131531038Y-113803895D01*
X131826897Y-114618962D02*
X132878638Y-114618962D01*
X131531038Y-114323103D02*
X131826897Y-114618962D01*
X131531038Y-113803895D02*
X131531038Y-114323103D01*
X132947600Y-114550000D02*
X133550000Y-114550000D01*
X131700000Y-113150000D02*
X131700000Y-113634933D01*
X135200000Y-108193518D02*
X135006482Y-108193518D01*
X135006482Y-108193518D02*
X131200000Y-112000000D01*
X145196454Y-97531020D02*
X151750000Y-97531020D01*
X151750000Y-97531020D02*
X152432489Y-97531020D01*
X151450000Y-96350000D02*
X151450000Y-96952400D01*
X151750000Y-97252400D02*
X151750000Y-97531020D01*
X151450000Y-96952400D02*
X151750000Y-97252400D01*
X135200000Y-108193518D02*
X141495189Y-101898329D01*
X141495189Y-101232285D02*
X145196454Y-97531020D01*
X141495189Y-101898329D02*
X141495189Y-101232285D01*
X152432489Y-97531020D02*
X152917422Y-97531020D01*
X150823158Y-101579340D02*
X151166057Y-101236441D01*
X150702498Y-101700000D02*
X150823158Y-101579340D01*
X148800000Y-101700000D02*
X150702498Y-101700000D01*
X143628767Y-114651292D02*
X143628767Y-114798307D01*
X142456813Y-111974388D02*
X142456813Y-113479338D01*
X145130460Y-116300000D02*
X145615067Y-116300000D01*
X142456813Y-113479338D02*
X143628767Y-114651292D01*
X140150000Y-110747729D02*
X140595458Y-111193187D01*
X141675612Y-111193187D02*
X142456813Y-111974388D01*
X145615067Y-116300000D02*
X146100000Y-116300000D01*
X143628767Y-114798307D02*
X145130460Y-116300000D01*
X140595458Y-111193187D02*
X141675612Y-111193187D01*
X140150000Y-110747729D02*
X140150000Y-109600000D01*
X140150000Y-109600000D02*
X139900000Y-109350000D01*
X139900000Y-109350000D02*
X139000000Y-109350000D01*
X131100000Y-112907937D02*
X131100000Y-114319540D01*
X133567819Y-110440118D02*
X131100000Y-112907937D01*
X139842389Y-110440118D02*
X133567819Y-110440118D01*
X140150000Y-110747729D02*
X139842389Y-110440118D01*
X131830460Y-115050000D02*
X132947600Y-115050000D01*
X131100000Y-114319540D02*
X131830460Y-115050000D01*
X132947600Y-115050000D02*
X133550000Y-115050000D01*
X151850000Y-112150000D02*
X151850000Y-112750000D01*
X151850000Y-112750000D02*
X151700000Y-112900000D01*
X132947600Y-115550000D02*
X133550000Y-115550000D01*
X131902985Y-115550000D02*
X132947600Y-115550000D01*
X130631038Y-114278053D02*
X131902985Y-115550000D01*
X130631038Y-111668962D02*
X130631038Y-114278053D01*
X163497623Y-90500000D02*
X163097623Y-90900000D01*
X171928962Y-92036897D02*
X170392065Y-90500000D01*
X163097623Y-90900000D02*
X151400000Y-90900000D01*
X151400000Y-90900000D02*
X130631038Y-111668962D01*
X170392065Y-90500000D02*
X163497623Y-90500000D01*
X172900000Y-91500000D02*
X172297600Y-91500000D01*
X171928962Y-91868638D02*
X171928962Y-92036897D01*
X172297600Y-91500000D02*
X171928962Y-91868638D01*
X171149569Y-93332496D02*
X171928962Y-92553103D01*
X171149569Y-94889771D02*
X171149569Y-93332496D01*
X171928962Y-92553103D02*
X171928962Y-92036897D01*
X144750000Y-100047600D02*
X144750000Y-100650000D01*
X157500000Y-98200000D02*
X149564850Y-98200000D01*
X144750000Y-99250000D02*
X144750000Y-100047600D01*
X146100000Y-97900000D02*
X144750000Y-99250000D01*
X149264850Y-97900000D02*
X146100000Y-97900000D01*
X158300000Y-99000000D02*
X157500000Y-98200000D01*
X149564850Y-98200000D02*
X149264850Y-97900000D01*
X154203439Y-119128480D02*
X157040454Y-119128480D01*
X157040454Y-119128480D02*
X158595191Y-117573743D01*
X158595191Y-117573743D02*
X158595191Y-108307209D01*
X158595191Y-108307209D02*
X159450000Y-107452400D01*
X159450000Y-107452400D02*
X159450000Y-106700000D01*
X148000000Y-119900000D02*
X148200000Y-119700000D01*
X148000000Y-121600000D02*
X148000000Y-119900000D01*
X158255617Y-117482251D02*
X158255617Y-107958017D01*
X158255617Y-107958017D02*
X157750000Y-107452400D01*
X157750000Y-107452400D02*
X157750000Y-106700000D01*
X149000000Y-121600000D02*
X149000000Y-119900002D01*
X149000000Y-119900002D02*
X149100002Y-119800000D01*
X154275492Y-118354711D02*
X153881135Y-118354711D01*
X154511159Y-118590378D02*
X154275492Y-118354711D01*
X158255617Y-117482251D02*
X157147490Y-118590378D01*
X157147490Y-118590378D02*
X154511159Y-118590378D01*
X136150000Y-114550000D02*
X138100000Y-114550000D01*
X138100000Y-114550000D02*
X138250000Y-114700000D01*
X136150000Y-115550000D02*
X136150000Y-115822400D01*
X136150000Y-115822400D02*
X137027600Y-116700000D01*
X137027600Y-116700000D02*
X137497600Y-116700000D01*
X137497600Y-116700000D02*
X138250000Y-116700000D01*
X136150000Y-114050000D02*
X137250000Y-114050000D01*
X137250000Y-114050000D02*
X137497600Y-113802400D01*
X137497600Y-113802400D02*
X137497600Y-113652400D01*
X138100000Y-113050000D02*
X138250000Y-113050000D01*
X137497600Y-113652400D02*
X138100000Y-113050000D01*
X135900000Y-118150000D02*
X135900000Y-117547600D01*
X135900000Y-117547600D02*
X135100000Y-116747600D01*
X135100000Y-116747600D02*
X135100000Y-116100000D01*
M02*
