M48
INCH,TZ
T1C0.013
T2C0.013
%
G90
G05
T1
X52596Y-45709
X52865Y-45285
X53279Y-45055
X53455Y-45512
X54356Y-47165
X54685Y-47165
X54713Y-44812
X55236Y-47205
X55247Y-45378
X55591Y-47126
X55827Y-43661
X55827Y-44377
X55911Y-47206
X56054Y-46195
X56192Y-43394
X56260Y-47147
X56299Y-46417
X56365Y-44741
X56378Y-40354
X56642Y-44379
X56685Y-47185
X56693Y-46575
X56850Y-43858
X56890Y-41496
X56940Y-43467
X57087Y-46614
X57087Y-47165
X57165Y-44134
X57205Y-45079
X57440Y-46213
X57441Y-46614
X57441Y-48583
X57747Y-46091
X58346Y-47126
X58498Y-45994
X58701Y-47165
X58780Y-46620
X58785Y-46169
X59020Y-47080
X59370Y-46537
X59514Y-39857
X59709Y-46855
X59724Y-44449
X60079Y-46850
X60204Y-38398
X60394Y-40748
X60583Y-46596
X60605Y-44753
X60710Y-46901
X60728Y-41643
X61005Y-47590
X61036Y-41461
X61085Y-41013
X61496Y-38228
X62323Y-38976
X62717Y-43228
X62756Y-40079
X62756Y-43583
X62928Y-47153
X63048Y-47461
X63110Y-46732
X63307Y-47874
X63465Y-46901
X64693Y-46449
X64764Y-47362
X64796Y-46108
X64981Y-46949
X65197Y-37756
X65255Y-48052
X65298Y-37219
X65354Y-36654
X65472Y-45304
X65518Y-37491
X65519Y-40666
X65549Y-41645
X65551Y-37008
X65588Y-41318
X65591Y-36378
X65591Y-46535
X65591Y-40988
X65602Y-48357
X65620Y-37941
X65800Y-45267
X65869Y-40520
X65945Y-45939
X65958Y-44119
X65984Y-39173
X66018Y-40214
X66024Y-41614
X66049Y-45484
X66102Y-36015
X66172Y-44423
X66277Y-44736
X66299Y-41339
X66366Y-45064
X66378Y-45512
X66385Y-36384
X66417Y-40984
X66454Y-39871
X66505Y-36834
X66535Y-36024
X66654Y-48740
X66732Y-36417
X66732Y-44196
X66877Y-36750
X66929Y-40630
X66966Y-44509
X67070Y-36484
X67165Y-39606
X67176Y-44830
X67323Y-48740
X67465Y-36331
X67480Y-46772
X67645Y-40457
X67660Y-47698
X67668Y-47047
X67835Y-36929
X68101Y-37913
X68215Y-39878
T2
X60604Y-45382
X60655Y-40123
X60686Y-39603
X60816Y-45639
X60873Y-44995
X60906Y-40543
X60906Y-39358
X61019Y-44530
X61034Y-45886
X61035Y-39827
X61072Y-44071
X61084Y-45256
X61201Y-44806
X61201Y-40267
X61205Y-43600
X61257Y-41931
X61312Y-40728
X61312Y-44306
X61358Y-43091
X61412Y-41637
X61441Y-43857
X61472Y-39260
X61503Y-45833
X61547Y-43407
X61589Y-46344
X61652Y-42044
X61717Y-39004
X61762Y-46063
X61948Y-39280
X61987Y-45773
X63404Y-38998
X63592Y-45960
X63715Y-39297
X63778Y-45687
X63861Y-38937
X64082Y-45840
X64141Y-41643
X64147Y-39102
X64169Y-41193
X64345Y-38824
X64381Y-43375
X64386Y-45665
X64420Y-46071
X64423Y-40797
X64449Y-42008
X64482Y-43825
X64528Y-41535
X64538Y-40347
X64598Y-39035
X64649Y-41037
X64762Y-39478
X64768Y-40583
X64834Y-45778
X64843Y-44449
X64877Y-44106
X64927Y-38990
X65138Y-39426
X65199Y-44435
X65200Y-44765
X65532Y-44854
X66378Y-43898
T0
M30
